ISO-10303-21;
HEADER;
FILE_DESCRIPTION (( 'STEP AP214' ),
    '1' );
FILE_NAME ('ELP-0035.STEP',
    '2026-05-02T08:10:50',
    ( '' ),
    ( '' ),
    'SwSTEP 2.0',
    'SolidWorks 2024',
    '' );
FILE_SCHEMA (( 'AUTOMOTIVE_DESIGN' ));
ENDSEC;

DATA;
#1 = AXIS2_PLACEMENT_3D ( 'NONE', #1042, #28, #1131 ) ;
#2 = ADVANCED_FACE ( 'NONE', ( #453 ), #924, .F. ) ;
#3 = ORIENTED_EDGE ( 'NONE', *, *, #434, .F. ) ;
#4 = DIRECTION ( 'NONE',  ( -0.000000000000000000, -0.000000000000000000, 1.000000000000000000 ) ) ;
#5 = CARTESIAN_POINT ( 'NONE',  ( 4.891723926828064783, 21.91223692827093572, -86.00000000000000000 ) ) ;
#6 = CARTESIAN_POINT ( 'NONE',  ( 12.65578325680745131, 3.328836156483542030, -66.00000000000000000 ) ) ;
#7 = CARTESIAN_POINT ( 'NONE',  ( 17.26944477322308913, 1.912236928270936609, 0.000000000000000000 ) ) ;
#8 = ORIENTED_EDGE ( 'NONE', *, *, #426, .T. ) ;
#9 = CARTESIAN_POINT ( 'NONE',  ( 19.58209106596493143, 0.1278897364970638106, -3.000000000000000000 ) ) ;
#10 = CARTESIAN_POINT ( 'NONE',  ( 0.6361362788993354389, -1.630042064760637288, 0.000000000000000000 ) ) ;
#11 = DIRECTION ( 'NONE',  ( -5.393199694117866902E-17, -1.000000000000000000, -0.000000000000000000 ) ) ;
#12 = ORIENTED_EDGE ( 'NONE', *, *, #985, .F. ) ;
#13 = DIRECTION ( 'NONE',  ( 0.9315733027957475709, 0.3635535469751637327, 0.000000000000000000 ) ) ;
#14 = ORIENTED_EDGE ( 'NONE', *, *, #632, .T. ) ;
#15 = FACE_OUTER_BOUND ( 'NONE', #857, .T. ) ;
#16 = CARTESIAN_POINT ( 'NONE',  ( -42.94312967003572368, -27.49341037671565857, 4.000000000000000000 ) ) ;
#17 = DIRECTION ( 'NONE',  ( 0.9315733027957472379, 0.3635535469751644544, 0.000000000000000000 ) ) ;
#18 = EDGE_CURVE ( 'NONE', #201, #567, #821, .T. ) ;
#19 = DIRECTION ( 'NONE',  ( 0.3635535469751637327, -0.9315733027957475709, 0.000000000000000000 ) ) ;
#20 = VECTOR ( 'NONE', #264, 1000.000000000000000 ) ;
#21 = CARTESIAN_POINT ( 'NONE',  ( 0.000000000000000000, 0.000000000000000000, 0.000000000000000000 ) ) ;
#22 = ORIENTED_EDGE ( 'NONE', *, *, #499, .T. ) ;
#23 = CARTESIAN_POINT ( 'NONE',  ( 12.65578325680745131, 3.328836156483542030, -16.00000000000000000 ) ) ;
#24 = AXIS2_PLACEMENT_3D ( 'NONE', #1165, #889, #150 ) ;
#25 = DIRECTION ( 'NONE',  ( 0.000000000000000000, 0.000000000000000000, -1.000000000000000000 ) ) ;
#26 = CARTESIAN_POINT ( 'NONE',  ( -42.94312967003571657, -27.49341037671565147, -82.00000000000000000 ) ) ;
#27 = DIRECTION ( 'NONE',  ( 1.000000000000000000, 0.000000000000000000, -0.000000000000000000 ) ) ;
#28 = DIRECTION ( 'NONE',  ( 0.7660444431189771253, -0.6427876096865405842, 0.000000000000000000 ) ) ;
#29 = ADVANCED_FACE ( 'NONE', ( #737 ), #475, .T. ) ;
#30 = ADVANCED_FACE ( 'NONE', ( #298 ), #854, .T. ) ;
#31 = ORIENTED_EDGE ( 'NONE', *, *, #222, .T. ) ;
#32 = DIRECTION ( 'NONE',  ( 0.000000000000000000, -1.000000000000000000, 0.000000000000000000 ) ) ;
#33 = DIRECTION ( 'NONE',  ( 0.3635535469751645099, -0.9315733027957472379, 0.000000000000000000 ) ) ;
#34 = DIRECTION ( 'NONE',  ( -0.9112161910373277607, -0.3556090297120214627, -0.2079116908177571776 ) ) ;
#35 = DIRECTION ( 'NONE',  ( 1.000000000000000000, 0.000000000000000000, 0.000000000000000000 ) ) ;
#36 = PLANE ( 'NONE',  #1 ) ;
#37 = VERTEX_POINT ( 'NONE', #502 ) ;
#38 = EDGE_CURVE ( 'NONE', #494, #893, #1185, .T. ) ;
#39 = PLANE ( 'NONE',  #485 ) ;
#40 = ORIENTED_EDGE ( 'NONE', *, *, #671, .T. ) ;
#41 = CARTESIAN_POINT ( 'NONE',  ( 17.26944477322308913, 1.912236928270936609, 4.000000000000000000 ) ) ;
#42 = LINE ( 'NONE', #413, #745 ) ;
#43 = ORIENTED_EDGE ( 'NONE', *, *, #727, .F. ) ;
#44 = VECTOR ( 'NONE', #271, 999.9999999999998863 ) ;
#45 = DIRECTION ( 'NONE',  ( -0.9315733027957475709, -0.3635535469751637327, 0.000000000000000000 ) ) ;
#46 = ADVANCED_FACE ( 'NONE', ( #497 ), #764, .T. ) ;
#47 = DIRECTION ( 'NONE',  ( -0.3635535469751644544, 0.9315733027957472379, 0.000000000000000000 ) ) ;
#48 = VECTOR ( 'NONE', #560, 1000.000000000000227 ) ;
#49 = CARTESIAN_POINT ( 'NONE',  ( 13.16420695061061608, 2.026046117446506756, -66.00000000000000000 ) ) ;
#50 = ORIENTED_EDGE ( 'NONE', *, *, #279, .F. ) ;
#51 = DIRECTION ( 'NONE',  ( 0.6427876096865403621, 0.7660444431189771253, -0.000000000000000000 ) ) ;
#52 = EDGE_LOOP ( 'NONE', ( #159, #648, #362, #584 ) ) ;
#53 = CARTESIAN_POINT ( 'NONE',  ( 9.899185427912888358, -6.871296124853518705, 0.000000000000000000 ) ) ;
#54 = EDGE_CURVE ( 'NONE', #430, #577, #328, .T. ) ;
#55 = ORIENTED_EDGE ( 'NONE', *, *, #692, .T. ) ;
#56 = LINE ( 'NONE', #695, #192 ) ;
#57 = CARTESIAN_POINT ( 'NONE',  ( 17.26944477322308913, 21.91223692827093572, 0.000000000000000000 ) ) ;
#58 = EDGE_CURVE ( 'NONE', #567, #538, #42, .T. ) ;
#59 = ORIENTED_EDGE ( 'NONE', *, *, #722, .T. ) ;
#60 = VECTOR ( 'NONE', #417, 1000.000000000000114 ) ;
#61 = CARTESIAN_POINT ( 'NONE',  ( -42.94312967003572368, -27.49341037671565857, 1.169061089185123636 ) ) ;
#62 = AXIS2_PLACEMENT_3D ( 'NONE', #1077, #615, #200 ) ;
#63 = EDGE_CURVE ( 'NONE', #946, #430, #776, .T. ) ;
#64 = EDGE_CURVE ( 'NONE', #248, #92, #581, .T. ) ;
#65 = DIRECTION ( 'NONE',  ( -0.3635535469751641213, 0.9315733027957473489, 0.000000000000000000 ) ) ;
#66 = VERTEX_POINT ( 'NONE', #687 ) ;
#67 = SURFACE_STYLE_USAGE ( .BOTH. , #259 ) ;
#68 = DIRECTION ( 'NONE',  ( 0.3635535469751636772, -0.9315733027957474599, 0.000000000000000000 ) ) ;
#69 = ORIENTED_EDGE ( 'NONE', *, *, #561, .T. ) ;
#70 = DIRECTION ( 'NONE',  ( -0.9315733027957472379, -0.3635535469751641213, -0.000000000000000000 ) ) ;
#71 = EDGE_CURVE ( 'NONE', #1188, #577, #1139, .T. ) ;
#72 = EDGE_LOOP ( 'NONE', ( #352, #1009, #3, #80 ) ) ;
#73 = FACE_OUTER_BOUND ( 'NONE', #239, .T. ) ;
#74 = ORIENTED_EDGE ( 'NONE', *, *, #1082, .T. ) ;
#75 = VERTEX_POINT ( 'NONE', #205 ) ;
#76 = CARTESIAN_POINT ( 'NONE',  ( 4.891723926828065672, 5.829729563776385959, 4.000000000000000000 ) ) ;
#77 = CARTESIAN_POINT ( 'NONE',  ( -1.422326450776768558, 6.083556476747069119, 0.000000000000000000 ) ) ;
#78 = CIRCLE ( 'NONE', #237, 3.000000000000000444 ) ;
#79 = VECTOR ( 'NONE', #853, 1000.000000000000114 ) ;
#80 = ORIENTED_EDGE ( 'NONE', *, *, #163, .F. ) ;
#81 = VECTOR ( 'NONE', #65, 1000.000000000000227 ) ;
#82 = ORIENTED_EDGE ( 'NONE', *, *, #744, .T. ) ;
#83 = DIRECTION ( 'NONE',  ( 0.9315733027957474599, 0.3635535469751641768, -0.000000000000000000 ) ) ;
#84 = DIRECTION ( 'NONE',  ( 0.3635535469751641768, -0.9315733027957473489, 0.000000000000000000 ) ) ;
#85 = ORIENTED_EDGE ( 'NONE', *, *, #736, .T. ) ;
#86 = VERTEX_POINT ( 'NONE', #53 ) ;
#87 = DIRECTION ( 'NONE',  ( -0.9597141645441052971, -0.2809781528400561723, 0.000000000000000000 ) ) ;
#88 = LINE ( 'NONE', #1019, #1133 ) ;
#89 = VERTEX_POINT ( 'NONE', #221 ) ;
#90 = DIRECTION ( 'NONE',  ( 0.7660444431189771253, -0.6427876096865405842, 0.000000000000000000 ) ) ;
#91 = ADVANCED_FACE ( 'NONE', ( #683 ), #305, .F. ) ;
#92 = VERTEX_POINT ( 'NONE', #564 ) ;
#93 = CARTESIAN_POINT ( 'NONE',  ( 17.26944477322308913, 21.91223692827093572, -86.00000000000000000 ) ) ;
#94 = CARTESIAN_POINT ( 'NONE',  ( 11.08058435002557651, 21.91223692827093572, -86.00000000000000000 ) ) ;
#95 = VERTEX_POINT ( 'NONE', #949 ) ;
#96 = AXIS2_PLACEMENT_3D ( 'NONE', #77, #441, #811 ) ;
#97 = VECTOR ( 'NONE', #1136, 1000.000000000000000 ) ;
#98 = PRODUCT_RELATED_PRODUCT_CATEGORY ( 'part', '', ( #802 ) ) ;
#99 = AXIS2_PLACEMENT_3D ( 'NONE', #369, #640, #185 ) ;
#100 = AXIS2_PLACEMENT_3D ( 'NONE', #21, #1043, #307 ) ;
#101 = VERTEX_POINT ( 'NONE', #395 ) ;
#102 = CARTESIAN_POINT ( 'NONE',  ( 17.26944477322308913, 21.91223692827093572, 4.000000000000000000 ) ) ;
#103 = LINE ( 'NONE', #643, #843 ) ;
#104 = ORIENTED_EDGE ( 'NONE', *, *, #397, .T. ) ;
#105 = VERTEX_POINT ( 'NONE', #1053 ) ;
#106 = CARTESIAN_POINT ( 'NONE',  ( -3.430579556720088519, 1.504591586898163191, -86.00000000000000000 ) ) ;
#107 = EDGE_CURVE ( 'NONE', #800, #201, #509, .T. ) ;
#108 = DIRECTION ( 'NONE',  ( 1.000000000000000000, 0.000000000000000000, 0.000000000000000000 ) ) ;
#109 = CARTESIAN_POINT ( 'NONE',  ( -48.39643287466319777, -13.51981083477945056, 4.000000000000000000 ) ) ;
#110 = CARTESIAN_POINT ( 'NONE',  ( 13.16420695061061608, 2.026046117446506312, 0.000000000000000000 ) ) ;
#111 = DIRECTION ( 'NONE',  ( -0.6427876096865403621, -0.7660444431189771253, 0.000000000000000000 ) ) ;
#112 = EDGE_LOOP ( 'NONE', ( #1020, #353, #869, #31 ) ) ;
#113 = CARTESIAN_POINT ( 'NONE',  ( -42.94312967003571657, -27.49341037671565147, -86.00000000000000000 ) ) ;
#114 = LINE ( 'NONE', #845, #136 ) ;
#115 = CARTESIAN_POINT ( 'NONE',  ( 1.454214187900648714, -3.726293211182965415, -82.00000000000000000 ) ) ;
#116 = VECTOR ( 'NONE', #785, 1000.000000000000114 ) ;
#117 = ORIENTED_EDGE ( 'NONE', *, *, #1069, .T. ) ;
#118 = VECTOR ( 'NONE', #919, 1000.000000000000227 ) ;
#119 = CARTESIAN_POINT ( 'NONE',  ( -18.63146605591569482, -7.271070939503566422, -82.00000000000000000 ) ) ;
#120 = CYLINDRICAL_SURFACE ( 'NONE', #750, 3.000000000000000000 ) ;
#121 = CARTESIAN_POINT ( 'NONE',  ( 17.26944477322308913, 1.912236928270936609, 4.000000000000000000 ) ) ;
#122 = DIRECTION ( 'NONE',  ( 1.000000000000000000, 5.393199694117866902E-17, 0.000000000000000000 ) ) ;
#123 = EDGE_CURVE ( 'NONE', #686, #494, #573, .T. ) ;
#124 = ORIENTED_EDGE ( 'NONE', *, *, #515, .T. ) ;
#125 = DIRECTION ( 'NONE',  ( -0.6427876096865403621, -0.7660444431189770143, -0.000000000000000000 ) ) ;
#126 = DIRECTION ( 'NONE',  ( 0.000000000000000000, 0.000000000000000000, -1.000000000000000000 ) ) ;
#127 = CARTESIAN_POINT ( 'NONE',  ( 1.454214187900648714, -3.726293211182965415, -79.00000000000000000 ) ) ;
#128 = FACE_OUTER_BOUND ( 'NONE', #618, .T. ) ;
#129 = ORIENTED_EDGE ( 'NONE', *, *, #957, .F. ) ;
#130 = LINE ( 'NONE', #862, #651 ) ;
#131 = CARTESIAN_POINT ( 'NONE',  ( -42.94312967003572368, -27.49341037671565857, 0.000000000000000000 ) ) ;
#132 = VECTOR ( 'NONE', #407, 1000.000000000000000 ) ;
#133 = DIRECTION ( 'NONE',  ( -0.000000000000000000, -0.000000000000000000, 1.000000000000000000 ) ) ;
#134 = VERTEX_POINT ( 'NONE', #127 ) ;
#135 = AXIS2_PLACEMENT_3D ( 'NONE', #1047, #673, #27 ) ;
#136 = VECTOR ( 'NONE', #209, 999.9999999999998863 ) ;
#137 = ORIENTED_EDGE ( 'NONE', *, *, #443, .F. ) ;
#138 = DIRECTION ( 'NONE',  ( 0.3635535469751643989, -0.9315733027957471268, 0.000000000000000000 ) ) ;
#139 = VECTOR ( 'NONE', #111, 1000.000000000000114 ) ;
#140 = CARTESIAN_POINT ( 'NONE',  ( -48.39643287466319777, -13.51981083477945056, -86.00000000000000000 ) ) ;
#141 =( LENGTH_UNIT ( ) NAMED_UNIT ( * ) SI_UNIT ( .MILLI., .METRE. ) );
#142 = ORIENTED_EDGE ( 'NONE', *, *, #455, .T. ) ;
#143 = EDGE_CURVE ( 'NONE', #291, #986, #1124, .T. ) ;
#144 = DIRECTION ( 'NONE',  ( 0.3635535469751641213, -0.9315733027957473489, 0.000000000000000000 ) ) ;
#145 = CARTESIAN_POINT ( 'NONE',  ( 1.454214187900648714, -3.726293211182965415, -82.00000000000000000 ) ) ;
#146 = VERTEX_POINT ( 'NONE', #1040 ) ;
#147 = LINE ( 'NONE', #514, #387 ) ;
#148 = AXIS2_PLACEMENT_3D ( 'NONE', #860, #401, #35 ) ;
#149 = EDGE_CURVE ( 'NONE', #287, #612, #227, .T. ) ;
#150 = DIRECTION ( 'NONE',  ( -0.9315733027957474599, -0.3635535469751636772, 0.000000000000000000 ) ) ;
#151 = ORIENTED_EDGE ( 'NONE', *, *, #833, .T. ) ;
#152 = CARTESIAN_POINT ( 'NONE',  ( -42.94312967003571657, -27.49341037671565147, -82.00000000000000000 ) ) ;
#153 = VECTOR ( 'NONE', #335, 1000.000000000000114 ) ;
#154 = LINE ( 'NONE', #165, #458 ) ;
#155 = VECTOR ( 'NONE', #666, 1000.000000000000227 ) ;
#156 = VERTEX_POINT ( 'NONE', #936 ) ;
#157 = EDGE_CURVE ( 'NONE', #156, #1055, #1033, .T. ) ;
#158 = CARTESIAN_POINT ( 'NONE',  ( 9.899185427912888358, -6.871296124853518705, 4.000000000000000000 ) ) ;
#159 = ORIENTED_EDGE ( 'NONE', *, *, #571, .T. ) ;
#160 = CARTESIAN_POINT ( 'NONE',  ( -42.94312967003572368, -27.49341037671565857, -83.16906108918512075 ) ) ;
#161 = PLANE ( 'NONE',  #898 ) ;
#162 = ORIENTED_EDGE ( 'NONE', *, *, #1138, .F. ) ;
#163 = EDGE_CURVE ( 'NONE', #970, #134, #1148, .T. ) ;
#164 = ORIENTED_EDGE ( 'NONE', *, *, #833, .F. ) ;
#165 = CARTESIAN_POINT ( 'NONE',  ( 13.03684393775633410, 2.352402395705526672, -66.00000000000000000 ) ) ;
#166 = ORIENTED_EDGE ( 'NONE', *, *, #768, .F. ) ;
#167 = VERTEX_POINT ( 'NONE', #121 ) ;
#168 = CYLINDRICAL_SURFACE ( 'NONE', #422, 6.188860423197510841 ) ;
#169 = LINE ( 'NONE', #826, #173 ) ;
#170 = EDGE_CURVE ( 'NONE', #258, #201, #489, .T. ) ;
#171 = CIRCLE ( 'NONE', #1151, 6.188860423197510841 ) ;
#172 = CARTESIAN_POINT ( 'NONE',  ( 0.6787015587948451723, -1.739111770465900042, -16.00000000000000000 ) ) ;
#173 = VECTOR ( 'NONE', #810, 1000.000000000000114 ) ;
#174 = ORIENTED_EDGE ( 'NONE', *, *, #491, .F. ) ;
#175 = VECTOR ( 'NONE', #410, 1000.000000000000000 ) ;
#176 = ORIENTED_EDGE ( 'NONE', *, *, #1062, .F. ) ;
#177 = DIRECTION ( 'NONE',  ( 0.9315733027957475709, 0.3635535469751637327, -0.000000000000000000 ) ) ;
#178 = DIRECTION ( 'NONE',  ( 1.000000000000000000, 0.000000000000000000, 0.000000000000000000 ) ) ;
#179 = ADVANCED_FACE ( 'NONE', ( #983 ), #1058, .F. ) ;
#180 = ORIENTED_EDGE ( 'NONE', *, *, #895, .T. ) ;
#181 = ORIENTED_EDGE ( 'NONE', *, *, #660, .F. ) ;
#182 = CARTESIAN_POINT ( 'NONE',  ( 11.08058435002557651, 21.91223692827093572, 4.000000000000000000 ) ) ;
#183 = CARTESIAN_POINT ( 'NONE',  ( -3.430579556720089407, 1.504591586898163413, 0.000000000000000000 ) ) ;
#184 = ORIENTED_EDGE ( 'NONE', *, *, #527, .T. ) ;
#185 = DIRECTION ( 'NONE',  ( 0.000000000000000000, 0.000000000000000000, -1.000000000000000000 ) ) ;
#186 = EDGE_CURVE ( 'NONE', #101, #392, #260, .T. ) ;
#187 = AXIS2_PLACEMENT_3D ( 'NONE', #955, #872, #312 ) ;
#188 = ORIENTED_EDGE ( 'NONE', *, *, #850, .T. ) ;
#189 = LINE ( 'NONE', #734, #118 ) ;
#190 = DIRECTION ( 'NONE',  ( -0.6427876096865403621, -0.7660444431189770143, -0.000000000000000000 ) ) ;
#191 = ORIENTED_EDGE ( 'NONE', *, *, #863, .F. ) ;
#192 = VECTOR ( 'NONE', #700, 1000.000000000000000 ) ;
#193 = VECTOR ( 'NONE', #70, 1000.000000000000114 ) ;
#194 = ADVANCED_FACE ( 'NONE', ( #702 ), #425, .F. ) ;
#195 = ORIENTED_EDGE ( 'NONE', *, *, #1128, .T. ) ;
#196 = LINE ( 'NONE', #554, #316 ) ;
#197 = DIRECTION ( 'NONE',  ( 0.9315733027957472379, 0.3635535469751641213, 0.000000000000000000 ) ) ;
#198 = CARTESIAN_POINT ( 'NONE',  ( 4.891723926828065672, 5.829729563776385959, 0.000000000000000000 ) ) ;
#199 = ORIENTED_EDGE ( 'NONE', *, *, #789, .T. ) ;
#200 = DIRECTION ( 'NONE',  ( 1.000000000000000000, 0.000000000000000000, 0.000000000000000000 ) ) ;
#201 = VERTEX_POINT ( 'NONE', #254 ) ;
#202 = DIRECTION ( 'NONE',  ( -0.3635535469751642879, 0.9315733027957471268, 0.000000000000000000 ) ) ;
#203 = FACE_OUTER_BOUND ( 'NONE', #72, .T. ) ;
#204 = LINE ( 'NONE', #198, #1074 ) ;
#205 = CARTESIAN_POINT ( 'NONE',  ( -43.27277970928655293, -11.52026632641603854, -82.00000000000000000 ) ) ;
#206 = CARTESIAN_POINT ( 'NONE',  ( 0.5453303204627365508, -1.397359954193595044, -66.00000000000000000 ) ) ;
#207 = ORIENTED_EDGE ( 'NONE', *, *, #483, .T. ) ;
#208 = CARTESIAN_POINT ( 'NONE',  ( 9.899185427912888358, -6.871296124853518705, 4.000000000000000000 ) ) ;
#209 = DIRECTION ( 'NONE',  ( -0.9157929779697813188, 0.4016506211886640698, -0.000000000000000000 ) ) ;
#210 = ADVANCED_FACE ( 'NONE', ( #896 ), #1157, .F. ) ;
#211 = CARTESIAN_POINT ( 'NONE',  ( -43.27277970928653872, -11.52026632641605097, -82.00000000000000000 ) ) ;
#212 = CARTESIAN_POINT ( 'NONE',  ( 1.454214187900656263, -3.726293211182960974, -79.00000000000000000 ) ) ;
#213 = DIRECTION ( 'NONE',  ( -0.3635535469751643989, 0.9315733027957471268, -0.000000000000000000 ) ) ;
#214 = VECTOR ( 'NONE', #1005, 1000.000000000000000 ) ;
#215 = VECTOR ( 'NONE', #960, 1000.000000000000114 ) ;
#216 = PRODUCT_CONTEXT ( 'NONE', #1159, 'mechanical' ) ;
#217 = ORIENTED_EDGE ( 'NONE', *, *, #1088, .F. ) ;
#218 = VECTOR ( 'NONE', #940, 1000.000000000000000 ) ;
#219 = PLANE ( 'NONE',  #1154 ) ;
#220 = CARTESIAN_POINT ( 'NONE',  ( 0.6361362788993354389, -1.630042064760637288, -82.00000000000000000 ) ) ;
#221 = CARTESIAN_POINT ( 'NONE',  ( 4.891723926828065672, 5.829729563776385959, -82.00000000000000000 ) ) ;
#222 = EDGE_CURVE ( 'NONE', #1105, #231, #875, .T. ) ;
#223 = CARTESIAN_POINT ( 'NONE',  ( -1.422326450776768114, 6.083556476747067343, -86.00000000000000000 ) ) ;
#224 = ORIENTED_EDGE ( 'NONE', *, *, #38, .T. ) ;
#225 = CARTESIAN_POINT ( 'NONE',  ( 4.891723926828066560, 21.91223692827093572, 0.000000000000000000 ) ) ;
#226 = CARTESIAN_POINT ( 'NONE',  ( 4.891723926828065672, 5.829729563776385959, -86.00000000000000000 ) ) ;
#227 = LINE ( 'NONE', #587, #60 ) ;
#228 = ADVANCED_FACE ( 'NONE', ( #73 ), #1070, .F. ) ;
#229 = ORIENTED_EDGE ( 'NONE', *, *, #803, .T. ) ;
#230 = FACE_OUTER_BOUND ( 'NONE', #868, .T. ) ;
#231 = VERTEX_POINT ( 'NONE', #57 ) ;
#232 = DIRECTION ( 'NONE',  ( -0.000000000000000000, -0.000000000000000000, 1.000000000000000000 ) ) ;
#233 = VECTOR ( 'NONE', #323, 1000.000000000000000 ) ;
#234 = CARTESIAN_POINT ( 'NONE',  ( 2.407895764818117623, 2.869618428314365310, 4.000000000000000000 ) ) ;
#235 = ORIENTED_EDGE ( 'NONE', *, *, #608, .T. ) ;
#236 = ADVANCED_FACE ( 'NONE', ( #249 ), #607, .F. ) ;
#237 = AXIS2_PLACEMENT_3D ( 'NONE', #619, #797, #786 ) ;
#238 = PRESENTATION_LAYER_ASSIGNMENT (  '', '', ( #997 ) ) ;
#239 = EDGE_LOOP ( 'NONE', ( #281, #988, #842, #553 ) ) ;
#240 = CARTESIAN_POINT ( 'NONE',  ( 13.16420695061061608, 2.026046117446505868, -16.00000000000000000 ) ) ;
#241 = AXIS2_PLACEMENT_3D ( 'NONE', #415, #90, #1008 ) ;
#242 = CARTESIAN_POINT ( 'NONE',  ( -43.27277970928653872, -11.52026632641605097, -82.00000000000000000 ) ) ;
#243 = LINE ( 'NONE', #799, #81 ) ;
#244 = EDGE_CURVE ( 'NONE', #791, #477, #975, .T. ) ;
#245 = ORIENTED_EDGE ( 'NONE', *, *, #698, .T. ) ;
#246 = EDGE_CURVE ( 'NONE', #315, #1092, #78, .T. ) ;
#247 = FACE_OUTER_BOUND ( 'NONE', #595, .T. ) ;
#248 = VERTEX_POINT ( 'NONE', #987 ) ;
#249 = FACE_OUTER_BOUND ( 'NONE', #528, .T. ) ;
#250 = EDGE_CURVE ( 'NONE', #986, #800, #154, .T. ) ;
#251 = ORIENTED_EDGE ( 'NONE', *, *, #803, .F. ) ;
#252 = VECTOR ( 'NONE', #339, 1000.000000000000000 ) ;
#253 = VECTOR ( 'NONE', #751, 1000.000000000000227 ) ;
#254 = CARTESIAN_POINT ( 'NONE',  ( 13.16420695061061608, 2.026046117446505868, -66.00000000000000000 ) ) ;
#255 = VECTOR ( 'NONE', #950, 1000.000000000000000 ) ;
#256 = ORIENTED_EDGE ( 'NONE', *, *, #390, .T. ) ;
#257 = PLANE ( 'NONE',  #241 ) ;
#258 = VERTEX_POINT ( 'NONE', #1073 ) ;
#259 = SURFACE_SIDE_STYLE ('',( #891 ) ) ;
#260 = LINE ( 'NONE', #336, #438 ) ;
#261 = EDGE_LOOP ( 'NONE', ( #284, #1036, #601, #681, #978, #486, #414, #1150, #199, #59, #679, #370, #967, #164 ) ) ;
#262 = ADVANCED_FACE ( 'NONE', ( #705 ), #161, .T. ) ;
#263 = ORIENTED_EDGE ( 'NONE', *, *, #157, .T. ) ;
#264 = DIRECTION ( 'NONE',  ( -5.393199694117866902E-17, -1.000000000000000000, -0.000000000000000000 ) ) ;
#265 = CYLINDRICAL_SURFACE ( 'NONE', #899, 6.188860423197510841 ) ;
#266 = PLANE ( 'NONE',  #917 ) ;
#267 = ORIENTED_EDGE ( 'NONE', *, *, #250, .F. ) ;
#268 = ADVANCED_FACE ( 'NONE', ( #420 ), #1177, .F. ) ;
#269 = ORIENTED_EDGE ( 'NONE', *, *, #123, .T. ) ;
#270 = CARTESIAN_POINT ( 'NONE',  ( 4.891723926828064783, 21.91223692827093572, -82.00000000000000000 ) ) ;
#271 = DIRECTION ( 'NONE',  ( 0.9157929779697813188, -0.4016506211886640698, -0.000000000000000000 ) ) ;
#272 = VECTOR ( 'NONE', #25, 1000.000000000000000 ) ;
#273 = AXIS2_PLACEMENT_3D ( 'NONE', #102, #636, #1000 ) ;
#274 = EDGE_LOOP ( 'NONE', ( #137, #715, #462, #547, #904 ) ) ;
#275 = ORIENTED_EDGE ( 'NONE', *, *, #143, .T. ) ;
#276 = DIRECTION ( 'NONE',  ( -0.000000000000000000, -0.000000000000000000, 1.000000000000000000 ) ) ;
#277 = ADVANCED_FACE ( 'NONE', ( #247 ), #356, .F. ) ;
#278 = DIRECTION ( 'NONE',  ( -0.000000000000000000, -0.000000000000000000, -1.000000000000000000 ) ) ;
#279 = EDGE_CURVE ( 'NONE', #477, #146, #147, .T. ) ;
#280 = ORIENTED_EDGE ( 'NONE', *, *, #916, .F. ) ;
#281 = ORIENTED_EDGE ( 'NONE', *, *, #448, .F. ) ;
#282 = CARTESIAN_POINT ( 'NONE',  ( 9.899185427912888358, -6.871296124853518705, -86.00000000000000000 ) ) ;
#283 = LINE ( 'NONE', #820, #214 ) ;
#284 = ORIENTED_EDGE ( 'NONE', *, *, #787, .F. ) ;
#285 = EDGE_CURVE ( 'NONE', #368, #409, #171, .T. ) ;
#286 = DIRECTION ( 'NONE',  ( -5.393199694117866902E-17, 1.000000000000000000, 0.000000000000000000 ) ) ;
#287 = VERTEX_POINT ( 'NONE', #550 ) ;
#288 = CARTESIAN_POINT ( 'NONE',  ( -44.03379031096120855, -24.69869046832840809, -82.00000000000000000 ) ) ;
#289 = CARTESIAN_POINT ( 'NONE',  ( 17.26944477322308913, 21.91223692827093572, -86.00000000000000000 ) ) ;
#290 = LINE ( 'NONE', #923, #594 ) ;
#291 = VERTEX_POINT ( 'NONE', #172 ) ;
#292 = EDGE_CURVE ( 'NONE', #436, #956, #283, .T. ) ;
#293 = AXIS2_PLACEMENT_3D ( 'NONE', #1010, #83, #466 ) ;
#294 = ORIENTED_EDGE ( 'NONE', *, *, #324, .F. ) ;
#295 = CARTESIAN_POINT ( 'NONE',  ( -1.817767734875818775, 4.657866513978737188, 0.000000000000000000 ) ) ;
#296 = ORIENTED_EDGE ( 'NONE', *, *, #107, .F. ) ;
#297 = CARTESIAN_POINT ( 'NONE',  ( 4.891723926828065672, 5.829729563776385959, -86.00000000000000000 ) ) ;
#298 = FACE_OUTER_BOUND ( 'NONE', #507, .T. ) ;
#299 = LINE ( 'NONE', #558, #1078 ) ;
#300 = VERTEX_POINT ( 'NONE', #815 ) ;
#301 = EDGE_CURVE ( 'NONE', #95, #146, #88, .T. ) ;
#302 = LINE ( 'NONE', #680, #461 ) ;
#303 = LINE ( 'NONE', #394, #866 ) ;
#304 = DIRECTION ( 'NONE',  ( -0.3635535469751642879, 0.9315733027957471268, 0.000000000000000000 ) ) ;
#305 = PLANE ( 'NONE',  #135 ) ;
#306 = LINE ( 'NONE', #1021, #920 ) ;
#307 = DIRECTION ( 'NONE',  ( 1.000000000000000000, 0.000000000000000000, 0.000000000000000000 ) ) ;
#308 = ORIENTED_EDGE ( 'NONE', *, *, #985, .T. ) ;
#309 = FACE_OUTER_BOUND ( 'NONE', #707, .T. ) ;
#310 = ADVANCED_FACE ( 'NONE', ( #650 ), #447, .T. ) ;
#311 = LINE ( 'NONE', #670, #97 ) ;
#312 = DIRECTION ( 'NONE',  ( 1.000000000000000000, 0.000000000000000000, -0.000000000000000000 ) ) ;
#313 = DIRECTION ( 'NONE',  ( -0.9315733027957471268, -0.3635535469751642879, -0.000000000000000000 ) ) ;
#314 = MECHANICAL_DESIGN_GEOMETRIC_PRESENTATION_REPRESENTATION (  '', ( #997 ), #629 ) ;
#315 = VERTEX_POINT ( 'NONE', #637 ) ;
#316 = VECTOR ( 'NONE', #177, 1000.000000000000114 ) ;
#317 = LINE ( 'NONE', #933, #218 ) ;
#318 = CARTESIAN_POINT ( 'NONE',  ( 17.26944477322308913, 1.912236928270936609, -86.00000000000000000 ) ) ;
#319 = DIRECTION ( 'NONE',  ( -0.3635535469751643989, 0.9315733027957471268, 0.000000000000000000 ) ) ;
#320 = ORIENTED_EDGE ( 'NONE', *, *, #473, .T. ) ;
#321 = CARTESIAN_POINT ( 'NONE',  ( 9.899185427912888358, -6.871296124853518705, -86.00000000000000000 ) ) ;
#322 = DIRECTION ( 'NONE',  ( 0.9157929779697813188, -0.4016506211886640698, -0.000000000000000000 ) ) ;
#323 = DIRECTION ( 'NONE',  ( -0.9315733027957474599, -0.3635535469751636772, 0.000000000000000000 ) ) ;
#324 = EDGE_CURVE ( 'NONE', #890, #612, #103, .T. ) ;
#325 = ORIENTED_EDGE ( 'NONE', *, *, #1088, .T. ) ;
#326 = CARTESIAN_POINT ( 'NONE',  ( 17.26944477322308913, 1.912236928270936609, -86.00000000000000000 ) ) ;
#327 = ORIENTED_EDGE ( 'NONE', *, *, #966, .T. ) ;
#328 = LINE ( 'NONE', #771, #1011 ) ;
#329 = EDGE_CURVE ( 'NONE', #167, #1147, #1181, .T. ) ;
#330 = AXIS2_PLACEMENT_3D ( 'NONE', #545, #467, #838 ) ;
#331 = VECTOR ( 'NONE', #479, 1000.000000000000000 ) ;
#332 = DIRECTION ( 'NONE',  ( 0.000000000000000000, 0.000000000000000000, 1.000000000000000000 ) ) ;
#333 = VECTOR ( 'NONE', #708, 1000.000000000000114 ) ;
#334 = ORIENTED_EDGE ( 'NONE', *, *, #1138, .T. ) ;
#335 = DIRECTION ( 'NONE',  ( -0.9315733027957472379, -0.3635535469751641213, -0.000000000000000000 ) ) ;
#336 = CARTESIAN_POINT ( 'NONE',  ( -48.39643287466319777, -13.51981083477945056, 0.000000000000000000 ) ) ;
#337 = EDGE_CURVE ( 'NONE', #101, #344, #361, .T. ) ;
#338 = ORIENTED_EDGE ( 'NONE', *, *, #621, .F. ) ;
#339 = DIRECTION ( 'NONE',  ( -0.000000000000000000, -0.000000000000000000, -1.000000000000000000 ) ) ;
#340 = LINE ( 'NONE', #1071, #193 ) ;
#341 = ORIENTED_EDGE ( 'NONE', *, *, #63, .T. ) ;
#342 = LINE ( 'NONE', #160, #690 ) ;
#343 = DIRECTION ( 'NONE',  ( 0.9493235364871606130, 0.3143005298619628851, 0.000000000000000000 ) ) ;
#344 = VERTEX_POINT ( 'NONE', #183 ) ;
#345 = CARTESIAN_POINT ( 'NONE',  ( 1.454214187900648714, -3.726293211182965415, 0.000000000000000000 ) ) ;
#346 = CARTESIAN_POINT ( 'NONE',  ( 0.6787015587948451723, -1.739111770465900042, -66.00000000000000000 ) ) ;
#347 = ORIENTED_EDGE ( 'NONE', *, *, #358, .T. ) ;
#348 = LINE ( 'NONE', #76, #20 ) ;
#349 = VECTOR ( 'NONE', #406, 1000.000000000000114 ) ;
#350 = DIRECTION ( 'NONE',  ( 0.000000000000000000, 0.000000000000000000, -1.000000000000000000 ) ) ;
#351 = VECTOR ( 'NONE', #532, 1000.000000000000227 ) ;
#352 = ORIENTED_EDGE ( 'NONE', *, *, #789, .F. ) ;
#353 = ORIENTED_EDGE ( 'NONE', *, *, #426, .F. ) ;
#354 = FACE_OUTER_BOUND ( 'NONE', #1113, .T. ) ;
#355 = LINE ( 'NONE', #1180, #730 ) ;
#356 = PLANE ( 'NONE',  #688 ) ;
#357 = EDGE_LOOP ( 'NONE', ( #1126, #1109, #959, #634, #69, #416, #180, #85, #341, #1100 ) ) ;
#358 = EDGE_CURVE ( 'NONE', #909, #494, #828, .T. ) ;
#359 = ORIENTED_EDGE ( 'NONE', *, *, #736, .F. ) ;
#360 = CARTESIAN_POINT ( 'NONE',  ( 11.08058435002557651, 21.91223692827093572, 4.000000000000000000 ) ) ;
#361 = LINE ( 'NONE', #927, #44 ) ;
#362 = ORIENTED_EDGE ( 'NONE', *, *, #744, .F. ) ;
#363 = AXIS2_PLACEMENT_3D ( 'NONE', #115, #1130, #319 ) ;
#364 = ORIENTED_EDGE ( 'NONE', *, *, #561, .F. ) ;
#365 = CARTESIAN_POINT ( 'NONE',  ( -48.39643287466319777, -13.51981083477945056, 4.000000000000000000 ) ) ;
#366 = DIRECTION ( 'NONE',  ( 0.000000000000000000, -0.000000000000000000, 1.000000000000000000 ) ) ;
#367 = VECTOR ( 'NONE', #371, 1000.000000000000000 ) ;
#368 = VERTEX_POINT ( 'NONE', #5 ) ;
#369 = CARTESIAN_POINT ( 'NONE',  ( -6.475634248854540864, 2.840098779102924187, 0.000000000000000000 ) ) ;
#370 = ORIENTED_EDGE ( 'NONE', *, *, #706, .T. ) ;
#371 = DIRECTION ( 'NONE',  ( -0.9493235364871606130, -0.3143005298619628851, 0.000000000000000000 ) ) ;
#372 = ADVANCED_FACE ( 'NONE', ( #373 ), #1001, .F. ) ;
#373 = FACE_OUTER_BOUND ( 'NONE', #261, .T. ) ;
#374 = VERTEX_POINT ( 'NONE', #725 ) ;
#375 = DIRECTION ( 'NONE',  ( 0.9315733027957475709, 0.3635535469751637327, -0.000000000000000000 ) ) ;
#376 = ORIENTED_EDGE ( 'NONE', *, *, #170, .F. ) ;
#377 = DIRECTION ( 'NONE',  ( 1.000000000000000000, 0.000000000000000000, 0.000000000000000000 ) ) ;
#378 = DIRECTION ( 'NONE',  ( 0.000000000000000000, 0.000000000000000000, 1.000000000000000000 ) ) ;
#379 = LINE ( 'NONE', #1116, #709 ) ;
#380 = ORIENTED_EDGE ( 'NONE', *, *, #671, .F. ) ;
#381 = AXIS2_PLACEMENT_3D ( 'NONE', #840, #17, #753 ) ;
#382 = ORIENTED_EDGE ( 'NONE', *, *, #499, .F. ) ;
#383 = DIRECTION ( 'NONE',  ( -0.3635535469751637327, 0.9315733027957475709, 0.000000000000000000 ) ) ;
#384 = DIRECTION ( 'NONE',  ( 5.393199694117866902E-17, 1.000000000000000000, 0.000000000000000000 ) ) ;
#385 = LINE ( 'NONE', #211, #253 ) ;
#386 = EDGE_LOOP ( 'NONE', ( #726, #449, #376, #325, #981 ) ) ;
#387 = VECTOR ( 'NONE', #535, 1000.000000000000227 ) ;
#388 = DIRECTION ( 'NONE',  ( 0.000000000000000000, 0.000000000000000000, -1.000000000000000000 ) ) ;
#389 = VECTOR ( 'NONE', #278, 1000.000000000000000 ) ;
#390 = EDGE_CURVE ( 'NONE', #612, #300, #1091, .T. ) ;
#391 = AXIS2_PLACEMENT_3D ( 'NONE', #9, #1004, #729 ) ;
#392 = VERTEX_POINT ( 'NONE', #633 ) ;
#393 = PLANE ( 'NONE',  #1114 ) ;
#394 = CARTESIAN_POINT ( 'NONE',  ( -6.475634248854540864, 2.840098779102924187, -86.00000000000000000 ) ) ;
#395 = CARTESIAN_POINT ( 'NONE',  ( -6.475634248854535535, 2.840098779102930848, 0.000000000000000000 ) ) ;
#396 = LINE ( 'NONE', #552, #867 ) ;
#397 = EDGE_CURVE ( 'NONE', #344, #686, #996, .T. ) ;
#398 = ORIENTED_EDGE ( 'NONE', *, *, #638, .F. ) ;
#399 = FACE_OUTER_BOUND ( 'NONE', #274, .T. ) ;
#400 = LINE ( 'NONE', #1052, #504 ) ;
#401 = DIRECTION ( 'NONE',  ( -0.000000000000000000, -0.000000000000000000, -1.000000000000000000 ) ) ;
#402 = LINE ( 'NONE', #930, #139 ) ;
#403 = ORIENTED_EDGE ( 'NONE', *, *, #71, .T. ) ;
#404 = DIRECTION ( 'NONE',  ( 0.000000000000000000, 0.000000000000000000, -1.000000000000000000 ) ) ;
#405 = EDGE_CURVE ( 'NONE', #909, #626, #1107, .T. ) ;
#406 = DIRECTION ( 'NONE',  ( 0.6427876096865403621, 0.7660444431189771253, -0.000000000000000000 ) ) ;
#407 = DIRECTION ( 'NONE',  ( 0.000000000000000000, 0.000000000000000000, -1.000000000000000000 ) ) ;
#408 = VECTOR ( 'NONE', #968, 1000.000000000000114 ) ;
#409 = VERTEX_POINT ( 'NONE', #289 ) ;
#410 = DIRECTION ( 'NONE',  ( 0.000000000000000000, 0.000000000000000000, -1.000000000000000000 ) ) ;
#411 = CARTESIAN_POINT ( 'NONE',  ( 2.407895764818117179, 2.869618428314364866, -82.00000000000000000 ) ) ;
#412 = ADVANCED_FACE ( 'NONE', ( #15 ), #994, .T. ) ;
#413 = CARTESIAN_POINT ( 'NONE',  ( 13.16420695061061608, 2.026046117446506756, -16.00000000000000000 ) ) ;
#414 = ORIENTED_EDGE ( 'NONE', *, *, #54, .T. ) ;
#415 = CARTESIAN_POINT ( 'NONE',  ( 0.000000000000000000, 0.000000000000000000, -86.00000000000000000 ) ) ;
#416 = ORIENTED_EDGE ( 'NONE', *, *, #285, .T. ) ;
#417 = DIRECTION ( 'NONE',  ( -0.3635535469751643989, 0.9315733027957471268, 0.000000000000000000 ) ) ;
#418 = ORIENTED_EDGE ( 'NONE', *, *, #817, .T. ) ;
#419 = CARTESIAN_POINT ( 'NONE',  ( 19.58209106596493143, 0.1278897364970603412, 0.000000000000000000 ) ) ;
#420 = FACE_OUTER_BOUND ( 'NONE', #465, .T. ) ;
#421 = ADVANCED_FACE ( 'NONE', ( #452 ), #266, .F. ) ;
#422 = AXIS2_PLACEMENT_3D ( 'NONE', #718, #992, #809 ) ;
#423 = CIRCLE ( 'NONE', #1094, 3.000000000000000000 ) ;
#424 = ORIENTED_EDGE ( 'NONE', *, *, #38, .F. ) ;
#425 = PLANE ( 'NONE',  #1112 ) ;
#426 = EDGE_CURVE ( 'NONE', #938, #885, #1098, .T. ) ;
#427 = DIRECTION ( 'NONE',  ( 0.9315733027957474599, 0.3635535469751641768, -0.000000000000000000 ) ) ;
#428 = ORIENTED_EDGE ( 'NONE', *, *, #632, .F. ) ;
#429 = CARTESIAN_POINT ( 'NONE',  ( 17.26944477322308913, 1.912236928270936609, 4.000000000000000000 ) ) ;
#430 = VERTEX_POINT ( 'NONE', #459 ) ;
#431 = FACE_OUTER_BOUND ( 'NONE', #897, .T. ) ;
#432 = ORIENTED_EDGE ( 'NONE', *, *, #1069, .F. ) ;
#433 = DIRECTION ( 'NONE',  ( -0.3635535469751641213, 0.9315733027957473489, 0.000000000000000000 ) ) ;
#434 = EDGE_CURVE ( 'NONE', #134, #287, #516, .T. ) ;
#435 = DIRECTION ( 'NONE',  ( 0.1936849805049458972, 0.07558703265439913055, 0.9781476007338062439 ) ) ;
#436 = VERTEX_POINT ( 'NONE', #1142 ) ;
#437 = ORIENTED_EDGE ( 'NONE', *, *, #856, .F. ) ;
#438 = VECTOR ( 'NONE', #878, 1000.000000000000114 ) ;
#439 = DIRECTION ( 'NONE',  ( 1.000000000000000000, 0.000000000000000000, 0.000000000000000000 ) ) ;
#440 = AXIS2_PLACEMENT_3D ( 'NONE', #182, #819, #901 ) ;
#441 = DIRECTION ( 'NONE',  ( 0.000000000000000000, 0.000000000000000000, 1.000000000000000000 ) ) ;
#442 = VECTOR ( 'NONE', #767, 1000.000000000000114 ) ;
#443 = EDGE_CURVE ( 'NONE', #567, #837, #400, .T. ) ;
#444 = ORIENTED_EDGE ( 'NONE', *, *, #856, .T. ) ;
#445 = ORIENTED_EDGE ( 'NONE', *, *, #647, .T. ) ;
#446 = CARTESIAN_POINT ( 'NONE',  ( -48.39643287466319777, -13.51981083477945056, 1.169061089185123636 ) ) ;
#447 = PLANE ( 'NONE',  #879 ) ;
#448 = EDGE_CURVE ( 'NONE', #606, #248, #114, .T. ) ;
#449 = ORIENTED_EDGE ( 'NONE', *, *, #107, .T. ) ;
#450 = ORIENTED_EDGE ( 'NONE', *, *, #244, .F. ) ;
#451 = LINE ( 'NONE', #93, #807 ) ;
#452 = FACE_OUTER_BOUND ( 'NONE', #559, .T. ) ;
#453 = FACE_OUTER_BOUND ( 'NONE', #386, .T. ) ;
#454 = FACE_OUTER_BOUND ( 'NONE', #778, .T. ) ;
#455 = EDGE_CURVE ( 'NONE', #368, #704, #948, .T. ) ;
#456 = ORIENTED_EDGE ( 'NONE', *, *, #972, .F. ) ;
#457 = CARTESIAN_POINT ( 'NONE',  ( -45.12445095188670763, -21.90397055994116826, -82.00000000000000000 ) ) ;
#458 = VECTOR ( 'NONE', #343, 1000.000000000000000 ) ;
#459 = CARTESIAN_POINT ( 'NONE',  ( -42.94312967003571657, -27.49341037671565147, -86.00000000000000000 ) ) ;
#460 = VECTOR ( 'NONE', #304, 1000.000000000000114 ) ;
#461 = VECTOR ( 'NONE', #747, 1000.000000000000114 ) ;
#462 = ORIENTED_EDGE ( 'NONE', *, *, #777, .T. ) ;
#463 = LINE ( 'NONE', #345, #333 ) ;
#464 =( NAMED_UNIT ( * ) SI_UNIT ( $, .STERADIAN. ) SOLID_ANGLE_UNIT ( ) );
#465 = EDGE_LOOP ( 'NONE', ( #424, #590, #873, #990 ) ) ;
#466 = DIRECTION ( 'NONE',  ( -0.3635535469751645099, 0.9315733027957472379, 0.000000000000000000 ) ) ;
#467 = DIRECTION ( 'NONE',  ( 0.9315733027957473489, 0.3635535469751641213, -0.000000000000000000 ) ) ;
#468 = ORIENTED_EDGE ( 'NONE', *, *, #825, .T. ) ;
#469 = FACE_OUTER_BOUND ( 'NONE', #995, .T. ) ;
#470 = ORIENTED_EDGE ( 'NONE', *, *, #787, .T. ) ;
#471 = PLANE ( 'NONE',  #1060 ) ;
#472 = CARTESIAN_POINT ( 'NONE',  ( 0.000000000000000000, 0.000000000000000000, 4.000000000000000000 ) ) ;
#473 = EDGE_CURVE ( 'NONE', #66, #101, #762, .T. ) ;
#474 = LINE ( 'NONE', #658, #772 ) ;
#475 = PLANE ( 'NONE',  #381 ) ;
#476 = DIRECTION ( 'NONE',  ( -1.000000000000000000, 0.000000000000000000, 0.000000000000000000 ) ) ;
#477 = VERTEX_POINT ( 'NONE', #570 ) ;
#478 = CARTESIAN_POINT ( 'NONE',  ( 4.891723926828065672, 5.829729563776385959, 4.000000000000000000 ) ) ;
#479 = DIRECTION ( 'NONE',  ( -0.000000000000000000, -0.000000000000000000, 1.000000000000000000 ) ) ;
#480 = AXIS2_PLACEMENT_3D ( 'NONE', #731, #741, #178 ) ;
#481 = LINE ( 'NONE', #742, #689 ) ;
#482 = CARTESIAN_POINT ( 'NONE',  ( -6.475634248854540864, 2.840098779102924187, 0.000000000000000000 ) ) ;
#483 = EDGE_CURVE ( 'NONE', #37, #956, #677, .T. ) ;
#484 = CARTESIAN_POINT ( 'NONE',  ( 17.26944477322308913, 21.91223692827093572, 4.000000000000000000 ) ) ;
#485 = AXIS2_PLACEMENT_3D ( 'NONE', #23, #404, #953 ) ;
#486 = ORIENTED_EDGE ( 'NONE', *, *, #903, .F. ) ;
#487 = CARTESIAN_POINT ( 'NONE',  ( 13.56466712424536070, 0.9999028994941735471, -16.00000000000000000 ) ) ;
#488 = CARTESIAN_POINT ( 'NONE',  ( -44.03379031096120855, -24.69869046832840809, -79.00000000000000000 ) ) ;
#489 = LINE ( 'NONE', #520, #408 ) ;
#490 = LINE ( 'NONE', #565, #155 ) ;
#491 = EDGE_CURVE ( 'NONE', #598, #167, #586, .T. ) ;
#492 = APPLICATION_PROTOCOL_DEFINITION ( 'draft international standard', 'automotive_design', 1998, #931 ) ;
#493 = EDGE_CURVE ( 'NONE', #92, #823, #303, .T. ) ;
#494 = VERTEX_POINT ( 'NONE', #756 ) ;
#495 = CARTESIAN_POINT ( 'NONE',  ( -3.430579556720088075, 1.504591586898164968, 4.000000000000000000 ) ) ;
#496 = CARTESIAN_POINT ( 'NONE',  ( 9.899185427912888358, -6.871296124853518705, 0.000000000000000000 ) ) ;
#497 = FACE_OUTER_BOUND ( 'NONE', #808, .T. ) ;
#498 = ORIENTED_EDGE ( 'NONE', *, *, #455, .F. ) ;
#499 = EDGE_CURVE ( 'NONE', #537, #86, #591, .T. ) ;
#500 = CARTESIAN_POINT ( 'NONE',  ( 1.454214187900648714, -3.726293211182965415, -82.00000000000000000 ) ) ;
#501 = CARTESIAN_POINT ( 'NONE',  ( 3.543608572883817143, -0.7906029029144039377, -16.00000000000000000 ) ) ;
#502 = CARTESIAN_POINT ( 'NONE',  ( 17.26944477322308913, 1.912236928270936609, -86.00000000000000000 ) ) ;
#503 = VECTOR ( 'NONE', #961, 1000.000000000000000 ) ;
#504 = VECTOR ( 'NONE', #1031, 1000.000000000000114 ) ;
#505 = ORIENTED_EDGE ( 'NONE', *, *, #895, .F. ) ;
#506 = AXIS2_PLACEMENT_3D ( 'NONE', #1037, #1024, #1134 ) ;
#507 = EDGE_LOOP ( 'NONE', ( #628, #256, #176, #1182, #280, #728, #275, #1051, #1044, #1081 ) ) ;
#508 = DIRECTION ( 'NONE',  ( -0.000000000000000000, -0.000000000000000000, 1.000000000000000000 ) ) ;
#509 = LINE ( 'NONE', #49, #748 ) ;
#510 = VERTEX_POINT ( 'NONE', #411 ) ;
#511 = CARTESIAN_POINT ( 'NONE',  ( 11.08058435002557651, 21.91223692827093572, -86.00000000000000000 ) ) ;
#512 = EDGE_CURVE ( 'NONE', #291, #374, #1129, .T. ) ;
#513 = ORIENTED_EDGE ( 'NONE', *, *, #18, .T. ) ;
#514 = CARTESIAN_POINT ( 'NONE',  ( -47.11499359089837924, -18.38698359461123033, 1.291434853173247133 ) ) ;
#515 = EDGE_CURVE ( 'NONE', #622, #66, #663, .T. ) ;
#516 = CIRCLE ( 'NONE', #1135, 3.000000000000000444 ) ;
#517 = DIRECTION ( 'NONE',  ( -0.000000000000000000, -0.000000000000000000, 1.000000000000000000 ) ) ;
#518 = AXIS2_PLACEMENT_3D ( 'NONE', #855, #122, #286 ) ;
#519 = ORIENTED_EDGE ( 'NONE', *, *, #1169, .T. ) ;
#520 = CARTESIAN_POINT ( 'NONE',  ( 12.65578325680745131, 3.328836156483542030, -66.00000000000000000 ) ) ;
#521 = EDGE_LOOP ( 'NONE', ( #699, #894, #732, #1174 ) ) ;
#522 = ADVANCED_FACE ( 'NONE', ( #203 ), #120, .F. ) ;
#523 = EDGE_CURVE ( 'NONE', #477, #652, #311, .T. ) ;
#524 = CARTESIAN_POINT ( 'NONE',  ( -44.03379031096120855, -24.69869046832841164, -3.000000000000000000 ) ) ;
#525 = ORIENTED_EDGE ( 'NONE', *, *, #63, .F. ) ;
#526 = DIRECTION ( 'NONE',  ( 0.000000000000000000, -0.000000000000000000, 1.000000000000000000 ) ) ;
#527 = EDGE_CURVE ( 'NONE', #105, #89, #1046, .T. ) ;
#528 = EDGE_LOOP ( 'NONE', ( #743, #1179, #174, #468 ) ) ;
#529 = CARTESIAN_POINT ( 'NONE',  ( -6.475634248854540864, 2.840098779102924187, 0.000000000000000000 ) ) ;
#530 = ORIENTED_EDGE ( 'NONE', *, *, #18, .F. ) ;
#531 = ORIENTED_EDGE ( 'NONE', *, *, #972, .T. ) ;
#532 = DIRECTION ( 'NONE',  ( 0.3635535469751641213, -0.9315733027957473489, -0.000000000000000000 ) ) ;
#533 = ADVANCED_FACE ( 'NONE', ( #1038 ), #769, .T. ) ;
#534 = VECTOR ( 'NONE', #508, 1000.000000000000000 ) ;
#535 = DIRECTION ( 'NONE',  ( 0.9112161910373279827, 0.3556090297120214627, -0.2079116908177567336 ) ) ;
#536 = VECTOR ( 'NONE', #703, 1000.000000000000000 ) ;
#537 = VERTEX_POINT ( 'NONE', #131 ) ;
#538 = VERTEX_POINT ( 'NONE', #501 ) ;
#539 = DIRECTION ( 'NONE',  ( -0.000000000000000000, -0.000000000000000000, -1.000000000000000000 ) ) ;
#540 = DIRECTION ( 'NONE',  ( -0.000000000000000000, -0.000000000000000000, -1.000000000000000000 ) ) ;
#541 = ORIENTED_EDGE ( 'NONE', *, *, #1082, .F. ) ;
#542 = ADVANCED_FACE ( 'NONE', ( #870 ), #859, .F. ) ;
#543 = ORIENTED_EDGE ( 'NONE', *, *, #64, .T. ) ;
#544 = LINE ( 'NONE', #912, #351 ) ;
#545 = CARTESIAN_POINT ( 'NONE',  ( -42.94312967003572368, -27.49341037671565857, 4.000000000000000000 ) ) ;
#546 = ORIENTED_EDGE ( 'NONE', *, *, #706, .F. ) ;
#547 = ORIENTED_EDGE ( 'NONE', *, *, #512, .T. ) ;
#548 = LINE ( 'NONE', #365, #979 ) ;
#549 = VECTOR ( 'NONE', #144, 1000.000000000000227 ) ;
#550 = CARTESIAN_POINT ( 'NONE',  ( 2.544874828826141577, -6.521013119570207017, -82.00000000000000000 ) ) ;
#551 = VERTEX_POINT ( 'NONE', #749 ) ;
#552 = CARTESIAN_POINT ( 'NONE',  ( -1.817767734875818775, 4.657866513978737188, -86.00000000000000000 ) ) ;
#553 = ORIENTED_EDGE ( 'NONE', *, *, #64, .F. ) ;
#554 = CARTESIAN_POINT ( 'NONE',  ( 0.000000000000000000, 0.000000000000000000, -82.00000000000000000 ) ) ;
#555 = CARTESIAN_POINT ( 'NONE',  ( 17.26944477322308913, 1.912236928270936609, 4.000000000000000000 ) ) ;
#556 = CARTESIAN_POINT ( 'NONE',  ( 2.407895764818118067, 2.869618428314366199, 0.000000000000000000 ) ) ;
#557 = DIRECTION ( 'NONE',  ( -0.000000000000000000, 0.000000000000000000, 1.000000000000000000 ) ) ;
#558 = CARTESIAN_POINT ( 'NONE',  ( -3.430579556720089407, 1.504591586898163413, 0.000000000000000000 ) ) ;
#559 = EDGE_LOOP ( 'NONE', ( #296, #181, #766, #530 ) ) ;
#560 = DIRECTION ( 'NONE',  ( 0.3635535469751641213, -0.9315733027957473489, -0.000000000000000000 ) ) ;
#561 = EDGE_CURVE ( 'NONE', #105, #368, #1115, .T. ) ;
#562 = DIRECTION ( 'NONE',  ( -0.9315733027957473489, -0.3635535469751641768, 0.000000000000000000 ) ) ;
#563 = DIRECTION ( 'NONE',  ( 0.000000000000000000, 0.000000000000000000, -1.000000000000000000 ) ) ;
#564 = CARTESIAN_POINT ( 'NONE',  ( -6.475634248854541752, 2.840098779102923743, -86.00000000000000000 ) ) ;
#565 = CARTESIAN_POINT ( 'NONE',  ( -48.39643287466317645, -13.51981083477944701, 1.169061089185122304 ) ) ;
#566 = VECTOR ( 'NONE', #829, 1000.000000000000000 ) ;
#567 = VERTEX_POINT ( 'NONE', #240 ) ;
#568 = LINE ( 'NONE', #500, #846 ) ;
#569 = MANIFOLD_SOLID_BREP ( 'Smusso5', #783 ) ;
#570 = CARTESIAN_POINT ( 'NONE',  ( -46.57866513978736833, -18.17767734875818064, 1.169061089185123636 ) ) ;
#571 = EDGE_CURVE ( 'NONE', #1147, #231, #56, .T. ) ;
#572 = VECTOR ( 'NONE', #540, 1000.000000000000000 ) ;
#573 = LINE ( 'NONE', #234, #939 ) ;
#574 = EDGE_CURVE ( 'NONE', #635, #315, #1068, .T. ) ;
#575 = CARTESIAN_POINT ( 'NONE',  ( 1.454214187900648714, -3.726293211182965415, -3.000000000000002665 ) ) ;
#576 = VECTOR ( 'NONE', #202, 1000.000000000000114 ) ;
#577 = VERTEX_POINT ( 'NONE', #152 ) ;
#578 = DIRECTION ( 'NONE',  ( 0.000000000000000000, 0.000000000000000000, 1.000000000000000000 ) ) ;
#579 = ORIENTED_EDGE ( 'NONE', *, *, #186, .F. ) ;
#580 = CARTESIAN_POINT ( 'NONE',  ( -48.39643287466319777, -13.51981083477945056, 4.000000000000000000 ) ) ;
#581 = LINE ( 'NONE', #482, #132 ) ;
#582 = DIRECTION ( 'NONE',  ( 1.000000000000000000, 0.000000000000000000, 0.000000000000000000 ) ) ;
#583 = EDGE_CURVE ( 'NONE', #287, #812, #713, .T. ) ;
#584 = ORIENTED_EDGE ( 'NONE', *, *, #329, .T. ) ;
#585 = LINE ( 'NONE', #662, #691 ) ;
#586 = LINE ( 'NONE', #41, #349 ) ;
#587 = CARTESIAN_POINT ( 'NONE',  ( 1.454214187900648714, -3.726293211182965415, -82.00000000000000000 ) ) ;
#588 = ORIENTED_EDGE ( 'NONE', *, *, #684, .T. ) ;
#589 = FACE_OUTER_BOUND ( 'NONE', #1013, .T. ) ;
#590 = ORIENTED_EDGE ( 'NONE', *, *, #123, .F. ) ;
#591 = LINE ( 'NONE', #496, #215 ) ;
#592 = CARTESIAN_POINT ( 'NONE',  ( 9.899185427912888358, -6.871296124853518705, -82.00000000000000000 ) ) ;
#593 = AXIS2_PLACEMENT_3D ( 'NONE', #793, #68, #804 ) ;
#594 = VECTOR ( 'NONE', #563, 1000.000000000000000 ) ;
#595 = EDGE_LOOP ( 'NONE', ( #746, #1049, #428, #380 ) ) ;
#596 = CIRCLE ( 'NONE', #293, 3.000000000000000000 ) ;
#597 =( NAMED_UNIT ( * ) PLANE_ANGLE_UNIT ( ) SI_UNIT ( $, .RADIAN. ) );
#598 = VERTEX_POINT ( 'NONE', #1161 ) ;
#599 = DIRECTION ( 'NONE',  ( 0.3635535469751641213, -0.9315733027957473489, 0.000000000000000000 ) ) ;
#600 = DIRECTION ( 'NONE',  ( -0.3635535469751645099, 0.9315733027957472379, 0.000000000000000000 ) ) ;
#601 = ORIENTED_EDGE ( 'NONE', *, *, #523, .T. ) ;
#602 = EDGE_CURVE ( 'NONE', #652, #1055, #342, .T. ) ;
#603 = DIRECTION ( 'NONE',  ( 0.1936849805049463136, 0.07558703265439928320, -0.9781476007338061329 ) ) ;
#604 = FACE_OUTER_BOUND ( 'NONE', #1067, .T. ) ;
#605 = PRODUCT_DEFINITION_CONTEXT ( 'detailed design', #931, 'design' ) ;
#606 = VERTEX_POINT ( 'NONE', #801 ) ;
#607 = PLANE ( 'NONE',  #1057 ) ;
#608 = EDGE_CURVE ( 'NONE', #938, #909, #348, .T. ) ;
#609 = AXIS2_PLACEMENT_3D ( 'NONE', #907, #720, #1086 ) ;
#610 = CIRCLE ( 'NONE', #977, 6.188860423197510841 ) ;
#611 = VECTOR ( 'NONE', #517, 1000.000000000000000 ) ;
#612 = VERTEX_POINT ( 'NONE', #1175 ) ;
#613 = DIRECTION ( 'NONE',  ( 1.000000000000000000, 0.000000000000000000, -0.000000000000000000 ) ) ;
#614 = EDGE_LOOP ( 'NONE', ( #579, #914, #104, #437, #1145, #338, #1087, #1026, #382, #546, #835, #1003, #55, #641, #531 ) ) ;
#615 = DIRECTION ( 'NONE',  ( -0.000000000000000000, 0.000000000000000000, -1.000000000000000000 ) ) ;
#616 = ADVANCED_FACE ( 'NONE', ( #354 ), #168, .T. ) ;
#617 = CARTESIAN_POINT ( 'NONE',  ( 2.407895764818117179, 2.869618428314364866, -86.00000000000000000 ) ) ;
#618 = EDGE_LOOP ( 'NONE', ( #74, #543, #195, #263, #754 ) ) ;
#619 = CARTESIAN_POINT ( 'NONE',  ( 2.544874828826142021, -6.521013119570208794, -3.000000000000000000 ) ) ;
#620 = ORIENTED_EDGE ( 'NONE', *, *, #443, .T. ) ;
#621 = EDGE_CURVE ( 'NONE', #231, #885, #610, .T. ) ;
#622 = VERTEX_POINT ( 'NONE', #109 ) ;
#623 = DIRECTION ( 'NONE',  ( 0.000000000000000000, 0.000000000000000000, 1.000000000000000000 ) ) ;
#624 = DIRECTION ( 'NONE',  ( -0.000000000000000000, 1.000000000000000000, -0.000000000000000000 ) ) ;
#625 = CARTESIAN_POINT ( 'NONE',  ( 13.16420695061061608, 2.026046117446506756, 0.000000000000000000 ) ) ;
#626 = VERTEX_POINT ( 'NONE', #1123 ) ;
#627 = VECTOR ( 'NONE', #834, 1000.000000000000000 ) ;
#628 = ORIENTED_EDGE ( 'NONE', *, *, #149, .T. ) ;
#629 =( GEOMETRIC_REPRESENTATION_CONTEXT ( 3 ) GLOBAL_UNCERTAINTY_ASSIGNED_CONTEXT ( ( #1066 ) ) GLOBAL_UNIT_ASSIGNED_CONTEXT ( ( #1167, #874, #982 ) ) REPRESENTATION_CONTEXT ( 'NONE', 'WORKASPACE' ) );
#630 = CYLINDRICAL_SURFACE ( 'NONE', #391, 3.000000000000000444 ) ;
#631 = CIRCLE ( 'NONE', #62, 5.000000000000000000 ) ;
#632 = EDGE_CURVE ( 'NONE', #1156, #652, #481, .T. ) ;
#633 = CARTESIAN_POINT ( 'NONE',  ( -43.27277970928650319, -11.52026632641601722, 0.000000000000000000 ) ) ;
#634 = ORIENTED_EDGE ( 'NONE', *, *, #944, .T. ) ;
#635 = VERTEX_POINT ( 'NONE', #928 ) ;
#636 = DIRECTION ( 'NONE',  ( -1.000000000000000000, 0.000000000000000000, 0.000000000000000000 ) ) ;
#637 = CARTESIAN_POINT ( 'NONE',  ( 2.544874828826142910, -6.521013119570208794, 0.000000000000000000 ) ) ;
#638 = EDGE_CURVE ( 'NONE', #577, #812, #763, .T. ) ;
#639 = ORIENTED_EDGE ( 'NONE', *, *, #163, .T. ) ;
#640 = DIRECTION ( 'NONE',  ( -0.4016506211886640698, -0.9157929779697813188, -0.000000000000000000 ) ) ;
#641 = ORIENTED_EDGE ( 'NONE', *, *, #301, .T. ) ;
#642 = CARTESIAN_POINT ( 'NONE',  ( 17.26944477322308913, 21.91223692827093572, 4.000000000000000000 ) ) ;
#643 = CARTESIAN_POINT ( 'NONE',  ( 0.6361362788993354389, -1.630042064760637288, -82.00000000000000000 ) ) ;
#644 = ORIENTED_EDGE ( 'NONE', *, *, #337, .F. ) ;
#645 = VECTOR ( 'NONE', #1143, 1000.000000000000000 ) ;
#646 = CARTESIAN_POINT ( 'NONE',  ( -1.817767734875818775, 4.657866513978737188, 0.000000000000000000 ) ) ;
#647 = EDGE_CURVE ( 'NONE', #893, #66, #474, .T. ) ;
#648 = ORIENTED_EDGE ( 'NONE', *, *, #222, .F. ) ;
#649 = LINE ( 'NONE', #642, #827 ) ;
#650 = FACE_OUTER_BOUND ( 'NONE', #1079, .T. ) ;
#651 = VECTOR ( 'NONE', #1141, 1000.000000000000114 ) ;
#652 = VERTEX_POINT ( 'NONE', #839 ) ;
#653 = EDGE_CURVE ( 'NONE', #932, #537, #664, .T. ) ;
#654 = ORIENTED_EDGE ( 'NONE', *, *, #768, .T. ) ;
#655 = DIRECTION ( 'NONE',  ( 0.9315733027957475709, 0.3635535469751637327, 0.000000000000000000 ) ) ;
#656 = ORIENTED_EDGE ( 'NONE', *, *, #1169, .F. ) ;
#657 = DIRECTION ( 'NONE',  ( -5.393199694117866902E-17, 1.000000000000000000, 0.000000000000000000 ) ) ;
#658 = CARTESIAN_POINT ( 'NONE',  ( 1.233076566944518726, -0.5408055979905096455, 4.000000000000000000 ) ) ;
#659 = EDGE_LOOP ( 'NONE', ( #661, #513, #620, #887 ) ) ;
#660 = EDGE_CURVE ( 'NONE', #538, #800, #290, .T. ) ;
#661 = ORIENTED_EDGE ( 'NONE', *, *, #170, .T. ) ;
#662 = CARTESIAN_POINT ( 'NONE',  ( 17.26944477322308913, 21.91223692827093572, -86.00000000000000000 ) ) ;
#663 = LINE ( 'NONE', #580, #79 ) ;
#664 = LINE ( 'NONE', #16, #1093 ) ;
#665 = DIRECTION ( 'NONE',  ( 0.000000000000000000, 0.000000000000000000, 1.000000000000000000 ) ) ;
#666 = DIRECTION ( 'NONE',  ( -0.9112161910373278717, -0.3556090297120214627, 0.2079116908177567058 ) ) ;
#667 = APPLICATION_PROTOCOL_DEFINITION ( 'draft international standard', 'automotive_design', 1998, #1159 ) ;
#668 = ORIENTED_EDGE ( 'NONE', *, *, #944, .F. ) ;
#669 = CARTESIAN_POINT ( 'NONE',  ( 13.56466712424536070, 0.9999028994941735471, -16.00000000000000000 ) ) ;
#670 = CARTESIAN_POINT ( 'NONE',  ( -46.57866513978736833, -18.17767734875818064, 4.000000000000000000 ) ) ;
#671 = EDGE_CURVE ( 'NONE', #75, #1156, #385, .T. ) ;
#672 = AXIS2_PLACEMENT_3D ( 'NONE', #529, #1168, #350 ) ;
#673 = DIRECTION ( 'NONE',  ( 0.000000000000000000, -0.000000000000000000, 1.000000000000000000 ) ) ;
#674 = CARTESIAN_POINT ( 'NONE',  ( -41.45501197441073060, -16.17813284039477750, -82.00000000000000000 ) ) ;
#675 = CIRCLE ( 'NONE', #752, 5.000000000000000000 ) ;
#676 = ORIENTED_EDGE ( 'NONE', *, *, #405, .F. ) ;
#677 = LINE ( 'NONE', #318, #1059 ) ;
#678 = CARTESIAN_POINT ( 'NONE',  ( 0.6787015587948457274, -1.739111770465899154, 0.000000000000000000 ) ) ;
#679 = ORIENTED_EDGE ( 'NONE', *, *, #1007, .T. ) ;
#680 = CARTESIAN_POINT ( 'NONE',  ( 0.000000000000000000, 0.000000000000000000, -82.00000000000000000 ) ) ;
#681 = ORIENTED_EDGE ( 'NONE', *, *, #602, .T. ) ;
#682 = DIRECTION ( 'NONE',  ( 1.000000000000000000, -5.393199694117866902E-17, 0.000000000000000000 ) ) ;
#683 = FACE_OUTER_BOUND ( 'NONE', #614, .T. ) ;
#684 = EDGE_CURVE ( 'NONE', #885, #626, #204, .T. ) ;
#685 = ORIENTED_EDGE ( 'NONE', *, *, #1155, .T. ) ;
#686 = VERTEX_POINT ( 'NONE', #556 ) ;
#687 = CARTESIAN_POINT ( 'NONE',  ( -6.475634248854535535, 2.840098779102930848, 4.000000000000000000 ) ) ;
#688 = AXIS2_PLACEMENT_3D ( 'NONE', #242, #603, #599 ) ;
#689 = VECTOR ( 'NONE', #34, 1000.000000000000114 ) ;
#690 = VECTOR ( 'NONE', #433, 1000.000000000000227 ) ;
#691 = VECTOR ( 'NONE', #32, 1000.000000000000000 ) ;
#692 = EDGE_CURVE ( 'NONE', #300, #95, #379, .T. ) ;
#693 = LINE ( 'NONE', #145, #942 ) ;
#694 = ORIENTED_EDGE ( 'NONE', *, *, #390, .F. ) ;
#695 = CARTESIAN_POINT ( 'NONE',  ( 17.26944477322308913, 21.91223692827093572, 0.000000000000000000 ) ) ;
#696 = CARTESIAN_POINT ( 'NONE',  ( 17.26944477322308913, 21.91223692827093572, 4.000000000000000000 ) ) ;
#697 = DIRECTION ( 'NONE',  ( -0.6427876096865403621, -0.7660444431189771253, 0.000000000000000000 ) ) ;
#698 = EDGE_CURVE ( 'NONE', #1105, #938, #962, .T. ) ;
#699 = ORIENTED_EDGE ( 'NONE', *, *, #1007, .F. ) ;
#700 = DIRECTION ( 'NONE',  ( -0.000000000000000000, 1.000000000000000000, -0.000000000000000000 ) ) ;
#701 = EDGE_CURVE ( 'NONE', #1055, #75, #189, .T. ) ;
#702 = FACE_OUTER_BOUND ( 'NONE', #357, .T. ) ;
#703 = DIRECTION ( 'NONE',  ( -5.393199694117866902E-17, 1.000000000000000000, 0.000000000000000000 ) ) ;
#704 = VERTEX_POINT ( 'NONE', #270 ) ;
#705 = FACE_OUTER_BOUND ( 'NONE', #1166, .T. ) ;
#706 = EDGE_CURVE ( 'NONE', #635, #537, #544, .T. ) ;
#707 = EDGE_LOOP ( 'NONE', ( #124, #320, #717, #334, #470 ) ) ;
#708 = DIRECTION ( 'NONE',  ( -0.3635535469751643989, 0.9315733027957471268, 0.000000000000000000 ) ) ;
#709 = VECTOR ( 'NONE', #87, 1000.000000000000000 ) ;
#710 = DIRECTION ( 'NONE',  ( 0.9315733027957475709, 0.3635535469751637327, -0.000000000000000000 ) ) ;
#711 = VECTOR ( 'NONE', #51, 1000.000000000000114 ) ;
#712 = ORIENTED_EDGE ( 'NONE', *, *, #1097, .T. ) ;
#713 = LINE ( 'NONE', #796, #153 ) ;
#714 = DIRECTION ( 'NONE',  ( -0.6427876096865403621, -0.7660444431189771253, 0.000000000000000000 ) ) ;
#715 = ORIENTED_EDGE ( 'NONE', *, *, #58, .T. ) ;
#716 = PRODUCT_DEFINITION_SHAPE ( 'NONE', 'NONE',  #888 ) ;
#717 = ORIENTED_EDGE ( 'NONE', *, *, #186, .T. ) ;
#718 = CARTESIAN_POINT ( 'NONE',  ( 11.08058435002557651, 21.91223692827093572, -86.00000000000000000 ) ) ;
#719 = LINE ( 'NONE', #1045, #48 ) ;
#720 = DIRECTION ( 'NONE',  ( -0.3143005298619628851, 0.9493235364871606130, 0.000000000000000000 ) ) ;
#721 = ORIENTED_EDGE ( 'NONE', *, *, #71, .F. ) ;
#722 = EDGE_CURVE ( 'NONE', #970, #551, #1101, .T. ) ;
#723 = ORIENTED_EDGE ( 'NONE', *, *, #957, .T. ) ;
#724 = DIRECTION ( 'NONE',  ( -0.000000000000000000, -0.000000000000000000, -1.000000000000000000 ) ) ;
#725 = CARTESIAN_POINT ( 'NONE',  ( 1.454214187900648714, -3.726293211182965415, -16.00000000000000000 ) ) ;
#726 = ORIENTED_EDGE ( 'NONE', *, *, #250, .T. ) ;
#727 = EDGE_CURVE ( 'NONE', #946, #1188, #832, .T. ) ;
#728 = ORIENTED_EDGE ( 'NONE', *, *, #512, .F. ) ;
#729 = DIRECTION ( 'NONE',  ( -0.3635535469751644544, 0.9315733027957472379, 0.000000000000000000 ) ) ;
#730 = VECTOR ( 'NONE', #539, 1000.000000000000000 ) ;
#731 = CARTESIAN_POINT ( 'NONE',  ( -1.422326450776768558, 6.083556476747069119, 0.000000000000000000 ) ) ;
#732 = ORIENTED_EDGE ( 'NONE', *, *, #246, .F. ) ;
#733 = ORIENTED_EDGE ( 'NONE', *, *, #727, .T. ) ;
#734 = CARTESIAN_POINT ( 'NONE',  ( -43.27277970928654582, -11.52026632641603499, -82.00000000000000000 ) ) ;
#735 = CARTESIAN_POINT ( 'NONE',  ( 4.891723926828066560, 21.91223692827093572, 4.000000000000000000 ) ) ;
#736 = EDGE_CURVE ( 'NONE', #37, #946, #169, .T. ) ;
#737 = FACE_OUTER_BOUND ( 'NONE', #659, .T. ) ;
#738 = FACE_OUTER_BOUND ( 'NONE', #1178, .T. ) ;
#739 = ORIENTED_EDGE ( 'NONE', *, *, #523, .F. ) ;
#740 = DIRECTION ( 'NONE',  ( 0.000000000000000000, 0.000000000000000000, 1.000000000000000000 ) ) ;
#741 = DIRECTION ( 'NONE',  ( 0.000000000000000000, -0.000000000000000000, 1.000000000000000000 ) ) ;
#742 = CARTESIAN_POINT ( 'NONE',  ( -30.06426868278052211, -11.73280887723727339, -79.40098044709037595 ) ) ;
#743 = ORIENTED_EDGE ( 'NONE', *, *, #1023, .T. ) ;
#744 = EDGE_CURVE ( 'NONE', #167, #1105, #649, .T. ) ;
#745 = VECTOR ( 'NONE', #865, 1000.000000000000000 ) ;
#746 = ORIENTED_EDGE ( 'NONE', *, *, #701, .F. ) ;
#747 = DIRECTION ( 'NONE',  ( 0.6427876096865403621, 0.7660444431189770143, 0.000000000000000000 ) ) ;
#748 = VECTOR ( 'NONE', #757, 1000.000000000000000 ) ;
#749 = CARTESIAN_POINT ( 'NONE',  ( -45.12445095188670763, -21.90397055994116826, -3.000000000000002665 ) ) ;
#750 = AXIS2_PLACEMENT_3D ( 'NONE', #488, #562, #33 ) ;
#751 = DIRECTION ( 'NONE',  ( 0.3635535469751641213, -0.9315733027957473489, 0.000000000000000000 ) ) ;
#752 = AXIS2_PLACEMENT_3D ( 'NONE', #223, #937, #582 ) ;
#753 = DIRECTION ( 'NONE',  ( -0.3635535469751643989, 0.9315733027957471268, 0.000000000000000000 ) ) ;
#754 = ORIENTED_EDGE ( 'NONE', *, *, #701, .T. ) ;
#755 = PLANE ( 'NONE',  #506 ) ;
#756 = CARTESIAN_POINT ( 'NONE',  ( 2.407895764818118067, 2.869618428314366199, 4.000000000000000000 ) ) ;
#757 = DIRECTION ( 'NONE',  ( 0.9597141645441072955, 0.2809781528400491779, -0.000000000000000000 ) ) ;
#758 = LINE ( 'NONE', #1118, #998 ) ;
#759 = ORIENTED_EDGE ( 'NONE', *, *, #653, .T. ) ;
#760 = ADVANCED_FACE ( 'NONE', ( #1106 ), #993, .F. ) ;
#761 = LINE ( 'NONE', #669, #442 ) ;
#762 = LINE ( 'NONE', #954, #272 ) ;
#763 = LINE ( 'NONE', #26, #460 ) ;
#764 = PLANE ( 'NONE',  #187 ) ;
#765 = PLANE ( 'NONE',  #518 ) ;
#766 = ORIENTED_EDGE ( 'NONE', *, *, #58, .F. ) ;
#767 = DIRECTION ( 'NONE',  ( -0.9315733027957471268, -0.3635535469751642879, -0.000000000000000000 ) ) ;
#768 = EDGE_CURVE ( 'NONE', #409, #436, #451, .T. ) ;
#769 = PLANE ( 'NONE',  #824 ) ;
#770 = VECTOR ( 'NONE', #190, 1000.000000000000114 ) ;
#771 = CARTESIAN_POINT ( 'NONE',  ( -42.94312967003571657, -27.49341037671565147, -86.00000000000000000 ) ) ;
#772 = VECTOR ( 'NONE', #1108, 999.9999999999998863 ) ;
#773 = ORIENTED_EDGE ( 'NONE', *, *, #358, .F. ) ;
#774 = CARTESIAN_POINT ( 'NONE',  ( 4.891723926828066560, 21.91223692827093572, 4.000000000000000000 ) ) ;
#775 = CARTESIAN_POINT ( 'NONE',  ( 4.891723926828065672, 5.829729563776385959, 4.000000000000000000 ) ) ;
#776 = LINE ( 'NONE', #848, #645 ) ;
#777 = EDGE_CURVE ( 'NONE', #538, #291, #1186, .T. ) ;
#778 = EDGE_LOOP ( 'NONE', ( #974, #712, #644, #905 ) ) ;
#779 = CARTESIAN_POINT ( 'NONE',  ( 17.26944477322308913, 1.912236928270936609, -82.00000000000000000 ) ) ;
#780 = ORIENTED_EDGE ( 'NONE', *, *, #292, .F. ) ;
#781 = DIRECTION ( 'NONE',  ( 0.000000000000000000, 0.000000000000000000, 1.000000000000000000 ) ) ;
#782 = ADVANCED_FACE ( 'NONE', ( #1096 ), #265, .T. ) ;
#783 = CLOSED_SHELL ( 'NONE', ( #30, #210, #908, #236, #760, #782, #542, #1149, #372, #262, #310, #46, #976, #1041, #1119, #616, #876, #951, #194, #1183, #91, #871, #179, #277, #795, #522, #1048, #228, #1076, #268, #935, #2, #29, #412, #533, #421 ) ) ;
#784 = ORIENTED_EDGE ( 'NONE', *, *, #54, .F. ) ;
#785 = DIRECTION ( 'NONE',  ( 0.9315733027957472379, 0.3635535469751641213, -0.000000000000000000 ) ) ;
#786 = DIRECTION ( 'NONE',  ( -0.3635535469751644544, 0.9315733027957472379, 3.614007241618347587E-15 ) ) ;
#787 = EDGE_CURVE ( 'NONE', #791, #622, #548, .T. ) ;
#788 = CIRCLE ( 'NONE', #963, 6.188860423197510841 ) ;
#789 = EDGE_CURVE ( 'NONE', #812, #970, #596, .T. ) ;
#790 = UNCERTAINTY_MEASURE_WITH_UNIT (LENGTH_MEASURE( 1.000000000000000082E-05 ), #141, 'distance_accuracy_value', 'NONE');
#791 = VERTEX_POINT ( 'NONE', #446 ) ;
#792 = PRESENTATION_STYLE_ASSIGNMENT (( #67 ) ) ;
#793 = CARTESIAN_POINT ( 'NONE',  ( -46.57866513978736833, -18.17767734875818064, 4.000000000000000000 ) ) ;
#794 = LINE ( 'NONE', #1158, #711 ) ;
#795 = ADVANCED_FACE ( 'NONE', ( #926 ), #630, .F. ) ;
#796 = CARTESIAN_POINT ( 'NONE',  ( -44.03379031096120855, -24.69869046832840809, -82.00000000000000000 ) ) ;
#797 = DIRECTION ( 'NONE',  ( -0.9315733027957472379, -0.3635535469751644544, 0.000000000000000000 ) ) ;
#798 = EDGE_LOOP ( 'NONE', ( #162, #456, #50, #450 ) ) ;
#799 = CARTESIAN_POINT ( 'NONE',  ( -43.27277970928650319, -11.52026632641601367, 0.000000000000000000 ) ) ;
#800 = VERTEX_POINT ( 'NONE', #1176 ) ;
#801 = CARTESIAN_POINT ( 'NONE',  ( -3.430579556720088519, 1.504591586898163191, -82.00000000000000000 ) ) ;
#802 = PRODUCT ( 'ELP-0035', 'ELP-0035', '', ( #216 ) ) ;
#803 = EDGE_CURVE ( 'NONE', #704, #436, #788, .T. ) ;
#804 = DIRECTION ( 'NONE',  ( 0.9315733027957474599, 0.3635535469751636772, 0.000000000000000000 ) ) ;
#805 = ORIENTED_EDGE ( 'NONE', *, *, #722, .F. ) ;
#806 = VECTOR ( 'NONE', #943, 1000.000000000000114 ) ;
#807 = VECTOR ( 'NONE', #4, 1000.000000000000000 ) ;
#808 = EDGE_LOOP ( 'NONE', ( #1054, #831, #398, #721, #1002, #780, #251, #129, #191, #117, #1063, #541, #40, #418, #1022 ) ) ;
#809 = DIRECTION ( 'NONE',  ( 1.000000000000000000, 0.000000000000000000, 0.000000000000000000 ) ) ;
#810 = DIRECTION ( 'NONE',  ( -0.6427876096865403621, -0.7660444431189771253, 0.000000000000000000 ) ) ;
#811 = DIRECTION ( 'NONE',  ( 1.000000000000000000, 0.000000000000000000, 0.000000000000000000 ) ) ;
#812 = VERTEX_POINT ( 'NONE', #288 ) ;
#813 = ORIENTED_EDGE ( 'NONE', *, *, #285, .F. ) ;
#814 = DIRECTION ( 'NONE',  ( -0.000000000000000000, 0.000000000000000000, -1.000000000000000000 ) ) ;
#815 = CARTESIAN_POINT ( 'NONE',  ( 0.6361362788993353279, -1.630042064760636844, 0.000000000000000000 ) ) ;
#816 = EDGE_LOOP ( 'NONE', ( #1075, #1083, #432, #12 ) ) ;
#817 = EDGE_CURVE ( 'NONE', #1156, #890, #196, .T. ) ;
#818 = ORIENTED_EDGE ( 'NONE', *, *, #279, .T. ) ;
#819 = DIRECTION ( 'NONE',  ( 0.000000000000000000, 0.000000000000000000, 1.000000000000000000 ) ) ;
#820 = CARTESIAN_POINT ( 'NONE',  ( 17.26944477322308913, 21.91223692827093572, -82.00000000000000000 ) ) ;
#821 = LINE ( 'NONE', #110, #566 ) ;
#822 = PLANE ( 'NONE',  #99 ) ;
#823 = VERTEX_POINT ( 'NONE', #106 ) ;
#824 = AXIS2_PLACEMENT_3D ( 'NONE', #220, #864, #126 ) ;
#825 = EDGE_CURVE ( 'NONE', #598, #86, #355, .T. ) ;
#826 = CARTESIAN_POINT ( 'NONE',  ( 17.26944477322308913, 1.912236928270936609, -86.00000000000000000 ) ) ;
#827 = VECTOR ( 'NONE', #624, 1000.000000000000000 ) ;
#828 = LINE ( 'NONE', #472, #770 ) ;
#829 = DIRECTION ( 'NONE',  ( 0.000000000000000000, -0.000000000000000000, 1.000000000000000000 ) ) ;
#830 = PLANE ( 'NONE',  #964 ) ;
#831 = ORIENTED_EDGE ( 'NONE', *, *, #583, .T. ) ;
#832 = LINE ( 'NONE', #282, #1173 ) ;
#833 = EDGE_CURVE ( 'NONE', #622, #932, #719, .T. ) ;
#834 = DIRECTION ( 'NONE',  ( -0.000000000000000000, -0.000000000000000000, -1.000000000000000000 ) ) ;
#835 = ORIENTED_EDGE ( 'NONE', *, *, #574, .T. ) ;
#836 = LINE ( 'NONE', #841, #255 ) ;
#837 = VERTEX_POINT ( 'NONE', #852 ) ;
#838 = DIRECTION ( 'NONE',  ( -0.3635535469751641213, 0.9315733027957473489, 0.000000000000000000 ) ) ;
#839 = CARTESIAN_POINT ( 'NONE',  ( -46.57866513978736833, -18.17767734875818064, -83.16906108918512075 ) ) ;
#840 = CARTESIAN_POINT ( 'NONE',  ( 12.11045293634471420, 4.726196110677136630, 0.000000000000000000 ) ) ;
#841 = CARTESIAN_POINT ( 'NONE',  ( -18.63146605591569127, -7.271070939503562869, -82.00000000000000000 ) ) ;
#842 = ORIENTED_EDGE ( 'NONE', *, *, #493, .F. ) ;
#843 = VECTOR ( 'NONE', #1012, 1000.000000000000000 ) ;
#844 = LINE ( 'NONE', #487, #175 ) ;
#845 = CARTESIAN_POINT ( 'NONE',  ( -6.475634248854540864, 2.840098779102924187, -82.00000000000000000 ) ) ;
#846 = VECTOR ( 'NONE', #578, 1000.000000000000000 ) ;
#847 = VECTOR ( 'NONE', #740, 1000.000000000000000 ) ;
#848 = CARTESIAN_POINT ( 'NONE',  ( 9.899185427912888358, -6.871296124853518705, -86.00000000000000000 ) ) ;
#849 = DIRECTION ( 'NONE',  ( -0.9315733027957475709, -0.3635535469751637327, 0.000000000000000000 ) ) ;
#850 = EDGE_CURVE ( 'NONE', #837, #374, #761, .T. ) ;
#851 = ORIENTED_EDGE ( 'NONE', *, *, #483, .F. ) ;
#852 = CARTESIAN_POINT ( 'NONE',  ( 13.56466712424536070, 0.9999028994941735471, -16.00000000000000000 ) ) ;
#853 = DIRECTION ( 'NONE',  ( 0.9315733027957475709, 0.3635535469751637327, 0.000000000000000000 ) ) ;
#854 = PLANE ( 'NONE',  #363 ) ;
#855 = CARTESIAN_POINT ( 'NONE',  ( 4.891723926828065672, 5.829729563776385959, -86.00000000000000000 ) ) ;
#856 = EDGE_CURVE ( 'NONE', #626, #686, #1121, .T. ) ;
#857 = EDGE_LOOP ( 'NONE', ( #1172, #1028, #267, #1160 ) ) ;
#858 = CARTESIAN_POINT ( 'NONE',  ( -42.94312967003572368, -27.49341037671565857, 4.000000000000000000 ) ) ;
#859 = PLANE ( 'NONE',  #1171 ) ;
#860 = CARTESIAN_POINT ( 'NONE',  ( -1.422326450776768558, 6.083556476747069119, 4.000000000000000000 ) ) ;
#861 = ORIENTED_EDGE ( 'NONE', *, *, #608, .F. ) ;
#862 = CARTESIAN_POINT ( 'NONE',  ( 0.000000000000000000, 0.000000000000000000, -86.00000000000000000 ) ) ;
#863 = EDGE_CURVE ( 'NONE', #510, #89, #302, .T. ) ;
#864 = DIRECTION ( 'NONE',  ( -0.2809781528400561723, 0.9597141645441052971, 0.000000000000000000 ) ) ;
#865 = DIRECTION ( 'NONE',  ( -0.9597141645441072955, -0.2809781528400491779, -0.000000000000000000 ) ) ;
#866 = VECTOR ( 'NONE', #322, 999.9999999999998863 ) ;
#867 = VECTOR ( 'NONE', #849, 1000.000000000000114 ) ;
#868 = EDGE_LOOP ( 'NONE', ( #685, #43, #359, #207 ) ) ;
#869 = ORIENTED_EDGE ( 'NONE', *, *, #698, .F. ) ;
#870 = FACE_OUTER_BOUND ( 'NONE', #1184, .T. ) ;
#871 = ADVANCED_FACE ( 'NONE', ( #309 ), #393, .F. ) ;
#872 = DIRECTION ( 'NONE',  ( 0.000000000000000000, -0.000000000000000000, 1.000000000000000000 ) ) ;
#873 = ORIENTED_EDGE ( 'NONE', *, *, #397, .F. ) ;
#874 =( NAMED_UNIT ( * ) PLANE_ANGLE_UNIT ( ) SI_UNIT ( $, .RADIAN. ) );
#875 = LINE ( 'NONE', #696, #252 ) ;
#876 = ADVANCED_FACE ( 'NONE', ( #589 ), #755, .F. ) ;
#877 = ORIENTED_EDGE ( 'NONE', *, *, #989, .T. ) ;
#878 = DIRECTION ( 'NONE',  ( -0.9315733027957475709, -0.3635535469751637327, -0.000000000000000000 ) ) ;
#879 = AXIS2_PLACEMENT_3D ( 'NONE', #1102, #84, #197 ) ;
#880 = COLOUR_RGB ( '',0.7921568627450980005, 0.8196078431372548767, 0.9333333333333333481 ) ;
#881 = AXIS2_PLACEMENT_3D ( 'NONE', #1125, #388, #476 ) ;
#882 = EDGE_CURVE ( 'NONE', #606, #823, #317, .T. ) ;
#883 = PRODUCT_DEFINITION_FORMATION_WITH_SPECIFIED_SOURCE ( 'TUTTO', '', #802, .NOT_KNOWN. ) ;
#884 = LINE ( 'NONE', #158, #1018 ) ;
#885 = VERTEX_POINT ( 'NONE', #225 ) ;
#886 = CARTESIAN_POINT ( 'NONE',  ( -42.94312967003572368, -27.49341037671565857, 1.169061089185123636 ) ) ;
#887 = ORIENTED_EDGE ( 'NONE', *, *, #910, .T. ) ;
#888 = PRODUCT_DEFINITION ( 'NON CONOSCIUTO', '', #883, #605 ) ;
#889 = DIRECTION ( 'NONE',  ( -0.3635535469751636772, 0.9315733027957474599, 0.000000000000000000 ) ) ;
#890 = VERTEX_POINT ( 'NONE', #119 ) ;
#891 = SURFACE_STYLE_FILL_AREA ( #1064 ) ;
#892 = DIRECTION ( 'NONE',  ( 1.000000000000000000, 0.000000000000000000, -0.000000000000000000 ) ) ;
#893 = VERTEX_POINT ( 'NONE', #495 ) ;
#894 = ORIENTED_EDGE ( 'NONE', *, *, #1030, .F. ) ;
#895 = EDGE_CURVE ( 'NONE', #409, #37, #585, .T. ) ;
#896 = FACE_OUTER_BOUND ( 'NONE', #999, .T. ) ;
#897 = EDGE_LOOP ( 'NONE', ( #668, #308, #900, #1015 ) ) ;
#898 = AXIS2_PLACEMENT_3D ( 'NONE', #1153, #971, #613 ) ;
#899 = AXIS2_PLACEMENT_3D ( 'NONE', #360, #724, #1017 ) ;
#900 = ORIENTED_EDGE ( 'NONE', *, *, #863, .T. ) ;
#901 = DIRECTION ( 'NONE',  ( 1.000000000000000000, 0.000000000000000000, 0.000000000000000000 ) ) ;
#902 = DIRECTION ( 'NONE',  ( -0.9315733027957475709, -0.3635535469751637327, -0.000000000000000000 ) ) ;
#903 = EDGE_CURVE ( 'NONE', #430, #156, #1029, .T. ) ;
#904 = ORIENTED_EDGE ( 'NONE', *, *, #850, .F. ) ;
#905 = ORIENTED_EDGE ( 'NONE', *, *, #473, .F. ) ;
#906 = CARTESIAN_POINT ( 'NONE',  ( 11.08058435002557651, 21.91223692827093572, -82.00000000000000000 ) ) ;
#907 = CARTESIAN_POINT ( 'NONE',  ( 13.03684393775633410, 2.352402395705526672, 0.000000000000000000 ) ) ;
#908 = ADVANCED_FACE ( 'NONE', ( #1050 ), #219, .F. ) ;
#909 = VERTEX_POINT ( 'NONE', #478 ) ;
#910 = EDGE_CURVE ( 'NONE', #837, #258, #844, .T. ) ;
#911 = VERTEX_POINT ( 'NONE', #958 ) ;
#912 = CARTESIAN_POINT ( 'NONE',  ( -42.94312967003572368, -27.49341037671565857, 0.000000000000000000 ) ) ;
#913 = CARTESIAN_POINT ( 'NONE',  ( 4.891723926828065672, 5.829729563776385959, 4.000000000000000000 ) ) ;
#914 = ORIENTED_EDGE ( 'NONE', *, *, #337, .T. ) ;
#915 = CARTESIAN_POINT ( 'NONE',  ( -48.39643287466319777, -13.51981083477945056, -83.16906108918512075 ) ) ;
#916 = EDGE_CURVE ( 'NONE', #374, #1092, #568, .T. ) ;
#917 = AXIS2_PLACEMENT_3D ( 'NONE', #625, #1187, #366 ) ;
#918 = ORIENTED_EDGE ( 'NONE', *, *, #817, .F. ) ;
#919 = DIRECTION ( 'NONE',  ( 0.9112161910373278717, 0.3556090297120214627, 0.2079116908177571499 ) ) ;
#920 = VECTOR ( 'NONE', #313, 1000.000000000000114 ) ;
#921 = DIRECTION ( 'NONE',  ( -0.000000000000000000, 0.000000000000000000, -1.000000000000000000 ) ) ;
#922 =( GEOMETRIC_REPRESENTATION_CONTEXT ( 3 ) GLOBAL_UNCERTAINTY_ASSIGNED_CONTEXT ( ( #790 ) ) GLOBAL_UNIT_ASSIGNED_CONTEXT ( ( #141, #597, #464 ) ) REPRESENTATION_CONTEXT ( 'NONE', 'WORKASPACE' ) );
#923 = CARTESIAN_POINT ( 'NONE',  ( 3.543608572883815366, -0.7906029029144043818, 0.000000000000000000 ) ) ;
#924 = PLANE ( 'NONE',  #991 ) ;
#925 = EDGE_LOOP ( 'NONE', ( #22, #1072, #1120, #759 ) ) ;
#926 = FACE_OUTER_BOUND ( 'NONE', #521, .T. ) ;
#927 = CARTESIAN_POINT ( 'NONE',  ( -6.475634248854540864, 2.840098779102924187, 0.000000000000000000 ) ) ;
#928 = CARTESIAN_POINT ( 'NONE',  ( -44.03379031096121565, -24.69869046832841164, 0.000000000000000000 ) ) ;
#929 = DIRECTION ( 'NONE',  ( 1.000000000000000000, 0.000000000000000000, 0.000000000000000000 ) ) ;
#930 = CARTESIAN_POINT ( 'NONE',  ( 17.26944477322308913, 1.912236928270936609, -82.00000000000000000 ) ) ;
#931 = APPLICATION_CONTEXT ( 'automotive_design' ) ;
#932 = VERTEX_POINT ( 'NONE', #858 ) ;
#933 = CARTESIAN_POINT ( 'NONE',  ( -3.430579556720088519, 1.504591586898163191, 0.000000000000000000 ) ) ;
#934 = DIRECTION ( 'NONE',  ( -0.9315733027957472379, -0.3635535469751644544, 0.000000000000000000 ) ) ;
#935 = ADVANCED_FACE ( 'NONE', ( #399 ), #39, .F. ) ;
#936 = CARTESIAN_POINT ( 'NONE',  ( -48.39643287466319777, -13.51981083477945056, -86.00000000000000000 ) ) ;
#937 = DIRECTION ( 'NONE',  ( 0.000000000000000000, -0.000000000000000000, 1.000000000000000000 ) ) ;
#938 = VERTEX_POINT ( 'NONE', #774 ) ;
#939 = VECTOR ( 'NONE', #665, 1000.000000000000000 ) ;
#940 = DIRECTION ( 'NONE',  ( -0.000000000000000000, -0.000000000000000000, -1.000000000000000000 ) ) ;
#941 = CARTESIAN_POINT ( 'NONE',  ( 4.891723926828064783, 21.91223692827093572, -86.00000000000000000 ) ) ;
#942 = VECTOR ( 'NONE', #332, 1000.000000000000000 ) ;
#943 = DIRECTION ( 'NONE',  ( 0.9315733027957472379, 0.3635535469751641213, -0.000000000000000000 ) ) ;
#944 = EDGE_CURVE ( 'NONE', #911, #105, #130, .T. ) ;
#945 = CARTESIAN_POINT ( 'NONE',  ( 1.454214187900647604, -3.726293211182963194, -66.00000000000000000 ) ) ;
#946 = VERTEX_POINT ( 'NONE', #321 ) ;
#947 = DIRECTION ( 'NONE',  ( 0.3635535469751637327, -0.9315733027957475709, 0.000000000000000000 ) ) ;
#948 = LINE ( 'NONE', #941, #331 ) ;
#949 = CARTESIAN_POINT ( 'NONE',  ( -18.63146605591568417, -7.271070939503561092, 0.000000000000000000 ) ) ;
#950 = DIRECTION ( 'NONE',  ( 0.000000000000000000, 0.000000000000000000, -1.000000000000000000 ) ) ;
#951 = ADVANCED_FACE ( 'NONE', ( #230 ), #471, .F. ) ;
#952 = EDGE_LOOP ( 'NONE', ( #294, #656, #1099, #694 ) ) ;
#953 = DIRECTION ( 'NONE',  ( -1.000000000000000000, 0.000000000000000000, -0.000000000000000000 ) ) ;
#954 = CARTESIAN_POINT ( 'NONE',  ( -6.475634248854540864, 2.840098779102924187, 0.000000000000000000 ) ) ;
#955 = CARTESIAN_POINT ( 'NONE',  ( 11.08058435002557651, 21.91223692827093572, -82.00000000000000000 ) ) ;
#956 = VERTEX_POINT ( 'NONE', #779 ) ;
#957 = EDGE_CURVE ( 'NONE', #89, #704, #1146, .T. ) ;
#958 = CARTESIAN_POINT ( 'NONE',  ( 2.407895764818117179, 2.869618428314364866, -86.00000000000000000 ) ) ;
#959 = ORIENTED_EDGE ( 'NONE', *, *, #1162, .T. ) ;
#960 = DIRECTION ( 'NONE',  ( 0.9315733027957475709, 0.3635535469751637327, -0.000000000000000000 ) ) ;
#961 = DIRECTION ( 'NONE',  ( 0.000000000000000000, 0.000000000000000000, -1.000000000000000000 ) ) ;
#962 = CIRCLE ( 'NONE', #440, 6.188860423197510841 ) ;
#963 = AXIS2_PLACEMENT_3D ( 'NONE', #906, #814, #377 ) ;
#964 = AXIS2_PLACEMENT_3D ( 'NONE', #646, #19, #13 ) ;
#965 = LINE ( 'NONE', #617, #611 ) ;
#966 = EDGE_CURVE ( 'NONE', #134, #1117, #693, .T. ) ;
#967 = ORIENTED_EDGE ( 'NONE', *, *, #653, .F. ) ;
#968 = DIRECTION ( 'NONE',  ( -0.3635535469751643989, 0.9315733027957471268, -0.000000000000000000 ) ) ;
#969 = CARTESIAN_POINT ( 'NONE',  ( 4.891723926828065672, 5.829729563776385959, -82.00000000000000000 ) ) ;
#970 = VERTEX_POINT ( 'NONE', #1061 ) ;
#971 = DIRECTION ( 'NONE',  ( 0.000000000000000000, 0.000000000000000000, 1.000000000000000000 ) ) ;
#972 = EDGE_CURVE ( 'NONE', #146, #392, #243, .T. ) ;
#973 = PLANE ( 'NONE',  #24 ) ;
#974 = ORIENTED_EDGE ( 'NONE', *, *, #647, .F. ) ;
#975 = LINE ( 'NONE', #886, #549 ) ;
#976 = ADVANCED_FACE ( 'NONE', ( #604 ), #973, .F. ) ;
#977 = AXIS2_PLACEMENT_3D ( 'NONE', #1084, #623, #439 ) ;
#978 = ORIENTED_EDGE ( 'NONE', *, *, #157, .F. ) ;
#979 = VECTOR ( 'NONE', #1090, 1000.000000000000000 ) ;
#980 = DIRECTION ( 'NONE',  ( -0.7660444431189771253, 0.6427876096865403621, 0.000000000000000000 ) ) ;
#981 = ORIENTED_EDGE ( 'NONE', *, *, #1111, .T. ) ;
#982 =( NAMED_UNIT ( * ) SI_UNIT ( $, .STERADIAN. ) SOLID_ANGLE_UNIT ( ) );
#983 = FACE_OUTER_BOUND ( 'NONE', #798, .T. ) ;
#984 = ORIENTED_EDGE ( 'NONE', *, *, #491, .T. ) ;
#985 = EDGE_CURVE ( 'NONE', #911, #510, #965, .T. ) ;
#986 = VERTEX_POINT ( 'NONE', #346 ) ;
#987 = CARTESIAN_POINT ( 'NONE',  ( -6.475634248854541752, 2.840098779102923743, -82.00000000000000000 ) ) ;
#988 = ORIENTED_EDGE ( 'NONE', *, *, #882, .T. ) ;
#989 = EDGE_CURVE ( 'NONE', #932, #598, #884, .T. ) ;
#990 = ORIENTED_EDGE ( 'NONE', *, *, #1097, .F. ) ;
#991 = AXIS2_PLACEMENT_3D ( 'NONE', #6, #557, #929 ) ;
#992 = DIRECTION ( 'NONE',  ( -0.000000000000000000, -0.000000000000000000, 1.000000000000000000 ) ) ;
#993 = PLANE ( 'NONE',  #273 ) ;
#994 = PLANE ( 'NONE',  #609 ) ;
#995 = EDGE_LOOP ( 'NONE', ( #444, #269, #773, #1164 ) ) ;
#996 = CIRCLE ( 'NONE', #480, 5.000000000000000000 ) ;
#997 = STYLED_ITEM ( 'NONE', ( #792 ), #569 ) ;
#998 = VECTOR ( 'NONE', #375, 1000.000000000000114 ) ;
#999 = EDGE_LOOP ( 'NONE', ( #1103, #519, #918, #14, #739, #818 ) ) ;
#1000 = DIRECTION ( 'NONE',  ( 0.000000000000000000, 0.000000000000000000, 1.000000000000000000 ) ) ;
#1001 = PLANE ( 'NONE',  #330 ) ;
#1002 = ORIENTED_EDGE ( 'NONE', *, *, #1155, .F. ) ;
#1003 = ORIENTED_EDGE ( 'NONE', *, *, #1062, .T. ) ;
#1004 = DIRECTION ( 'NONE',  ( 0.9315733027957473489, 0.3635535469751641768, -0.000000000000000000 ) ) ;
#1005 = DIRECTION ( 'NONE',  ( 0.000000000000000000, -1.000000000000000000, 0.000000000000000000 ) ) ;
#1006 = ORIENTED_EDGE ( 'NONE', *, *, #916, .T. ) ;
#1007 = EDGE_CURVE ( 'NONE', #551, #635, #423, .T. ) ;
#1008 = DIRECTION ( 'NONE',  ( 0.6427876096865404731, 0.7660444431189770143, 0.000000000000000000 ) ) ;
#1009 = ORIENTED_EDGE ( 'NONE', *, *, #583, .F. ) ;
#1010 = CARTESIAN_POINT ( 'NONE',  ( -44.03379031096121565, -24.69869046832841164, -79.00000000000000000 ) ) ;
#1011 = VECTOR ( 'NONE', #133, 1000.000000000000000 ) ;
#1012 = DIRECTION ( 'NONE',  ( 0.9597141645441052971, 0.2809781528400561723, 0.000000000000000000 ) ) ;
#1013 = EDGE_LOOP ( 'NONE', ( #1095, #851, #505, #654 ) ) ;
#1014 = LINE ( 'NONE', #206, #1039 ) ;
#1015 = ORIENTED_EDGE ( 'NONE', *, *, #527, .F. ) ;
#1016 = VECTOR ( 'NONE', #138, 1000.000000000000114 ) ;
#1017 = DIRECTION ( 'NONE',  ( -1.000000000000000000, 0.000000000000000000, 0.000000000000000000 ) ) ;
#1018 = VECTOR ( 'NONE', #710, 1000.000000000000114 ) ;
#1019 = CARTESIAN_POINT ( 'NONE',  ( -46.57866513978738254, -18.17767734875818775, 0.000000000000000000 ) ) ;
#1020 = ORIENTED_EDGE ( 'NONE', *, *, #621, .T. ) ;
#1021 = CARTESIAN_POINT ( 'NONE',  ( 13.56466712424536070, 0.9999028994941735471, -66.00000000000000000 ) ) ;
#1022 = ORIENTED_EDGE ( 'NONE', *, *, #324, .T. ) ;
#1023 = EDGE_CURVE ( 'NONE', #86, #1147, #794, .T. ) ;
#1024 = DIRECTION ( 'NONE',  ( -1.000000000000000000, 0.000000000000000000, -0.000000000000000000 ) ) ;
#1025 = CARTESIAN_POINT ( 'NONE',  ( 2.544874828826149127, -6.521013119570203465, -79.00000000000000000 ) ) ;
#1026 = ORIENTED_EDGE ( 'NONE', *, *, #1023, .F. ) ;
#1027 = DIRECTION ( 'NONE',  ( 0.000000000000000000, 0.000000000000000000, -1.000000000000000000 ) ) ;
#1028 = ORIENTED_EDGE ( 'NONE', *, *, #660, .T. ) ;
#1029 = LINE ( 'NONE', #113, #576 ) ;
#1030 = EDGE_CURVE ( 'NONE', #1092, #551, #340, .T. ) ;
#1031 = DIRECTION ( 'NONE',  ( 0.3635535469751643989, -0.9315733027957471268, 0.000000000000000000 ) ) ;
#1032 = DIRECTION ( 'NONE',  ( -0.000000000000000000, -0.000000000000000000, -1.000000000000000000 ) ) ;
#1033 = LINE ( 'NONE', #140, #1056 ) ;
#1034 = FACE_OUTER_BOUND ( 'NONE', #816, .T. ) ;
#1035 = SHAPE_DEFINITION_REPRESENTATION ( #716, #1144 ) ;
#1036 = ORIENTED_EDGE ( 'NONE', *, *, #244, .T. ) ;
#1037 = CARTESIAN_POINT ( 'NONE',  ( 17.26944477322308913, 21.91223692827093572, -86.00000000000000000 ) ) ;
#1038 = FACE_OUTER_BOUND ( 'NONE', #952, .T. ) ;
#1039 = VECTOR ( 'NONE', #213, 1000.000000000000114 ) ;
#1040 = CARTESIAN_POINT ( 'NONE',  ( -41.45501197441068086, -16.17813284039475619, 0.000000000000000000 ) ) ;
#1041 = ADVANCED_FACE ( 'NONE', ( #431 ), #257, .F. ) ;
#1042 = CARTESIAN_POINT ( 'NONE',  ( 0.000000000000000000, 0.000000000000000000, 4.000000000000000000 ) ) ;
#1043 = DIRECTION ( 'NONE',  ( 0.000000000000000000, 0.000000000000000000, 1.000000000000000000 ) ) ;
#1044 = ORIENTED_EDGE ( 'NONE', *, *, #966, .F. ) ;
#1045 = CARTESIAN_POINT ( 'NONE',  ( -42.94312967003572368, -27.49341037671565857, 4.000000000000000000 ) ) ;
#1046 = LINE ( 'NONE', #226, #534 ) ;
#1047 = CARTESIAN_POINT ( 'NONE',  ( -48.39643287466319777, -13.51981083477945056, 0.000000000000000000 ) ) ;
#1048 = ADVANCED_FACE ( 'NONE', ( #454 ), #822, .F. ) ;
#1049 = ORIENTED_EDGE ( 'NONE', *, *, #602, .F. ) ;
#1050 = FACE_OUTER_BOUND ( 'NONE', #925, .T. ) ;
#1051 = ORIENTED_EDGE ( 'NONE', *, *, #1111, .F. ) ;
#1052 = CARTESIAN_POINT ( 'NONE',  ( 12.65578325680745131, 3.328836156483542030, -16.00000000000000000 ) ) ;
#1053 = CARTESIAN_POINT ( 'NONE',  ( 4.891723926828065672, 5.829729563776385959, -86.00000000000000000 ) ) ;
#1054 = ORIENTED_EDGE ( 'NONE', *, *, #149, .F. ) ;
#1055 = VERTEX_POINT ( 'NONE', #915 ) ;
#1056 = VECTOR ( 'NONE', #781, 1000.000000000000000 ) ;
#1057 = AXIS2_PLACEMENT_3D ( 'NONE', #429, #1065, #714 ) ;
#1058 = PLANE ( 'NONE',  #1170 ) ;
#1059 = VECTOR ( 'NONE', #232, 1000.000000000000000 ) ;
#1060 = AXIS2_PLACEMENT_3D ( 'NONE', #326, #980, #697 ) ;
#1061 = CARTESIAN_POINT ( 'NONE',  ( -45.12445095188670763, -21.90397055994116826, -79.00000000000000000 ) ) ;
#1062 = EDGE_CURVE ( 'NONE', #315, #300, #463, .T. ) ;
#1063 = ORIENTED_EDGE ( 'NONE', *, *, #448, .T. ) ;
#1064 = FILL_AREA_STYLE ('',( #1080 ) ) ;
#1065 = DIRECTION ( 'NONE',  ( -0.7660444431189771253, 0.6427876096865403621, 0.000000000000000000 ) ) ;
#1066 = UNCERTAINTY_MEASURE_WITH_UNIT (LENGTH_MEASURE( 1.000000000000000082E-05 ), #1167, 'distance_accuracy_value', 'NONE');
#1067 = EDGE_LOOP ( 'NONE', ( #403, #784, #525, #733 ) ) ;
#1068 = LINE ( 'NONE', #419, #116 ) ;
#1069 = EDGE_CURVE ( 'NONE', #510, #606, #631, .T. ) ;
#1070 = PLANE ( 'NONE',  #672 ) ;
#1071 = CARTESIAN_POINT ( 'NONE',  ( -45.12445095188670763, -21.90397055994116826, -3.000000000000002665 ) ) ;
#1072 = ORIENTED_EDGE ( 'NONE', *, *, #825, .F. ) ;
#1073 = CARTESIAN_POINT ( 'NONE',  ( 13.56466712424536070, 0.9999028994941735471, -66.00000000000000000 ) ) ;
#1074 = VECTOR ( 'NONE', #11, 1000.000000000000000 ) ;
#1075 = ORIENTED_EDGE ( 'NONE', *, *, #1162, .F. ) ;
#1076 = ADVANCED_FACE ( 'NONE', ( #1034 ), #1104, .F. ) ;
#1077 = CARTESIAN_POINT ( 'NONE',  ( -1.422326450776768114, 6.083556476747067343, -82.00000000000000000 ) ) ;
#1078 = VECTOR ( 'NONE', #1027, 1000.000000000000000 ) ;
#1079 = EDGE_LOOP ( 'NONE', ( #327, #217, #1132, #188, #1006, #1140, #805, #639 ) ) ;
#1080 = FILL_AREA_STYLE_COLOUR ( '', #880 ) ;
#1081 = ORIENTED_EDGE ( 'NONE', *, *, #434, .T. ) ;
#1082 = EDGE_CURVE ( 'NONE', #75, #248, #758, .T. ) ;
#1083 = ORIENTED_EDGE ( 'NONE', *, *, #882, .F. ) ;
#1084 = CARTESIAN_POINT ( 'NONE',  ( 11.08058435002557651, 21.91223692827093572, 0.000000000000000000 ) ) ;
#1085 = CARTESIAN_POINT ( 'NONE',  ( 13.03684393775633410, 2.352402395705526672, -16.00000000000000000 ) ) ;
#1086 = DIRECTION ( 'NONE',  ( 0.000000000000000000, 0.000000000000000000, -1.000000000000000000 ) ) ;
#1087 = ORIENTED_EDGE ( 'NONE', *, *, #571, .F. ) ;
#1088 = EDGE_CURVE ( 'NONE', #258, #1117, #306, .T. ) ;
#1089 = ORIENTED_EDGE ( 'NONE', *, *, #515, .F. ) ;
#1090 = DIRECTION ( 'NONE',  ( -0.000000000000000000, -0.000000000000000000, 1.000000000000000000 ) ) ;
#1091 = LINE ( 'NONE', #10, #1189 ) ;
#1092 = VERTEX_POINT ( 'NONE', #575 ) ;
#1093 = VECTOR ( 'NONE', #1032, 1000.000000000000000 ) ;
#1094 = AXIS2_PLACEMENT_3D ( 'NONE', #524, #427, #600 ) ;
#1095 = ORIENTED_EDGE ( 'NONE', *, *, #292, .T. ) ;
#1096 = FACE_OUTER_BOUND ( 'NONE', #112, .T. ) ;
#1097 = EDGE_CURVE ( 'NONE', #893, #344, #299, .T. ) ;
#1098 = LINE ( 'NONE', #735, #389 ) ;
#1099 = ORIENTED_EDGE ( 'NONE', *, *, #692, .F. ) ;
#1100 = ORIENTED_EDGE ( 'NONE', *, *, #903, .T. ) ;
#1101 = LINE ( 'NONE', #457, #847 ) ;
#1102 = CARTESIAN_POINT ( 'NONE',  ( -45.12445095188670763, -21.90397055994116826, -82.00000000000000000 ) ) ;
#1103 = ORIENTED_EDGE ( 'NONE', *, *, #301, .F. ) ;
#1104 = CYLINDRICAL_SURFACE ( 'NONE', #881, 5.000000000000000000 ) ;
#1105 = VERTEX_POINT ( 'NONE', #484 ) ;
#1106 = FACE_OUTER_BOUND ( 'NONE', #52, .T. ) ;
#1107 = LINE ( 'NONE', #913, #572 ) ;
#1108 = DIRECTION ( 'NONE',  ( -0.9157929779697813188, 0.4016506211886640698, -0.000000000000000000 ) ) ;
#1109 = ORIENTED_EDGE ( 'NONE', *, *, #493, .T. ) ;
#1110 = CARTESIAN_POINT ( 'NONE',  ( 9.899185427912888358, -6.871296124853518705, -82.00000000000000000 ) ) ;
#1111 = EDGE_CURVE ( 'NONE', #1117, #986, #1014, .T. ) ;
#1112 = AXIS2_PLACEMENT_3D ( 'NONE', #511, #526, #892 ) ;
#1113 = EDGE_LOOP ( 'NONE', ( #229, #166, #813, #142 ) ) ;
#1114 = AXIS2_PLACEMENT_3D ( 'NONE', #295, #947, #655 ) ;
#1115 = LINE ( 'NONE', #297, #1152 ) ;
#1116 = CARTESIAN_POINT ( 'NONE',  ( -47.73155393216798359, -15.79078362170282368, 0.000000000000000000 ) ) ;
#1117 = VERTEX_POINT ( 'NONE', #945 ) ;
#1118 = CARTESIAN_POINT ( 'NONE',  ( -1.817767734875818775, 4.657866513978737188, -82.00000000000000000 ) ) ;
#1119 = ADVANCED_FACE ( 'NONE', ( #738 ), #765, .F. ) ;
#1120 = ORIENTED_EDGE ( 'NONE', *, *, #989, .F. ) ;
#1121 = LINE ( 'NONE', #1127, #1137 ) ;
#1122 = CARTESIAN_POINT ( 'NONE',  ( 0.5453303204627365508, -1.397359954193595044, -16.00000000000000000 ) ) ;
#1123 = CARTESIAN_POINT ( 'NONE',  ( 4.891723926828065672, 5.829729563776385959, 0.000000000000000000 ) ) ;
#1124 = LINE ( 'NONE', #678, #503 ) ;
#1125 = CARTESIAN_POINT ( 'NONE',  ( -1.422326450776768114, 6.083556476747067343, -86.00000000000000000 ) ) ;
#1126 = ORIENTED_EDGE ( 'NONE', *, *, #1128, .F. ) ;
#1127 = CARTESIAN_POINT ( 'NONE',  ( 0.000000000000000000, 0.000000000000000000, 0.000000000000000000 ) ) ;
#1128 = EDGE_CURVE ( 'NONE', #92, #156, #396, .T. ) ;
#1129 = LINE ( 'NONE', #1122, #1016 ) ;
#1130 = DIRECTION ( 'NONE',  ( 0.9315733027957472379, 0.3635535469751644544, -0.000000000000000000 ) ) ;
#1131 = DIRECTION ( 'NONE',  ( 0.6427876096865404731, 0.7660444431189770143, 0.000000000000000000 ) ) ;
#1132 = ORIENTED_EDGE ( 'NONE', *, *, #910, .F. ) ;
#1133 = VECTOR ( 'NONE', #902, 1000.000000000000114 ) ;
#1134 = DIRECTION ( 'NONE',  ( -0.000000000000000000, 0.000000000000000000, 1.000000000000000000 ) ) ;
#1135 = AXIS2_PLACEMENT_3D ( 'NONE', #1025, #934, #47 ) ;
#1136 = DIRECTION ( 'NONE',  ( -0.000000000000000000, -0.000000000000000000, -1.000000000000000000 ) ) ;
#1137 = VECTOR ( 'NONE', #125, 1000.000000000000114 ) ;
#1138 = EDGE_CURVE ( 'NONE', #392, #791, #490, .T. ) ;
#1139 = LINE ( 'NONE', #592, #233 ) ;
#1140 = ORIENTED_EDGE ( 'NONE', *, *, #1030, .T. ) ;
#1141 = DIRECTION ( 'NONE',  ( 0.6427876096865403621, 0.7660444431189770143, 0.000000000000000000 ) ) ;
#1142 = CARTESIAN_POINT ( 'NONE',  ( 17.26944477322308913, 21.91223692827093572, -82.00000000000000000 ) ) ;
#1143 = DIRECTION ( 'NONE',  ( -0.9315733027957474599, -0.3635535469751636772, 0.000000000000000000 ) ) ;
#1144 = ADVANCED_BREP_SHAPE_REPRESENTATION ( 'ELP-0035', ( #569, #100 ), #922 ) ;
#1145 = ORIENTED_EDGE ( 'NONE', *, *, #684, .F. ) ;
#1146 = LINE ( 'NONE', #969, #536 ) ;
#1147 = VERTEX_POINT ( 'NONE', #7 ) ;
#1148 = LINE ( 'NONE', #212, #806 ) ;
#1149 = ADVANCED_FACE ( 'NONE', ( #469 ), #36, .F. ) ;
#1150 = ORIENTED_EDGE ( 'NONE', *, *, #638, .T. ) ;
#1151 = AXIS2_PLACEMENT_3D ( 'NONE', #94, #921, #108 ) ;
#1152 = VECTOR ( 'NONE', #657, 1000.000000000000000 ) ;
#1153 = CARTESIAN_POINT ( 'NONE',  ( 11.08058435002557651, 21.91223692827093572, 4.000000000000000000 ) ) ;
#1154 = AXIS2_PLACEMENT_3D ( 'NONE', #208, #383, #45 ) ;
#1155 = EDGE_CURVE ( 'NONE', #956, #1188, #402, .T. ) ;
#1156 = VERTEX_POINT ( 'NONE', #674 ) ;
#1157 = PLANE ( 'NONE',  #593 ) ;
#1158 = CARTESIAN_POINT ( 'NONE',  ( 17.26944477322308913, 1.912236928270936609, 0.000000000000000000 ) ) ;
#1159 = APPLICATION_CONTEXT ( 'automotive_design' ) ;
#1160 = ORIENTED_EDGE ( 'NONE', *, *, #143, .F. ) ;
#1161 = CARTESIAN_POINT ( 'NONE',  ( 9.899185427912888358, -6.871296124853518705, 4.000000000000000000 ) ) ;
#1162 = EDGE_CURVE ( 'NONE', #823, #911, #675, .T. ) ;
#1163 = DIRECTION ( 'NONE',  ( 0.3635535469751641213, -0.9315733027957473489, 0.000000000000000000 ) ) ;
#1164 = ORIENTED_EDGE ( 'NONE', *, *, #405, .T. ) ;
#1165 = CARTESIAN_POINT ( 'NONE',  ( 9.899185427912888358, -6.871296124853518705, -86.00000000000000000 ) ) ;
#1166 = EDGE_LOOP ( 'NONE', ( #347, #224, #445, #1089, #151, #877, #984, #82, #245, #235 ) ) ;
#1167 =( LENGTH_UNIT ( ) NAMED_UNIT ( * ) SI_UNIT ( .MILLI., .METRE. ) );
#1168 = DIRECTION ( 'NONE',  ( -0.4016506211886640698, -0.9157929779697813188, -0.000000000000000000 ) ) ;
#1169 = EDGE_CURVE ( 'NONE', #95, #890, #836, .T. ) ;
#1170 = AXIS2_PLACEMENT_3D ( 'NONE', #61, #435, #1163 ) ;
#1171 = AXIS2_PLACEMENT_3D ( 'NONE', #775, #682, #384 ) ;
#1172 = ORIENTED_EDGE ( 'NONE', *, *, #777, .F. ) ;
#1173 = VECTOR ( 'NONE', #276, 1000.000000000000000 ) ;
#1174 = ORIENTED_EDGE ( 'NONE', *, *, #574, .F. ) ;
#1175 = CARTESIAN_POINT ( 'NONE',  ( 0.6361362788993353279, -1.630042064760636844, -82.00000000000000000 ) ) ;
#1176 = CARTESIAN_POINT ( 'NONE',  ( 3.543608572883817143, -0.7906029029144039377, -66.00000000000000000 ) ) ;
#1177 = CYLINDRICAL_SURFACE ( 'NONE', #96, 5.000000000000000000 ) ;
#1178 = EDGE_LOOP ( 'NONE', ( #723, #498, #364, #184 ) ) ;
#1179 = ORIENTED_EDGE ( 'NONE', *, *, #329, .F. ) ;
#1180 = CARTESIAN_POINT ( 'NONE',  ( 9.899185427912888358, -6.871296124853518705, 4.000000000000000000 ) ) ;
#1181 = LINE ( 'NONE', #555, #627 ) ;
#1182 = ORIENTED_EDGE ( 'NONE', *, *, #246, .T. ) ;
#1183 = ADVANCED_FACE ( 'NONE', ( #128 ), #830, .F. ) ;
#1184 = EDGE_LOOP ( 'NONE', ( #588, #676, #861, #8 ) ) ;
#1185 = CIRCLE ( 'NONE', #148, 5.000000000000000000 ) ;
#1186 = LINE ( 'NONE', #1085, #367 ) ;
#1187 = DIRECTION ( 'NONE',  ( 0.2809781528400492334, -0.9597141645441074065, -0.000000000000000000 ) ) ;
#1188 = VERTEX_POINT ( 'NONE', #1110 ) ;
#1189 = VECTOR ( 'NONE', #378, 1000.000000000000000 ) ;
ENDSEC;
END-ISO-10303-21;
