ISO-10303-21;
HEADER;
FILE_DESCRIPTION (( 'STEP AP214' ),
    '1' );
FILE_NAME ('ARP-0092.STEP',
    '2026-09-03T08:53:22',
    ( '' ),
    ( '' ),
    'SwSTEP 2.0',
    'SolidWorks 2024',
    '' );
FILE_SCHEMA (( 'AUTOMOTIVE_DESIGN' ));
ENDSEC;

DATA;
#1 = DIRECTION ( 'NONE',  ( 0.000000000000000000, 0.000000000000000000, -1.000000000000000000 ) ) ;
#2 = VERTEX_POINT ( 'NONE', #145 ) ;
#3 = CARTESIAN_POINT ( 'NONE',  ( -3.021167631395877343E-17, 2.294282644722034359, 0.000000000000000000 ) ) ;
#4 = FACE_OUTER_BOUND ( 'NONE', #278, .T. ) ;
#5 = EDGE_CURVE ( 'NONE', #216, #41, #254, .T. ) ;
#6 = DIRECTION ( 'NONE',  ( -1.316824515212208822E-17, 1.000000000000000000, -0.000000000000000000 ) ) ;
#7 = PRODUCT_DEFINITION_SHAPE ( 'NONE', 'NONE',  #13 ) ;
#8 = CARTESIAN_POINT ( 'NONE',  ( -17.50000000000000000, 9.300000000000000711, 0.000000000000000000 ) ) ;
#9 = CARTESIAN_POINT ( 'NONE',  ( 6.123233995736760366E-16, 3.851859888774471706E-31, 4.999999999999993783 ) ) ;
#10 = AXIS2_PLACEMENT_3D ( 'NONE', #201, #311, #126 ) ;
#11 = DIRECTION ( 'NONE',  ( -0.6277524511897815129, 0.7784130394753295823, 0.000000000000000000 ) ) ;
#12 = CARTESIAN_POINT ( 'NONE',  ( 0.000000000000000000, 0.000000000000000000, 0.000000000000000000 ) ) ;
#13 = PRODUCT_DEFINITION ( 'NON CONOSCIUTO', '', #223, #69 ) ;
#14 = CARTESIAN_POINT ( 'NONE',  ( -9.000000000000000000, -6.103481628008583194E-16, 0.000000000000000000 ) ) ;
#15 = VECTOR ( 'NONE', #11, 1000.000000000000000 ) ;
#16 = ORIENTED_EDGE ( 'NONE', *, *, #72, .T. ) ;
#17 = FACE_BOUND ( 'NONE', #306, .T. ) ;
#18 = CARTESIAN_POINT ( 'NONE',  ( 11.85022793929196894, 2.294282644722034359, 1.451234371502044331E-15 ) ) ;
#19 = ADVANCED_FACE ( 'NONE', ( #4 ), #30, .F. ) ;
#20 = EDGE_LOOP ( 'NONE', ( #273, #120 ) ) ;
#21 = CARTESIAN_POINT ( 'NONE',  ( 0.000000000000000000, 0.000000000000000000, 0.000000000000000000 ) ) ;
#22 = CLOSED_SHELL ( 'NONE', ( #138, #246, #57, #302, #179, #164, #203, #231, #225, #200, #19 ) ) ;
#23 = VERTEX_POINT ( 'NONE', #177 ) ;
#24 = CARTESIAN_POINT ( 'NONE',  ( 0.000000000000000000, 4.500000000000000888, 0.000000000000000000 ) ) ;
#25 = EDGE_LOOP ( 'NONE', ( #97, #135 ) ) ;
#26 = ORIENTED_EDGE ( 'NONE', *, *, #127, .T. ) ;
#27 = AXIS2_PLACEMENT_3D ( 'NONE', #303, #40, #134 ) ;
#28 = CARTESIAN_POINT ( 'NONE',  ( 17.50000000000000000, 9.300000000000000711, 2.143131898507868248E-15 ) ) ;
#29 = EDGE_CURVE ( 'NONE', #23, #46, #269, .T. ) ;
#30 = CYLINDRICAL_SURFACE ( 'NONE', #10, 4.999999999999996447 ) ;
#31 = ORIENTED_EDGE ( 'NONE', *, *, #261, .F. ) ;
#32 = FACE_OUTER_BOUND ( 'NONE', #248, .T. ) ;
#33 = EDGE_CURVE ( 'NONE', #79, #144, #265, .T. ) ;
#34 = LINE ( 'NONE', #59, #140 ) ;
#35 = DIRECTION ( 'NONE',  ( 0.000000000000000000, 0.000000000000000000, -1.000000000000000000 ) ) ;
#36 = CARTESIAN_POINT ( 'NONE',  ( 6.123233995736765296E-16, 4.500000000000000888, 4.999999999999999112 ) ) ;
#37 = AXIS2_PLACEMENT_3D ( 'NONE', #131, #6, #80 ) ;
#38 = DIRECTION ( 'NONE',  ( -0.000000000000000000, -1.000000000000000000, -0.000000000000000000 ) ) ;
#39 =( LENGTH_UNIT ( ) NAMED_UNIT ( * ) SI_UNIT ( .MILLI., .METRE. ) );
#40 = DIRECTION ( 'NONE',  ( -1.316824515212208822E-17, 1.000000000000000000, -0.000000000000000000 ) ) ;
#41 = VERTEX_POINT ( 'NONE', #102 ) ;
#42 = DIRECTION ( 'NONE',  ( 1.316824515212208822E-17, -1.000000000000000000, 0.000000000000000000 ) ) ;
#43 = DIRECTION ( 'NONE',  ( -1.000000000000000000, 0.000000000000000000, 0.000000000000000000 ) ) ;
#44 = EDGE_CURVE ( 'NONE', #141, #41, #153, .T. ) ;
#45 = COLOUR_RGB ( '',0.7921568627450980005, 0.8196078431372548767, 0.9333333333333333481 ) ;
#46 = VERTEX_POINT ( 'NONE', #36 ) ;
#47 = ORIENTED_EDGE ( 'NONE', *, *, #256, .F. ) ;
#48 = APPLICATION_PROTOCOL_DEFINITION ( 'draft international standard', 'automotive_design', 1998, #244 ) ;
#49 = ORIENTED_EDGE ( 'NONE', *, *, #236, .T. ) ;
#50 = EDGE_LOOP ( 'NONE', ( #220, #166, #199, #189 ) ) ;
#51 = AXIS2_PLACEMENT_3D ( 'NONE', #14, #42, #156 ) ;
#52 = AXIS2_PLACEMENT_3D ( 'NONE', #24, #310, #280 ) ;
#53 = DIRECTION ( 'NONE',  ( 0.000000000000000000, 0.000000000000000000, 1.000000000000000000 ) ) ;
#54 = ORIENTED_EDGE ( 'NONE', *, *, #33, .F. ) ;
#55 = ORIENTED_EDGE ( 'NONE', *, *, #61, .T. ) ;
#56 = DIRECTION ( 'NONE',  ( -1.316824515212208822E-17, 1.000000000000000000, -0.000000000000000000 ) ) ;
#57 = ADVANCED_FACE ( 'NONE', ( #294 ), #73, .T. ) ;
#58 = CARTESIAN_POINT ( 'NONE',  ( 0.000000000000000000, 4.500000000000000888, 0.000000000000000000 ) ) ;
#59 = CARTESIAN_POINT ( 'NONE',  ( 6.123233995736762338E-16, 0.000000000000000000, 4.999999999999996447 ) ) ;
#60 = DIRECTION ( 'NONE',  ( -0.000000000000000000, -1.000000000000000000, -0.000000000000000000 ) ) ;
#61 = EDGE_CURVE ( 'NONE', #309, #79, #62, .T. ) ;
#62 = CIRCLE ( 'NONE', #37, 2.249999999999996891 ) ;
#63 = DIRECTION ( 'NONE',  ( -0.000000000000000000, -1.000000000000000000, -0.000000000000000000 ) ) ;
#64 = AXIS2_PLACEMENT_3D ( 'NONE', #214, #139, #321 ) ;
#65 = PLANE ( 'NONE',  #107 ) ;
#66 = PLANE ( 'NONE',  #51 ) ;
#67 = ORIENTED_EDGE ( 'NONE', *, *, #186, .T. ) ;
#68 = DIRECTION ( 'NONE',  ( -1.316824515212208822E-17, 1.000000000000000000, -0.000000000000000000 ) ) ;
#69 = PRODUCT_DEFINITION_CONTEXT ( 'detailed design', #289, 'design' ) ;
#70 = CARTESIAN_POINT ( 'NONE',  ( -3.021167631395877343E-17, 2.294282644722034359, 0.000000000000000000 ) ) ;
#71 = VERTEX_POINT ( 'NONE', #9 ) ;
#72 = EDGE_CURVE ( 'NONE', #79, #309, #222, .T. ) ;
#73 = CONICAL_SURFACE ( 'NONE', #173, 17.50000000000000000, 0.6786624907483123081 ) ;
#74 = EDGE_LOOP ( 'NONE', ( #75, #55, #329, #49 ) ) ;
#75 = ORIENTED_EDGE ( 'NONE', *, *, #143, .F. ) ;
#76 = DIRECTION ( 'NONE',  ( -1.316824515212208822E-17, 1.000000000000000000, -0.000000000000000000 ) ) ;
#77 = CIRCLE ( 'NONE', #98, 4.999999999999993783 ) ;
#78 =( NAMED_UNIT ( * ) SI_UNIT ( $, .STERADIAN. ) SOLID_ANGLE_UNIT ( ) );
#79 = VERTEX_POINT ( 'NONE', #312 ) ;
#80 = DIRECTION ( 'NONE',  ( -1.000000000000000000, 0.000000000000000000, 0.000000000000000000 ) ) ;
#81 = DIRECTION ( 'NONE',  ( -1.000000000000000000, 0.000000000000000000, 0.000000000000000000 ) ) ;
#82 = CIRCLE ( 'NONE', #161, 9.000000000000000000 ) ;
#83 = DIRECTION ( 'NONE',  ( -1.000000000000000000, 0.000000000000000000, 0.000000000000000000 ) ) ;
#84 = CARTESIAN_POINT ( 'NONE',  ( 2.755455298081542313E-16, 4.500000000000000888, 2.249999999999997780 ) ) ;
#85 = CARTESIAN_POINT ( 'NONE',  ( 2.755455298081540833E-16, 0.000000000000000000, 2.249999999999996891 ) ) ;
#86 = SURFACE_SIDE_STYLE ('',( #212 ) ) ;
#87 = PRESENTATION_STYLE_ASSIGNMENT (( #192 ) ) ;
#88 = EDGE_CURVE ( 'NONE', #325, #141, #146, .T. ) ;
#89 = CYLINDRICAL_SURFACE ( 'NONE', #276, 2.249999999999996891 ) ;
#90 = FILL_AREA_STYLE ('',( #272 ) ) ;
#91 = ORIENTED_EDGE ( 'NONE', *, *, #186, .F. ) ;
#92 = ORIENTED_EDGE ( 'NONE', *, *, #275, .F. ) ;
#93 = ORIENTED_EDGE ( 'NONE', *, *, #123, .T. ) ;
#94 = AXIS2_PLACEMENT_3D ( 'NONE', #205, #152, #184 ) ;
#95 = EDGE_LOOP ( 'NONE', ( #16, #224, #158, #54 ) ) ;
#96 = EDGE_LOOP ( 'NONE', ( #122, #304, #250, #172 ) ) ;
#97 = ORIENTED_EDGE ( 'NONE', *, *, #236, .F. ) ;
#98 = AXIS2_PLACEMENT_3D ( 'NONE', #237, #38, #35 ) ;
#99 = AXIS2_PLACEMENT_3D ( 'NONE', #70, #109, #43 ) ;
#100 = CARTESIAN_POINT ( 'NONE',  ( 0.000000000000000000, 3.851859888774471706E-31, 0.000000000000000000 ) ) ;
#101 = CARTESIAN_POINT ( 'NONE',  ( -1.224646799147354440E-16, 9.300000000000000711, 0.000000000000000000 ) ) ;
#102 = CARTESIAN_POINT ( 'NONE',  ( 17.50000000000000000, 9.300000000000000711, 2.143131898507868248E-15 ) ) ;
#103 = DIRECTION ( 'NONE',  ( 0.000000000000000000, 0.000000000000000000, -1.000000000000000000 ) ) ;
#104 = DIRECTION ( 'NONE',  ( -0.7789854202902849467, 0.6270420360511471669, 0.000000000000000000 ) ) ;
#105 = DIRECTION ( 'NONE',  ( -0.000000000000000000, -1.000000000000000000, -0.000000000000000000 ) ) ;
#106 = EDGE_CURVE ( 'NONE', #23, #2, #149, .T. ) ;
#107 = AXIS2_PLACEMENT_3D ( 'NONE', #270, #193, #242 ) ;
#108 = PLANE ( 'NONE',  #148 ) ;
#109 = DIRECTION ( 'NONE',  ( -1.316824515212208822E-17, 1.000000000000000000, -0.000000000000000000 ) ) ;
#110 = DIRECTION ( 'NONE',  ( 0.000000000000000000, 0.000000000000000000, -1.000000000000000000 ) ) ;
#111 = AXIS2_PLACEMENT_3D ( 'NONE', #101, #257, #316 ) ;
#112 = AXIS2_PLACEMENT_3D ( 'NONE', #100, #182, #103 ) ;
#113 = EDGE_CURVE ( 'NONE', #2, #71, #77, .T. ) ;
#114 = DIRECTION ( 'NONE',  ( 1.000000000000000000, 0.000000000000000000, 0.000000000000000000 ) ) ;
#115 = ORIENTED_EDGE ( 'NONE', *, *, #256, .T. ) ;
#116 = EDGE_CURVE ( 'NONE', #41, #141, #240, .T. ) ;
#117 = APPLICATION_PROTOCOL_DEFINITION ( 'draft international standard', 'automotive_design', 1998, #289 ) ;
#118 = VERTEX_POINT ( 'NONE', #84 ) ;
#119 = MECHANICAL_DESIGN_GEOMETRIC_PRESENTATION_REPRESENTATION (  '', ( #230 ), #258 ) ;
#120 = ORIENTED_EDGE ( 'NONE', *, *, #116, .T. ) ;
#121 = ORIENTED_EDGE ( 'NONE', *, *, #72, .F. ) ;
#122 = ORIENTED_EDGE ( 'NONE', *, *, #209, .T. ) ;
#123 = EDGE_CURVE ( 'NONE', #71, #2, #293, .T. ) ;
#124 = CONICAL_SURFACE ( 'NONE', #253, 11.85022793929196894, 0.8930461460400942464 ) ;
#125 = CARTESIAN_POINT ( 'NONE',  ( -17.50000000000000000, 9.300000000000000711, 0.000000000000000000 ) ) ;
#126 = DIRECTION ( 'NONE',  ( 0.000000000000000000, 0.000000000000000000, -1.000000000000000000 ) ) ;
#127 = EDGE_CURVE ( 'NONE', #170, #325, #292, .T. ) ;
#128 = DIRECTION ( 'NONE',  ( -0.000000000000000000, -1.000000000000000000, -0.000000000000000000 ) ) ;
#129 = VECTOR ( 'NONE', #63, 1000.000000000000000 ) ;
#130 = FACE_BOUND ( 'NONE', #221, .T. ) ;
#131 = CARTESIAN_POINT ( 'NONE',  ( 0.000000000000000000, 9.300000000000000711, 0.000000000000000000 ) ) ;
#132 = UNCERTAINTY_MEASURE_WITH_UNIT (LENGTH_MEASURE( 1.000000000000000082E-05 ), #39, 'distance_accuracy_value', 'NONE');
#133 = AXIS2_PLACEMENT_3D ( 'NONE', #262, #296, #83 ) ;
#134 = DIRECTION ( 'NONE',  ( -1.000000000000000000, 0.000000000000000000, 0.000000000000000000 ) ) ;
#135 = ORIENTED_EDGE ( 'NONE', *, *, #267, .F. ) ;
#136 =( NAMED_UNIT ( * ) PLANE_ANGLE_UNIT ( ) SI_UNIT ( $, .RADIAN. ) );
#137 = FACE_OUTER_BOUND ( 'NONE', #239, .T. ) ;
#138 = ADVANCED_FACE ( 'NONE', ( #32 ), #155, .F. ) ;
#139 = DIRECTION ( 'NONE',  ( -0.000000000000000000, -1.000000000000000000, -0.000000000000000000 ) ) ;
#140 = VECTOR ( 'NONE', #60, 1000.000000000000000 ) ;
#141 = VERTEX_POINT ( 'NONE', #125 ) ;
#142 = CARTESIAN_POINT ( 'NONE',  ( 0.000000000000000000, 4.500000000000000888, 0.000000000000000000 ) ) ;
#143 = EDGE_CURVE ( 'NONE', #309, #118, #234, .T. ) ;
#144 = VERTEX_POINT ( 'NONE', #207 ) ;
#145 = CARTESIAN_POINT ( 'NONE',  ( 0.000000000000000000, 3.851859888774471706E-31, -4.999999999999993783 ) ) ;
#146 = LINE ( 'NONE', #8, #15 ) ;
#147 = CONICAL_SURFACE ( 'NONE', #27, 17.50000000000000000, 0.6786624907483123081 ) ;
#148 = AXIS2_PLACEMENT_3D ( 'NONE', #323, #162, #274 ) ;
#149 = LINE ( 'NONE', #314, #217 ) ;
#150 = UNCERTAINTY_MEASURE_WITH_UNIT (LENGTH_MEASURE( 1.000000000000000082E-05 ), #196, 'distance_accuracy_value', 'NONE');
#151 = CARTESIAN_POINT ( 'NONE',  ( 0.000000000000000000, 0.000000000000000000, -2.249999999999996891 ) ) ;
#152 = DIRECTION ( 'NONE',  ( -1.316824515212208822E-17, 1.000000000000000000, -0.000000000000000000 ) ) ;
#153 = CIRCLE ( 'NONE', #111, 17.50000000000000000 ) ;
#154 = AXIS2_PLACEMENT_3D ( 'NONE', #171, #76, #167 ) ;
#155 = CYLINDRICAL_SURFACE ( 'NONE', #297, 4.999999999999996447 ) ;
#156 = DIRECTION ( 'NONE',  ( 1.000000000000000000, 1.316824515212208822E-17, 0.000000000000000000 ) ) ;
#157 = CARTESIAN_POINT ( 'NONE',  ( 9.000000000000000000, -1.616209269607708367E-15, 1.276708245367331023E-15 ) ) ;
#158 = ORIENTED_EDGE ( 'NONE', *, *, #267, .T. ) ;
#159 = CIRCLE ( 'NONE', #99, 11.85022793929196894 ) ;
#160 = CARTESIAN_POINT ( 'NONE',  ( 11.85022793929196894, 2.294282644722034359, 1.451234371502044331E-15 ) ) ;
#161 = AXIS2_PLACEMENT_3D ( 'NONE', #190, #300, #318 ) ;
#162 = DIRECTION ( 'NONE',  ( -1.316824515212208822E-17, 1.000000000000000000, 0.000000000000000000 ) ) ;
#163 = AXIS2_PLACEMENT_3D ( 'NONE', #284, #53, #114 ) ;
#164 = ADVANCED_FACE ( 'NONE', ( #313 ), #319, .T. ) ;
#165 = ORIENTED_EDGE ( 'NONE', *, *, #61, .F. ) ;
#166 = ORIENTED_EDGE ( 'NONE', *, *, #275, .T. ) ;
#167 = DIRECTION ( 'NONE',  ( -1.000000000000000000, 0.000000000000000000, 0.000000000000000000 ) ) ;
#168 = EDGE_LOOP ( 'NONE', ( #115, #195, #176, #305 ) ) ;
#169 = DIRECTION ( 'NONE',  ( 0.7789854202902849467, 0.6270420360511471669, 9.539820015409529862E-17 ) ) ;
#170 = VERTEX_POINT ( 'NONE', #178 ) ;
#171 = CARTESIAN_POINT ( 'NONE',  ( -3.021167631395877343E-17, 2.294282644722034359, 0.000000000000000000 ) ) ;
#172 = ORIENTED_EDGE ( 'NONE', *, *, #88, .F. ) ;
#173 = AXIS2_PLACEMENT_3D ( 'NONE', #291, #56, #259 ) ;
#174 = AXIS2_PLACEMENT_3D ( 'NONE', #21, #215, #110 ) ;
#175 = EDGE_CURVE ( 'NONE', #46, #71, #34, .T. ) ;
#176 = ORIENTED_EDGE ( 'NONE', *, *, #209, .F. ) ;
#177 = CARTESIAN_POINT ( 'NONE',  ( 0.000000000000000000, 4.500000000000000888, -4.999999999999999112 ) ) ;
#178 = CARTESIAN_POINT ( 'NONE',  ( -9.000000000000000000, -1.853237682345906019E-15, 0.000000000000000000 ) ) ;
#179 = ADVANCED_FACE ( 'NONE', ( #130, #235 ), #66, .T. ) ;
#180 = AXIS2_PLACEMENT_3D ( 'NONE', #301, #68, #266 ) ;
#181 =( GEOMETRIC_REPRESENTATION_CONTEXT ( 3 ) GLOBAL_UNCERTAINTY_ASSIGNED_CONTEXT ( ( #150 ) ) GLOBAL_UNIT_ASSIGNED_CONTEXT ( ( #196, #308, #78 ) ) REPRESENTATION_CONTEXT ( 'NONE', 'WORKASPACE' ) );
#182 = DIRECTION ( 'NONE',  ( -0.000000000000000000, -1.000000000000000000, -0.000000000000000000 ) ) ;
#183 = DIRECTION ( 'NONE',  ( -1.316824515212208822E-17, 1.000000000000000000, -0.000000000000000000 ) ) ;
#184 = DIRECTION ( 'NONE',  ( -1.000000000000000000, 0.000000000000000000, 0.000000000000000000 ) ) ;
#185 = CIRCLE ( 'NONE', #180, 9.000000000000000000 ) ;
#186 = EDGE_CURVE ( 'NONE', #213, #170, #185, .T. ) ;
#187 = FACE_OUTER_BOUND ( 'NONE', #95, .T. ) ;
#188 = MANIFOLD_SOLID_BREP ( 'Foro lamato per Vite M4 a testa cilindrica piana-1', #22 ) ;
#189 = ORIENTED_EDGE ( 'NONE', *, *, #116, .F. ) ;
#190 = CARTESIAN_POINT ( 'NONE',  ( 2.407412430484044816E-32, -1.734723475976807094E-15, 0.000000000000000000 ) ) ;
#191 = AXIS2_PLACEMENT_3D ( 'NONE', #315, #183, #81 ) ;
#192 = SURFACE_STYLE_USAGE ( .BOTH. , #86 ) ;
#193 = DIRECTION ( 'NONE',  ( 0.000000000000000000, 1.000000000000000000, 0.000000000000000000 ) ) ;
#194 = ORIENTED_EDGE ( 'NONE', *, *, #29, .T. ) ;
#195 = ORIENTED_EDGE ( 'NONE', *, *, #261, .T. ) ;
#196 =( LENGTH_UNIT ( ) NAMED_UNIT ( * ) SI_UNIT ( .MILLI., .METRE. ) );
#197 = ORIENTED_EDGE ( 'NONE', *, *, #29, .F. ) ;
#198 = CARTESIAN_POINT ( 'NONE',  ( -11.85022793929196894, 2.294282644722034359, 0.000000000000000000 ) ) ;
#199 = ORIENTED_EDGE ( 'NONE', *, *, #88, .T. ) ;
#200 = ADVANCED_FACE ( 'NONE', ( #299, #137 ), #65, .F. ) ;
#201 = CARTESIAN_POINT ( 'NONE',  ( 0.000000000000000000, 0.000000000000000000, 0.000000000000000000 ) ) ;
#202 = DIRECTION ( 'NONE',  ( 0.000000000000000000, 0.000000000000000000, -1.000000000000000000 ) ) ;
#203 = ADVANCED_FACE ( 'NONE', ( #268 ), #147, .T. ) ;
#204 = CARTESIAN_POINT ( 'NONE',  ( -11.85022793929196894, 2.294282644722034359, 0.000000000000000000 ) ) ;
#205 = CARTESIAN_POINT ( 'NONE',  ( 0.000000000000000000, 9.300000000000000711, 0.000000000000000000 ) ) ;
#206 = PRESENTATION_LAYER_ASSIGNMENT (  '', '', ( #230 ) ) ;
#207 = CARTESIAN_POINT ( 'NONE',  ( 0.000000000000000000, 4.500000000000000888, -2.249999999999997780 ) ) ;
#208 = DIRECTION ( 'NONE',  ( -0.000000000000000000, -1.000000000000000000, -0.000000000000000000 ) ) ;
#209 = EDGE_CURVE ( 'NONE', #325, #216, #159, .T. ) ;
#210 = DIRECTION ( 'NONE',  ( 0.000000000000000000, 0.000000000000000000, -1.000000000000000000 ) ) ;
#211 = VECTOR ( 'NONE', #169, 1000.000000000000114 ) ;
#212 = SURFACE_STYLE_FILL_AREA ( #90 ) ;
#213 = VERTEX_POINT ( 'NONE', #157 ) ;
#214 = CARTESIAN_POINT ( 'NONE',  ( 0.000000000000000000, 4.500000000000000888, 0.000000000000000000 ) ) ;
#215 = DIRECTION ( 'NONE',  ( -0.000000000000000000, -1.000000000000000000, -0.000000000000000000 ) ) ;
#216 = VERTEX_POINT ( 'NONE', #18 ) ;
#217 = VECTOR ( 'NONE', #208, 1000.000000000000000 ) ;
#218 = FACE_OUTER_BOUND ( 'NONE', #20, .T. ) ;
#219 = AXIS2_PLACEMENT_3D ( 'NONE', #142, #247, #1 ) ;
#220 = ORIENTED_EDGE ( 'NONE', *, *, #5, .F. ) ;
#221 = EDGE_LOOP ( 'NONE', ( #229, #283 ) ) ;
#222 = CIRCLE ( 'NONE', #94, 2.249999999999996891 ) ;
#223 = PRODUCT_DEFINITION_FORMATION_WITH_SPECIFIED_SOURCE ( 'TUTTO', '', #290, .NOT_KNOWN. ) ;
#224 = ORIENTED_EDGE ( 'NONE', *, *, #143, .T. ) ;
#225 = ADVANCED_FACE ( 'NONE', ( #322 ), #243, .F. ) ;
#226 = EDGE_LOOP ( 'NONE', ( #31, #67, #26, #92 ) ) ;
#227 = FACE_OUTER_BOUND ( 'NONE', #168, .T. ) ;
#228 = ORIENTED_EDGE ( 'NONE', *, *, #106, .T. ) ;
#229 = ORIENTED_EDGE ( 'NONE', *, *, #113, .F. ) ;
#230 = STYLED_ITEM ( 'NONE', ( #87 ), #188 ) ;
#231 = ADVANCED_FACE ( 'NONE', ( #17, #218 ), #108, .T. ) ;
#232 = DIRECTION ( 'NONE',  ( -0.000000000000000000, -1.000000000000000000, -0.000000000000000000 ) ) ;
#233 = DIRECTION ( 'NONE',  ( 0.000000000000000000, 0.000000000000000000, -1.000000000000000000 ) ) ;
#234 = LINE ( 'NONE', #85, #252 ) ;
#235 = FACE_OUTER_BOUND ( 'NONE', #281, .T. ) ;
#236 = EDGE_CURVE ( 'NONE', #144, #118, #264, .T. ) ;
#237 = CARTESIAN_POINT ( 'NONE',  ( 0.000000000000000000, 3.851859888774471706E-31, 0.000000000000000000 ) ) ;
#238 =( NAMED_UNIT ( * ) SI_UNIT ( $, .STERADIAN. ) SOLID_ANGLE_UNIT ( ) );
#239 = EDGE_LOOP ( 'NONE', ( #194, #279 ) ) ;
#240 = CIRCLE ( 'NONE', #133, 17.50000000000000000 ) ;
#241 = ORIENTED_EDGE ( 'NONE', *, *, #113, .T. ) ;
#242 = DIRECTION ( 'NONE',  ( 0.000000000000000000, -0.000000000000000000, 1.000000000000000000 ) ) ;
#243 = CYLINDRICAL_SURFACE ( 'NONE', #174, 2.249999999999996891 ) ;
#244 = APPLICATION_CONTEXT ( 'automotive_design' ) ;
#245 = CIRCLE ( 'NONE', #219, 4.999999999999999112 ) ;
#246 = ADVANCED_FACE ( 'NONE', ( #187 ), #89, .F. ) ;
#247 = DIRECTION ( 'NONE',  ( -0.000000000000000000, -1.000000000000000000, -0.000000000000000000 ) ) ;
#248 = EDGE_LOOP ( 'NONE', ( #324, #307, #93, #327 ) ) ;
#249 = PRODUCT_CONTEXT ( 'NONE', #244, 'mechanical' ) ;
#250 = ORIENTED_EDGE ( 'NONE', *, *, #44, .F. ) ;
#251 = SHAPE_DEFINITION_REPRESENTATION ( #7, #271 ) ;
#252 = VECTOR ( 'NONE', #232, 1000.000000000000000 ) ;
#253 = AXIS2_PLACEMENT_3D ( 'NONE', #3, #277, #282 ) ;
#254 = LINE ( 'NONE', #28, #285 ) ;
#255 = DIRECTION ( 'NONE',  ( 0.6277524511897815129, 0.7784130394753295823, 7.687750300064709501E-17 ) ) ;
#256 = EDGE_CURVE ( 'NONE', #170, #213, #82, .T. ) ;
#257 = DIRECTION ( 'NONE',  ( -1.316824515212208822E-17, 1.000000000000000000, -0.000000000000000000 ) ) ;
#258 =( GEOMETRIC_REPRESENTATION_CONTEXT ( 3 ) GLOBAL_UNCERTAINTY_ASSIGNED_CONTEXT ( ( #132 ) ) GLOBAL_UNIT_ASSIGNED_CONTEXT ( ( #39, #136, #238 ) ) REPRESENTATION_CONTEXT ( 'NONE', 'WORKASPACE' ) );
#259 = DIRECTION ( 'NONE',  ( -1.000000000000000000, 0.000000000000000000, 0.000000000000000000 ) ) ;
#260 = CARTESIAN_POINT ( 'NONE',  ( 0.000000000000000000, 0.000000000000000000, 0.000000000000000000 ) ) ;
#261 = EDGE_CURVE ( 'NONE', #213, #216, #298, .T. ) ;
#262 = CARTESIAN_POINT ( 'NONE',  ( -1.224646799147354440E-16, 9.300000000000000711, 0.000000000000000000 ) ) ;
#263 = AXIS2_PLACEMENT_3D ( 'NONE', #58, #295, #233 ) ;
#264 = CIRCLE ( 'NONE', #64, 2.249999999999997780 ) ;
#265 = LINE ( 'NONE', #151, #129 ) ;
#266 = DIRECTION ( 'NONE',  ( -1.000000000000000000, -1.316824515212208976E-17, 0.000000000000000000 ) ) ;
#267 = EDGE_CURVE ( 'NONE', #118, #144, #320, .T. ) ;
#268 = FACE_OUTER_BOUND ( 'NONE', #50, .T. ) ;
#269 = CIRCLE ( 'NONE', #263, 4.999999999999999112 ) ;
#270 = CARTESIAN_POINT ( 'NONE',  ( 2.249999999999997780, 4.500000000000000888, 0.000000000000000000 ) ) ;
#271 = ADVANCED_BREP_SHAPE_REPRESENTATION ( 'ARP-0092', ( #188, #163 ), #181 ) ;
#272 = FILL_AREA_STYLE_COLOUR ( '', #45 ) ;
#273 = ORIENTED_EDGE ( 'NONE', *, *, #44, .T. ) ;
#274 = DIRECTION ( 'NONE',  ( -1.000000000000000000, -1.316824515212208822E-17, 0.000000000000000000 ) ) ;
#275 = EDGE_CURVE ( 'NONE', #216, #325, #286, .T. ) ;
#276 = AXIS2_PLACEMENT_3D ( 'NONE', #12, #105, #210 ) ;
#277 = DIRECTION ( 'NONE',  ( -1.316824515212208822E-17, 1.000000000000000000, -0.000000000000000000 ) ) ;
#278 = EDGE_LOOP ( 'NONE', ( #287, #197, #228, #241 ) ) ;
#279 = ORIENTED_EDGE ( 'NONE', *, *, #326, .T. ) ;
#280 = DIRECTION ( 'NONE',  ( 0.000000000000000000, 0.000000000000000000, -1.000000000000000000 ) ) ;
#281 = EDGE_LOOP ( 'NONE', ( #47, #91 ) ) ;
#282 = DIRECTION ( 'NONE',  ( -1.000000000000000000, 0.000000000000000000, 0.000000000000000000 ) ) ;
#283 = ORIENTED_EDGE ( 'NONE', *, *, #123, .F. ) ;
#284 = CARTESIAN_POINT ( 'NONE',  ( 0.000000000000000000, 0.000000000000000000, 0.000000000000000000 ) ) ;
#285 = VECTOR ( 'NONE', #255, 1000.000000000000000 ) ;
#286 = CIRCLE ( 'NONE', #154, 11.85022793929196894 ) ;
#287 = ORIENTED_EDGE ( 'NONE', *, *, #175, .F. ) ;
#288 = CARTESIAN_POINT ( 'NONE',  ( 2.755455298081540833E-16, 9.300000000000000711, 2.249999999999996891 ) ) ;
#289 = APPLICATION_CONTEXT ( 'automotive_design' ) ;
#290 = PRODUCT ( 'ARP-0092', 'ARP-0092', '', ( #249 ) ) ;
#291 = CARTESIAN_POINT ( 'NONE',  ( -1.224646799147354440E-16, 9.300000000000000711, 0.000000000000000000 ) ) ;
#292 = LINE ( 'NONE', #204, #328 ) ;
#293 = CIRCLE ( 'NONE', #112, 4.999999999999993783 ) ;
#294 = FACE_OUTER_BOUND ( 'NONE', #96, .T. ) ;
#295 = DIRECTION ( 'NONE',  ( -0.000000000000000000, -1.000000000000000000, -0.000000000000000000 ) ) ;
#296 = DIRECTION ( 'NONE',  ( -1.316824515212208822E-17, 1.000000000000000000, -0.000000000000000000 ) ) ;
#297 = AXIS2_PLACEMENT_3D ( 'NONE', #260, #128, #202 ) ;
#298 = LINE ( 'NONE', #160, #211 ) ;
#299 = FACE_BOUND ( 'NONE', #25, .T. ) ;
#300 = DIRECTION ( 'NONE',  ( -1.316824515212208822E-17, 1.000000000000000000, -0.000000000000000000 ) ) ;
#301 = CARTESIAN_POINT ( 'NONE',  ( 2.407412430484044816E-32, -1.734723475976807094E-15, 0.000000000000000000 ) ) ;
#302 = ADVANCED_FACE ( 'NONE', ( #227 ), #124, .T. ) ;
#303 = CARTESIAN_POINT ( 'NONE',  ( -1.224646799147354440E-16, 9.300000000000000711, 0.000000000000000000 ) ) ;
#304 = ORIENTED_EDGE ( 'NONE', *, *, #5, .T. ) ;
#305 = ORIENTED_EDGE ( 'NONE', *, *, #127, .F. ) ;
#306 = EDGE_LOOP ( 'NONE', ( #121, #165 ) ) ;
#307 = ORIENTED_EDGE ( 'NONE', *, *, #175, .T. ) ;
#308 =( NAMED_UNIT ( * ) PLANE_ANGLE_UNIT ( ) SI_UNIT ( $, .RADIAN. ) );
#309 = VERTEX_POINT ( 'NONE', #288 ) ;
#310 = DIRECTION ( 'NONE',  ( -0.000000000000000000, -1.000000000000000000, -0.000000000000000000 ) ) ;
#311 = DIRECTION ( 'NONE',  ( -0.000000000000000000, -1.000000000000000000, -0.000000000000000000 ) ) ;
#312 = CARTESIAN_POINT ( 'NONE',  ( 0.000000000000000000, 9.300000000000000711, -2.249999999999996891 ) ) ;
#313 = FACE_OUTER_BOUND ( 'NONE', #226, .T. ) ;
#314 = CARTESIAN_POINT ( 'NONE',  ( 0.000000000000000000, 0.000000000000000000, -4.999999999999996447 ) ) ;
#315 = CARTESIAN_POINT ( 'NONE',  ( -3.021167631395877343E-17, 2.294282644722034359, 0.000000000000000000 ) ) ;
#316 = DIRECTION ( 'NONE',  ( -1.000000000000000000, 0.000000000000000000, 0.000000000000000000 ) ) ;
#317 = PRODUCT_RELATED_PRODUCT_CATEGORY ( 'part', '', ( #290 ) ) ;
#318 = DIRECTION ( 'NONE',  ( -1.000000000000000000, -1.316824515212208976E-17, 0.000000000000000000 ) ) ;
#319 = CONICAL_SURFACE ( 'NONE', #191, 11.85022793929196894, 0.8930461460400942464 ) ;
#320 = CIRCLE ( 'NONE', #52, 2.249999999999997780 ) ;
#321 = DIRECTION ( 'NONE',  ( 0.000000000000000000, 0.000000000000000000, -1.000000000000000000 ) ) ;
#322 = FACE_OUTER_BOUND ( 'NONE', #74, .T. ) ;
#323 = CARTESIAN_POINT ( 'NONE',  ( -17.50000000000000000, 9.300000000000000711, 0.000000000000000000 ) ) ;
#324 = ORIENTED_EDGE ( 'NONE', *, *, #326, .F. ) ;
#325 = VERTEX_POINT ( 'NONE', #198 ) ;
#326 = EDGE_CURVE ( 'NONE', #46, #23, #245, .T. ) ;
#327 = ORIENTED_EDGE ( 'NONE', *, *, #106, .F. ) ;
#328 = VECTOR ( 'NONE', #104, 1000.000000000000114 ) ;
#329 = ORIENTED_EDGE ( 'NONE', *, *, #33, .T. ) ;
ENDSEC;
END-ISO-10303-21;
