ISO-10303-21;
HEADER;
FILE_DESCRIPTION (( 'STEP AP214' ),
    '1' );
FILE_NAME ('ARP-0083.STEP',
    '2026-09-03T08:53:39',
    ( '' ),
    ( '' ),
    'SwSTEP 2.0',
    'SolidWorks 2024',
    '' );
FILE_SCHEMA (( 'AUTOMOTIVE_DESIGN' ));
ENDSEC;

DATA;
#1 = VECTOR ( 'NONE', #464, 1000.000000000000000 ) ;
#2 = AXIS2_PLACEMENT_3D ( 'NONE', #607, #91, #157 ) ;
#3 = ORIENTED_EDGE ( 'NONE', *, *, #603, .T. ) ;
#4 = CARTESIAN_POINT ( 'NONE',  ( 3.758336431211879880, 7.300000000000000711, -6.490370349203931077 ) ) ;
#5 = EDGE_LOOP ( 'NONE', ( #114, #195 ) ) ;
#6 = FACE_OUTER_BOUND ( 'NONE', #5, .T. ) ;
#7 = EDGE_CURVE ( 'NONE', #448, #175, #362, .T. ) ;
#8 = ORIENTED_EDGE ( 'NONE', *, *, #483, .T. ) ;
#9 = DIRECTION ( 'NONE',  ( -0.5000000000000002220, 0.000000000000000000, -0.8660254037844384856 ) ) ;
#10 = EDGE_CURVE ( 'NONE', #504, #85, #725, .T. ) ;
#11 = AXIS2_PLACEMENT_3D ( 'NONE', #214, #330, #737 ) ;
#12 = DIRECTION ( 'NONE',  ( 1.000000000000000000, 0.000000000000000000, 0.000000000000000000 ) ) ;
#13 = EDGE_LOOP ( 'NONE', ( #310, #106, #732, #323, #392, #555 ) ) ;
#14 = AXIS2_PLACEMENT_3D ( 'NONE', #687, #48, #679 ) ;
#15 = CIRCLE ( 'NONE', #224, 7.500000000000000000 ) ;
#16 = AXIS2_PLACEMENT_3D ( 'NONE', #26, #717, #667 ) ;
#17 = DIRECTION ( 'NONE',  ( 1.316824515212208822E-17, -1.000000000000000000, 0.000000000000000000 ) ) ;
#18 = DIRECTION ( 'NONE',  ( 0.000000000000000000, 0.000000000000000000, 1.000000000000000000 ) ) ;
#19 = ORIENTED_EDGE ( 'NONE', *, *, #583, .F. ) ;
#20 = DIRECTION ( 'NONE',  ( -1.000000000000000000, 0.000000000000000000, 0.000000000000000000 ) ) ;
#21 = CARTESIAN_POINT ( 'NONE',  ( -1.224646799147354440E-16, 7.300000000000000711, 0.000000000000000000 ) ) ;
#22 = ADVANCED_FACE ( 'NONE', ( #253 ), #255, .F. ) ;
#23 = LINE ( 'NONE', #498, #129 ) ;
#24 = VERTEX_POINT ( 'NONE', #543 ) ;
#25 = VECTOR ( 'NONE', #171, 1000.000000000000000 ) ;
#26 = CARTESIAN_POINT ( 'NONE',  ( 0.000000000000000000, 7.300000000000000711, 0.000000000000000000 ) ) ;
#27 = EDGE_LOOP ( 'NONE', ( #444, #401, #3, #19, #273, #494, #614, #531, #125, #514 ) ) ;
#28 = DIRECTION ( 'NONE',  ( -1.000000000000000000, -1.316824515212208822E-17, 0.000000000000000000 ) ) ;
#29 = EDGE_CURVE ( 'NONE', #290, #387, #15, .T. ) ;
#30 = CARTESIAN_POINT ( 'NONE',  ( 7.505553499465134948, 0.5000000000000013323, -3.390189415965701904E-15 ) ) ;
#31 = VERTEX_POINT ( 'NONE', #200 ) ;
#32 = DIRECTION ( 'NONE',  ( 0.000000000000000000, 0.000000000000000000, 1.000000000000000000 ) ) ;
#33 = PRODUCT_RELATED_PRODUCT_CATEGORY ( 'part', '', ( #181 ) ) ;
#34 = DIRECTION ( 'NONE',  ( -1.316824515212208822E-17, 1.000000000000000000, -0.000000000000000000 ) ) ;
#35 = ORIENTED_EDGE ( 'NONE', *, *, #559, .T. ) ;
#36 = CARTESIAN_POINT ( 'NONE',  ( -1.224646799147354440E-16, 7.300000000000000711, 0.000000000000000000 ) ) ;
#37 = AXIS2_PLACEMENT_3D ( 'NONE', #267, #446, #561 ) ;
#38 = VECTOR ( 'NONE', #132, 1000.000000000000000 ) ;
#39 = LINE ( 'NONE', #618, #476 ) ;
#40 = VERTEX_POINT ( 'NONE', #142 ) ;
#41 =( NAMED_UNIT ( * ) SI_UNIT ( $, .STERADIAN. ) SOLID_ANGLE_UNIT ( ) );
#42 = CARTESIAN_POINT ( 'NONE',  ( -3.021167631395877343E-17, 2.294282644722034359, 0.000000000000000000 ) ) ;
#43 = DIRECTION ( 'NONE',  ( 0.000000000000000000, 0.000000000000000000, 1.000000000000000000 ) ) ;
#44 = EDGE_LOOP ( 'NONE', ( #379, #459, #418 ) ) ;
#45 = EDGE_CURVE ( 'NONE', #183, #441, #646, .T. ) ;
#46 = CARTESIAN_POINT ( 'NONE',  ( -1.224646799147354440E-16, 7.300000000000000711, 0.000000000000000000 ) ) ;
#47 = DIRECTION ( 'NONE',  ( -0.000000000000000000, 1.000000000000000000, -0.000000000000000000 ) ) ;
#48 = DIRECTION ( 'NONE',  ( -1.316824515212208822E-17, 1.000000000000000000, -0.000000000000000000 ) ) ;
#49 = ORIENTED_EDGE ( 'NONE', *, *, #194, .T. ) ;
#50 = CARTESIAN_POINT ( 'NONE',  ( 7.505553499465134948, 7.300000000000000711, -3.390189415965701904E-15 ) ) ;
#51 = VECTOR ( 'NONE', #341, 1000.000000000000000 ) ;
#52 = AXIS2_PLACEMENT_3D ( 'NONE', #46, #288, #564 ) ;
#53 = CLOSED_SHELL ( 'NONE', ( #93, #88, #193, #677, #146, #617, #522, #226, #246, #121, #738, #425, #22, #380, #720, #722, #440, #596, #407, #405, #366, #540, #58, #569, #150, #433, #186 ) ) ;
#54 = DIRECTION ( 'NONE',  ( 0.000000000000000000, 0.000000000000000000, 1.000000000000000000 ) ) ;
#55 = PLANE ( 'NONE',  #548 ) ;
#56 = ORIENTED_EDGE ( 'NONE', *, *, #10, .T. ) ;
#57 = PLANE ( 'NONE',  #52 ) ;
#58 = ADVANCED_FACE ( 'NONE', ( #394 ), #227, .F. ) ;
#59 = EDGE_CURVE ( 'NONE', #40, #231, #613, .T. ) ;
#60 = ORIENTED_EDGE ( 'NONE', *, *, #643, .F. ) ;
#61 = PLANE ( 'NONE',  #326 ) ;
#62 = DIRECTION ( 'NONE',  ( -1.316824515212208822E-17, 1.000000000000000000, -0.000000000000000000 ) ) ;
#63 = ORIENTED_EDGE ( 'NONE', *, *, #708, .T. ) ;
#64 = CARTESIAN_POINT ( 'NONE',  ( 3.752776749732568362, 0.5000000000000013323, 6.500000000000002665 ) ) ;
#65 = AXIS2_PLACEMENT_3D ( 'NONE', #694, #336, #523 ) ;
#66 = AXIS2_PLACEMENT_3D ( 'NONE', #622, #554, #154 ) ;
#67 = ORIENTED_EDGE ( 'NONE', *, *, #219, .F. ) ;
#68 = DIRECTION ( 'NONE',  ( 0.000000000000000000, 1.000000000000000000, 0.000000000000000000 ) ) ;
#69 = FACE_OUTER_BOUND ( 'NONE', #723, .T. ) ;
#70 = EDGE_LOOP ( 'NONE', ( #136, #192, #698, #345, #519, #282 ) ) ;
#71 = EDGE_CURVE ( 'NONE', #705, #183, #734, .T. ) ;
#72 = LINE ( 'NONE', #534, #140 ) ;
#73 = DIRECTION ( 'NONE',  ( 0.000000000000000000, 1.000000000000000000, 0.000000000000000000 ) ) ;
#74 = CARTESIAN_POINT ( 'NONE',  ( 3.752776749732568362, 0.5000000000000013323, 6.500000000000002665 ) ) ;
#75 = CIRCLE ( 'NONE', #178, 17.50000000000000000 ) ;
#76 = DIRECTION ( 'NONE',  ( 0.000000000000000000, 0.000000000000000000, 1.000000000000000000 ) ) ;
#77 = CIRCLE ( 'NONE', #363, 17.50000000000000000 ) ;
#78 = CARTESIAN_POINT ( 'NONE',  ( 3.758336431211882545, 7.300000000000000711, 6.490370349203930189 ) ) ;
#79 = EDGE_CURVE ( 'NONE', #705, #633, #87, .T. ) ;
#80 = EDGE_LOOP ( 'NONE', ( #751, #465, #620 ) ) ;
#81 = DIRECTION ( 'NONE',  ( 1.000000000000000000, 0.000000000000000000, 0.000000000000000000 ) ) ;
#82 = DIRECTION ( 'NONE',  ( -1.000000000000000000, 0.000000000000000000, 0.000000000000000000 ) ) ;
#83 = VERTEX_POINT ( 'NONE', #674 ) ;
#84 = DIRECTION ( 'NONE',  ( -0.000000000000000000, 0.000000000000000000, 1.000000000000000000 ) ) ;
#85 = VERTEX_POINT ( 'NONE', #437 ) ;
#86 = VECTOR ( 'NONE', #568, 1000.000000000000000 ) ;
#87 = CIRCLE ( 'NONE', #490, 9.000000000000000000 ) ;
#88 = ADVANCED_FACE ( 'NONE', ( #331 ), #606, .T. ) ;
#89 = AXIS2_PLACEMENT_3D ( 'NONE', #611, #156, #312 ) ;
#90 = CARTESIAN_POINT ( 'NONE',  ( -3.752776749732568806, 0.5000000000000013323, 6.500000000000002665 ) ) ;
#91 = DIRECTION ( 'NONE',  ( 0.8660254037844389297, 0.000000000000000000, 0.4999999999999996114 ) ) ;
#92 = CARTESIAN_POINT ( 'NONE',  ( -1.224646799147354440E-16, 7.300000000000000711, 0.000000000000000000 ) ) ;
#93 = ADVANCED_FACE ( 'NONE', ( #678 ), #167, .F. ) ;
#94 = PLANE ( 'NONE',  #327 ) ;
#95 = EDGE_LOOP ( 'NONE', ( #139, #688 ) ) ;
#96 = CARTESIAN_POINT ( 'NONE',  ( 3.741657386773936445, 7.300000000000000711, 6.500000000000002665 ) ) ;
#97 = FACE_OUTER_BOUND ( 'NONE', #172, .T. ) ;
#98 = ORIENTED_EDGE ( 'NONE', *, *, #321, .F. ) ;
#99 = CIRCLE ( 'NONE', #128, 7.500000000000000000 ) ;
#100 = DIRECTION ( 'NONE',  ( 0.6277524511897815129, 0.7784130394753295823, 7.687750300064709501E-17 ) ) ;
#101 = AXIS2_PLACEMENT_3D ( 'NONE', #325, #103, #557 ) ;
#102 = AXIS2_PLACEMENT_3D ( 'NONE', #204, #434, #256 ) ;
#103 = DIRECTION ( 'NONE',  ( 0.000000000000000000, 1.000000000000000000, 0.000000000000000000 ) ) ;
#104 = EDGE_CURVE ( 'NONE', #633, #705, #377, .T. ) ;
#105 = PLANE ( 'NONE',  #117 ) ;
#106 = ORIENTED_EDGE ( 'NONE', *, *, #268, .T. ) ;
#107 = FACE_OUTER_BOUND ( 'NONE', #491, .T. ) ;
#108 = CARTESIAN_POINT ( 'NONE',  ( 7.505553499465134948, 0.5000000000000013323, -3.390189415965701904E-15 ) ) ;
#109 = LINE ( 'NONE', #508, #436 ) ;
#110 = ORIENTED_EDGE ( 'NONE', *, *, #672, .F. ) ;
#111 = LINE ( 'NONE', #339, #644 ) ;
#112 = DIRECTION ( 'NONE',  ( 0.4999999999999996114, 0.000000000000000000, -0.8660254037844389297 ) ) ;
#113 = CARTESIAN_POINT ( 'NONE',  ( -17.50000000000000000, 9.300000000000000711, 0.000000000000000000 ) ) ;
#114 = ORIENTED_EDGE ( 'NONE', *, *, #79, .F. ) ;
#115 = EDGE_CURVE ( 'NONE', #234, #533, #657, .T. ) ;
#116 = VECTOR ( 'NONE', #502, 1000.000000000000114 ) ;
#117 = AXIS2_PLACEMENT_3D ( 'NONE', #731, #575, #447 ) ;
#118 = DIRECTION ( 'NONE',  ( 0.000000000000000000, 1.000000000000000000, 0.000000000000000000 ) ) ;
#119 = VERTEX_POINT ( 'NONE', #161 ) ;
#120 = FACE_OUTER_BOUND ( 'NONE', #351, .T. ) ;
#121 = ADVANCED_FACE ( 'NONE', ( #207 ), #466, .T. ) ;
#122 = ORIENTED_EDGE ( 'NONE', *, *, #166, .T. ) ;
#123 = DIRECTION ( 'NONE',  ( 0.000000000000000000, 0.000000000000000000, 1.000000000000000000 ) ) ;
#124 = CARTESIAN_POINT ( 'NONE',  ( 0.000000000000000000, 0.000000000000000000, 0.000000000000000000 ) ) ;
#125 = ORIENTED_EDGE ( 'NONE', *, *, #462, .F. ) ;
#126 = LINE ( 'NONE', #641, #526 ) ;
#127 = CARTESIAN_POINT ( 'NONE',  ( 0.000000000000000000, 7.300000000000000711, 0.000000000000000000 ) ) ;
#128 = AXIS2_PLACEMENT_3D ( 'NONE', #36, #164, #626 ) ;
#129 = VECTOR ( 'NONE', #423, 1000.000000000000000 ) ;
#130 = VERTEX_POINT ( 'NONE', #507 ) ;
#131 = EDGE_CURVE ( 'NONE', #83, #652, #220, .T. ) ;
#132 = DIRECTION ( 'NONE',  ( -1.000000000000000000, 0.000000000000000000, 1.155626614413199577E-16 ) ) ;
#133 = ORIENTED_EDGE ( 'NONE', *, *, #350, .T. ) ;
#134 = LINE ( 'NONE', #361, #165 ) ;
#135 = VERTEX_POINT ( 'NONE', #443 ) ;
#136 = ORIENTED_EDGE ( 'NONE', *, *, #551, .T. ) ;
#137 = PLANE ( 'NONE',  #374 ) ;
#138 = EDGE_CURVE ( 'NONE', #155, #509, #741, .T. ) ;
#139 = ORIENTED_EDGE ( 'NONE', *, *, #240, .F. ) ;
#140 = VECTOR ( 'NONE', #9, 1000.000000000000227 ) ;
#141 = FACE_OUTER_BOUND ( 'NONE', #80, .T. ) ;
#142 = CARTESIAN_POINT ( 'NONE',  ( -3.752776749732571027, 0.5000000000000013323, -6.500000000000005329 ) ) ;
#143 = PLANE ( 'NONE',  #742 ) ;
#144 = PRODUCT_DEFINITION_SHAPE ( 'NONE', 'NONE',  #371 ) ;
#145 = ORIENTED_EDGE ( 'NONE', *, *, #138, .T. ) ;
#146 = ADVANCED_FACE ( 'NONE', ( #609 ), #94, .T. ) ;
#147 = APPLICATION_CONTEXT ( 'automotive_design' ) ;
#148 = LINE ( 'NONE', #309, #455 ) ;
#149 = DIRECTION ( 'NONE',  ( 0.000000000000000000, 1.000000000000000000, 0.000000000000000000 ) ) ;
#150 = ADVANCED_FACE ( 'NONE', ( #97 ), #211, .F. ) ;
#151 = CIRCLE ( 'NONE', #101, 7.500000000000000000 ) ;
#152 = AXIS2_PLACEMENT_3D ( 'NONE', #719, #492, #319 ) ;
#153 = LINE ( 'NONE', #384, #669 ) ;
#154 = DIRECTION ( 'NONE',  ( -1.000000000000000000, -1.316824515212208976E-17, 0.000000000000000000 ) ) ;
#155 = VERTEX_POINT ( 'NONE', #30 ) ;
#156 = DIRECTION ( 'NONE',  ( -0.8660254037844385966, 0.000000000000000000, 0.5000000000000001110 ) ) ;
#157 = DIRECTION ( 'NONE',  ( 0.4999999999999995559, 0.000000000000000000, -0.8660254037844388186 ) ) ;
#158 = ORIENTED_EDGE ( 'NONE', *, *, #487, .F. ) ;
#159 = DIRECTION ( 'NONE',  ( -0.5000000000000002220, 0.000000000000000000, -0.8660254037844384856 ) ) ;
#160 = EDGE_CURVE ( 'NONE', #337, #463, #594, .T. ) ;
#161 = CARTESIAN_POINT ( 'NONE',  ( 17.50000000000000000, 9.300000000000000711, 2.143131898507868248E-15 ) ) ;
#162 = CARTESIAN_POINT ( 'NONE',  ( 7.505553499465134948, 7.300000000000000711, -3.390189415965701904E-15 ) ) ;
#163 = EDGE_LOOP ( 'NONE', ( #229, #454, #56 ) ) ;
#164 = DIRECTION ( 'NONE',  ( 0.000000000000000000, 1.000000000000000000, 0.000000000000000000 ) ) ;
#165 = VECTOR ( 'NONE', #595, 1000.000000000000000 ) ;
#166 = EDGE_CURVE ( 'NONE', #637, #24, #151, .T. ) ;
#167 = CYLINDRICAL_SURFACE ( 'NONE', #259, 7.500000000000000000 ) ;
#168 = CARTESIAN_POINT ( 'NONE',  ( -1.224646799147354440E-16, 9.300000000000000711, 7.500000000000000000 ) ) ;
#169 = ORIENTED_EDGE ( 'NONE', *, *, #321, .T. ) ;
#170 = CARTESIAN_POINT ( 'NONE',  ( 7.505553499465134948, 7.300000000000000711, -3.390189415965701904E-15 ) ) ;
#171 = DIRECTION ( 'NONE',  ( 0.4999999999999996114, 0.000000000000000000, -0.8660254037844389297 ) ) ;
#172 = EDGE_LOOP ( 'NONE', ( #718, #169, #748, #680, #241, #577 ) ) ;
#173 = EDGE_CURVE ( 'NONE', #633, #441, #39, .T. ) ;
#174 = LINE ( 'NONE', #162, #704 ) ;
#175 = VERTEX_POINT ( 'NONE', #690 ) ;
#176 = EDGE_CURVE ( 'NONE', #592, #155, #709, .T. ) ;
#177 = LINE ( 'NONE', #406, #489 ) ;
#178 = AXIS2_PLACEMENT_3D ( 'NONE', #292, #691, #566 ) ;
#179 = AXIS2_PLACEMENT_3D ( 'NONE', #716, #73, #306 ) ;
#180 = ORIENTED_EDGE ( 'NONE', *, *, #115, .T. ) ;
#181 = PRODUCT ( 'ARP-0083', 'ARP-0083', '', ( #700 ) ) ;
#182 = DIRECTION ( 'NONE',  ( 0.000000000000000000, -0.000000000000000000, 1.000000000000000000 ) ) ;
#183 = VERTEX_POINT ( 'NONE', #416 ) ;
#184 = DIRECTION ( 'NONE',  ( -0.000000000000000000, 1.000000000000000000, 0.000000000000000000 ) ) ;
#185 = CARTESIAN_POINT ( 'NONE',  ( -3.021167631395877343E-17, 2.294282644722034359, 0.000000000000000000 ) ) ;
#186 = ADVANCED_FACE ( 'NONE', ( #532 ), #702, .F. ) ;
#187 = ORIENTED_EDGE ( 'NONE', *, *, #385, .F. ) ;
#188 = DIRECTION ( 'NONE',  ( 0.000000000000000000, -0.000000000000000000, 1.000000000000000000 ) ) ;
#189 = VECTOR ( 'NONE', #470, 1000.000000000000000 ) ;
#190 = ORIENTED_EDGE ( 'NONE', *, *, #650, .T. ) ;
#191 = CARTESIAN_POINT ( 'NONE',  ( -1.224646799147354440E-16, 7.300000000000000711, 0.000000000000000000 ) ) ;
#192 = ORIENTED_EDGE ( 'NONE', *, *, #385, .T. ) ;
#193 = ADVANCED_FACE ( 'NONE', ( #69 ), #632, .T. ) ;
#194 = EDGE_CURVE ( 'NONE', #652, #592, #587, .T. ) ;
#195 = ORIENTED_EDGE ( 'NONE', *, *, #104, .F. ) ;
#196 = DIRECTION ( 'NONE',  ( -0.000000000000000000, 1.000000000000000000, 0.000000000000000000 ) ) ;
#197 = ORIENTED_EDGE ( 'NONE', *, *, #294, .T. ) ;
#198 = FACE_OUTER_BOUND ( 'NONE', #736, .T. ) ;
#199 = AXIS2_PLACEMENT_3D ( 'NONE', #638, #352, #123 ) ;
#200 = CARTESIAN_POINT ( 'NONE',  ( 3.752776749732568362, 7.300000000000000711, 6.500000000000002665 ) ) ;
#201 = AXIS2_PLACEMENT_3D ( 'NONE', #335, #503, #512 ) ;
#202 = CARTESIAN_POINT ( 'NONE',  ( -7.505553499465137612, 7.300000000000000711, 8.672939753526197519E-16 ) ) ;
#203 = EDGE_LOOP ( 'NONE', ( #8, #420, #432 ) ) ;
#204 = CARTESIAN_POINT ( 'NONE',  ( -1.224646799147354440E-16, 7.300000000000000711, 0.000000000000000000 ) ) ;
#205 = ORIENTED_EDGE ( 'NONE', *, *, #104, .T. ) ;
#206 = PLANE ( 'NONE',  #16 ) ;
#207 = FACE_OUTER_BOUND ( 'NONE', #582, .T. ) ;
#208 = VERTEX_POINT ( 'NONE', #479 ) ;
#209 = VECTOR ( 'NONE', #517, 1000.000000000000000 ) ;
#210 = CARTESIAN_POINT ( 'NONE',  ( 0.000000000000000000, 7.300000000000000711, 0.000000000000000000 ) ) ;
#211 = PLANE ( 'NONE',  #2 ) ;
#212 = ORIENTED_EDGE ( 'NONE', *, *, #302, .F. ) ;
#213 = EDGE_CURVE ( 'NONE', #231, #130, #354, .T. ) ;
#214 = CARTESIAN_POINT ( 'NONE',  ( 7.505553499465134948, 0.5000000000000013323, -3.390189415965701904E-15 ) ) ;
#215 = CARTESIAN_POINT ( 'NONE',  ( -1.224646799147354440E-16, 7.300000000000000711, 0.000000000000000000 ) ) ;
#216 = PLANE ( 'NONE',  #424 ) ;
#217 = ORIENTED_EDGE ( 'NONE', *, *, #176, .T. ) ;
#218 = LINE ( 'NONE', #693, #116 ) ;
#219 = EDGE_CURVE ( 'NONE', #695, #637, #726, .T. ) ;
#220 = LINE ( 'NONE', #382, #538 ) ;
#221 = ORIENTED_EDGE ( 'NONE', *, *, #71, .F. ) ;
#222 = AXIS2_PLACEMENT_3D ( 'NONE', #506, #578, #460 ) ;
#223 = SURFACE_SIDE_STYLE ('',( #598 ) ) ;
#224 = AXIS2_PLACEMENT_3D ( 'NONE', #21, #486, #712 ) ;
#225 = AXIS2_PLACEMENT_3D ( 'NONE', #124, #18, #12 ) ;
#226 = ADVANCED_FACE ( 'NONE', ( #585 ), #399, .T. ) ;
#227 = PLANE ( 'NONE',  #201 ) ;
#228 = CARTESIAN_POINT ( 'NONE',  ( 3.752776749732563477, 0.5000000000000013323, -6.500000000000005329 ) ) ;
#229 = ORIENTED_EDGE ( 'NONE', *, *, #268, .F. ) ;
#230 = DIRECTION ( 'NONE',  ( 0.000000000000000000, 1.000000000000000000, 0.000000000000000000 ) ) ;
#231 = VERTEX_POINT ( 'NONE', #299 ) ;
#232 = LINE ( 'NONE', #689, #296 ) ;
#233 = LINE ( 'NONE', #623, #1 ) ;
#234 = VERTEX_POINT ( 'NONE', #686 ) ;
#235 = PLANE ( 'NONE',  #656 ) ;
#236 = VECTOR ( 'NONE', #621, 1000.000000000000000 ) ;
#237 = AXIS2_PLACEMENT_3D ( 'NONE', #210, #442, #550 ) ;
#238 = EDGE_LOOP ( 'NONE', ( #573, #527 ) ) ;
#239 = FACE_OUTER_BOUND ( 'NONE', #358, .T. ) ;
#240 = EDGE_CURVE ( 'NONE', #130, #448, #414, .T. ) ;
#241 = ORIENTED_EDGE ( 'NONE', *, *, #176, .F. ) ;
#242 = CARTESIAN_POINT ( 'NONE',  ( 7.505553499465134948, 7.300000000000000711, -3.390189415965701904E-15 ) ) ;
#243 = ORIENTED_EDGE ( 'NONE', *, *, #29, .T. ) ;
#244 = LINE ( 'NONE', #477, #468 ) ;
#245 = VECTOR ( 'NONE', #159, 1000.000000000000227 ) ;
#246 = ADVANCED_FACE ( 'NONE', ( #6 ), #137, .T. ) ;
#247 = AXIS2_PLACEMENT_3D ( 'NONE', #127, #196, #472 ) ;
#248 = EDGE_CURVE ( 'NONE', #509, #695, #461, .T. ) ;
#249 = APPLICATION_PROTOCOL_DEFINITION ( 'draft international standard', 'automotive_design', 1998, #147 ) ;
#250 = CIRCLE ( 'NONE', #343, 7.500000000000000000 ) ;
#251 = ORIENTED_EDGE ( 'NONE', *, *, #483, .F. ) ;
#252 = CARTESIAN_POINT ( 'NONE',  ( -1.224646799147354440E-16, 9.300000000000000711, 0.000000000000000000 ) ) ;
#253 = FACE_OUTER_BOUND ( 'NONE', #293, .T. ) ;
#254 = CARTESIAN_POINT ( 'NONE',  ( 3.752776749732568362, 7.300000000000000711, 6.500000000000002665 ) ) ;
#255 = CYLINDRICAL_SURFACE ( 'NONE', #713, 7.500000000000000000 ) ;
#256 = DIRECTION ( 'NONE',  ( 0.000000000000000000, -0.000000000000000000, 1.000000000000000000 ) ) ;
#257 = AXIS2_PLACEMENT_3D ( 'NONE', #571, #62, #747 ) ;
#258 = ORIENTED_EDGE ( 'NONE', *, *, #160, .T. ) ;
#259 = AXIS2_PLACEMENT_3D ( 'NONE', #215, #500, #721 ) ;
#260 = VECTOR ( 'NONE', #539, 1000.000000000000000 ) ;
#261 = CARTESIAN_POINT ( 'NONE',  ( -17.50000000000000000, 9.300000000000000711, 0.000000000000000000 ) ) ;
#262 = ORIENTED_EDGE ( 'NONE', *, *, #79, .T. ) ;
#263 = PLANE ( 'NONE',  #89 ) ;
#264 = DIRECTION ( 'NONE',  ( 0.000000000000000000, 1.000000000000000000, 0.000000000000000000 ) ) ;
#265 = ORIENTED_EDGE ( 'NONE', *, *, #496, .F. ) ;
#266 = PLANE ( 'NONE',  #237 ) ;
#267 = CARTESIAN_POINT ( 'NONE',  ( -1.224646799147354440E-16, 7.300000000000000711, 0.000000000000000000 ) ) ;
#268 = EDGE_CURVE ( 'NONE', #24, #85, #648, .T. ) ;
#269 = AXIS2_PLACEMENT_3D ( 'NONE', #185, #357, #20 ) ;
#270 = ORIENTED_EDGE ( 'NONE', *, *, #583, .T. ) ;
#271 =( LENGTH_UNIT ( ) NAMED_UNIT ( * ) SI_UNIT ( .MILLI., .METRE. ) );
#272 = DIRECTION ( 'NONE',  ( 0.7789854202902849467, 0.6270420360511471669, 9.539820015409529862E-17 ) ) ;
#273 = ORIENTED_EDGE ( 'NONE', *, *, #697, .F. ) ;
#274 = DIRECTION ( 'NONE',  ( -1.316824515212208822E-17, 1.000000000000000000, -0.000000000000000000 ) ) ;
#275 = DIRECTION ( 'NONE',  ( 0.000000000000000000, 1.000000000000000000, 0.000000000000000000 ) ) ;
#276 = ORIENTED_EDGE ( 'NONE', *, *, #166, .F. ) ;
#277 =( NAMED_UNIT ( * ) PLANE_ANGLE_UNIT ( ) SI_UNIT ( $, .RADIAN. ) );
#278 = EDGE_CURVE ( 'NONE', #155, #478, #72, .T. ) ;
#279 = DIRECTION ( 'NONE',  ( -0.000000000000000000, 1.000000000000000000, -0.000000000000000000 ) ) ;
#280 = CARTESIAN_POINT ( 'NONE',  ( -1.224646799147354440E-16, 9.300000000000000711, 0.000000000000000000 ) ) ;
#281 = UNCERTAINTY_MEASURE_WITH_UNIT (LENGTH_MEASURE( 1.000000000000000082E-05 ), #400, 'distance_accuracy_value', 'NONE');
#282 = ORIENTED_EDGE ( 'NONE', *, *, #493, .T. ) ;
#283 = CIRCLE ( 'NONE', #199, 7.500000000000000000 ) ;
#284 = LINE ( 'NONE', #749, #547 ) ;
#285 = CARTESIAN_POINT ( 'NONE',  ( -3.752776749732571027, 7.300000000000000711, -6.500000000000005329 ) ) ;
#286 =( NAMED_UNIT ( * ) PLANE_ANGLE_UNIT ( ) SI_UNIT ( $, .RADIAN. ) );
#287 = ORIENTED_EDGE ( 'NONE', *, *, #487, .T. ) ;
#288 = DIRECTION ( 'NONE',  ( 0.000000000000000000, 1.000000000000000000, 0.000000000000000000 ) ) ;
#289 = DIRECTION ( 'NONE',  ( -0.5000000000000002220, 0.000000000000000000, -0.8660254037844384856 ) ) ;
#290 = VERTEX_POINT ( 'NONE', #78 ) ;
#291 = CARTESIAN_POINT ( 'NONE',  ( 0.000000000000000000, 7.300000000000000711, 0.000000000000000000 ) ) ;
#292 = CARTESIAN_POINT ( 'NONE',  ( -1.224646799147354440E-16, 9.300000000000000711, 0.000000000000000000 ) ) ;
#293 = EDGE_LOOP ( 'NONE', ( #675, #265, #276, #67, #251, #367, #212, #549, #270, #190 ) ) ;
#294 = EDGE_CURVE ( 'NONE', #478, #40, #244, .T. ) ;
#295 = LINE ( 'NONE', #413, #435 ) ;
#296 = VECTOR ( 'NONE', #393, 1000.000000000000000 ) ;
#297 = ORIENTED_EDGE ( 'NONE', *, *, #173, .F. ) ;
#298 = CARTESIAN_POINT ( 'NONE',  ( 9.000000000000000000, -1.616209269607708367E-15, 1.276708245367331023E-15 ) ) ;
#299 = CARTESIAN_POINT ( 'NONE',  ( -3.752776749732571027, 7.300000000000000711, -6.500000000000005329 ) ) ;
#300 = EDGE_LOOP ( 'NONE', ( #372, #707, #471 ) ) ;
#301 = CARTESIAN_POINT ( 'NONE',  ( -1.224646799147354440E-16, 7.300000000000000711, 0.000000000000000000 ) ) ;
#302 = EDGE_CURVE ( 'NONE', #463, #290, #647, .T. ) ;
#303 = ORIENTED_EDGE ( 'NONE', *, *, #574, .T. ) ;
#304 = DIRECTION ( 'NONE',  ( -0.5000000000000002220, 0.000000000000000000, -0.8660254037844384856 ) ) ;
#305 = AXIS2_PLACEMENT_3D ( 'NONE', #280, #628, #43 ) ;
#306 = DIRECTION ( 'NONE',  ( 0.000000000000000000, 0.000000000000000000, 1.000000000000000000 ) ) ;
#307 = DIRECTION ( 'NONE',  ( 0.000000000000000000, 0.000000000000000000, 1.000000000000000000 ) ) ;
#308 = DIRECTION ( 'NONE',  ( 0.000000000000000000, 0.000000000000000000, 1.000000000000000000 ) ) ;
#309 = CARTESIAN_POINT ( 'NONE',  ( -3.752776749732568806, 0.5000000000000013323, 6.500000000000002665 ) ) ;
#310 = ORIENTED_EDGE ( 'NONE', *, *, #643, .T. ) ;
#311 = EDGE_CURVE ( 'NONE', #119, #567, #77, .T. ) ;
#312 = DIRECTION ( 'NONE',  ( 0.5000000000000001110, 0.000000000000000000, 0.8660254037844385966 ) ) ;
#313 = AXIS2_PLACEMENT_3D ( 'NONE', #676, #334, #346 ) ;
#314 = ORIENTED_EDGE ( 'NONE', *, *, #350, .F. ) ;
#315 = VECTOR ( 'NONE', #670, 1000.000000000000114 ) ;
#316 = AXIS2_PLACEMENT_3D ( 'NONE', #90, #84, #81 ) ;
#317 = CARTESIAN_POINT ( 'NONE',  ( -1.224646799147354440E-16, 7.300000000000000711, 7.500000000000000000 ) ) ;
#318 = CARTESIAN_POINT ( 'NONE',  ( 2.407412430484044816E-32, -1.734723475976807094E-15, 0.000000000000000000 ) ) ;
#319 = DIRECTION ( 'NONE',  ( 0.000000000000000000, -0.000000000000000000, 1.000000000000000000 ) ) ;
#320 = EDGE_CURVE ( 'NONE', #31, #290, #134, .T. ) ;
#321 = EDGE_CURVE ( 'NONE', #290, #387, #542, .T. ) ;
#322 = CARTESIAN_POINT ( 'NONE',  ( -3.752776749732571027, 0.5000000000000013323, -6.500000000000005329 ) ) ;
#323 = ORIENTED_EDGE ( 'NONE', *, *, #59, .F. ) ;
#324 = FACE_OUTER_BOUND ( 'NONE', #348, .T. ) ;
#325 = CARTESIAN_POINT ( 'NONE',  ( -1.224646799147354440E-16, 7.300000000000000711, 0.000000000000000000 ) ) ;
#326 = AXIS2_PLACEMENT_3D ( 'NONE', #584, #68, #182 ) ;
#327 = AXIS2_PLACEMENT_3D ( 'NONE', #457, #149, #376 ) ;
#328 = ORIENTED_EDGE ( 'NONE', *, *, #639, .T. ) ;
#329 = MECHANICAL_DESIGN_GEOMETRIC_PRESENTATION_REPRESENTATION (  '', ( #439 ), #666 ) ;
#330 = DIRECTION ( 'NONE',  ( 0.8660254037844384856, 0.000000000000000000, -0.5000000000000003331 ) ) ;
#331 = FACE_OUTER_BOUND ( 'NONE', #368, .T. ) ;
#332 = CARTESIAN_POINT ( 'NONE',  ( 0.000000000000000000, 7.300000000000000711, 0.000000000000000000 ) ) ;
#333 = ORIENTED_EDGE ( 'NONE', *, *, #612, .F. ) ;
#334 = DIRECTION ( 'NONE',  ( -0.8660254037844389297, 0.000000000000000000, -0.4999999999999996114 ) ) ;
#335 = CARTESIAN_POINT ( 'NONE',  ( 3.752776749732563477, 0.5000000000000013323, -6.500000000000005329 ) ) ;
#336 = DIRECTION ( 'NONE',  ( 0.000000000000000000, 1.000000000000000000, 0.000000000000000000 ) ) ;
#337 = VERTEX_POINT ( 'NONE', #317 ) ;
#338 = EDGE_CURVE ( 'NONE', #652, #135, #148, .T. ) ;
#339 = CARTESIAN_POINT ( 'NONE',  ( -7.505553499465137612, 7.300000000000000711, 8.672939753526197519E-16 ) ) ;
#340 = CARTESIAN_POINT ( 'NONE',  ( -3.752776749732568806, 0.5000000000000013323, 6.500000000000002665 ) ) ;
#341 = DIRECTION ( 'NONE',  ( -0.000000000000000000, 1.000000000000000000, -0.000000000000000000 ) ) ;
#342 =( GEOMETRIC_REPRESENTATION_CONTEXT ( 3 ) GLOBAL_UNCERTAINTY_ASSIGNED_CONTEXT ( ( #281 ) ) GLOBAL_UNIT_ASSIGNED_CONTEXT ( ( #400, #286, #636 ) ) REPRESENTATION_CONTEXT ( 'NONE', 'WORKASPACE' ) );
#343 = AXIS2_PLACEMENT_3D ( 'NONE', #92, #553, #32 ) ;
#344 = DIRECTION ( 'NONE',  ( -0.6277524511897815129, 0.7784130394753295823, 0.000000000000000000 ) ) ;
#345 = ORIENTED_EDGE ( 'NONE', *, *, #338, .F. ) ;
#346 = DIRECTION ( 'NONE',  ( -0.4999999999999995559, 0.000000000000000000, 0.8660254037844388186 ) ) ;
#347 = FACE_OUTER_BOUND ( 'NONE', #744, .T. ) ;
#348 = EDGE_LOOP ( 'NONE', ( #133, #684, #303, #333, #728, #355 ) ) ;
#349 = DIRECTION ( 'NONE',  ( 0.000000000000000000, -0.000000000000000000, 1.000000000000000000 ) ) ;
#350 = EDGE_CURVE ( 'NONE', #135, #533, #23, .T. ) ;
#351 = EDGE_LOOP ( 'NONE', ( #404, #328, #287, #110, #412, #145 ) ) ;
#352 = DIRECTION ( 'NONE',  ( 0.000000000000000000, 1.000000000000000000, 0.000000000000000000 ) ) ;
#353 = AXIS2_PLACEMENT_3D ( 'NONE', #42, #274, #681 ) ;
#354 = LINE ( 'NONE', #421, #260 ) ;
#355 = ORIENTED_EDGE ( 'NONE', *, *, #338, .T. ) ;
#356 = EDGE_CURVE ( 'NONE', #448, #563, #544, .T. ) ;
#357 = DIRECTION ( 'NONE',  ( -1.316824515212208822E-17, 1.000000000000000000, -0.000000000000000000 ) ) ;
#358 = EDGE_LOOP ( 'NONE', ( #586, #535 ) ) ;
#359 = CARTESIAN_POINT ( 'NONE',  ( -9.000000000000000000, -6.103481628008583194E-16, 0.000000000000000000 ) ) ;
#360 = DIRECTION ( 'NONE',  ( 0.000000000000000000, 1.000000000000000000, 0.000000000000000000 ) ) ;
#361 = CARTESIAN_POINT ( 'NONE',  ( 3.752776749732568362, 7.300000000000000711, 6.500000000000002665 ) ) ;
#362 = CIRCLE ( 'NONE', #528, 7.500000000000000000 ) ;
#363 = AXIS2_PLACEMENT_3D ( 'NONE', #252, #419, #651 ) ;
#364 = DIRECTION ( 'NONE',  ( -0.000000000000000000, 1.000000000000000000, -0.000000000000000000 ) ) ;
#365 = FACE_OUTER_BOUND ( 'NONE', #469, .T. ) ;
#366 = ADVANCED_FACE ( 'NONE', ( #659 ), #263, .F. ) ;
#367 = ORIENTED_EDGE ( 'NONE', *, *, #29, .F. ) ;
#368 = EDGE_LOOP ( 'NONE', ( #430, #35, #473, #545 ) ) ;
#369 = DIRECTION ( 'NONE',  ( -1.316824515212208822E-17, 1.000000000000000000, 0.000000000000000000 ) ) ;
#370 = ORIENTED_EDGE ( 'NONE', *, *, #493, .F. ) ;
#371 = PRODUCT_DEFINITION ( 'NON CONOSCIUTO', '', #537, #576 ) ;
#372 = ORIENTED_EDGE ( 'NONE', *, *, #715, .T. ) ;
#373 = CARTESIAN_POINT ( 'NONE',  ( -3.752776749732571027, 7.300000000000000711, -6.500000000000005329 ) ) ;
#374 = AXIS2_PLACEMENT_3D ( 'NONE', #359, #17, #654 ) ;
#375 = CIRCLE ( 'NONE', #305, 7.500000000000000000 ) ;
#376 = DIRECTION ( 'NONE',  ( 0.000000000000000000, -0.000000000000000000, 1.000000000000000000 ) ) ;
#377 = CIRCLE ( 'NONE', #66, 9.000000000000000000 ) ;
#378 = VECTOR ( 'NONE', #304, 1000.000000000000227 ) ;
#379 = ORIENTED_EDGE ( 'NONE', *, *, #302, .T. ) ;
#380 = ADVANCED_FACE ( 'NONE', ( #495 ), #381, .T. ) ;
#381 = PLANE ( 'NONE',  #102 ) ;
#382 = CARTESIAN_POINT ( 'NONE',  ( -7.505553499465137612, 0.5000000000000013323, 8.672939753526197519E-16 ) ) ;
#383 = ORIENTED_EDGE ( 'NONE', *, *, #278, .T. ) ;
#384 = CARTESIAN_POINT ( 'NONE',  ( 3.752776749732568362, 7.300000000000000711, 6.500000000000002665 ) ) ;
#385 = EDGE_CURVE ( 'NONE', #175, #234, #714, .T. ) ;
#386 = DIRECTION ( 'NONE',  ( 0.000000000000000000, 0.000000000000000000, 1.000000000000000000 ) ) ;
#387 = VERTEX_POINT ( 'NONE', #429 ) ;
#388 = FACE_OUTER_BOUND ( 'NONE', #163, .T. ) ;
#389 = CARTESIAN_POINT ( 'NONE',  ( -1.224646799147354440E-16, 7.300000000000000711, 0.000000000000000000 ) ) ;
#390 = CARTESIAN_POINT ( 'NONE',  ( 3.752776749732563477, 7.300000000000000711, -6.500000000000005329 ) ) ;
#391 = AXIS2_PLACEMENT_3D ( 'NONE', #428, #660, #82 ) ;
#392 = ORIENTED_EDGE ( 'NONE', *, *, #294, .F. ) ;
#393 = DIRECTION ( 'NONE',  ( 1.000000000000000000, 0.000000000000000000, 0.000000000000000000 ) ) ;
#394 = FACE_OUTER_BOUND ( 'NONE', #13, .T. ) ;
#395 = FACE_OUTER_BOUND ( 'NONE', #203, .T. ) ;
#396 = UNCERTAINTY_MEASURE_WITH_UNIT (LENGTH_MEASURE( 1.000000000000000082E-05 ), #271, 'distance_accuracy_value', 'NONE');
#397 = ORIENTED_EDGE ( 'NONE', *, *, #311, .T. ) ;
#398 = CARTESIAN_POINT ( 'NONE',  ( -3.752776749732568806, 7.300000000000000711, 6.500000000000002665 ) ) ;
#399 = PLANE ( 'NONE',  #427 ) ;
#400 =( LENGTH_UNIT ( ) NAMED_UNIT ( * ) SI_UNIT ( .MILLI., .METRE. ) );
#401 = ORIENTED_EDGE ( 'NONE', *, *, #511, .T. ) ;
#402 = LINE ( 'NONE', #50, #245 ) ;
#403 = FACE_OUTER_BOUND ( 'NONE', #44, .T. ) ;
#404 = ORIENTED_EDGE ( 'NONE', *, *, #248, .T. ) ;
#405 = ADVANCED_FACE ( 'NONE', ( #324 ), #724, .F. ) ;
#406 = CARTESIAN_POINT ( 'NONE',  ( 17.50000000000000000, 9.300000000000000711, 2.143131898507868248E-15 ) ) ;
#407 = ADVANCED_FACE ( 'NONE', ( #141 ), #266, .F. ) ;
#408 = AXIS2_PLACEMENT_3D ( 'NONE', #301, #570, #54 ) ;
#409 = DIRECTION ( 'NONE',  ( -0.000000000000000000, 1.000000000000000000, 0.000000000000000000 ) ) ;
#410 = ORIENTED_EDGE ( 'NONE', *, *, #311, .F. ) ;
#411 = DIRECTION ( 'NONE',  ( -0.4999999999999996114, 0.000000000000000000, 0.8660254037844389297 ) ) ;
#412 = ORIENTED_EDGE ( 'NONE', *, *, #278, .F. ) ;
#413 = CARTESIAN_POINT ( 'NONE',  ( -3.752776749732571027, 0.5000000000000013323, -6.500000000000005329 ) ) ;
#414 = LINE ( 'NONE', #285, #682 ) ;
#415 = ORIENTED_EDGE ( 'NONE', *, *, #356, .T. ) ;
#416 = CARTESIAN_POINT ( 'NONE',  ( -11.85022793929196894, 2.294282644722034359, 0.000000000000000000 ) ) ;
#417 = COLOUR_RGB ( '',0.7921568627450980005, 0.8196078431372548767, 0.9333333333333333481 ) ;
#418 = ORIENTED_EDGE ( 'NONE', *, *, #574, .F. ) ;
#419 = DIRECTION ( 'NONE',  ( -1.316824515212208822E-17, 1.000000000000000000, -0.000000000000000000 ) ) ;
#420 = ORIENTED_EDGE ( 'NONE', *, *, #248, .F. ) ;
#421 = CARTESIAN_POINT ( 'NONE',  ( -3.752776749732571027, 7.300000000000000711, -6.500000000000005329 ) ) ;
#422 = CARTESIAN_POINT ( 'NONE',  ( -1.224646799147354440E-16, 7.300000000000000711, 0.000000000000000000 ) ) ;
#423 = DIRECTION ( 'NONE',  ( 1.000000000000000000, 0.000000000000000000, 0.000000000000000000 ) ) ;
#424 = AXIS2_PLACEMENT_3D ( 'NONE', #518, #275, #579 ) ;
#425 = ADVANCED_FACE ( 'NONE', ( #661, #198 ), #143, .T. ) ;
#426 = AXIS2_PLACEMENT_3D ( 'NONE', #389, #264, #386 ) ;
#427 = AXIS2_PLACEMENT_3D ( 'NONE', #746, #230, #188 ) ;
#428 = CARTESIAN_POINT ( 'NONE',  ( -3.021167631395877343E-17, 2.294282644722034359, 0.000000000000000000 ) ) ;
#429 = CARTESIAN_POINT ( 'NONE',  ( 7.499993817985820321, 7.300000000000000711, 0.009629650796068658924 ) ) ;
#430 = ORIENTED_EDGE ( 'NONE', *, *, #45, .T. ) ;
#431 = CARTESIAN_POINT ( 'NONE',  ( 11.85022793929196894, 2.294282644722034359, 1.451234371502044331E-15 ) ) ;
#432 = ORIENTED_EDGE ( 'NONE', *, *, #450, .F. ) ;
#433 = ADVANCED_FACE ( 'NONE', ( #546 ), #601, .T. ) ;
#434 = DIRECTION ( 'NONE',  ( 0.000000000000000000, 1.000000000000000000, 0.000000000000000000 ) ) ;
#435 = VECTOR ( 'NONE', #411, 1000.000000000000000 ) ;
#436 = VECTOR ( 'NONE', #735, 1000.000000000000000 ) ;
#437 = CARTESIAN_POINT ( 'NONE',  ( -3.741657386773931115, 7.300000000000000711, -6.500000000000005329 ) ) ;
#438 = VECTOR ( 'NONE', #47, 1000.000000000000000 ) ;
#439 = STYLED_ITEM ( 'NONE', ( #445 ), #480 ) ;
#440 = ADVANCED_FACE ( 'NONE', ( #365 ), #206, .F. ) ;
#441 = VERTEX_POINT ( 'NONE', #431 ) ;
#442 = DIRECTION ( 'NONE',  ( -0.000000000000000000, 1.000000000000000000, 0.000000000000000000 ) ) ;
#443 = CARTESIAN_POINT ( 'NONE',  ( -3.752776749732568806, 7.300000000000000711, 6.500000000000002665 ) ) ;
#444 = ORIENTED_EDGE ( 'NONE', *, *, #10, .F. ) ;
#445 = PRESENTATION_STYLE_ASSIGNMENT (( #449 ) ) ;
#446 = DIRECTION ( 'NONE',  ( 0.000000000000000000, 1.000000000000000000, 0.000000000000000000 ) ) ;
#447 = DIRECTION ( 'NONE',  ( 0.000000000000000000, -0.000000000000000000, 1.000000000000000000 ) ) ;
#448 = VERTEX_POINT ( 'NONE', #664 ) ;
#449 = SURFACE_STYLE_USAGE ( .BOTH. , #223 ) ;
#450 = EDGE_CURVE ( 'NONE', #387, #509, #153, .T. ) ;
#451 = DIRECTION ( 'NONE',  ( -1.000000000000000000, -1.316824515212208976E-17, 0.000000000000000000 ) ) ;
#452 = LINE ( 'NONE', #228, #51 ) ;
#453 = CIRCLE ( 'NONE', #740, 7.500000000000000000 ) ;
#454 = ORIENTED_EDGE ( 'NONE', *, *, #496, .T. ) ;
#455 = VECTOR ( 'NONE', #673, 1000.000000000000000 ) ;
#456 = CARTESIAN_POINT ( 'NONE',  ( 7.960204194457793505E-16, 7.300000000000000711, -7.500000000000000000 ) ) ;
#457 = CARTESIAN_POINT ( 'NONE',  ( -1.224646799147354440E-16, 7.300000000000000711, 0.000000000000000000 ) ) ;
#458 = DIRECTION ( 'NONE',  ( 0.000000000000000000, -0.000000000000000000, 1.000000000000000000 ) ) ;
#459 = ORIENTED_EDGE ( 'NONE', *, *, #320, .F. ) ;
#460 = DIRECTION ( 'NONE',  ( 0.000000000000000000, 0.000000000000000000, 1.000000000000000000 ) ) ;
#461 = LINE ( 'NONE', #242, #378 ) ;
#462 = EDGE_CURVE ( 'NONE', #130, #448, #250, .T. ) ;
#463 = VERTEX_POINT ( 'NONE', #96 ) ;
#464 = DIRECTION ( 'NONE',  ( -1.000000000000000000, 0.000000000000000000, 1.155626614413199577E-16 ) ) ;
#465 = ORIENTED_EDGE ( 'NONE', *, *, #551, .F. ) ;
#466 = CONICAL_SURFACE ( 'NONE', #353, 11.85022793929196894, 0.8930461460400942464 ) ;
#467 = CARTESIAN_POINT ( 'NONE',  ( -1.224646799147354440E-16, 7.300000000000000711, 7.500000000000000000 ) ) ;
#468 = VECTOR ( 'NONE', #706, 1000.000000000000000 ) ;
#469 = EDGE_LOOP ( 'NONE', ( #122, #60, #158 ) ) ;
#470 = DIRECTION ( 'NONE',  ( -0.000000000000000000, 1.000000000000000000, -0.000000000000000000 ) ) ;
#471 = ORIENTED_EDGE ( 'NONE', *, *, #752, .F. ) ;
#472 = DIRECTION ( 'NONE',  ( 0.000000000000000000, -0.000000000000000000, 1.000000000000000000 ) ) ;
#473 = ORIENTED_EDGE ( 'NONE', *, *, #703, .F. ) ;
#474 = CIRCLE ( 'NONE', #222, 7.500000000000000000 ) ;
#475 = VECTOR ( 'NONE', #344, 1000.000000000000000 ) ;
#476 = VECTOR ( 'NONE', #272, 1000.000000000000114 ) ;
#477 = CARTESIAN_POINT ( 'NONE',  ( 3.752776749732563477, 0.5000000000000013323, -6.500000000000005329 ) ) ;
#478 = VERTEX_POINT ( 'NONE', #556 ) ;
#479 = CARTESIAN_POINT ( 'NONE',  ( 7.960204194457793505E-16, 9.300000000000000711, -7.500000000000000000 ) ) ;
#480 = MANIFOLD_SOLID_BREP ( 'Taglio-Estrusione2', #53 ) ;
#481 = SHAPE_DEFINITION_REPRESENTATION ( #144, #520 ) ;
#482 = ORIENTED_EDGE ( 'NONE', *, *, #240, .T. ) ;
#483 = EDGE_CURVE ( 'NONE', #387, #695, #99, .T. ) ;
#484 = FILL_AREA_STYLE_COLOUR ( '', #417 ) ;
#485 = APPLICATION_CONTEXT ( 'automotive_design' ) ;
#486 = DIRECTION ( 'NONE',  ( 0.000000000000000000, 1.000000000000000000, 0.000000000000000000 ) ) ;
#487 = EDGE_CURVE ( 'NONE', #637, #649, #402, .T. ) ;
#488 = DIRECTION ( 'NONE',  ( -0.4999999999999996114, 0.000000000000000000, 0.8660254037844389297 ) ) ;
#489 = VECTOR ( 'NONE', #100, 1000.000000000000000 ) ;
#490 = AXIS2_PLACEMENT_3D ( 'NONE', #318, #552, #451 ) ;
#491 = EDGE_LOOP ( 'NONE', ( #597, #482, #415, #370, #653, #665 ) ) ;
#492 = DIRECTION ( 'NONE',  ( -0.000000000000000000, 1.000000000000000000, 0.000000000000000000 ) ) ;
#493 = EDGE_CURVE ( 'NONE', #83, #563, #284, .T. ) ;
#494 = ORIENTED_EDGE ( 'NONE', *, *, #115, .F. ) ;
#495 = FACE_OUTER_BOUND ( 'NONE', #580, .T. ) ;
#496 = EDGE_CURVE ( 'NONE', #24, #504, #474, .T. ) ;
#497 = CARTESIAN_POINT ( 'NONE',  ( -1.224646799147354440E-16, 9.300000000000000711, 0.000000000000000000 ) ) ;
#498 = CARTESIAN_POINT ( 'NONE',  ( -3.752776749732568806, 7.300000000000000711, 6.500000000000002665 ) ) ;
#499 = CONICAL_SURFACE ( 'NONE', #14, 17.50000000000000000, 0.6786624907483123081 ) ;
#500 = DIRECTION ( 'NONE',  ( -0.000000000000000000, 1.000000000000000000, -0.000000000000000000 ) ) ;
#501 = EDGE_LOOP ( 'NONE', ( #180, #314, #710 ) ) ;
#502 = DIRECTION ( 'NONE',  ( 0.5000000000000001110, 0.000000000000000000, 0.8660254037844385966 ) ) ;
#503 = DIRECTION ( 'NONE',  ( -1.155626614413199577E-16, 0.000000000000000000, -1.000000000000000000 ) ) ;
#504 = VERTEX_POINT ( 'NONE', #733 ) ;
#505 = EDGE_CURVE ( 'NONE', #533, #463, #232, .T. ) ;
#506 = CARTESIAN_POINT ( 'NONE',  ( -1.224646799147354440E-16, 7.300000000000000711, 0.000000000000000000 ) ) ;
#507 = CARTESIAN_POINT ( 'NONE',  ( -3.758336431211889206, 7.300000000000000711, -6.490370349203925748 ) ) ;
#508 = CARTESIAN_POINT ( 'NONE',  ( 3.752776749732563477, 7.300000000000000711, -6.500000000000005329 ) ) ;
#509 = VERTEX_POINT ( 'NONE', #170 ) ;
#510 = CARTESIAN_POINT ( 'NONE',  ( -17.50000000000000000, 9.300000000000000711, 0.000000000000000000 ) ) ;
#511 = EDGE_CURVE ( 'NONE', #504, #208, #630, .T. ) ;
#512 = DIRECTION ( 'NONE',  ( -1.000000000000000000, 0.000000000000000000, 1.155626614413199577E-16 ) ) ;
#513 = CARTESIAN_POINT ( 'NONE',  ( 7.499993817985821210, 7.300000000000000711, -0.009629650796073609825 ) ) ;
#514 = ORIENTED_EDGE ( 'NONE', *, *, #715, .F. ) ;
#515 = DIRECTION ( 'NONE',  ( -0.000000000000000000, 1.000000000000000000, -0.000000000000000000 ) ) ;
#516 = EDGE_CURVE ( 'NONE', #234, #135, #111, .T. ) ;
#517 = DIRECTION ( 'NONE',  ( 1.000000000000000000, 0.000000000000000000, 0.000000000000000000 ) ) ;
#518 = CARTESIAN_POINT ( 'NONE',  ( -1.224646799147354440E-16, 7.300000000000000711, 0.000000000000000000 ) ) ;
#519 = ORIENTED_EDGE ( 'NONE', *, *, #131, .F. ) ;
#520 = ADVANCED_BREP_SHAPE_REPRESENTATION ( 'ARP-0083', ( #480, #225 ), #342 ) ;
#521 = CARTESIAN_POINT ( 'NONE',  ( -3.741657386773936889, 7.300000000000000711, 6.500000000000002665 ) ) ;
#522 = ADVANCED_FACE ( 'NONE', ( #388 ), #57, .T. ) ;
#523 = DIRECTION ( 'NONE',  ( 0.000000000000000000, 0.000000000000000000, 1.000000000000000000 ) ) ;
#524 = EDGE_LOOP ( 'NONE', ( #701, #63, #629, #410 ) ) ;
#525 = CARTESIAN_POINT ( 'NONE',  ( -1.224646799147354440E-16, 9.300000000000000711, 0.000000000000000000 ) ) ;
#526 = VECTOR ( 'NONE', #753, 1000.000000000000000 ) ;
#527 = ORIENTED_EDGE ( 'NONE', *, *, #603, .F. ) ;
#528 = AXIS2_PLACEMENT_3D ( 'NONE', #589, #360, #76 ) ;
#529 = DIRECTION ( 'NONE',  ( 0.000000000000000000, 1.000000000000000000, 0.000000000000000000 ) ) ;
#530 = VECTOR ( 'NONE', #604, 1000.000000000000114 ) ;
#531 = ORIENTED_EDGE ( 'NONE', *, *, #7, .F. ) ;
#532 = FACE_OUTER_BOUND ( 'NONE', #501, .T. ) ;
#533 = VERTEX_POINT ( 'NONE', #521 ) ;
#534 = CARTESIAN_POINT ( 'NONE',  ( 7.505553499465134948, 0.5000000000000013323, -3.390189415965701904E-15 ) ) ;
#535 = ORIENTED_EDGE ( 'NONE', *, *, #219, .T. ) ;
#536 = AXIS2_PLACEMENT_3D ( 'NONE', #525, #529, #581 ) ;
#537 = PRODUCT_DEFINITION_FORMATION_WITH_SPECIFIED_SOURCE ( 'TUTTO', '', #181, .NOT_KNOWN. ) ;
#538 = VECTOR ( 'NONE', #727, 1000.000000000000114 ) ;
#539 = DIRECTION ( 'NONE',  ( -0.4999999999999996114, 0.000000000000000000, 0.8660254037844389297 ) ) ;
#540 = ADVANCED_FACE ( 'NONE', ( #107 ), #615, .F. ) ;
#541 = ORIENTED_EDGE ( 'NONE', *, *, #590, .T. ) ;
#542 = LINE ( 'NONE', #254, #25 ) ;
#543 = CARTESIAN_POINT ( 'NONE',  ( 3.741657386773929783, 7.300000000000000711, -6.500000000000005329 ) ) ;
#544 = LINE ( 'NONE', #373, #558 ) ;
#545 = ORIENTED_EDGE ( 'NONE', *, *, #662, .F. ) ;
#546 = FACE_OUTER_BOUND ( 'NONE', #602, .T. ) ;
#547 = VECTOR ( 'NONE', #515, 1000.000000000000000 ) ;
#548 = AXIS2_PLACEMENT_3D ( 'NONE', #332, #409, #458 ) ;
#549 = ORIENTED_EDGE ( 'NONE', *, *, #160, .F. ) ;
#550 = DIRECTION ( 'NONE',  ( 0.000000000000000000, -0.000000000000000000, 1.000000000000000000 ) ) ;
#551 = EDGE_CURVE ( 'NONE', #563, #175, #218, .T. ) ;
#552 = DIRECTION ( 'NONE',  ( -1.316824515212208822E-17, 1.000000000000000000, -0.000000000000000000 ) ) ;
#553 = DIRECTION ( 'NONE',  ( 0.000000000000000000, 1.000000000000000000, 0.000000000000000000 ) ) ;
#554 = DIRECTION ( 'NONE',  ( -1.316824515212208822E-17, 1.000000000000000000, -0.000000000000000000 ) ) ;
#555 = ORIENTED_EDGE ( 'NONE', *, *, #672, .T. ) ;
#556 = CARTESIAN_POINT ( 'NONE',  ( 3.752776749732563477, 0.5000000000000013323, -6.500000000000005329 ) ) ;
#557 = DIRECTION ( 'NONE',  ( 0.000000000000000000, 0.000000000000000000, 1.000000000000000000 ) ) ;
#558 = VECTOR ( 'NONE', #488, 1000.000000000000000 ) ;
#559 = EDGE_CURVE ( 'NONE', #441, #119, #177, .T. ) ;
#560 = ORIENTED_EDGE ( 'NONE', *, *, #625, .T. ) ;
#561 = DIRECTION ( 'NONE',  ( 0.000000000000000000, 0.000000000000000000, 1.000000000000000000 ) ) ;
#562 = FACE_OUTER_BOUND ( 'NONE', #524, .T. ) ;
#563 = VERTEX_POINT ( 'NONE', #635 ) ;
#564 = DIRECTION ( 'NONE',  ( 0.000000000000000000, -0.000000000000000000, 1.000000000000000000 ) ) ;
#565 = CARTESIAN_POINT ( 'NONE',  ( -11.85022793929196894, 2.294282644722034359, 0.000000000000000000 ) ) ;
#566 = DIRECTION ( 'NONE',  ( -1.000000000000000000, 0.000000000000000000, 0.000000000000000000 ) ) ;
#567 = VERTEX_POINT ( 'NONE', #510 ) ;
#568 = DIRECTION ( 'NONE',  ( 1.000000000000000000, 0.000000000000000000, 0.000000000000000000 ) ) ;
#569 = ADVANCED_FACE ( 'NONE', ( #120 ), #729, .F. ) ;
#570 = DIRECTION ( 'NONE',  ( 0.000000000000000000, 1.000000000000000000, 0.000000000000000000 ) ) ;
#571 = CARTESIAN_POINT ( 'NONE',  ( -3.021167631395877343E-17, 2.294282644722034359, 0.000000000000000000 ) ) ;
#572 = VECTOR ( 'NONE', #112, 1000.000000000000000 ) ;
#573 = ORIENTED_EDGE ( 'NONE', *, *, #650, .F. ) ;
#574 = EDGE_CURVE ( 'NONE', #463, #31, #685, .T. ) ;
#575 = DIRECTION ( 'NONE',  ( -0.000000000000000000, 1.000000000000000000, 0.000000000000000000 ) ) ;
#576 = PRODUCT_DEFINITION_CONTEXT ( 'detailed design', #147, 'design' ) ;
#577 = ORIENTED_EDGE ( 'NONE', *, *, #612, .T. ) ;
#578 = DIRECTION ( 'NONE',  ( 0.000000000000000000, 1.000000000000000000, 0.000000000000000000 ) ) ;
#579 = DIRECTION ( 'NONE',  ( 0.000000000000000000, -0.000000000000000000, 1.000000000000000000 ) ) ;
#580 = EDGE_LOOP ( 'NONE', ( #187, #560 ) ) ;
#581 = DIRECTION ( 'NONE',  ( 0.000000000000000000, 0.000000000000000000, 1.000000000000000000 ) ) ;
#582 = EDGE_LOOP ( 'NONE', ( #297, #205, #610, #655 ) ) ;
#583 = EDGE_CURVE ( 'NONE', #337, #640, #699, .T. ) ;
#584 = CARTESIAN_POINT ( 'NONE',  ( -1.224646799147354440E-16, 7.300000000000000711, 0.000000000000000000 ) ) ;
#585 = FACE_OUTER_BOUND ( 'NONE', #95, .T. ) ;
#586 = ORIENTED_EDGE ( 'NONE', *, *, #639, .F. ) ;
#587 = LINE ( 'NONE', #340, #209 ) ;
#588 = APPLICATION_PROTOCOL_DEFINITION ( 'draft international standard', 'automotive_design', 1998, #485 ) ;
#589 = CARTESIAN_POINT ( 'NONE',  ( -1.224646799147354440E-16, 7.300000000000000711, 0.000000000000000000 ) ) ;
#590 = EDGE_CURVE ( 'NONE', #40, #83, #295, .T. ) ;
#591 = DIRECTION ( 'NONE',  ( 0.000000000000000000, 1.000000000000000000, 0.000000000000000000 ) ) ;
#592 = VERTEX_POINT ( 'NONE', #64 ) ;
#593 = CIRCLE ( 'NONE', #257, 11.85022793929196894 ) ;
#594 = CIRCLE ( 'NONE', #426, 7.500000000000000000 ) ;
#595 = DIRECTION ( 'NONE',  ( 0.4999999999999996114, 0.000000000000000000, -0.8660254037844389297 ) ) ;
#596 = ADVANCED_FACE ( 'NONE', ( #696 ), #235, .F. ) ;
#597 = ORIENTED_EDGE ( 'NONE', *, *, #213, .T. ) ;
#598 = SURFACE_STYLE_FILL_AREA ( #711 ) ;
#599 = ORIENTED_EDGE ( 'NONE', *, *, #505, .F. ) ;
#600 = ORIENTED_EDGE ( 'NONE', *, *, #697, .T. ) ;
#601 = PLANE ( 'NONE',  #152 ) ;
#602 = EDGE_LOOP ( 'NONE', ( #49, #217, #383, #197, #541, #671 ) ) ;
#603 = EDGE_CURVE ( 'NONE', #208, #640, #605, .T. ) ;
#604 = DIRECTION ( 'NONE',  ( 0.5000000000000001110, 0.000000000000000000, 0.8660254037844385966 ) ) ;
#605 = CIRCLE ( 'NONE', #536, 7.500000000000000000 ) ;
#606 = CONICAL_SURFACE ( 'NONE', #668, 17.50000000000000000, 0.6786624907483123081 ) ;
#607 = CARTESIAN_POINT ( 'NONE',  ( 3.752776749732568362, 0.5000000000000013323, 6.500000000000002665 ) ) ;
#608 = DIRECTION ( 'NONE',  ( 0.4999999999999996114, 0.000000000000000000, -0.8660254037844389297 ) ) ;
#609 = FACE_OUTER_BOUND ( 'NONE', #692, .T. ) ;
#610 = ORIENTED_EDGE ( 'NONE', *, *, #71, .T. ) ;
#611 = CARTESIAN_POINT ( 'NONE',  ( -7.505553499465137612, 0.5000000000000013323, 8.672939753526197519E-16 ) ) ;
#612 = EDGE_CURVE ( 'NONE', #592, #31, #126, .T. ) ;
#613 = LINE ( 'NONE', #322, #739 ) ;
#614 = ORIENTED_EDGE ( 'NONE', *, *, #625, .F. ) ;
#615 = PLANE ( 'NONE',  #313 ) ;
#616 = CIRCLE ( 'NONE', #65, 7.500000000000000000 ) ;
#617 = ADVANCED_FACE ( 'NONE', ( #239 ), #61, .T. ) ;
#618 = CARTESIAN_POINT ( 'NONE',  ( 11.85022793929196894, 2.294282644722034359, 1.451234371502044331E-15 ) ) ;
#619 = CARTESIAN_POINT ( 'NONE',  ( -3.752776749732568806, 0.5000000000000013323, 6.500000000000002665 ) ) ;
#620 = ORIENTED_EDGE ( 'NONE', *, *, #356, .F. ) ;
#621 = DIRECTION ( 'NONE',  ( -0.000000000000000000, 1.000000000000000000, -0.000000000000000000 ) ) ;
#622 = CARTESIAN_POINT ( 'NONE',  ( 2.407412430484044816E-32, -1.734723475976807094E-15, 0.000000000000000000 ) ) ;
#623 = CARTESIAN_POINT ( 'NONE',  ( 3.752776749732563477, 7.300000000000000711, -6.500000000000005329 ) ) ;
#624 = ORIENTED_EDGE ( 'NONE', *, *, #45, .F. ) ;
#625 = EDGE_CURVE ( 'NONE', #175, #234, #283, .T. ) ;
#626 = DIRECTION ( 'NONE',  ( 0.000000000000000000, 0.000000000000000000, 1.000000000000000000 ) ) ;
#627 = CARTESIAN_POINT ( 'NONE',  ( 3.752776749732563477, 7.300000000000000711, -6.500000000000005329 ) ) ;
#628 = DIRECTION ( 'NONE',  ( 0.000000000000000000, 1.000000000000000000, 0.000000000000000000 ) ) ;
#629 = ORIENTED_EDGE ( 'NONE', *, *, #662, .T. ) ;
#630 = LINE ( 'NONE', #456, #236 ) ;
#631 = DIRECTION ( 'NONE',  ( 0.000000000000000000, 0.000000000000000000, 1.000000000000000000 ) ) ;
#632 = CONICAL_SURFACE ( 'NONE', #269, 11.85022793929196894, 0.8930461460400942464 ) ;
#633 = VERTEX_POINT ( 'NONE', #298 ) ;
#634 = AXIS2_PLACEMENT_3D ( 'NONE', #191, #591, #307 ) ;
#635 = CARTESIAN_POINT ( 'NONE',  ( -7.505553499465137612, 7.300000000000000711, 8.672939753526197519E-16 ) ) ;
#636 =( NAMED_UNIT ( * ) SI_UNIT ( $, .STERADIAN. ) SOLID_ANGLE_UNIT ( ) );
#637 = VERTEX_POINT ( 'NONE', #4 ) ;
#638 = CARTESIAN_POINT ( 'NONE',  ( -1.224646799147354440E-16, 7.300000000000000711, 0.000000000000000000 ) ) ;
#639 = EDGE_CURVE ( 'NONE', #695, #637, #174, .T. ) ;
#640 = VERTEX_POINT ( 'NONE', #168 ) ;
#641 = CARTESIAN_POINT ( 'NONE',  ( 3.752776749732568362, 0.5000000000000013323, 6.500000000000002665 ) ) ;
#642 = DIRECTION ( 'NONE',  ( -0.4999999999999996114, 0.000000000000000000, 0.8660254037844389297 ) ) ;
#643 = EDGE_CURVE ( 'NONE', #649, #24, #233, .T. ) ;
#644 = VECTOR ( 'NONE', #745, 1000.000000000000114 ) ;
#645 = ORIENTED_EDGE ( 'NONE', *, *, #173, .T. ) ;
#646 = CIRCLE ( 'NONE', #391, 11.85022793929196894 ) ;
#647 = CIRCLE ( 'NONE', #634, 7.500000000000000000 ) ;
#648 = LINE ( 'NONE', #627, #38 ) ;
#649 = VERTEX_POINT ( 'NONE', #390 ) ;
#650 = EDGE_CURVE ( 'NONE', #640, #208, #375, .T. ) ;
#651 = DIRECTION ( 'NONE',  ( -1.000000000000000000, 0.000000000000000000, 0.000000000000000000 ) ) ;
#652 = VERTEX_POINT ( 'NONE', #619 ) ;
#653 = ORIENTED_EDGE ( 'NONE', *, *, #590, .F. ) ;
#654 = DIRECTION ( 'NONE',  ( 1.000000000000000000, 1.316824515212208822E-17, 0.000000000000000000 ) ) ;
#655 = ORIENTED_EDGE ( 'NONE', *, *, #708, .F. ) ;
#656 = AXIS2_PLACEMENT_3D ( 'NONE', #291, #184, #349 ) ;
#657 = CIRCLE ( 'NONE', #37, 7.500000000000000000 ) ;
#658 = PRESENTATION_LAYER_ASSIGNMENT (  '', '', ( #439 ) ) ;
#659 = FACE_OUTER_BOUND ( 'NONE', #70, .T. ) ;
#660 = DIRECTION ( 'NONE',  ( -1.316824515212208822E-17, 1.000000000000000000, -0.000000000000000000 ) ) ;
#661 = FACE_BOUND ( 'NONE', #238, .T. ) ;
#662 = EDGE_CURVE ( 'NONE', #183, #567, #743, .T. ) ;
#663 = ORIENTED_EDGE ( 'NONE', *, *, #703, .T. ) ;
#664 = CARTESIAN_POINT ( 'NONE',  ( -7.499993817985821210, 7.300000000000000711, -0.009629650796075597818 ) ) ;
#665 = ORIENTED_EDGE ( 'NONE', *, *, #59, .T. ) ;
#666 =( GEOMETRIC_REPRESENTATION_CONTEXT ( 3 ) GLOBAL_UNCERTAINTY_ASSIGNED_CONTEXT ( ( #396 ) ) GLOBAL_UNIT_ASSIGNED_CONTEXT ( ( #271, #277, #41 ) ) REPRESENTATION_CONTEXT ( 'NONE', 'WORKASPACE' ) );
#667 = DIRECTION ( 'NONE',  ( 0.000000000000000000, -0.000000000000000000, 1.000000000000000000 ) ) ;
#668 = AXIS2_PLACEMENT_3D ( 'NONE', #497, #34, #730 ) ;
#669 = VECTOR ( 'NONE', #608, 1000.000000000000000 ) ;
#670 = DIRECTION ( 'NONE',  ( -0.7789854202902849467, 0.6270420360511471669, 0.000000000000000000 ) ) ;
#671 = ORIENTED_EDGE ( 'NONE', *, *, #131, .T. ) ;
#672 = EDGE_CURVE ( 'NONE', #478, #649, #452, .T. ) ;
#673 = DIRECTION ( 'NONE',  ( -0.000000000000000000, 1.000000000000000000, -0.000000000000000000 ) ) ;
#674 = CARTESIAN_POINT ( 'NONE',  ( -7.505553499465137612, 0.5000000000000013323, 8.672939753526197519E-16 ) ) ;
#675 = ORIENTED_EDGE ( 'NONE', *, *, #511, .F. ) ;
#676 = CARTESIAN_POINT ( 'NONE',  ( -3.752776749732571027, 0.5000000000000013323, -6.500000000000005329 ) ) ;
#677 = ADVANCED_FACE ( 'NONE', ( #347 ), #216, .T. ) ;
#678 = FACE_OUTER_BOUND ( 'NONE', #27, .T. ) ;
#679 = DIRECTION ( 'NONE',  ( -1.000000000000000000, 0.000000000000000000, 0.000000000000000000 ) ) ;
#680 = ORIENTED_EDGE ( 'NONE', *, *, #138, .F. ) ;
#681 = DIRECTION ( 'NONE',  ( -1.000000000000000000, 0.000000000000000000, 0.000000000000000000 ) ) ;
#682 = VECTOR ( 'NONE', #642, 1000.000000000000000 ) ;
#683 = CARTESIAN_POINT ( 'NONE',  ( -1.224646799147354440E-16, 7.300000000000000711, 0.000000000000000000 ) ) ;
#684 = ORIENTED_EDGE ( 'NONE', *, *, #505, .T. ) ;
#685 = LINE ( 'NONE', #398, #86 ) ;
#686 = CARTESIAN_POINT ( 'NONE',  ( -3.758336431211882989, 7.300000000000000711, 6.490370349203930189 ) ) ;
#687 = CARTESIAN_POINT ( 'NONE',  ( -1.224646799147354440E-16, 9.300000000000000711, 0.000000000000000000 ) ) ;
#688 = ORIENTED_EDGE ( 'NONE', *, *, #462, .T. ) ;
#689 = CARTESIAN_POINT ( 'NONE',  ( -3.752776749732568806, 7.300000000000000711, 6.500000000000002665 ) ) ;
#690 = CARTESIAN_POINT ( 'NONE',  ( -7.499993817985822986, 7.300000000000000711, 0.009629650796075597818 ) ) ;
#691 = DIRECTION ( 'NONE',  ( -1.316824515212208822E-17, 1.000000000000000000, -0.000000000000000000 ) ) ;
#692 = EDGE_LOOP ( 'NONE', ( #98, #243 ) ) ;
#693 = CARTESIAN_POINT ( 'NONE',  ( -7.505553499465137612, 7.300000000000000711, 8.672939753526197519E-16 ) ) ;
#694 = CARTESIAN_POINT ( 'NONE',  ( -1.224646799147354440E-16, 7.300000000000000711, 0.000000000000000000 ) ) ;
#695 = VERTEX_POINT ( 'NONE', #513 ) ;
#696 = FACE_OUTER_BOUND ( 'NONE', #300, .T. ) ;
#697 = EDGE_CURVE ( 'NONE', #533, #337, #616, .T. ) ;
#698 = ORIENTED_EDGE ( 'NONE', *, *, #516, .T. ) ;
#699 = LINE ( 'NONE', #467, #189 ) ;
#700 = PRODUCT_CONTEXT ( 'NONE', #485, 'mechanical' ) ;
#701 = ORIENTED_EDGE ( 'NONE', *, *, #559, .F. ) ;
#702 = PLANE ( 'NONE',  #247 ) ;
#703 = EDGE_CURVE ( 'NONE', #567, #119, #75, .T. ) ;
#704 = VECTOR ( 'NONE', #289, 1000.000000000000227 ) ;
#705 = VERTEX_POINT ( 'NONE', #750 ) ;
#706 = DIRECTION ( 'NONE',  ( -1.000000000000000000, 0.000000000000000000, 1.155626614413199577E-16 ) ) ;
#707 = ORIENTED_EDGE ( 'NONE', *, *, #213, .F. ) ;
#708 = EDGE_CURVE ( 'NONE', #441, #183, #593, .T. ) ;
#709 = LINE ( 'NONE', #74, #572 ) ;
#710 = ORIENTED_EDGE ( 'NONE', *, *, #516, .F. ) ;
#711 = FILL_AREA_STYLE ('',( #484 ) ) ;
#712 = DIRECTION ( 'NONE',  ( 0.000000000000000000, 0.000000000000000000, 1.000000000000000000 ) ) ;
#713 = AXIS2_PLACEMENT_3D ( 'NONE', #422, #364, #308 ) ;
#714 = LINE ( 'NONE', #202, #530 ) ;
#715 = EDGE_CURVE ( 'NONE', #85, #130, #453, .T. ) ;
#716 = CARTESIAN_POINT ( 'NONE',  ( -1.224646799147354440E-16, 7.300000000000000711, 0.000000000000000000 ) ) ;
#717 = DIRECTION ( 'NONE',  ( -0.000000000000000000, 1.000000000000000000, 0.000000000000000000 ) ) ;
#718 = ORIENTED_EDGE ( 'NONE', *, *, #320, .T. ) ;
#719 = CARTESIAN_POINT ( 'NONE',  ( 0.000000000000000000, 0.5000000000000013323, 0.000000000000000000 ) ) ;
#720 = ADVANCED_FACE ( 'NONE', ( #403 ), #55, .F. ) ;
#721 = DIRECTION ( 'NONE',  ( 0.000000000000000000, 0.000000000000000000, 1.000000000000000000 ) ) ;
#722 = ADVANCED_FACE ( 'NONE', ( #395 ), #105, .F. ) ;
#723 = EDGE_LOOP ( 'NONE', ( #262, #645, #624, #221 ) ) ;
#724 = PLANE ( 'NONE',  #316 ) ;
#725 = CIRCLE ( 'NONE', #179, 7.500000000000000000 ) ;
#726 = CIRCLE ( 'NONE', #408, 7.500000000000000000 ) ;
#727 = DIRECTION ( 'NONE',  ( 0.5000000000000001110, 0.000000000000000000, 0.8660254037844385966 ) ) ;
#728 = ORIENTED_EDGE ( 'NONE', *, *, #194, .F. ) ;
#729 = PLANE ( 'NONE',  #11 ) ;
#730 = DIRECTION ( 'NONE',  ( -1.000000000000000000, 0.000000000000000000, 0.000000000000000000 ) ) ;
#731 = CARTESIAN_POINT ( 'NONE',  ( 0.000000000000000000, 7.300000000000000711, 0.000000000000000000 ) ) ;
#732 = ORIENTED_EDGE ( 'NONE', *, *, #752, .T. ) ;
#733 = CARTESIAN_POINT ( 'NONE',  ( 7.960204194457793505E-16, 7.300000000000000711, -7.500000000000000000 ) ) ;
#734 = LINE ( 'NONE', #565, #315 ) ;
#735 = DIRECTION ( 'NONE',  ( -1.000000000000000000, 0.000000000000000000, 1.155626614413199577E-16 ) ) ;
#736 = EDGE_LOOP ( 'NONE', ( #663, #397 ) ) ;
#737 = DIRECTION ( 'NONE',  ( -0.5000000000000003331, 0.000000000000000000, -0.8660254037844384856 ) ) ;
#738 = ADVANCED_FACE ( 'NONE', ( #562 ), #499, .T. ) ;
#739 = VECTOR ( 'NONE', #279, 1000.000000000000000 ) ;
#740 = AXIS2_PLACEMENT_3D ( 'NONE', #683, #118, #631 ) ;
#741 = LINE ( 'NONE', #108, #438 ) ;
#742 = AXIS2_PLACEMENT_3D ( 'NONE', #261, #369, #28 ) ;
#743 = LINE ( 'NONE', #113, #475 ) ;
#744 = EDGE_LOOP ( 'NONE', ( #599, #600, #258 ) ) ;
#745 = DIRECTION ( 'NONE',  ( 0.5000000000000001110, 0.000000000000000000, 0.8660254037844385966 ) ) ;
#746 = CARTESIAN_POINT ( 'NONE',  ( -1.224646799147354440E-16, 7.300000000000000711, 0.000000000000000000 ) ) ;
#747 = DIRECTION ( 'NONE',  ( -1.000000000000000000, 0.000000000000000000, 0.000000000000000000 ) ) ;
#748 = ORIENTED_EDGE ( 'NONE', *, *, #450, .T. ) ;
#749 = CARTESIAN_POINT ( 'NONE',  ( -7.505553499465137612, 0.5000000000000013323, 8.672939753526197519E-16 ) ) ;
#750 = CARTESIAN_POINT ( 'NONE',  ( -9.000000000000000000, -1.853237682345906019E-15, 0.000000000000000000 ) ) ;
#751 = ORIENTED_EDGE ( 'NONE', *, *, #7, .T. ) ;
#752 = EDGE_CURVE ( 'NONE', #85, #231, #109, .T. ) ;
#753 = DIRECTION ( 'NONE',  ( -0.000000000000000000, 1.000000000000000000, -0.000000000000000000 ) ) ;
ENDSEC;
END-ISO-10303-21;
