ISO-10303-21;
HEADER;
FILE_DESCRIPTION (( 'STEP AP214' ),
    '1' );
FILE_NAME ('ARP-0089.STEP',
    '2026-09-03T08:56:39',
    ( '' ),
    ( '' ),
    'SwSTEP 2.0',
    'SolidWorks 2024',
    '' );
FILE_SCHEMA (( 'AUTOMOTIVE_DESIGN' ));
ENDSEC;

DATA;
#1 = APPLICATION_CONTEXT ( 'automotive_design' ) ;
#2 = CARTESIAN_POINT ( 'NONE',  ( -15.50000000000000355, 0.000000000000000000, -17.75000000000000355 ) ) ;
#3 = ADVANCED_FACE ( 'NONE', ( #831 ), #1121, .F. ) ;
#4 = ORIENTED_EDGE ( 'NONE', *, *, #59, .F. ) ;
#5 = FACE_OUTER_BOUND ( 'NONE', #979, .T. ) ;
#6 = AXIS2_PLACEMENT_3D ( 'NONE', #399, #854, #1156 ) ;
#7 = ORIENTED_EDGE ( 'NONE', *, *, #323, .T. ) ;
#8 = PLANE ( 'NONE',  #1095 ) ;
#9 = AXIS2_PLACEMENT_3D ( 'NONE', #607, #988, #996 ) ;
#10 = PLANE ( 'NONE',  #1133 ) ;
#11 = VERTEX_POINT ( 'NONE', #269 ) ;
#12 = DIRECTION ( 'NONE',  ( 0.000000000000000000, 1.000000000000000000, 0.000000000000000000 ) ) ;
#13 = EDGE_LOOP ( 'NONE', ( #345, #1019 ) ) ;
#14 = DIRECTION ( 'NONE',  ( -0.000000000000000000, 1.000000000000000000, -0.000000000000000000 ) ) ;
#15 = EDGE_CURVE ( 'NONE', #1001, #552, #1005, .T. ) ;
#16 = CARTESIAN_POINT ( 'NONE',  ( -15.50000000000000355, 0.000000000000000000, 17.75000000000000355 ) ) ;
#17 = EDGE_LOOP ( 'NONE', ( #1113, #631, #530, #764, #561, #319, #445 ) ) ;
#18 = CYLINDRICAL_SURFACE ( 'NONE', #206, 2.250000000000001776 ) ;
#19 = DIRECTION ( 'NONE',  ( 0.000000000000000000, -1.000000000000000000, 0.000000000000000000 ) ) ;
#20 = EDGE_CURVE ( 'NONE', #275, #1083, #60, .T. ) ;
#21 = LINE ( 'NONE', #757, #318 ) ;
#22 = VERTEX_POINT ( 'NONE', #367 ) ;
#23 = LINE ( 'NONE', #759, #919 ) ;
#24 = CARTESIAN_POINT ( 'NONE',  ( 40.14999999999999147, 13.00000000000000533, 2.371092282490362635 ) ) ;
#25 = CIRCLE ( 'NONE', #612, 2.250000000000001776 ) ;
#26 = AXIS2_PLACEMENT_3D ( 'NONE', #315, #110, #471 ) ;
#27 = ADVANCED_FACE ( 'NONE', ( #821 ), #933, .F. ) ;
#28 = AXIS2_PLACEMENT_3D ( 'NONE', #203, #663, #470 ) ;
#29 = ORIENTED_EDGE ( 'NONE', *, *, #899, .F. ) ;
#30 = PLANE ( 'NONE',  #696 ) ;
#31 = ORIENTED_EDGE ( 'NONE', *, *, #20, .F. ) ;
#32 = CYLINDRICAL_SURFACE ( 'NONE', #1115, 10.00000000000000000 ) ;
#33 = EDGE_CURVE ( 'NONE', #355, #578, #348, .T. ) ;
#34 = ORIENTED_EDGE ( 'NONE', *, *, #386, .F. ) ;
#35 = DIRECTION ( 'NONE',  ( 0.000000000000000000, 0.000000000000000000, 1.000000000000000000 ) ) ;
#36 = EDGE_LOOP ( 'NONE', ( #1168, #450, #1155, #34 ) ) ;
#37 = CARTESIAN_POINT ( 'NONE',  ( -30.64999999999999858, 12.99999999999999822, -2.249999999999995115 ) ) ;
#38 = ORIENTED_EDGE ( 'NONE', *, *, #415, .T. ) ;
#39 = PLANE ( 'NONE',  #616 ) ;
#40 = EDGE_CURVE ( 'NONE', #610, #186, #913, .T. ) ;
#41 = VERTEX_POINT ( 'NONE', #166 ) ;
#42 = CARTESIAN_POINT ( 'NONE',  ( 15.49999999999999645, -38.29999999999999716, -15.50000000000000000 ) ) ;
#43 = DIRECTION ( 'NONE',  ( 0.5834598827082978501, 0.000000000000000000, -0.8121419612789498865 ) ) ;
#44 = AXIS2_PLACEMENT_3D ( 'NONE', #1195, #983, #700 ) ;
#45 = VECTOR ( 'NONE', #960, 1000.000000000000000 ) ;
#46 = AXIS2_PLACEMENT_3D ( 'NONE', #740, #1029, #560 ) ;
#47 = ORIENTED_EDGE ( 'NONE', *, *, #1144, .T. ) ;
#48 = DIRECTION ( 'NONE',  ( 1.000000000000000000, 1.734723475976806848E-16, 0.000000000000000000 ) ) ;
#49 = VERTEX_POINT ( 'NONE', #161 ) ;
#50 = ADVANCED_FACE ( 'NONE', ( #629 ), #999, .T. ) ;
#51 = FACE_OUTER_BOUND ( 'NONE', #1094, .T. ) ;
#52 = EDGE_CURVE ( 'NONE', #49, #809, #455, .T. ) ;
#53 = DIRECTION ( 'NONE',  ( -0.000000000000000000, 1.000000000000000000, -0.000000000000000000 ) ) ;
#54 = ORIENTED_EDGE ( 'NONE', *, *, #1134, .F. ) ;
#55 = DIRECTION ( 'NONE',  ( -0.000000000000000000, -1.000000000000000000, 0.000000000000000000 ) ) ;
#56 = EDGE_LOOP ( 'NONE', ( #7, #410, #671, #391 ) ) ;
#57 = CARTESIAN_POINT ( 'NONE',  ( 30.64999999999999858, 12.99999999999999822, -2.250000000000009770 ) ) ;
#58 = CARTESIAN_POINT ( 'NONE',  ( 35.98459882708296931, 8.999999999999987566, -10.49251189527985062 ) ) ;
#59 = EDGE_CURVE ( 'NONE', #285, #503, #1208, .T. ) ;
#60 = LINE ( 'NONE', #263, #147 ) ;
#61 = DIRECTION ( 'NONE',  ( 0.000000000000000000, 0.000000000000000000, 1.000000000000000000 ) ) ;
#62 = VERTEX_POINT ( 'NONE', #156 ) ;
#63 = DIRECTION ( 'NONE',  ( -0.000000000000000000, 1.000000000000000000, -0.000000000000000000 ) ) ;
#64 = CARTESIAN_POINT ( 'NONE',  ( -35.98459882708297641, 12.99999999999999822, -10.49251189527985773 ) ) ;
#65 = VECTOR ( 'NONE', #1160, 1000.000000000000000 ) ;
#66 = VECTOR ( 'NONE', #460, 1000.000000000000000 ) ;
#67 = APPLICATION_CONTEXT ( 'automotive_design' ) ;
#68 = ORIENTED_EDGE ( 'NONE', *, *, #1082, .T. ) ;
#69 = AXIS2_PLACEMENT_3D ( 'NONE', #846, #1225, #1031 ) ;
#70 = EDGE_LOOP ( 'NONE', ( #664, #638, #213, #588, #1072, #431, #1172, #894 ) ) ;
#71 = FILL_AREA_STYLE ('',( #258 ) ) ;
#72 = PRODUCT_DEFINITION_SHAPE ( 'NONE', 'NONE',  #867 ) ;
#73 = CARTESIAN_POINT ( 'NONE',  ( -21.14999999999999503, -29.30000000000000071, -21.14999999999999503 ) ) ;
#74 = DIRECTION ( 'NONE',  ( 0.000000000000000000, 0.000000000000000000, 1.000000000000000000 ) ) ;
#75 = ADVANCED_FACE ( 'NONE', ( #528 ), #361, .F. ) ;
#76 = ORIENTED_EDGE ( 'NONE', *, *, #461, .T. ) ;
#77 = FACE_OUTER_BOUND ( 'NONE', #1147, .T. ) ;
#78 = CARTESIAN_POINT ( 'NONE',  ( 35.98459882708297641, 8.999999999999998224, -10.49251189527984707 ) ) ;
#79 = DIRECTION ( 'NONE',  ( 8.659560562354932858E-17, 0.7071067811865474617, -0.7071067811865474617 ) ) ;
#80 = EDGE_LOOP ( 'NONE', ( #1170, #1006, #1030, #987 ) ) ;
#81 = CARTESIAN_POINT ( 'NONE',  ( -30.64999999999999858, 12.99999999999999822, 2.274999999999999467 ) ) ;
#82 = ADVANCED_FACE ( 'NONE', ( #907, #1010 ), #429, .T. ) ;
#83 = CARTESIAN_POINT ( 'NONE',  ( -30.64999999999999858, 12.99999999999999822, 2.249999999999995115 ) ) ;
#84 = DIRECTION ( 'NONE',  ( 0.000000000000000000, 0.000000000000000000, 1.000000000000000000 ) ) ;
#85 = PRODUCT_CONTEXT ( 'NONE', #1, 'mechanical' ) ;
#86 = CIRCLE ( 'NONE', #44, 2.249999999999998668 ) ;
#87 = CIRCLE ( 'NONE', #836, 2.249999999999998668 ) ;
#88 = ORIENTED_EDGE ( 'NONE', *, *, #706, .F. ) ;
#89 = LINE ( 'NONE', #747, #973 ) ;
#90 = DIRECTION ( 'NONE',  ( -0.000000000000000000, 1.000000000000000000, -0.000000000000000000 ) ) ;
#91 = ADVANCED_FACE ( 'NONE', ( #344 ), #444, .F. ) ;
#92 = FACE_OUTER_BOUND ( 'NONE', #1065, .T. ) ;
#93 = EDGE_LOOP ( 'NONE', ( #931, #291, #68, #1088 ) ) ;
#94 = DIRECTION ( 'NONE',  ( -0.000000000000000000, 1.000000000000000000, -0.000000000000000000 ) ) ;
#95 = CARTESIAN_POINT ( 'NONE',  ( -15.50000000000000355, -38.29999999999999716, -15.50000000000000000 ) ) ;
#96 = EDGE_CURVE ( 'NONE', #11, #728, #546, .T. ) ;
#97 = CARTESIAN_POINT ( 'NONE',  ( -15.50000000000000355, 4.000000000000000000, 15.50000000000000000 ) ) ;
#98 = ORIENTED_EDGE ( 'NONE', *, *, #505, .T. ) ;
#99 = DIRECTION ( 'NONE',  ( 8.659560562354932858E-17, 0.7071067811865474617, -0.7071067811865474617 ) ) ;
#100 = VERTEX_POINT ( 'NONE', #954 ) ;
#101 = CARTESIAN_POINT ( 'NONE',  ( 15.49999999999999645, -38.29999999999999716, -15.50000000000000000 ) ) ;
#102 = EDGE_CURVE ( 'NONE', #731, #196, #126, .T. ) ;
#103 = CYLINDRICAL_SURFACE ( 'NONE', #453, 2.249999999999998668 ) ;
#104 = EDGE_CURVE ( 'NONE', #483, #458, #1196, .T. ) ;
#105 = EDGE_LOOP ( 'NONE', ( #823, #1077, #943, #31, #307, #783, #232 ) ) ;
#106 = VECTOR ( 'NONE', #255, 1000.000000000000000 ) ;
#107 = LINE ( 'NONE', #290, #264 ) ;
#108 = VECTOR ( 'NONE', #90, 1000.000000000000000 ) ;
#109 = ORIENTED_EDGE ( 'NONE', *, *, #461, .F. ) ;
#110 = DIRECTION ( 'NONE',  ( 0.000000000000000000, 1.000000000000000000, -0.000000000000000000 ) ) ;
#111 = CIRCLE ( 'NONE', #595, 10.00000000000000000 ) ;
#112 = DIRECTION ( 'NONE',  ( 0.000000000000000000, 0.000000000000000000, 1.000000000000000000 ) ) ;
#113 = ORIENTED_EDGE ( 'NONE', *, *, #1009, .T. ) ;
#114 = LINE ( 'NONE', #1061, #756 ) ;
#115 = EDGE_CURVE ( 'NONE', #890, #252, #575, .T. ) ;
#116 = CARTESIAN_POINT ( 'NONE',  ( 21.14999999999998437, 13.00000000000000533, 21.15000000000000213 ) ) ;
#117 = DIRECTION ( 'NONE',  ( 0.000000000000000000, 0.000000000000000000, 1.000000000000000000 ) ) ;
#118 = ORIENTED_EDGE ( 'NONE', *, *, #274, .F. ) ;
#119 = FACE_BOUND ( 'NONE', #793, .T. ) ;
#120 = EDGE_LOOP ( 'NONE', ( #751, #596, #1193, #173 ) ) ;
#121 = FACE_OUTER_BOUND ( 'NONE', #807, .T. ) ;
#122 = ORIENTED_EDGE ( 'NONE', *, *, #59, .T. ) ;
#123 = LINE ( 'NONE', #585, #655 ) ;
#124 = VERTEX_POINT ( 'NONE', #563 ) ;
#125 = LINE ( 'NONE', #686, #856 ) ;
#126 = CIRCLE ( 'NONE', #875, 2.250000000000001776 ) ;
#127 = AXIS2_PLACEMENT_3D ( 'NONE', #101, #1119, #1027 ) ;
#128 = EDGE_CURVE ( 'NONE', #552, #247, #990, .T. ) ;
#129 = VECTOR ( 'NONE', #1164, 999.9999999999998863 ) ;
#130 = CIRCLE ( 'NONE', #286, 2.249999999999998668 ) ;
#131 = EDGE_LOOP ( 'NONE', ( #297, #477, #945, #1166 ) ) ;
#132 = FACE_OUTER_BOUND ( 'NONE', #93, .T. ) ;
#133 = ORIENTED_EDGE ( 'NONE', *, *, #366, .F. ) ;
#134 = DIRECTION ( 'NONE',  ( -0.000000000000000000, 1.000000000000000000, -0.000000000000000000 ) ) ;
#135 = ADVANCED_FACE ( 'NONE', ( #195 ), #103, .F. ) ;
#136 = EDGE_LOOP ( 'NONE', ( #325, #950 ) ) ;
#137 = LINE ( 'NONE', #237, #920 ) ;
#138 = VERTEX_POINT ( 'NONE', #654 ) ;
#139 = CARTESIAN_POINT ( 'NONE',  ( 15.49999999999999645, -38.29999999999999716, 13.24999999999999822 ) ) ;
#140 = CARTESIAN_POINT ( 'NONE',  ( -21.14999999999999503, -29.30000000000000071, 21.15000000000000213 ) ) ;
#141 = EDGE_CURVE ( 'NONE', #285, #1110, #776, .T. ) ;
#142 = ORIENTED_EDGE ( 'NONE', *, *, #415, .F. ) ;
#143 = DIRECTION ( 'NONE',  ( -1.000000000000000000, 0.000000000000000000, 0.000000000000000000 ) ) ;
#144 = ORIENTED_EDGE ( 'NONE', *, *, #451, .F. ) ;
#145 = LINE ( 'NONE', #516, #1076 ) ;
#146 = CARTESIAN_POINT ( 'NONE',  ( 43.83224858287389480, 8.999999999999998224, 4.854595097040604657 ) ) ;
#147 = VECTOR ( 'NONE', #1223, 1000.000000000000000 ) ;
#148 = AXIS2_PLACEMENT_3D ( 'NONE', #993, #1192, #35 ) ;
#149 = AXIS2_PLACEMENT_3D ( 'NONE', #430, #512, #48 ) ;
#150 = VERTEX_POINT ( 'NONE', #376 ) ;
#151 = CARTESIAN_POINT ( 'NONE',  ( 21.14999999999998437, 0.000000000000000000, 21.15000000000000213 ) ) ;
#152 = ORIENTED_EDGE ( 'NONE', *, *, #829, .T. ) ;
#153 = DIRECTION ( 'NONE',  ( -0.8121419612789501086, 0.000000000000000000, -0.5834598827082976280 ) ) ;
#154 = EDGE_CURVE ( 'NONE', #707, #827, #473, .T. ) ;
#155 = LINE ( 'NONE', #527, #792 ) ;
#156 = CARTESIAN_POINT ( 'NONE',  ( 15.49999999999999645, 0.000000000000000000, 17.75000000000000355 ) ) ;
#157 = CYLINDRICAL_SURFACE ( 'NONE', #1098, 10.00000000000000178 ) ;
#158 = EDGE_LOOP ( 'NONE', ( #872, #485, #506, #662, #192, #917 ) ) ;
#159 = DIRECTION ( 'NONE',  ( 0.000000000000000000, 1.000000000000000000, 0.000000000000000000 ) ) ;
#160 = CYLINDRICAL_SURFACE ( 'NONE', #537, 2.250000000000001776 ) ;
#161 = CARTESIAN_POINT ( 'NONE',  ( -35.98459882708297641, 8.999999999999998224, 10.49251189527986661 ) ) ;
#162 = EDGE_LOOP ( 'NONE', ( #716, #497 ) ) ;
#163 = DIRECTION ( 'NONE',  ( 0.000000000000000000, 0.000000000000000000, 1.000000000000000000 ) ) ;
#164 = AXIS2_PLACEMENT_3D ( 'NONE', #335, #1092, #240 ) ;
#165 = AXIS2_PLACEMENT_3D ( 'NONE', #292, #665, #298 ) ;
#166 = CARTESIAN_POINT ( 'NONE',  ( 40.14999999999999147, 13.00000000000000533, -2.371092282490352421 ) ) ;
#167 = AXIS2_PLACEMENT_3D ( 'NONE', #210, #484, #860 ) ;
#168 = VECTOR ( 'NONE', #1204, 1000.000000000000114 ) ;
#169 = ORIENTED_EDGE ( 'NONE', *, *, #806, .T. ) ;
#170 = CARTESIAN_POINT ( 'NONE',  ( -17.22197310543600324, -0.000000000000000000, -23.97197721635781420 ) ) ;
#171 = DIRECTION ( 'NONE',  ( 0.000000000000000000, -1.000000000000000000, -0.000000000000000000 ) ) ;
#172 = ADVANCED_FACE ( 'NONE', ( #294 ), #487, .F. ) ;
#173 = ORIENTED_EDGE ( 'NONE', *, *, #547, .T. ) ;
#174 = ORIENTED_EDGE ( 'NONE', *, *, #393, .T. ) ;
#175 = DIRECTION ( 'NONE',  ( 0.000000000000000000, 0.000000000000000000, 1.000000000000000000 ) ) ;
#176 = CARTESIAN_POINT ( 'NONE',  ( 40.14999999999999147, 13.00000000000000178, -2.371092282490353753 ) ) ;
#177 = DIRECTION ( 'NONE',  ( 0.8121419612789497755, 1.878455634741921350E-16, 0.5834598827082978501 ) ) ;
#178 = ORIENTED_EDGE ( 'NONE', *, *, #1024, .F. ) ;
#179 = SURFACE_STYLE_USAGE ( .BOTH. , #1111 ) ;
#180 = EDGE_CURVE ( 'NONE', #693, #1083, #769, .T. ) ;
#181 = CARTESIAN_POINT ( 'NONE',  ( 40.14999999999999858, 8.999999999999998224, -2.371092282490348868 ) ) ;
#182 = CARTESIAN_POINT ( 'NONE',  ( 30.64999999999999858, 8.999999999999998224, -2.250000000000009770 ) ) ;
#183 = LINE ( 'NONE', #643, #500 ) ;
#184 = VECTOR ( 'NONE', #602, 1000.000000000000114 ) ;
#185 = CIRCLE ( 'NONE', #165, 10.00000000000000000 ) ;
#186 = VERTEX_POINT ( 'NONE', #942 ) ;
#187 = COLOUR_RGB ( '',0.7921568627450980005, 0.8196078431372548767, 0.9333333333333333481 ) ;
#188 = EDGE_CURVE ( 'NONE', #196, #731, #25, .T. ) ;
#189 = AXIS2_PLACEMENT_3D ( 'NONE', #326, #1084, #231 ) ;
#190 = DIRECTION ( 'NONE',  ( 0.000000000000000000, 0.000000000000000000, 1.000000000000000000 ) ) ;
#191 = DIRECTION ( 'NONE',  ( -1.734723475976803939E-15, 1.000000000000000000, 1.246261865635966764E-15 ) ) ;
#192 = ORIENTED_EDGE ( 'NONE', *, *, #320, .F. ) ;
#193 = CARTESIAN_POINT ( 'NONE',  ( -30.15000000000000213, 12.99999999999999822, 2.371092282490362635 ) ) ;
#194 = LINE ( 'NONE', #545, #241 ) ;
#195 = FACE_OUTER_BOUND ( 'NONE', #948, .T. ) ;
#196 = VERTEX_POINT ( 'NONE', #869 ) ;
#197 = CYLINDRICAL_SURFACE ( 'NONE', #1139, 2.249999999999995115 ) ;
#198 = VERTEX_POINT ( 'NONE', #467 ) ;
#199 = CARTESIAN_POINT ( 'NONE',  ( 15.49999999999999645, 4.000000000000000000, -15.50000000000000000 ) ) ;
#200 = DIRECTION ( 'NONE',  ( -3.854941057726239083E-16, 1.000000000000000000, 0.000000000000000000 ) ) ;
#201 = ADVANCED_FACE ( 'NONE', ( #858 ), #10, .T. ) ;
#202 = VERTEX_POINT ( 'NONE', #16 ) ;
#203 = CARTESIAN_POINT ( 'NONE',  ( -30.64999999999999858, 12.97499999999999432, 0.000000000000000000 ) ) ;
#204 = AXIS2_PLACEMENT_3D ( 'NONE', #498, #873, #781 ) ;
#205 = CARTESIAN_POINT ( 'NONE',  ( -40.15000000000000568, 8.999999999999998224, -21.14999999999999503 ) ) ;
#206 = AXIS2_PLACEMENT_3D ( 'NONE', #670, #579, #390 ) ;
#207 = AXIS2_PLACEMENT_3D ( 'NONE', #502, #507, #245 ) ;
#208 = CARTESIAN_POINT ( 'NONE',  ( 35.98459882708296220, 12.99999999999998757, 10.49251189527986305 ) ) ;
#209 = ORIENTED_EDGE ( 'NONE', *, *, #428, .F. ) ;
#210 = CARTESIAN_POINT ( 'NONE',  ( -30.64999999999999858, 12.99999999999999822, 0.000000000000000000 ) ) ;
#211 = VERTEX_POINT ( 'NONE', #2 ) ;
#212 = DIRECTION ( 'NONE',  ( -0.000000000000000000, 1.000000000000000000, -0.000000000000000000 ) ) ;
#213 = ORIENTED_EDGE ( 'NONE', *, *, #622, .F. ) ;
#214 = DIRECTION ( 'NONE',  ( 0.000000000000000000, 0.000000000000000000, -1.000000000000000000 ) ) ;
#215 = DIRECTION ( 'NONE',  ( 0.000000000000000000, 0.000000000000000000, -1.000000000000000000 ) ) ;
#216 = EDGE_CURVE ( 'NONE', #62, #1141, #21, .T. ) ;
#217 = ORIENTED_EDGE ( 'NONE', *, *, #737, .T. ) ;
#218 = DIRECTION ( 'NONE',  ( 0.000000000000000000, -0.000000000000000000, -1.000000000000000000 ) ) ;
#219 = VECTOR ( 'NONE', #79, 1000.000000000000114 ) ;
#220 = VERTEX_POINT ( 'NONE', #1140 ) ;
#221 = DIRECTION ( 'NONE',  ( 0.000000000000000000, 0.000000000000000000, 1.000000000000000000 ) ) ;
#222 = AXIS2_PLACEMENT_3D ( 'NONE', #1105, #601, #1100 ) ;
#223 = EDGE_CURVE ( 'NONE', #202, #731, #844, .T. ) ;
#224 = VERTEX_POINT ( 'NONE', #182 ) ;
#225 = CARTESIAN_POINT ( 'NONE',  ( 21.14999999999998437, 13.00000000000000533, -21.14999999999999503 ) ) ;
#226 = ORIENTED_EDGE ( 'NONE', *, *, #268, .T. ) ;
#227 = LINE ( 'NONE', #1194, #755 ) ;
#228 = LINE ( 'NONE', #146, #184 ) ;
#229 = ADVANCED_FACE ( 'NONE', ( #92 ), #462, .F. ) ;
#230 = VERTEX_POINT ( 'NONE', #1042 ) ;
#231 = DIRECTION ( 'NONE',  ( 0.000000000000000000, 0.000000000000000000, 1.000000000000000000 ) ) ;
#232 = ORIENTED_EDGE ( 'NONE', *, *, #1183, .F. ) ;
#233 = LINE ( 'NONE', #139, #1217 ) ;
#234 = DIRECTION ( 'NONE',  ( 0.000000000000000000, 0.000000000000000000, -1.000000000000000000 ) ) ;
#235 = ADVANCED_FACE ( 'NONE', ( #569 ), #375, .F. ) ;
#236 = VERTEX_POINT ( 'NONE', #906 ) ;
#237 = CARTESIAN_POINT ( 'NONE',  ( -25.15000000000000213, 4.000000000000000000, -18.27631578947368141 ) ) ;
#238 = ORIENTED_EDGE ( 'NONE', *, *, #1183, .T. ) ;
#239 = LINE ( 'NONE', #509, #615 ) ;
#240 = DIRECTION ( 'NONE',  ( 0.000000000000000000, 0.000000000000000000, -1.000000000000000000 ) ) ;
#241 = VECTOR ( 'NONE', #550, 1000.000000000000000 ) ;
#242 = CIRCLE ( 'NONE', #952, 2.249999999999998668 ) ;
#243 = AXIS2_PLACEMENT_3D ( 'NONE', #1002, #159, #891 ) ;
#244 = EDGE_LOOP ( 'NONE', ( #604, #295, #606, #441, #600, #289 ) ) ;
#245 = DIRECTION ( 'NONE',  ( 0.000000000000000000, 0.000000000000000000, 1.000000000000000000 ) ) ;
#246 = EDGE_CURVE ( 'NONE', #62, #741, #715, .T. ) ;
#247 = VERTEX_POINT ( 'NONE', #416 ) ;
#248 = CARTESIAN_POINT ( 'NONE',  ( -35.98459882708297641, 12.99999999999999822, -10.49251189527985595 ) ) ;
#249 = LINE ( 'NONE', #64, #734 ) ;
#250 = UNCERTAINTY_MEASURE_WITH_UNIT (LENGTH_MEASURE( 1.000000000000000082E-05 ), #1209, 'distance_accuracy_value', 'NONE');
#251 = CARTESIAN_POINT ( 'NONE',  ( 40.14999999999999147, -29.30000000000000071, 7.500000000000003553 ) ) ;
#252 = VERTEX_POINT ( 'NONE', #1184 ) ;
#253 = DIRECTION ( 'NONE',  ( 0.000000000000000000, 0.000000000000000000, 1.000000000000000000 ) ) ;
#254 = EDGE_CURVE ( 'NONE', #124, #1229, #305, .T. ) ;
#255 = DIRECTION ( 'NONE',  ( 0.000000000000000000, 1.000000000000000000, 0.000000000000000000 ) ) ;
#256 = CARTESIAN_POINT ( 'NONE',  ( -25.15000000000000213, 0.000000000000000000, 21.15000000000000213 ) ) ;
#257 = EDGE_LOOP ( 'NONE', ( #974, #680, #464, #1079, #1025, #408 ) ) ;
#258 = FILL_AREA_STYLE_COLOUR ( '', #187 ) ;
#259 = DIRECTION ( 'NONE',  ( -0.000000000000000000, 1.000000000000000000, -0.000000000000000000 ) ) ;
#260 = EDGE_CURVE ( 'NONE', #625, #890, #228, .T. ) ;
#261 = CIRCLE ( 'NONE', #412, 2.249999999999998668 ) ;
#262 = VECTOR ( 'NONE', #1040, 1000.000000000000000 ) ;
#263 = CARTESIAN_POINT ( 'NONE',  ( -21.14999999999999147, 4.000000000000000888, -21.14999999999999503 ) ) ;
#264 = VECTOR ( 'NONE', #12, 1000.000000000000000 ) ;
#265 = ORIENTED_EDGE ( 'NONE', *, *, #667, .F. ) ;
#266 = FACE_BOUND ( 'NONE', #395, .T. ) ;
#267 = FACE_OUTER_BOUND ( 'NONE', #1062, .T. ) ;
#268 = EDGE_CURVE ( 'NONE', #1110, #275, #329, .T. ) ;
#269 = CARTESIAN_POINT ( 'NONE',  ( 30.64999999999999858, 8.999999999999998224, 2.249999999999987121 ) ) ;
#270 = EDGE_CURVE ( 'NONE', #503, #1218, #532, .T. ) ;
#271 = ORIENTED_EDGE ( 'NONE', *, *, #682, .T. ) ;
#272 = LINE ( 'NONE', #1130, #1054 ) ;
#273 = CARTESIAN_POINT ( 'NONE',  ( -25.15000000000000213, 4.000000000000000000, 21.15000000000000213 ) ) ;
#274 = EDGE_CURVE ( 'NONE', #224, #11, #86, .T. ) ;
#275 = VERTEX_POINT ( 'NONE', #538 ) ;
#276 = LINE ( 'NONE', #373, #877 ) ;
#277 = DIRECTION ( 'NONE',  ( -1.734723475976804136E-15, 1.000000000000000000, -1.246261865635965581E-15 ) ) ;
#278 = AXIS2_PLACEMENT_3D ( 'NONE', #299, #1146, #558 ) ;
#279 = DIRECTION ( 'NONE',  ( 0.000000000000000000, 1.000000000000000000, 0.000000000000000000 ) ) ;
#280 = VECTOR ( 'NONE', #171, 1000.000000000000000 ) ;
#281 = VECTOR ( 'NONE', #486, 1000.000000000000000 ) ;
#282 = ORIENTED_EDGE ( 'NONE', *, *, #1032, .F. ) ;
#283 = DIRECTION ( 'NONE',  ( 0.000000000000000000, 1.000000000000000000, -0.000000000000000000 ) ) ;
#284 =( GEOMETRIC_REPRESENTATION_CONTEXT ( 3 ) GLOBAL_UNCERTAINTY_ASSIGNED_CONTEXT ( ( #955 ) ) GLOBAL_UNIT_ASSIGNED_CONTEXT ( ( #828, #1211, #356 ) ) REPRESENTATION_CONTEXT ( 'NONE', 'WORKASPACE' ) );
#285 = VERTEX_POINT ( 'NONE', #1081 ) ;
#286 = AXIS2_PLACEMENT_3D ( 'NONE', #337, #1071, #1096 ) ;
#287 = DIRECTION ( 'NONE',  ( 0.000000000000000000, 0.000000000000000000, 1.000000000000000000 ) ) ;
#288 = CARTESIAN_POINT ( 'NONE',  ( -15.50000000000000355, -38.29999999999999716, 17.75000000000000355 ) ) ;
#289 = ORIENTED_EDGE ( 'NONE', *, *, #1151, .T. ) ;
#290 = CARTESIAN_POINT ( 'NONE',  ( 25.14999999999999503, 4.000000000000000000, -18.27631578947366009 ) ) ;
#291 = ORIENTED_EDGE ( 'NONE', *, *, #1024, .T. ) ;
#292 = CARTESIAN_POINT ( 'NONE',  ( 30.14999999999998792, 13.00000000000000888, 2.371092282490363967 ) ) ;
#293 = ADVANCED_FACE ( 'NONE', ( #820 ), #160, .F. ) ;
#294 = FACE_OUTER_BOUND ( 'NONE', #316, .T. ) ;
#295 = ORIENTED_EDGE ( 'NONE', *, *, #568, .T. ) ;
#296 = FACE_OUTER_BOUND ( 'NONE', #56, .T. ) ;
#297 = ORIENTED_EDGE ( 'NONE', *, *, #712, .F. ) ;
#298 = DIRECTION ( 'NONE',  ( 0.000000000000000000, 0.000000000000000000, 1.000000000000000000 ) ) ;
#299 = CARTESIAN_POINT ( 'NONE',  ( 30.14999999999999503, 8.999999999999998224, -2.371092282490348868 ) ) ;
#300 = EDGE_LOOP ( 'NONE', ( #118, #566, #350, #368 ) ) ;
#301 = DIRECTION ( 'NONE',  ( 0.000000000000000000, 0.000000000000000000, 1.000000000000000000 ) ) ;
#302 = ORIENTED_EDGE ( 'NONE', *, *, #401, .T. ) ;
#303 = FACE_OUTER_BOUND ( 'NONE', #36, .T. ) ;
#304 = CIRCLE ( 'NONE', #456, 2.249999999999995115 ) ;
#305 = LINE ( 'NONE', #989, #65 ) ;
#306 = ADVANCED_FACE ( 'NONE', ( #1107 ), #805, .F. ) ;
#307 = ORIENTED_EDGE ( 'NONE', *, *, #268, .F. ) ;
#308 = FACE_OUTER_BOUND ( 'NONE', #131, .T. ) ;
#309 = ORIENTED_EDGE ( 'NONE', *, *, #675, .F. ) ;
#310 = CARTESIAN_POINT ( 'NONE',  ( -30.64999999999999858, 12.99999999999999822, -2.274999999999999467 ) ) ;
#311 = VERTEX_POINT ( 'NONE', #800 ) ;
#312 = CARTESIAN_POINT ( 'NONE',  ( 40.14999999999999858, 8.999999999999998224, 2.371092282490359082 ) ) ;
#313 = EDGE_CURVE ( 'NONE', #186, #809, #1087, .T. ) ;
#314 = ORIENTED_EDGE ( 'NONE', *, *, #691, .T. ) ;
#315 = CARTESIAN_POINT ( 'NONE',  ( -21.14999999999999503, 12.99999999999999822, -21.14999999999999503 ) ) ;
#316 = EDGE_LOOP ( 'NONE', ( #903, #238, #656, #885 ) ) ;
#317 = FACE_OUTER_BOUND ( 'NONE', #801, .T. ) ;
#318 = VECTOR ( 'NONE', #394, 1000.000000000000000 ) ;
#319 = ORIENTED_EDGE ( 'NONE', *, *, #352, .T. ) ;
#320 = EDGE_CURVE ( 'NONE', #252, #236, #347, .T. ) ;
#321 = DIRECTION ( 'NONE',  ( 0.000000000000000000, 0.000000000000000000, 1.000000000000000000 ) ) ;
#322 = VECTOR ( 'NONE', #277, 1000.000000000000000 ) ;
#323 = EDGE_CURVE ( 'NONE', #202, #150, #692, .T. ) ;
#324 = VECTOR ( 'NONE', #742, 1000.000000000000000 ) ;
#325 = ORIENTED_EDGE ( 'NONE', *, *, #922, .F. ) ;
#326 = CARTESIAN_POINT ( 'NONE',  ( 30.64999999999999858, 12.99999999999999822, -1.126062731815991233E-14 ) ) ;
#327 = ORIENTED_EDGE ( 'NONE', *, *, #102, .F. ) ;
#328 = DIRECTION ( 'NONE',  ( 0.000000000000000000, 0.000000000000000000, -1.000000000000000000 ) ) ;
#329 = LINE ( 'NONE', #73, #1216 ) ;
#330 = EDGE_CURVE ( 'NONE', #311, #483, #998, .T. ) ;
#331 = ORIENTED_EDGE ( 'NONE', *, *, #188, .F. ) ;
#332 = PLANE ( 'NONE',  #677 ) ;
#333 = ORIENTED_EDGE ( 'NONE', *, *, #270, .T. ) ;
#334 = DIRECTION ( 'NONE',  ( -0.000000000000000000, 1.000000000000000000, -0.000000000000000000 ) ) ;
#335 = CARTESIAN_POINT ( 'NONE',  ( -15.50000000000000355, 0.000000000000000000, 15.50000000000000000 ) ) ;
#336 = ORIENTED_EDGE ( 'NONE', *, *, #849, .F. ) ;
#337 = CARTESIAN_POINT ( 'NONE',  ( 15.49999999999999645, 0.000000000000000000, -15.50000000000000000 ) ) ;
#338 = ORIENTED_EDGE ( 'NONE', *, *, #33, .T. ) ;
#339 = LINE ( 'NONE', #798, #1075 ) ;
#340 = LINE ( 'NONE', #720, #573 ) ;
#341 = AXIS2_PLACEMENT_3D ( 'NONE', #1198, #923, #739 ) ;
#342 = AXIS2_PLACEMENT_3D ( 'NONE', #868, #19, #392 ) ;
#343 = CIRCLE ( 'NONE', #936, 2.249999999999995115 ) ;
#344 = FACE_OUTER_BOUND ( 'NONE', #469, .T. ) ;
#345 = ORIENTED_EDGE ( 'NONE', *, *, #1144, .F. ) ;
#346 = FACE_OUTER_BOUND ( 'NONE', #826, .T. ) ;
#347 = LINE ( 'NONE', #725, #754 ) ;
#348 = LINE ( 'NONE', #930, #219 ) ;
#349 =( NAMED_UNIT ( * ) SI_UNIT ( $, .STERADIAN. ) SOLID_ANGLE_UNIT ( ) );
#350 = ORIENTED_EDGE ( 'NONE', *, *, #526, .T. ) ;
#351 = CARTESIAN_POINT ( 'NONE',  ( -21.14999999999999147, 4.000000000000000888, -21.14999999999999503 ) ) ;
#352 = EDGE_CURVE ( 'NONE', #1090, #22, #155, .T. ) ;
#353 = LINE ( 'NONE', #941, #971 ) ;
#354 = DIRECTION ( 'NONE',  ( -0.000000000000000000, -0.000000000000000000, 1.000000000000000000 ) ) ;
#355 = VERTEX_POINT ( 'NONE', #443 ) ;
#356 =( NAMED_UNIT ( * ) SI_UNIT ( $, .STERADIAN. ) SOLID_ANGLE_UNIT ( ) );
#357 = CARTESIAN_POINT ( 'NONE',  ( 30.64999999999999858, 12.97499999999999432, -1.126062731815991233E-14 ) ) ;
#358 = EDGE_CURVE ( 'NONE', #985, #1229, #261, .T. ) ;
#359 = AXIS2_PLACEMENT_3D ( 'NONE', #273, #668, #371 ) ;
#360 = VECTOR ( 'NONE', #810, 1000.000000000000000 ) ;
#361 = PLANE ( 'NONE',  #341 ) ;
#362 = CIRCLE ( 'NONE', #148, 2.275000000000002576 ) ;
#363 = ORIENTED_EDGE ( 'NONE', *, *, #1106, .F. ) ;
#364 = DIRECTION ( 'NONE',  ( 0.000000000000000000, 0.000000000000000000, 1.000000000000000000 ) ) ;
#365 = CARTESIAN_POINT ( 'NONE',  ( 21.14999999999997016, 3.999999999999996447, -21.14999999999999503 ) ) ;
#366 = EDGE_CURVE ( 'NONE', #785, #220, #340, .T. ) ;
#367 = CARTESIAN_POINT ( 'NONE',  ( 25.14999999999999503, 0.000000000000000000, 18.27631578947368141 ) ) ;
#368 = ORIENTED_EDGE ( 'NONE', *, *, #96, .F. ) ;
#369 = CARTESIAN_POINT ( 'NONE',  ( -30.15000000000000213, 12.99999999999999822, -2.371092282490357306 ) ) ;
#370 = CARTESIAN_POINT ( 'NONE',  ( -35.98459882708297641, 9.000000000000000000, -10.49251189527985417 ) ) ;
#371 = DIRECTION ( 'NONE',  ( 0.000000000000000000, 0.000000000000000000, -1.000000000000000000 ) ) ;
#372 = VERTEX_POINT ( 'NONE', #1004 ) ;
#373 = CARTESIAN_POINT ( 'NONE',  ( 21.14999999999998437, -29.30000000000000071, 21.15000000000000213 ) ) ;
#374 = DIRECTION ( 'NONE',  ( 0.000000000000000000, 0.7071067811865474617, 0.7071067811865474617 ) ) ;
#375 = CONICAL_SURFACE ( 'NONE', #1157, 2.274999999999999467, 0.7853981633974482790 ) ;
#376 = CARTESIAN_POINT ( 'NONE',  ( -15.50000000000000355, 0.000000000000000000, 13.25000000000000000 ) ) ;
#377 = AXIS2_PLACEMENT_3D ( 'NONE', #587, #481, #1052 ) ;
#378 = CIRCLE ( 'NONE', #796, 2.250000000000001776 ) ;
#379 = ORIENTED_EDGE ( 'NONE', *, *, #1212, .T. ) ;
#380 = CARTESIAN_POINT ( 'NONE',  ( -30.64999999999999858, 12.99999999999999822, 0.000000000000000000 ) ) ;
#381 = CARTESIAN_POINT ( 'NONE',  ( -15.50000000000000355, -38.29999999999999716, 13.25000000000000000 ) ) ;
#382 = CARTESIAN_POINT ( 'NONE',  ( -15.50000000000000355, 4.000000000000000000, 15.50000000000000000 ) ) ;
#383 = ORIENTED_EDGE ( 'NONE', *, *, #393, .F. ) ;
#384 = DIRECTION ( 'NONE',  ( 0.000000000000000000, -1.000000000000000000, 0.000000000000000000 ) ) ;
#385 = VERTEX_POINT ( 'NONE', #1101 ) ;
#386 = EDGE_CURVE ( 'NONE', #389, #693, #249, .T. ) ;
#387 = DIRECTION ( 'NONE',  ( 0.8121419612789497755, 0.000000000000000000, 0.5834598827082978501 ) ) ;
#388 = DIRECTION ( 'NONE',  ( -0.000000000000000000, 1.000000000000000000, -0.000000000000000000 ) ) ;
#389 = VERTEX_POINT ( 'NONE', #370 ) ;
#390 = DIRECTION ( 'NONE',  ( 0.000000000000000000, 0.000000000000000000, 1.000000000000000000 ) ) ;
#391 = ORIENTED_EDGE ( 'NONE', *, *, #223, .F. ) ;
#392 = DIRECTION ( 'NONE',  ( 0.000000000000000000, 0.000000000000000000, -1.000000000000000000 ) ) ;
#393 = EDGE_CURVE ( 'NONE', #1210, #985, #194, .T. ) ;
#394 = DIRECTION ( 'NONE',  ( -0.000000000000000000, 1.000000000000000000, -0.000000000000000000 ) ) ;
#395 = EDGE_LOOP ( 'NONE', ( #327, #331 ) ) ;
#396 = AXIS2_PLACEMENT_3D ( 'NONE', #542, #813, #74 ) ;
#397 = FACE_OUTER_BOUND ( 'NONE', #548, .T. ) ;
#398 = CIRCLE ( 'NONE', #1012, 2.274999999999999467 ) ;
#399 = CARTESIAN_POINT ( 'NONE',  ( -30.64999999999999858, 12.99999999999999822, 0.000000000000000000 ) ) ;
#400 = AXIS2_PLACEMENT_3D ( 'NONE', #489, #384, #1066 ) ;
#401 = EDGE_CURVE ( 'NONE', #385, #503, #847, .T. ) ;
#402 = ORIENTED_EDGE ( 'NONE', *, *, #1106, .T. ) ;
#403 = DIRECTION ( 'NONE',  ( 0.000000000000000000, 0.000000000000000000, -1.000000000000000000 ) ) ;
#404 = EDGE_LOOP ( 'NONE', ( #413, #888, #1104, #909 ) ) ;
#405 = CARTESIAN_POINT ( 'NONE',  ( -30.15000000000000213, -29.30000000000000071, -2.371092282490357306 ) ) ;
#406 = ORIENTED_EDGE ( 'NONE', *, *, #887, .F. ) ;
#407 = CYLINDRICAL_SURFACE ( 'NONE', #1055, 2.250000000000001776 ) ;
#408 = ORIENTED_EDGE ( 'NONE', *, *, #513, .F. ) ;
#409 = FACE_OUTER_BOUND ( 'NONE', #1060, .T. ) ;
#410 = ORIENTED_EDGE ( 'NONE', *, *, #609, .T. ) ;
#411 = CARTESIAN_POINT ( 'NONE',  ( 15.49999999999999645, -38.29999999999999716, 15.50000000000000000 ) ) ;
#412 = AXIS2_PLACEMENT_3D ( 'NONE', #811, #911, #628 ) ;
#413 = ORIENTED_EDGE ( 'NONE', *, *, #1151, .F. ) ;
#414 = CARTESIAN_POINT ( 'NONE',  ( -40.15000000000000568, 9.000000000000001776, -2.371092282490357306 ) ) ;
#415 = EDGE_CURVE ( 'NONE', #827, #247, #272, .T. ) ;
#416 = CARTESIAN_POINT ( 'NONE',  ( -35.98459882708297641, 12.99999999999999822, 10.49251189527986305 ) ) ;
#417 = CIRCLE ( 'NONE', #149, 10.00000000000000178 ) ;
#418 = ORIENTED_EDGE ( 'NONE', *, *, #722, .F. ) ;
#419 = CARTESIAN_POINT ( 'NONE',  ( -21.14999999999999503, 12.99999999999999822, -21.14999999999999503 ) ) ;
#420 = ORIENTED_EDGE ( 'NONE', *, *, #882, .T. ) ;
#421 = DIRECTION ( 'NONE',  ( -0.000000000000000000, 1.000000000000000000, -0.000000000000000000 ) ) ;
#422 = CARTESIAN_POINT ( 'NONE',  ( -25.15000000000000213, 4.000000000000000000, 18.27631578947368141 ) ) ;
#423 = EDGE_LOOP ( 'NONE', ( #265, #1200 ) ) ;
#424 = CARTESIAN_POINT ( 'NONE',  ( 15.49999999999999645, -38.29999999999999716, 15.50000000000000000 ) ) ;
#425 = EDGE_LOOP ( 'NONE', ( #648, #862 ) ) ;
#426 = LINE ( 'NONE', #37, #360 ) ;
#427 = DIRECTION ( 'NONE',  ( 0.8121419612789497755, 0.000000000000000000, -0.5834598827082979611 ) ) ;
#428 = EDGE_CURVE ( 'NONE', #150, #202, #916, .T. ) ;
#429 = PLANE ( 'NONE',  #396 ) ;
#430 = CARTESIAN_POINT ( 'NONE',  ( -30.15000000000000213, 9.000000000000001776, 2.371092282490362635 ) ) ;
#431 = ORIENTED_EDGE ( 'NONE', *, *, #141, .F. ) ;
#432 = LINE ( 'NONE', #1201, #972 ) ;
#433 = VECTOR ( 'NONE', #1131, 1000.000000000000000 ) ;
#434 = DIRECTION ( 'NONE',  ( -0.000000000000000000, 1.000000000000000000, -0.000000000000000000 ) ) ;
#435 = CIRCLE ( 'NONE', #718, 2.250000000000001776 ) ;
#436 = AXIS2_PLACEMENT_3D ( 'NONE', #193, #684, #214 ) ;
#437 = ADVANCED_FACE ( 'NONE', ( #267 ), #946, .F. ) ;
#438 =( GEOMETRIC_REPRESENTATION_CONTEXT ( 3 ) GLOBAL_UNCERTAINTY_ASSIGNED_CONTEXT ( ( #250 ) ) GLOBAL_UNIT_ASSIGNED_CONTEXT ( ( #1209, #1109, #349 ) ) REPRESENTATION_CONTEXT ( 'NONE', 'WORKASPACE' ) );
#439 = VERTEX_POINT ( 'NONE', #1207 ) ;
#440 = CARTESIAN_POINT ( 'NONE',  ( 0.000000000000000000, 0.000000000000000000, 0.000000000000000000 ) ) ;
#441 = ORIENTED_EDGE ( 'NONE', *, *, #905, .T. ) ;
#442 = DIRECTION ( 'NONE',  ( -0.000000000000000000, 1.000000000000000000, -0.000000000000000000 ) ) ;
#443 = CARTESIAN_POINT ( 'NONE',  ( -30.64999999999999858, 12.97499999999999432, -2.249999999999995115 ) ) ;
#444 = CYLINDRICAL_SURFACE ( 'NONE', #815, 2.250000000000001776 ) ;
#445 = ORIENTED_EDGE ( 'NONE', *, *, #1212, .F. ) ;
#446 = CARTESIAN_POINT ( 'NONE',  ( -30.64999999999999858, 12.97499999999999432, 0.000000000000000000 ) ) ;
#447 = ADVANCED_FACE ( 'NONE', ( #555 ), #935, .T. ) ;
#448 = CARTESIAN_POINT ( 'NONE',  ( 25.14999999999999503, 8.999999999999998224, -21.14999999999999503 ) ) ;
#449 = ORIENTED_EDGE ( 'NONE', *, *, #922, .T. ) ;
#450 = ORIENTED_EDGE ( 'NONE', *, *, #782, .F. ) ;
#451 = EDGE_CURVE ( 'NONE', #613, #372, #1021, .T. ) ;
#452 = LINE ( 'NONE', #1213, #262 ) ;
#453 = AXIS2_PLACEMENT_3D ( 'NONE', #763, #482, #1036 ) ;
#454 = AXIS2_PLACEMENT_3D ( 'NONE', #42, #334, #253 ) ;
#455 = LINE ( 'NONE', #1214, #1093 ) ;
#456 = AXIS2_PLACEMENT_3D ( 'NONE', #523, #908, #802 ) ;
#457 = DIRECTION ( 'NONE',  ( 0.000000000000000000, -1.000000000000000000, 0.000000000000000000 ) ) ;
#458 = VERTEX_POINT ( 'NONE', #181 ) ;
#459 = CARTESIAN_POINT ( 'NONE',  ( -40.15000000000000568, 8.999999999999998224, -2.371092282490355529 ) ) ;
#460 = DIRECTION ( 'NONE',  ( 0.000000000000000000, -1.000000000000000000, 0.000000000000000000 ) ) ;
#461 = EDGE_CURVE ( 'NONE', #707, #1218, #1226, .T. ) ;
#462 = PLANE ( 'NONE',  #1011 ) ;
#463 = SHAPE_DEFINITION_REPRESENTATION ( #72, #1064 ) ;
#464 = ORIENTED_EDGE ( 'NONE', *, *, #750, .T. ) ;
#465 = FACE_BOUND ( 'NONE', #162, .T. ) ;
#466 = CARTESIAN_POINT ( 'NONE',  ( -15.50000000000000355, 4.000000000000000000, -15.50000000000000000 ) ) ;
#467 = CARTESIAN_POINT ( 'NONE',  ( 25.14999999999999503, 0.000000000000000000, -18.27631578947366009 ) ) ;
#468 = EDGE_CURVE ( 'NONE', #1068, #389, #452, .T. ) ;
#469 = EDGE_LOOP ( 'NONE', ( #449, #620, #770, #133 ) ) ;
#470 = DIRECTION ( 'NONE',  ( 0.000000000000000000, 0.000000000000000000, 1.000000000000000000 ) ) ;
#471 = DIRECTION ( 'NONE',  ( 0.000000000000000000, 0.000000000000000000, 1.000000000000000000 ) ) ;
#472 = AXIS2_PLACEMENT_3D ( 'NONE', #140, #43, #711 ) ;
#473 = LINE ( 'NONE', #674, #816 ) ;
#474 = CIRCLE ( 'NONE', #1176, 2.249999999999998668 ) ;
#475 = EDGE_CURVE ( 'NONE', #728, #490, #353, .T. ) ;
#476 = CIRCLE ( 'NONE', #28, 2.249999999999995115 ) ;
#477 = ORIENTED_EDGE ( 'NONE', *, *, #799, .F. ) ;
#478 = CARTESIAN_POINT ( 'NONE',  ( 0.000000000000000000, 0.000000000000000000, 0.000000000000000000 ) ) ;
#479 = AXIS2_PLACEMENT_3D ( 'NONE', #411, #795, #594 ) ;
#480 = ORIENTED_EDGE ( 'NONE', *, *, #475, .T. ) ;
#481 = DIRECTION ( 'NONE',  ( 0.000000000000000000, -1.000000000000000000, 0.000000000000000000 ) ) ;
#482 = DIRECTION ( 'NONE',  ( -0.000000000000000000, 1.000000000000000000, -0.000000000000000000 ) ) ;
#483 = VERTEX_POINT ( 'NONE', #78 ) ;
#484 = DIRECTION ( 'NONE',  ( -0.000000000000000000, 1.000000000000000000, -0.000000000000000000 ) ) ;
#485 = ORIENTED_EDGE ( 'NONE', *, *, #1174, .T. ) ;
#486 = DIRECTION ( 'NONE',  ( 0.000000000000000000, -1.000000000000000000, 0.000000000000000000 ) ) ;
#487 = PLANE ( 'NONE',  #359 ) ;
#488 = ORIENTED_EDGE ( 'NONE', *, *, #492, .T. ) ;
#489 = CARTESIAN_POINT ( 'NONE',  ( -15.50000000000000355, 0.000000000000000000, -15.50000000000000000 ) ) ;
#490 = VERTEX_POINT ( 'NONE', #835 ) ;
#491 = PLANE ( 'NONE',  #204 ) ;
#492 = EDGE_CURVE ( 'NONE', #458, #41, #651, .T. ) ;
#493 = ORIENTED_EDGE ( 'NONE', *, *, #20, .T. ) ;
#494 = AXIS2_PLACEMENT_3D ( 'NONE', #251, #618, #551 ) ;
#495 = DIRECTION ( 'NONE',  ( -1.000000000000000000, -0.000000000000000000, -0.000000000000000000 ) ) ;
#496 = VECTOR ( 'NONE', #134, 1000.000000000000000 ) ;
#497 = ORIENTED_EDGE ( 'NONE', *, *, #745, .F. ) ;
#498 = CARTESIAN_POINT ( 'NONE',  ( -21.14999999999999147, 4.000000000000000888, -21.14999999999999503 ) ) ;
#499 = CIRCLE ( 'NONE', #719, 10.00000000000000000 ) ;
#500 = VECTOR ( 'NONE', #457, 1000.000000000000000 ) ;
#501 = ORIENTED_EDGE ( 'NONE', *, *, #128, .T. ) ;
#502 = CARTESIAN_POINT ( 'NONE',  ( 30.64999999999999858, 12.99999999999999822, -1.126062731815991233E-14 ) ) ;
#503 = VERTEX_POINT ( 'NONE', #365 ) ;
#504 = DIRECTION ( 'NONE',  ( -0.000000000000000000, 1.000000000000000000, -0.000000000000000000 ) ) ;
#505 = EDGE_CURVE ( 'NONE', #772, #552, #730, .T. ) ;
#506 = ORIENTED_EDGE ( 'NONE', *, *, #1228, .F. ) ;
#507 = DIRECTION ( 'NONE',  ( -0.000000000000000000, 1.000000000000000000, -0.000000000000000000 ) ) ;
#508 = ORIENTED_EDGE ( 'NONE', *, *, #912, .T. ) ;
#509 = CARTESIAN_POINT ( 'NONE',  ( -40.15000000000000568, 8.999999999999998224, -21.14999999999999503 ) ) ;
#510 = CARTESIAN_POINT ( 'NONE',  ( -30.64999999999999858, 12.99999999999999822, 0.000000000000000000 ) ) ;
#511 = EDGE_LOOP ( 'NONE', ( #658, #927 ) ) ;
#512 = DIRECTION ( 'NONE',  ( 2.312964634635742464E-16, -1.000000000000000000, 0.000000000000000000 ) ) ;
#513 = EDGE_CURVE ( 'NONE', #685, #625, #842, .T. ) ;
#514 = VECTOR ( 'NONE', #726, 1000.000000000000000 ) ;
#515 = ORIENTED_EDGE ( 'NONE', *, *, #782, .T. ) ;
#516 = CARTESIAN_POINT ( 'NONE',  ( 17.22197310543597837, -0.000000000000000000, -23.97197721635780354 ) ) ;
#517 = AXIS2_PLACEMENT_3D ( 'NONE', #660, #567, #1222 ) ;
#518 = CIRCLE ( 'NONE', #400, 2.250000000000001776 ) ;
#519 = DIRECTION ( 'NONE',  ( -0.8121419612789497755, 0.000000000000000000, 0.5834598827082979611 ) ) ;
#520 = CIRCLE ( 'NONE', #207, 2.275000000000002576 ) ;
#521 = PRODUCT_DEFINITION_CONTEXT ( 'detailed design', #67, 'design' ) ;
#522 = ORIENTED_EDGE ( 'NONE', *, *, #699, .F. ) ;
#523 = CARTESIAN_POINT ( 'NONE',  ( -30.64999999999999858, 8.999999999999998224, 0.000000000000000000 ) ) ;
#524 = ORIENTED_EDGE ( 'NONE', *, *, #330, .T. ) ;
#525 = PLANE ( 'NONE',  #540 ) ;
#526 = EDGE_CURVE ( 'NONE', #230, #728, #242, .T. ) ;
#527 = CARTESIAN_POINT ( 'NONE',  ( 17.22197310543600324, 0.000000000000000000, 23.97197721635781065 ) ) ;
#528 = FACE_OUTER_BOUND ( 'NONE', #697, .T. ) ;
#529 = FACE_OUTER_BOUND ( 'NONE', #257, .T. ) ;
#530 = ORIENTED_EDGE ( 'NONE', *, *, #320, .T. ) ;
#531 = DIRECTION ( 'NONE',  ( -0.000000000000000000, -1.000000000000000000, -0.000000000000000000 ) ) ;
#532 = LINE ( 'NONE', #1189, #1053 ) ;
#533 = EDGE_CURVE ( 'NONE', #247, #49, #646, .T. ) ;
#534 = ORIENTED_EDGE ( 'NONE', *, *, #428, .T. ) ;
#535 = ORIENTED_EDGE ( 'NONE', *, *, #799, .T. ) ;
#536 = DIRECTION ( 'NONE',  ( 0.000000000000000000, 0.000000000000000000, 1.000000000000000000 ) ) ;
#537 = AXIS2_PLACEMENT_3D ( 'NONE', #705, #434, #1202 ) ;
#538 = CARTESIAN_POINT ( 'NONE',  ( -21.14999999999999503, 4.000000000000003553, -21.14999999999999503 ) ) ;
#539 = VECTOR ( 'NONE', #743, 1000.000000000000000 ) ;
#540 = AXIS2_PLACEMENT_3D ( 'NONE', #904, #841, #1219 ) ;
#541 = ADVANCED_FACE ( 'NONE', ( #748 ), #562, .F. ) ;
#542 = CARTESIAN_POINT ( 'NONE',  ( 40.14999999999999147, 13.00000000000000533, -21.14999999999999503 ) ) ;
#543 = ORIENTED_EDGE ( 'NONE', *, *, #1047, .F. ) ;
#544 = LINE ( 'NONE', #1020, #1177 ) ;
#545 = CARTESIAN_POINT ( 'NONE',  ( 15.49999999999999645, -38.29999999999999716, -17.75000000000000000 ) ) ;
#546 = LINE ( 'NONE', #624, #915 ) ;
#547 = EDGE_CURVE ( 'NONE', #220, #100, #435, .T. ) ;
#548 = EDGE_LOOP ( 'NONE', ( #1143, #1013, #939, #840 ) ) ;
#549 = CARTESIAN_POINT ( 'NONE',  ( 35.98459882708297641, 8.999999999999998224, 10.49251189527986661 ) ) ;
#550 = DIRECTION ( 'NONE',  ( -0.000000000000000000, 1.000000000000000000, -0.000000000000000000 ) ) ;
#551 = DIRECTION ( 'NONE',  ( -0.8121419612789497755, 0.000000000000000000, 0.5834598827082979611 ) ) ;
#552 = VERTEX_POINT ( 'NONE', #830 ) ;
#553 = DIRECTION ( 'NONE',  ( 0.000000000000000000, 0.000000000000000000, 1.000000000000000000 ) ) ;
#554 = PRODUCT_RELATED_PRODUCT_CATEGORY ( 'part', '', ( #1129 ) ) ;
#555 = FACE_OUTER_BOUND ( 'NONE', #778, .T. ) ;
#556 = AXIS2_PLACEMENT_3D ( 'NONE', #642, #1022, #637 ) ;
#557 = VECTOR ( 'NONE', #1124, 1000.000000000000000 ) ;
#558 = DIRECTION ( 'NONE',  ( 0.000000000000000000, 0.000000000000000000, -1.000000000000000000 ) ) ;
#559 = AXIS2_PLACEMENT_3D ( 'NONE', #1230, #442, #364 ) ;
#560 = DIRECTION ( 'NONE',  ( 0.8121419612789498865, 0.000000000000000000, -0.5834598827082978501 ) ) ;
#561 = ORIENTED_EDGE ( 'NONE', *, *, #843, .F. ) ;
#562 = CYLINDRICAL_SURFACE ( 'NONE', #736, 2.250000000000001776 ) ;
#563 = CARTESIAN_POINT ( 'NONE',  ( 15.49999999999999645, 0.000000000000000000, -13.25000000000000178 ) ) ;
#564 = EDGE_LOOP ( 'NONE', ( #853, #534, #1224, #669 ) ) ;
#565 = CYLINDRICAL_SURFACE ( 'NONE', #167, 2.249999999999995115 ) ;
#566 = ORIENTED_EDGE ( 'NONE', *, *, #706, .T. ) ;
#567 = DIRECTION ( 'NONE',  ( 0.000000000000000000, -1.000000000000000000, 0.000000000000000000 ) ) ;
#568 = EDGE_CURVE ( 'NONE', #833, #389, #1034, .T. ) ;
#569 = FACE_OUTER_BOUND ( 'NONE', #901, .T. ) ;
#570 = ORIENTED_EDGE ( 'NONE', *, *, #912, .F. ) ;
#571 = FACE_OUTER_BOUND ( 'NONE', #70, .T. ) ;
#572 = DIRECTION ( 'NONE',  ( 0.000000000000000000, 1.000000000000000000, 0.000000000000000000 ) ) ;
#573 = VECTOR ( 'NONE', #1008, 1000.000000000000000 ) ;
#574 = EDGE_CURVE ( 'NONE', #1210, #124, #653, .T. ) ;
#575 = LINE ( 'NONE', #208, #633 ) ;
#576 = VECTOR ( 'NONE', #14, 1000.000000000000000 ) ;
#577 = ADVANCED_FACE ( 'NONE', ( #303 ), #32, .T. ) ;
#578 = VERTEX_POINT ( 'NONE', #310 ) ;
#579 = DIRECTION ( 'NONE',  ( -0.000000000000000000, 1.000000000000000000, -0.000000000000000000 ) ) ;
#580 = AXIS2_PLACEMENT_3D ( 'NONE', #611, #1089, #599 ) ;
#581 = VERTEX_POINT ( 'NONE', #24 ) ;
#582 = CARTESIAN_POINT ( 'NONE',  ( 25.14999999999999503, 8.999999999999998224, 18.27631578947368496 ) ) ;
#583 = CARTESIAN_POINT ( 'NONE',  ( -21.14999999999999503, 12.99999999999999822, -21.14999999999999503 ) ) ;
#584 = ORIENTED_EDGE ( 'NONE', *, *, #627, .T. ) ;
#585 = CARTESIAN_POINT ( 'NONE',  ( 25.14999999999999503, 0.000000000000000000, 21.15000000000000213 ) ) ;
#586 = EDGE_CURVE ( 'NONE', #11, #224, #87, .T. ) ;
#587 = CARTESIAN_POINT ( 'NONE',  ( 15.49999999999999645, 0.000000000000000000, -15.50000000000000000 ) ) ;
#588 = ORIENTED_EDGE ( 'NONE', *, *, #40, .F. ) ;
#589 = FACE_OUTER_BOUND ( 'NONE', #1187, .T. ) ;
#590 = DIRECTION ( 'NONE',  ( 2.312964634635742464E-16, -1.000000000000000000, 0.000000000000000000 ) ) ;
#591 = VECTOR ( 'NONE', #1028, 1000.000000000000000 ) ;
#592 = EDGE_LOOP ( 'NONE', ( #845, #515, #1043, #98 ) ) ;
#593 = AXIS2_PLACEMENT_3D ( 'NONE', #1165, #590, #1063 ) ;
#594 = DIRECTION ( 'NONE',  ( 0.000000000000000000, 0.000000000000000000, 1.000000000000000000 ) ) ;
#595 = AXIS2_PLACEMENT_3D ( 'NONE', #791, #1173, #328 ) ;
#596 = ORIENTED_EDGE ( 'NONE', *, *, #1041, .T. ) ;
#597 = FACE_BOUND ( 'NONE', #851, .T. ) ;
#598 = ORIENTED_EDGE ( 'NONE', *, *, #712, .T. ) ;
#599 = DIRECTION ( 'NONE',  ( 0.000000000000000000, 0.000000000000000000, 1.000000000000000000 ) ) ;
#600 = ORIENTED_EDGE ( 'NONE', *, *, #52, .F. ) ;
#601 = DIRECTION ( 'NONE',  ( 0.000000000000000000, 1.000000000000000000, 0.000000000000000000 ) ) ;
#602 = DIRECTION ( 'NONE',  ( 0.8121419612789497755, 0.000000000000000000, -0.5834598827082979611 ) ) ;
#603 = EDGE_CURVE ( 'NONE', #211, #100, #977, .T. ) ;
#604 = ORIENTED_EDGE ( 'NONE', *, *, #762, .F. ) ;
#605 = FACE_OUTER_BOUND ( 'NONE', #105, .T. ) ;
#606 = ORIENTED_EDGE ( 'NONE', *, *, #468, .F. ) ;
#607 = CARTESIAN_POINT ( 'NONE',  ( -30.64999999999999858, 8.999999999999998224, 0.000000000000000000 ) ) ;
#608 = DIRECTION ( 'NONE',  ( 0.000000000000000000, -1.000000000000000000, 0.000000000000000000 ) ) ;
#609 = EDGE_CURVE ( 'NONE', #150, #196, #786, .T. ) ;
#610 = VERTEX_POINT ( 'NONE', #1074 ) ;
#611 = CARTESIAN_POINT ( 'NONE',  ( 30.14999999999998792, 13.00000000000000533, -2.371092282490353753 ) ) ;
#612 = AXIS2_PLACEMENT_3D ( 'NONE', #97, #961, #117 ) ;
#613 = VERTEX_POINT ( 'NONE', #1046 ) ;
#614 = CARTESIAN_POINT ( 'NONE',  ( -30.64999999999999858, 12.99999999999999822, 2.274999999999999467 ) ) ;
#615 = VECTOR ( 'NONE', #982, 1000.000000000000000 ) ;
#616 = AXIS2_PLACEMENT_3D ( 'NONE', #225, #143, #61 ) ;
#617 = CARTESIAN_POINT ( 'NONE',  ( 15.49999999999999645, 0.000000000000000000, 15.50000000000000000 ) ) ;
#618 = DIRECTION ( 'NONE',  ( -0.5834598827082979611, 0.000000000000000000, -0.8121419612789497755 ) ) ;
#619 = DIRECTION ( 'NONE',  ( 0.000000000000000000, -1.000000000000000000, 0.000000000000000000 ) ) ;
#620 = ORIENTED_EDGE ( 'NONE', *, *, #603, .T. ) ;
#621 = CARTESIAN_POINT ( 'NONE',  ( -21.14999999999999503, 4.000000000000000000, 21.15000000000000213 ) ) ;
#622 = EDGE_CURVE ( 'NONE', #186, #1070, #125, .T. ) ;
#623 = DIRECTION ( 'NONE',  ( 0.000000000000000000, 1.000000000000000000, -0.000000000000000000 ) ) ;
#624 = CARTESIAN_POINT ( 'NONE',  ( 30.64999999999999858, 12.99999999999999822, 2.249999999999987121 ) ) ;
#625 = VERTEX_POINT ( 'NONE', #582 ) ;
#626 = CARTESIAN_POINT ( 'NONE',  ( 30.64999999999999858, 12.99999999999999822, -2.275000000000014122 ) ) ;
#627 = EDGE_CURVE ( 'NONE', #578, #723, #819, .T. ) ;
#628 = DIRECTION ( 'NONE',  ( 0.000000000000000000, 0.000000000000000000, 1.000000000000000000 ) ) ;
#629 = FACE_OUTER_BOUND ( 'NONE', #883, .T. ) ;
#630 = CARTESIAN_POINT ( 'NONE',  ( 21.14999999999998437, 3.999999999999996447, 21.15000000000000213 ) ) ;
#631 = ORIENTED_EDGE ( 'NONE', *, *, #115, .T. ) ;
#632 = DIRECTION ( 'NONE',  ( 0.000000000000000000, 0.000000000000000000, 1.000000000000000000 ) ) ;
#633 = VECTOR ( 'NONE', #191, 1000.000000000000000 ) ;
#634 = DIRECTION ( 'NONE',  ( 0.000000000000000000, 1.000000000000000000, 0.000000000000000000 ) ) ;
#635 = ADVANCED_FACE ( 'NONE', ( #121 ), #491, .T. ) ;
#636 = CONICAL_SURFACE ( 'NONE', #189, 2.275000000000002576, 0.7853981633974482790 ) ;
#637 = DIRECTION ( 'NONE',  ( -1.734723475976804136E-15, 1.000000000000000000, 0.000000000000000000 ) ) ;
#638 = ORIENTED_EDGE ( 'NONE', *, *, #1190, .F. ) ;
#639 = PLANE ( 'NONE',  #69 ) ;
#640 = DIRECTION ( 'NONE',  ( 1.734723475976804333E-15, -1.000000000000000000, -1.246261865635966764E-15 ) ) ;
#641 = ADVANCED_FACE ( 'NONE', ( #767, #761 ), #881, .T. ) ;
#642 = CARTESIAN_POINT ( 'NONE',  ( 40.14999999999999858, 8.999999999999998224, -21.14999999999999503 ) ) ;
#643 = CARTESIAN_POINT ( 'NONE',  ( 25.14999999999999503, 4.000000000000000000, 18.27631578947368141 ) ) ;
#644 = ORIENTED_EDGE ( 'NONE', *, *, #574, .T. ) ;
#645 = FACE_BOUND ( 'NONE', #1191, .T. ) ;
#646 = LINE ( 'NONE', #753, #280 ) ;
#647 = CARTESIAN_POINT ( 'NONE',  ( -30.15000000000000213, 12.99999999999999822, 2.371092282490362635 ) ) ;
#648 = ORIENTED_EDGE ( 'NONE', *, *, #246, .F. ) ;
#649 = DIRECTION ( 'NONE',  ( -0.000000000000000000, 1.000000000000000000, -0.000000000000000000 ) ) ;
#650 = EDGE_CURVE ( 'NONE', #723, #578, #398, .T. ) ;
#651 = LINE ( 'NONE', #176, #322 ) ;
#652 = VECTOR ( 'NONE', #1126, 1000.000000000000000 ) ;
#653 = CIRCLE ( 'NONE', #377, 2.249999999999998668 ) ;
#654 = CARTESIAN_POINT ( 'NONE',  ( 15.49999999999999645, 4.000000000000000000, 13.24999999999999822 ) ) ;
#655 = VECTOR ( 'NONE', #1038, 1000.000000000000000 ) ;
#656 = ORIENTED_EDGE ( 'NONE', *, *, #40, .T. ) ;
#657 = FACE_BOUND ( 'NONE', #425, .T. ) ;
#658 = ORIENTED_EDGE ( 'NONE', *, *, #650, .F. ) ;
#659 = ADVANCED_FACE ( 'NONE', ( #1145, #597 ), #8, .T. ) ;
#660 = CARTESIAN_POINT ( 'NONE',  ( -15.50000000000000355, 0.000000000000000000, 15.50000000000000000 ) ) ;
#661 = DIRECTION ( 'NONE',  ( 0.000000000000000000, 0.000000000000000000, 1.000000000000000000 ) ) ;
#662 = ORIENTED_EDGE ( 'NONE', *, *, #887, .T. ) ;
#663 = DIRECTION ( 'NONE',  ( -0.000000000000000000, 1.000000000000000000, -0.000000000000000000 ) ) ;
#664 = ORIENTED_EDGE ( 'NONE', *, *, #352, .F. ) ;
#665 = DIRECTION ( 'NONE',  ( 0.000000000000000000, 1.000000000000000000, -0.000000000000000000 ) ) ;
#666 = EDGE_CURVE ( 'NONE', #252, #581, #185, .T. ) ;
#667 = EDGE_CURVE ( 'NONE', #1229, #985, #474, .T. ) ;
#668 = DIRECTION ( 'NONE',  ( 1.000000000000000000, -0.000000000000000000, 0.000000000000000000 ) ) ;
#669 = ORIENTED_EDGE ( 'NONE', *, *, #102, .T. ) ;
#670 = CARTESIAN_POINT ( 'NONE',  ( -15.50000000000000355, -38.29999999999999716, 15.50000000000000000 ) ) ;
#671 = ORIENTED_EDGE ( 'NONE', *, *, #188, .T. ) ;
#672 = LINE ( 'NONE', #116, #281 ) ;
#673 = CLOSED_SHELL ( 'NONE', ( #235, #1003, #1197, #874, #1056, #1067, #768, #91, #229, #75, #172, #1018, #861, #956, #659, #201, #641, #635, #1120, #82, #50, #1073, #541, #437, #1125, #293, #135, #27, #934, #729, #812, #3, #306, #1206, #1097, #447, #577, #978 ) ) ;
#674 = CARTESIAN_POINT ( 'NONE',  ( -21.14999999999999147, 4.000000000000000888, 21.15000000000000213 ) ) ;
#675 = EDGE_CURVE ( 'NONE', #236, #1218, #672, .T. ) ;
#676 = CIRCLE ( 'NONE', #222, 2.250000000000001776 ) ;
#677 = AXIS2_PLACEMENT_3D ( 'NONE', #714, #619, #218 ) ;
#678 = ORIENTED_EDGE ( 'NONE', *, *, #533, .T. ) ;
#679 = DIRECTION ( 'NONE',  ( 0.000000000000000000, 0.000000000000000000, 1.000000000000000000 ) ) ;
#680 = ORIENTED_EDGE ( 'NONE', *, *, #104, .T. ) ;
#681 = DIRECTION ( 'NONE',  ( 1.000000000000000000, 2.312964634635742464E-16, 0.000000000000000000 ) ) ;
#682 = EDGE_CURVE ( 'NONE', #741, #62, #876, .T. ) ;
#683 = ORIENTED_EDGE ( 'NONE', *, *, #691, .F. ) ;
#684 = DIRECTION ( 'NONE',  ( 0.000000000000000000, -1.000000000000000000, 0.000000000000000000 ) ) ;
#685 = VERTEX_POINT ( 'NONE', #773 ) ;
#686 = CARTESIAN_POINT ( 'NONE',  ( -17.22197310543600324, -0.000000000000000000, 23.97197721635781420 ) ) ;
#687 = ORIENTED_EDGE ( 'NONE', *, *, #270, .F. ) ;
#688 = CARTESIAN_POINT ( 'NONE',  ( -21.14999999999999503, 0.000000000000000000, 21.15000000000000213 ) ) ;
#689 = ORIENTED_EDGE ( 'NONE', *, *, #401, .F. ) ;
#690 = DIRECTION ( 'NONE',  ( -0.000000000000000000, 1.000000000000000000, -0.000000000000000000 ) ) ;
#691 = EDGE_CURVE ( 'NONE', #1070, #707, #432, .T. ) ;
#692 = CIRCLE ( 'NONE', #164, 2.250000000000000444 ) ;
#693 = VERTEX_POINT ( 'NONE', #248 ) ;
#694 = CONICAL_SURFACE ( 'NONE', #1158, 2.274999999999999467, 0.7853981633974482790 ) ;
#695 = DIRECTION ( 'NONE',  ( 0.000000000000000000, 0.000000000000000000, 1.000000000000000000 ) ) ;
#696 = AXIS2_PLACEMENT_3D ( 'NONE', #478, #765, #958 ) ;
#697 = EDGE_LOOP ( 'NONE', ( #1099, #4, #1127, #226 ) ) ;
#698 = DIRECTION ( 'NONE',  ( 0.000000000000000000, 0.000000000000000000, 1.000000000000000000 ) ) ;
#699 = EDGE_CURVE ( 'NONE', #728, #230, #895, .T. ) ;
#700 = DIRECTION ( 'NONE',  ( 0.000000000000000000, 0.000000000000000000, 1.000000000000000000 ) ) ;
#701 = ORIENTED_EDGE ( 'NONE', *, *, #1059, .T. ) ;
#702 = CYLINDRICAL_SURFACE ( 'NONE', #479, 2.250000000000001776 ) ;
#703 = VERTEX_POINT ( 'NONE', #626 ) ;
#704 = CYLINDRICAL_SURFACE ( 'NONE', #454, 2.249999999999998668 ) ;
#705 = CARTESIAN_POINT ( 'NONE',  ( -15.50000000000000355, -38.29999999999999716, 15.50000000000000000 ) ) ;
#706 = EDGE_CURVE ( 'NONE', #224, #230, #818, .T. ) ;
#707 = VERTEX_POINT ( 'NONE', #621 ) ;
#708 = FACE_OUTER_BOUND ( 'NONE', #80, .T. ) ;
#709 = ORIENTED_EDGE ( 'NONE', *, *, #666, .F. ) ;
#710 = CARTESIAN_POINT ( 'NONE',  ( -40.15000000000000568, 8.999999999999998224, 2.371092282490362635 ) ) ;
#711 = DIRECTION ( 'NONE',  ( -0.8121419612789498865, 0.000000000000000000, -0.5834598827082978501 ) ) ;
#712 = EDGE_CURVE ( 'NONE', #439, #355, #426, .T. ) ;
#713 = ORIENTED_EDGE ( 'NONE', *, *, #1161, .T. ) ;
#714 = CARTESIAN_POINT ( 'NONE',  ( 25.14999999999999503, 8.999999999999998224, -21.14999999999999503 ) ) ;
#715 = CIRCLE ( 'NONE', #1114, 2.250000000000001776 ) ;
#716 = ORIENTED_EDGE ( 'NONE', *, *, #774, .F. ) ;
#717 = LINE ( 'NONE', #414, #1220 ) ;
#718 = AXIS2_PLACEMENT_3D ( 'NONE', #466, #634, #1016 ) ;
#719 = AXIS2_PLACEMENT_3D ( 'NONE', #369, #283, #553 ) ;
#720 = CARTESIAN_POINT ( 'NONE',  ( -15.50000000000000355, -38.29999999999999716, -13.24999999999999822 ) ) ;
#721 = DIRECTION ( 'NONE',  ( -0.000000000000000000, 1.000000000000000000, -0.000000000000000000 ) ) ;
#722 = EDGE_CURVE ( 'NONE', #741, #138, #233, .T. ) ;
#723 = VERTEX_POINT ( 'NONE', #614 ) ;
#724 = DIRECTION ( 'NONE',  ( 0.000000000000000000, 0.000000000000000000, 1.000000000000000000 ) ) ;
#725 = CARTESIAN_POINT ( 'NONE',  ( 40.14999999999999147, 12.99999999999999822, 7.500000000000003553 ) ) ;
#726 = DIRECTION ( 'NONE',  ( 0.000000000000000000, 0.000000000000000000, 1.000000000000000000 ) ) ;
#727 = DIRECTION ( 'NONE',  ( 0.000000000000000000, 0.000000000000000000, 1.000000000000000000 ) ) ;
#728 = VERTEX_POINT ( 'NONE', #804 ) ;
#729 = ADVANCED_FACE ( 'NONE', ( #346 ), #694, .F. ) ;
#730 = LINE ( 'NONE', #1112, #539 ) ;
#731 = VERTEX_POINT ( 'NONE', #910 ) ;
#732 = ORIENTED_EDGE ( 'NONE', *, *, #323, .F. ) ;
#733 = LINE ( 'NONE', #170, #324 ) ;
#734 = VECTOR ( 'NONE', #623, 1000.000000000000000 ) ;
#735 = CARTESIAN_POINT ( 'NONE',  ( 30.15000000000006253, -29.30000000000001137, 2.371092282490311121 ) ) ;
#736 = AXIS2_PLACEMENT_3D ( 'NONE', #95, #259, #287 ) ;
#737 = EDGE_CURVE ( 'NONE', #581, #1163, #227, .T. ) ;
#738 = VECTOR ( 'NONE', #301, 1000.000000000000000 ) ;
#739 = DIRECTION ( 'NONE',  ( 1.000000000000000000, 0.000000000000000000, -0.000000000000000000 ) ) ;
#740 = CARTESIAN_POINT ( 'NONE',  ( -21.14999999999999503, -29.30000000000000071, -21.14999999999999503 ) ) ;
#741 = VERTEX_POINT ( 'NONE', #1188 ) ;
#742 = DIRECTION ( 'NONE',  ( -0.8121419612789497755, 0.000000000000000000, 0.5834598827082978501 ) ) ;
#743 = DIRECTION ( 'NONE',  ( 0.000000000000000000, 1.000000000000000000, 0.000000000000000000 ) ) ;
#744 = CARTESIAN_POINT ( 'NONE',  ( -40.15000000000000568, 12.99999999999999822, -21.14999999999999503 ) ) ;
#745 = EDGE_CURVE ( 'NONE', #138, #1141, #676, .T. ) ;
#746 = ORIENTED_EDGE ( 'NONE', *, *, #699, .T. ) ;
#747 = CARTESIAN_POINT ( 'NONE',  ( -25.15000000000000568, 9.000000000000001776, -21.14999999999999503 ) ) ;
#748 = FACE_OUTER_BOUND ( 'NONE', #120, .T. ) ;
#749 = DIRECTION ( 'NONE',  ( -1.000000000000000000, 0.000000000000000000, 0.000000000000000000 ) ) ;
#750 = EDGE_CURVE ( 'NONE', #458, #1163, #339, .T. ) ;
#751 = ORIENTED_EDGE ( 'NONE', *, *, #603, .F. ) ;
#752 = PRESENTATION_STYLE_ASSIGNMENT (( #179 ) ) ;
#753 = CARTESIAN_POINT ( 'NONE',  ( -35.98459882708297641, 9.000000000000001776, 10.49251189527986305 ) ) ;
#754 = VECTOR ( 'NONE', #519, 1000.000000000000114 ) ;
#755 = VECTOR ( 'NONE', #1080, 1000.000000000000000 ) ;
#756 = VECTOR ( 'NONE', #495, 1000.000000000000000 ) ;
#757 = CARTESIAN_POINT ( 'NONE',  ( 15.49999999999999645, -38.29999999999999716, 17.75000000000000355 ) ) ;
#758 = EDGE_LOOP ( 'NONE', ( #981, #1037 ) ) ;
#759 = CARTESIAN_POINT ( 'NONE',  ( 30.64999999999999858, 12.99999999999999822, -2.275000000000014122 ) ) ;
#760 = ORIENTED_EDGE ( 'NONE', *, *, #667, .T. ) ;
#761 = FACE_BOUND ( 'NONE', #511, .T. ) ;
#762 = EDGE_CURVE ( 'NONE', #833, #772, #239, .T. ) ;
#763 = CARTESIAN_POINT ( 'NONE',  ( 30.64999999999999858, 12.99999999999999822, -1.126062731815991233E-14 ) ) ;
#764 = ORIENTED_EDGE ( 'NONE', *, *, #675, .T. ) ;
#765 = DIRECTION ( 'NONE',  ( 0.000000000000000000, -1.000000000000000000, 0.000000000000000000 ) ) ;
#766 = ORIENTED_EDGE ( 'NONE', *, *, #774, .T. ) ;
#767 = FACE_OUTER_BOUND ( 'NONE', #1153, .T. ) ;
#768 = ADVANCED_FACE ( 'NONE', ( #409 ), #704, .F. ) ;
#769 = LINE ( 'NONE', #583, #433 ) ;
#770 = ORIENTED_EDGE ( 'NONE', *, *, #849, .T. ) ;
#771 = LINE ( 'NONE', #1154, #738 ) ;
#772 = VERTEX_POINT ( 'NONE', #710 ) ;
#773 = CARTESIAN_POINT ( 'NONE',  ( 25.14999999999999503, 8.999999999999998224, -18.27631578947366009 ) ) ;
#774 = EDGE_CURVE ( 'NONE', #1141, #138, #992, .T. ) ;
#775 = VECTOR ( 'NONE', #921, 1000.000000000000000 ) ;
#776 = LINE ( 'NONE', #937, #893 ) ;
#777 = VECTOR ( 'NONE', #925, 1000.000000000000000 ) ;
#778 = EDGE_LOOP ( 'NONE', ( #959, #780, #709, #870 ) ) ;
#779 = CYLINDRICAL_SURFACE ( 'NONE', #436, 10.00000000000000000 ) ;
#780 = ORIENTED_EDGE ( 'NONE', *, *, #737, .F. ) ;
#781 = DIRECTION ( 'NONE',  ( -3.854941057726239083E-16, 1.000000000000000000, 0.000000000000000000 ) ) ;
#782 = EDGE_CURVE ( 'NONE', #1001, #833, #717, .T. ) ;
#783 = ORIENTED_EDGE ( 'NONE', *, *, #837, .T. ) ;
#784 = DIRECTION ( 'NONE',  ( -1.000000000000000000, 0.000000000000000000, -0.000000000000000000 ) ) ;
#785 = VERTEX_POINT ( 'NONE', #1182 ) ;
#786 = LINE ( 'NONE', #381, #45 ) ;
#787 = ORIENTED_EDGE ( 'NONE', *, *, #829, .F. ) ;
#788 = CARTESIAN_POINT ( 'NONE',  ( 30.14999999999999503, 9.000000000000003553, -2.371092282490348868 ) ) ;
#789 = EDGE_CURVE ( 'NONE', #1163, #890, #111, .T. ) ;
#790 = ORIENTED_EDGE ( 'NONE', *, *, #180, .F. ) ;
#791 = CARTESIAN_POINT ( 'NONE',  ( 30.14999999999999503, 8.999999999999998224, 2.371092282490358638 ) ) ;
#792 = VECTOR ( 'NONE', #427, 1000.000000000000114 ) ;
#793 = EDGE_LOOP ( 'NONE', ( #732, #209 ) ) ;
#794 = AXIS2_PLACEMENT_3D ( 'NONE', #735, #640, #1137 ) ;
#795 = DIRECTION ( 'NONE',  ( -0.000000000000000000, 1.000000000000000000, -0.000000000000000000 ) ) ;
#796 = AXIS2_PLACEMENT_3D ( 'NONE', #949, #852, #866 ) ;
#797 = ORIENTED_EDGE ( 'NONE', *, *, #15, .T. ) ;
#798 = CARTESIAN_POINT ( 'NONE',  ( 40.14999999999999858, 8.999999999999998224, -21.14999999999999503 ) ) ;
#799 = EDGE_CURVE ( 'NONE', #613, #439, #1035, .T. ) ;
#800 = CARTESIAN_POINT ( 'NONE',  ( 35.98459882708296220, 12.99999999999999822, -10.49251189527985595 ) ) ;
#801 = EDGE_LOOP ( 'NONE', ( #418, #271, #817, #766 ) ) ;
#802 = DIRECTION ( 'NONE',  ( 0.000000000000000000, 0.000000000000000000, 1.000000000000000000 ) ) ;
#803 = EDGE_LOOP ( 'NONE', ( #178, #522, #480, #47 ) ) ;
#804 = CARTESIAN_POINT ( 'NONE',  ( 30.64999999999999858, 12.97499999999999432, 2.249999999999987121 ) ) ;
#805 = PLANE ( 'NONE',  #472 ) ;
#806 = EDGE_CURVE ( 'NONE', #198, #285, #145, .T. ) ;
#807 = EDGE_LOOP ( 'NONE', ( #966, #570, #493, #713 ) ) ;
#808 = DIRECTION ( 'NONE',  ( 1.734723475976804531E-15, -1.000000000000000000, 1.246261865635965581E-15 ) ) ;
#809 = VERTEX_POINT ( 'NONE', #898 ) ;
#810 = DIRECTION ( 'NONE',  ( -0.000000000000000000, 1.000000000000000000, -0.000000000000000000 ) ) ;
#811 = CARTESIAN_POINT ( 'NONE',  ( 15.49999999999999645, 4.000000000000000000, -15.50000000000000000 ) ) ;
#812 = ADVANCED_FACE ( 'NONE', ( #51 ), #525, .F. ) ;
#813 = DIRECTION ( 'NONE',  ( 0.000000000000000000, 1.000000000000000000, -0.000000000000000000 ) ) ;
#814 = LINE ( 'NONE', #1186, #1178 ) ;
#815 = AXIS2_PLACEMENT_3D ( 'NONE', #1017, #721, #1102 ) ;
#816 = VECTOR ( 'NONE', #200, 1000.000000000000000 ) ;
#817 = ORIENTED_EDGE ( 'NONE', *, *, #216, .T. ) ;
#818 = LINE ( 'NONE', #57, #496 ) ;
#819 = CIRCLE ( 'NONE', #6, 2.274999999999999467 ) ;
#820 = FACE_OUTER_BOUND ( 'NONE', #564, .T. ) ;
#821 = FACE_OUTER_BOUND ( 'NONE', #803, .T. ) ;
#822 = DIRECTION ( 'NONE',  ( 1.000000000000000000, 0.000000000000000000, 0.000000000000000000 ) ) ;
#823 = ORIENTED_EDGE ( 'NONE', *, *, #468, .T. ) ;
#824 = DIRECTION ( 'NONE',  ( 0.000000000000000000, 0.000000000000000000, 1.000000000000000000 ) ) ;
#825 = DIRECTION ( 'NONE',  ( -0.8121419612789498865, 0.000000000000000000, -0.5834598827082978501 ) ) ;
#826 = EDGE_LOOP ( 'NONE', ( #991, #282, #865, #1085 ) ) ;
#827 = VERTEX_POINT ( 'NONE', #1014 ) ;
#828 =( LENGTH_UNIT ( ) NAMED_UNIT ( * ) SI_UNIT ( .MILLI., .METRE. ) );
#829 = EDGE_CURVE ( 'NONE', #355, #372, #343, .T. ) ;
#830 = CARTESIAN_POINT ( 'NONE',  ( -40.15000000000000568, 12.99999999999999822, 2.371092282490362635 ) ) ;
#831 = FACE_OUTER_BOUND ( 'NONE', #17, .T. ) ;
#832 = CARTESIAN_POINT ( 'NONE',  ( 15.49999999999999645, 0.000000000000000000, -17.75000000000000000 ) ) ;
#833 = VERTEX_POINT ( 'NONE', #459 ) ;
#834 = CARTESIAN_POINT ( 'NONE',  ( -15.50000000000000355, 4.000000000000000000, -15.50000000000000000 ) ) ;
#835 = CARTESIAN_POINT ( 'NONE',  ( 30.64999999999999858, 12.99999999999999822, 2.274999999999991473 ) ) ;
#836 = AXIS2_PLACEMENT_3D ( 'NONE', #968, #212, #1169 ) ;
#837 = EDGE_CURVE ( 'NONE', #1110, #610, #733, .T. ) ;
#838 = CARTESIAN_POINT ( 'NONE',  ( 21.14999999999997016, -29.30000000000000071, -21.14999999999999503 ) ) ;
#839 = APPLICATION_PROTOCOL_DEFINITION ( 'draft international standard', 'automotive_design', 1998, #67 ) ;
#840 = ORIENTED_EDGE ( 'NONE', *, *, #216, .F. ) ;
#841 = DIRECTION ( 'NONE',  ( -0.5834598827082975170, 0.000000000000000000, 0.8121419612789501086 ) ) ;
#842 = LINE ( 'NONE', #448, #557 ) ;
#843 = EDGE_CURVE ( 'NONE', #1090, #1218, #276, .T. ) ;
#844 = LINE ( 'NONE', #288, #591 ) ;
#845 = ORIENTED_EDGE ( 'NONE', *, *, #15, .F. ) ;
#846 = CARTESIAN_POINT ( 'NONE',  ( 0.000000000000000000, 4.000000000000000000, 0.000000000000000000 ) ) ;
#847 = LINE ( 'NONE', #929, #66 ) ;
#848 = MANIFOLD_SOLID_BREP ( 'Raccordo1', #673 ) ;
#849 = EDGE_CURVE ( 'NONE', #100, #220, #1159, .T. ) ;
#850 = DIRECTION ( 'NONE',  ( -1.000000000000000000, 0.000000000000000000, 0.000000000000000000 ) ) ;
#851 = EDGE_LOOP ( 'NONE', ( #535, #402 ) ) ;
#852 = DIRECTION ( 'NONE',  ( 0.000000000000000000, -1.000000000000000000, 0.000000000000000000 ) ) ;
#853 = ORIENTED_EDGE ( 'NONE', *, *, #609, .F. ) ;
#854 = DIRECTION ( 'NONE',  ( -0.000000000000000000, 1.000000000000000000, -0.000000000000000000 ) ) ;
#855 = AXIS2_PLACEMENT_3D ( 'NONE', #1108, #1203, #84 ) ;
#856 = VECTOR ( 'NONE', #387, 1000.000000000000000 ) ;
#857 = PRESENTATION_LAYER_ASSIGNMENT (  '', '', ( #953 ) ) ;
#858 = FACE_OUTER_BOUND ( 'NONE', #592, .T. ) ;
#859 = ORIENTED_EDGE ( 'NONE', *, *, #547, .F. ) ;
#860 = DIRECTION ( 'NONE',  ( 0.000000000000000000, 0.000000000000000000, 1.000000000000000000 ) ) ;
#861 = ADVANCED_FACE ( 'NONE', ( #266, #465, #940, #645, #77 ), #639, .F. ) ;
#862 = ORIENTED_EDGE ( 'NONE', *, *, #682, .F. ) ;
#863 = CARTESIAN_POINT ( 'NONE',  ( -15.50000000000000355, -38.29999999999999716, -17.75000000000000355 ) ) ;
#864 = DIRECTION ( 'NONE',  ( 0.000000000000000000, 0.000000000000000000, 1.000000000000000000 ) ) ;
#865 = ORIENTED_EDGE ( 'NONE', *, *, #899, .T. ) ;
#866 = DIRECTION ( 'NONE',  ( 0.000000000000000000, 0.000000000000000000, -1.000000000000000000 ) ) ;
#867 = PRODUCT_DEFINITION ( 'NON CONOSCIUTO', '', #1058, #521 ) ;
#868 = CARTESIAN_POINT ( 'NONE',  ( 15.49999999999999645, 0.000000000000000000, 15.50000000000000000 ) ) ;
#869 = CARTESIAN_POINT ( 'NONE',  ( -15.50000000000000355, 4.000000000000000000, 13.25000000000000000 ) ) ;
#870 = ORIENTED_EDGE ( 'NONE', *, *, #115, .F. ) ;
#871 = FACE_BOUND ( 'NONE', #1136, .T. ) ;
#872 = ORIENTED_EDGE ( 'NONE', *, *, #1059, .F. ) ;
#873 = DIRECTION ( 'NONE',  ( 1.000000000000000000, 3.854941057726239083E-16, -0.000000000000000000 ) ) ;
#874 = ADVANCED_FACE ( 'NONE', ( #1026 ), #932, .F. ) ;
#875 = AXIS2_PLACEMENT_3D ( 'NONE', #382, #279, #1057 ) ;
#876 = CIRCLE ( 'NONE', #342, 2.250000000000001776 ) ;
#877 = VECTOR ( 'NONE', #649, 1000.000000000000000 ) ;
#878 = ORIENTED_EDGE ( 'NONE', *, *, #154, .T. ) ;
#879 = CARTESIAN_POINT ( 'NONE',  ( -25.15000000000000213, 4.000000000000000000, 21.15000000000000213 ) ) ;
#880 = ORIENTED_EDGE ( 'NONE', *, *, #313, .F. ) ;
#881 = PLANE ( 'NONE',  #26 ) ;
#882 = EDGE_CURVE ( 'NONE', #693, #1001, #499, .T. ) ;
#883 = EDGE_LOOP ( 'NONE', ( #1181, #488, #701, #217 ) ) ;
#884 = FACE_BOUND ( 'NONE', #758, .T. ) ;
#885 = ORIENTED_EDGE ( 'NONE', *, *, #313, .T. ) ;
#886 = CARTESIAN_POINT ( 'NONE',  ( -30.64999999999999858, 12.99999999999999822, 0.000000000000000000 ) ) ;
#887 = EDGE_CURVE ( 'NONE', #385, #236, #544, .T. ) ;
#888 = ORIENTED_EDGE ( 'NONE', *, *, #533, .F. ) ;
#889 = DIRECTION ( 'NONE',  ( 1.000000000000000000, 1.734723475976806700E-15, 0.000000000000000000 ) ) ;
#890 = VERTEX_POINT ( 'NONE', #549 ) ;
#891 = DIRECTION ( 'NONE',  ( 0.000000000000000000, 0.000000000000000000, 1.000000000000000000 ) ) ;
#892 = DIRECTION ( 'NONE',  ( -0.000000000000000000, 1.000000000000000000, -0.000000000000000000 ) ) ;
#893 = VECTOR ( 'NONE', #1152, 1000.000000000000000 ) ;
#894 = ORIENTED_EDGE ( 'NONE', *, *, #969, .F. ) ;
#895 = CIRCLE ( 'NONE', #1135, 2.249999999999998668 ) ;
#896 = CARTESIAN_POINT ( 'NONE',  ( 15.49999999999999645, 4.000000000000000000, 17.75000000000000355 ) ) ;
#897 = ORIENTED_EDGE ( 'NONE', *, *, #513, .T. ) ;
#898 = CARTESIAN_POINT ( 'NONE',  ( -25.15000000000000568, 9.000000000000001776, 18.27631578947367785 ) ) ;
#899 = EDGE_CURVE ( 'NONE', #372, #723, #928, .T. ) ;
#900 = DIRECTION ( 'NONE',  ( 0.000000000000000000, 0.000000000000000000, 1.000000000000000000 ) ) ;
#901 = EDGE_LOOP ( 'NONE', ( #787, #338, #584, #29 ) ) ;
#902 = FACE_OUTER_BOUND ( 'NONE', #1122, .T. ) ;
#903 = ORIENTED_EDGE ( 'NONE', *, *, #905, .F. ) ;
#904 = CARTESIAN_POINT ( 'NONE',  ( 40.14999999999999147, -29.30000000000000071, -7.499999999999996447 ) ) ;
#905 = EDGE_CURVE ( 'NONE', #1068, #809, #89, .T. ) ;
#906 = CARTESIAN_POINT ( 'NONE',  ( 21.14999999999998437, 12.99999999999999822, 21.15000000000000213 ) ) ;
#907 = FACE_OUTER_BOUND ( 'NONE', #158, .T. ) ;
#908 = DIRECTION ( 'NONE',  ( -0.000000000000000000, 1.000000000000000000, -0.000000000000000000 ) ) ;
#909 = ORIENTED_EDGE ( 'NONE', *, *, #505, .F. ) ;
#910 = CARTESIAN_POINT ( 'NONE',  ( -15.50000000000000355, 4.000000000000000000, 17.75000000000000355 ) ) ;
#911 = DIRECTION ( 'NONE',  ( 0.000000000000000000, 1.000000000000000000, 0.000000000000000000 ) ) ;
#912 = EDGE_CURVE ( 'NONE', #275, #707, #918, .T. ) ;
#913 = LINE ( 'NONE', #256, #1175 ) ;
#914 = CARTESIAN_POINT ( 'NONE',  ( 40.14999999999999147, 12.99999999999999822, -7.499999999999996447 ) ) ;
#915 = VECTOR ( 'NONE', #388, 1000.000000000000000 ) ;
#916 = CIRCLE ( 'NONE', #517, 2.250000000000000444 ) ;
#917 = ORIENTED_EDGE ( 'NONE', *, *, #666, .T. ) ;
#918 = LINE ( 'NONE', #351, #1199 ) ;
#919 = VECTOR ( 'NONE', #99, 1000.000000000000114 ) ;
#920 = VECTOR ( 'NONE', #55, 1000.000000000000000 ) ;
#921 = DIRECTION ( 'NONE',  ( 1.734723475976804333E-15, -1.000000000000000000, 1.246261865635965581E-15 ) ) ;
#922 = EDGE_CURVE ( 'NONE', #785, #211, #518, .T. ) ;
#923 = DIRECTION ( 'NONE',  ( 0.000000000000000000, 0.000000000000000000, 1.000000000000000000 ) ) ;
#924 = ORIENTED_EDGE ( 'NONE', *, *, #254, .F. ) ;
#925 = DIRECTION ( 'NONE',  ( 1.000000000000000000, 0.000000000000000000, 0.000000000000000000 ) ) ;
#926 = ORIENTED_EDGE ( 'NONE', *, *, #254, .T. ) ;
#927 = ORIENTED_EDGE ( 'NONE', *, *, #627, .F. ) ;
#928 = LINE ( 'NONE', #81, #1118 ) ;
#929 = CARTESIAN_POINT ( 'NONE',  ( 21.14999999999998437, 13.00000000000000533, -21.14999999999999503 ) ) ;
#930 = CARTESIAN_POINT ( 'NONE',  ( -30.64999999999999858, 12.99999999999999822, -2.274999999999999467 ) ) ;
#931 = ORIENTED_EDGE ( 'NONE', *, *, #526, .F. ) ;
#932 = CYLINDRICAL_SURFACE ( 'NONE', #559, 2.249999999999998668 ) ;
#933 = CONICAL_SURFACE ( 'NONE', #855, 2.275000000000002576, 0.7853981633974482790 ) ;
#934 = ADVANCED_FACE ( 'NONE', ( #308 ), #197, .F. ) ;
#935 = CYLINDRICAL_SURFACE ( 'NONE', #794, 9.999999999999998224 ) ;
#936 = AXIS2_PLACEMENT_3D ( 'NONE', #446, #94, #1128 ) ;
#937 = CARTESIAN_POINT ( 'NONE',  ( -25.15000000000000213, 0.000000000000000000, -21.14999999999999503 ) ) ;
#938 = LINE ( 'NONE', #914, #168 ) ;
#939 = ORIENTED_EDGE ( 'NONE', *, *, #745, .T. ) ;
#940 = FACE_BOUND ( 'NONE', #423, .T. ) ;
#941 = CARTESIAN_POINT ( 'NONE',  ( 30.64999999999999858, 12.99999999999999822, 2.274999999999991473 ) ) ;
#942 = CARTESIAN_POINT ( 'NONE',  ( -25.15000000000000213, 0.000000000000000000, 18.27631578947368141 ) ) ;
#943 = ORIENTED_EDGE ( 'NONE', *, *, #180, .T. ) ;
#944 = LINE ( 'NONE', #1148, #129 ) ;
#945 = ORIENTED_EDGE ( 'NONE', *, *, #451, .T. ) ;
#946 = CYLINDRICAL_SURFACE ( 'NONE', #127, 2.249999999999998668 ) ;
#947 = DIRECTION ( 'NONE',  ( 0.000000000000000000, 1.000000000000000000, -0.000000000000000000 ) ) ;
#948 = EDGE_LOOP ( 'NONE', ( #88, #1205, #1045, #746 ) ) ;
#949 = CARTESIAN_POINT ( 'NONE',  ( -15.50000000000000355, 0.000000000000000000, -15.50000000000000000 ) ) ;
#950 = ORIENTED_EDGE ( 'NONE', *, *, #1041, .F. ) ;
#951 = DIRECTION ( 'NONE',  ( 0.000000000000000000, 0.000000000000000000, 1.000000000000000000 ) ) ;
#952 = AXIS2_PLACEMENT_3D ( 'NONE', #357, #1033, #190 ) ;
#953 = STYLED_ITEM ( 'NONE', ( #752 ), #848 ) ;
#954 = CARTESIAN_POINT ( 'NONE',  ( -15.50000000000000355, 4.000000000000000000, -17.75000000000000355 ) ) ;
#955 = UNCERTAINTY_MEASURE_WITH_UNIT (LENGTH_MEASURE( 1.000000000000000082E-05 ), #828, 'distance_accuracy_value', 'NONE');
#956 = ADVANCED_FACE ( 'NONE', ( #571, #119, #657, #871, #1050 ), #30, .T. ) ;
#957 = ORIENTED_EDGE ( 'NONE', *, *, #574, .F. ) ;
#958 = DIRECTION ( 'NONE',  ( 0.000000000000000000, -0.000000000000000000, -1.000000000000000000 ) ) ;
#959 = ORIENTED_EDGE ( 'NONE', *, *, #789, .F. ) ;
#960 = DIRECTION ( 'NONE',  ( -0.000000000000000000, 1.000000000000000000, -0.000000000000000000 ) ) ;
#961 = DIRECTION ( 'NONE',  ( 0.000000000000000000, 1.000000000000000000, 0.000000000000000000 ) ) ;
#962 = ORIENTED_EDGE ( 'NONE', *, *, #52, .T. ) ;
#963 = PLANE ( 'NONE',  #1138 ) ;
#964 = ORIENTED_EDGE ( 'NONE', *, *, #1161, .F. ) ;
#965 = DIRECTION ( 'NONE',  ( 0.000000000000000000, -1.000000000000000000, 0.000000000000000000 ) ) ;
#966 = ORIENTED_EDGE ( 'NONE', *, *, #154, .F. ) ;
#967 = CARTESIAN_POINT ( 'NONE',  ( -40.15000000000000568, 12.99999999999999822, -2.371092282490355529 ) ) ;
#968 = CARTESIAN_POINT ( 'NONE',  ( 30.64999999999999858, 8.999999999999998224, -1.126062731815991233E-14 ) ) ;
#969 = EDGE_CURVE ( 'NONE', #22, #198, #123, .T. ) ;
#970 = AXIS2_PLACEMENT_3D ( 'NONE', #647, #947, #112 ) ;
#971 = VECTOR ( 'NONE', #374, 1000.000000000000114 ) ;
#972 = VECTOR ( 'NONE', #504, 1000.000000000000000 ) ;
#973 = VECTOR ( 'NONE', #824, 1000.000000000000000 ) ;
#974 = ORIENTED_EDGE ( 'NONE', *, *, #1009, .F. ) ;
#975 = CARTESIAN_POINT ( 'NONE',  ( -25.15000000000000213, 0.000000000000000000, 21.15000000000000213 ) ) ;
#976 = ORIENTED_EDGE ( 'NONE', *, *, #984, .T. ) ;
#977 = LINE ( 'NONE', #863, #576 ) ;
#978 = ADVANCED_FACE ( 'NONE', ( #1142 ), #779, .T. ) ;
#979 = EDGE_LOOP ( 'NONE', ( #363, #598, #152, #144 ) ) ;
#980 = DIRECTION ( 'NONE',  ( 0.000000000000000000, 0.000000000000000000, 1.000000000000000000 ) ) ;
#981 = ORIENTED_EDGE ( 'NONE', *, *, #586, .T. ) ;
#982 = DIRECTION ( 'NONE',  ( 0.000000000000000000, 0.000000000000000000, 1.000000000000000000 ) ) ;
#983 = DIRECTION ( 'NONE',  ( -0.000000000000000000, 1.000000000000000000, -0.000000000000000000 ) ) ;
#984 = EDGE_CURVE ( 'NONE', #503, #275, #114, .T. ) ;
#985 = VERTEX_POINT ( 'NONE', #1044 ) ;
#986 = DIRECTION ( 'NONE',  ( -0.000000000000000000, 1.000000000000000000, -0.000000000000000000 ) ) ;
#987 = ORIENTED_EDGE ( 'NONE', *, *, #492, .F. ) ;
#988 = DIRECTION ( 'NONE',  ( -0.000000000000000000, 1.000000000000000000, -0.000000000000000000 ) ) ;
#989 = CARTESIAN_POINT ( 'NONE',  ( 15.49999999999999645, -38.29999999999999716, -13.25000000000000178 ) ) ;
#990 = CIRCLE ( 'NONE', #970, 10.00000000000000000 ) ;
#991 = ORIENTED_EDGE ( 'NONE', *, *, #33, .F. ) ;
#992 = CIRCLE ( 'NONE', #243, 2.250000000000001776 ) ;
#993 = CARTESIAN_POINT ( 'NONE',  ( 30.64999999999999858, 12.99999999999999822, -1.126062731815991233E-14 ) ) ;
#994 = AXIS2_PLACEMENT_3D ( 'NONE', #834, #1117, #536 ) ;
#995 = ORIENTED_EDGE ( 'NONE', *, *, #358, .T. ) ;
#996 = DIRECTION ( 'NONE',  ( 0.000000000000000000, 0.000000000000000000, 1.000000000000000000 ) ) ;
#997 = VECTOR ( 'NONE', #1180, 1000.000000000000000 ) ;
#998 = LINE ( 'NONE', #58, #775 ) ;
#999 = PLANE ( 'NONE',  #556 ) ;
#1000 = CARTESIAN_POINT ( 'NONE',  ( -21.14999999999999503, 0.000000000000000000, -21.14999999999999503 ) ) ;
#1001 = VERTEX_POINT ( 'NONE', #967 ) ;
#1002 = CARTESIAN_POINT ( 'NONE',  ( 15.49999999999999645, 4.000000000000000000, 15.50000000000000000 ) ) ;
#1003 = ADVANCED_FACE ( 'NONE', ( #5 ), #565, .F. ) ;
#1004 = CARTESIAN_POINT ( 'NONE',  ( -30.64999999999999858, 12.97499999999999432, 2.249999999999995115 ) ) ;
#1005 = LINE ( 'NONE', #744, #514 ) ;
#1006 = ORIENTED_EDGE ( 'NONE', *, *, #330, .F. ) ;
#1007 = DIRECTION ( 'NONE',  ( 0.000000000000000000, 0.7071067811865474617, 0.7071067811865474617 ) ) ;
#1008 = DIRECTION ( 'NONE',  ( -0.000000000000000000, 1.000000000000000000, -0.000000000000000000 ) ) ;
#1009 = EDGE_CURVE ( 'NONE', #483, #685, #944, .T. ) ;
#1010 = FACE_BOUND ( 'NONE', #13, .T. ) ;
#1011 = AXIS2_PLACEMENT_3D ( 'NONE', #1227, #749, #661 ) ;
#1012 = AXIS2_PLACEMENT_3D ( 'NONE', #1069, #690, #221 ) ;
#1013 = ORIENTED_EDGE ( 'NONE', *, *, #722, .T. ) ;
#1014 = CARTESIAN_POINT ( 'NONE',  ( -21.14999999999999503, 12.99999999999999822, 21.15000000000000213 ) ) ;
#1015 = MECHANICAL_DESIGN_GEOMETRIC_PRESENTATION_REPRESENTATION (  '', ( #953 ), #284 ) ;
#1016 = DIRECTION ( 'NONE',  ( 0.000000000000000000, 0.000000000000000000, 1.000000000000000000 ) ) ;
#1017 = CARTESIAN_POINT ( 'NONE',  ( -15.50000000000000355, -38.29999999999999716, -15.50000000000000000 ) ) ;
#1018 = ADVANCED_FACE ( 'NONE', ( #589 ), #963, .F. ) ;
#1019 = ORIENTED_EDGE ( 'NONE', *, *, #1082, .F. ) ;
#1020 = CARTESIAN_POINT ( 'NONE',  ( 21.14999999999998437, 13.00000000000000533, -21.14999999999999503 ) ) ;
#1021 = LINE ( 'NONE', #83, #108 ) ;
#1022 = DIRECTION ( 'NONE',  ( 1.000000000000000000, 1.734723475976804136E-15, -0.000000000000000000 ) ) ;
#1023 = PLANE ( 'NONE',  #46 ) ;
#1024 = EDGE_CURVE ( 'NONE', #230, #703, #23, .T. ) ;
#1025 = ORIENTED_EDGE ( 'NONE', *, *, #260, .F. ) ;
#1026 = FACE_OUTER_BOUND ( 'NONE', #300, .T. ) ;
#1027 = DIRECTION ( 'NONE',  ( 0.000000000000000000, 0.000000000000000000, 1.000000000000000000 ) ) ;
#1028 = DIRECTION ( 'NONE',  ( -0.000000000000000000, 1.000000000000000000, -0.000000000000000000 ) ) ;
#1029 = DIRECTION ( 'NONE',  ( 0.5834598827082978501, 0.000000000000000000, 0.8121419612789498865 ) ) ;
#1030 = ORIENTED_EDGE ( 'NONE', *, *, #1174, .F. ) ;
#1031 = DIRECTION ( 'NONE',  ( 0.000000000000000000, -0.000000000000000000, -1.000000000000000000 ) ) ;
#1032 = EDGE_CURVE ( 'NONE', #372, #355, #476, .T. ) ;
#1033 = DIRECTION ( 'NONE',  ( -0.000000000000000000, 1.000000000000000000, -0.000000000000000000 ) ) ;
#1034 = CIRCLE ( 'NONE', #593, 10.00000000000000178 ) ;
#1035 = CIRCLE ( 'NONE', #9, 2.249999999999995115 ) ;
#1036 = DIRECTION ( 'NONE',  ( 0.000000000000000000, 0.000000000000000000, 1.000000000000000000 ) ) ;
#1037 = ORIENTED_EDGE ( 'NONE', *, *, #274, .T. ) ;
#1038 = DIRECTION ( 'NONE',  ( 0.000000000000000000, 0.000000000000000000, -1.000000000000000000 ) ) ;
#1039 = EDGE_LOOP ( 'NONE', ( #38, #678, #962, #880, #1049, #314, #878 ) ) ;
#1040 = DIRECTION ( 'NONE',  ( -0.8121419612789497755, -1.878455634741921350E-16, 0.5834598827082978501 ) ) ;
#1041 = EDGE_CURVE ( 'NONE', #211, #785, #378, .T. ) ;
#1042 = CARTESIAN_POINT ( 'NONE',  ( 30.64999999999999858, 12.97499999999999432, -2.250000000000009770 ) ) ;
#1043 = ORIENTED_EDGE ( 'NONE', *, *, #762, .T. ) ;
#1044 = CARTESIAN_POINT ( 'NONE',  ( 15.49999999999999645, 4.000000000000000000, -17.75000000000000000 ) ) ;
#1045 = ORIENTED_EDGE ( 'NONE', *, *, #96, .T. ) ;
#1046 = CARTESIAN_POINT ( 'NONE',  ( -30.64999999999999858, 8.999999999999998224, 2.249999999999995115 ) ) ;
#1047 = EDGE_CURVE ( 'NONE', #198, #685, #107, .T. ) ;
#1048 = CARTESIAN_POINT ( 'NONE',  ( -40.15000000000000568, 12.99999999999999822, -21.14999999999999503 ) ) ;
#1049 = ORIENTED_EDGE ( 'NONE', *, *, #622, .T. ) ;
#1050 = FACE_BOUND ( 'NONE', #136, .T. ) ;
#1051 = ORIENTED_EDGE ( 'NONE', *, *, #1228, .T. ) ;
#1052 = DIRECTION ( 'NONE',  ( 0.000000000000000000, 0.000000000000000000, -1.000000000000000000 ) ) ;
#1053 = VECTOR ( 'NONE', #900, 1000.000000000000000 ) ;
#1054 = VECTOR ( 'NONE', #825, 1000.000000000000000 ) ;
#1055 = AXIS2_PLACEMENT_3D ( 'NONE', #424, #986, #980 ) ;
#1056 = ADVANCED_FACE ( 'NONE', ( #296 ), #18, .F. ) ;
#1057 = DIRECTION ( 'NONE',  ( 0.000000000000000000, 0.000000000000000000, 1.000000000000000000 ) ) ;
#1058 = PRODUCT_DEFINITION_FORMATION_WITH_SPECIFIED_SOURCE ( 'TUTTO', '', #1129, .NOT_KNOWN. ) ;
#1059 = EDGE_CURVE ( 'NONE', #41, #581, #771, .T. ) ;
#1060 = EDGE_LOOP ( 'NONE', ( #1149, #174, #995, #924 ) ) ;
#1061 = CARTESIAN_POINT ( 'NONE',  ( -25.15000000000000213, 4.000000000000000000, -21.14999999999999503 ) ) ;
#1062 = EDGE_LOOP ( 'NONE', ( #383, #644, #926, #760 ) ) ;
#1063 = DIRECTION ( 'NONE',  ( 1.000000000000000000, 1.734723475976806848E-16, 0.000000000000000000 ) ) ;
#1064 = ADVANCED_BREP_SHAPE_REPRESENTATION ( 'ARP-0089', ( #848, #1221 ), #438 ) ;
#1065 = EDGE_LOOP ( 'NONE', ( #897, #379, #1132, #1179 ) ) ;
#1066 = DIRECTION ( 'NONE',  ( 0.000000000000000000, 0.000000000000000000, -1.000000000000000000 ) ) ;
#1067 = ADVANCED_FACE ( 'NONE', ( #397 ), #407, .F. ) ;
#1068 = VERTEX_POINT ( 'NONE', #1171 ) ;
#1069 = CARTESIAN_POINT ( 'NONE',  ( -30.64999999999999858, 12.99999999999999822, 0.000000000000000000 ) ) ;
#1070 = VERTEX_POINT ( 'NONE', #688 ) ;
#1071 = DIRECTION ( 'NONE',  ( 0.000000000000000000, -1.000000000000000000, 0.000000000000000000 ) ) ;
#1072 = ORIENTED_EDGE ( 'NONE', *, *, #837, .F. ) ;
#1073 = ADVANCED_FACE ( 'NONE', ( #529, #884 ), #332, .T. ) ;
#1074 = CARTESIAN_POINT ( 'NONE',  ( -25.15000000000000213, 0.000000000000000000, -18.27631578947368141 ) ) ;
#1075 = VECTOR ( 'NONE', #724, 1000.000000000000000 ) ;
#1076 = VECTOR ( 'NONE', #153, 999.9999999999998863 ) ;
#1077 = ORIENTED_EDGE ( 'NONE', *, *, #386, .T. ) ;
#1078 = LINE ( 'NONE', #975, #997 ) ;
#1079 = ORIENTED_EDGE ( 'NONE', *, *, #789, .T. ) ;
#1080 = DIRECTION ( 'NONE',  ( 1.734723475976804136E-15, -1.000000000000000000, -1.246261865635966764E-15 ) ) ;
#1081 = CARTESIAN_POINT ( 'NONE',  ( 21.14999999999997016, 0.000000000000000000, -21.14999999999999503 ) ) ;
#1082 = EDGE_CURVE ( 'NONE', #703, #490, #362, .T. ) ;
#1083 = VERTEX_POINT ( 'NONE', #419 ) ;
#1084 = DIRECTION ( 'NONE',  ( -0.000000000000000000, 1.000000000000000000, -0.000000000000000000 ) ) ;
#1085 = ORIENTED_EDGE ( 'NONE', *, *, #650, .T. ) ;
#1086 = CARTESIAN_POINT ( 'NONE',  ( 30.64999999999999858, 12.97499999999999432, -1.126062731815991233E-14 ) ) ;
#1087 = LINE ( 'NONE', #422, #106 ) ;
#1088 = ORIENTED_EDGE ( 'NONE', *, *, #475, .F. ) ;
#1089 = DIRECTION ( 'NONE',  ( 0.000000000000000000, 1.000000000000000000, -0.000000000000000000 ) ) ;
#1090 = VERTEX_POINT ( 'NONE', #151 ) ;
#1091 = DIRECTION ( 'NONE',  ( -0.000000000000000000, 1.000000000000000000, -0.000000000000000000 ) ) ;
#1092 = DIRECTION ( 'NONE',  ( 0.000000000000000000, -1.000000000000000000, 0.000000000000000000 ) ) ;
#1093 = VECTOR ( 'NONE', #177, 1000.000000000000000 ) ;
#1094 = EDGE_LOOP ( 'NONE', ( #1051, #524, #113, #543, #169, #122, #689 ) ) ;
#1095 = AXIS2_PLACEMENT_3D ( 'NONE', #205, #1150, #681 ) ;
#1096 = DIRECTION ( 'NONE',  ( 0.000000000000000000, 0.000000000000000000, -1.000000000000000000 ) ) ;
#1097 = ADVANCED_FACE ( 'NONE', ( #708 ), #157, .T. ) ;
#1098 = AXIS2_PLACEMENT_3D ( 'NONE', #788, #808, #889 ) ;
#1099 = ORIENTED_EDGE ( 'NONE', *, *, #984, .F. ) ;
#1100 = DIRECTION ( 'NONE',  ( 0.000000000000000000, 0.000000000000000000, 1.000000000000000000 ) ) ;
#1101 = CARTESIAN_POINT ( 'NONE',  ( 21.14999999999997016, 12.99999999999999822, -21.14999999999999503 ) ) ;
#1102 = DIRECTION ( 'NONE',  ( 0.000000000000000000, 0.000000000000000000, 1.000000000000000000 ) ) ;
#1103 = CARTESIAN_POINT ( 'NONE',  ( 15.49999999999999645, 4.000000000000000000, -13.25000000000000178 ) ) ;
#1104 = ORIENTED_EDGE ( 'NONE', *, *, #128, .F. ) ;
#1105 = CARTESIAN_POINT ( 'NONE',  ( 15.49999999999999645, 4.000000000000000000, 15.50000000000000000 ) ) ;
#1106 = EDGE_CURVE ( 'NONE', #439, #613, #304, .T. ) ;
#1107 = FACE_OUTER_BOUND ( 'NONE', #1039, .T. ) ;
#1108 = CARTESIAN_POINT ( 'NONE',  ( 30.64999999999999858, 12.99999999999999822, -1.126062731815991233E-14 ) ) ;
#1109 =( NAMED_UNIT ( * ) PLANE_ANGLE_UNIT ( ) SI_UNIT ( $, .RADIAN. ) );
#1110 = VERTEX_POINT ( 'NONE', #1000 ) ;
#1111 = SURFACE_SIDE_STYLE ('',( #1123 ) ) ;
#1112 = CARTESIAN_POINT ( 'NONE',  ( -40.15000000000000568, 12.99999999999999822, 2.371092282490362635 ) ) ;
#1113 = ORIENTED_EDGE ( 'NONE', *, *, #260, .T. ) ;
#1114 = AXIS2_PLACEMENT_3D ( 'NONE', #617, #608, #234 ) ;
#1115 = AXIS2_PLACEMENT_3D ( 'NONE', #405, #965, #215 ) ;
#1116 = ORIENTED_EDGE ( 'NONE', *, *, #1190, .T. ) ;
#1117 = DIRECTION ( 'NONE',  ( 0.000000000000000000, 1.000000000000000000, 0.000000000000000000 ) ) ;
#1118 = VECTOR ( 'NONE', #1007, 1000.000000000000114 ) ;
#1119 = DIRECTION ( 'NONE',  ( -0.000000000000000000, 1.000000000000000000, -0.000000000000000000 ) ) ;
#1120 = ADVANCED_FACE ( 'NONE', ( #902 ), #39, .T. ) ;
#1121 = PLANE ( 'NONE',  #494 ) ;
#1122 = EDGE_LOOP ( 'NONE', ( #309, #406, #302, #333 ) ) ;
#1123 = SURFACE_STYLE_FILL_AREA ( #71 ) ;
#1124 = DIRECTION ( 'NONE',  ( 0.000000000000000000, 0.000000000000000000, 1.000000000000000000 ) ) ;
#1125 = ADVANCED_FACE ( 'NONE', ( #317 ), #702, .F. ) ;
#1126 = DIRECTION ( 'NONE',  ( -0.000000000000000000, 1.000000000000000000, -0.000000000000000000 ) ) ;
#1127 = ORIENTED_EDGE ( 'NONE', *, *, #141, .T. ) ;
#1128 = DIRECTION ( 'NONE',  ( 0.000000000000000000, 0.000000000000000000, 1.000000000000000000 ) ) ;
#1129 = PRODUCT ( 'ARP-0089', 'ARP-0089', '', ( #85 ) ) ;
#1130 = CARTESIAN_POINT ( 'NONE',  ( -21.14999999999999503, 12.99999999999999822, 21.15000000000000213 ) ) ;
#1131 = DIRECTION ( 'NONE',  ( 0.8121419612789498865, -0.000000000000000000, -0.5834598827082978501 ) ) ;
#1132 = ORIENTED_EDGE ( 'NONE', *, *, #969, .T. ) ;
#1133 = AXIS2_PLACEMENT_3D ( 'NONE', #1048, #850, #864 ) ;
#1134 = EDGE_CURVE ( 'NONE', #124, #1210, #130, .T. ) ;
#1135 = AXIS2_PLACEMENT_3D ( 'NONE', #1086, #421, #321 ) ;
#1136 = EDGE_LOOP ( 'NONE', ( #54, #957 ) ) ;
#1137 = DIRECTION ( 'NONE',  ( 1.000000000000000000, 1.734723475976807489E-15, 0.000000000000000000 ) ) ;
#1138 = AXIS2_PLACEMENT_3D ( 'NONE', #879, #403, #784 ) ;
#1139 = AXIS2_PLACEMENT_3D ( 'NONE', #380, #1167, #679 ) ;
#1140 = CARTESIAN_POINT ( 'NONE',  ( -15.50000000000000355, 4.000000000000000000, -13.24999999999999822 ) ) ;
#1141 = VERTEX_POINT ( 'NONE', #896 ) ;
#1142 = FACE_OUTER_BOUND ( 'NONE', #404, .T. ) ;
#1143 = ORIENTED_EDGE ( 'NONE', *, *, #246, .T. ) ;
#1144 = EDGE_CURVE ( 'NONE', #490, #703, #520, .T. ) ;
#1145 = FACE_OUTER_BOUND ( 'NONE', #244, .T. ) ;
#1146 = DIRECTION ( 'NONE',  ( 0.000000000000000000, -1.000000000000000000, 0.000000000000000000 ) ) ;
#1147 = EDGE_LOOP ( 'NONE', ( #76, #687, #976, #508 ) ) ;
#1148 = CARTESIAN_POINT ( 'NONE',  ( 23.78829826108006174, 8.999999999999998224, -19.25459098611876740 ) ) ;
#1149 = ORIENTED_EDGE ( 'NONE', *, *, #1134, .T. ) ;
#1150 = DIRECTION ( 'NONE',  ( 2.312964634635742464E-16, -1.000000000000000000, 0.000000000000000000 ) ) ;
#1151 = EDGE_CURVE ( 'NONE', #49, #772, #417, .T. ) ;
#1152 = DIRECTION ( 'NONE',  ( -1.000000000000000000, -0.000000000000000000, -0.000000000000000000 ) ) ;
#1153 = EDGE_LOOP ( 'NONE', ( #790, #420, #797, #501, #142, #964 ) ) ;
#1154 = CARTESIAN_POINT ( 'NONE',  ( 40.14999999999999147, 13.00000000000000533, -21.14999999999999503 ) ) ;
#1155 = ORIENTED_EDGE ( 'NONE', *, *, #882, .F. ) ;
#1156 = DIRECTION ( 'NONE',  ( 0.000000000000000000, 0.000000000000000000, 1.000000000000000000 ) ) ;
#1157 = AXIS2_PLACEMENT_3D ( 'NONE', #510, #892, #163 ) ;
#1158 = AXIS2_PLACEMENT_3D ( 'NONE', #886, #63, #698 ) ;
#1159 = CIRCLE ( 'NONE', #994, 2.250000000000001776 ) ;
#1160 = DIRECTION ( 'NONE',  ( -0.000000000000000000, 1.000000000000000000, -0.000000000000000000 ) ) ;
#1161 = EDGE_CURVE ( 'NONE', #1083, #827, #814, .T. ) ;
#1162 = CIRCLE ( 'NONE', #580, 10.00000000000000000 ) ;
#1163 = VERTEX_POINT ( 'NONE', #312 ) ;
#1164 = DIRECTION ( 'NONE',  ( -0.8121419612789501086, 0.000000000000000000, -0.5834598827082976280 ) ) ;
#1165 = CARTESIAN_POINT ( 'NONE',  ( -30.15000000000000213, 9.000000000000001776, -2.371092282490357306 ) ) ;
#1166 = ORIENTED_EDGE ( 'NONE', *, *, #1032, .T. ) ;
#1167 = DIRECTION ( 'NONE',  ( -0.000000000000000000, 1.000000000000000000, -0.000000000000000000 ) ) ;
#1168 = ORIENTED_EDGE ( 'NONE', *, *, #568, .F. ) ;
#1169 = DIRECTION ( 'NONE',  ( 0.000000000000000000, 0.000000000000000000, 1.000000000000000000 ) ) ;
#1170 = ORIENTED_EDGE ( 'NONE', *, *, #104, .F. ) ;
#1171 = CARTESIAN_POINT ( 'NONE',  ( -25.15000000000000568, 9.000000000000001776, -18.27631578947366719 ) ) ;
#1172 = ORIENTED_EDGE ( 'NONE', *, *, #806, .F. ) ;
#1173 = DIRECTION ( 'NONE',  ( 0.000000000000000000, -1.000000000000000000, 0.000000000000000000 ) ) ;
#1174 = EDGE_CURVE ( 'NONE', #41, #311, #1162, .T. ) ;
#1175 = VECTOR ( 'NONE', #354, 1000.000000000000000 ) ;
#1176 = AXIS2_PLACEMENT_3D ( 'NONE', #199, #572, #951 ) ;
#1177 = VECTOR ( 'NONE', #175, 1000.000000000000000 ) ;
#1178 = VECTOR ( 'NONE', #695, 1000.000000000000000 ) ;
#1179 = ORIENTED_EDGE ( 'NONE', *, *, #1047, .T. ) ;
#1180 = DIRECTION ( 'NONE',  ( 1.000000000000000000, 0.000000000000000000, 0.000000000000000000 ) ) ;
#1181 = ORIENTED_EDGE ( 'NONE', *, *, #750, .F. ) ;
#1182 = CARTESIAN_POINT ( 'NONE',  ( -15.50000000000000355, 0.000000000000000000, -13.24999999999999822 ) ) ;
#1183 = EDGE_CURVE ( 'NONE', #1068, #610, #137, .T. ) ;
#1184 = CARTESIAN_POINT ( 'NONE',  ( 35.98459882708296220, 12.99999999999999822, 10.49251189527986483 ) ) ;
#1185 = ORIENTED_EDGE ( 'NONE', *, *, #843, .T. ) ;
#1186 = CARTESIAN_POINT ( 'NONE',  ( -21.14999999999999503, 12.99999999999999822, -21.14999999999999503 ) ) ;
#1187 = EDGE_LOOP ( 'NONE', ( #1116, #1185, #109, #683 ) ) ;
#1188 = CARTESIAN_POINT ( 'NONE',  ( 15.49999999999999645, 0.000000000000000000, 13.24999999999999822 ) ) ;
#1189 = CARTESIAN_POINT ( 'NONE',  ( 21.14999999999998437, 4.000000000000000000, -21.14999999999999503 ) ) ;
#1190 = EDGE_CURVE ( 'NONE', #1070, #1090, #1078, .T. ) ;
#1191 = EDGE_LOOP ( 'NONE', ( #859, #336 ) ) ;
#1192 = DIRECTION ( 'NONE',  ( -0.000000000000000000, 1.000000000000000000, -0.000000000000000000 ) ) ;
#1193 = ORIENTED_EDGE ( 'NONE', *, *, #366, .T. ) ;
#1194 = CARTESIAN_POINT ( 'NONE',  ( 40.14999999999999858, 9.000000000000014211, 2.371092282490358638 ) ) ;
#1195 = CARTESIAN_POINT ( 'NONE',  ( 30.64999999999999858, 8.999999999999998224, -1.126062731815991233E-14 ) ) ;
#1196 = CIRCLE ( 'NONE', #278, 10.00000000000000000 ) ;
#1197 = ADVANCED_FACE ( 'NONE', ( #132 ), #636, .F. ) ;
#1198 = CARTESIAN_POINT ( 'NONE',  ( -25.15000000000000213, 4.000000000000000000, -21.14999999999999503 ) ) ;
#1199 = VECTOR ( 'NONE', #632, 1000.000000000000000 ) ;
#1200 = ORIENTED_EDGE ( 'NONE', *, *, #358, .F. ) ;
#1201 = CARTESIAN_POINT ( 'NONE',  ( -21.14999999999999503, -29.30000000000000071, 21.15000000000000213 ) ) ;
#1202 = DIRECTION ( 'NONE',  ( 0.000000000000000000, 0.000000000000000000, 1.000000000000000000 ) ) ;
#1203 = DIRECTION ( 'NONE',  ( -0.000000000000000000, 1.000000000000000000, -0.000000000000000000 ) ) ;
#1204 = DIRECTION ( 'NONE',  ( 0.8121419612789499975, -0.000000000000000000, 0.5834598827082976280 ) ) ;
#1205 = ORIENTED_EDGE ( 'NONE', *, *, #586, .F. ) ;
#1206 = ADVANCED_FACE ( 'NONE', ( #605 ), #1023, .F. ) ;
#1207 = CARTESIAN_POINT ( 'NONE',  ( -30.64999999999999858, 8.999999999999998224, -2.249999999999995115 ) ) ;
#1208 = LINE ( 'NONE', #838, #652 ) ;
#1209 =( LENGTH_UNIT ( ) NAMED_UNIT ( * ) SI_UNIT ( .MILLI., .METRE. ) );
#1210 = VERTEX_POINT ( 'NONE', #832 ) ;
#1211 =( NAMED_UNIT ( * ) PLANE_ANGLE_UNIT ( ) SI_UNIT ( $, .RADIAN. ) );
#1212 = EDGE_CURVE ( 'NONE', #625, #22, #183, .T. ) ;
#1213 = CARTESIAN_POINT ( 'NONE',  ( -33.68191674013036874, 9.000000000000000000, -12.14680718406422955 ) ) ;
#1214 = CARTESIAN_POINT ( 'NONE',  ( -53.72586706192418404, 8.999999999999994671, -2.253188705013942972 ) ) ;
#1215 = APPLICATION_PROTOCOL_DEFINITION ( 'draft international standard', 'automotive_design', 1998, #1 ) ;
#1216 = VECTOR ( 'NONE', #53, 1000.000000000000000 ) ;
#1217 = VECTOR ( 'NONE', #1091, 1000.000000000000000 ) ;
#1218 = VERTEX_POINT ( 'NONE', #630 ) ;
#1219 = DIRECTION ( 'NONE',  ( 0.8121419612789501086, 0.000000000000000000, 0.5834598827082975170 ) ) ;
#1220 = VECTOR ( 'NONE', #531, 1000.000000000000000 ) ;
#1221 = AXIS2_PLACEMENT_3D ( 'NONE', #440, #727, #822 ) ;
#1222 = DIRECTION ( 'NONE',  ( 0.000000000000000000, 0.000000000000000000, -1.000000000000000000 ) ) ;
#1223 = DIRECTION ( 'NONE',  ( -3.854941057726239083E-16, 1.000000000000000000, 0.000000000000000000 ) ) ;
#1224 = ORIENTED_EDGE ( 'NONE', *, *, #223, .T. ) ;
#1225 = DIRECTION ( 'NONE',  ( 0.000000000000000000, -1.000000000000000000, 0.000000000000000000 ) ) ;
#1226 = LINE ( 'NONE', #1231, #777 ) ;
#1227 = CARTESIAN_POINT ( 'NONE',  ( 25.14999999999999503, 4.000000000000000000, 21.15000000000000213 ) ) ;
#1228 = EDGE_CURVE ( 'NONE', #385, #311, #938, .T. ) ;
#1229 = VERTEX_POINT ( 'NONE', #1103 ) ;
#1230 = CARTESIAN_POINT ( 'NONE',  ( 30.64999999999999858, 12.99999999999999822, -1.126062731815991233E-14 ) ) ;
#1231 = CARTESIAN_POINT ( 'NONE',  ( -25.15000000000000213, 4.000000000000000000, 21.15000000000000213 ) ) ;
ENDSEC;
END-ISO-10303-21;
