ISO-10303-21;
HEADER;
FILE_DESCRIPTION (( 'STEP AP214' ),
    '1' );
FILE_NAME ('ARP-0075.STEP',
    '2026-09-03T08:57:05',
    ( '' ),
    ( '' ),
    'SwSTEP 2.0',
    'SolidWorks 2024',
    '' );
FILE_SCHEMA (( 'AUTOMOTIVE_DESIGN' ));
ENDSEC;

DATA;
#1 = DIRECTION ( 'NONE',  ( 0.000000000000000000, 0.000000000000000000, 1.000000000000000000 ) ) ;
#2 = FACE_BOUND ( 'NONE', #434, .T. ) ;
#3 = CYLINDRICAL_SURFACE ( 'NONE', #15, 35.00000000000000711 ) ;
#4 = FACE_BOUND ( 'NONE', #5, .T. ) ;
#5 = EDGE_LOOP ( 'NONE', ( #447, #211 ) ) ;
#6 = EDGE_CURVE ( 'NONE', #92, #123, #66, .T. ) ;
#7 = DIRECTION ( 'NONE',  ( 0.000000000000000000, 1.000000000000000000, 0.000000000000000000 ) ) ;
#8 = AXIS2_PLACEMENT_3D ( 'NONE', #439, #190, #261 ) ;
#9 = CIRCLE ( 'NONE', #226, 2.250000000000001776 ) ;
#10 = DIRECTION ( 'NONE',  ( 0.000000000000000000, 1.000000000000000000, 0.000000000000000000 ) ) ;
#11 = VERTEX_POINT ( 'NONE', #486 ) ;
#12 = LINE ( 'NONE', #170, #51 ) ;
#13 = EDGE_LOOP ( 'NONE', ( #134, #377 ) ) ;
#14 = ADVANCED_FACE ( 'NONE', ( #334 ), #340, .F. ) ;
#15 = AXIS2_PLACEMENT_3D ( 'NONE', #233, #456, #415 ) ;
#16 = AXIS2_PLACEMENT_3D ( 'NONE', #244, #390, #89 ) ;
#17 = ORIENTED_EDGE ( 'NONE', *, *, #303, .F. ) ;
#18 = AXIS2_PLACEMENT_3D ( 'NONE', #315, #118, #194 ) ;
#19 = ORIENTED_EDGE ( 'NONE', *, *, #471, .F. ) ;
#20 = ORIENTED_EDGE ( 'NONE', *, *, #309, .T. ) ;
#21 = EDGE_CURVE ( 'NONE', #95, #90, #150, .T. ) ;
#22 = ORIENTED_EDGE ( 'NONE', *, *, #137, .F. ) ;
#23 = ORIENTED_EDGE ( 'NONE', *, *, #209, .F. ) ;
#24 = CYLINDRICAL_SURFACE ( 'NONE', #127, 2.250000000000001776 ) ;
#25 = CARTESIAN_POINT ( 'NONE',  ( 41.00000000000000711, 0.000000000000000000, -2.250000000000002220 ) ) ;
#26 = PLANE ( 'NONE',  #333 ) ;
#27 = DIRECTION ( 'NONE',  ( 0.000000000000000000, 1.000000000000000000, 0.000000000000000000 ) ) ;
#28 = LINE ( 'NONE', #185, #304 ) ;
#29 = AXIS2_PLACEMENT_3D ( 'NONE', #462, #122, #1 ) ;
#30 = LINE ( 'NONE', #218, #207 ) ;
#31 = DIRECTION ( 'NONE',  ( 0.000000000000000000, 0.000000000000000000, 1.000000000000000000 ) ) ;
#32 = ORIENTED_EDGE ( 'NONE', *, *, #6, .F. ) ;
#33 = DIRECTION ( 'NONE',  ( -0.000000000000000000, -1.000000000000000000, -0.000000000000000000 ) ) ;
#34 = DIRECTION ( 'NONE',  ( 0.000000000000000000, 0.000000000000000000, 1.000000000000000000 ) ) ;
#35 = CIRCLE ( 'NONE', #318, 2.250000000000001776 ) ;
#36 = CARTESIAN_POINT ( 'NONE',  ( 0.000000000000000000, 0.000000000000000000, 0.000000000000000000 ) ) ;
#37 = AXIS2_PLACEMENT_3D ( 'NONE', #344, #464, #313 ) ;
#38 = DIRECTION ( 'NONE',  ( 0.000000000000000000, 1.000000000000000000, 0.000000000000000000 ) ) ;
#39 = DIRECTION ( 'NONE',  ( 0.000000000000000000, 0.000000000000000000, 1.000000000000000000 ) ) ;
#40 = SURFACE_STYLE_USAGE ( .BOTH. , #234 ) ;
#41 = ORIENTED_EDGE ( 'NONE', *, *, #240, .F. ) ;
#42 = EDGE_CURVE ( 'NONE', #361, #432, #30, .T. ) ;
#43 = CARTESIAN_POINT ( 'NONE',  ( -41.00000000000000711, 4.000000000000000000, 0.000000000000000000 ) ) ;
#44 = FACE_BOUND ( 'NONE', #13, .T. ) ;
#45 = VERTEX_POINT ( 'NONE', #152 ) ;
#46 = CARTESIAN_POINT ( 'NONE',  ( 0.000000000000000000, 0.000000000000000000, 0.000000000000000000 ) ) ;
#47 = PRODUCT_CONTEXT ( 'NONE', #355, 'mechanical' ) ;
#48 = VERTEX_POINT ( 'NONE', #299 ) ;
#49 = CARTESIAN_POINT ( 'NONE',  ( 5.755839955992561430E-15, 0.000000000000000000, 47.00000000000000711 ) ) ;
#50 = VERTEX_POINT ( 'NONE', #25 ) ;
#51 = VECTOR ( 'NONE', #205, 1000.000000000000000 ) ;
#52 = ORIENTED_EDGE ( 'NONE', *, *, #256, .F. ) ;
#53 = ORIENTED_EDGE ( 'NONE', *, *, #463, .T. ) ;
#54 = EDGE_CURVE ( 'NONE', #50, #11, #449, .T. ) ;
#55 = UNCERTAINTY_MEASURE_WITH_UNIT (LENGTH_MEASURE( 1.000000000000000082E-05 ), #384, 'distance_accuracy_value', 'NONE');
#56 = ORIENTED_EDGE ( 'NONE', *, *, #76, .T. ) ;
#57 = AXIS2_PLACEMENT_3D ( 'NONE', #294, #452, #368 ) ;
#58 = VERTEX_POINT ( 'NONE', #291 ) ;
#59 = AXIS2_PLACEMENT_3D ( 'NONE', #60, #446, #367 ) ;
#60 = CARTESIAN_POINT ( 'NONE',  ( 41.00000000000000711, 0.000000000000000000, 0.000000000000000000 ) ) ;
#61 = EDGE_CURVE ( 'NONE', #90, #95, #133, .T. ) ;
#62 = CARTESIAN_POINT ( 'NONE',  ( -41.00000000000000711, 0.000000000000000000, 0.000000000000000000 ) ) ;
#63 = FACE_OUTER_BOUND ( 'NONE', #284, .T. ) ;
#64 = CARTESIAN_POINT ( 'NONE',  ( -41.00000000000000711, 0.000000000000000000, 2.250000000000002220 ) ) ;
#65 = DIRECTION ( 'NONE',  ( 0.000000000000000000, 0.000000000000000000, 1.000000000000000000 ) ) ;
#66 = CIRCLE ( 'NONE', #467, 2.250000000000001776 ) ;
#67 = EDGE_LOOP ( 'NONE', ( #393, #22 ) ) ;
#68 = CYLINDRICAL_SURFACE ( 'NONE', #124, 2.250000000000001776 ) ;
#69 = LINE ( 'NONE', #404, #325 ) ;
#70 = ORIENTED_EDGE ( 'NONE', *, *, #230, .T. ) ;
#71 = AXIS2_PLACEMENT_3D ( 'NONE', #378, #314, #494 ) ;
#72 = CIRCLE ( 'NONE', #178, 47.00000000000000711 ) ;
#73 = LINE ( 'NONE', #227, #405 ) ;
#74 = CYLINDRICAL_SURFACE ( 'NONE', #440, 2.250000000000002220 ) ;
#75 = ORIENTED_EDGE ( 'NONE', *, *, #429, .F. ) ;
#76 = EDGE_CURVE ( 'NONE', #50, #48, #437, .T. ) ;
#77 = CARTESIAN_POINT ( 'NONE',  ( 41.00000000000000711, 4.000000000000000000, 2.250000000000002220 ) ) ;
#78 = SHAPE_DEFINITION_REPRESENTATION ( #426, #191 ) ;
#79 = AXIS2_PLACEMENT_3D ( 'NONE', #381, #10, #117 ) ;
#80 = CYLINDRICAL_SURFACE ( 'NONE', #379, 47.00000000000000711 ) ;
#81 = DIRECTION ( 'NONE',  ( 0.000000000000000000, 1.000000000000000000, 0.000000000000000000 ) ) ;
#82 =( NAMED_UNIT ( * ) PLANE_ANGLE_UNIT ( ) SI_UNIT ( $, .RADIAN. ) );
#83 = CARTESIAN_POINT ( 'NONE',  ( 0.000000000000000000, 4.000000000000000000, -47.00000000000000711 ) ) ;
#84 = ORIENTED_EDGE ( 'NONE', *, *, #209, .T. ) ;
#85 = AXIS2_PLACEMENT_3D ( 'NONE', #336, #148, #328 ) ;
#86 = LINE ( 'NONE', #455, #235 ) ;
#87 = ORIENTED_EDGE ( 'NONE', *, *, #230, .F. ) ;
#88 = EDGE_CURVE ( 'NONE', #474, #477, #73, .T. ) ;
#89 = DIRECTION ( 'NONE',  ( 0.000000000000000000, 0.000000000000000000, -1.000000000000000000 ) ) ;
#90 = VERTEX_POINT ( 'NONE', #64 ) ;
#91 = EDGE_LOOP ( 'NONE', ( #96, #75, #206, #286 ) ) ;
#92 = VERTEX_POINT ( 'NONE', #113 ) ;
#93 = ORIENTED_EDGE ( 'NONE', *, *, #240, .T. ) ;
#94 = EDGE_CURVE ( 'NONE', #432, #246, #448, .T. ) ;
#95 = VERTEX_POINT ( 'NONE', #375 ) ;
#96 = ORIENTED_EDGE ( 'NONE', *, *, #265, .F. ) ;
#97 = VERTEX_POINT ( 'NONE', #478 ) ;
#98 = CIRCLE ( 'NONE', #290, 47.00000000000000711 ) ;
#99 = PRODUCT_DEFINITION ( 'NON CONOSCIUTO', '', #195, #323 ) ;
#100 = EDGE_LOOP ( 'NONE', ( #212, #135, #52, #131 ) ) ;
#101 = CIRCLE ( 'NONE', #119, 2.250000000000002220 ) ;
#102 = DIRECTION ( 'NONE',  ( 0.000000000000000000, 1.000000000000000000, 0.000000000000000000 ) ) ;
#103 = DIRECTION ( 'NONE',  ( -0.000000000000000000, -1.000000000000000000, -0.000000000000000000 ) ) ;
#104 = CARTESIAN_POINT ( 'NONE',  ( 0.000000000000000000, 4.000000000000000000, 0.000000000000000000 ) ) ;
#105 = ORIENTED_EDGE ( 'NONE', *, *, #309, .F. ) ;
#106 = DIRECTION ( 'NONE',  ( 0.000000000000000000, 0.000000000000000000, 1.000000000000000000 ) ) ;
#107 = CARTESIAN_POINT ( 'NONE',  ( 1.015964894571439433E-14, 0.000000000000000000, 41.00000000000000711 ) ) ;
#108 = AXIS2_PLACEMENT_3D ( 'NONE', #259, #484, #445 ) ;
#109 = DIRECTION ( 'NONE',  ( -0.000000000000000000, 1.000000000000000000, -0.000000000000000000 ) ) ;
#110 = CARTESIAN_POINT ( 'NONE',  ( 0.000000000000000000, 4.000000000000000000, 0.000000000000000000 ) ) ;
#111 = ORIENTED_EDGE ( 'NONE', *, *, #471, .T. ) ;
#112 = AXIS2_PLACEMENT_3D ( 'NONE', #372, #365, #31 ) ;
#113 = CARTESIAN_POINT ( 'NONE',  ( 1.043519447552254841E-14, 4.000000000000000000, 38.75000000000000711 ) ) ;
#114 = CARTESIAN_POINT ( 'NONE',  ( -41.00000000000000711, 0.000000000000000000, 0.000000000000000000 ) ) ;
#115 = DIRECTION ( 'NONE',  ( -0.000000000000000000, -1.000000000000000000, -0.000000000000000000 ) ) ;
#116 = CARTESIAN_POINT ( 'NONE',  ( 0.000000000000000000, 4.000000000000000000, 0.000000000000000000 ) ) ;
#117 = DIRECTION ( 'NONE',  ( 0.000000000000000000, 0.000000000000000000, 1.000000000000000000 ) ) ;
#118 = DIRECTION ( 'NONE',  ( 0.000000000000000000, 1.000000000000000000, 0.000000000000000000 ) ) ;
#119 = AXIS2_PLACEMENT_3D ( 'NONE', #417, #38, #274 ) ;
#120 = DIRECTION ( 'NONE',  ( -0.000000000000000000, 1.000000000000000000, -0.000000000000000000 ) ) ;
#121 = DIRECTION ( 'NONE',  ( 0.000000000000000000, 0.000000000000000000, 1.000000000000000000 ) ) ;
#122 = DIRECTION ( 'NONE',  ( 0.000000000000000000, 1.000000000000000000, 0.000000000000000000 ) ) ;
#123 = VERTEX_POINT ( 'NONE', #438 ) ;
#124 = AXIS2_PLACEMENT_3D ( 'NONE', #216, #141, #364 ) ;
#125 = CARTESIAN_POINT ( 'NONE',  ( 41.00000000000000711, 0.000000000000000000, 2.250000000000002220 ) ) ;
#126 = PLANE ( 'NONE',  #18 ) ;
#127 = AXIS2_PLACEMENT_3D ( 'NONE', #107, #143, #297 ) ;
#128 = FACE_OUTER_BOUND ( 'NONE', #387, .T. ) ;
#129 = ORIENTED_EDGE ( 'NONE', *, *, #491, .F. ) ;
#130 = AXIS2_PLACEMENT_3D ( 'NONE', #110, #217, #153 ) ;
#131 = ORIENTED_EDGE ( 'NONE', *, *, #132, .F. ) ;
#132 = EDGE_CURVE ( 'NONE', #97, #470, #268, .T. ) ;
#133 = CIRCLE ( 'NONE', #158, 2.250000000000002220 ) ;
#134 = ORIENTED_EDGE ( 'NONE', *, *, #256, .T. ) ;
#135 = ORIENTED_EDGE ( 'NONE', *, *, #88, .T. ) ;
#136 = ORIENTED_EDGE ( 'NONE', *, *, #202, .T. ) ;
#137 = EDGE_CURVE ( 'NONE', #474, #97, #198, .T. ) ;
#138 = CARTESIAN_POINT ( 'NONE',  ( 1.015964894571439433E-14, 0.000000000000000000, 41.00000000000000711 ) ) ;
#139 = FACE_BOUND ( 'NONE', #67, .T. ) ;
#140 = CIRCLE ( 'NONE', #416, 2.250000000000002220 ) ;
#141 = DIRECTION ( 'NONE',  ( -0.000000000000000000, 1.000000000000000000, -0.000000000000000000 ) ) ;
#142 = AXIS2_PLACEMENT_3D ( 'NONE', #376, #332, #34 ) ;
#143 = DIRECTION ( 'NONE',  ( -0.000000000000000000, 1.000000000000000000, -0.000000000000000000 ) ) ;
#144 = DIRECTION ( 'NONE',  ( 0.000000000000000000, 1.000000000000000000, 0.000000000000000000 ) ) ;
#145 = CARTESIAN_POINT ( 'NONE',  ( -41.00000000000000711, 4.000000000000000000, 2.250000000000002220 ) ) ;
#146 = VERTEX_POINT ( 'NONE', #77 ) ;
#147 = ADVANCED_FACE ( 'NONE', ( #406 ), #68, .F. ) ;
#148 = DIRECTION ( 'NONE',  ( -0.000000000000000000, 1.000000000000000000, -0.000000000000000000 ) ) ;
#149 = DIRECTION ( 'NONE',  ( -0.000000000000000000, 1.000000000000000000, -0.000000000000000000 ) ) ;
#150 = CIRCLE ( 'NONE', #347, 2.250000000000002220 ) ;
#151 = EDGE_LOOP ( 'NONE', ( #428, #210 ) ) ;
#152 = CARTESIAN_POINT ( 'NONE',  ( 1.043519447552254841E-14, 0.000000000000000000, 38.75000000000000711 ) ) ;
#153 = DIRECTION ( 'NONE',  ( 0.000000000000000000, 0.000000000000000000, 1.000000000000000000 ) ) ;
#154 = STYLED_ITEM ( 'NONE', ( #457 ), #492 ) ;
#155 = CARTESIAN_POINT ( 'NONE',  ( -41.00000000000000711, 4.000000000000000000, -2.250000000000002220 ) ) ;
#156 = EDGE_CURVE ( 'NONE', #45, #200, #489, .T. ) ;
#157 = CYLINDRICAL_SURFACE ( 'NONE', #399, 2.250000000000002220 ) ;
#158 = AXIS2_PLACEMENT_3D ( 'NONE', #181, #144, #106 ) ;
#159 = CARTESIAN_POINT ( 'NONE',  ( 1.015964894571439433E-14, 4.000000000000000000, 41.00000000000000711 ) ) ;
#160 = EDGE_LOOP ( 'NONE', ( #403, #105 ) ) ;
#161 = CIRCLE ( 'NONE', #253, 47.00000000000000711 ) ;
#162 = LINE ( 'NONE', #458, #224 ) ;
#163 = FACE_OUTER_BOUND ( 'NONE', #160, .T. ) ;
#164 = PRODUCT ( 'ARP-0075', 'ARP-0075', '', ( #47 ) ) ;
#165 = DIRECTION ( 'NONE',  ( -0.000000000000000000, 1.000000000000000000, -0.000000000000000000 ) ) ;
#166 = ADVANCED_FACE ( 'NONE', ( #400 ), #366, .F. ) ;
#167 = CARTESIAN_POINT ( 'NONE',  ( 0.000000000000000000, 0.000000000000000000, 0.000000000000000000 ) ) ;
#168 = ORIENTED_EDGE ( 'NONE', *, *, #61, .T. ) ;
#169 = CIRCLE ( 'NONE', #79, 2.250000000000002220 ) ;
#170 = CARTESIAN_POINT ( 'NONE',  ( 1.043519447552254841E-14, 0.000000000000000000, -43.25000000000001421 ) ) ;
#171 = ORIENTED_EDGE ( 'NONE', *, *, #275, .T. ) ;
#172 = ORIENTED_EDGE ( 'NONE', *, *, #132, .T. ) ;
#173 = ORIENTED_EDGE ( 'NONE', *, *, #339, .F. ) ;
#174 = ORIENTED_EDGE ( 'NONE', *, *, #88, .F. ) ;
#175 = ADVANCED_FACE ( 'NONE', ( #199 ), #3, .F. ) ;
#176 = VERTEX_POINT ( 'NONE', #155 ) ;
#177 = APPLICATION_CONTEXT ( 'automotive_design' ) ;
#178 = AXIS2_PLACEMENT_3D ( 'NONE', #116, #382, #308 ) ;
#179 = CARTESIAN_POINT ( 'NONE',  ( 41.00000000000000711, 0.000000000000000000, -2.250000000000002220 ) ) ;
#180 = FACE_OUTER_BOUND ( 'NONE', #298, .T. ) ;
#181 = CARTESIAN_POINT ( 'NONE',  ( -41.00000000000000711, 0.000000000000000000, 0.000000000000000000 ) ) ;
#182 = DIRECTION ( 'NONE',  ( 0.000000000000000000, 1.000000000000000000, 0.000000000000000000 ) ) ;
#183 = CARTESIAN_POINT ( 'NONE',  ( 1.015964894571439433E-14, 4.000000000000000000, 41.00000000000000711 ) ) ;
#184 = AXIS2_PLACEMENT_3D ( 'NONE', #258, #255, #65 ) ;
#185 = CARTESIAN_POINT ( 'NONE',  ( 5.755839955992561430E-15, 4.000000000000000000, 47.00000000000000711 ) ) ;
#186 = ADVANCED_FACE ( 'NONE', ( #270 ), #80, .T. ) ;
#187 = DIRECTION ( 'NONE',  ( -0.000000000000000000, 1.000000000000000000, -0.000000000000000000 ) ) ;
#188 = CARTESIAN_POINT ( 'NONE',  ( 1.015964894571439433E-14, 0.000000000000000000, 43.25000000000001421 ) ) ;
#189 = DIRECTION ( 'NONE',  ( -0.000000000000000000, -1.000000000000000000, -0.000000000000000000 ) ) ;
#190 = DIRECTION ( 'NONE',  ( 0.000000000000000000, 1.000000000000000000, 0.000000000000000000 ) ) ;
#191 = ADVANCED_BREP_SHAPE_REPRESENTATION ( 'ARP-0075', ( #492, #495 ), #412 ) ;
#192 = DIRECTION ( 'NONE',  ( 0.000000000000000000, 0.000000000000000000, 1.000000000000000000 ) ) ;
#193 = EDGE_CURVE ( 'NONE', #123, #92, #35, .T. ) ;
#194 = DIRECTION ( 'NONE',  ( 0.000000000000000000, -0.000000000000000000, 1.000000000000000000 ) ) ;
#195 = PRODUCT_DEFINITION_FORMATION_WITH_SPECIFIED_SOURCE ( 'TUTTO', '', #164, .NOT_KNOWN. ) ;
#196 = LINE ( 'NONE', #197, #356 ) ;
#197 = CARTESIAN_POINT ( 'NONE',  ( -41.00000000000000711, 0.000000000000000000, 2.250000000000002220 ) ) ;
#198 = CIRCLE ( 'NONE', #108, 35.00000000000000711 ) ;
#199 = FACE_OUTER_BOUND ( 'NONE', #100, .T. ) ;
#200 = VERTEX_POINT ( 'NONE', #307 ) ;
#201 = CIRCLE ( 'NONE', #29, 2.250000000000001776 ) ;
#202 = EDGE_CURVE ( 'NONE', #396, #324, #98, .T. ) ;
#203 = CARTESIAN_POINT ( 'NONE',  ( 41.00000000000000711, 0.000000000000000000, 0.000000000000000000 ) ) ;
#204 =( NAMED_UNIT ( * ) PLANE_ANGLE_UNIT ( ) SI_UNIT ( $, .RADIAN. ) );
#205 = DIRECTION ( 'NONE',  ( -0.000000000000000000, 1.000000000000000000, -0.000000000000000000 ) ) ;
#206 = ORIENTED_EDGE ( 'NONE', *, *, #425, .T. ) ;
#207 = VECTOR ( 'NONE', #187, 1000.000000000000000 ) ;
#208 = ORIENTED_EDGE ( 'NONE', *, *, #339, .T. ) ;
#209 = EDGE_CURVE ( 'NONE', #48, #50, #169, .T. ) ;
#210 = ORIENTED_EDGE ( 'NONE', *, *, #287, .F. ) ;
#211 = ORIENTED_EDGE ( 'NONE', *, *, #156, .T. ) ;
#212 = ORIENTED_EDGE ( 'NONE', *, *, #454, .T. ) ;
#213 = EDGE_CURVE ( 'NONE', #90, #371, #196, .T. ) ;
#214 = ORIENTED_EDGE ( 'NONE', *, *, #221, .T. ) ;
#215 = DIRECTION ( 'NONE',  ( 0.000000000000000000, 0.000000000000000000, 1.000000000000000000 ) ) ;
#216 = CARTESIAN_POINT ( 'NONE',  ( 1.015964894571439433E-14, 0.000000000000000000, 41.00000000000000711 ) ) ;
#217 = DIRECTION ( 'NONE',  ( 0.000000000000000000, 1.000000000000000000, 0.000000000000000000 ) ) ;
#218 = CARTESIAN_POINT ( 'NONE',  ( 1.015964894571439433E-14, 0.000000000000000000, -38.75000000000000711 ) ) ;
#219 = VECTOR ( 'NONE', #109, 1000.000000000000000 ) ;
#220 = FACE_OUTER_BOUND ( 'NONE', #430, .T. ) ;
#221 = EDGE_CURVE ( 'NONE', #371, #176, #140, .T. ) ;
#222 = EDGE_LOOP ( 'NONE', ( #349, #338, #451, #214 ) ) ;
#223 = DIRECTION ( 'NONE',  ( 0.000000000000000000, 0.000000000000000000, 1.000000000000000000 ) ) ;
#224 = VECTOR ( 'NONE', #120, 1000.000000000000000 ) ;
#225 = DIRECTION ( 'NONE',  ( -0.000000000000000000, 1.000000000000000000, -0.000000000000000000 ) ) ;
#226 = AXIS2_PLACEMENT_3D ( 'NONE', #264, #182, #411 ) ;
#227 = CARTESIAN_POINT ( 'NONE',  ( 4.286263797015737285E-15, 4.000000000000000000, 35.00000000000000711 ) ) ;
#228 = CARTESIAN_POINT ( 'NONE',  ( 4.286263797015737285E-15, 4.000000000000000000, 35.00000000000000711 ) ) ;
#229 = EDGE_LOOP ( 'NONE', ( #19, #129, #435, #136 ) ) ;
#230 = EDGE_CURVE ( 'NONE', #361, #58, #409, .T. ) ;
#231 = DIRECTION ( 'NONE',  ( 0.000000000000000000, 0.000000000000000000, 1.000000000000000000 ) ) ;
#232 = VECTOR ( 'NONE', #33, 1000.000000000000000 ) ;
#233 = CARTESIAN_POINT ( 'NONE',  ( 0.000000000000000000, 4.000000000000000000, 0.000000000000000000 ) ) ;
#234 = SURFACE_SIDE_STYLE ('',( #421 ) ) ;
#235 = VECTOR ( 'NONE', #115, 1000.000000000000000 ) ;
#236 = DIRECTION ( 'NONE',  ( -0.000000000000000000, -1.000000000000000000, -0.000000000000000000 ) ) ;
#237 = DIRECTION ( 'NONE',  ( 0.000000000000000000, 0.000000000000000000, 1.000000000000000000 ) ) ;
#238 = FILL_AREA_STYLE_COLOUR ( '', #401 ) ;
#239 = ORIENTED_EDGE ( 'NONE', *, *, #397, .T. ) ;
#240 = EDGE_CURVE ( 'NONE', #321, #262, #161, .T. ) ;
#241 = DIRECTION ( 'NONE',  ( 0.000000000000000000, 0.000000000000000000, 1.000000000000000000 ) ) ;
#242 = DIRECTION ( 'NONE',  ( 1.000000000000000000, 0.000000000000000000, 0.000000000000000000 ) ) ;
#243 = ORIENTED_EDGE ( 'NONE', *, *, #317, .F. ) ;
#244 = CARTESIAN_POINT ( 'NONE',  ( 0.000000000000000000, 4.000000000000000000, 0.000000000000000000 ) ) ;
#245 = ORIENTED_EDGE ( 'NONE', *, *, #221, .F. ) ;
#246 = VERTEX_POINT ( 'NONE', #346 ) ;
#247 = ORIENTED_EDGE ( 'NONE', *, *, #137, .T. ) ;
#248 = CIRCLE ( 'NONE', #8, 2.250000000000002220 ) ;
#249 = EDGE_LOOP ( 'NONE', ( #288, #461 ) ) ;
#250 = ORIENTED_EDGE ( 'NONE', *, *, #6, .T. ) ;
#251 = ADVANCED_FACE ( 'NONE', ( #279 ), #157, .F. ) ;
#252 = EDGE_LOOP ( 'NONE', ( #278, #208, #391, #423 ) ) ;
#253 = AXIS2_PLACEMENT_3D ( 'NONE', #422, #380, #241 ) ;
#254 = DIRECTION ( 'NONE',  ( 0.000000000000000000, 0.000000000000000000, 1.000000000000000000 ) ) ;
#255 = DIRECTION ( 'NONE',  ( 0.000000000000000000, 1.000000000000000000, 0.000000000000000000 ) ) ;
#256 = EDGE_CURVE ( 'NONE', #470, #477, #433, .T. ) ;
#257 = DIRECTION ( 'NONE',  ( 0.000000000000000000, 0.000000000000000000, -1.000000000000000000 ) ) ;
#258 = CARTESIAN_POINT ( 'NONE',  ( 41.00000000000000711, 4.000000000000000000, 0.000000000000000000 ) ) ;
#259 = CARTESIAN_POINT ( 'NONE',  ( 0.000000000000000000, 4.000000000000000000, 0.000000000000000000 ) ) ;
#260 = CLOSED_SHELL ( 'NONE', ( #251, #374, #388, #14, #175, #345, #414, #483, #186, #166, #350, #363, #147, #408 ) ) ;
#261 = DIRECTION ( 'NONE',  ( 0.000000000000000000, 0.000000000000000000, 1.000000000000000000 ) ) ;
#262 = VERTEX_POINT ( 'NONE', #83 ) ;
#263 = CARTESIAN_POINT ( 'NONE',  ( 41.00000000000000711, 0.000000000000000000, 0.000000000000000000 ) ) ;
#264 = CARTESIAN_POINT ( 'NONE',  ( 1.015964894571439433E-14, 0.000000000000000000, -41.00000000000000711 ) ) ;
#265 = EDGE_CURVE ( 'NONE', #45, #92, #162, .T. ) ;
#266 = ORIENTED_EDGE ( 'NONE', *, *, #193, .F. ) ;
#267 = PRESENTATION_LAYER_ASSIGNMENT (  '', '', ( #154 ) ) ;
#268 = LINE ( 'NONE', #296, #232 ) ;
#269 = CARTESIAN_POINT ( 'NONE',  ( 0.000000000000000000, 0.000000000000000000, -47.00000000000000711 ) ) ;
#270 = FACE_OUTER_BOUND ( 'NONE', #229, .T. ) ;
#271 = DIRECTION ( 'NONE',  ( -0.000000000000000000, 1.000000000000000000, -0.000000000000000000 ) ) ;
#272 =( NAMED_UNIT ( * ) SI_UNIT ( $, .STERADIAN. ) SOLID_ANGLE_UNIT ( ) );
#273 = CIRCLE ( 'NONE', #475, 47.00000000000000711 ) ;
#274 = DIRECTION ( 'NONE',  ( 0.000000000000000000, 0.000000000000000000, 1.000000000000000000 ) ) ;
#275 = EDGE_CURVE ( 'NONE', #176, #371, #101, .T. ) ;
#276 = FACE_BOUND ( 'NONE', #359, .T. ) ;
#277 = DIRECTION ( 'NONE',  ( 0.000000000000000000, 1.000000000000000000, 0.000000000000000000 ) ) ;
#278 = ORIENTED_EDGE ( 'NONE', *, *, #463, .F. ) ;
#279 = FACE_OUTER_BOUND ( 'NONE', #316, .T. ) ;
#280 = VECTOR ( 'NONE', #337, 1000.000000000000000 ) ;
#281 = EDGE_CURVE ( 'NONE', #477, #470, #469, .T. ) ;
#282 = FACE_OUTER_BOUND ( 'NONE', #283, .T. ) ;
#283 = EDGE_LOOP ( 'NONE', ( #173, #87, #322, #413 ) ) ;
#284 = EDGE_LOOP ( 'NONE', ( #326, #370, #250, #473 ) ) ;
#285 = EDGE_LOOP ( 'NONE', ( #245, #362 ) ) ;
#286 = ORIENTED_EDGE ( 'NONE', *, *, #193, .T. ) ;
#287 = EDGE_CURVE ( 'NONE', #246, #432, #201, .T. ) ;
#288 = ORIENTED_EDGE ( 'NONE', *, *, #397, .F. ) ;
#289 = ORIENTED_EDGE ( 'NONE', *, *, #444, .T. ) ;
#290 = AXIS2_PLACEMENT_3D ( 'NONE', #36, #383, #310 ) ;
#291 = CARTESIAN_POINT ( 'NONE',  ( 1.043519447552254841E-14, 0.000000000000000000, -43.25000000000001421 ) ) ;
#292 = DIRECTION ( 'NONE',  ( 0.000000000000000000, 0.000000000000000000, 1.000000000000000000 ) ) ;
#293 = CIRCLE ( 'NONE', #482, 2.250000000000001776 ) ;
#294 = CARTESIAN_POINT ( 'NONE',  ( 1.015964894571439433E-14, 4.000000000000000000, -41.00000000000000711 ) ) ;
#295 = FACE_BOUND ( 'NONE', #151, .T. ) ;
#296 = CARTESIAN_POINT ( 'NONE',  ( 0.000000000000000000, 4.000000000000000000, -35.00000000000000711 ) ) ;
#297 = DIRECTION ( 'NONE',  ( 0.000000000000000000, 0.000000000000000000, 1.000000000000000000 ) ) ;
#298 = EDGE_LOOP ( 'NONE', ( #312, #436, #171, #466 ) ) ;
#299 = CARTESIAN_POINT ( 'NONE',  ( 41.00000000000000711, 0.000000000000000000, 2.250000000000002220 ) ) ;
#300 = DIRECTION ( 'NONE',  ( 0.000000000000000000, 1.000000000000000000, 0.000000000000000000 ) ) ;
#301 = DIRECTION ( 'NONE',  ( 0.000000000000000000, 0.000000000000000000, 1.000000000000000000 ) ) ;
#302 = CARTESIAN_POINT ( 'NONE',  ( 4.286263797015737285E-15, 0.000000000000000000, 35.00000000000000711 ) ) ;
#303 = EDGE_CURVE ( 'NONE', #48, #146, #305, .T. ) ;
#304 = VECTOR ( 'NONE', #485, 1000.000000000000000 ) ;
#305 = LINE ( 'NONE', #125, #358 ) ;
#306 =( NAMED_UNIT ( * ) SI_UNIT ( $, .STERADIAN. ) SOLID_ANGLE_UNIT ( ) );
#307 = CARTESIAN_POINT ( 'NONE',  ( 1.015964894571439433E-14, 0.000000000000000000, 43.25000000000001421 ) ) ;
#308 = DIRECTION ( 'NONE',  ( 0.000000000000000000, 0.000000000000000000, 1.000000000000000000 ) ) ;
#309 = EDGE_CURVE ( 'NONE', #324, #396, #273, .T. ) ;
#310 = DIRECTION ( 'NONE',  ( 0.000000000000000000, 0.000000000000000000, 1.000000000000000000 ) ) ;
#311 = FILL_AREA_STYLE ('',( #238 ) ) ;
#312 = ORIENTED_EDGE ( 'NONE', *, *, #21, .F. ) ;
#313 = DIRECTION ( 'NONE',  ( 0.000000000000000000, 0.000000000000000000, 1.000000000000000000 ) ) ;
#314 = DIRECTION ( 'NONE',  ( 0.000000000000000000, 1.000000000000000000, 0.000000000000000000 ) ) ;
#315 = CARTESIAN_POINT ( 'NONE',  ( 0.000000000000000000, 0.000000000000000000, 0.000000000000000000 ) ) ;
#316 = EDGE_LOOP ( 'NONE', ( #357, #392, #289, #17 ) ) ;
#317 = EDGE_CURVE ( 'NONE', #262, #396, #86, .T. ) ;
#318 = AXIS2_PLACEMENT_3D ( 'NONE', #159, #81, #386 ) ;
#319 = CYLINDRICAL_SURFACE ( 'NONE', #16, 47.00000000000000711 ) ;
#320 = EDGE_LOOP ( 'NONE', ( #472, #93 ) ) ;
#321 = VERTEX_POINT ( 'NONE', #468 ) ;
#322 = ORIENTED_EDGE ( 'NONE', *, *, #42, .T. ) ;
#323 = PRODUCT_DEFINITION_CONTEXT ( 'detailed design', #177, 'design' ) ;
#324 = VERTEX_POINT ( 'NONE', #49 ) ;
#325 = VECTOR ( 'NONE', #225, 1000.000000000000000 ) ;
#326 = ORIENTED_EDGE ( 'NONE', *, *, #156, .F. ) ;
#327 = MECHANICAL_DESIGN_GEOMETRIC_PRESENTATION_REPRESENTATION (  '', ( #154 ), #389 ) ;
#328 = DIRECTION ( 'NONE',  ( 0.000000000000000000, 0.000000000000000000, 1.000000000000000000 ) ) ;
#329 = CARTESIAN_POINT ( 'NONE',  ( 1.015964894571439433E-14, 0.000000000000000000, -38.75000000000000711 ) ) ;
#330 = PRODUCT_RELATED_PRODUCT_CATEGORY ( 'part', '', ( #164 ) ) ;
#331 = DIRECTION ( 'NONE',  ( 0.000000000000000000, 1.000000000000000000, 0.000000000000000000 ) ) ;
#332 = DIRECTION ( 'NONE',  ( -0.000000000000000000, 1.000000000000000000, -0.000000000000000000 ) ) ;
#333 = AXIS2_PLACEMENT_3D ( 'NONE', #104, #102, #442 ) ;
#334 = FACE_OUTER_BOUND ( 'NONE', #252, .T. ) ;
#335 = CYLINDRICAL_SURFACE ( 'NONE', #112, 2.250000000000002220 ) ;
#336 = CARTESIAN_POINT ( 'NONE',  ( 1.015964894571439433E-14, 0.000000000000000000, -41.00000000000000711 ) ) ;
#337 = DIRECTION ( 'NONE',  ( -0.000000000000000000, 1.000000000000000000, -0.000000000000000000 ) ) ;
#338 = ORIENTED_EDGE ( 'NONE', *, *, #61, .F. ) ;
#339 = EDGE_CURVE ( 'NONE', #58, #246, #12, .T. ) ;
#340 = CYLINDRICAL_SURFACE ( 'NONE', #85, 2.250000000000001776 ) ;
#341 = AXIS2_PLACEMENT_3D ( 'NONE', #441, #103, #257 ) ;
#342 = FACE_BOUND ( 'NONE', #249, .T. ) ;
#343 = DIRECTION ( 'NONE',  ( 0.000000000000000000, 1.000000000000000000, 0.000000000000000000 ) ) ;
#344 = CARTESIAN_POINT ( 'NONE',  ( 0.000000000000000000, 0.000000000000000000, 0.000000000000000000 ) ) ;
#345 = ADVANCED_FACE ( 'NONE', ( #128 ), #319, .T. ) ;
#346 = CARTESIAN_POINT ( 'NONE',  ( 1.043519447552254841E-14, 4.000000000000000000, -43.25000000000001421 ) ) ;
#347 = AXIS2_PLACEMENT_3D ( 'NONE', #62, #480, #301 ) ;
#348 = CARTESIAN_POINT ( 'NONE',  ( 1.015964894571439433E-14, 0.000000000000000000, -41.00000000000000711 ) ) ;
#349 = ORIENTED_EDGE ( 'NONE', *, *, #360, .F. ) ;
#350 = ADVANCED_FACE ( 'NONE', ( #282 ), #354, .F. ) ;
#351 = DIRECTION ( 'NONE',  ( 0.000000000000000000, 0.000000000000000000, -1.000000000000000000 ) ) ;
#352 = FACE_BOUND ( 'NONE', #353, .T. ) ;
#353 = EDGE_LOOP ( 'NONE', ( #84, #56 ) ) ;
#354 = CYLINDRICAL_SURFACE ( 'NONE', #142, 2.250000000000001776 ) ;
#355 = APPLICATION_CONTEXT ( 'automotive_design' ) ;
#356 = VECTOR ( 'NONE', #165, 1000.000000000000000 ) ;
#357 = ORIENTED_EDGE ( 'NONE', *, *, #76, .F. ) ;
#358 = VECTOR ( 'NONE', #427, 1000.000000000000000 ) ;
#359 = EDGE_LOOP ( 'NONE', ( #168, #488 ) ) ;
#360 = EDGE_CURVE ( 'NONE', #95, #176, #69, .T. ) ;
#361 = VERTEX_POINT ( 'NONE', #329 ) ;
#362 = ORIENTED_EDGE ( 'NONE', *, *, #275, .F. ) ;
#363 = ADVANCED_FACE ( 'NONE', ( #453 ), #335, .F. ) ;
#364 = DIRECTION ( 'NONE',  ( 0.000000000000000000, 0.000000000000000000, 1.000000000000000000 ) ) ;
#365 = DIRECTION ( 'NONE',  ( -0.000000000000000000, 1.000000000000000000, -0.000000000000000000 ) ) ;
#366 = CYLINDRICAL_SURFACE ( 'NONE', #341, 35.00000000000000711 ) ;
#367 = DIRECTION ( 'NONE',  ( 0.000000000000000000, 0.000000000000000000, 1.000000000000000000 ) ) ;
#368 = DIRECTION ( 'NONE',  ( 0.000000000000000000, 0.000000000000000000, 1.000000000000000000 ) ) ;
#369 = CYLINDRICAL_SURFACE ( 'NONE', #59, 2.250000000000002220 ) ;
#370 = ORIENTED_EDGE ( 'NONE', *, *, #265, .T. ) ;
#371 = VERTEX_POINT ( 'NONE', #145 ) ;
#372 = CARTESIAN_POINT ( 'NONE',  ( -41.00000000000000711, 0.000000000000000000, 0.000000000000000000 ) ) ;
#373 = ORIENTED_EDGE ( 'NONE', *, *, #54, .F. ) ;
#374 = ADVANCED_FACE ( 'NONE', ( #63 ), #24, .F. ) ;
#375 = CARTESIAN_POINT ( 'NONE',  ( -41.00000000000000711, 0.000000000000000000, -2.250000000000002220 ) ) ;
#376 = CARTESIAN_POINT ( 'NONE',  ( 1.015964894571439433E-14, 0.000000000000000000, -41.00000000000000711 ) ) ;
#377 = ORIENTED_EDGE ( 'NONE', *, *, #281, .T. ) ;
#378 = CARTESIAN_POINT ( 'NONE',  ( 0.000000000000000000, 0.000000000000000000, 0.000000000000000000 ) ) ;
#379 = AXIS2_PLACEMENT_3D ( 'NONE', #420, #236, #351 ) ;
#380 = DIRECTION ( 'NONE',  ( 0.000000000000000000, 1.000000000000000000, 0.000000000000000000 ) ) ;
#381 = CARTESIAN_POINT ( 'NONE',  ( 41.00000000000000711, 0.000000000000000000, 0.000000000000000000 ) ) ;
#382 = DIRECTION ( 'NONE',  ( 0.000000000000000000, 1.000000000000000000, 0.000000000000000000 ) ) ;
#383 = DIRECTION ( 'NONE',  ( 0.000000000000000000, 1.000000000000000000, 0.000000000000000000 ) ) ;
#384 =( LENGTH_UNIT ( ) NAMED_UNIT ( * ) SI_UNIT ( .MILLI., .METRE. ) );
#385 = ORIENTED_EDGE ( 'NONE', *, *, #281, .F. ) ;
#386 = DIRECTION ( 'NONE',  ( 0.000000000000000000, 0.000000000000000000, 1.000000000000000000 ) ) ;
#387 = EDGE_LOOP ( 'NONE', ( #41, #111, #20, #243 ) ) ;
#388 = ADVANCED_FACE ( 'NONE', ( #180 ), #74, .F. ) ;
#389 =( GEOMETRIC_REPRESENTATION_CONTEXT ( 3 ) GLOBAL_UNCERTAINTY_ASSIGNED_CONTEXT ( ( #55 ) ) GLOBAL_UNIT_ASSIGNED_CONTEXT ( ( #384, #204, #306 ) ) REPRESENTATION_CONTEXT ( 'NONE', 'WORKASPACE' ) );
#390 = DIRECTION ( 'NONE',  ( -0.000000000000000000, -1.000000000000000000, -0.000000000000000000 ) ) ;
#391 = ORIENTED_EDGE ( 'NONE', *, *, #287, .T. ) ;
#392 = ORIENTED_EDGE ( 'NONE', *, *, #54, .T. ) ;
#393 = ORIENTED_EDGE ( 'NONE', *, *, #454, .F. ) ;
#394 = CIRCLE ( 'NONE', #184, 2.250000000000002220 ) ;
#395 = EDGE_LOOP ( 'NONE', ( #174, #247, #172, #385 ) ) ;
#396 = VERTEX_POINT ( 'NONE', #269 ) ;
#397 = EDGE_CURVE ( 'NONE', #146, #11, #248, .T. ) ;
#398 = EDGE_LOOP ( 'NONE', ( #266, #32 ) ) ;
#399 = AXIS2_PLACEMENT_3D ( 'NONE', #203, #271, #237 ) ;
#400 = FACE_OUTER_BOUND ( 'NONE', #395, .T. ) ;
#401 = COLOUR_RGB ( '',0.7921568627450980005, 0.8196078431372548767, 0.9333333333333333481 ) ;
#402 = CARTESIAN_POINT ( 'NONE',  ( 1.015964894571439433E-14, 4.000000000000000000, -38.75000000000000711 ) ) ;
#403 = ORIENTED_EDGE ( 'NONE', *, *, #202, .F. ) ;
#404 = CARTESIAN_POINT ( 'NONE',  ( -41.00000000000000711, 0.000000000000000000, -2.250000000000002220 ) ) ;
#405 = VECTOR ( 'NONE', #189, 1000.000000000000000 ) ;
#406 = FACE_OUTER_BOUND ( 'NONE', #91, .T. ) ;
#407 = FACE_OUTER_BOUND ( 'NONE', #320, .T. ) ;
#408 = ADVANCED_FACE ( 'NONE', ( #220 ), #369, .F. ) ;
#409 = CIRCLE ( 'NONE', #418, 2.250000000000001776 ) ;
#410 = DIRECTION ( 'NONE',  ( 0.000000000000000000, 1.000000000000000000, 0.000000000000000000 ) ) ;
#411 = DIRECTION ( 'NONE',  ( 0.000000000000000000, 0.000000000000000000, 1.000000000000000000 ) ) ;
#412 =( GEOMETRIC_REPRESENTATION_CONTEXT ( 3 ) GLOBAL_UNCERTAINTY_ASSIGNED_CONTEXT ( ( #476 ) ) GLOBAL_UNIT_ASSIGNED_CONTEXT ( ( #465, #82, #272 ) ) REPRESENTATION_CONTEXT ( 'NONE', 'WORKASPACE' ) );
#413 = ORIENTED_EDGE ( 'NONE', *, *, #94, .T. ) ;
#414 = ADVANCED_FACE ( 'NONE', ( #342, #479, #450, #295, #407, #139 ), #26, .T. ) ;
#415 = DIRECTION ( 'NONE',  ( 0.000000000000000000, 0.000000000000000000, -1.000000000000000000 ) ) ;
#416 = AXIS2_PLACEMENT_3D ( 'NONE', #43, #343, #39 ) ;
#417 = CARTESIAN_POINT ( 'NONE',  ( -41.00000000000000711, 4.000000000000000000, 0.000000000000000000 ) ) ;
#418 = AXIS2_PLACEMENT_3D ( 'NONE', #348, #7, #192 ) ;
#419 = APPLICATION_PROTOCOL_DEFINITION ( 'draft international standard', 'automotive_design', 1998, #177 ) ;
#420 = CARTESIAN_POINT ( 'NONE',  ( 0.000000000000000000, 4.000000000000000000, 0.000000000000000000 ) ) ;
#421 = SURFACE_STYLE_FILL_AREA ( #311 ) ;
#422 = CARTESIAN_POINT ( 'NONE',  ( 0.000000000000000000, 4.000000000000000000, 0.000000000000000000 ) ) ;
#423 = ORIENTED_EDGE ( 'NONE', *, *, #42, .F. ) ;
#424 = AXIS2_PLACEMENT_3D ( 'NONE', #138, #331, #254 ) ;
#425 = EDGE_CURVE ( 'NONE', #200, #123, #493, .T. ) ;
#426 = PRODUCT_DEFINITION_SHAPE ( 'NONE', 'NONE',  #99 ) ;
#427 = DIRECTION ( 'NONE',  ( -0.000000000000000000, 1.000000000000000000, -0.000000000000000000 ) ) ;
#428 = ORIENTED_EDGE ( 'NONE', *, *, #94, .F. ) ;
#429 = EDGE_CURVE ( 'NONE', #200, #45, #293, .T. ) ;
#430 = EDGE_LOOP ( 'NONE', ( #373, #23, #443, #239 ) ) ;
#431 = AXIS2_PLACEMENT_3D ( 'NONE', #263, #410, #223 ) ;
#432 = VERTEX_POINT ( 'NONE', #402 ) ;
#433 = CIRCLE ( 'NONE', #71, 35.00000000000000711 ) ;
#434 = EDGE_LOOP ( 'NONE', ( #70, #53 ) ) ;
#435 = ORIENTED_EDGE ( 'NONE', *, *, #317, .T. ) ;
#436 = ORIENTED_EDGE ( 'NONE', *, *, #360, .T. ) ;
#437 = CIRCLE ( 'NONE', #431, 2.250000000000002220 ) ;
#438 = CARTESIAN_POINT ( 'NONE',  ( 1.015964894571439433E-14, 4.000000000000000000, 43.25000000000001421 ) ) ;
#439 = CARTESIAN_POINT ( 'NONE',  ( 41.00000000000000711, 4.000000000000000000, 0.000000000000000000 ) ) ;
#440 = AXIS2_PLACEMENT_3D ( 'NONE', #114, #149, #215 ) ;
#441 = CARTESIAN_POINT ( 'NONE',  ( 0.000000000000000000, 4.000000000000000000, 0.000000000000000000 ) ) ;
#442 = DIRECTION ( 'NONE',  ( 0.000000000000000000, -0.000000000000000000, 1.000000000000000000 ) ) ;
#443 = ORIENTED_EDGE ( 'NONE', *, *, #303, .T. ) ;
#444 = EDGE_CURVE ( 'NONE', #11, #146, #394, .T. ) ;
#445 = DIRECTION ( 'NONE',  ( 0.000000000000000000, 0.000000000000000000, 1.000000000000000000 ) ) ;
#446 = DIRECTION ( 'NONE',  ( -0.000000000000000000, 1.000000000000000000, -0.000000000000000000 ) ) ;
#447 = ORIENTED_EDGE ( 'NONE', *, *, #429, .T. ) ;
#448 = CIRCLE ( 'NONE', #57, 2.250000000000001776 ) ;
#449 = LINE ( 'NONE', #179, #219 ) ;
#450 = FACE_BOUND ( 'NONE', #285, .T. ) ;
#451 = ORIENTED_EDGE ( 'NONE', *, *, #213, .T. ) ;
#452 = DIRECTION ( 'NONE',  ( 0.000000000000000000, 1.000000000000000000, 0.000000000000000000 ) ) ;
#453 = FACE_OUTER_BOUND ( 'NONE', #222, .T. ) ;
#454 = EDGE_CURVE ( 'NONE', #97, #474, #459, .T. ) ;
#455 = CARTESIAN_POINT ( 'NONE',  ( 0.000000000000000000, 4.000000000000000000, -47.00000000000000711 ) ) ;
#456 = DIRECTION ( 'NONE',  ( -0.000000000000000000, -1.000000000000000000, -0.000000000000000000 ) ) ;
#457 = PRESENTATION_STYLE_ASSIGNMENT (( #40 ) ) ;
#458 = CARTESIAN_POINT ( 'NONE',  ( 1.043519447552254841E-14, 0.000000000000000000, 38.75000000000000711 ) ) ;
#459 = CIRCLE ( 'NONE', #130, 35.00000000000000711 ) ;
#460 = APPLICATION_PROTOCOL_DEFINITION ( 'draft international standard', 'automotive_design', 1998, #355 ) ;
#461 = ORIENTED_EDGE ( 'NONE', *, *, #444, .F. ) ;
#462 = CARTESIAN_POINT ( 'NONE',  ( 1.015964894571439433E-14, 4.000000000000000000, -41.00000000000000711 ) ) ;
#463 = EDGE_CURVE ( 'NONE', #58, #361, #9, .T. ) ;
#464 = DIRECTION ( 'NONE',  ( 0.000000000000000000, 1.000000000000000000, 0.000000000000000000 ) ) ;
#465 =( LENGTH_UNIT ( ) NAMED_UNIT ( * ) SI_UNIT ( .MILLI., .METRE. ) );
#466 = ORIENTED_EDGE ( 'NONE', *, *, #213, .F. ) ;
#467 = AXIS2_PLACEMENT_3D ( 'NONE', #183, #27, #490 ) ;
#468 = CARTESIAN_POINT ( 'NONE',  ( 5.755839955992561430E-15, 4.000000000000000000, 47.00000000000000711 ) ) ;
#469 = CIRCLE ( 'NONE', #37, 35.00000000000000711 ) ;
#470 = VERTEX_POINT ( 'NONE', #481 ) ;
#471 = EDGE_CURVE ( 'NONE', #321, #324, #28, .T. ) ;
#472 = ORIENTED_EDGE ( 'NONE', *, *, #491, .T. ) ;
#473 = ORIENTED_EDGE ( 'NONE', *, *, #425, .F. ) ;
#474 = VERTEX_POINT ( 'NONE', #228 ) ;
#475 = AXIS2_PLACEMENT_3D ( 'NONE', #46, #277, #231 ) ;
#476 = UNCERTAINTY_MEASURE_WITH_UNIT (LENGTH_MEASURE( 1.000000000000000082E-05 ), #465, 'distance_accuracy_value', 'NONE');
#477 = VERTEX_POINT ( 'NONE', #302 ) ;
#478 = CARTESIAN_POINT ( 'NONE',  ( 0.000000000000000000, 4.000000000000000000, -35.00000000000000711 ) ) ;
#479 = FACE_BOUND ( 'NONE', #398, .T. ) ;
#480 = DIRECTION ( 'NONE',  ( 0.000000000000000000, 1.000000000000000000, 0.000000000000000000 ) ) ;
#481 = CARTESIAN_POINT ( 'NONE',  ( 0.000000000000000000, 0.000000000000000000, -35.00000000000000711 ) ) ;
#482 = AXIS2_PLACEMENT_3D ( 'NONE', #487, #300, #292 ) ;
#483 = ADVANCED_FACE ( 'NONE', ( #352, #4, #276, #2, #163, #44 ), #126, .F. ) ;
#484 = DIRECTION ( 'NONE',  ( 0.000000000000000000, 1.000000000000000000, 0.000000000000000000 ) ) ;
#485 = DIRECTION ( 'NONE',  ( -0.000000000000000000, -1.000000000000000000, -0.000000000000000000 ) ) ;
#486 = CARTESIAN_POINT ( 'NONE',  ( 41.00000000000000711, 4.000000000000000000, -2.250000000000002220 ) ) ;
#487 = CARTESIAN_POINT ( 'NONE',  ( 1.015964894571439433E-14, 0.000000000000000000, 41.00000000000000711 ) ) ;
#488 = ORIENTED_EDGE ( 'NONE', *, *, #21, .T. ) ;
#489 = CIRCLE ( 'NONE', #424, 2.250000000000001776 ) ;
#490 = DIRECTION ( 'NONE',  ( 0.000000000000000000, 0.000000000000000000, 1.000000000000000000 ) ) ;
#491 = EDGE_CURVE ( 'NONE', #262, #321, #72, .T. ) ;
#492 = MANIFOLD_SOLID_BREP ( 'Taglio-Estrusione1', #260 ) ;
#493 = LINE ( 'NONE', #188, #280 ) ;
#494 = DIRECTION ( 'NONE',  ( 0.000000000000000000, 0.000000000000000000, 1.000000000000000000 ) ) ;
#495 = AXIS2_PLACEMENT_3D ( 'NONE', #167, #121, #242 ) ;
ENDSEC;
END-ISO-10303-21;
