ISO-10303-21;
HEADER;
FILE_DESCRIPTION (( 'STEP AP214' ),
    '1' );
FILE_NAME ('ARP-0098.STEP',
    '2026-09-03T10:32:02',
    ( '' ),
    ( '' ),
    'SwSTEP 2.0',
    'SolidWorks 2024',
    '' );
FILE_SCHEMA (( 'AUTOMOTIVE_DESIGN' ));
ENDSEC;

DATA;
#1 = DIRECTION ( 'NONE',  ( -0.9063077870366497146, -0.000000000000000000, -0.4226182617406997744 ) ) ;
#2 = ADVANCED_FACE ( 'NONE', ( #176 ), #153, .T. ) ;
#3 = CARTESIAN_POINT ( 'NONE',  ( 0.000000000000000000, 0.000000000000000000, 0.000000000000000000 ) ) ;
#4 = EDGE_CURVE ( 'NONE', #160, #117, #49, .T. ) ;
#5 = CIRCLE ( 'NONE', #23, 110.0000000000000142 ) ;
#6 = CARTESIAN_POINT ( 'NONE',  ( -99.69385657403144307, 0.000000000000000000, -46.48800879147709253 ) ) ;
#7 =( LENGTH_UNIT ( ) NAMED_UNIT ( * ) SI_UNIT ( .MILLI., .METRE. ) );
#8 = DIRECTION ( 'NONE',  ( -0.9063077870366497146, -0.000000000000000000, -0.4226182617406997744 ) ) ;
#9 =( GEOMETRIC_REPRESENTATION_CONTEXT ( 3 ) GLOBAL_UNCERTAINTY_ASSIGNED_CONTEXT ( ( #149 ) ) GLOBAL_UNIT_ASSIGNED_CONTEXT ( ( #7, #131, #34 ) ) REPRESENTATION_CONTEXT ( 'NONE', 'WORKASPACE' ) );
#10 = PRODUCT_DEFINITION_FORMATION_WITH_SPECIFIED_SOURCE ( 'TUTTO', '', #111, .NOT_KNOWN. ) ;
#11 = CYLINDRICAL_SURFACE ( 'NONE', #175, 2.249999999999988010 ) ;
#12 = DIRECTION ( 'NONE',  ( -0.000000000000000000, 1.000000000000000000, -0.000000000000000000 ) ) ;
#13 = AXIS2_PLACEMENT_3D ( 'NONE', #145, #85, #67 ) ;
#14 = ORIENTED_EDGE ( 'NONE', *, *, #216, .T. ) ;
#15 = EDGE_LOOP ( 'NONE', ( #40, #255, #116, #83 ) ) ;
#16 = SHAPE_DEFINITION_REPRESENTATION ( #165, #213 ) ;
#17 = ORIENTED_EDGE ( 'NONE', *, *, #88, .T. ) ;
#18 = CIRCLE ( 'NONE', #81, 2.249999999999988010 ) ;
#19 = ORIENTED_EDGE ( 'NONE', *, *, #256, .T. ) ;
#20 = CARTESIAN_POINT ( 'NONE',  ( -110.0000000000000000, 0.000000000000000000, 0.000000000000000000 ) ) ;
#21 = CARTESIAN_POINT ( 'NONE',  ( 0.000000000000000000, 3.000000000000000000, 0.000000000000000000 ) ) ;
#22 = EDGE_CURVE ( 'NONE', #58, #160, #25, .T. ) ;
#23 = AXIS2_PLACEMENT_3D ( 'NONE', #3, #123, #69 ) ;
#24 = CARTESIAN_POINT ( 'NONE',  ( -88.36500923607334812, 0.000000000000000000, -41.20528051971827921 ) ) ;
#25 = LINE ( 'NONE', #208, #41 ) ;
#26 = DIRECTION ( 'NONE',  ( -0.000000000000000000, -1.000000000000000000, -0.000000000000000000 ) ) ;
#27 = FACE_BOUND ( 'NONE', #158, .T. ) ;
#28 = VECTOR ( 'NONE', #70, 1000.000000000000000 ) ;
#29 = SURFACE_STYLE_FILL_AREA ( #71 ) ;
#30 = PLANE ( 'NONE',  #217 ) ;
#31 = LINE ( 'NONE', #168, #225 ) ;
#32 = VERTEX_POINT ( 'NONE', #24 ) ;
#33 = CIRCLE ( 'NONE', #169, 110.0000000000000142 ) ;
#34 =( NAMED_UNIT ( * ) SI_UNIT ( $, .STERADIAN. ) SOLID_ANGLE_UNIT ( ) );
#35 = PRODUCT_DEFINITION ( 'NON CONOSCIUTO', '', #10, #186 ) ;
#36 = EDGE_LOOP ( 'NONE', ( #37, #260, #237, #79 ) ) ;
#37 = ORIENTED_EDGE ( 'NONE', *, *, #72, .T. ) ;
#38 = EDGE_CURVE ( 'NONE', #202, #257, #107, .T. ) ;
#39 = EDGE_LOOP ( 'NONE', ( #200, #14, #17, #19 ) ) ;
#40 = ORIENTED_EDGE ( 'NONE', *, *, #139, .F. ) ;
#41 = VECTOR ( 'NONE', #227, 1000.000000000000000 ) ;
#42 = ORIENTED_EDGE ( 'NONE', *, *, #249, .T. ) ;
#43 = EDGE_CURVE ( 'NONE', #222, #241, #156, .T. ) ;
#44 = CARTESIAN_POINT ( 'NONE',  ( -100.5584887333532720, 3.000000000000001332, -22.29328023562391792 ) ) ;
#45 = CARTESIAN_POINT ( 'NONE',  ( -99.69385657403144307, 3.000000000000000000, -46.48800879147709253 ) ) ;
#46 = STYLED_ITEM ( 'NONE', ( #232 ), #191 ) ;
#47 = FILL_AREA_STYLE_COLOUR ( '', #219 ) ;
#48 = CARTESIAN_POINT ( 'NONE',  ( 0.000000000000000000, 3.000000000000000000, 0.000000000000000000 ) ) ;
#49 = LINE ( 'NONE', #20, #193 ) ;
#50 = MECHANICAL_DESIGN_GEOMETRIC_PRESENTATION_REPRESENTATION (  '', ( #46 ), #9 ) ;
#51 = FACE_OUTER_BOUND ( 'NONE', #102, .T. ) ;
#52 = AXIS2_PLACEMENT_3D ( 'NONE', #233, #109, #190 ) ;
#53 = UNCERTAINTY_MEASURE_WITH_UNIT (LENGTH_MEASURE( 1.000000000000000082E-05 ), #93, 'distance_accuracy_value', 'NONE');
#54 = LINE ( 'NONE', #192, #205 ) ;
#55 = CARTESIAN_POINT ( 'NONE',  ( -88.36500923607334812, 3.000000000000000000, -41.20528051971827921 ) ) ;
#56 = DIRECTION ( 'NONE',  ( 0.000000000000000000, 0.000000000000000000, -1.000000000000000000 ) ) ;
#57 = APPLICATION_CONTEXT ( 'automotive_design' ) ;
#58 = VERTEX_POINT ( 'NONE', #246 ) ;
#59 = AXIS2_PLACEMENT_3D ( 'NONE', #236, #171, #56 ) ;
#60 =( NAMED_UNIT ( * ) PLANE_ANGLE_UNIT ( ) SI_UNIT ( $, .RADIAN. ) );
#61 = EDGE_LOOP ( 'NONE', ( #198, #134, #113, #226 ) ) ;
#62 = ORIENTED_EDGE ( 'NONE', *, *, #38, .T. ) ;
#63 = ORIENTED_EDGE ( 'NONE', *, *, #132, .T. ) ;
#64 = ADVANCED_FACE ( 'NONE', ( #103 ), #207, .F. ) ;
#65 = AXIS2_PLACEMENT_3D ( 'NONE', #96, #172, #152 ) ;
#66 = CARTESIAN_POINT ( 'NONE',  ( -110.0000000000000000, 0.000000000000000000, 0.000000000000000000 ) ) ;
#67 = DIRECTION ( 'NONE',  ( -1.000000000000000000, 0.000000000000000000, -0.000000000000000000 ) ) ;
#68 = DIRECTION ( 'NONE',  ( 0.000000000000000000, 0.000000000000000000, 1.000000000000000000 ) ) ;
#69 = DIRECTION ( 'NONE',  ( 0.000000000000000000, 0.000000000000000000, 1.000000000000000000 ) ) ;
#70 = DIRECTION ( 'NONE',  ( -0.000000000000000000, 1.000000000000000000, -0.000000000000000000 ) ) ;
#71 = FILL_AREA_STYLE ('',( #47 ) ) ;
#72 = EDGE_CURVE ( 'NONE', #32, #257, #163, .T. ) ;
#73 = AXIS2_PLACEMENT_3D ( 'NONE', #21, #183, #264 ) ;
#74 = PLANE ( 'NONE',  #136 ) ;
#75 = DIRECTION ( 'NONE',  ( 0.000000000000000000, -0.000000000000000000, 1.000000000000000000 ) ) ;
#76 = EDGE_CURVE ( 'NONE', #257, #160, #5, .T. ) ;
#77 = LINE ( 'NONE', #250, #162 ) ;
#78 = DIRECTION ( 'NONE',  ( 1.000000000000000000, 0.000000000000000000, 0.000000000000000000 ) ) ;
#79 = ORIENTED_EDGE ( 'NONE', *, *, #173, .T. ) ;
#80 = ORIENTED_EDGE ( 'NONE', *, *, #125, .T. ) ;
#81 = AXIS2_PLACEMENT_3D ( 'NONE', #164, #144, #89 ) ;
#82 = ORIENTED_EDGE ( 'NONE', *, *, #256, .F. ) ;
#83 = ORIENTED_EDGE ( 'NONE', *, *, #72, .F. ) ;
#84 = EDGE_CURVE ( 'NONE', #241, #222, #189, .T. ) ;
#85 = DIRECTION ( 'NONE',  ( 0.000000000000000000, 0.000000000000000000, -1.000000000000000000 ) ) ;
#86 = AXIS2_PLACEMENT_3D ( 'NONE', #259, #159, #78 ) ;
#87 = DIRECTION ( 'NONE',  ( -0.000000000000000000, 1.000000000000000000, -0.000000000000000000 ) ) ;
#88 = EDGE_CURVE ( 'NONE', #202, #58, #33, .T. ) ;
#89 = DIRECTION ( 'NONE',  ( 0.000000000000000000, 0.000000000000000000, 1.000000000000000000 ) ) ;
#90 = CARTESIAN_POINT ( 'NONE',  ( -100.5584887333532720, 3.000000000000001332, -22.29328023562391792 ) ) ;
#91 = VECTOR ( 'NONE', #1, 1000.000000000000114 ) ;
#92 = DIRECTION ( 'NONE',  ( 0.000000000000000000, 1.000000000000000000, 0.000000000000000000 ) ) ;
#93 =( LENGTH_UNIT ( ) NAMED_UNIT ( * ) SI_UNIT ( .MILLI., .METRE. ) );
#94 = FACE_OUTER_BOUND ( 'NONE', #39, .T. ) ;
#95 = FACE_OUTER_BOUND ( 'NONE', #61, .T. ) ;
#96 = CARTESIAN_POINT ( 'NONE',  ( 0.000000000000000000, 0.000000000000000000, 0.000000000000000000 ) ) ;
#97 = ORIENTED_EDGE ( 'NONE', *, *, #125, .F. ) ;
#98 = PRESENTATION_LAYER_ASSIGNMENT (  '', '', ( #46 ) ) ;
#99 = ORIENTED_EDGE ( 'NONE', *, *, #4, .T. ) ;
#100 = ORIENTED_EDGE ( 'NONE', *, *, #88, .F. ) ;
#101 =( GEOMETRIC_REPRESENTATION_CONTEXT ( 3 ) GLOBAL_UNCERTAINTY_ASSIGNED_CONTEXT ( ( #53 ) ) GLOBAL_UNIT_ASSIGNED_CONTEXT ( ( #93, #60, #133 ) ) REPRESENTATION_CONTEXT ( 'NONE', 'WORKASPACE' ) );
#102 = EDGE_LOOP ( 'NONE', ( #177, #220, #199, #178 ) ) ;
#103 = FACE_OUTER_BOUND ( 'NONE', #181, .T. ) ;
#104 = CARTESIAN_POINT ( 'NONE',  ( -97.50000000000000000, 0.000000000000000000, 0.000000000000000000 ) ) ;
#105 = VECTOR ( 'NONE', #87, 1000.000000000000000 ) ;
#106 = CARTESIAN_POINT ( 'NONE',  ( -100.5584887333532720, 0.000000000000000000, -20.04328023562392858 ) ) ;
#107 = LINE ( 'NONE', #45, #254 ) ;
#108 = DIRECTION ( 'NONE',  ( 0.000000000000000000, 0.000000000000000000, 1.000000000000000000 ) ) ;
#109 = DIRECTION ( 'NONE',  ( 0.000000000000000000, 1.000000000000000000, 0.000000000000000000 ) ) ;
#110 = CARTESIAN_POINT ( 'NONE',  ( 0.000000000000000000, 3.000000000000000000, 0.000000000000000000 ) ) ;
#111 = PRODUCT ( 'ARP-0098', 'ARP-0098', '', ( #221 ) ) ;
#112 = AXIS2_PLACEMENT_3D ( 'NONE', #48, #26, #243 ) ;
#113 = ORIENTED_EDGE ( 'NONE', *, *, #174, .F. ) ;
#114 = DIRECTION ( 'NONE',  ( -0.000000000000000000, -1.000000000000000000, -0.000000000000000000 ) ) ;
#115 = VERTEX_POINT ( 'NONE', #106 ) ;
#116 = ORIENTED_EDGE ( 'NONE', *, *, #76, .F. ) ;
#117 = VERTEX_POINT ( 'NONE', #104 ) ;
#118 = ADVANCED_FACE ( 'NONE', ( #244 ), #262, .F. ) ;
#119 = ORIENTED_EDGE ( 'NONE', *, *, #43, .F. ) ;
#120 = VERTEX_POINT ( 'NONE', #265 ) ;
#121 = LINE ( 'NONE', #228, #105 ) ;
#122 = CARTESIAN_POINT ( 'NONE',  ( 0.000000000000000000, 0.000000000000000000, 0.000000000000000000 ) ) ;
#123 = DIRECTION ( 'NONE',  ( 0.000000000000000000, 1.000000000000000000, 0.000000000000000000 ) ) ;
#124 = DIRECTION ( 'NONE',  ( -0.000000000000000000, -1.000000000000000000, -0.000000000000000000 ) ) ;
#125 = EDGE_CURVE ( 'NONE', #157, #115, #18, .T. ) ;
#126 = EDGE_CURVE ( 'NONE', #115, #222, #121, .T. ) ;
#127 = DIRECTION ( 'NONE',  ( -0.000000000000000000, 1.000000000000000000, -0.000000000000000000 ) ) ;
#128 = FACE_OUTER_BOUND ( 'NONE', #15, .T. ) ;
#129 = CARTESIAN_POINT ( 'NONE',  ( -99.69385657403147150, 3.000000000000000000, -46.48800879147702858 ) ) ;
#130 = AXIS2_PLACEMENT_3D ( 'NONE', #90, #166, #245 ) ;
#131 =( NAMED_UNIT ( * ) PLANE_ANGLE_UNIT ( ) SI_UNIT ( $, .RADIAN. ) );
#132 = EDGE_CURVE ( 'NONE', #157, #241, #188, .T. ) ;
#133 =( NAMED_UNIT ( * ) SI_UNIT ( $, .STERADIAN. ) SOLID_ANGLE_UNIT ( ) );
#134 = ORIENTED_EDGE ( 'NONE', *, *, #173, .F. ) ;
#135 = APPLICATION_PROTOCOL_DEFINITION ( 'draft international standard', 'automotive_design', 1998, #57 ) ;
#136 = AXIS2_PLACEMENT_3D ( 'NONE', #110, #209, #75 ) ;
#137 = APPLICATION_PROTOCOL_DEFINITION ( 'draft international standard', 'automotive_design', 1998, #252 ) ;
#138 = ORIENTED_EDGE ( 'NONE', *, *, #84, .T. ) ;
#139 = EDGE_CURVE ( 'NONE', #117, #32, #263, .T. ) ;
#140 = EDGE_LOOP ( 'NONE', ( #141, #180, #100, #62 ) ) ;
#141 = ORIENTED_EDGE ( 'NONE', *, *, #76, .T. ) ;
#142 = AXIS2_PLACEMENT_3D ( 'NONE', #187, #127, #161 ) ;
#143 = CARTESIAN_POINT ( 'NONE',  ( -88.36500923607334812, 3.000000000000000000, -41.20528051971827921 ) ) ;
#144 = DIRECTION ( 'NONE',  ( 0.000000000000000000, 1.000000000000000000, 0.000000000000000000 ) ) ;
#145 = CARTESIAN_POINT ( 'NONE',  ( -110.0000000000000000, 3.000000000000000000, 0.000000000000000000 ) ) ;
#146 = DIRECTION ( 'NONE',  ( -0.000000000000000000, 1.000000000000000000, -0.000000000000000000 ) ) ;
#147 = DIRECTION ( 'NONE',  ( 1.000000000000000000, 0.000000000000000000, 0.000000000000000000 ) ) ;
#148 = DIRECTION ( 'NONE',  ( 0.000000000000000000, 0.000000000000000000, 1.000000000000000000 ) ) ;
#149 = UNCERTAINTY_MEASURE_WITH_UNIT (LENGTH_MEASURE( 1.000000000000000082E-05 ), #7, 'distance_accuracy_value', 'NONE');
#150 = CARTESIAN_POINT ( 'NONE',  ( -100.5584887333532720, 3.000000000000000000, -22.29328023562391792 ) ) ;
#151 = CYLINDRICAL_SURFACE ( 'NONE', #59, 97.50000000000000000 ) ;
#152 = DIRECTION ( 'NONE',  ( 0.000000000000000000, -0.000000000000000000, 1.000000000000000000 ) ) ;
#153 = CYLINDRICAL_SURFACE ( 'NONE', #112, 110.0000000000000142 ) ;
#154 = ORIENTED_EDGE ( 'NONE', *, *, #195, .F. ) ;
#155 = CLOSED_SHELL ( 'NONE', ( #64, #247, #212, #2, #118, #223, #235, #224 ) ) ;
#156 = CIRCLE ( 'NONE', #130, 2.249999999999988010 ) ;
#157 = VERTEX_POINT ( 'NONE', #242 ) ;
#158 = EDGE_LOOP ( 'NONE', ( #42, #80 ) ) ;
#159 = DIRECTION ( 'NONE',  ( 0.000000000000000000, 0.000000000000000000, 1.000000000000000000 ) ) ;
#160 = VERTEX_POINT ( 'NONE', #66 ) ;
#161 = DIRECTION ( 'NONE',  ( 0.000000000000000000, 0.000000000000000000, 1.000000000000000000 ) ) ;
#162 = VECTOR ( 'NONE', #8, 1000.000000000000114 ) ;
#163 = LINE ( 'NONE', #182, #91 ) ;
#164 = CARTESIAN_POINT ( 'NONE',  ( -100.5584887333532720, 0.000000000000000000, -22.29328023562391792 ) ) ;
#165 = PRODUCT_DEFINITION_SHAPE ( 'NONE', 'NONE',  #35 ) ;
#166 = DIRECTION ( 'NONE',  ( -0.000000000000000000, 1.000000000000000000, -0.000000000000000000 ) ) ;
#167 = CARTESIAN_POINT ( 'NONE',  ( -100.5584887333532720, 3.000000000000000000, -24.54328023562390726 ) ) ;
#168 = CARTESIAN_POINT ( 'NONE',  ( -97.50000000000000000, 3.000000000000000000, 0.000000000000000000 ) ) ;
#169 = AXIS2_PLACEMENT_3D ( 'NONE', #185, #92, #108 ) ;
#170 = SURFACE_STYLE_USAGE ( .BOTH. , #215 ) ;
#171 = DIRECTION ( 'NONE',  ( -0.000000000000000000, -1.000000000000000000, -0.000000000000000000 ) ) ;
#172 = DIRECTION ( 'NONE',  ( 0.000000000000000000, 1.000000000000000000, 0.000000000000000000 ) ) ;
#173 = EDGE_CURVE ( 'NONE', #258, #32, #231, .T. ) ;
#174 = EDGE_CURVE ( 'NONE', #120, #258, #184, .T. ) ;
#175 = AXIS2_PLACEMENT_3D ( 'NONE', #150, #12, #148 ) ;
#176 = FACE_OUTER_BOUND ( 'NONE', #140, .T. ) ;
#177 = ORIENTED_EDGE ( 'NONE', *, *, #132, .F. ) ;
#178 = ORIENTED_EDGE ( 'NONE', *, *, #43, .T. ) ;
#179 = CIRCLE ( 'NONE', #52, 2.249999999999988010 ) ;
#180 = ORIENTED_EDGE ( 'NONE', *, *, #22, .F. ) ;
#181 = EDGE_LOOP ( 'NONE', ( #97, #63, #138, #238 ) ) ;
#182 = CARTESIAN_POINT ( 'NONE',  ( -99.69385657403147150, 0.000000000000000000, -46.48800879147702858 ) ) ;
#183 = DIRECTION ( 'NONE',  ( -0.000000000000000000, -1.000000000000000000, -0.000000000000000000 ) ) ;
#184 = CIRCLE ( 'NONE', #73, 97.50000000000000000 ) ;
#185 = CARTESIAN_POINT ( 'NONE',  ( 0.000000000000000000, 3.000000000000000000, 0.000000000000000000 ) ) ;
#186 = PRODUCT_DEFINITION_CONTEXT ( 'detailed design', #57, 'design' ) ;
#187 = CARTESIAN_POINT ( 'NONE',  ( -100.5584887333532720, 3.000000000000000000, -22.29328023562391792 ) ) ;
#188 = LINE ( 'NONE', #167, #28 ) ;
#189 = CIRCLE ( 'NONE', #210, 2.249999999999988010 ) ;
#190 = DIRECTION ( 'NONE',  ( 0.000000000000000000, 0.000000000000000000, 1.000000000000000000 ) ) ;
#191 = MANIFOLD_SOLID_BREP ( 'Foro per Vite M4-1', #155 ) ;
#192 = CARTESIAN_POINT ( 'NONE',  ( -110.0000000000000000, 3.000000000000000000, 0.000000000000000000 ) ) ;
#193 = VECTOR ( 'NONE', #147, 1000.000000000000000 ) ;
#194 = FACE_BOUND ( 'NONE', #261, .T. ) ;
#195 = EDGE_CURVE ( 'NONE', #120, #117, #31, .T. ) ;
#196 = PLANE ( 'NONE',  #65 ) ;
#197 = AXIS2_PLACEMENT_3D ( 'NONE', #122, #204, #68 ) ;
#198 = ORIENTED_EDGE ( 'NONE', *, *, #139, .T. ) ;
#199 = ORIENTED_EDGE ( 'NONE', *, *, #126, .T. ) ;
#200 = ORIENTED_EDGE ( 'NONE', *, *, #174, .T. ) ;
#201 = EDGE_LOOP ( 'NONE', ( #99, #154, #82, #240 ) ) ;
#202 = VERTEX_POINT ( 'NONE', #229 ) ;
#203 = DIRECTION ( 'NONE',  ( -0.000000000000000000, -1.000000000000000000, -0.000000000000000000 ) ) ;
#204 = DIRECTION ( 'NONE',  ( -0.000000000000000000, -1.000000000000000000, -0.000000000000000000 ) ) ;
#205 = VECTOR ( 'NONE', #234, 1000.000000000000000 ) ;
#206 = PRODUCT_RELATED_PRODUCT_CATEGORY ( 'part', '', ( #111 ) ) ;
#207 = CYLINDRICAL_SURFACE ( 'NONE', #142, 2.249999999999988010 ) ;
#208 = CARTESIAN_POINT ( 'NONE',  ( -110.0000000000000000, 3.000000000000000000, 0.000000000000000000 ) ) ;
#209 = DIRECTION ( 'NONE',  ( 0.000000000000000000, 1.000000000000000000, 0.000000000000000000 ) ) ;
#210 = AXIS2_PLACEMENT_3D ( 'NONE', #44, #146, #230 ) ;
#211 = FACE_OUTER_BOUND ( 'NONE', #36, .T. ) ;
#212 = ADVANCED_FACE ( 'NONE', ( #211 ), #30, .F. ) ;
#213 = ADVANCED_BREP_SHAPE_REPRESENTATION ( 'ARP-0098', ( #191, #86 ), #101 ) ;
#214 = CARTESIAN_POINT ( 'NONE',  ( -100.5584887333532720, 3.000000000000001332, -20.04328023562392858 ) ) ;
#215 = SURFACE_SIDE_STYLE ('',( #29 ) ) ;
#216 = EDGE_CURVE ( 'NONE', #258, #202, #77, .T. ) ;
#217 = AXIS2_PLACEMENT_3D ( 'NONE', #129, #253, #248 ) ;
#218 = ORIENTED_EDGE ( 'NONE', *, *, #84, .F. ) ;
#219 = COLOUR_RGB ( '',0.7921568627450980005, 0.8196078431372548767, 0.9333333333333333481 ) ;
#220 = ORIENTED_EDGE ( 'NONE', *, *, #249, .F. ) ;
#221 = PRODUCT_CONTEXT ( 'NONE', #252, 'mechanical' ) ;
#222 = VERTEX_POINT ( 'NONE', #214 ) ;
#223 = ADVANCED_FACE ( 'NONE', ( #194, #94 ), #74, .T. ) ;
#224 = ADVANCED_FACE ( 'NONE', ( #51 ), #11, .F. ) ;
#225 = VECTOR ( 'NONE', #114, 1000.000000000000000 ) ;
#226 = ORIENTED_EDGE ( 'NONE', *, *, #195, .T. ) ;
#227 = DIRECTION ( 'NONE',  ( -0.000000000000000000, -1.000000000000000000, -0.000000000000000000 ) ) ;
#228 = CARTESIAN_POINT ( 'NONE',  ( -100.5584887333532720, 3.000000000000000000, -20.04328023562392858 ) ) ;
#229 = CARTESIAN_POINT ( 'NONE',  ( -99.69385657403144307, 3.000000000000000000, -46.48800879147709253 ) ) ;
#230 = DIRECTION ( 'NONE',  ( 0.000000000000000000, 0.000000000000000000, 1.000000000000000000 ) ) ;
#231 = LINE ( 'NONE', #143, #239 ) ;
#232 = PRESENTATION_STYLE_ASSIGNMENT (( #170 ) ) ;
#233 = CARTESIAN_POINT ( 'NONE',  ( -100.5584887333532720, 0.000000000000000000, -22.29328023562391792 ) ) ;
#234 = DIRECTION ( 'NONE',  ( 1.000000000000000000, 0.000000000000000000, 0.000000000000000000 ) ) ;
#235 = ADVANCED_FACE ( 'NONE', ( #27, #128 ), #196, .F. ) ;
#236 = CARTESIAN_POINT ( 'NONE',  ( 0.000000000000000000, 3.000000000000000000, 0.000000000000000000 ) ) ;
#237 = ORIENTED_EDGE ( 'NONE', *, *, #216, .F. ) ;
#238 = ORIENTED_EDGE ( 'NONE', *, *, #126, .F. ) ;
#239 = VECTOR ( 'NONE', #203, 1000.000000000000000 ) ;
#240 = ORIENTED_EDGE ( 'NONE', *, *, #22, .T. ) ;
#241 = VERTEX_POINT ( 'NONE', #251 ) ;
#242 = CARTESIAN_POINT ( 'NONE',  ( -100.5584887333532720, 0.000000000000000000, -24.54328023562390726 ) ) ;
#243 = DIRECTION ( 'NONE',  ( 0.000000000000000000, 0.000000000000000000, -1.000000000000000000 ) ) ;
#244 = FACE_OUTER_BOUND ( 'NONE', #201, .T. ) ;
#245 = DIRECTION ( 'NONE',  ( 0.000000000000000000, 0.000000000000000000, 1.000000000000000000 ) ) ;
#246 = CARTESIAN_POINT ( 'NONE',  ( -110.0000000000000000, 3.000000000000000000, 0.000000000000000000 ) ) ;
#247 = ADVANCED_FACE ( 'NONE', ( #95 ), #151, .F. ) ;
#248 = DIRECTION ( 'NONE',  ( 0.9063077870366497146, 0.000000000000000000, 0.4226182617406997744 ) ) ;
#249 = EDGE_CURVE ( 'NONE', #115, #157, #179, .T. ) ;
#250 = CARTESIAN_POINT ( 'NONE',  ( -99.69385657403147150, 3.000000000000000000, -46.48800879147702858 ) ) ;
#251 = CARTESIAN_POINT ( 'NONE',  ( -100.5584887333532720, 3.000000000000001332, -24.54328023562390726 ) ) ;
#252 = APPLICATION_CONTEXT ( 'automotive_design' ) ;
#253 = DIRECTION ( 'NONE',  ( -0.4226182617406998299, 0.000000000000000000, 0.9063077870366498257 ) ) ;
#254 = VECTOR ( 'NONE', #124, 1000.000000000000000 ) ;
#255 = ORIENTED_EDGE ( 'NONE', *, *, #4, .F. ) ;
#256 = EDGE_CURVE ( 'NONE', #58, #120, #54, .T. ) ;
#257 = VERTEX_POINT ( 'NONE', #6 ) ;
#258 = VERTEX_POINT ( 'NONE', #55 ) ;
#259 = CARTESIAN_POINT ( 'NONE',  ( 0.000000000000000000, 0.000000000000000000, 0.000000000000000000 ) ) ;
#260 = ORIENTED_EDGE ( 'NONE', *, *, #38, .F. ) ;
#261 = EDGE_LOOP ( 'NONE', ( #119, #218 ) ) ;
#262 = PLANE ( 'NONE',  #13 ) ;
#263 = CIRCLE ( 'NONE', #197, 97.50000000000000000 ) ;
#264 = DIRECTION ( 'NONE',  ( 0.000000000000000000, 0.000000000000000000, 1.000000000000000000 ) ) ;
#265 = CARTESIAN_POINT ( 'NONE',  ( -97.50000000000000000, 3.000000000000000000, 0.000000000000000000 ) ) ;
ENDSEC;
END-ISO-10303-21;
