ISO-10303-21;
HEADER;
FILE_DESCRIPTION (( 'STEP AP214' ),
    '1' );
FILE_NAME ('ARP-0087.STEP',
    '2026-09-03T10:30:59',
    ( '' ),
    ( '' ),
    'SwSTEP 2.0',
    'SolidWorks 2024',
    '' );
FILE_SCHEMA (( 'AUTOMOTIVE_DESIGN' ));
ENDSEC;

DATA;
#1 = DIRECTION ( 'NONE',  ( 0.000000000000000000, 1.000000000000000000, 0.000000000000000000 ) ) ;
#2 =( NAMED_UNIT ( * ) PLANE_ANGLE_UNIT ( ) SI_UNIT ( $, .RADIAN. ) );
#3 = CIRCLE ( 'NONE', #161, 106.0000000000000000 ) ;
#4 = CARTESIAN_POINT ( 'NONE',  ( -70.70663706552005578, 0.000000000000000000, -84.26488874308697063 ) ) ;
#5 = EDGE_CURVE ( 'NONE', #13, #90, #199, .T. ) ;
#6 = DIRECTION ( 'NONE',  ( -0.7660444431189790127, -0.000000000000000000, -0.6427876096865382527 ) ) ;
#7 = CYLINDRICAL_SURFACE ( 'NONE', #271, 106.0000000000000000 ) ;
#8 = LINE ( 'NONE', #359, #334 ) ;
#9 = FACE_OUTER_BOUND ( 'NONE', #253, .T. ) ;
#10 =( GEOMETRIC_REPRESENTATION_CONTEXT ( 3 ) GLOBAL_UNCERTAINTY_ASSIGNED_CONTEXT ( ( #185 ) ) GLOBAL_UNIT_ASSIGNED_CONTEXT ( ( #367, #2, #434 ) ) REPRESENTATION_CONTEXT ( 'NONE', 'WORKASPACE' ) );
#11 = EDGE_CURVE ( 'NONE', #375, #13, #319, .T. ) ;
#12 = DIRECTION ( 'NONE',  ( -0.7660444431189790127, 0.000000000000000000, -0.6427876096865381417 ) ) ;
#13 = VERTEX_POINT ( 'NONE', #135 ) ;
#14 = DIRECTION ( 'NONE',  ( -1.000000000000000000, 0.000000000000000000, 1.981046292738365359E-16 ) ) ;
#15 = ORIENTED_EDGE ( 'NONE', *, *, #306, .T. ) ;
#16 = LINE ( 'NONE', #151, #322 ) ;
#17 = DIRECTION ( 'NONE',  ( -0.000000000000000000, -1.000000000000000000, -0.000000000000000000 ) ) ;
#18 = ORIENTED_EDGE ( 'NONE', *, *, #428, .T. ) ;
#19 = DIRECTION ( 'NONE',  ( 0.000000000000000000, -1.000000000000000000, 0.000000000000000000 ) ) ;
#20 = ORIENTED_EDGE ( 'NONE', *, *, #465, .F. ) ;
#21 = DIRECTION ( 'NONE',  ( -1.000000000000000000, 0.000000000000000000, 1.981046292738365359E-16 ) ) ;
#22 = ORIENTED_EDGE ( 'NONE', *, *, #192, .T. ) ;
#23 = DIRECTION ( 'NONE',  ( -0.000000000000000000, -1.000000000000000000, -0.000000000000000000 ) ) ;
#24 = ORIENTED_EDGE ( 'NONE', *, *, #120, .F. ) ;
#25 = EDGE_CURVE ( 'NONE', #172, #238, #65, .T. ) ;
#26 = VECTOR ( 'NONE', #387, 1000.000000000000000 ) ;
#27 = CARTESIAN_POINT ( 'NONE',  ( -4.000000000000000000, 44.00000000000000000, -41.99999999999999289 ) ) ;
#28 = VERTEX_POINT ( 'NONE', #468 ) ;
#29 = ORIENTED_EDGE ( 'NONE', *, *, #366, .F. ) ;
#30 = EDGE_CURVE ( 'NONE', #235, #67, #285, .T. ) ;
#31 = ORIENTED_EDGE ( 'NONE', *, *, #11, .T. ) ;
#32 = AXIS2_PLACEMENT_3D ( 'NONE', #121, #373, #154 ) ;
#33 = ORIENTED_EDGE ( 'NONE', *, *, #173, .T. ) ;
#34 = CARTESIAN_POINT ( 'NONE',  ( 0.000000000000000000, 0.000000000000000000, 0.000000000000000000 ) ) ;
#35 = DIRECTION ( 'NONE',  ( -0.000000000000000000, 1.000000000000000000, -0.000000000000000000 ) ) ;
#36 = FACE_OUTER_BOUND ( 'NONE', #427, .T. ) ;
#37 = ADVANCED_FACE ( 'NONE', ( #321 ), #288, .T. ) ;
#38 = MECHANICAL_DESIGN_GEOMETRIC_PRESENTATION_REPRESENTATION (  '', ( #430 ), #10 ) ;
#39 = VECTOR ( 'NONE', #438, 1000.000000000000000 ) ;
#40 = CARTESIAN_POINT ( 'NONE',  ( -7.924185170953477213E-16, 3.000000000000000000, -4.000000000000007994 ) ) ;
#41 = FILL_AREA_STYLE ('',( #443 ) ) ;
#42 = PLANE ( 'NONE',  #445 ) ;
#43 = DIRECTION ( 'NONE',  ( 0.000000000000000000, 0.000000000000000000, -1.000000000000000000 ) ) ;
#44 = ORIENTED_EDGE ( 'NONE', *, *, #108, .T. ) ;
#45 = AXIS2_PLACEMENT_3D ( 'NONE', #127, #318, #315 ) ;
#46 = DIRECTION ( 'NONE',  ( -0.7660444431189723513, 0.000000000000000000, 0.6427876096865460243 ) ) ;
#47 =( NAMED_UNIT ( * ) PLANE_ANGLE_UNIT ( ) SI_UNIT ( $, .RADIAN. ) );
#48 = EDGE_LOOP ( 'NONE', ( #51, #20, #64, #101 ) ) ;
#49 = DIRECTION ( 'NONE',  ( 0.000000000000000000, 0.000000000000000000, -1.000000000000000000 ) ) ;
#50 =( LENGTH_UNIT ( ) NAMED_UNIT ( * ) SI_UNIT ( .MILLI., .METRE. ) );
#51 = ORIENTED_EDGE ( 'NONE', *, *, #76, .F. ) ;
#52 = EDGE_CURVE ( 'NONE', #103, #212, #461, .T. ) ;
#53 = DIRECTION ( 'NONE',  ( -1.000000000000000000, 0.000000000000000000, 0.000000000000000000 ) ) ;
#54 = CYLINDRICAL_SURFACE ( 'NONE', #344, 41.99999999999999289 ) ;
#55 = ORIENTED_EDGE ( 'NONE', *, *, #366, .T. ) ;
#56 = AXIS2_PLACEMENT_3D ( 'NONE', #295, #440, #224 ) ;
#57 = DIRECTION ( 'NONE',  ( 0.000000000000000000, -1.000000000000000000, 0.000000000000000000 ) ) ;
#58 = DIRECTION ( 'NONE',  ( 1.000000000000000000, 0.000000000000000000, 0.000000000000000000 ) ) ;
#59 = EDGE_LOOP ( 'NONE', ( #320, #371, #256, #379 ) ) ;
#60 = CARTESIAN_POINT ( 'NONE',  ( -110.0000000000000000, 44.00000000000000000, -2.020667218593132784E-14 ) ) ;
#61 = EDGE_CURVE ( 'NONE', #346, #417, #3, .T. ) ;
#62 = VERTEX_POINT ( 'NONE', #218 ) ;
#63 = FACE_OUTER_BOUND ( 'NONE', #122, .T. ) ;
#64 = ORIENTED_EDGE ( 'NONE', *, *, #173, .F. ) ;
#65 = CIRCLE ( 'NONE', #299, 110.0000000000000000 ) ;
#66 = AXIS2_PLACEMENT_3D ( 'NONE', #140, #400, #362 ) ;
#67 = VERTEX_POINT ( 'NONE', #258 ) ;
#68 = EDGE_CURVE ( 'NONE', #84, #191, #316, .T. ) ;
#69 = ORIENTED_EDGE ( 'NONE', *, *, #192, .F. ) ;
#70 = DIRECTION ( 'NONE',  ( 0.000000000000000000, 0.000000000000000000, -1.000000000000000000 ) ) ;
#71 = AXIS2_PLACEMENT_3D ( 'NONE', #27, #424, #466 ) ;
#72 = MANIFOLD_SOLID_BREP ( 'Estrusione-Estrusione2', #150 ) ;
#73 = LINE ( 'NONE', #330, #279 ) ;
#74 = DIRECTION ( 'NONE',  ( 0.000000000000000000, -0.000000000000000000, 1.000000000000000000 ) ) ;
#75 = DIRECTION ( 'NONE',  ( -0.7660444431189790127, -0.000000000000000000, -0.6427876096865382527 ) ) ;
#76 = EDGE_CURVE ( 'NONE', #28, #172, #73, .T. ) ;
#77 = FACE_OUTER_BOUND ( 'NONE', #353, .T. ) ;
#78 = CARTESIAN_POINT ( 'NONE',  ( -41.99999999999999289, 0.000000000000000000, 0.000000000000000000 ) ) ;
#79 = VECTOR ( 'NONE', #325, 1000.000000000000000 ) ;
#80 = VECTOR ( 'NONE', #444, 1000.000000000000000 ) ;
#81 = ORIENTED_EDGE ( 'NONE', *, *, #179, .F. ) ;
#82 = CYLINDRICAL_SURFACE ( 'NONE', #56, 110.0000000000000000 ) ;
#83 = CARTESIAN_POINT ( 'NONE',  ( -70.70663706552005578, -6.000000000000000000, -84.26488874308697063 ) ) ;
#84 = VERTEX_POINT ( 'NONE', #435 ) ;
#85 = DIRECTION ( 'NONE',  ( 0.000000000000000000, 0.000000000000000000, 1.000000000000000000 ) ) ;
#86 = ORIENTED_EDGE ( 'NONE', *, *, #245, .F. ) ;
#87 = VECTOR ( 'NONE', #302, 1000.000000000000000 ) ;
#88 = PLANE ( 'NONE',  #358 ) ;
#89 = DIRECTION ( 'NONE',  ( 1.000000000000000000, 0.000000000000000000, 0.000000000000000000 ) ) ;
#90 = VERTEX_POINT ( 'NONE', #145 ) ;
#91 = EDGE_CURVE ( 'NONE', #233, #194, #407, .T. ) ;
#92 = CARTESIAN_POINT ( 'NONE',  ( -110.0000000000000000, 0.000000000000000000, -2.020667218593132784E-14 ) ) ;
#93 = ORIENTED_EDGE ( 'NONE', *, *, #52, .T. ) ;
#94 = FACE_OUTER_BOUND ( 'NONE', #162, .T. ) ;
#95 = ORIENTED_EDGE ( 'NONE', *, *, #146, .T. ) ;
#96 = AXIS2_PLACEMENT_3D ( 'NONE', #276, #53, #85 ) ;
#97 = CARTESIAN_POINT ( 'NONE',  ( -110.0000000000000000, 3.000000000000000000, -2.020667218593132784E-14 ) ) ;
#98 = ORIENTED_EDGE ( 'NONE', *, *, #183, .T. ) ;
#99 = CARTESIAN_POINT ( 'NONE',  ( -70.70663706552005578, -6.000000000000000000, -84.26488874308697063 ) ) ;
#100 = ORIENTED_EDGE ( 'NONE', *, *, #455, .F. ) ;
#101 = ORIENTED_EDGE ( 'NONE', *, *, #25, .F. ) ;
#102 = VECTOR ( 'NONE', #467, 1000.000000000000000 ) ;
#103 = VERTEX_POINT ( 'NONE', #109 ) ;
#104 = EDGE_CURVE ( 'NONE', #310, #126, #323, .T. ) ;
#105 = DIRECTION ( 'NONE',  ( -0.000000000000000000, -1.000000000000000000, -0.000000000000000000 ) ) ;
#106 = PRODUCT_DEFINITION_CONTEXT ( 'detailed design', #225, 'design' ) ;
#107 = AXIS2_PLACEMENT_3D ( 'NONE', #273, #335, #227 ) ;
#108 = EDGE_CURVE ( 'NONE', #212, #172, #361, .T. ) ;
#109 = CARTESIAN_POINT ( 'NONE',  ( -32.17386661099711631, -6.000000000000000000, -26.99707960683458907 ) ) ;
#110 = PLANE ( 'NONE',  #137 ) ;
#111 = DIRECTION ( 'NONE',  ( -0.000000000000000000, -1.000000000000000000, -0.000000000000000000 ) ) ;
#112 = CARTESIAN_POINT ( 'NONE',  ( -4.000000000000000000, 3.000000000000002665, -105.9245014149228723 ) ) ;
#113 = SURFACE_SIDE_STYLE ('',( #290 ) ) ;
#114 = DIRECTION ( 'NONE',  ( 0.000000000000000000, -0.000000000000000000, -1.000000000000000000 ) ) ;
#115 = CARTESIAN_POINT ( 'NONE',  ( 0.000000000000000000, 0.000000000000000000, 0.000000000000000000 ) ) ;
#116 = PLANE ( 'NONE',  #263 ) ;
#117 = EDGE_LOOP ( 'NONE', ( #119, #274, #356, #93 ) ) ;
#118 = CARTESIAN_POINT ( 'NONE',  ( 0.000000000000000000, 0.000000000000000000, -41.99999999999999289 ) ) ;
#119 = ORIENTED_EDGE ( 'NONE', *, *, #339, .T. ) ;
#120 = EDGE_CURVE ( 'NONE', #67, #346, #260, .T. ) ;
#121 = CARTESIAN_POINT ( 'NONE',  ( 0.000000000000000000, 3.000000000000002665, 0.000000000000000000 ) ) ;
#122 = EDGE_LOOP ( 'NONE', ( #413, #228, #338, #24 ) ) ;
#123 = LINE ( 'NONE', #83, #176 ) ;
#124 = ORIENTED_EDGE ( 'NONE', *, *, #261, .T. ) ;
#125 = CARTESIAN_POINT ( 'NONE',  ( 0.000000000000000000, 0.000000000000000000, -110.0000000000000000 ) ) ;
#126 = VERTEX_POINT ( 'NONE', #147 ) ;
#127 = CARTESIAN_POINT ( 'NONE',  ( 0.000000000000000000, 44.00000000000000000, 0.000000000000000000 ) ) ;
#128 = DIRECTION ( 'NONE',  ( -0.000000000000000000, -1.000000000000000000, -0.000000000000000000 ) ) ;
#129 = PLANE ( 'NONE',  #71 ) ;
#130 = ORIENTED_EDGE ( 'NONE', *, *, #134, .T. ) ;
#131 = DIRECTION ( 'NONE',  ( 0.000000000000000000, 1.000000000000000000, 0.000000000000000000 ) ) ;
#132 = CARTESIAN_POINT ( 'NONE',  ( 0.000000000000000000, 0.000000000000000000, 0.000000000000000000 ) ) ;
#133 = APPLICATION_CONTEXT ( 'automotive_design' ) ;
#134 = EDGE_CURVE ( 'NONE', #233, #375, #382, .T. ) ;
#135 = CARTESIAN_POINT ( 'NONE',  ( -41.99999999999999289, 44.00000000000000000, 0.000000000000000000 ) ) ;
#136 = VECTOR ( 'NONE', #49, 1000.000000000000000 ) ;
#137 = AXIS2_PLACEMENT_3D ( 'NONE', #115, #324, #74 ) ;
#138 = ORIENTED_EDGE ( 'NONE', *, *, #245, .T. ) ;
#139 = DIRECTION ( 'NONE',  ( -0.000000000000000000, 1.000000000000000000, -0.000000000000000000 ) ) ;
#140 = CARTESIAN_POINT ( 'NONE',  ( 0.000000000000000000, -6.000000000000000000, 0.000000000000000000 ) ) ;
#141 = ADVANCED_FACE ( 'NONE', ( #471 ), #82, .T. ) ;
#142 = DIRECTION ( 'NONE',  ( -0.000000000000000000, -1.000000000000000000, -0.000000000000000000 ) ) ;
#143 = LINE ( 'NONE', #4, #401 ) ;
#144 = CIRCLE ( 'NONE', #66, 41.99999999999999289 ) ;
#145 = CARTESIAN_POINT ( 'NONE',  ( 0.000000000000000000, 44.00000000000000000, -41.99999999999999289 ) ) ;
#146 = EDGE_CURVE ( 'NONE', #153, #346, #262, .T. ) ;
#147 = CARTESIAN_POINT ( 'NONE',  ( -4.000000000000000000, 3.000000000000000000, -45.82575694955839651 ) ) ;
#148 = LINE ( 'NONE', #182, #222 ) ;
#149 = CARTESIAN_POINT ( 'NONE',  ( -70.70663706552007000, 0.000000000000000000, -84.26488874308698485 ) ) ;
#150 = CLOSED_SHELL ( 'NONE', ( #298, #420, #447, #281, #141, #314, #220, #37, #326, #383, #211, #331, #293, #208, #441 ) ) ;
#151 = CARTESIAN_POINT ( 'NONE',  ( -4.000000000000000000, 44.00000000000000000, -105.9245014149228723 ) ) ;
#152 =( GEOMETRIC_REPRESENTATION_CONTEXT ( 3 ) GLOBAL_UNCERTAINTY_ASSIGNED_CONTEXT ( ( #248 ) ) GLOBAL_UNIT_ASSIGNED_CONTEXT ( ( #50, #47, #155 ) ) REPRESENTATION_CONTEXT ( 'NONE', 'WORKASPACE' ) );
#153 = VERTEX_POINT ( 'NONE', #254 ) ;
#154 = DIRECTION ( 'NONE',  ( 0.000000000000000000, 0.000000000000000000, 1.000000000000000000 ) ) ;
#155 =( NAMED_UNIT ( * ) SI_UNIT ( $, .STERADIAN. ) SOLID_ANGLE_UNIT ( ) );
#156 = ORIENTED_EDGE ( 'NONE', *, *, #11, .F. ) ;
#157 = EDGE_CURVE ( 'NONE', #342, #84, #8, .T. ) ;
#158 = DIRECTION ( 'NONE',  ( 0.000000000000000000, 0.000000000000000000, -1.000000000000000000 ) ) ;
#159 = ORIENTED_EDGE ( 'NONE', *, *, #376, .F. ) ;
#160 = DIRECTION ( 'NONE',  ( -0.000000000000000000, -1.000000000000000000, -0.000000000000000000 ) ) ;
#161 = AXIS2_PLACEMENT_3D ( 'NONE', #363, #142, #296 ) ;
#162 = EDGE_LOOP ( 'NONE', ( #200, #175, #277, #419 ) ) ;
#163 = AXIS2_PLACEMENT_3D ( 'NONE', #460, #388, #58 ) ;
#164 = CARTESIAN_POINT ( 'NONE',  ( -4.000000000000000000, 44.00000000000000000, -41.99999999999999289 ) ) ;
#165 = ORIENTED_EDGE ( 'NONE', *, *, #157, .T. ) ;
#166 = CARTESIAN_POINT ( 'NONE',  ( 0.000000000000000000, 3.000000000000000000, 0.000000000000000000 ) ) ;
#167 = VERTEX_POINT ( 'NONE', #149 ) ;
#168 = CARTESIAN_POINT ( 'NONE',  ( 0.000000000000000000, 3.000000000000000000, -41.99999999999999289 ) ) ;
#169 = ORIENTED_EDGE ( 'NONE', *, *, #394, .F. ) ;
#170 = VECTOR ( 'NONE', #463, 1000.000000000000000 ) ;
#171 = PLANE ( 'NONE',  #213 ) ;
#172 = VERTEX_POINT ( 'NONE', #398 ) ;
#173 = EDGE_CURVE ( 'NONE', #238, #429, #214, .T. ) ;
#174 = ORIENTED_EDGE ( 'NONE', *, *, #30, .T. ) ;
#175 = ORIENTED_EDGE ( 'NONE', *, *, #157, .F. ) ;
#176 = VECTOR ( 'NONE', #418, 1000.000000000000000 ) ;
#177 = CIRCLE ( 'NONE', #415, 46.00000000000000000 ) ;
#178 = DIRECTION ( 'NONE',  ( 0.000000000000000000, 0.000000000000000000, 1.000000000000000000 ) ) ;
#179 = EDGE_CURVE ( 'NONE', #310, #62, #198, .T. ) ;
#180 = DIRECTION ( 'NONE',  ( -0.000000000000000000, -1.000000000000000000, -0.000000000000000000 ) ) ;
#181 = PRODUCT_DEFINITION_FORMATION_WITH_SPECIFIED_SOURCE ( 'TUTTO', '', #473, .NOT_KNOWN. ) ;
#182 = CARTESIAN_POINT ( 'NONE',  ( -4.000000000000000000, 3.000000000000000000, 0.000000000000000000 ) ) ;
#183 = EDGE_CURVE ( 'NONE', #194, #167, #249, .T. ) ;
#184 = DIRECTION ( 'NONE',  ( -0.000000000000000000, -1.000000000000000000, -0.000000000000000000 ) ) ;
#185 = UNCERTAINTY_MEASURE_WITH_UNIT (LENGTH_MEASURE( 1.000000000000000082E-05 ), #367, 'distance_accuracy_value', 'NONE');
#186 = LINE ( 'NONE', #168, #170 ) ;
#187 = ORIENTED_EDGE ( 'NONE', *, *, #61, .T. ) ;
#188 = VECTOR ( 'NONE', #300, 1000.000000000000000 ) ;
#189 = CARTESIAN_POINT ( 'NONE',  ( 0.000000000000000000, 44.00000000000000000, -41.99999999999999289 ) ) ;
#190 = DIRECTION ( 'NONE',  ( -0.000000000000000000, -1.000000000000000000, -0.000000000000000000 ) ) ;
#191 = VERTEX_POINT ( 'NONE', #118 ) ;
#192 = EDGE_CURVE ( 'NONE', #90, #233, #345, .T. ) ;
#193 = DIRECTION ( 'NONE',  ( 0.6427876096865460243, 0.000000000000000000, 0.7660444431189723513 ) ) ;
#194 = VERTEX_POINT ( 'NONE', #125 ) ;
#195 = FACE_BOUND ( 'NONE', #269, .T. ) ;
#196 = CARTESIAN_POINT ( 'NONE',  ( 0.000000000000000000, 0.000000000000000000, 0.000000000000000000 ) ) ;
#197 = ORIENTED_EDGE ( 'NONE', *, *, #397, .F. ) ;
#198 = LINE ( 'NONE', #164, #136 ) ;
#199 = CIRCLE ( 'NONE', #414, 41.99999999999999289 ) ;
#200 = ORIENTED_EDGE ( 'NONE', *, *, #397, .T. ) ;
#201 = CARTESIAN_POINT ( 'NONE',  ( -110.0000000000000000, 3.000000000000000000, 1.347111479062088523E-14 ) ) ;
#202 = SHAPE_DEFINITION_REPRESENTATION ( #340, #452 ) ;
#203 = ORIENTED_EDGE ( 'NONE', *, *, #275, .F. ) ;
#204 = LINE ( 'NONE', #349, #292 ) ;
#205 = ORIENTED_EDGE ( 'NONE', *, *, #134, .F. ) ;
#206 = PLANE ( 'NONE',  #436 ) ;
#207 = ORIENTED_EDGE ( 'NONE', *, *, #68, .T. ) ;
#208 = ADVANCED_FACE ( 'NONE', ( #370 ), #416, .F. ) ;
#209 = EDGE_LOOP ( 'NONE', ( #243, #354, #169, #165, #207, #241, #348, #456 ) ) ;
#210 = EDGE_LOOP ( 'NONE', ( #464, #22, #130, #31 ) ) ;
#211 = ADVANCED_FACE ( 'NONE', ( #9 ), #42, .T. ) ;
#212 = VERTEX_POINT ( 'NONE', #446 ) ;
#213 = AXIS2_PLACEMENT_3D ( 'NONE', #201, #244, #21 ) ;
#214 = LINE ( 'NONE', #270, #188 ) ;
#215 = LINE ( 'NONE', #360, #365 ) ;
#216 = CARTESIAN_POINT ( 'NONE',  ( -4.000000000000000000, 44.00000000000000000, -45.82575694955839651 ) ) ;
#217 = DIRECTION ( 'NONE',  ( 0.000000000000000000, 0.000000000000000000, -1.000000000000000000 ) ) ;
#218 = CARTESIAN_POINT ( 'NONE',  ( -4.000000000000000000, 44.00000000000000000, -105.9245014149228723 ) ) ;
#219 = DIRECTION ( 'NONE',  ( 0.000000000000000000, -0.000000000000000000, 1.000000000000000000 ) ) ;
#220 = ADVANCED_FACE ( 'NONE', ( #234, #195 ), #116, .F. ) ;
#221 = AXIS2_PLACEMENT_3D ( 'NONE', #34, #180, #404 ) ;
#222 = VECTOR ( 'NONE', #219, 1000.000000000000000 ) ;
#223 = CARTESIAN_POINT ( 'NONE',  ( -105.9245014149228723, 44.00000000000000000, -3.999999999999987121 ) ) ;
#224 = DIRECTION ( 'NONE',  ( 0.000000000000000000, 0.000000000000000000, -1.000000000000000000 ) ) ;
#225 = APPLICATION_CONTEXT ( 'automotive_design' ) ;
#226 = EDGE_CURVE ( 'NONE', #62, #417, #16, .T. ) ;
#227 = DIRECTION ( 'NONE',  ( 0.000000000000000000, 0.000000000000000000, 1.000000000000000000 ) ) ;
#228 = ORIENTED_EDGE ( 'NONE', *, *, #433, .F. ) ;
#229 = AXIS2_PLACEMENT_3D ( 'NONE', #347, #57, #311 ) ;
#230 = CARTESIAN_POINT ( 'NONE',  ( -70.70663706552005578, -6.000000000000000000, -84.26488874308697063 ) ) ;
#231 = AXIS2_PLACEMENT_3D ( 'NONE', #437, #408, #114 ) ;
#232 = DIRECTION ( 'NONE',  ( -0.000000000000000000, -1.000000000000000000, -0.000000000000000000 ) ) ;
#233 = VERTEX_POINT ( 'NONE', #265 ) ;
#234 = FACE_OUTER_BOUND ( 'NONE', #210, .T. ) ;
#235 = VERTEX_POINT ( 'NONE', #267 ) ;
#236 = EDGE_CURVE ( 'NONE', #313, #167, #123, .T. ) ;
#237 = LINE ( 'NONE', #332, #240 ) ;
#238 = VERTEX_POINT ( 'NONE', #92 ) ;
#239 = CARTESIAN_POINT ( 'NONE',  ( 0.000000000000000000, 0.000000000000000000, 0.000000000000000000 ) ) ;
#240 = VECTOR ( 'NONE', #158, 1000.000000000000000 ) ;
#241 = ORIENTED_EDGE ( 'NONE', *, *, #306, .F. ) ;
#242 = CARTESIAN_POINT ( 'NONE',  ( -105.9245014149228723, 3.000000000000002665, -3.999999999999987121 ) ) ;
#243 = ORIENTED_EDGE ( 'NONE', *, *, #465, .T. ) ;
#244 = DIRECTION ( 'NONE',  ( -1.981046292738365359E-16, 0.000000000000000000, -1.000000000000000000 ) ) ;
#245 = EDGE_CURVE ( 'NONE', #191, #194, #237, .T. ) ;
#246 = DIRECTION ( 'NONE',  ( 0.000000000000000000, -1.000000000000000000, -0.000000000000000000 ) ) ;
#247 = DIRECTION ( 'NONE',  ( 0.000000000000000000, 1.000000000000000000, 0.000000000000000000 ) ) ;
#248 = UNCERTAINTY_MEASURE_WITH_UNIT (LENGTH_MEASURE( 1.000000000000000082E-05 ), #50, 'distance_accuracy_value', 'NONE');
#249 = CIRCLE ( 'NONE', #107, 110.0000000000000000 ) ;
#250 = VECTOR ( 'NONE', #111, 1000.000000000000000 ) ;
#251 = ORIENTED_EDGE ( 'NONE', *, *, #355, .T. ) ;
#252 = PRODUCT_DEFINITION ( 'NON CONOSCIUTO', '', #181, #106 ) ;
#253 = EDGE_LOOP ( 'NONE', ( #174, #336, #283, #449 ) ) ;
#254 = CARTESIAN_POINT ( 'NONE',  ( -105.9245014149228723, 44.00000000000000000, -3.999999999999987121 ) ) ;
#255 = DIRECTION ( 'NONE',  ( -0.000000000000000000, -1.000000000000000000, -0.000000000000000000 ) ) ;
#256 = ORIENTED_EDGE ( 'NONE', *, *, #104, .F. ) ;
#257 = CIRCLE ( 'NONE', #45, 106.0000000000000000 ) ;
#258 = CARTESIAN_POINT ( 'NONE',  ( -45.82575694955839651, 3.000000000000000000, -3.999999999999999112 ) ) ;
#259 = PLANE ( 'NONE',  #231 ) ;
#260 = LINE ( 'NONE', #40, #79 ) ;
#261 = EDGE_CURVE ( 'NONE', #126, #67, #399, .T. ) ;
#262 = LINE ( 'NONE', #223, #453 ) ;
#263 = AXIS2_PLACEMENT_3D ( 'NONE', #409, #19, #341 ) ;
#264 = CARTESIAN_POINT ( 'NONE',  ( 0.000000000000000000, 44.00000000000000000, 0.000000000000000000 ) ) ;
#265 = CARTESIAN_POINT ( 'NONE',  ( 0.000000000000000000, 44.00000000000000000, -110.0000000000000000 ) ) ;
#266 = ORIENTED_EDGE ( 'NONE', *, *, #183, .F. ) ;
#267 = CARTESIAN_POINT ( 'NONE',  ( -45.82575694955839651, 44.00000000000000000, -3.999999999999999112 ) ) ;
#268 = APPLICATION_PROTOCOL_DEFINITION ( 'draft international standard', 'automotive_design', 1998, #133 ) ;
#269 = EDGE_LOOP ( 'NONE', ( #100, #203, #470, #81 ) ) ;
#270 = CARTESIAN_POINT ( 'NONE',  ( -110.0000000000000000, 0.000000000000000000, 1.347111479062088523E-14 ) ) ;
#271 = AXIS2_PLACEMENT_3D ( 'NONE', #472, #255, #217 ) ;
#272 = EDGE_LOOP ( 'NONE', ( #301, #451, #381, #18 ) ) ;
#273 = CARTESIAN_POINT ( 'NONE',  ( 0.000000000000000000, 0.000000000000000000, 0.000000000000000000 ) ) ;
#274 = ORIENTED_EDGE ( 'NONE', *, *, #411, .T. ) ;
#275 = EDGE_CURVE ( 'NONE', #153, #235, #380, .T. ) ;
#276 = CARTESIAN_POINT ( 'NONE',  ( 0.000000000000000000, 3.000000000000000000, -41.99999999999999289 ) ) ;
#277 = ORIENTED_EDGE ( 'NONE', *, *, #411, .F. ) ;
#278 = FACE_OUTER_BOUND ( 'NONE', #357, .T. ) ;
#279 = VECTOR ( 'NONE', #75, 1000.000000000000114 ) ;
#280 = CARTESIAN_POINT ( 'NONE',  ( -84.26488874308769539, -6.000000000000000000, -70.70663706551918892 ) ) ;
#281 = ADVANCED_FACE ( 'NONE', ( #412 ), #304, .F. ) ;
#282 = LINE ( 'NONE', #97, #26 ) ;
#283 = ORIENTED_EDGE ( 'NONE', *, *, #146, .F. ) ;
#284 = ORIENTED_EDGE ( 'NONE', *, *, #236, .F. ) ;
#285 = LINE ( 'NONE', #395, #372 ) ;
#286 = VECTOR ( 'NONE', #35, 1000.000000000000000 ) ;
#287 = PRODUCT_RELATED_PRODUCT_CATEGORY ( 'part', '', ( #473 ) ) ;
#288 = CYLINDRICAL_SURFACE ( 'NONE', #364, 46.00000000000000000 ) ;
#289 = DIRECTION ( 'NONE',  ( 0.000000000000000000, 0.000000000000000000, 1.000000000000000000 ) ) ;
#290 = SURFACE_STYLE_FILL_AREA ( #41 ) ;
#291 = LINE ( 'NONE', #439, #80 ) ;
#292 = VECTOR ( 'NONE', #23, 1000.000000000000000 ) ;
#293 = ADVANCED_FACE ( 'NONE', ( #94 ), #88, .F. ) ;
#294 = CARTESIAN_POINT ( 'NONE',  ( 0.000000000000000000, 3.000000000000000000, -110.0000000000000000 ) ) ;
#295 = CARTESIAN_POINT ( 'NONE',  ( 0.000000000000000000, 3.000000000000000000, 0.000000000000000000 ) ) ;
#296 = DIRECTION ( 'NONE',  ( 0.000000000000000000, 0.000000000000000000, 1.000000000000000000 ) ) ;
#297 = DIRECTION ( 'NONE',  ( 0.6427876096865460243, 0.000000000000000000, 0.7660444431189723513 ) ) ;
#298 = ADVANCED_FACE ( 'NONE', ( #421 ), #337, .F. ) ;
#299 = AXIS2_PLACEMENT_3D ( 'NONE', #132, #247, #178 ) ;
#300 = DIRECTION ( 'NONE',  ( 1.000000000000000000, 0.000000000000000000, -1.981046292738365359E-16 ) ) ;
#301 = ORIENTED_EDGE ( 'NONE', *, *, #76, .T. ) ;
#302 = DIRECTION ( 'NONE',  ( 1.000000000000000000, 0.000000000000000000, -1.981046292738365359E-16 ) ) ;
#303 = ORIENTED_EDGE ( 'NONE', *, *, #30, .F. ) ;
#304 = PLANE ( 'NONE',  #96 ) ;
#305 = EDGE_LOOP ( 'NONE', ( #98, #284, #431, #44, #393, #29, #205, #396 ) ) ;
#306 = EDGE_CURVE ( 'NONE', #90, #191, #186, .T. ) ;
#307 = DIRECTION ( 'NONE',  ( -1.981046292738365359E-16, 0.000000000000000000, -1.000000000000000000 ) ) ;
#308 = ORIENTED_EDGE ( 'NONE', *, *, #455, .T. ) ;
#309 = DIRECTION ( 'NONE',  ( 0.6427876096865381417, 0.000000000000000000, -0.7660444431189790127 ) ) ;
#310 = VERTEX_POINT ( 'NONE', #459 ) ;
#311 = DIRECTION ( 'NONE',  ( 0.000000000000000000, 0.000000000000000000, -1.000000000000000000 ) ) ;
#312 = PRODUCT_CONTEXT ( 'NONE', #133, 'mechanical' ) ;
#313 = VERTEX_POINT ( 'NONE', #99 ) ;
#314 = ADVANCED_FACE ( 'NONE', ( #278 ), #171, .F. ) ;
#315 = DIRECTION ( 'NONE',  ( 1.000000000000000000, 0.000000000000000000, 0.000000000000000000 ) ) ;
#316 = CIRCLE ( 'NONE', #221, 41.99999999999999289 ) ;
#317 = ORIENTED_EDGE ( 'NONE', *, *, #91, .F. ) ;
#318 = DIRECTION ( 'NONE',  ( 0.000000000000000000, 1.000000000000000000, 0.000000000000000000 ) ) ;
#319 = LINE ( 'NONE', #391, #102 ) ;
#320 = ORIENTED_EDGE ( 'NONE', *, *, #226, .T. ) ;
#321 = FACE_OUTER_BOUND ( 'NONE', #422, .T. ) ;
#322 = VECTOR ( 'NONE', #160, 1000.000000000000000 ) ;
#323 = LINE ( 'NONE', #216, #250 ) ;
#324 = DIRECTION ( 'NONE',  ( 0.000000000000000000, 1.000000000000000000, 0.000000000000000000 ) ) ;
#325 = DIRECTION ( 'NONE',  ( -1.000000000000000000, 0.000000000000000000, 1.981046292738365359E-16 ) ) ;
#326 = ADVANCED_FACE ( 'NONE', ( #390 ), #129, .T. ) ;
#327 = PRESENTATION_STYLE_ASSIGNMENT (( #368 ) ) ;
#328 = COLOUR_RGB ( '',0.7921568627450980005, 0.8196078431372548767, 0.9333333333333333481 ) ;
#329 = AXIS2_PLACEMENT_3D ( 'NONE', #196, #190, #378 ) ;
#330 = CARTESIAN_POINT ( 'NONE',  ( -84.26488874308769539, 0.000000000000000000, -70.70663706551918892 ) ) ;
#331 = ADVANCED_FACE ( 'NONE', ( #63 ), #206, .T. ) ;
#332 = CARTESIAN_POINT ( 'NONE',  ( 0.000000000000000000, 0.000000000000000000, -41.99999999999999289 ) ) ;
#333 = FACE_OUTER_BOUND ( 'NONE', #209, .T. ) ;
#334 = VECTOR ( 'NONE', #139, 1000.000000000000000 ) ;
#335 = DIRECTION ( 'NONE',  ( 0.000000000000000000, 1.000000000000000000, 0.000000000000000000 ) ) ;
#336 = ORIENTED_EDGE ( 'NONE', *, *, #120, .T. ) ;
#337 = PLANE ( 'NONE',  #423 ) ;
#338 = ORIENTED_EDGE ( 'NONE', *, *, #61, .F. ) ;
#339 = EDGE_CURVE ( 'NONE', #212, #313, #462, .T. ) ;
#340 = PRODUCT_DEFINITION_SHAPE ( 'NONE', 'NONE',  #252 ) ;
#341 = DIRECTION ( 'NONE',  ( 0.000000000000000000, 0.000000000000000000, -1.000000000000000000 ) ) ;
#342 = VERTEX_POINT ( 'NONE', #426 ) ;
#343 = VECTOR ( 'NONE', #6, 1000.000000000000114 ) ;
#344 = AXIS2_PLACEMENT_3D ( 'NONE', #374, #232, #43 ) ;
#345 = LINE ( 'NONE', #189, #352 ) ;
#346 = VERTEX_POINT ( 'NONE', #242 ) ;
#347 = CARTESIAN_POINT ( 'NONE',  ( 0.000000000000000000, -6.000000000000000000, 0.000000000000000000 ) ) ;
#348 = ORIENTED_EDGE ( 'NONE', *, *, #5, .F. ) ;
#349 = CARTESIAN_POINT ( 'NONE',  ( -41.99999999999999289, 3.000000000000000000, 0.000000000000000000 ) ) ;
#350 = CARTESIAN_POINT ( 'NONE',  ( 0.000000000000000000, 44.00000000000000000, 0.000000000000000000 ) ) ;
#351 = DIRECTION ( 'NONE',  ( 0.000000000000000000, -0.000000000000000000, 1.000000000000000000 ) ) ;
#352 = VECTOR ( 'NONE', #448, 1000.000000000000000 ) ;
#353 = EDGE_LOOP ( 'NONE', ( #197, #266, #86, #410 ) ) ;
#354 = ORIENTED_EDGE ( 'NONE', *, *, #428, .F. ) ;
#355 = EDGE_CURVE ( 'NONE', #62, #153, #257, .T. ) ;
#356 = ORIENTED_EDGE ( 'NONE', *, *, #394, .T. ) ;
#357 = EDGE_LOOP ( 'NONE', ( #33, #159, #156, #55 ) ) ;
#358 = AXIS2_PLACEMENT_3D ( 'NONE', #230, #46, #193 ) ;
#359 = CARTESIAN_POINT ( 'NONE',  ( -26.99707960683491592, -6.000000000000000000, -32.17386661099685341 ) ) ;
#360 = CARTESIAN_POINT ( 'NONE',  ( -32.17386661099711631, -6.000000000000000000, -26.99707960683458907 ) ) ;
#361 = LINE ( 'NONE', #402, #286 ) ;
#362 = DIRECTION ( 'NONE',  ( 0.000000000000000000, 0.000000000000000000, -1.000000000000000000 ) ) ;
#363 = CARTESIAN_POINT ( 'NONE',  ( 0.000000000000000000, 3.000000000000002665, 0.000000000000000000 ) ) ;
#364 = AXIS2_PLACEMENT_3D ( 'NONE', #432, #105, #70 ) ;
#365 = VECTOR ( 'NONE', #403, 1000.000000000000000 ) ;
#366 = EDGE_CURVE ( 'NONE', #375, #238, #282, .T. ) ;
#367 =( LENGTH_UNIT ( ) NAMED_UNIT ( * ) SI_UNIT ( .MILLI., .METRE. ) );
#368 = SURFACE_STYLE_USAGE ( .BOTH. , #113 ) ;
#369 = CARTESIAN_POINT ( 'NONE',  ( 0.000000000000000000, 44.00000000000000000, 0.000000000000000000 ) ) ;
#370 = FACE_OUTER_BOUND ( 'NONE', #272, .T. ) ;
#371 = ORIENTED_EDGE ( 'NONE', *, *, #433, .T. ) ;
#372 = VECTOR ( 'NONE', #128, 1000.000000000000000 ) ;
#373 = DIRECTION ( 'NONE',  ( 0.000000000000000000, 1.000000000000000000, 0.000000000000000000 ) ) ;
#374 = CARTESIAN_POINT ( 'NONE',  ( 0.000000000000000000, 3.000000000000000000, 0.000000000000000000 ) ) ;
#375 = VERTEX_POINT ( 'NONE', #60 ) ;
#376 = EDGE_CURVE ( 'NONE', #13, #429, #204, .T. ) ;
#377 = CARTESIAN_POINT ( 'NONE',  ( -84.26488874308769539, -6.000000000000000000, -70.70663706551918892 ) ) ;
#378 = DIRECTION ( 'NONE',  ( 0.000000000000000000, 0.000000000000000000, 1.000000000000000000 ) ) ;
#379 = ORIENTED_EDGE ( 'NONE', *, *, #179, .T. ) ;
#380 = LINE ( 'NONE', #457, #87 ) ;
#381 = ORIENTED_EDGE ( 'NONE', *, *, #52, .F. ) ;
#382 = CIRCLE ( 'NONE', #392, 110.0000000000000000 ) ;
#383 = ADVANCED_FACE ( 'NONE', ( #36 ), #7, .F. ) ;
#384 = DIRECTION ( 'NONE',  ( 0.000000000000000000, -0.000000000000000000, 1.000000000000000000 ) ) ;
#385 = APPLICATION_PROTOCOL_DEFINITION ( 'draft international standard', 'automotive_design', 1998, #225 ) ;
#386 = EDGE_LOOP ( 'NONE', ( #138, #317, #69, #15 ) ) ;
#387 = DIRECTION ( 'NONE',  ( -0.000000000000000000, -1.000000000000000000, -0.000000000000000000 ) ) ;
#388 = DIRECTION ( 'NONE',  ( 0.000000000000000000, 0.000000000000000000, 1.000000000000000000 ) ) ;
#389 = ORIENTED_EDGE ( 'NONE', *, *, #104, .T. ) ;
#390 = FACE_OUTER_BOUND ( 'NONE', #59, .T. ) ;
#391 = CARTESIAN_POINT ( 'NONE',  ( -110.0000000000000000, 44.00000000000000000, 1.347111479062088523E-14 ) ) ;
#392 = AXIS2_PLACEMENT_3D ( 'NONE', #264, #1, #289 ) ;
#393 = ORIENTED_EDGE ( 'NONE', *, *, #25, .T. ) ;
#394 = EDGE_CURVE ( 'NONE', #342, #103, #144, .T. ) ;
#395 = CARTESIAN_POINT ( 'NONE',  ( -45.82575694955839651, 44.00000000000000000, -3.999999999999999112 ) ) ;
#396 = ORIENTED_EDGE ( 'NONE', *, *, #91, .T. ) ;
#397 = EDGE_CURVE ( 'NONE', #167, #84, #143, .T. ) ;
#398 = CARTESIAN_POINT ( 'NONE',  ( -84.26488874308770960, 0.000000000000000000, -70.70663706551918892 ) ) ;
#399 = CIRCLE ( 'NONE', #32, 46.00000000000000000 ) ;
#400 = DIRECTION ( 'NONE',  ( -0.000000000000000000, 1.000000000000000000, -0.000000000000000000 ) ) ;
#401 = VECTOR ( 'NONE', #297, 1000.000000000000000 ) ;
#402 = CARTESIAN_POINT ( 'NONE',  ( -84.26488874308769539, -6.000000000000000000, -70.70663706551918892 ) ) ;
#403 = DIRECTION ( 'NONE',  ( -0.000000000000000000, 1.000000000000000000, -0.000000000000000000 ) ) ;
#404 = DIRECTION ( 'NONE',  ( 0.000000000000000000, 0.000000000000000000, 1.000000000000000000 ) ) ;
#405 = AXIS2_PLACEMENT_3D ( 'NONE', #377, #309, #12 ) ;
#406 = CIRCLE ( 'NONE', #329, 41.99999999999999289 ) ;
#407 = LINE ( 'NONE', #294, #39 ) ;
#408 = DIRECTION ( 'NONE',  ( 0.000000000000000000, -1.000000000000000000, 0.000000000000000000 ) ) ;
#409 = CARTESIAN_POINT ( 'NONE',  ( 0.000000000000000000, 44.00000000000000000, 0.000000000000000000 ) ) ;
#410 = ORIENTED_EDGE ( 'NONE', *, *, #68, .F. ) ;
#411 = EDGE_CURVE ( 'NONE', #313, #342, #291, .T. ) ;
#412 = FACE_OUTER_BOUND ( 'NONE', #386, .T. ) ;
#413 = ORIENTED_EDGE ( 'NONE', *, *, #261, .F. ) ;
#414 = AXIS2_PLACEMENT_3D ( 'NONE', #350, #246, #425 ) ;
#415 = AXIS2_PLACEMENT_3D ( 'NONE', #369, #17, #89 ) ;
#416 = PLANE ( 'NONE',  #405 ) ;
#417 = VERTEX_POINT ( 'NONE', #112 ) ;
#418 = DIRECTION ( 'NONE',  ( -0.000000000000000000, 1.000000000000000000, -0.000000000000000000 ) ) ;
#419 = ORIENTED_EDGE ( 'NONE', *, *, #236, .T. ) ;
#420 = ADVANCED_FACE ( 'NONE', ( #77 ), #110, .F. ) ;
#421 = FACE_OUTER_BOUND ( 'NONE', #48, .T. ) ;
#422 = EDGE_LOOP ( 'NONE', ( #389, #124, #303, #308 ) ) ;
#423 = AXIS2_PLACEMENT_3D ( 'NONE', #239, #450, #384 ) ;
#424 = DIRECTION ( 'NONE',  ( -1.000000000000000000, 0.000000000000000000, 0.000000000000000000 ) ) ;
#425 = DIRECTION ( 'NONE',  ( 0.000000000000000000, 0.000000000000000000, 1.000000000000000000 ) ) ;
#426 = CARTESIAN_POINT ( 'NONE',  ( -26.99707960683491592, -6.000000000000000000, -32.17386661099685341 ) ) ;
#427 = EDGE_LOOP ( 'NONE', ( #95, #187, #458, #251 ) ) ;
#428 = EDGE_CURVE ( 'NONE', #103, #28, #215, .T. ) ;
#429 = VERTEX_POINT ( 'NONE', #78 ) ;
#430 = STYLED_ITEM ( 'NONE', ( #327 ), #72 ) ;
#431 = ORIENTED_EDGE ( 'NONE', *, *, #339, .F. ) ;
#432 = CARTESIAN_POINT ( 'NONE',  ( 0.000000000000000000, 44.00000000000000000, 0.000000000000000000 ) ) ;
#433 = EDGE_CURVE ( 'NONE', #417, #126, #148, .T. ) ;
#434 =( NAMED_UNIT ( * ) SI_UNIT ( $, .STERADIAN. ) SOLID_ANGLE_UNIT ( ) );
#435 = CARTESIAN_POINT ( 'NONE',  ( -26.99707960683491592, 0.000000000000000000, -32.17386661099685341 ) ) ;
#436 = AXIS2_PLACEMENT_3D ( 'NONE', #166, #131, #351 ) ;
#437 = CARTESIAN_POINT ( 'NONE',  ( 0.000000000000000000, -6.000000000000000000, 0.000000000000000000 ) ) ;
#438 = DIRECTION ( 'NONE',  ( -0.000000000000000000, -1.000000000000000000, -0.000000000000000000 ) ) ;
#439 = CARTESIAN_POINT ( 'NONE',  ( -70.70663706552005578, -6.000000000000000000, -84.26488874308697063 ) ) ;
#440 = DIRECTION ( 'NONE',  ( -0.000000000000000000, -1.000000000000000000, -0.000000000000000000 ) ) ;
#441 = ADVANCED_FACE ( 'NONE', ( #442 ), #259, .T. ) ;
#442 = FACE_OUTER_BOUND ( 'NONE', #117, .T. ) ;
#443 = FILL_AREA_STYLE_COLOUR ( '', #328 ) ;
#444 = DIRECTION ( 'NONE',  ( 0.6427876096865460243, 0.000000000000000000, 0.7660444431189723513 ) ) ;
#445 = AXIS2_PLACEMENT_3D ( 'NONE', #454, #307, #14 ) ;
#446 = CARTESIAN_POINT ( 'NONE',  ( -84.26488874308769539, -6.000000000000000000, -70.70663706551918892 ) ) ;
#447 = ADVANCED_FACE ( 'NONE', ( #333 ), #54, .F. ) ;
#448 = DIRECTION ( 'NONE',  ( 0.000000000000000000, 0.000000000000000000, -1.000000000000000000 ) ) ;
#449 = ORIENTED_EDGE ( 'NONE', *, *, #275, .T. ) ;
#450 = DIRECTION ( 'NONE',  ( 0.000000000000000000, 1.000000000000000000, 0.000000000000000000 ) ) ;
#451 = ORIENTED_EDGE ( 'NONE', *, *, #108, .F. ) ;
#452 = ADVANCED_BREP_SHAPE_REPRESENTATION ( 'ARP-0087', ( #72, #163 ), #152 ) ;
#453 = VECTOR ( 'NONE', #184, 1000.000000000000000 ) ;
#454 = CARTESIAN_POINT ( 'NONE',  ( -110.0000000000000000, 44.00000000000000000, -3.999999999999986233 ) ) ;
#455 = EDGE_CURVE ( 'NONE', #235, #310, #177, .T. ) ;
#456 = ORIENTED_EDGE ( 'NONE', *, *, #376, .T. ) ;
#457 = CARTESIAN_POINT ( 'NONE',  ( -110.0000000000000000, 44.00000000000000000, -3.999999999999986233 ) ) ;
#458 = ORIENTED_EDGE ( 'NONE', *, *, #226, .F. ) ;
#459 = CARTESIAN_POINT ( 'NONE',  ( -4.000000000000000000, 44.00000000000000000, -45.82575694955839651 ) ) ;
#460 = CARTESIAN_POINT ( 'NONE',  ( 0.000000000000000000, 0.000000000000000000, 0.000000000000000000 ) ) ;
#461 = LINE ( 'NONE', #280, #343 ) ;
#462 = CIRCLE ( 'NONE', #229, 110.0000000000000000 ) ;
#463 = DIRECTION ( 'NONE',  ( -0.000000000000000000, -1.000000000000000000, -0.000000000000000000 ) ) ;
#464 = ORIENTED_EDGE ( 'NONE', *, *, #5, .T. ) ;
#465 = EDGE_CURVE ( 'NONE', #429, #28, #406, .T. ) ;
#466 = DIRECTION ( 'NONE',  ( 0.000000000000000000, 0.000000000000000000, 1.000000000000000000 ) ) ;
#467 = DIRECTION ( 'NONE',  ( 1.000000000000000000, 0.000000000000000000, -1.981046292738365359E-16 ) ) ;
#468 = CARTESIAN_POINT ( 'NONE',  ( -32.17386661099713052, 0.000000000000000000, -26.99707960683459262 ) ) ;
#469 = PRESENTATION_LAYER_ASSIGNMENT (  '', '', ( #430 ) ) ;
#470 = ORIENTED_EDGE ( 'NONE', *, *, #355, .F. ) ;
#471 = FACE_OUTER_BOUND ( 'NONE', #305, .T. ) ;
#472 = CARTESIAN_POINT ( 'NONE',  ( 0.000000000000000000, 44.00000000000000000, 0.000000000000000000 ) ) ;
#473 = PRODUCT ( 'ARP-0087', 'ARP-0087', '', ( #312 ) ) ;
ENDSEC;
END-ISO-10303-21;
