ISO-10303-21;
HEADER;
FILE_DESCRIPTION (( 'STEP AP214' ),
    '1' );
FILE_NAME ('ELP-0036.STEP',
    '2026-03-17T22:12:41',
    ( '' ),
    ( '' ),
    'SwSTEP 2.0',
    'SolidWorks 2024',
    '' );
FILE_SCHEMA (( 'AUTOMOTIVE_DESIGN' ));
ENDSEC;

DATA;
#1 = DIRECTION ( 'NONE',  ( 0.000000000000000000, 0.000000000000000000, 1.000000000000000000 ) ) ;
#2 = EDGE_CURVE ( 'NONE', #684, #479, #430, .T. ) ;
#3 = AXIS2_PLACEMENT_3D ( 'NONE', #121, #419, #831 ) ;
#4 = CARTESIAN_POINT ( 'NONE',  ( -9.339555568810247621, 53.91548578191817143, 0.000000000000000000 ) ) ;
#5 = ORIENTED_EDGE ( 'NONE', *, *, #743, .T. ) ;
#6 = EDGE_CURVE ( 'NONE', #1102, #289, #418, .T. ) ;
#7 = CIRCLE ( 'NONE', #672, 6.999999999999997335 ) ;
#8 = FACE_BOUND ( 'NONE', #1296, .T. ) ;
#9 = DIRECTION ( 'NONE',  ( -0.000000000000000000, -0.000000000000000000, 1.000000000000000000 ) ) ;
#10 = MANIFOLD_SOLID_BREP ( 'Raccordo2', #966 ) ;
#11 = AXIS2_PLACEMENT_3D ( 'NONE', #1128, #1042, #1222 ) ;
#12 = CARTESIAN_POINT ( 'NONE',  ( -7.000000000000013323, 51.12731202771478678, -82.00000000000000000 ) ) ;
#13 = EDGE_CURVE ( 'NONE', #777, #255, #765, .T. ) ;
#14 = EDGE_LOOP ( 'NONE', ( #1013, #423, #998, #347, #704, #1029, #85, #965, #205, #293 ) ) ;
#15 = AXIS2_PLACEMENT_3D ( 'NONE', #606, #1168, #360 ) ;
#16 = ADVANCED_FACE ( 'NONE', ( #8, #982, #43, #452, #1157, #357 ), #864, .F. ) ;
#17 = VERTEX_POINT ( 'NONE', #870 ) ;
#18 = DIRECTION ( 'NONE',  ( -0.000000000000000000, -0.000000000000000000, -1.000000000000000000 ) ) ;
#19 = CARTESIAN_POINT ( 'NONE',  ( -24.66856165298209547, 72.18388385362837312, -41.64999999999998437 ) ) ;
#20 = ORIENTED_EDGE ( 'NONE', *, *, #472, .T. ) ;
#21 = ORIENTED_EDGE ( 'NONE', *, *, #6, .T. ) ;
#22 = EDGE_CURVE ( 'NONE', #289, #1005, #660, .T. ) ;
#23 = ADVANCED_FACE ( 'NONE', ( #970 ), #363, .F. ) ;
#24 = LINE ( 'NONE', #931, #307 ) ;
#25 = DIRECTION ( 'NONE',  ( 0.000000000000000000, 0.000000000000000000, 1.000000000000000000 ) ) ;
#26 = EDGE_LOOP ( 'NONE', ( #1254, #376, #483, #281 ) ) ;
#27 = CYLINDRICAL_SURFACE ( 'NONE', #365, 6.999999999999997335 ) ;
#28 = DIRECTION ( 'NONE',  ( 2.375064099840651018E-16, -1.000000000000000000, -0.000000000000000000 ) ) ;
#29 = VERTEX_POINT ( 'NONE', #666 ) ;
#30 = FACE_OUTER_BOUND ( 'NONE', #92, .T. ) ;
#31 = EDGE_CURVE ( 'NONE', #1261, #1127, #1269, .T. ) ;
#32 = VECTOR ( 'NONE', #164, 1000.000000000000000 ) ;
#33 = PLANE ( 'NONE',  #986 ) ;
#34 = ORIENTED_EDGE ( 'NONE', *, *, #722, .T. ) ;
#35 = CIRCLE ( 'NONE', #1180, 10.00000000000000000 ) ;
#36 = DIRECTION ( 'NONE',  ( -0.000000000000000000, -0.000000000000000000, -1.000000000000000000 ) ) ;
#37 = ORIENTED_EDGE ( 'NONE', *, *, #398, .F. ) ;
#38 = DIRECTION ( 'NONE',  ( 0.7660444431189757930, 0.6427876096865420275, -0.000000000000000000 ) ) ;
#39 = CARTESIAN_POINT ( 'NONE',  ( -34.11753951537421159, 83.44473716747727110, 4.000000000000072831 ) ) ;
#40 = ADVANCED_FACE ( 'NONE', ( #682 ), #962, .F. ) ;
#41 = VERTEX_POINT ( 'NONE', #1178 ) ;
#42 = CYLINDRICAL_SURFACE ( 'NONE', #988, 2.249999999999977796 ) ;
#43 = FACE_BOUND ( 'NONE', #861, .T. ) ;
#44 = CARTESIAN_POINT ( 'NONE',  ( -1.301042606982605321E-14, 12.00000000000000000, -82.00000000000000000 ) ) ;
#45 = DIRECTION ( 'NONE',  ( -0.6427876096865435818, 0.7660444431189743497, 0.000000000000000000 ) ) ;
#46 = ORIENTED_EDGE ( 'NONE', *, *, #776, .F. ) ;
#47 = CARTESIAN_POINT ( 'NONE',  ( -38.48849526124273268, 88.65383938068636382, -41.64999999999999147 ) ) ;
#48 = DIRECTION ( 'NONE',  ( -0.6427876096865435818, 0.7660444431189743497, 0.000000000000000000 ) ) ;
#49 = LINE ( 'NONE', #654, #1237 ) ;
#50 =( GEOMETRIC_REPRESENTATION_CONTEXT ( 3 ) GLOBAL_UNCERTAINTY_ASSIGNED_CONTEXT ( ( #1000 ) ) GLOBAL_UNIT_ASSIGNED_CONTEXT ( ( #828, #725, #67 ) ) REPRESENTATION_CONTEXT ( 'NONE', 'WORKASPACE' ) );
#51 = DIRECTION ( 'NONE',  ( 1.000000000000000000, 0.000000000000000000, -0.000000000000000000 ) ) ;
#52 = ORIENTED_EDGE ( 'NONE', *, *, #1231, .F. ) ;
#53 = EDGE_CURVE ( 'NONE', #615, #921, #884, .T. ) ;
#54 = CARTESIAN_POINT ( 'NONE',  ( -23.14177345524898755, 75.03150001443080441, -30.04999999999999361 ) ) ;
#55 = DIRECTION ( 'NONE',  ( 0.000000000000000000, 0.000000000000000000, 1.000000000000000000 ) ) ;
#56 = AXIS2_PLACEMENT_3D ( 'NONE', #1159, #667, #1250 ) ;
#57 = VECTOR ( 'NONE', #713, 1000.000000000000000 ) ;
#58 = DIRECTION ( 'NONE',  ( -1.000000000000000000, 0.000000000000000000, 0.000000000000000000 ) ) ;
#59 = CARTESIAN_POINT ( 'NONE',  ( -9.339555568810249397, 53.91548578191817143, -81.99999999999997158 ) ) ;
#60 = VERTEX_POINT ( 'NONE', #1171 ) ;
#61 = DIRECTION ( 'NONE',  ( -1.000000000000000000, 3.989863994746656317E-16, 0.000000000000000000 ) ) ;
#62 = FACE_OUTER_BOUND ( 'NONE', #630, .T. ) ;
#63 = EDGE_CURVE ( 'NONE', #1311, #511, #1279, .T. ) ;
#64 = CARTESIAN_POINT ( 'NONE',  ( -3.469446951953614189E-15, 0.000000000000000000, 0.000000000000000000 ) ) ;
#65 = ORIENTED_EDGE ( 'NONE', *, *, #140, .T. ) ;
#66 = CYLINDRICAL_SURFACE ( 'NONE', #899, 10.00000000000000000 ) ;
#67 =( NAMED_UNIT ( * ) SI_UNIT ( $, .STERADIAN. ) SOLID_ANGLE_UNIT ( ) );
#68 = CARTESIAN_POINT ( 'NONE',  ( -9.339555568810261832, 53.91548578191817853, -82.00000000000000000 ) ) ;
#69 = ADVANCED_FACE ( 'NONE', ( #772 ), #264, .F. ) ;
#70 = VECTOR ( 'NONE', #1247, 1000.000000000000000 ) ;
#71 = VECTOR ( 'NONE', #1053, 1000.000000000000000 ) ;
#72 = VERTEX_POINT ( 'NONE', #144 ) ;
#73 = DIRECTION ( 'NONE',  ( 0.000000000000000000, 0.000000000000000000, -1.000000000000000000 ) ) ;
#74 = ORIENTED_EDGE ( 'NONE', *, *, #838, .T. ) ;
#75 = DIRECTION ( 'NONE',  ( -0.000000000000000000, -0.000000000000000000, 1.000000000000000000 ) ) ;
#76 = ORIENTED_EDGE ( 'NONE', *, *, #1186, .F. ) ;
#77 = VECTOR ( 'NONE', #885, 1000.000000000000114 ) ;
#78 = VECTOR ( 'NONE', #663, 1000.000000000000000 ) ;
#79 = VECTOR ( 'NONE', #306, 1000.000000000000000 ) ;
#80 = EDGE_LOOP ( 'NONE', ( #382, #118, #640, #181 ) ) ;
#81 = EDGE_CURVE ( 'NONE', #1046, #1199, #1187, .T. ) ;
#82 = LINE ( 'NONE', #685, #32 ) ;
#83 = PLANE ( 'NONE',  #114 ) ;
#84 = ORIENTED_EDGE ( 'NONE', *, *, #1200, .T. ) ;
#85 = ORIENTED_EDGE ( 'NONE', *, *, #838, .F. ) ;
#86 = DIRECTION ( 'NONE',  ( 0.7660444431189765702, 0.6427876096865412503, -0.000000000000000000 ) ) ;
#87 = EDGE_CURVE ( 'NONE', #1229, #937, #132, .T. ) ;
#88 = DIRECTION ( 'NONE',  ( 0.7660444431189786796, 0.6427876096865383637, 0.000000000000000000 ) ) ;
#89 = ORIENTED_EDGE ( 'NONE', *, *, #1063, .T. ) ;
#90 = CARTESIAN_POINT ( 'NONE',  ( 6.999999999999993783, -4.888073874380384804E-14, -82.00000000000000000 ) ) ;
#91 = CIRCLE ( 'NONE', #836, 10.00000000000000000 ) ;
#92 = EDGE_LOOP ( 'NONE', ( #421, #664, #909, #297 ) ) ;
#93 = CARTESIAN_POINT ( 'NONE',  ( 4.660444431189781689, 52.78817375420337754, -86.00000000000000000 ) ) ;
#94 = ORIENTED_EDGE ( 'NONE', *, *, #1106, .F. ) ;
#95 = CARTESIAN_POINT ( 'NONE',  ( -31.81940618601732140, 85.37309999653697901, -45.35000000000000142 ) ) ;
#96 = ORIENTED_EDGE ( 'NONE', *, *, #63, .F. ) ;
#97 = CARTESIAN_POINT ( 'NONE',  ( -22.37042832362513067, 74.11224668268802418, -30.04999999999999361 ) ) ;
#98 = AXIS2_PLACEMENT_3D ( 'NONE', #126, #732, #336 ) ;
#99 = VERTEX_POINT ( 'NONE', #977 ) ;
#100 = CARTESIAN_POINT ( 'NONE',  ( -7.000000000000000888, 0.000000000000000000, 4.000000000000000000 ) ) ;
#101 = CARTESIAN_POINT ( 'NONE',  ( -7.000000000000000888, 0.000000000000000000, 0.000000000000000000 ) ) ;
#102 = ORIENTED_EDGE ( 'NONE', *, *, #272, .T. ) ;
#103 = CARTESIAN_POINT ( 'NONE',  ( -7.000000000000012434, 47.48760968505275315, -82.00000000000000000 ) ) ;
#104 = DIRECTION ( 'NONE',  ( 0.7660444431189757930, 0.6427876096865420275, 0.000000000000000000 ) ) ;
#105 = EDGE_LOOP ( 'NONE', ( #1044, #1155, #1094, #848 ) ) ;
#106 = ORIENTED_EDGE ( 'NONE', *, *, #900, .F. ) ;
#107 = CARTESIAN_POINT ( 'NONE',  ( -3.469446951953614189E-15, 0.000000000000000000, -86.00000000000000000 ) ) ;
#108 = CIRCLE ( 'NONE', #859, 10.00000000000000000 ) ;
#109 = CARTESIAN_POINT ( 'NONE',  ( -17.00000000000001421, 47.48760968505275315, -86.00000000000000000 ) ) ;
#110 = ORIENTED_EDGE ( 'NONE', *, *, #1300, .T. ) ;
#111 = CARTESIAN_POINT ( 'NONE',  ( -43.07946123145170247, 83.23507278113781638, -30.04999999999999361 ) ) ;
#112 = ORIENTED_EDGE ( 'NONE', *, *, #767, .F. ) ;
#113 = FACE_OUTER_BOUND ( 'NONE', #1266, .T. ) ;
#114 = AXIS2_PLACEMENT_3D ( 'NONE', #803, #177, #88 ) ;
#115 = DIRECTION ( 'NONE',  ( 1.000000000000000000, 0.000000000000000000, 0.000000000000000000 ) ) ;
#116 = AXIS2_PLACEMENT_3D ( 'NONE', #1221, #1018, #1034 ) ;
#117 = EDGE_CURVE ( 'NONE', #792, #210, #990, .T. ) ;
#118 = ORIENTED_EDGE ( 'NONE', *, *, #1141, .F. ) ;
#119 = EDGE_CURVE ( 'NONE', #273, #60, #758, .T. ) ;
#120 =( LENGTH_UNIT ( ) NAMED_UNIT ( * ) SI_UNIT ( .MILLI., .METRE. ) );
#121 = CARTESIAN_POINT ( 'NONE',  ( -7.000000000000000888, 0.000000000000000000, 4.000000000000000000 ) ) ;
#122 = FACE_OUTER_BOUND ( 'NONE', #407, .T. ) ;
#123 = ORIENTED_EDGE ( 'NONE', *, *, #207, .F. ) ;
#124 = DIRECTION ( 'NONE',  ( 0.6427876096865411393, -0.7660444431189764591, 0.000000000000000000 ) ) ;
#125 = ORIENTED_EDGE ( 'NONE', *, *, #579, .T. ) ;
#126 = CARTESIAN_POINT ( 'NONE',  ( -39.47985061720708444, 78.94522389967157494, -45.35000000000000142 ) ) ;
#127 = CARTESIAN_POINT ( 'NONE',  ( -22.37042832362513067, 74.11224668268802418, -41.64999999999998437 ) ) ;
#128 = ORIENTED_EDGE ( 'NONE', *, *, #1161, .T. ) ;
#129 = CARTESIAN_POINT ( 'NONE',  ( -7.000000000000013323, 51.12731202771478678, -36.64999999999999147 ) ) ;
#130 = FILL_AREA_STYLE ('',( #646 ) ) ;
#131 = AXIS2_PLACEMENT_3D ( 'NONE', #1059, #148, #751 ) ;
#132 = CIRCLE ( 'NONE', #883, 10.00000000000000178 ) ;
#133 = DIRECTION ( 'NONE',  ( 0.7660444431189757930, 0.6427876096865420275, -0.000000000000000000 ) ) ;
#134 = EDGE_CURVE ( 'NONE', #796, #698, #1066, .T. ) ;
#135 = LINE ( 'NONE', #551, #678 ) ;
#136 = ORIENTED_EDGE ( 'NONE', *, *, #1001, .F. ) ;
#137 = DIRECTION ( 'NONE',  ( -0.000000000000000000, -0.000000000000000000, 1.000000000000000000 ) ) ;
#138 = CARTESIAN_POINT ( 'NONE',  ( -17.00000000000001421, 47.48760968505275315, -82.00000000000000000 ) ) ;
#139 = DIRECTION ( 'NONE',  ( -2.375064099840651018E-16, 1.000000000000000000, 0.000000000000000000 ) ) ;
#140 = EDGE_CURVE ( 'NONE', #763, #777, #1150, .T. ) ;
#141 = DIRECTION ( 'NONE',  ( -0.000000000000000000, -0.000000000000000000, -1.000000000000000000 ) ) ;
#142 = ORIENTED_EDGE ( 'NONE', *, *, #1207, .F. ) ;
#143 = DIRECTION ( 'NONE',  ( 1.000000000000000000, 0.000000000000000000, 0.000000000000000000 ) ) ;
#144 = CARTESIAN_POINT ( 'NONE',  ( -7.000000000000000888, 0.000000000000000000, 0.000000000000000000 ) ) ;
#145 = CARTESIAN_POINT ( 'NONE',  ( -37.71715012961888647, 87.73458604894359780, -41.64999999999999147 ) ) ;
#146 = DIRECTION ( 'NONE',  ( 0.7660444431189757930, 0.6427876096865420275, -0.000000000000000000 ) ) ;
#147 = ORIENTED_EDGE ( 'NONE', *, *, #340, .T. ) ;
#148 = DIRECTION ( 'NONE',  ( -0.000000000000000000, -0.000000000000000000, 1.000000000000000000 ) ) ;
#149 = CARTESIAN_POINT ( 'NONE',  ( 6.999999999999993783, -4.888073874380384804E-14, -86.00000000000000000 ) ) ;
#150 = DIRECTION ( 'NONE',  ( -1.000000000000000000, 0.000000000000000000, 0.000000000000000000 ) ) ;
#151 = VECTOR ( 'NONE', #1031, 1000.000000000000000 ) ;
#152 = VECTOR ( 'NONE', #976, 1000.000000000000227 ) ;
#153 = DIRECTION ( 'NONE',  ( -0.000000000000000000, -0.000000000000000000, 1.000000000000000000 ) ) ;
#154 = ORIENTED_EDGE ( 'NONE', *, *, #722, .F. ) ;
#155 = LINE ( 'NONE', #463, #839 ) ;
#156 = EDGE_CURVE ( 'NONE', #355, #1277, #443, .T. ) ;
#157 = VECTOR ( 'NONE', #354, 1000.000000000000227 ) ;
#158 = CARTESIAN_POINT ( 'NONE',  ( -17.00000000000001066, 47.48760968505275315, 4.000000000000000000 ) ) ;
#159 = AXIS2_PLACEMENT_3D ( 'NONE', #191, #603, #471 ) ;
#160 = CARTESIAN_POINT ( 'NONE',  ( -1.301042606982605321E-14, 12.00000000000000000, 0.000000000000000000 ) ) ;
#161 = PRODUCT_DEFINITION_FORMATION_WITH_SPECIFIED_SOURCE ( 'TUTTO', '', #500, .NOT_KNOWN. ) ;
#162 = CARTESIAN_POINT ( 'NONE',  ( -33.88759841293415320, 72.28063724453645023, -36.64999999999999147 ) ) ;
#163 = ORIENTED_EDGE ( 'NONE', *, *, #473, .F. ) ;
#164 = DIRECTION ( 'NONE',  ( 0.7660444431189757930, 0.6427876096865420275, -0.000000000000000000 ) ) ;
#165 = DIRECTION ( 'NONE',  ( 0.7660444431189765702, 0.6427876096865412503, -0.000000000000000000 ) ) ;
#166 = EDGE_CURVE ( 'NONE', #926, #1261, #534, .T. ) ;
#167 = CARTESIAN_POINT ( 'NONE',  ( -41.65437834742212431, 49.64175504281890738, 0.000000000000000000 ) ) ;
#168 = ORIENTED_EDGE ( 'NONE', *, *, #1143, .T. ) ;
#169 = CARTESIAN_POINT ( 'NONE',  ( -17.00000000000001066, 47.48760968505275315, 0.000000000000000000 ) ) ;
#170 = DIRECTION ( 'NONE',  ( 1.000000000000000000, 0.000000000000000000, 0.000000000000000000 ) ) ;
#171 = VECTOR ( 'NONE', #188, 1000.000000000000000 ) ;
#172 = EDGE_CURVE ( 'NONE', #1145, #99, #341, .T. ) ;
#173 = AXIS2_PLACEMENT_3D ( 'NONE', #458, #869, #327 ) ;
#174 = EDGE_LOOP ( 'NONE', ( #328, #1032 ) ) ;
#175 = FACE_OUTER_BOUND ( 'NONE', #522, .T. ) ;
#176 = ORIENTED_EDGE ( 'NONE', *, *, #1276, .F. ) ;
#177 = DIRECTION ( 'NONE',  ( 0.6427876096865384747, -0.7660444431189787906, 0.000000000000000000 ) ) ;
#178 = ORIENTED_EDGE ( 'NONE', *, *, #140, .F. ) ;
#179 = VECTOR ( 'NONE', #345, 1000.000000000000227 ) ;
#180 = EDGE_CURVE ( 'NONE', #287, #381, #764, .T. ) ;
#181 = ORIENTED_EDGE ( 'NONE', *, *, #1201, .F. ) ;
#182 = FACE_OUTER_BOUND ( 'NONE', #232, .T. ) ;
#183 = EDGE_LOOP ( 'NONE', ( #813, #985 ) ) ;
#184 = DIRECTION ( 'NONE',  ( 0.7660444431189765702, 0.6427876096865412503, -0.000000000000000000 ) ) ;
#185 = VERTEX_POINT ( 'NONE', #659 ) ;
#186 = CARTESIAN_POINT ( 'NONE',  ( -36.94580499799503315, 86.81533271720083178, -41.64999999999999147 ) ) ;
#187 = VERTEX_POINT ( 'NONE', #938 ) ;
#188 = DIRECTION ( 'NONE',  ( -2.375064099840651018E-16, 1.000000000000000000, -0.000000000000000000 ) ) ;
#189 = EDGE_CURVE ( 'NONE', #791, #1225, #955, .T. ) ;
#190 = ORIENTED_EDGE ( 'NONE', *, *, #156, .F. ) ;
#191 = CARTESIAN_POINT ( 'NONE',  ( -1.301042606982605321E-14, 12.00000000000000000, 4.000000000000000888 ) ) ;
#192 = VERTEX_POINT ( 'NONE', #54 ) ;
#193 = DIRECTION ( 'NONE',  ( -0.6427876096865396960, 0.7660444431189779024, 0.000000000000000000 ) ) ;
#194 = VECTOR ( 'NONE', #1253, 1000.000000000000000 ) ;
#195 = EDGE_LOOP ( 'NONE', ( #123, #52 ) ) ;
#196 = AXIS2_PLACEMENT_3D ( 'NONE', #639, #428, #1262 ) ;
#197 = VECTOR ( 'NONE', #229, 1000.000000000000227 ) ;
#198 = DIRECTION ( 'NONE',  ( -0.6427876096865396960, 0.7660444431189779024, 0.000000000000000000 ) ) ;
#199 = DIRECTION ( 'NONE',  ( -0.6427876096865379196, 0.7660444431189791237, 0.000000000000000000 ) ) ;
#200 = EDGE_CURVE ( 'NONE', #1205, #72, #967, .T. ) ;
#201 = ORIENTED_EDGE ( 'NONE', *, *, #1047, .F. ) ;
#202 = CIRCLE ( 'NONE', #319, 10.00000000000000000 ) ;
#203 = PLANE ( 'NONE',  #415 ) ;
#204 = CARTESIAN_POINT ( 'NONE',  ( -9.339555568810261832, 53.91548578191817853, -86.00000000000000000 ) ) ;
#205 = ORIENTED_EDGE ( 'NONE', *, *, #872, .F. ) ;
#206 = ORIENTED_EDGE ( 'NONE', *, *, #1281, .F. ) ;
#207 = EDGE_CURVE ( 'NONE', #1064, #474, #493, .T. ) ;
#208 = CARTESIAN_POINT ( 'NONE',  ( -20.58686033147257177, 67.31950163982284607, -78.00000000000000000 ) ) ;
#209 = DIRECTION ( 'NONE',  ( 0.7660444431189765702, 0.6427876096865412503, -0.000000000000000000 ) ) ;
#210 = VERTEX_POINT ( 'NONE', #47 ) ;
#211 = DIRECTION ( 'NONE',  ( 0.6427876096865413613, -0.7660444431189762371, 0.000000000000000000 ) ) ;
#212 = ORIENTED_EDGE ( 'NONE', *, *, #237, .T. ) ;
#213 = PLANE ( 'NONE',  #11 ) ;
#214 = AXIS2_PLACEMENT_3D ( 'NONE', #538, #1217, #431 ) ;
#215 = DIRECTION ( 'NONE',  ( -0.000000000000000000, -0.000000000000000000, 1.000000000000000000 ) ) ;
#216 = ORIENTED_EDGE ( 'NONE', *, *, #548, .T. ) ;
#217 = FACE_OUTER_BOUND ( 'NONE', #80, .T. ) ;
#218 = ADVANCED_FACE ( 'NONE', ( #449 ), #42, .F. ) ;
#219 = AXIS2_PLACEMENT_3D ( 'NONE', #160, #851, #439 ) ;
#220 = CARTESIAN_POINT ( 'NONE',  ( -25.43990678460594523, 73.10313718537113914, -41.64999999999998437 ) ) ;
#221 = ORIENTED_EDGE ( 'NONE', *, *, #1273, .T. ) ;
#222 = PLANE ( 'NONE',  #173 ) ;
#223 = DIRECTION ( 'NONE',  ( 0.000000000000000000, 0.000000000000000000, -1.000000000000000000 ) ) ;
#224 = EDGE_LOOP ( 'NONE', ( #1125, #509, #1194, #338 ) ) ;
#225 = FACE_OUTER_BOUND ( 'NONE', #693, .T. ) ;
#226 = DIRECTION ( 'NONE',  ( 0.6427876096865413613, -0.7660444431189762371, 0.000000000000000000 ) ) ;
#227 = VERTEX_POINT ( 'NONE', #652 ) ;
#228 = CARTESIAN_POINT ( 'NONE',  ( -2.999999999999995559, 46.36029765733798058, 4.000000000000000000 ) ) ;
#229 = DIRECTION ( 'NONE',  ( -0.6427876096865412503, 0.7660444431189763481, -0.000000000000000000 ) ) ;
#230 = CARTESIAN_POINT ( 'NONE',  ( -2.999999999999987566, 46.36029765733795927, -86.00000000000000000 ) ) ;
#231 = LINE ( 'NONE', #650, #632 ) ;
#232 = EDGE_LOOP ( 'NONE', ( #136, #543, #436, #651, #689, #1011 ) ) ;
#233 = CARTESIAN_POINT ( 'NONE',  ( -28.52528731110129456, 76.78015051234217481, 4.000000000000058620 ) ) ;
#234 = AXIS2_PLACEMENT_3D ( 'NONE', #127, #318, #45 ) ;
#235 = EDGE_LOOP ( 'NONE', ( #176, #1214, #892, #600 ) ) ;
#236 = EDGE_CURVE ( 'NONE', #926, #763, #249, .T. ) ;
#237 = EDGE_CURVE ( 'NONE', #1205, #240, #586, .T. ) ;
#238 = CARTESIAN_POINT ( 'NONE',  ( -1.301042606982605321E-14, 12.00000000000000000, -86.00000000000000000 ) ) ;
#239 = LINE ( 'NONE', #944, #78 ) ;
#240 = VERTEX_POINT ( 'NONE', #356 ) ;
#241 = VECTOR ( 'NONE', #699, 1000.000000000000000 ) ;
#242 = VECTOR ( 'NONE', #146, 1000.000000000000000 ) ;
#243 = CARTESIAN_POINT ( 'NONE',  ( -39.47985061720707733, 78.94522389967156073, -36.64999999999999147 ) ) ;
#244 = DIRECTION ( 'NONE',  ( 0.7660444431189765702, 0.6427876096865412503, -0.000000000000000000 ) ) ;
#245 = CARTESIAN_POINT ( 'NONE',  ( -1.301042606982605321E-14, 12.00000000000000000, 4.000000000000000000 ) ) ;
#246 = EDGE_CURVE ( 'NONE', #796, #1311, #7, .T. ) ;
#247 = DIRECTION ( 'NONE',  ( -0.7660444431189763481, -0.6427876096865414723, 0.000000000000000000 ) ) ;
#248 = ORIENTED_EDGE ( 'NONE', *, *, #662, .T. ) ;
#249 = LINE ( 'NONE', #129, #409 ) ;
#250 = DIRECTION ( 'NONE',  ( 0.6427876096865420275, -0.7660444431189757930, 0.000000000000000000 ) ) ;
#251 = DIRECTION ( 'NONE',  ( 0.000000000000000000, 0.000000000000000000, -1.000000000000000000 ) ) ;
#252 = ADVANCED_FACE ( 'NONE', ( #1156 ), #27, .F. ) ;
#253 = CARTESIAN_POINT ( 'NONE',  ( -31.56725658119246347, 95.96266658713858533, -86.00000000000000000 ) ) ;
#254 = ADVANCED_FACE ( 'NONE', ( #558, #1236 ), #222, .F. ) ;
#255 = VERTEX_POINT ( 'NONE', #746 ) ;
#256 = DIRECTION ( 'NONE',  ( 0.7660444431189757930, 0.6427876096865420275, 0.000000000000000000 ) ) ;
#257 = CARTESIAN_POINT ( 'NONE',  ( -30.80221788643874348, 68.60362391756538614, -30.04999999999999361 ) ) ;
#258 = AXIS2_PLACEMENT_3D ( 'NONE', #559, #55, #464 ) ;
#259 = CIRCLE ( 'NONE', #1175, 10.00000000000000000 ) ;
#260 = LINE ( 'NONE', #668, #265 ) ;
#261 = EDGE_CURVE ( 'NONE', #283, #1102, #202, .T. ) ;
#262 = ORIENTED_EDGE ( 'NONE', *, *, #488, .T. ) ;
#263 = LINE ( 'NONE', #269, #780 ) ;
#264 = CYLINDRICAL_SURFACE ( 'NONE', #427, 10.00000000000000000 ) ;
#265 = VECTOR ( 'NONE', #874, 1000.000000000000227 ) ;
#266 = CIRCLE ( 'NONE', #717, 1.200000000000009726 ) ;
#267 = LINE ( 'NONE', #790, #372 ) ;
#268 = VERTEX_POINT ( 'NONE', #544 ) ;
#269 = CARTESIAN_POINT ( 'NONE',  ( 7.000000000000014211, 50.00000000000000000, -86.00000000000000000 ) ) ;
#270 = VERTEX_POINT ( 'NONE', #947 ) ;
#271 = CARTESIAN_POINT ( 'NONE',  ( -6.999999999999987566, 51.12731202771476546, -45.34999999999997300 ) ) ;
#272 = EDGE_CURVE ( 'NONE', #99, #283, #437, .T. ) ;
#273 = VERTEX_POINT ( 'NONE', #1190 ) ;
#274 = CARTESIAN_POINT ( 'NONE',  ( -23.89721652135823859, 71.26463052188557867, -30.04999999999999361 ) ) ;
#275 = DIRECTION ( 'NONE',  ( 0.7660444431189757930, 0.6427876096865420275, -0.000000000000000000 ) ) ;
#276 = ORIENTED_EDGE ( 'NONE', *, *, #1133, .F. ) ;
#277 = AXIS2_PLACEMENT_3D ( 'NONE', #19, #209, #816 ) ;
#278 = CIRCLE ( 'NONE', #1049, 10.00000000000000178 ) ;
#279 = VECTOR ( 'NONE', #1052, 1000.000000000000000 ) ;
#280 = STYLED_ITEM ( 'NONE', ( #753 ), #10 ) ;
#281 = ORIENTED_EDGE ( 'NONE', *, *, #562, .F. ) ;
#282 = CARTESIAN_POINT ( 'NONE',  ( -35.41901680026194299, 89.66294887800323465, -41.64999999999999147 ) ) ;
#283 = VERTEX_POINT ( 'NONE', #595 ) ;
#284 = DIRECTION ( 'NONE',  ( -0.7660444431189763481, -0.6427876096865414723, 0.000000000000000000 ) ) ;
#285 = ORIENTED_EDGE ( 'NONE', *, *, #6, .F. ) ;
#286 = FACE_OUTER_BOUND ( 'NONE', #369, .T. ) ;
#287 = VERTEX_POINT ( 'NONE', #999 ) ;
#288 = DIRECTION ( 'NONE',  ( -0.6427876096865379196, 0.7660444431189791237, 0.000000000000000000 ) ) ;
#289 = VERTEX_POINT ( 'NONE', #1170 ) ;
#290 = CARTESIAN_POINT ( 'NONE',  ( -30.80221788643873992, 68.60362391756537193, -41.64999999999998437 ) ) ;
#291 = EDGE_LOOP ( 'NONE', ( #412, #128, #455, #918, #536, #248, #799, #842, #393, #788 ) ) ;
#292 = PLANE ( 'NONE',  #15 ) ;
#293 = ORIENTED_EDGE ( 'NONE', *, *, #726, .F. ) ;
#294 = EDGE_CURVE ( 'NONE', #750, #417, #520, .T. ) ;
#295 = FACE_OUTER_BOUND ( 'NONE', #1058, .T. ) ;
#296 = DIRECTION ( 'NONE',  ( -0.6427876096865396960, 0.7660444431189779024, 0.000000000000000000 ) ) ;
#297 = ORIENTED_EDGE ( 'NONE', *, *, #602, .F. ) ;
#298 = CARTESIAN_POINT ( 'NONE',  ( -28.52528731110133720, 76.78015051234223165, -36.64999999999999147 ) ) ;
#299 = AXIS2_PLACEMENT_3D ( 'NONE', #1124, #729, #709 ) ;
#300 = CIRCLE ( 'NONE', #234, 1.199999999999997069 ) ;
#301 = DIRECTION ( 'NONE',  ( -1.000000000000000000, 0.000000000000000000, 0.000000000000000000 ) ) ;
#302 = EDGE_CURVE ( 'NONE', #268, #1210, #469, .T. ) ;
#303 = EDGE_LOOP ( 'NONE', ( #896, #731, #960, #827 ) ) ;
#304 = APPLICATION_PROTOCOL_DEFINITION ( 'draft international standard', 'automotive_design', 1998, #541 ) ;
#305 = EDGE_LOOP ( 'NONE', ( #1104, #403, #679, #112 ) ) ;
#306 = DIRECTION ( 'NONE',  ( -0.000000000000000000, -0.000000000000000000, 1.000000000000000000 ) ) ;
#307 = VECTOR ( 'NONE', #631, 1000.000000000000000 ) ;
#308 = CARTESIAN_POINT ( 'NONE',  ( -20.58686033147255401, 67.31950163982286028, -78.00000000000000000 ) ) ;
#309 = ORIENTED_EDGE ( 'NONE', *, *, #519, .F. ) ;
#310 = SHAPE_DEFINITION_REPRESENTATION ( #370, #634 ) ;
#311 = ORIENTED_EDGE ( 'NONE', *, *, #53, .F. ) ;
#312 = ADVANCED_FACE ( 'NONE', ( #362 ), #889, .F. ) ;
#313 = DIRECTION ( 'NONE',  ( 0.000000000000000000, 0.000000000000000000, 1.000000000000000000 ) ) ;
#314 = DIRECTION ( 'NONE',  ( 0.6427876096865410283, -0.7660444431189765702, -0.000000000000000000 ) ) ;
#315 = VERTEX_POINT ( 'NONE', #1080 ) ;
#316 = CARTESIAN_POINT ( 'NONE',  ( -34.11753951537426133, 83.44473716747732794, -36.64999999999999147 ) ) ;
#317 = EDGE_CURVE ( 'NONE', #791, #270, #1295, .T. ) ;
#318 = DIRECTION ( 'NONE',  ( 0.7660444431189757930, 0.6427876096865420275, 0.000000000000000000 ) ) ;
#319 = AXIS2_PLACEMENT_3D ( 'NONE', #228, #645, #1045 ) ;
#320 = EDGE_LOOP ( 'NONE', ( #917, #835, #582, #997 ) ) ;
#321 = ORIENTED_EDGE ( 'NONE', *, *, #759, .F. ) ;
#322 = CARTESIAN_POINT ( 'NONE',  ( -20.85987744086175155, 72.31204224135841230, -4.000000000000003553 ) ) ;
#323 = AXIS2_PLACEMENT_3D ( 'NONE', #936, #325, #425 ) ;
#324 = AXIS2_PLACEMENT_3D ( 'NONE', #111, #922, #199 ) ;
#325 = DIRECTION ( 'NONE',  ( -0.7660444431189756820, -0.6427876096865420275, 0.000000000000000000 ) ) ;
#326 = EDGE_LOOP ( 'NONE', ( #462, #817, #1241, #1191, #629, #614, #1208, #833 ) ) ;
#327 = DIRECTION ( 'NONE',  ( -1.000000000000000000, 0.000000000000000000, -0.000000000000000000 ) ) ;
#328 = ORIENTED_EDGE ( 'NONE', *, *, #504, .F. ) ;
#329 = CARTESIAN_POINT ( 'NONE',  ( 6.999999999999993783, -4.888073874380384804E-14, -82.00000000000000000 ) ) ;
#330 = DIRECTION ( 'NONE',  ( 0.7660444431189757930, 0.6427876096865420275, -0.000000000000000000 ) ) ;
#331 = ORIENTED_EDGE ( 'NONE', *, *, #759, .T. ) ;
#332 = ADVANCED_FACE ( 'NONE', ( #1283, #487, #778, #897, #1177, #182 ), #671, .T. ) ;
#333 = CARTESIAN_POINT ( 'NONE',  ( -7.000000000000000888, 0.000000000000000000, 4.000000000000000000 ) ) ;
#334 = ORIENTED_EDGE ( 'NONE', *, *, #236, .T. ) ;
#335 = EDGE_CURVE ( 'NONE', #273, #593, #785, .T. ) ;
#336 = DIRECTION ( 'NONE',  ( 0.000000000000000000, 1.000000000000000000, -6.109771398253172468E-16 ) ) ;
#337 = CARTESIAN_POINT ( 'NONE',  ( -39.22770101238223361, 89.53479049027316705, -86.00000000000000000 ) ) ;
#338 = ORIENTED_EDGE ( 'NONE', *, *, #63, .T. ) ;
#339 = VECTOR ( 'NONE', #1310, 1000.000000000000000 ) ;
#340 = EDGE_CURVE ( 'NONE', #770, #1064, #987, .T. ) ;
#341 = LINE ( 'NONE', #961, #70 ) ;
#342 = DIRECTION ( 'NONE',  ( -1.000000000000000000, 0.000000000000000000, 0.000000000000000000 ) ) ;
#343 = VECTOR ( 'NONE', #1242, 1000.000000000000000 ) ;
#344 = EDGE_CURVE ( 'NONE', #621, #479, #263, .T. ) ;
#345 = DIRECTION ( 'NONE',  ( -0.6427876096865420275, 0.7660444431189756820, 0.000000000000000000 ) ) ;
#346 = CARTESIAN_POINT ( 'NONE',  ( -31.56725658119246347, 95.96266658713858533, -82.00000000000000000 ) ) ;
#347 = ORIENTED_EDGE ( 'NONE', *, *, #87, .T. ) ;
#348 = AXIS2_PLACEMENT_3D ( 'NONE', #1271, #1061, #150 ) ;
#349 = CARTESIAN_POINT ( 'NONE',  ( -1.301042606982605321E-14, 12.00000000000000000, 4.000000000000000000 ) ) ;
#350 = DIRECTION ( 'NONE',  ( -0.7660444431189762371, -0.6427876096865413613, -0.000000000000000000 ) ) ;
#351 = CARTESIAN_POINT ( 'NONE',  ( 6.999999999999993783, -4.888073874380384804E-14, -86.00000000000000000 ) ) ;
#352 = EDGE_CURVE ( 'NONE', #240, #283, #155, .T. ) ;
#353 = EDGE_CURVE ( 'NONE', #1311, #737, #994, .T. ) ;
#354 = DIRECTION ( 'NONE',  ( 0.7660444431189762371, 0.6427876096865413613, -0.000000000000000000 ) ) ;
#355 = VERTEX_POINT ( 'NONE', #274 ) ;
#356 = CARTESIAN_POINT ( 'NONE',  ( 6.999999999999993783, 0.000000000000000000, 4.000000000000000000 ) ) ;
#357 = FACE_OUTER_BOUND ( 'NONE', #291, .T. ) ;
#358 = FACE_OUTER_BOUND ( 'NONE', #1228, .T. ) ;
#359 = EDGE_CURVE ( 'NONE', #438, #268, #259, .T. ) ;
#360 = DIRECTION ( 'NONE',  ( -0.7660444431189757930, -0.6427876096865420275, 0.000000000000000000 ) ) ;
#361 = ORIENTED_EDGE ( 'NONE', *, *, #398, .T. ) ;
#362 = FACE_OUTER_BOUND ( 'NONE', #712, .T. ) ;
#363 = PLANE ( 'NONE',  #258 ) ;
#364 = DIRECTION ( 'NONE',  ( 0.000000000000000000, 0.000000000000000000, -1.000000000000000000 ) ) ;
#365 = AXIS2_PLACEMENT_3D ( 'NONE', #553, #36, #843 ) ;
#366 = AXIS2_PLACEMENT_3D ( 'NONE', #673, #470, #779 ) ;
#367 = VECTOR ( 'NONE', #566, 1000.000000000000000 ) ;
#368 = CARTESIAN_POINT ( 'NONE',  ( -38.48849526124273979, 88.65383938068637804, -30.04999999999999361 ) ) ;
#369 = EDGE_LOOP ( 'NONE', ( #804, #216, #1092, #178 ) ) ;
#370 = PRODUCT_DEFINITION_SHAPE ( 'NONE', 'NONE',  #475 ) ;
#371 = DIRECTION ( 'NONE',  ( 0.000000000000000000, 0.000000000000000000, 1.000000000000000000 ) ) ;
#372 = VECTOR ( 'NONE', #1109, 1000.000000000000000 ) ;
#373 = DIRECTION ( 'NONE',  ( -0.000000000000000000, -0.000000000000000000, 1.000000000000000000 ) ) ;
#374 = CIRCLE ( 'NONE', #323, 4.000000000000000888 ) ;
#375 = LINE ( 'NONE', #478, #886 ) ;
#376 = ORIENTED_EDGE ( 'NONE', *, *, #854, .T. ) ;
#377 = CARTESIAN_POINT ( 'NONE',  ( 2.249999999999964917, 12.00000000000000000, 4.000000000000000000 ) ) ;
#378 = ORIENTED_EDGE ( 'NONE', *, *, #53, .T. ) ;
#379 = DIRECTION ( 'NONE',  ( -0.6427876096865420275, 0.7660444431189757930, -7.975740119433583754E-16 ) ) ;
#380 = EDGE_CURVE ( 'NONE', #590, #29, #82, .T. ) ;
#381 = VERTEX_POINT ( 'NONE', #482 ) ;
#382 = ORIENTED_EDGE ( 'NONE', *, *, #1161, .F. ) ;
#383 = DIRECTION ( 'NONE',  ( -1.000000000000000000, 0.000000000000000000, 0.000000000000000000 ) ) ;
#384 = ORIENTED_EDGE ( 'NONE', *, *, #189, .F. ) ;
#385 = EDGE_CURVE ( 'NONE', #596, #615, #943, .T. ) ;
#386 = LINE ( 'NONE', #585, #1016 ) ;
#387 = ORIENTED_EDGE ( 'NONE', *, *, #134, .F. ) ;
#388 = CIRCLE ( 'NONE', #1272, 3.999999999999999112 ) ;
#389 = COLOUR_RGB ( '',0.7921568627450980005, 0.8196078431372548767, 0.9333333333333333481 ) ;
#390 = ORIENTED_EDGE ( 'NONE', *, *, #1069, .F. ) ;
#391 = DIRECTION ( 'NONE',  ( -0.6427876096865379196, 0.7660444431189791237, 0.000000000000000000 ) ) ;
#392 = CARTESIAN_POINT ( 'NONE',  ( -30.03087275481489016, 67.68437058582260590, -30.04999999999999361 ) ) ;
#393 = ORIENTED_EDGE ( 'NONE', *, *, #1008, .T. ) ;
#394 = AXIS2_PLACEMENT_3D ( 'NONE', #910, #1085, #170 ) ;
#395 = CARTESIAN_POINT ( 'NONE',  ( -2.249999999999990674, 12.00000000000000000, 0.000000000000000000 ) ) ;
#396 = ADVANCED_FACE ( 'NONE', ( #175 ), #66, .T. ) ;
#397 = EDGE_CURVE ( 'NONE', #1210, #468, #108, .T. ) ;
#398 = EDGE_CURVE ( 'NONE', #604, #921, #669, .T. ) ;
#399 = VERTEX_POINT ( 'NONE', #204 ) ;
#400 = LINE ( 'NONE', #12, #171 ) ;
#401 = EDGE_LOOP ( 'NONE', ( #405, #1083 ) ) ;
#402 = DIRECTION ( 'NONE',  ( -0.6427876096865396960, 0.7660444431189779024, 0.000000000000000000 ) ) ;
#403 = ORIENTED_EDGE ( 'NONE', *, *, #556, .F. ) ;
#404 = DIRECTION ( 'NONE',  ( 1.000000000000000000, 0.000000000000000000, 0.000000000000000000 ) ) ;
#405 = ORIENTED_EDGE ( 'NONE', *, *, #317, .T. ) ;
#406 = DIRECTION ( 'NONE',  ( 0.7660444431189765702, 0.6427876096865412503, -0.000000000000000000 ) ) ;
#407 = EDGE_LOOP ( 'NONE', ( #569, #552, #21, #719, #794, #1224, #448, #212 ) ) ;
#408 = CARTESIAN_POINT ( 'NONE',  ( -18.28872700211557500, 69.24786446888249714, 0.000000000000000000 ) ) ;
#409 = VECTOR ( 'NONE', #124, 1000.000000000000114 ) ;
#410 = AXIS2_PLACEMENT_3D ( 'NONE', #444, #244, #48 ) ;
#411 = FACE_OUTER_BOUND ( 'NONE', #305, .T. ) ;
#412 = ORIENTED_EDGE ( 'NONE', *, *, #180, .T. ) ;
#413 = CARTESIAN_POINT ( 'NONE',  ( -41.65437834742212431, 49.64175504281890738, -4.000000000000000000 ) ) ;
#414 = CIRCLE ( 'NONE', #394, 6.999999999999997335 ) ;
#415 = AXIS2_PLACEMENT_3D ( 'NONE', #599, #701, #1078 ) ;
#416 = CARTESIAN_POINT ( 'NONE',  ( 7.000000000000012434, 46.36029765733795216, -86.00000000000000000 ) ) ;
#417 = VERTEX_POINT ( 'NONE', #514 ) ;
#418 = LINE ( 'NONE', #1238, #197 ) ;
#419 = DIRECTION ( 'NONE',  ( 1.000000000000000000, 2.375064099840651018E-16, -0.000000000000000000 ) ) ;
#420 = DIRECTION ( 'NONE',  ( 1.114995439670319060E-15, -1.328799820953256806E-15, 1.000000000000000000 ) ) ;
#421 = ORIENTED_EDGE ( 'NONE', *, *, #1273, .F. ) ;
#422 = CIRCLE ( 'NONE', #214, 4.000000000000000888 ) ;
#423 = ORIENTED_EDGE ( 'NONE', *, *, #119, .T. ) ;
#424 = DIRECTION ( 'NONE',  ( -0.6427876096865378086, 0.7660444431189792347, 0.000000000000000000 ) ) ;
#425 = DIRECTION ( 'NONE',  ( -0.6427876096865421385, 0.7660444431189757930, 0.000000000000000000 ) ) ;
#426 = ORIENTED_EDGE ( 'NONE', *, *, #815, .T. ) ;
#427 = AXIS2_PLACEMENT_3D ( 'NONE', #158, #572, #786 ) ;
#428 = DIRECTION ( 'NONE',  ( -0.000000000000000000, -0.000000000000000000, -1.000000000000000000 ) ) ;
#429 =( NAMED_UNIT ( * ) SI_UNIT ( $, .STERADIAN. ) SOLID_ANGLE_UNIT ( ) );
#430 = LINE ( 'NONE', #1138, #694 ) ;
#431 = DIRECTION ( 'NONE',  ( -0.6427876096865421385, 0.7660444431189757930, -8.673617379884033500E-16 ) ) ;
#432 = VECTOR ( 'NONE', #1093, 1000.000000000000000 ) ;
#433 = ADVANCED_FACE ( 'NONE', ( #1223 ), #521, .F. ) ;
#434 = CARTESIAN_POINT ( 'NONE',  ( -23.89721652135824925, 71.26463052188559288, -41.64999999999998437 ) ) ;
#435 = EDGE_CURVE ( 'NONE', #575, #684, #91, .T. ) ;
#436 = ORIENTED_EDGE ( 'NONE', *, *, #1232, .F. ) ;
#437 = LINE ( 'NONE', #849, #343 ) ;
#438 = VERTEX_POINT ( 'NONE', #1119 ) ;
#439 = DIRECTION ( 'NONE',  ( 1.000000000000000000, 0.000000000000000000, 0.000000000000000000 ) ) ;
#440 = EDGE_CURVE ( 'NONE', #60, #287, #388, .T. ) ;
#441 = DIRECTION ( 'NONE',  ( -0.6427876096865410283, 0.7660444431189765702, -0.000000000000000000 ) ) ;
#442 = ORIENTED_EDGE ( 'NONE', *, *, #1047, .T. ) ;
#443 = LINE ( 'NONE', #863, #1274 ) ;
#444 = CARTESIAN_POINT ( 'NONE',  ( -37.71715012961888647, 87.73458604894359780, -41.64999999999999147 ) ) ;
#445 = DIRECTION ( 'NONE',  ( 0.7660444431189757930, 0.6427876096865420275, -0.000000000000000000 ) ) ;
#446 = CARTESIAN_POINT ( 'NONE',  ( -7.000000000000012434, 47.48760968505275315, -85.99999999999998579 ) ) ;
#447 = AXIS2_PLACEMENT_3D ( 'NONE', #107, #9, #837 ) ;
#448 = ORIENTED_EDGE ( 'NONE', *, *, #519, .T. ) ;
#449 = FACE_OUTER_BOUND ( 'NONE', #1051, .T. ) ;
#450 = EDGE_CURVE ( 'NONE', #621, #557, #920, .T. ) ;
#451 = EDGE_CURVE ( 'NONE', #511, #937, #400, .T. ) ;
#452 = FACE_BOUND ( 'NONE', #545, .T. ) ;
#453 = CARTESIAN_POINT ( 'NONE',  ( -20.58686033147254335, 67.31950163982286028, 0.000000000000000000 ) ) ;
#454 = PLANE ( 'NONE',  #503 ) ;
#455 = ORIENTED_EDGE ( 'NONE', *, *, #473, .T. ) ;
#456 = CIRCLE ( 'NONE', #348, 6.999999999999997335 ) ;
#457 = CIRCLE ( 'NONE', #740, 2.249999999999977796 ) ;
#458 = CARTESIAN_POINT ( 'NONE',  ( -3.469446951953614189E-15, 0.000000000000000000, -82.00000000000000000 ) ) ;
#459 = CARTESIAN_POINT ( 'NONE',  ( -29.25952762319104039, 66.76511725407983988, -41.64999999999998437 ) ) ;
#460 = DIRECTION ( 'NONE',  ( 1.000000000000000000, 0.000000000000000000, 0.000000000000000000 ) ) ;
#461 = DIRECTION ( 'NONE',  ( 0.6427876096865410283, -0.7660444431189765702, -0.000000000000000000 ) ) ;
#462 = ORIENTED_EDGE ( 'NONE', *, *, #81, .T. ) ;
#463 = CARTESIAN_POINT ( 'NONE',  ( 7.000000000000014211, 50.00000000000000000, 4.000000000000000000 ) ) ;
#464 = DIRECTION ( 'NONE',  ( 1.000000000000000000, 0.000000000000000000, -0.000000000000000000 ) ) ;
#465 = DIRECTION ( 'NONE',  ( -0.6427876096865435818, 0.7660444431189743497, 0.000000000000000000 ) ) ;
#466 = LINE ( 'NONE', #253, #157 ) ;
#467 = AXIS2_PLACEMENT_3D ( 'NONE', #97, #775, #1174 ) ;
#468 = VERTEX_POINT ( 'NONE', #4 ) ;
#469 = LINE ( 'NONE', #476, #1252 ) ;
#470 = DIRECTION ( 'NONE',  ( 0.7660444431189757930, 0.6427876096865420275, -0.000000000000000000 ) ) ;
#471 = DIRECTION ( 'NONE',  ( 1.000000000000000000, 0.000000000000000000, 0.000000000000000000 ) ) ;
#472 = EDGE_CURVE ( 'NONE', #807, #474, #601, .T. ) ;
#473 = EDGE_CURVE ( 'NONE', #1024, #468, #1129, .T. ) ;
#474 = VERTEX_POINT ( 'NONE', #609 ) ;
#475 = PRODUCT_DEFINITION ( 'NON CONOSCIUTO', '', #161, #989 ) ;
#476 = CARTESIAN_POINT ( 'NONE',  ( -7.000000000000012434, 47.48760968505275315, 1.734723475976807094E-15 ) ) ;
#477 = CIRCLE ( 'NONE', #549, 1.200000000000009726 ) ;
#478 = CARTESIAN_POINT ( 'NONE',  ( 4.660444431189778136, 52.78817375420338465, 4.000000000000000000 ) ) ;
#479 = VERTEX_POINT ( 'NONE', #93 ) ;
#480 = ADVANCED_FACE ( 'NONE', ( #411 ), #925, .F. ) ;
#481 = EDGE_LOOP ( 'NONE', ( #809, #321, #147, #1286 ) ) ;
#482 = CARTESIAN_POINT ( 'NONE',  ( -23.15801077021872345, 70.38367941229877545, -4.000000000000003553 ) ) ;
#483 = ORIENTED_EDGE ( 'NONE', *, *, #166, .F. ) ;
#484 = DIRECTION ( 'NONE',  ( 0.000000000000000000, 0.000000000000000000, 1.000000000000000000 ) ) ;
#485 = EDGE_LOOP ( 'NONE', ( #486, #821, #276, #747 ) ) ;
#486 = ORIENTED_EDGE ( 'NONE', *, *, #31, .F. ) ;
#487 = FACE_BOUND ( 'NONE', #183, .T. ) ;
#488 = EDGE_CURVE ( 'NONE', #615, #596, #1292, .T. ) ;
#489 = CARTESIAN_POINT ( 'NONE',  ( -7.000000000000000888, 0.000000000000000000, 4.000000000000000000 ) ) ;
#490 = ADVANCED_FACE ( 'NONE', ( #295 ), #618, .F. ) ;
#491 = EDGE_LOOP ( 'NONE', ( #1110, #1112, #745, #106 ) ) ;
#492 = DIRECTION ( 'NONE',  ( 0.7660444431189757930, 0.6427876096865420275, 0.000000000000000000 ) ) ;
#493 = CIRCLE ( 'NONE', #131, 2.249999999999989786 ) ;
#494 = AXIS2_PLACEMENT_3D ( 'NONE', #527, #1209, #1113 ) ;
#495 = AXIS2_PLACEMENT_3D ( 'NONE', #1099, #86, #391 ) ;
#496 = VECTOR ( 'NONE', #1073, 1000.000000000000000 ) ;
#497 = VERTEX_POINT ( 'NONE', #416 ) ;
#498 = DIRECTION ( 'NONE',  ( -0.000000000000000000, -0.000000000000000000, 1.000000000000000000 ) ) ;
#499 = ORIENTED_EDGE ( 'NONE', *, *, #172, .T. ) ;
#500 = PRODUCT ( 'ELP-0036', 'ELP-0036', '', ( #1023 ) ) ;
#501 = LINE ( 'NONE', #271, #77 ) ;
#502 = EDGE_LOOP ( 'NONE', ( #37, #975 ) ) ;
#503 = AXIS2_PLACEMENT_3D ( 'NONE', #162, #1068, #492 ) ;
#504 = EDGE_CURVE ( 'NONE', #1225, #315, #649, .T. ) ;
#505 = VECTOR ( 'NONE', #379, 1000.000000000000000 ) ;
#506 = LINE ( 'NONE', #867, #1235 ) ;
#507 = ORIENTED_EDGE ( 'NONE', *, *, #294, .F. ) ;
#508 = DIRECTION ( 'NONE',  ( -0.6427876096865435818, 0.7660444431189743497, 0.000000000000000000 ) ) ;
#509 = ORIENTED_EDGE ( 'NONE', *, *, #556, .T. ) ;
#510 = APPLICATION_PROTOCOL_DEFINITION ( 'draft international standard', 'automotive_design', 1998, #1089 ) ;
#511 = VERTEX_POINT ( 'NONE', #1027 ) ;
#512 = CARTESIAN_POINT ( 'NONE',  ( -36.92956768302529724, 91.46315331933280390, -82.00000000000000000 ) ) ;
#513 = EDGE_CURVE ( 'NONE', #737, #399, #278, .T. ) ;
#514 = CARTESIAN_POINT ( 'NONE',  ( -36.19036193188579631, 90.58220220974600068, -41.64999999999999147 ) ) ;
#515 = ORIENTED_EDGE ( 'NONE', *, *, #200, .T. ) ;
#516 = CARTESIAN_POINT ( 'NONE',  ( -21.59908319200127735, 73.19299335094524395, -30.04999999999999361 ) ) ;
#517 = ORIENTED_EDGE ( 'NONE', *, *, #237, .F. ) ;
#518 = DIRECTION ( 'NONE',  ( 0.7660444431189786796, 0.6427876096865383637, 0.000000000000000000 ) ) ;
#519 = EDGE_CURVE ( 'NONE', #268, #1205, #906, .T. ) ;
#520 = CIRCLE ( 'NONE', #946, 1.199999999999997069 ) ;
#521 = CYLINDRICAL_SURFACE ( 'NONE', #711, 2.249999999999977796 ) ;
#522 = EDGE_LOOP ( 'NONE', ( #903, #1100, #1246, #142 ) ) ;
#523 = CARTESIAN_POINT ( 'NONE',  ( -31.81940618601731430, 85.37309999653697901, -36.64999999999999147 ) ) ;
#524 = ORIENTED_EDGE ( 'NONE', *, *, #1167, .T. ) ;
#525 = FACE_OUTER_BOUND ( 'NONE', #491, .T. ) ;
#526 = VECTOR ( 'NONE', #858, 1000.000000000000000 ) ;
#527 = CARTESIAN_POINT ( 'NONE',  ( -37.71715012961888647, 87.73458604894359780, -30.04999999999999361 ) ) ;
#528 = ORIENTED_EDGE ( 'NONE', *, *, #385, .F. ) ;
#529 = EDGE_CURVE ( 'NONE', #270, #791, #901, .T. ) ;
#530 = ORIENTED_EDGE ( 'NONE', *, *, #81, .F. ) ;
#531 = CARTESIAN_POINT ( 'NONE',  ( -2.999999999999995559, 46.36029765733798058, 0.000000000000000000 ) ) ;
#532 = DIRECTION ( 'NONE',  ( 0.7660444431189757930, 0.6427876096865420275, -0.000000000000000000 ) ) ;
#533 = ORIENTED_EDGE ( 'NONE', *, *, #900, .T. ) ;
#534 = LINE ( 'NONE', #243, #542 ) ;
#535 = CARTESIAN_POINT ( 'NONE',  ( -24.66856165298209547, 72.18388385362837312, -30.04999999999999361 ) ) ;
#536 = ORIENTED_EDGE ( 'NONE', *, *, #774, .F. ) ;
#537 = EDGE_CURVE ( 'NONE', #315, #1225, #1173, .T. ) ;
#538 = CARTESIAN_POINT ( 'NONE',  ( -18.28872700211557856, 69.24786446888251135, -4.000000000000000000 ) ) ;
#539 = VECTOR ( 'NONE', #1021, 1000.000000000000000 ) ;
#540 = FACE_OUTER_BOUND ( 'NONE', #1022, .T. ) ;
#541 = APPLICATION_CONTEXT ( 'automotive_design' ) ;
#542 = VECTOR ( 'NONE', #1040, 1000.000000000000000 ) ;
#543 = ORIENTED_EDGE ( 'NONE', *, *, #830, .T. ) ;
#544 = CARTESIAN_POINT ( 'NONE',  ( -7.000000000000012434, 47.48760968505273894, 4.000000000000000000 ) ) ;
#545 = EDGE_LOOP ( 'NONE', ( #686, #262 ) ) ;
#546 = LINE ( 'NONE', #567, #179 ) ;
#547 = AXIS2_PLACEMENT_3D ( 'NONE', #696, #61, #1294 ) ;
#548 = EDGE_CURVE ( 'NONE', #1127, #255, #715, .T. ) ;
#549 = AXIS2_PLACEMENT_3D ( 'NONE', #535, #738, #296 ) ;
#550 = AXIS2_PLACEMENT_3D ( 'NONE', #568, #153, #404 ) ;
#551 = CARTESIAN_POINT ( 'NONE',  ( -39.22770101238223361, 89.53479049027316705, 4.000000000000000000 ) ) ;
#552 = ORIENTED_EDGE ( 'NONE', *, *, #261, .T. ) ;
#553 = CARTESIAN_POINT ( 'NONE',  ( -3.469446951953614189E-15, 0.000000000000000000, 4.000000000000000000 ) ) ;
#554 = LINE ( 'NONE', #957, #526 ) ;
#555 = LINE ( 'NONE', #561, #242 ) ;
#556 = EDGE_CURVE ( 'NONE', #937, #737, #762, .T. ) ;
#557 = VERTEX_POINT ( 'NONE', #346 ) ;
#558 = FACE_BOUND ( 'NONE', #708, .T. ) ;
#559 = CARTESIAN_POINT ( 'NONE',  ( -39.47985061720707733, 78.94522389967156073, -36.64999999999999147 ) ) ;
#560 = CARTESIAN_POINT ( 'NONE',  ( -7.000000000000013323, 51.12731202771478678, -86.00000000000000000 ) ) ;
#561 = CARTESIAN_POINT ( 'NONE',  ( -43.85080636307555579, 84.15432611288058240, -41.64999999999999147 ) ) ;
#562 = EDGE_CURVE ( 'NONE', #590, #926, #1240, .T. ) ;
#563 = ORIENTED_EDGE ( 'NONE', *, *, #1133, .T. ) ;
#564 = VECTOR ( 'NONE', #1007, 1000.000000000000000 ) ;
#565 = DIRECTION ( 'NONE',  ( -1.000000000000000000, 0.000000000000000000, 0.000000000000000000 ) ) ;
#566 = DIRECTION ( 'NONE',  ( -0.000000000000000000, -0.000000000000000000, 1.000000000000000000 ) ) ;
#567 = CARTESIAN_POINT ( 'NONE',  ( -20.85987744086175155, 72.31204224135841230, 0.000000000000000000 ) ) ;
#568 = CARTESIAN_POINT ( 'NONE',  ( -1.301042606982605321E-14, 12.00000000000000000, 4.000000000000000000 ) ) ;
#569 = ORIENTED_EDGE ( 'NONE', *, *, #352, .T. ) ;
#570 = AXIS2_PLACEMENT_3D ( 'NONE', #1198, #284, #211 ) ;
#571 = CARTESIAN_POINT ( 'NONE',  ( -20.85987744086175155, 72.31204224135841230, -82.00000000000000000 ) ) ;
#572 = DIRECTION ( 'NONE',  ( 0.000000000000000000, 0.000000000000000000, 1.000000000000000000 ) ) ;
#573 = PLANE ( 'NONE',  #56 ) ;
#574 = DIRECTION ( 'NONE',  ( -0.000000000000000000, -0.000000000000000000, 1.000000000000000000 ) ) ;
#575 = VERTEX_POINT ( 'NONE', #1147 ) ;
#576 = DIRECTION ( 'NONE',  ( 0.7660444431189757930, 0.6427876096865421385, -0.000000000000000000 ) ) ;
#577 = CARTESIAN_POINT ( 'NONE',  ( -39.22770101238223361, 89.53479049027316705, 4.000000000000000000 ) ) ;
#578 = FACE_OUTER_BOUND ( 'NONE', #1041, .T. ) ;
#579 = EDGE_CURVE ( 'NONE', #921, #604, #300, .T. ) ;
#580 = ADVANCED_FACE ( 'NONE', ( #964, #122 ), #33, .T. ) ;
#581 = EDGE_CURVE ( 'NONE', #289, #1046, #1154, .T. ) ;
#582 = ORIENTED_EDGE ( 'NONE', *, *, #594, .F. ) ;
#583 = DIRECTION ( 'NONE',  ( 0.000000000000000000, 0.000000000000000000, -1.000000000000000000 ) ) ;
#584 = ORIENTED_EDGE ( 'NONE', *, *, #644, .T. ) ;
#585 = CARTESIAN_POINT ( 'NONE',  ( 2.249999999999964917, 12.00000000000000000, 4.000000000000000000 ) ) ;
#586 = CIRCLE ( 'NONE', #196, 6.999999999999997335 ) ;
#587 = ORIENTED_EDGE ( 'NONE', *, *, #1232, .T. ) ;
#588 = DIRECTION ( 'NONE',  ( 0.6427876096865412503, -0.7660444431189763481, -0.000000000000000000 ) ) ;
#589 = VECTOR ( 'NONE', #484, 1000.000000000000000 ) ;
#590 = VERTEX_POINT ( 'NONE', #1227 ) ;
#591 = DIRECTION ( 'NONE',  ( 0.000000000000000000, 0.000000000000000000, -1.000000000000000000 ) ) ;
#592 = ORIENTED_EDGE ( 'NONE', *, *, #1149, .T. ) ;
#593 = VERTEX_POINT ( 'NONE', #1043 ) ;
#594 = EDGE_CURVE ( 'NONE', #763, #1127, #239, .T. ) ;
#595 = CARTESIAN_POINT ( 'NONE',  ( 7.000000000000012434, 46.36029765733797348, 4.000000000000000000 ) ) ;
#596 = VERTEX_POINT ( 'NONE', #220 ) ;
#597 = CARTESIAN_POINT ( 'NONE',  ( 6.999999999999993783, 0.000000000000000000, 0.000000000000000000 ) ) ;
#598 = ORIENTED_EDGE ( 'NONE', *, *, #513, .T. ) ;
#599 = CARTESIAN_POINT ( 'NONE',  ( -39.22770101238223361, 89.53479049027316705, 4.000000000000000000 ) ) ;
#600 = ORIENTED_EDGE ( 'NONE', *, *, #504, .T. ) ;
#601 = LINE ( 'NONE', #723, #339 ) ;
#602 = EDGE_CURVE ( 'NONE', #497, #575, #860, .T. ) ;
#603 = DIRECTION ( 'NONE',  ( -0.000000000000000000, -0.000000000000000000, 1.000000000000000000 ) ) ;
#604 = VERTEX_POINT ( 'NONE', #1057 ) ;
#605 = AXIS2_PLACEMENT_3D ( 'NONE', #800, #1203, #288 ) ;
#606 = CARTESIAN_POINT ( 'NONE',  ( -39.47985061720707733, 78.94522389967156073, -36.64999999999999147 ) ) ;
#607 = VECTOR ( 'NONE', #893, 1000.000000000000000 ) ;
#608 = EDGE_LOOP ( 'NONE', ( #309, #716, #110, #724 ) ) ;
#609 = CARTESIAN_POINT ( 'NONE',  ( -2.250000000000002665, 12.00000000000000000, 4.000000000000000888 ) ) ;
#610 =( NAMED_UNIT ( * ) PLANE_ANGLE_UNIT ( ) SI_UNIT ( $, .RADIAN. ) );
#611 = ORIENTED_EDGE ( 'NONE', *, *, #1149, .F. ) ;
#612 = DIRECTION ( 'NONE',  ( -0.6427876096865412503, 0.7660444431189763481, -0.000000000000000000 ) ) ;
#613 = CARTESIAN_POINT ( 'NONE',  ( -26.22715398174439017, 78.70851334140186850, -36.64999999999999147 ) ) ;
#614 = ORIENTED_EDGE ( 'NONE', *, *, #662, .F. ) ;
#615 = VERTEX_POINT ( 'NONE', #434 ) ;
#616 = DIRECTION ( 'NONE',  ( 0.7660444431189787906, 0.6427876096865383637, 0.000000000000000000 ) ) ;
#617 = EDGE_CURVE ( 'NONE', #792, #750, #231, .T. ) ;
#618 = CYLINDRICAL_SURFACE ( 'NONE', #1088, 1.200000000000009726 ) ;
#619 = EDGE_LOOP ( 'NONE', ( #331, #702 ) ) ;
#620 = CARTESIAN_POINT ( 'NONE',  ( -2.999999999999987566, 46.36029765733795927, -86.00000000000000000 ) ) ;
#621 = VERTEX_POINT ( 'NONE', #1134 ) ;
#622 = CARTESIAN_POINT ( 'NONE',  ( -25.43990678460595589, 73.10313718537115335, -30.04999999999999361 ) ) ;
#623 = AXIS2_PLACEMENT_3D ( 'NONE', #1196, #104, #508 ) ;
#624 = ADVANCED_FACE ( 'NONE', ( #1050 ), #736, .F. ) ;
#625 = VECTOR ( 'NONE', #845, 1000.000000000000227 ) ;
#626 = VECTOR ( 'NONE', #757, 1000.000000000000000 ) ;
#627 = MECHANICAL_DESIGN_GEOMETRIC_PRESENTATION_REPRESENTATION (  '', ( #280 ), #50 ) ;
#628 = CARTESIAN_POINT ( 'NONE',  ( -35.41901680026194299, 89.66294887800323465, -30.04999999999999361 ) ) ;
#629 = ORIENTED_EDGE ( 'NONE', *, *, #768, .F. ) ;
#630 = EDGE_LOOP ( 'NONE', ( #811, #201, #584, #524 ) ) ;
#631 = DIRECTION ( 'NONE',  ( 7.975740119433583754E-16, -1.595148023886716751E-15, 1.000000000000000000 ) ) ;
#632 = VECTOR ( 'NONE', #330, 1000.000000000000000 ) ;
#633 = AXIS2_PLACEMENT_3D ( 'NONE', #560, #971, #139 ) ;
#634 = ADVANCED_BREP_SHAPE_REPRESENTATION ( 'ELP-0036', ( #10, #116 ), #1098 ) ;
#635 = LINE ( 'NONE', #337, #1036 ) ;
#636 = ADVANCED_FACE ( 'NONE', ( #540 ), #847, .F. ) ;
#637 = EDGE_LOOP ( 'NONE', ( #911, #887, #881, #384 ) ) ;
#638 = EDGE_CURVE ( 'NONE', #399, #187, #635, .T. ) ;
#639 = CARTESIAN_POINT ( 'NONE',  ( -3.469446951953614189E-15, 0.000000000000000000, 4.000000000000000000 ) ) ;
#640 = ORIENTED_EDGE ( 'NONE', *, *, #830, .F. ) ;
#641 = LINE ( 'NONE', #1025, #625 ) ;
#642 = DIRECTION ( 'NONE',  ( 1.000000000000000000, 0.000000000000000000, -0.000000000000000000 ) ) ;
#643 = ORIENTED_EDGE ( 'NONE', *, *, #246, .F. ) ;
#644 = EDGE_CURVE ( 'NONE', #210, #417, #555, .T. ) ;
#645 = DIRECTION ( 'NONE',  ( 0.000000000000000000, 0.000000000000000000, 1.000000000000000000 ) ) ;
#646 = FILL_AREA_STYLE_COLOUR ( '', #389 ) ;
#647 = DIRECTION ( 'NONE',  ( -0.6427876096865435818, 0.7660444431189743497, 0.000000000000000000 ) ) ;
#648 = AXIS2_PLACEMENT_3D ( 'NONE', #531, #18, #935 ) ;
#649 = CIRCLE ( 'NONE', #1251, 1.200000000000007727 ) ;
#650 = CARTESIAN_POINT ( 'NONE',  ( -42.30811609982785626, 82.31581944939505036, -41.64999999999999147 ) ) ;
#651 = ORIENTED_EDGE ( 'NONE', *, *, #655, .T. ) ;
#652 = CARTESIAN_POINT ( 'NONE',  ( -20.85987744086175155, 72.31204224135841230, -78.00000000000000000 ) ) ;
#653 = CARTESIAN_POINT ( 'NONE',  ( -39.22770101238223361, 89.53479049027316705, 0.000000000000000000 ) ) ;
#654 = CARTESIAN_POINT ( 'NONE',  ( -39.22770101238223361, 89.53479049027316705, -82.00000000000000000 ) ) ;
#655 = EDGE_CURVE ( 'NONE', #227, #273, #374, .T. ) ;
#656 = AXIS2_PLACEMENT_3D ( 'NONE', #230, #1, #1020 ) ;
#657 = CYLINDRICAL_SURFACE ( 'NONE', #1076, 1.199999999999997069 ) ;
#658 = ORIENTED_EDGE ( 'NONE', *, *, #1143, .F. ) ;
#659 = CARTESIAN_POINT ( 'NONE',  ( 2.249999999999964917, 12.00000000000000000, -82.00000000000000000 ) ) ;
#660 = LINE ( 'NONE', #577, #675 ) ;
#661 = DIRECTION ( 'NONE',  ( -0.6427876096865396960, 0.7660444431189779024, 0.000000000000000000 ) ) ;
#662 = EDGE_CURVE ( 'NONE', #1005, #187, #135, .T. ) ;
#663 = DIRECTION ( 'NONE',  ( 0.7660444431189757930, 0.6427876096865420275, -0.000000000000000000 ) ) ;
#664 = ORIENTED_EDGE ( 'NONE', *, *, #2, .F. ) ;
#665 = CARTESIAN_POINT ( 'NONE',  ( -3.469446951953614189E-15, 0.000000000000000000, -86.00000000000000000 ) ) ;
#666 = CARTESIAN_POINT ( 'NONE',  ( -31.81940618601732140, 85.37309999653697901, -45.35000000000000142 ) ) ;
#667 = DIRECTION ( 'NONE',  ( -1.000000000000000000, 3.989863994746652373E-16, 0.000000000000000000 ) ) ;
#668 = CARTESIAN_POINT ( 'NONE',  ( -31.56725658119246347, 95.96266658713858533, -82.00000000000000000 ) ) ;
#669 = CIRCLE ( 'NONE', #623, 1.199999999999997069 ) ;
#670 = ORIENTED_EDGE ( 'NONE', *, *, #1056, .T. ) ;
#671 = PLANE ( 'NONE',  #1070 ) ;
#672 = AXIS2_PLACEMENT_3D ( 'NONE', #665, #771, #565 ) ;
#673 = CARTESIAN_POINT ( 'NONE',  ( -43.07946123145170247, 83.23507278113781638, -41.64999999999999147 ) ) ;
#674 = VECTOR ( 'NONE', #518, 1000.000000000000000 ) ;
#675 = VECTOR ( 'NONE', #350, 1000.000000000000227 ) ;
#676 = CYLINDRICAL_SURFACE ( 'NONE', #1118, 1.199999999999997069 ) ;
#677 = PLANE ( 'NONE',  #720 ) ;
#678 = VECTOR ( 'NONE', #1062, 1000.000000000000000 ) ;
#679 = ORIENTED_EDGE ( 'NONE', *, *, #87, .F. ) ;
#680 = AXIS2_PLACEMENT_3D ( 'NONE', #245, #766, #460 ) ;
#681 = DIRECTION ( 'NONE',  ( 1.000000000000000000, 1.595945597898662527E-14, 0.000000000000000000 ) ) ;
#682 = FACE_OUTER_BOUND ( 'NONE', #105, .T. ) ;
#683 = LINE ( 'NONE', #290, #241 ) ;
#684 = VERTEX_POINT ( 'NONE', #832 ) ;
#685 = CARTESIAN_POINT ( 'NONE',  ( -39.47985061720708444, 78.94522389967157494, -45.35000000000000142 ) ) ;
#686 = ORIENTED_EDGE ( 'NONE', *, *, #385, .T. ) ;
#687 = ADVANCED_FACE ( 'NONE', ( #852 ), #657, .F. ) ;
#688 = CARTESIAN_POINT ( 'NONE',  ( -2.249999999999990674, 12.00000000000000000, -86.00000000000000000 ) ) ;
#689 = ORIENTED_EDGE ( 'NONE', *, *, #335, .T. ) ;
#690 = DIRECTION ( 'NONE',  ( -0.000000000000000000, -0.000000000000000000, -1.000000000000000000 ) ) ;
#691 = VERTEX_POINT ( 'NONE', #1140 ) ;
#692 = DIRECTION ( 'NONE',  ( 0.000000000000000000, 0.000000000000000000, -1.000000000000000000 ) ) ;
#693 = EDGE_LOOP ( 'NONE', ( #1019, #221, #923, #1220, #784, #598, #1169, #1097 ) ) ;
#694 = VECTOR ( 'NONE', #844, 1000.000000000000000 ) ;
#695 = ORIENTED_EDGE ( 'NONE', *, *, #344, .F. ) ;
#696 = CARTESIAN_POINT ( 'NONE',  ( 7.000000000000014211, 50.00000000000000000, 4.000000000000000000 ) ) ;
#697 = AXIS2_PLACEMENT_3D ( 'NONE', #392, #275, #402 ) ;
#698 = VERTEX_POINT ( 'NONE', #90 ) ;
#699 = DIRECTION ( 'NONE',  ( 0.7660444431189757930, 0.6427876096865420275, -0.000000000000000000 ) ) ;
#700 = ORIENTED_EDGE ( 'NONE', *, *, #180, .F. ) ;
#701 = DIRECTION ( 'NONE',  ( 0.6427876096865414723, -0.7660444431189763481, 0.000000000000000000 ) ) ;
#702 = ORIENTED_EDGE ( 'NONE', *, *, #1105, .T. ) ;
#703 = DIRECTION ( 'NONE',  ( -0.000000000000000000, -0.000000000000000000, 1.000000000000000000 ) ) ;
#704 = ORIENTED_EDGE ( 'NONE', *, *, #451, .F. ) ;
#705 = LINE ( 'NONE', #167, #432 ) ;
#706 = ORIENTED_EDGE ( 'NONE', *, *, #984, .T. ) ;
#707 = DIRECTION ( 'NONE',  ( 1.000000000000000000, 0.000000000000000000, 0.000000000000000000 ) ) ;
#708 = EDGE_LOOP ( 'NONE', ( #706, #1120 ) ) ;
#709 = DIRECTION ( 'NONE',  ( -1.000000000000000000, 0.000000000000000000, 0.000000000000000000 ) ) ;
#710 = LINE ( 'NONE', #1114, #1054 ) ;
#711 = AXIS2_PLACEMENT_3D ( 'NONE', #1107, #703, #115 ) ;
#712 = EDGE_LOOP ( 'NONE', ( #499, #102, #739, #1135 ) ) ;
#713 = DIRECTION ( 'NONE',  ( 0.000000000000000000, 0.000000000000000000, 1.000000000000000000 ) ) ;
#714 = PRESENTATION_LAYER_ASSIGNMENT (  '', '', ( #280 ) ) ;
#715 = LINE ( 'NONE', #613, #539 ) ;
#716 = ORIENTED_EDGE ( 'NONE', *, *, #302, .T. ) ;
#717 = AXIS2_PLACEMENT_3D ( 'NONE', #1166, #1179, #661 ) ;
#718 = ADVANCED_FACE ( 'NONE', ( #286 ), #454, .F. ) ;
#719 = ORIENTED_EDGE ( 'NONE', *, *, #22, .T. ) ;
#720 = AXIS2_PLACEMENT_3D ( 'NONE', #64, #904, #51 ) ;
#721 = FACE_OUTER_BOUND ( 'NONE', #608, .T. ) ;
#722 = EDGE_CURVE ( 'NONE', #1148, #41, #506, .T. ) ;
#723 = CARTESIAN_POINT ( 'NONE',  ( -2.249999999999990674, 12.00000000000000000, 4.000000000000000000 ) ) ;
#724 = ORIENTED_EDGE ( 'NONE', *, *, #200, .F. ) ;
#725 =( NAMED_UNIT ( * ) PLANE_ANGLE_UNIT ( ) SI_UNIT ( $, .RADIAN. ) );
#726 = EDGE_CURVE ( 'NONE', #593, #557, #260, .T. ) ;
#727 = CYLINDRICAL_SURFACE ( 'NONE', #761, 4.000000000000000888 ) ;
#728 = ADVANCED_FACE ( 'NONE', ( #974 ), #203, .F. ) ;
#729 = DIRECTION ( 'NONE',  ( 0.000000000000000000, -0.000000000000000000, -1.000000000000000000 ) ) ;
#730 = EDGE_LOOP ( 'NONE', ( #895, #378, #125, #611 ) ) ;
#731 = ORIENTED_EDGE ( 'NONE', *, *, #862, .F. ) ;
#732 = DIRECTION ( 'NONE',  ( 5.126706926851766959E-16, -6.109771398253172468E-16, -1.000000000000000000 ) ) ;
#733 = ADVANCED_FACE ( 'NONE', ( #1308 ), #979, .F. ) ;
#734 = VECTOR ( 'NONE', #1084, 1000.000000000000000 ) ;
#735 = VECTOR ( 'NONE', #1060, 1000.000000000000227 ) ;
#736 = PLANE ( 'NONE',  #972 ) ;
#737 = VERTEX_POINT ( 'NONE', #912 ) ;
#738 = DIRECTION ( 'NONE',  ( 0.7660444431189765702, 0.6427876096865412503, -0.000000000000000000 ) ) ;
#739 = ORIENTED_EDGE ( 'NONE', *, *, #352, .F. ) ;
#740 = AXIS2_PLACEMENT_3D ( 'NONE', #812, #1103, #707 ) ;
#741 = DIRECTION ( 'NONE',  ( 0.7660444431189787906, 0.6427876096865383637, -0.000000000000000000 ) ) ;
#742 = VECTOR ( 'NONE', #38, 1000.000000000000000 ) ;
#743 = EDGE_CURVE ( 'NONE', #17, #1046, #1211, .T. ) ;
#744 = DIRECTION ( 'NONE',  ( -0.6427876096865435818, 0.7660444431189743497, 0.000000000000000000 ) ) ;
#745 = ORIENTED_EDGE ( 'NONE', *, *, #655, .F. ) ;
#746 = CARTESIAN_POINT ( 'NONE',  ( -26.22715398174439727, 78.70851334140188271, -45.34999999999999432 ) ) ;
#747 = ORIENTED_EDGE ( 'NONE', *, *, #548, .F. ) ;
#748 = CYLINDRICAL_SURFACE ( 'NONE', #656, 10.00000000000000000 ) ;
#749 = CARTESIAN_POINT ( 'NONE',  ( -30.03087275481489016, 67.68437058582260590, -41.64999999999998437 ) ) ;
#750 = VERTEX_POINT ( 'NONE', #1265 ) ;
#751 = DIRECTION ( 'NONE',  ( 1.000000000000000000, 0.000000000000000000, 0.000000000000000000 ) ) ;
#752 = ADVANCED_FACE ( 'NONE', ( #1004, #1012 ), #677, .F. ) ;
#753 = PRESENTATION_STYLE_ASSIGNMENT (( #1243 ) ) ;
#754 = CARTESIAN_POINT ( 'NONE',  ( -43.07946123145170247, 83.23507278113781638, -30.04999999999999361 ) ) ;
#755 = DIRECTION ( 'NONE',  ( 0.000000000000000000, 0.000000000000000000, 1.000000000000000000 ) ) ;
#756 = ORIENTED_EDGE ( 'NONE', *, *, #2, .T. ) ;
#757 = DIRECTION ( 'NONE',  ( -0.000000000000000000, -0.000000000000000000, -1.000000000000000000 ) ) ;
#758 = LINE ( 'NONE', #1256, #1299 ) ;
#759 = EDGE_CURVE ( 'NONE', #770, #807, #457, .T. ) ;
#760 = CARTESIAN_POINT ( 'NONE',  ( -43.07946123145170247, 83.23507278113781638, -41.64999999999999147 ) ) ;
#761 = AXIS2_PLACEMENT_3D ( 'NONE', #413, #741, #1139 ) ;
#762 = LINE ( 'NONE', #446, #194 ) ;
#763 = VERTEX_POINT ( 'NONE', #298 ) ;
#764 = LINE ( 'NONE', #1255, #279 ) ;
#765 = LINE ( 'NONE', #877, #496 ) ;
#766 = DIRECTION ( 'NONE',  ( -0.000000000000000000, -0.000000000000000000, 1.000000000000000000 ) ) ;
#767 = EDGE_CURVE ( 'NONE', #399, #1229, #1260, .T. ) ;
#768 = EDGE_CURVE ( 'NONE', #187, #621, #466, .T. ) ;
#769 = DIRECTION ( 'NONE',  ( 0.7660444431189765702, 0.6427876096865412503, -0.000000000000000000 ) ) ;
#770 = VERTEX_POINT ( 'NONE', #1117 ) ;
#771 = DIRECTION ( 'NONE',  ( -0.000000000000000000, -0.000000000000000000, 1.000000000000000000 ) ) ;
#772 = FACE_OUTER_BOUND ( 'NONE', #303, .T. ) ;
#773 = PLANE ( 'NONE',  #633 ) ;
#774 = EDGE_CURVE ( 'NONE', #1005, #438, #880, .T. ) ;
#775 = DIRECTION ( 'NONE',  ( 0.7660444431189757930, 0.6427876096865420275, 0.000000000000000000 ) ) ;
#776 = EDGE_CURVE ( 'NONE', #355, #915, #1259, .T. ) ;
#777 = VERTEX_POINT ( 'NONE', #806 ) ;
#778 = FACE_BOUND ( 'NONE', #485, .T. ) ;
#779 = DIRECTION ( 'NONE',  ( -0.6427876096865435818, 0.7660444431189743497, 0.000000000000000000 ) ) ;
#780 = VECTOR ( 'NONE', #588, 1000.000000000000227 ) ;
#781 = CARTESIAN_POINT ( 'NONE',  ( -39.22770101238223361, 89.53479049027316705, 4.000000000000000000 ) ) ;
#782 = VECTOR ( 'NONE', #28, 1000.000000000000000 ) ;
#783 = CARTESIAN_POINT ( 'NONE',  ( 6.999999999999993783, -4.888073874380384804E-14, -86.00000000000000000 ) ) ;
#784 = ORIENTED_EDGE ( 'NONE', *, *, #353, .T. ) ;
#785 = LINE ( 'NONE', #571, #152 ) ;
#786 = DIRECTION ( 'NONE',  ( 1.000000000000000000, 0.000000000000000000, 0.000000000000000000 ) ) ;
#787 = FACE_OUTER_BOUND ( 'NONE', #1151, .T. ) ;
#788 = ORIENTED_EDGE ( 'NONE', *, *, #440, .T. ) ;
#789 = DIRECTION ( 'NONE',  ( 3.989863994746656317E-16, 1.000000000000000000, -0.000000000000000000 ) ) ;
#790 = CARTESIAN_POINT ( 'NONE',  ( -23.15801077021872345, 70.38367941229877545, -4.000000000000003553 ) ) ;
#791 = VERTEX_POINT ( 'NONE', #368 ) ;
#792 = VERTEX_POINT ( 'NONE', #186 ) ;
#793 = DIRECTION ( 'NONE',  ( 1.000000000000000000, 0.000000000000000000, 0.000000000000000000 ) ) ;
#794 = ORIENTED_EDGE ( 'NONE', *, *, #774, .T. ) ;
#795 = LINE ( 'NONE', #1284, #589 ) ;
#796 = VERTEX_POINT ( 'NONE', #783 ) ;
#797 = VECTOR ( 'NONE', #1065, 1000.000000000000000 ) ;
#798 = VECTOR ( 'NONE', #250, 1000.000000000000000 ) ;
#799 = ORIENTED_EDGE ( 'NONE', *, *, #638, .F. ) ;
#800 = CARTESIAN_POINT ( 'NONE',  ( -35.41901680026194299, 89.66294887800323465, -30.04999999999999361 ) ) ;
#801 = AXIS2_PLACEMENT_3D ( 'NONE', #238, #251, #1244 ) ;
#802 = ORIENTED_EDGE ( 'NONE', *, *, #450, .T. ) ;
#803 = CARTESIAN_POINT ( 'NONE',  ( -23.15801077021872345, 70.38367941229877545, -82.00000000000000000 ) ) ;
#804 = ORIENTED_EDGE ( 'NONE', *, *, #594, .T. ) ;
#805 = CIRCLE ( 'NONE', #467, 1.200000000000009726 ) ;
#806 = CARTESIAN_POINT ( 'NONE',  ( -28.52528731110134785, 76.78015051234224586, -45.34999999999999432 ) ) ;
#807 = VERTEX_POINT ( 'NONE', #395 ) ;
#808 = DIRECTION ( 'NONE',  ( 0.7660444431189757930, 0.6427876096865420275, 0.000000000000000000 ) ) ;
#809 = ORIENTED_EDGE ( 'NONE', *, *, #472, .F. ) ;
#810 = DIRECTION ( 'NONE',  ( -1.000000000000000000, 0.000000000000000000, 0.000000000000000000 ) ) ;
#811 = ORIENTED_EDGE ( 'NONE', *, *, #617, .F. ) ;
#812 = CARTESIAN_POINT ( 'NONE',  ( -1.301042606982605321E-14, 12.00000000000000000, 0.000000000000000000 ) ) ;
#813 = ORIENTED_EDGE ( 'NONE', *, *, #1056, .F. ) ;
#814 = ADVANCED_FACE ( 'NONE', ( #1206 ), #292, .F. ) ;
#815 = EDGE_CURVE ( 'NONE', #1277, #192, #805, .T. ) ;
#816 = DIRECTION ( 'NONE',  ( -0.6427876096865435818, 0.7660444431189743497, 0.000000000000000000 ) ) ;
#817 = ORIENTED_EDGE ( 'NONE', *, *, #820, .F. ) ;
#818 = PLANE ( 'NONE',  #98 ) ;
#819 = CARTESIAN_POINT ( 'NONE',  ( -31.56725658119246347, 95.96266658713858533, -86.00000000000000000 ) ) ;
#820 = EDGE_CURVE ( 'NONE', #593, #1199, #1275, .T. ) ;
#821 = ORIENTED_EDGE ( 'NONE', *, *, #854, .F. ) ;
#822 = CIRCLE ( 'NONE', #1014, 2.249999999999977796 ) ;
#823 = LINE ( 'NONE', #101, #782 ) ;
#824 = AXIS2_PLACEMENT_3D ( 'NONE', #749, #532, #1245 ) ;
#825 = FACE_BOUND ( 'NONE', #1288, .T. ) ;
#826 = CARTESIAN_POINT ( 'NONE',  ( -7.000000000000013323, 51.12731202771478678, 0.000000000000000000 ) ) ;
#827 = ORIENTED_EDGE ( 'NONE', *, *, #302, .F. ) ;
#828 =( LENGTH_UNIT ( ) NAMED_UNIT ( * ) SI_UNIT ( .MILLI., .METRE. ) );
#829 = EDGE_CURVE ( 'NONE', #17, #99, #1212, .T. ) ;
#830 = EDGE_CURVE ( 'NONE', #948, #905, #422, .T. ) ;
#831 = DIRECTION ( 'NONE',  ( -2.375064099840651018E-16, 1.000000000000000000, 0.000000000000000000 ) ) ;
#832 = CARTESIAN_POINT ( 'NONE',  ( 4.660444431189781689, 52.78817375420337754, -82.00000000000000000 ) ) ;
#833 = ORIENTED_EDGE ( 'NONE', *, *, #581, .T. ) ;
#834 = DIRECTION ( 'NONE',  ( 0.7660444431189757930, 0.6427876096865420275, -0.000000000000000000 ) ) ;
#835 = ORIENTED_EDGE ( 'NONE', *, *, #31, .T. ) ;
#836 = AXIS2_PLACEMENT_3D ( 'NONE', #916, #498, #1219 ) ;
#837 = DIRECTION ( 'NONE',  ( 1.000000000000000000, 0.000000000000000000, 0.000000000000000000 ) ) ;
#838 = EDGE_CURVE ( 'NONE', #575, #698, #924, .T. ) ;
#839 = VECTOR ( 'NONE', #789, 1000.000000000000000 ) ;
#840 = AXIS2_PLACEMENT_3D ( 'NONE', #1263, #165, #856 ) ;
#841 = CARTESIAN_POINT ( 'NONE',  ( -30.03087275481489016, 67.68437058582260590, -41.64999999999998437 ) ) ;
#842 = ORIENTED_EDGE ( 'NONE', *, *, #767, .T. ) ;
#843 = DIRECTION ( 'NONE',  ( -1.000000000000000000, 0.000000000000000000, 0.000000000000000000 ) ) ;
#844 = DIRECTION ( 'NONE',  ( -0.000000000000000000, -0.000000000000000000, -1.000000000000000000 ) ) ;
#845 = DIRECTION ( 'NONE',  ( 0.6427876096865412503, -0.7660444431189763481, -0.000000000000000000 ) ) ;
#846 = VECTOR ( 'NONE', #878, 1000.000000000000000 ) ;
#847 = CYLINDRICAL_SURFACE ( 'NONE', #824, 1.199999999999997069 ) ;
#848 = ORIENTED_EDGE ( 'NONE', *, *, #644, .F. ) ;
#849 = CARTESIAN_POINT ( 'NONE',  ( 7.000000000000012434, 46.36029765733797348, 4.000000000000000000 ) ) ;
#850 = ORIENTED_EDGE ( 'NONE', *, *, #602, .T. ) ;
#851 = DIRECTION ( 'NONE',  ( 0.000000000000000000, 0.000000000000000000, 1.000000000000000000 ) ) ;
#852 = FACE_OUTER_BOUND ( 'NONE', #730, .T. ) ;
#853 = EDGE_LOOP ( 'NONE', ( #390, #850, #74, #387 ) ) ;
#854 = EDGE_CURVE ( 'NONE', #29, #1261, #24, .T. ) ;
#855 = DIRECTION ( 'NONE',  ( 0.7660444431189757930, 0.6427876096865420275, -0.000000000000000000 ) ) ;
#856 = DIRECTION ( 'NONE',  ( -0.6427876096865411393, 0.7660444431189764591, 0.000000000000000000 ) ) ;
#857 = PRODUCT_RELATED_PRODUCT_CATEGORY ( 'part', '', ( #500 ) ) ;
#858 = DIRECTION ( 'NONE',  ( -0.000000000000000000, -0.000000000000000000, -1.000000000000000000 ) ) ;
#859 = AXIS2_PLACEMENT_3D ( 'NONE', #169, #371, #793 ) ;
#860 = LINE ( 'NONE', #959, #907 ) ;
#861 = EDGE_LOOP ( 'NONE', ( #930, #334, #65, #168 ) ) ;
#862 = EDGE_CURVE ( 'NONE', #468, #438, #941, .T. ) ;
#863 = CARTESIAN_POINT ( 'NONE',  ( -29.25952762319103684, 66.76511725407982567, -30.04999999999999361 ) ) ;
#864 = PLANE ( 'NONE',  #840 ) ;
#865 = CARTESIAN_POINT ( 'NONE',  ( 2.249999999999976907, 12.00000000000000000, 4.000000000000000888 ) ) ;
#866 = CIRCLE ( 'NONE', #1136, 2.249999999999977796 ) ;
#867 = CARTESIAN_POINT ( 'NONE',  ( -2.249999999999990674, 12.00000000000000000, 4.000000000000000000 ) ) ;
#868 = EDGE_LOOP ( 'NONE', ( #1142, #94, #517, #515 ) ) ;
#869 = DIRECTION ( 'NONE',  ( 0.000000000000000000, 0.000000000000000000, -1.000000000000000000 ) ) ;
#870 = CARTESIAN_POINT ( 'NONE',  ( 4.660444431189771031, 52.78817375420338465, 0.000000000000000000 ) ) ;
#871 = DIRECTION ( 'NONE',  ( -0.6427876096865410283, 0.7660444431189765702, -0.000000000000000000 ) ) ;
#872 = EDGE_CURVE ( 'NONE', #557, #684, #641, .T. ) ;
#873 = ADVANCED_FACE ( 'NONE', ( #721 ), #1123, .F. ) ;
#874 = DIRECTION ( 'NONE',  ( 0.7660444431189762371, 0.6427876096865413613, -0.000000000000000000 ) ) ;
#875 = ORIENTED_EDGE ( 'NONE', *, *, #1200, .F. ) ;
#876 = CARTESIAN_POINT ( 'NONE',  ( -7.000000000000013323, 51.12731202771478678, -86.00000000000000000 ) ) ;
#877 = CARTESIAN_POINT ( 'NONE',  ( -33.88759841293416031, 72.28063724453646444, -45.34999999999999432 ) ) ;
#878 = DIRECTION ( 'NONE',  ( -3.989863994746651880E-16, -1.000000000000000000, -0.000000000000000000 ) ) ;
#879 = ADVANCED_FACE ( 'NONE', ( #525 ), #1132, .F. ) ;
#880 = LINE ( 'NONE', #1301, #1075 ) ;
#881 = ORIENTED_EDGE ( 'NONE', *, *, #537, .T. ) ;
#882 = CARTESIAN_POINT ( 'NONE',  ( -2.999999999999995559, 46.36029765733798058, 4.000000000000000000 ) ) ;
#883 = AXIS2_PLACEMENT_3D ( 'NONE', #138, #956, #342 ) ;
#884 = LINE ( 'NONE', #459, #71 ) ;
#885 = DIRECTION ( 'NONE',  ( -0.6427876096865411393, 0.7660444431189764591, -7.975740119433581782E-16 ) ) ;
#886 = VECTOR ( 'NONE', #591, 1000.000000000000000 ) ;
#887 = ORIENTED_EDGE ( 'NONE', *, *, #1276, .T. ) ;
#888 = ADVANCED_FACE ( 'NONE', ( #1037 ), #1239, .F. ) ;
#889 = PLANE ( 'NONE',  #547 ) ;
#890 = CARTESIAN_POINT ( 'NONE',  ( -7.000000000000012434, 47.48760968505273894, 0.000000000000000000 ) ) ;
#891 = ORIENTED_EDGE ( 'NONE', *, *, #1231, .T. ) ;
#892 = ORIENTED_EDGE ( 'NONE', *, *, #189, .T. ) ;
#893 = DIRECTION ( 'NONE',  ( -2.375064099840651018E-16, 1.000000000000000000, -0.000000000000000000 ) ) ;
#894 = FACE_OUTER_BOUND ( 'NONE', #980, .T. ) ;
#895 = ORIENTED_EDGE ( 'NONE', *, *, #488, .F. ) ;
#896 = ORIENTED_EDGE ( 'NONE', *, *, #359, .F. ) ;
#897 = FACE_BOUND ( 'NONE', #502, .T. ) ;
#898 = ORIENTED_EDGE ( 'NONE', *, *, #1281, .T. ) ;
#899 = AXIS2_PLACEMENT_3D ( 'NONE', #882, #583, #383 ) ;
#900 = EDGE_CURVE ( 'NONE', #287, #227, #1230, .T. ) ;
#901 = CIRCLE ( 'NONE', #494, 1.200000000000007727 ) ;
#902 = DIRECTION ( 'NONE',  ( 0.7660444431189757930, 0.6427876096865420275, 0.000000000000000000 ) ) ;
#903 = ORIENTED_EDGE ( 'NONE', *, *, #261, .F. ) ;
#904 = DIRECTION ( 'NONE',  ( 0.000000000000000000, 0.000000000000000000, 1.000000000000000000 ) ) ;
#905 = VERTEX_POINT ( 'NONE', #322 ) ;
#906 = LINE ( 'NONE', #100, #151 ) ;
#907 = VECTOR ( 'NONE', #755, 1000.000000000000000 ) ;
#908 = AXIS2_PLACEMENT_3D ( 'NONE', #1002, #902, #1297 ) ;
#909 = ORIENTED_EDGE ( 'NONE', *, *, #435, .F. ) ;
#910 = CARTESIAN_POINT ( 'NONE',  ( -3.469446951953614189E-15, 0.000000000000000000, 0.000000000000000000 ) ) ;
#911 = ORIENTED_EDGE ( 'NONE', *, *, #529, .F. ) ;
#912 = CARTESIAN_POINT ( 'NONE',  ( -7.000000000000012434, 47.48760968505275315, -86.00000000000000000 ) ) ;
#913 = ADVANCED_FACE ( 'NONE', ( #217 ), #727, .F. ) ;
#914 = ADVANCED_FACE ( 'NONE', ( #825, #225 ), #213, .T. ) ;
#915 = VERTEX_POINT ( 'NONE', #622 ) ;
#916 = CARTESIAN_POINT ( 'NONE',  ( -2.999999999999987566, 46.36029765733795927, -82.00000000000000000 ) ) ;
#917 = ORIENTED_EDGE ( 'NONE', *, *, #166, .T. ) ;
#918 = ORIENTED_EDGE ( 'NONE', *, *, #862, .T. ) ;
#919 = DIRECTION ( 'NONE',  ( -3.989863994746651880E-16, -1.000000000000000000, -0.000000000000000000 ) ) ;
#920 = LINE ( 'NONE', #819, #564 ) ;
#921 = VERTEX_POINT ( 'NONE', #1030 ) ;
#922 = DIRECTION ( 'NONE',  ( 0.7660444431189757930, 0.6427876096865420275, -0.000000000000000000 ) ) ;
#923 = ORIENTED_EDGE ( 'NONE', *, *, #1069, .T. ) ;
#924 = LINE ( 'NONE', #329, #1017 ) ;
#925 = CYLINDRICAL_SURFACE ( 'NONE', #299, 10.00000000000000178 ) ;
#926 = VERTEX_POINT ( 'NONE', #316 ) ;
#927 = ADVANCED_FACE ( 'NONE', ( #30 ), #748, .T. ) ;
#928 = CIRCLE ( 'NONE', #949, 1.199999999999997069 ) ;
#929 = FACE_OUTER_BOUND ( 'NONE', #235, .T. ) ;
#930 = ORIENTED_EDGE ( 'NONE', *, *, #562, .T. ) ;
#931 = CARTESIAN_POINT ( 'NONE',  ( -31.81940618601731430, 85.37309999653697901, -36.64999999999999147 ) ) ;
#932 = CARTESIAN_POINT ( 'NONE',  ( -30.03087275481489016, 67.68437058582260590, -30.04999999999999361 ) ) ;
#933 = ORIENTED_EDGE ( 'NONE', *, *, #1192, .T. ) ;
#934 = ORIENTED_EDGE ( 'NONE', *, *, #13, .T. ) ;
#935 = DIRECTION ( 'NONE',  ( 1.000000000000000000, 9.714451465470119729E-15, 0.000000000000000000 ) ) ;
#936 = CARTESIAN_POINT ( 'NONE',  ( -18.28872700211558211, 69.24786446888251135, -78.00000000000000000 ) ) ;
#937 = VERTEX_POINT ( 'NONE', #103 ) ;
#938 = CARTESIAN_POINT ( 'NONE',  ( -39.22770101238223361, 89.53479049027316705, -86.00000000000000000 ) ) ;
#939 = ORIENTED_EDGE ( 'NONE', *, *, #984, .F. ) ;
#940 = AXIS2_PLACEMENT_3D ( 'NONE', #981, #1091, #1287 ) ;
#941 = LINE ( 'NONE', #1146, #79 ) ;
#942 = VECTOR ( 'NONE', #420, 1000.000000000000000 ) ;
#943 = CIRCLE ( 'NONE', #940, 1.199999999999997069 ) ;
#944 = CARTESIAN_POINT ( 'NONE',  ( -33.88759841293415320, 72.28063724453645023, -36.64999999999999147 ) ) ;
#945 = ORIENTED_EDGE ( 'NONE', *, *, #1095, .F. ) ;
#946 = AXIS2_PLACEMENT_3D ( 'NONE', #282, #256, #1278 ) ;
#947 = CARTESIAN_POINT ( 'NONE',  ( -36.94580499799503315, 86.81533271720081757, -30.04999999999999361 ) ) ;
#948 = VERTEX_POINT ( 'NONE', #408 ) ;
#949 = AXIS2_PLACEMENT_3D ( 'NONE', #145, #1055, #647 ) ;
#950 = FACE_OUTER_BOUND ( 'NONE', #224, .T. ) ;
#951 = AXIS2_PLACEMENT_3D ( 'NONE', #1111, #769, #193 ) ;
#952 = ADVANCED_FACE ( 'NONE', ( #113 ), #818, .F. ) ;
#953 = CARTESIAN_POINT ( 'NONE',  ( -3.469446951953614189E-15, 0.000000000000000000, 4.000000000000000000 ) ) ;
#954 = ORIENTED_EDGE ( 'NONE', *, *, #743, .F. ) ;
#955 = LINE ( 'NONE', #1164, #797 ) ;
#956 = DIRECTION ( 'NONE',  ( 0.000000000000000000, 0.000000000000000000, -1.000000000000000000 ) ) ;
#957 = CARTESIAN_POINT ( 'NONE',  ( 6.999999999999993783, 0.000000000000000000, 4.000000000000000000 ) ) ;
#958 = ADVANCED_FACE ( 'NONE', ( #1258 ), #573, .F. ) ;
#959 = CARTESIAN_POINT ( 'NONE',  ( 7.000000000000012434, 46.36029765733795216, -86.00000000000000000 ) ) ;
#960 = ORIENTED_EDGE ( 'NONE', *, *, #397, .F. ) ;
#961 = CARTESIAN_POINT ( 'NONE',  ( 7.000000000000014211, 50.00000000000000000, 0.000000000000000000 ) ) ;
#962 = CYLINDRICAL_SURFACE ( 'NONE', #366, 1.199999999999997069 ) ;
#963 = DIRECTION ( 'NONE',  ( -0.6427876096865379196, 0.7660444431189791237, 0.000000000000000000 ) ) ;
#964 = FACE_BOUND ( 'NONE', #195, .T. ) ;
#965 = ORIENTED_EDGE ( 'NONE', *, *, #435, .T. ) ;
#966 = CLOSED_SHELL ( 'NONE', ( #40, #490, #687, #969, #1026, #733, #312, #624, #728, #16, #873, #252, #580, #752, #332, #1185, #888, #1087, #1248, #958, #914, #254, #218, #433, #1290, #636, #23, #814, #952, #718, #1122, #968, #69, #480, #396, #927, #913, #879 ) ) ;
#967 = LINE ( 'NONE', #333, #626 ) ;
#968 = ADVANCED_FACE ( 'NONE', ( #62 ), #676, .F. ) ;
#969 = ADVANCED_FACE ( 'NONE', ( #1264 ), #978, .F. ) ;
#970 = FACE_OUTER_BOUND ( 'NONE', #320, .T. ) ;
#971 = DIRECTION ( 'NONE',  ( 1.000000000000000000, 2.375064099840651018E-16, 0.000000000000000000 ) ) ;
#972 = AXIS2_PLACEMENT_3D ( 'NONE', #1038, #247, #226 ) ;
#973 = AXIS2_PLACEMENT_3D ( 'NONE', #1280, #184, #996 ) ;
#974 = FACE_OUTER_BOUND ( 'NONE', #326, .T. ) ;
#975 = ORIENTED_EDGE ( 'NONE', *, *, #579, .F. ) ;
#976 = DIRECTION ( 'NONE',  ( -0.6427876096865420275, 0.7660444431189756820, 0.000000000000000000 ) ) ;
#977 = CARTESIAN_POINT ( 'NONE',  ( 7.000000000000012434, 46.36029765733797348, 0.000000000000000000 ) ) ;
#978 = CYLINDRICAL_SURFACE ( 'NONE', #1302, 1.200000000000007727 ) ;
#979 = CYLINDRICAL_SURFACE ( 'NONE', #550, 2.249999999999977796 ) ;
#980 = EDGE_LOOP ( 'NONE', ( #1003, #756, #695, #802 ) ) ;
#981 = CARTESIAN_POINT ( 'NONE',  ( -24.66856165298209547, 72.18388385362837312, -41.64999999999998437 ) ) ;
#982 = FACE_BOUND ( 'NONE', #1183, .T. ) ;
#983 = CARTESIAN_POINT ( 'NONE',  ( -36.92956768302529724, 91.46315331933280390, 0.000000000000000000 ) ) ;
#984 = EDGE_CURVE ( 'NONE', #185, #41, #1158, .T. ) ;
#985 = ORIENTED_EDGE ( 'NONE', *, *, #815, .F. ) ;
#986 = AXIS2_PLACEMENT_3D ( 'NONE', #953, #25, #642 ) ;
#987 = LINE ( 'NONE', #377, #734 ) ;
#988 = AXIS2_PLACEMENT_3D ( 'NONE', #349, #137, #143 ) ;
#989 = PRODUCT_DEFINITION_CONTEXT ( 'detailed design', #1089, 'design' ) ;
#990 = CIRCLE ( 'NONE', #410, 1.199999999999997069 ) ;
#991 = DIRECTION ( 'NONE',  ( -1.000000000000000000, 0.000000000000000000, 0.000000000000000000 ) ) ;
#992 = CIRCLE ( 'NONE', #973, 3.999999999999999112 ) ;
#993 = ORIENTED_EDGE ( 'NONE', *, *, #340, .F. ) ;
#994 = LINE ( 'NONE', #876, #607 ) ;
#995 = ORIENTED_EDGE ( 'NONE', *, *, #397, .T. ) ;
#996 = DIRECTION ( 'NONE',  ( -0.6427876096865414723, 0.7660444431189762371, 0.000000000000000000 ) ) ;
#997 = ORIENTED_EDGE ( 'NONE', *, *, #236, .F. ) ;
#998 = ORIENTED_EDGE ( 'NONE', *, *, #1008, .F. ) ;
#999 = CARTESIAN_POINT ( 'NONE',  ( -23.15801077021872345, 70.38367941229877545, -78.00000000000000000 ) ) ;
#1000 = UNCERTAINTY_MEASURE_WITH_UNIT (LENGTH_MEASURE( 1.000000000000000082E-05 ), #828, 'distance_accuracy_value', 'NONE');
#1001 = EDGE_CURVE ( 'NONE', #948, #1199, #546, .T. ) ;
#1002 = CARTESIAN_POINT ( 'NONE',  ( -35.41901680026194299, 89.66294887800323465, -41.64999999999999147 ) ) ;
#1003 = ORIENTED_EDGE ( 'NONE', *, *, #872, .T. ) ;
#1004 = FACE_BOUND ( 'NONE', #619, .T. ) ;
#1005 = VERTEX_POINT ( 'NONE', #781 ) ;
#1006 = VECTOR ( 'NONE', #314, 1000.000000000000114 ) ;
#1007 = DIRECTION ( 'NONE',  ( -0.000000000000000000, -0.000000000000000000, 1.000000000000000000 ) ) ;
#1008 = EDGE_CURVE ( 'NONE', #1229, #60, #49, .T. ) ;
#1009 = VECTOR ( 'NONE', #373, 1000.000000000000000 ) ;
#1010 = CARTESIAN_POINT ( 'NONE',  ( -26.22715398174439017, 78.70851334140188271, -36.64999999999999147 ) ) ;
#1011 = ORIENTED_EDGE ( 'NONE', *, *, #820, .T. ) ;
#1012 = FACE_OUTER_BOUND ( 'NONE', #1115, .T. ) ;
#1013 = ORIENTED_EDGE ( 'NONE', *, *, #335, .F. ) ;
#1014 = AXIS2_PLACEMENT_3D ( 'NONE', #1193, #1101, #810 ) ;
#1015 = DIRECTION ( 'NONE',  ( -0.6427876096865379196, 0.7660444431189791237, 0.000000000000000000 ) ) ;
#1016 = VECTOR ( 'NONE', #75, 1000.000000000000000 ) ;
#1017 = VECTOR ( 'NONE', #919, 1000.000000000000000 ) ;
#1018 = DIRECTION ( 'NONE',  ( 0.000000000000000000, 0.000000000000000000, 1.000000000000000000 ) ) ;
#1019 = ORIENTED_EDGE ( 'NONE', *, *, #344, .T. ) ;
#1020 = DIRECTION ( 'NONE',  ( 1.000000000000000000, 0.000000000000000000, 0.000000000000000000 ) ) ;
#1021 = DIRECTION ( 'NONE',  ( -7.975740119433589671E-16, 1.595148023886717934E-15, -1.000000000000000000 ) ) ;
#1022 = EDGE_LOOP ( 'NONE', ( #311, #528, #592, #361 ) ) ;
#1023 = PRODUCT_CONTEXT ( 'NONE', #541, 'mechanical' ) ;
#1024 = VERTEX_POINT ( 'NONE', #453 ) ;
#1025 = CARTESIAN_POINT ( 'NONE',  ( 7.000000000000014211, 50.00000000000000000, -82.00000000000000000 ) ) ;
#1026 = ADVANCED_FACE ( 'NONE', ( #358 ), #1067, .F. ) ;
#1027 = CARTESIAN_POINT ( 'NONE',  ( -7.000000000000000888, 0.000000000000000000, -82.00000000000000000 ) ) ;
#1028 = ORIENTED_EDGE ( 'NONE', *, *, #776, .T. ) ;
#1029 = ORIENTED_EDGE ( 'NONE', *, *, #1086, .F. ) ;
#1030 = CARTESIAN_POINT ( 'NONE',  ( -21.59908319200128446, 73.19299335094525816, -41.64999999999998437 ) ) ;
#1031 = DIRECTION ( 'NONE',  ( 2.375064099840651018E-16, -1.000000000000000000, -0.000000000000000000 ) ) ;
#1032 = ORIENTED_EDGE ( 'NONE', *, *, #537, .F. ) ;
#1033 = CIRCLE ( 'NONE', #908, 1.199999999999997069 ) ;
#1034 = DIRECTION ( 'NONE',  ( 1.000000000000000000, 0.000000000000000000, 0.000000000000000000 ) ) ;
#1035 = SURFACE_SIDE_STYLE ('',( #1131 ) ) ;
#1036 = VECTOR ( 'NONE', #441, 1000.000000000000114 ) ;
#1037 = FACE_OUTER_BOUND ( 'NONE', #1234, .T. ) ;
#1038 = CARTESIAN_POINT ( 'NONE',  ( -31.56725658119246347, 95.96266658713858533, 4.000000000000000000 ) ) ;
#1039 = ORIENTED_EDGE ( 'NONE', *, *, #1207, .T. ) ;
#1040 = DIRECTION ( 'NONE',  ( 0.7660444431189757930, 0.6427876096865420275, -0.000000000000000000 ) ) ;
#1041 = EDGE_LOOP ( 'NONE', ( #587, #1293, #700, #533 ) ) ;
#1042 = DIRECTION ( 'NONE',  ( 0.000000000000000000, 0.000000000000000000, -1.000000000000000000 ) ) ;
#1043 = CARTESIAN_POINT ( 'NONE',  ( -36.92956768302529724, 91.46315331933280390, -82.00000000000000000 ) ) ;
#1044 = ORIENTED_EDGE ( 'NONE', *, *, #117, .F. ) ;
#1045 = DIRECTION ( 'NONE',  ( 1.000000000000000000, 0.000000000000000000, 0.000000000000000000 ) ) ;
#1046 = VERTEX_POINT ( 'NONE', #1152 ) ;
#1047 = EDGE_CURVE ( 'NONE', #210, #792, #928, .T. ) ;
#1048 = LINE ( 'NONE', #351, #846 ) ;
#1049 = AXIS2_PLACEMENT_3D ( 'NONE', #109, #215, #301 ) ;
#1050 = FACE_OUTER_BOUND ( 'NONE', #1090, .T. ) ;
#1051 = EDGE_LOOP ( 'NONE', ( #154, #89, #84, #1216 ) ) ;
#1052 = DIRECTION ( 'NONE',  ( 0.000000000000000000, 0.000000000000000000, 1.000000000000000000 ) ) ;
#1053 = DIRECTION ( 'NONE',  ( 0.7660444431189757930, 0.6427876096865420275, -0.000000000000000000 ) ) ;
#1054 = VECTOR ( 'NONE', #834, 1000.000000000000000 ) ;
#1055 = DIRECTION ( 'NONE',  ( 0.7660444431189765702, 0.6427876096865412503, -0.000000000000000000 ) ) ;
#1056 = EDGE_CURVE ( 'NONE', #192, #1277, #266, .T. ) ;
#1057 = CARTESIAN_POINT ( 'NONE',  ( -23.14177345524898044, 75.03150001443079020, -41.64999999999998437 ) ) ;
#1058 = EDGE_LOOP ( 'NONE', ( #46, #1305, #426, #945 ) ) ;
#1059 = CARTESIAN_POINT ( 'NONE',  ( -1.301042606982605321E-14, 12.00000000000000000, 4.000000000000000888 ) ) ;
#1060 = DIRECTION ( 'NONE',  ( -0.7660444431189762371, -0.6427876096865413613, -0.000000000000000000 ) ) ;
#1061 = DIRECTION ( 'NONE',  ( -0.000000000000000000, -0.000000000000000000, 1.000000000000000000 ) ) ;
#1062 = DIRECTION ( 'NONE',  ( -0.000000000000000000, -0.000000000000000000, -1.000000000000000000 ) ) ;
#1063 = EDGE_CURVE ( 'NONE', #1148, #691, #1257, .T. ) ;
#1064 = VERTEX_POINT ( 'NONE', #865 ) ;
#1065 = DIRECTION ( 'NONE',  ( 0.7660444431189757930, 0.6427876096865420275, -0.000000000000000000 ) ) ;
#1066 = LINE ( 'NONE', #149, #367 ) ;
#1067 = CYLINDRICAL_SURFACE ( 'NONE', #680, 2.249999999999977796 ) ;
#1068 = DIRECTION ( 'NONE',  ( 0.6427876096865420275, -0.7660444431189757930, -1.734624972335812866E-15 ) ) ;
#1069 = EDGE_CURVE ( 'NONE', #497, #796, #1048, .T. ) ;
#1070 = AXIS2_PLACEMENT_3D ( 'NONE', #1184, #576, #1072 ) ;
#1071 = ORIENTED_EDGE ( 'NONE', *, *, #1192, .F. ) ;
#1072 = DIRECTION ( 'NONE',  ( -0.6427876096865421385, 0.7660444431189757930, 0.000000000000000000 ) ) ;
#1073 = DIRECTION ( 'NONE',  ( 0.7660444431189757930, 0.6427876096865420275, -0.000000000000000000 ) ) ;
#1074 = CARTESIAN_POINT ( 'NONE',  ( 4.660444431189771031, 52.78817375420338465, 4.000000000000000000 ) ) ;
#1075 = VECTOR ( 'NONE', #461, 1000.000000000000114 ) ;
#1076 = AXIS2_PLACEMENT_3D ( 'NONE', #841, #1233, #744 ) ;
#1077 = CIRCLE ( 'NONE', #159, 2.249999999999989786 ) ;
#1078 = DIRECTION ( 'NONE',  ( 0.7660444431189762371, 0.6427876096865413613, 0.000000000000000000 ) ) ;
#1079 = ORIENTED_EDGE ( 'NONE', *, *, #1105, .F. ) ;
#1080 = CARTESIAN_POINT ( 'NONE',  ( -34.64767166863809678, 88.74369554626045442, -30.04999999999999361 ) ) ;
#1081 = CARTESIAN_POINT ( 'NONE',  ( -7.000000000000000888, 0.000000000000000000, -86.00000000000000000 ) ) ;
#1082 = CARTESIAN_POINT ( 'NONE',  ( -1.301042606982605321E-14, 12.00000000000000000, -86.00000000000000000 ) ) ;
#1083 = ORIENTED_EDGE ( 'NONE', *, *, #529, .T. ) ;
#1084 = DIRECTION ( 'NONE',  ( -0.000000000000000000, -0.000000000000000000, 1.000000000000000000 ) ) ;
#1085 = DIRECTION ( 'NONE',  ( -0.000000000000000000, -0.000000000000000000, -1.000000000000000000 ) ) ;
#1086 = EDGE_CURVE ( 'NONE', #698, #511, #456, .T. ) ;
#1087 = ADVANCED_FACE ( 'NONE', ( #950 ), #773, .F. ) ;
#1088 = AXIS2_PLACEMENT_3D ( 'NONE', #932, #1213, #198 ) ;
#1089 = APPLICATION_CONTEXT ( 'automotive_design' ) ;
#1090 = EDGE_LOOP ( 'NONE', ( #285, #1039, #5, #1130 ) ) ;
#1091 = DIRECTION ( 'NONE',  ( 0.7660444431189765702, 0.6427876096865412503, -0.000000000000000000 ) ) ;
#1092 = ORIENTED_EDGE ( 'NONE', *, *, #13, .F. ) ;
#1093 = DIRECTION ( 'NONE',  ( 0.7660444431189786796, 0.6427876096865383637, -0.000000000000000000 ) ) ;
#1094 = ORIENTED_EDGE ( 'NONE', *, *, #294, .T. ) ;
#1095 = EDGE_CURVE ( 'NONE', #915, #192, #1172, .T. ) ;
#1096 = CIRCLE ( 'NONE', #219, 2.249999999999977796 ) ;
#1097 = ORIENTED_EDGE ( 'NONE', *, *, #768, .T. ) ;
#1098 =( GEOMETRIC_REPRESENTATION_CONTEXT ( 3 ) GLOBAL_UNCERTAINTY_ASSIGNED_CONTEXT ( ( #1268 ) ) GLOBAL_UNIT_ASSIGNED_CONTEXT ( ( #120, #610, #429 ) ) REPRESENTATION_CONTEXT ( 'NONE', 'WORKASPACE' ) );
#1099 = CARTESIAN_POINT ( 'NONE',  ( -37.71715012961888647, 87.73458604894359780, -30.04999999999999361 ) ) ;
#1100 = ORIENTED_EDGE ( 'NONE', *, *, #272, .F. ) ;
#1101 = DIRECTION ( 'NONE',  ( 0.000000000000000000, 0.000000000000000000, -1.000000000000000000 ) ) ;
#1102 = VERTEX_POINT ( 'NONE', #1074 ) ;
#1103 = DIRECTION ( 'NONE',  ( 0.000000000000000000, 0.000000000000000000, 1.000000000000000000 ) ) ;
#1104 = ORIENTED_EDGE ( 'NONE', *, *, #513, .F. ) ;
#1105 = EDGE_CURVE ( 'NONE', #807, #770, #1096, .T. ) ;
#1106 = EDGE_CURVE ( 'NONE', #240, #1145, #554, .T. ) ;
#1107 = CARTESIAN_POINT ( 'NONE',  ( -1.301042606982605321E-14, 12.00000000000000000, 4.000000000000000000 ) ) ;
#1108 = ORIENTED_EDGE ( 'NONE', *, *, #829, .T. ) ;
#1109 = DIRECTION ( 'NONE',  ( -0.7660444431189786796, -0.6427876096865383637, -0.000000000000000000 ) ) ;
#1110 = ORIENTED_EDGE ( 'NONE', *, *, #440, .F. ) ;
#1111 = CARTESIAN_POINT ( 'NONE',  ( -24.66856165298209547, 72.18388385362837312, -30.04999999999999361 ) ) ;
#1112 = ORIENTED_EDGE ( 'NONE', *, *, #119, .F. ) ;
#1113 = DIRECTION ( 'NONE',  ( -0.6427876096865379196, 0.7660444431189791237, 0.000000000000000000 ) ) ;
#1114 = CARTESIAN_POINT ( 'NONE',  ( -42.30811609982785626, 82.31581944939503614, -30.04999999999999361 ) ) ;
#1115 = EDGE_LOOP ( 'NONE', ( #163, #1309, #1121, #530, #954, #1108, #1189, #76, #1291, #995 ) ) ;
#1116 = AXIS2_PLACEMENT_3D ( 'NONE', #208, #616, #424 ) ;
#1117 = CARTESIAN_POINT ( 'NONE',  ( 2.249999999999964917, 12.00000000000000000, 0.000000000000000000 ) ) ;
#1118 = AXIS2_PLACEMENT_3D ( 'NONE', #760, #133, #465 ) ;
#1119 = CARTESIAN_POINT ( 'NONE',  ( -9.339555568810247621, 53.91548578191817143, 4.000000000000000000 ) ) ;
#1120 = ORIENTED_EDGE ( 'NONE', *, *, #1160, .T. ) ;
#1121 = ORIENTED_EDGE ( 'NONE', *, *, #1001, .T. ) ;
#1122 = ADVANCED_FACE ( 'NONE', ( #787 ), #1306, .F. ) ;
#1123 = PLANE ( 'NONE',  #3 ) ;
#1124 = CARTESIAN_POINT ( 'NONE',  ( -17.00000000000001421, 47.48760968505275315, 4.000000000000000000 ) ) ;
#1125 = ORIENTED_EDGE ( 'NONE', *, *, #451, .T. ) ;
#1126 = CARTESIAN_POINT ( 'NONE',  ( -7.000000000000000888, 0.000000000000000000, -86.00000000000000000 ) ) ;
#1127 = VERTEX_POINT ( 'NONE', #1010 ) ;
#1128 = CARTESIAN_POINT ( 'NONE',  ( -3.469446951953614189E-15, 0.000000000000000000, -86.00000000000000000 ) ) ;
#1129 = LINE ( 'NONE', #826, #1006 ) ;
#1130 = ORIENTED_EDGE ( 'NONE', *, *, #581, .F. ) ;
#1131 = SURFACE_STYLE_FILL_AREA ( #130 ) ;
#1132 = CYLINDRICAL_SURFACE ( 'NONE', #1116, 4.000000000000000888 ) ;
#1133 = EDGE_CURVE ( 'NONE', #255, #29, #1188, .T. ) ;
#1134 = CARTESIAN_POINT ( 'NONE',  ( -31.56725658119246347, 95.96266658713858533, -86.00000000000000000 ) ) ;
#1135 = ORIENTED_EDGE ( 'NONE', *, *, #1106, .T. ) ;
#1136 = AXIS2_PLACEMENT_3D ( 'NONE', #1082, #692, #991 ) ;
#1137 = DIRECTION ( 'NONE',  ( -1.000000000000000000, 0.000000000000000000, 0.000000000000000000 ) ) ;
#1138 = CARTESIAN_POINT ( 'NONE',  ( 4.660444431189781689, 52.78817375420337754, -86.00000000000000000 ) ) ;
#1139 = DIRECTION ( 'NONE',  ( -0.6427876096865378086, 0.7660444431189792347, 0.000000000000000000 ) ) ;
#1140 = CARTESIAN_POINT ( 'NONE',  ( 2.249999999999964917, 12.00000000000000000, -86.00000000000000000 ) ) ;
#1141 = EDGE_CURVE ( 'NONE', #905, #381, #267, .T. ) ;
#1142 = ORIENTED_EDGE ( 'NONE', *, *, #1186, .T. ) ;
#1143 = EDGE_CURVE ( 'NONE', #777, #590, #501, .T. ) ;
#1144 = DIRECTION ( 'NONE',  ( -1.114995439670319848E-15, 1.328799820953257792E-15, -1.000000000000000000 ) ) ;
#1145 = VERTEX_POINT ( 'NONE', #597 ) ;
#1146 = CARTESIAN_POINT ( 'NONE',  ( -9.339555568810247621, 53.91548578191817143, 4.000000000000000000 ) ) ;
#1147 = CARTESIAN_POINT ( 'NONE',  ( 7.000000000000012434, 46.36029765733795216, -82.00000000000000000 ) ) ;
#1148 = VERTEX_POINT ( 'NONE', #688 ) ;
#1149 = EDGE_CURVE ( 'NONE', #596, #604, #683, .T. ) ;
#1150 = LINE ( 'NONE', #233, #1197 ) ;
#1151 = EDGE_LOOP ( 'NONE', ( #190, #206, #1303, #670 ) ) ;
#1152 = CARTESIAN_POINT ( 'NONE',  ( -31.56725658119246347, 95.96266658713858533, 0.000000000000000000 ) ) ;
#1153 = VECTOR ( 'NONE', #141, 1000.000000000000000 ) ;
#1154 = LINE ( 'NONE', #1162, #1153 ) ;
#1155 = ORIENTED_EDGE ( 'NONE', *, *, #617, .T. ) ;
#1156 = FACE_OUTER_BOUND ( 'NONE', #868, .T. ) ;
#1157 = FACE_BOUND ( 'NONE', #401, .T. ) ;
#1158 = CIRCLE ( 'NONE', #1218, 2.249999999999977796 ) ;
#1159 = CARTESIAN_POINT ( 'NONE',  ( 6.999999999999993783, -4.888073874380384804E-14, -86.00000000000000000 ) ) ;
#1160 = EDGE_CURVE ( 'NONE', #41, #185, #822, .T. ) ;
#1161 = EDGE_CURVE ( 'NONE', #381, #1024, #992, .T. ) ;
#1162 = CARTESIAN_POINT ( 'NONE',  ( -31.56725658119246347, 95.96266658713858533, 4.000000000000000000 ) ) ;
#1163 = ORIENTED_EDGE ( 'NONE', *, *, #380, .F. ) ;
#1164 = CARTESIAN_POINT ( 'NONE',  ( -43.85080636307555579, 84.15432611288059661, -30.04999999999999361 ) ) ;
#1165 = DIRECTION ( 'NONE',  ( -0.7660444431189786796, -0.6427876096865383637, -0.000000000000000000 ) ) ;
#1166 = CARTESIAN_POINT ( 'NONE',  ( -22.37042832362513067, 74.11224668268802418, -30.04999999999999361 ) ) ;
#1167 = EDGE_CURVE ( 'NONE', #417, #750, #1033, .T. ) ;
#1168 = DIRECTION ( 'NONE',  ( -0.6427876096865420275, 0.7660444431189757930, 1.734624972335811682E-15 ) ) ;
#1169 = ORIENTED_EDGE ( 'NONE', *, *, #638, .T. ) ;
#1170 = CARTESIAN_POINT ( 'NONE',  ( -31.56725658119246347, 95.96266658713858533, 4.000000000000000000 ) ) ;
#1171 = CARTESIAN_POINT ( 'NONE',  ( -20.58686033147255401, 67.31950163982286028, -82.00000000000000000 ) ) ;
#1172 = LINE ( 'NONE', #257, #742 ) ;
#1173 = CIRCLE ( 'NONE', #605, 1.200000000000007727 ) ;
#1174 = DIRECTION ( 'NONE',  ( -0.6427876096865396960, 0.7660444431189779024, 0.000000000000000000 ) ) ;
#1175 = AXIS2_PLACEMENT_3D ( 'NONE', #1267, #690, #681 ) ;
#1176 = ORIENTED_EDGE ( 'NONE', *, *, #1167, .F. ) ;
#1177 = FACE_BOUND ( 'NONE', #174, .T. ) ;
#1178 = CARTESIAN_POINT ( 'NONE',  ( -2.249999999999990674, 12.00000000000000000, -82.00000000000000000 ) ) ;
#1179 = DIRECTION ( 'NONE',  ( 0.7660444431189757930, 0.6427876096865420275, 0.000000000000000000 ) ) ;
#1180 = AXIS2_PLACEMENT_3D ( 'NONE', #620, #223, #1137 ) ;
#1181 = VECTOR ( 'NONE', #612, 1000.000000000000227 ) ;
#1182 = CARTESIAN_POINT ( 'NONE',  ( -31.56725658119246347, 95.96266658713858533, 0.000000000000000000 ) ) ;
#1183 = EDGE_LOOP ( 'NONE', ( #898, #1028 ) ) ;
#1184 = CARTESIAN_POINT ( 'NONE',  ( -20.85987744086175155, 72.31204224135841230, -82.00000000000000000 ) ) ;
#1185 = ADVANCED_FACE ( 'NONE', ( #578 ), #83, .T. ) ;
#1186 = EDGE_CURVE ( 'NONE', #72, #1145, #414, .T. ) ;
#1187 = LINE ( 'NONE', #653, #735 ) ;
#1188 = LINE ( 'NONE', #95, #505 ) ;
#1189 = ORIENTED_EDGE ( 'NONE', *, *, #172, .F. ) ;
#1190 = CARTESIAN_POINT ( 'NONE',  ( -18.28872700211557856, 69.24786446888251135, -82.00000000000000000 ) ) ;
#1191 = ORIENTED_EDGE ( 'NONE', *, *, #450, .F. ) ;
#1192 = EDGE_CURVE ( 'NONE', #691, #1148, #866, .T. ) ;
#1193 = CARTESIAN_POINT ( 'NONE',  ( -1.301042606982605321E-14, 12.00000000000000000, -82.00000000000000000 ) ) ;
#1194 = ORIENTED_EDGE ( 'NONE', *, *, #353, .F. ) ;
#1195 = ORIENTED_EDGE ( 'NONE', *, *, #1063, .F. ) ;
#1196 = CARTESIAN_POINT ( 'NONE',  ( -22.37042832362513067, 74.11224668268802418, -41.64999999999998437 ) ) ;
#1197 = VECTOR ( 'NONE', #1144, 1000.000000000000000 ) ;
#1198 = CARTESIAN_POINT ( 'NONE',  ( 7.000000000000014211, 50.00000000000000000, -86.00000000000000000 ) ) ;
#1199 = VERTEX_POINT ( 'NONE', #983 ) ;
#1200 = EDGE_CURVE ( 'NONE', #691, #185, #386, .T. ) ;
#1201 = EDGE_CURVE ( 'NONE', #1024, #948, #705, .T. ) ;
#1202 = ORIENTED_EDGE ( 'NONE', *, *, #1086, .T. ) ;
#1203 = DIRECTION ( 'NONE',  ( 0.7660444431189757930, 0.6427876096865420275, 0.000000000000000000 ) ) ;
#1204 = CARTESIAN_POINT ( 'NONE',  ( -36.19036193188580341, 90.58220220974601489, -30.04999999999999361 ) ) ;
#1205 = VERTEX_POINT ( 'NONE', #489 ) ;
#1206 = FACE_OUTER_BOUND ( 'NONE', #26, .T. ) ;
#1207 = EDGE_CURVE ( 'NONE', #1102, #17, #375, .T. ) ;
#1208 = ORIENTED_EDGE ( 'NONE', *, *, #22, .F. ) ;
#1209 = DIRECTION ( 'NONE',  ( 0.7660444431189765702, 0.6427876096865412503, -0.000000000000000000 ) ) ;
#1210 = VERTEX_POINT ( 'NONE', #890 ) ;
#1211 = LINE ( 'NONE', #1182, #1181 ) ;
#1212 = CIRCLE ( 'NONE', #648, 10.00000000000000000 ) ;
#1213 = DIRECTION ( 'NONE',  ( 0.7660444431189757930, 0.6427876096865420275, -0.000000000000000000 ) ) ;
#1214 = ORIENTED_EDGE ( 'NONE', *, *, #317, .F. ) ;
#1215 = CYLINDRICAL_SURFACE ( 'NONE', #324, 1.200000000000007727 ) ;
#1216 = ORIENTED_EDGE ( 'NONE', *, *, #1160, .F. ) ;
#1217 = DIRECTION ( 'NONE',  ( -0.7660444431189756820, -0.6427876096865420275, 0.000000000000000000 ) ) ;
#1218 = AXIS2_PLACEMENT_3D ( 'NONE', #44, #364, #58 ) ;
#1219 = DIRECTION ( 'NONE',  ( -1.000000000000000000, 2.081668171172168513E-15, 0.000000000000000000 ) ) ;
#1220 = ORIENTED_EDGE ( 'NONE', *, *, #246, .T. ) ;
#1221 = CARTESIAN_POINT ( 'NONE',  ( 0.000000000000000000, 0.000000000000000000, 0.000000000000000000 ) ) ;
#1222 = DIRECTION ( 'NONE',  ( -1.000000000000000000, 0.000000000000000000, -0.000000000000000000 ) ) ;
#1223 = FACE_OUTER_BOUND ( 'NONE', #481, .T. ) ;
#1224 = ORIENTED_EDGE ( 'NONE', *, *, #359, .T. ) ;
#1225 = VERTEX_POINT ( 'NONE', #1204 ) ;
#1226 = CARTESIAN_POINT ( 'NONE',  ( -23.15801077021872345, 70.38367941229877545, -78.00000000000000000 ) ) ;
#1227 = CARTESIAN_POINT ( 'NONE',  ( -34.11753951537427554, 83.44473716747735637, -45.35000000000000142 ) ) ;
#1228 = EDGE_LOOP ( 'NONE', ( #1079, #20, #891, #993 ) ) ;
#1229 = VERTEX_POINT ( 'NONE', #68 ) ;
#1230 = LINE ( 'NONE', #1226, #674 ) ;
#1231 = EDGE_CURVE ( 'NONE', #474, #1064, #1077, .T. ) ;
#1232 = EDGE_CURVE ( 'NONE', #227, #905, #795, .T. ) ;
#1233 = DIRECTION ( 'NONE',  ( 0.7660444431189757930, 0.6427876096865420275, -0.000000000000000000 ) ) ;
#1234 = EDGE_LOOP ( 'NONE', ( #1202, #96, #643, #1307 ) ) ;
#1235 = VECTOR ( 'NONE', #574, 1000.000000000000000 ) ;
#1236 = FACE_OUTER_BOUND ( 'NONE', #14, .T. ) ;
#1237 = VECTOR ( 'NONE', #871, 1000.000000000000114 ) ;
#1238 = CARTESIAN_POINT ( 'NONE',  ( -31.56725658119246347, 95.96266658713858533, 4.000000000000000000 ) ) ;
#1239 = CYLINDRICAL_SURFACE ( 'NONE', #447, 6.999999999999997335 ) ;
#1240 = LINE ( 'NONE', #39, #942 ) ;
#1241 = ORIENTED_EDGE ( 'NONE', *, *, #726, .T. ) ;
#1242 = DIRECTION ( 'NONE',  ( -0.000000000000000000, -0.000000000000000000, 1.000000000000000000 ) ) ;
#1243 = SURFACE_STYLE_USAGE ( .BOTH. , #1035 ) ;
#1244 = DIRECTION ( 'NONE',  ( -1.000000000000000000, 0.000000000000000000, 0.000000000000000000 ) ) ;
#1245 = DIRECTION ( 'NONE',  ( -0.6427876096865435818, 0.7660444431189743497, 0.000000000000000000 ) ) ;
#1246 = ORIENTED_EDGE ( 'NONE', *, *, #829, .F. ) ;
#1247 = DIRECTION ( 'NONE',  ( 3.989863994746656317E-16, 1.000000000000000000, -0.000000000000000000 ) ) ;
#1248 = ADVANCED_FACE ( 'NONE', ( #894 ), #1289, .F. ) ;
#1249 = CARTESIAN_POINT ( 'NONE',  ( -31.81940618601731430, 85.37309999653697901, -36.64999999999999147 ) ) ;
#1250 = DIRECTION ( 'NONE',  ( -3.989863994746652373E-16, -1.000000000000000000, 0.000000000000000000 ) ) ;
#1251 = AXIS2_PLACEMENT_3D ( 'NONE', #628, #808, #1015 ) ;
#1252 = VECTOR ( 'NONE', #73, 1000.000000000000000 ) ;
#1253 = DIRECTION ( 'NONE',  ( 0.000000000000000000, -0.000000000000000000, -1.000000000000000000 ) ) ;
#1254 = ORIENTED_EDGE ( 'NONE', *, *, #380, .T. ) ;
#1255 = CARTESIAN_POINT ( 'NONE',  ( -23.15801077021872345, 70.38367941229877545, -82.00000000000000000 ) ) ;
#1256 = CARTESIAN_POINT ( 'NONE',  ( -41.65437834742212431, 49.64175504281890738, -82.00000000000000000 ) ) ;
#1257 = CIRCLE ( 'NONE', #801, 2.249999999999977796 ) ;
#1258 = FACE_OUTER_BOUND ( 'NONE', #853, .T. ) ;
#1259 = CIRCLE ( 'NONE', #951, 1.200000000000009726 ) ;
#1260 = LINE ( 'NONE', #59, #57 ) ;
#1261 = VERTEX_POINT ( 'NONE', #523 ) ;
#1262 = DIRECTION ( 'NONE',  ( 1.000000000000000000, 0.000000000000000000, 0.000000000000000000 ) ) ;
#1263 = CARTESIAN_POINT ( 'NONE',  ( -7.000000000000013323, 51.12731202771478678, 4.000000000000000000 ) ) ;
#1264 = FACE_OUTER_BOUND ( 'NONE', #637, .T. ) ;
#1265 = CARTESIAN_POINT ( 'NONE',  ( -34.64767166863809678, 88.74369554626046863, -41.64999999999999147 ) ) ;
#1266 = EDGE_LOOP ( 'NONE', ( #934, #563, #1163, #658 ) ) ;
#1267 = CARTESIAN_POINT ( 'NONE',  ( -17.00000000000001066, 47.48760968505275315, 4.000000000000000000 ) ) ;
#1268 = UNCERTAINTY_MEASURE_WITH_UNIT (LENGTH_MEASURE( 1.000000000000000082E-05 ), #120, 'distance_accuracy_value', 'NONE');
#1269 = LINE ( 'NONE', #1249, #798 ) ;
#1270 = VECTOR ( 'NONE', #313, 1000.000000000000000 ) ;
#1271 = CARTESIAN_POINT ( 'NONE',  ( -3.469446951953614189E-15, 0.000000000000000000, -82.00000000000000000 ) ) ;
#1272 = AXIS2_PLACEMENT_3D ( 'NONE', #308, #406, #1304 ) ;
#1273 = EDGE_CURVE ( 'NONE', #479, #497, #35, .T. ) ;
#1274 = VECTOR ( 'NONE', #855, 1000.000000000000000 ) ;
#1275 = LINE ( 'NONE', #512, #1270 ) ;
#1276 = EDGE_CURVE ( 'NONE', #270, #315, #710, .T. ) ;
#1277 = VERTEX_POINT ( 'NONE', #516 ) ;
#1278 = DIRECTION ( 'NONE',  ( -0.6427876096865435818, 0.7660444431189743497, 0.000000000000000000 ) ) ;
#1279 = LINE ( 'NONE', #1081, #1009 ) ;
#1280 = CARTESIAN_POINT ( 'NONE',  ( -20.58686033147254690, 67.31950163982286028, -4.000000000000000000 ) ) ;
#1281 = EDGE_CURVE ( 'NONE', #915, #355, #477, .T. ) ;
#1282 = EDGE_LOOP ( 'NONE', ( #1176, #507 ) ) ;
#1283 = FACE_BOUND ( 'NONE', #1282, .T. ) ;
#1284 = CARTESIAN_POINT ( 'NONE',  ( -20.85987744086175155, 72.31204224135841230, -82.00000000000000000 ) ) ;
#1285 = ORIENTED_EDGE ( 'NONE', *, *, #117, .T. ) ;
#1286 = ORIENTED_EDGE ( 'NONE', *, *, #207, .T. ) ;
#1287 = DIRECTION ( 'NONE',  ( -0.6427876096865435818, 0.7660444431189743497, 0.000000000000000000 ) ) ;
#1288 = EDGE_LOOP ( 'NONE', ( #1071, #1195 ) ) ;
#1289 = PLANE ( 'NONE',  #570 ) ;
#1290 = ADVANCED_FACE ( 'NONE', ( #929 ), #1215, .F. ) ;
#1291 = ORIENTED_EDGE ( 'NONE', *, *, #1300, .F. ) ;
#1292 = CIRCLE ( 'NONE', #277, 1.199999999999997069 ) ;
#1293 = ORIENTED_EDGE ( 'NONE', *, *, #1141, .T. ) ;
#1294 = DIRECTION ( 'NONE',  ( -3.989863994746656317E-16, -1.000000000000000000, 0.000000000000000000 ) ) ;
#1295 = CIRCLE ( 'NONE', #495, 1.200000000000007727 ) ;
#1296 = EDGE_LOOP ( 'NONE', ( #442, #1285 ) ) ;
#1297 = DIRECTION ( 'NONE',  ( -0.6427876096865435818, 0.7660444431189743497, 0.000000000000000000 ) ) ;
#1298 = EDGE_LOOP ( 'NONE', ( #933, #34, #939, #875 ) ) ;
#1299 = VECTOR ( 'NONE', #1165, 1000.000000000000000 ) ;
#1300 = EDGE_CURVE ( 'NONE', #1210, #72, #823, .T. ) ;
#1301 = CARTESIAN_POINT ( 'NONE',  ( -7.000000000000013323, 51.12731202771478678, 4.000000000000000000 ) ) ;
#1302 = AXIS2_PLACEMENT_3D ( 'NONE', #754, #445, #963 ) ;
#1303 = ORIENTED_EDGE ( 'NONE', *, *, #1095, .T. ) ;
#1304 = DIRECTION ( 'NONE',  ( -0.6427876096865414723, 0.7660444431189762371, 0.000000000000000000 ) ) ;
#1305 = ORIENTED_EDGE ( 'NONE', *, *, #156, .T. ) ;
#1306 = CYLINDRICAL_SURFACE ( 'NONE', #697, 1.200000000000009726 ) ;
#1307 = ORIENTED_EDGE ( 'NONE', *, *, #134, .T. ) ;
#1308 = FACE_OUTER_BOUND ( 'NONE', #1298, .T. ) ;
#1309 = ORIENTED_EDGE ( 'NONE', *, *, #1201, .T. ) ;
#1310 = DIRECTION ( 'NONE',  ( -0.000000000000000000, -0.000000000000000000, 1.000000000000000000 ) ) ;
#1311 = VERTEX_POINT ( 'NONE', #1126 ) ;
ENDSEC;
END-ISO-10303-21;
