ISO-10303-21;
HEADER;
FILE_DESCRIPTION (( 'STEP AP214' ),
    '1' );
FILE_NAME ('ELP-0053.STEP',
    '2026-04-12T10:06:56',
    ( '' ),
    ( '' ),
    'SwSTEP 2.0',
    'SolidWorks 2024',
    '' );
FILE_SCHEMA (( 'AUTOMOTIVE_DESIGN' ));
ENDSEC;

DATA;
#1 = CARTESIAN_POINT ( 'NONE',  ( 115.9310139695177782, 7.000000000002282619, -3.999999999997553957 ) ) ;
#2 = DIRECTION ( 'NONE',  ( -3.469446951895280390E-16, 1.767048427694967434E-27, 1.000000000000000000 ) ) ;
#3 = CARTESIAN_POINT ( 'NONE',  ( 106.7817393305490725, 5.000000000002280842, -33.78846172206084475 ) ) ;
#4 = ORIENTED_EDGE ( 'NONE', *, *, #77, .T. ) ;
#5 = ORIENTED_EDGE ( 'NONE', *, *, #384, .F. ) ;
#6 = DIRECTION ( 'NONE',  ( 1.000000000000000000, 1.498520175557749939E-26, 3.469446951895280390E-16 ) ) ;
#7 = CARTESIAN_POINT ( 'NONE',  ( 35.04423026334414004, 0.3297807024352745753, -150.1053643807449873 ) ) ;
#8 = AXIS2_PLACEMENT_3D ( 'NONE', #357, #353, #468 ) ;
#9 = FACE_BOUND ( 'NONE', #547, .T. ) ;
#10 = ORIENTED_EDGE ( 'NONE', *, *, #147, .T. ) ;
#11 = AXIS2_PLACEMENT_3D ( 'NONE', #375, #188, #198 ) ;
#12 = UNCERTAINTY_MEASURE_WITH_UNIT (LENGTH_MEASURE( 1.000000000000000082E-05 ), #767, 'distance_accuracy_value', 'NONE');
#13 = VECTOR ( 'NONE', #713, 1000.000000000000114 ) ;
#14 = PLANE ( 'NONE',  #303 ) ;
#15 = CARTESIAN_POINT ( 'NONE',  ( 192.0000000000050022, 120.0000000000011369, 5.481726184086710418E-13 ) ) ;
#16 = ORIENTED_EDGE ( 'NONE', *, *, #764, .F. ) ;
#17 = ORIENTED_EDGE ( 'NONE', *, *, #339, .T. ) ;
#18 = DIRECTION ( 'NONE',  ( -1.486845034160563051E-26, -1.000000000000000000, 1.767048427694962053E-27 ) ) ;
#19 = DIRECTION ( 'NONE',  ( -1.486845034160563051E-26, -1.000000000000000000, -1.312664546287763644E-27 ) ) ;
#20 = EDGE_LOOP ( 'NONE', ( #776, #593, #16, #378 ) ) ;
#21 = CARTESIAN_POINT ( 'NONE',  ( 150.8328211943148176, 0.1471908092617672803, -35.23915172906942672 ) ) ;
#22 = EDGE_CURVE ( 'NONE', #665, #254, #740, .T. ) ;
#23 = CARTESIAN_POINT ( 'NONE',  ( 151.2446516002242731, -2.323433760181688662E-24, -42.25134255528053018 ) ) ;
#24 = CIRCLE ( 'NONE', #122, 116.0000000000065370 ) ;
#25 = VERTEX_POINT ( 'NONE', #328 ) ;
#26 = EDGE_CURVE ( 'NONE', #25, #263, #736, .T. ) ;
#27 = DIRECTION ( 'NONE',  ( -1.486845034160563051E-26, -1.000000000000000000, -1.312664546287763644E-27 ) ) ;
#28 = CARTESIAN_POINT ( 'NONE',  ( 3.999999999992676081, 7.000000000002282619, -115.9310139695178208 ) ) ;
#29 = EDGE_CURVE ( 'NONE', #665, #487, #488, .T. ) ;
#30 = CARTESIAN_POINT ( 'NONE',  ( 41.12141834662968165, 3.034609600642094813E-12, -146.3778612773957377 ) ) ;
#31 = ORIENTED_EDGE ( 'NONE', *, *, #58, .F. ) ;
#32 = ADVANCED_FACE ( 'NONE', ( #279 ), #222, .T. ) ;
#33 = CARTESIAN_POINT ( 'NONE',  ( 41.12141834662003248, 4.999999999997700506, -146.3778612774369492 ) ) ;
#34 = VERTEX_POINT ( 'NONE', #462 ) ;
#35 = CIRCLE ( 'NONE', #8, 112.0000000000062954 ) ;
#36 = EDGE_CURVE ( 'NONE', #34, #132, #738, .T. ) ;
#37 = CARTESIAN_POINT ( 'NONE',  ( 148.4361871541896107, 1.913019568593611996, -34.59697557346493824 ) ) ;
#38 = CARTESIAN_POINT ( 'NONE',  ( 148.1480362417320862, 6.069219201284189626E-12, -34.00234341510303437 ) ) ;
#39 = ADVANCED_FACE ( 'NONE', ( #513 ), #99, .T. ) ;
#40 = CARTESIAN_POINT ( 'NONE',  ( 3.108624468950438313E-12, 120.0000000000000000, 5.891120924417236893E-12 ) ) ;
#41 = CARTESIAN_POINT ( 'NONE',  ( 44.14883376517614266, 5.000000000002280842, -145.4471741807849412 ) ) ;
#42 = CARTESIAN_POINT ( 'NONE',  ( 147.2973609747860166, 0.4141708940790873594, -44.64458982247824537 ) ) ;
#43 = CARTESIAN_POINT ( 'NONE',  ( 44.18561431684727125, 2.924439195802833069, -145.5844410683520209 ) ) ;
#44 = ADVANCED_FACE ( 'NONE', ( #679 ), #625, .F. ) ;
#45 = SURFACE_STYLE_USAGE ( .BOTH. , #585 ) ;
#46 = AXIS2_PLACEMENT_3D ( 'NONE', #522, #341, #745 ) ;
#47 = VECTOR ( 'NONE', #567, 999.9999999999998863 ) ;
#48 = VECTOR ( 'NONE', #258, 1000.000000000000000 ) ;
#49 = CARTESIAN_POINT ( 'NONE',  ( 145.8681973807876489, 1.862196492366656519, -44.26164659161442216 ) ) ;
#50 = CARTESIAN_POINT ( 'NONE',  ( 147.3276555912580079, 6.069219201284189626E-12, -37.57673771092012061 ) ) ;
#51 = CARTESIAN_POINT ( 'NONE',  ( 40.95747565870824758, 5.000000000000004441, -146.4158745994846811 ) ) ;
#52 =( BOUNDED_SURFACE ( )  B_SPLINE_SURFACE ( 2, 3, ( 
 ( #461, #150, #153, #624 ),
 ( #568, #30, #281, #336 ),
 ( #571, #33, #521, #114 ) ),
 .UNSPECIFIED., .F., .F., .T. ) 
 B_SPLINE_SURFACE_WITH_KNOTS ( ( 3, 3 ),
 ( 4, 4 ),
 ( 0.000000000000000000, 1.000000000000000000 ),
 ( 2.843602526481249448, 2.915984005100036303 ),
 .UNSPECIFIED. ) 
 GEOMETRIC_REPRESENTATION_ITEM ( )  RATIONAL_B_SPLINE_SURFACE ( (
 ( 1.000000000000000000, 1.000000000000000000, 1.000000000000000000, 1.000000000000000000),
 ( 1.499999999999999778, 1.499999999999999778, 1.499999999999999778, 1.499999999999999778),
 ( 1.000000000000000000, 1.000000000000000000, 1.000000000000000000, 1.000000000000000000) ) ) 
 REPRESENTATION_ITEM ( '' )  SURFACE ( )  );
#53 = CARTESIAN_POINT ( 'NONE',  ( 148.3651434207991713, 0.1263913578120796632, -44.93070126657956820 ) ) ;
#54 = CARTESIAN_POINT ( 'NONE',  ( 44.16751669750179587, 3.415540421771726898, -145.5168998334586092 ) ) ;
#55 = LINE ( 'NONE', #757, #642 ) ;
#56 = CARTESIAN_POINT ( 'NONE',  ( 145.8771220169574576, 1.840472740074011959, -44.26403794066886377 ) ) ;
#57 = CARTESIAN_POINT ( 'NONE',  ( 35.24143473892050338, 0.1456549003786513363, -150.8413415030759381 ) ) ;
#58 = EDGE_CURVE ( 'NONE', #25, #96, #569, .T. ) ;
#59 = ORIENTED_EDGE ( 'NONE', *, *, #412, .T. ) ;
#60 = AXIS2_PLACEMENT_3D ( 'NONE', #265, #327, #127 ) ;
#61 = LINE ( 'NONE', #371, #320 ) ;
#62 = CARTESIAN_POINT ( 'NONE',  ( 34.99246248877086174, 0.4031559608124032357, -149.9121644158427102 ) ) ;
#63 = EDGE_CURVE ( 'NONE', #184, #496, #90, .T. ) ;
#64 = DIRECTION ( 'NONE',  ( -1.486845034160563051E-26, -1.000000000000000000, -1.312664546287763644E-27 ) ) ;
#65 = ORIENTED_EDGE ( 'NONE', *, *, #171, .T. ) ;
#66 = EDGE_LOOP ( 'NONE', ( #683, #325, #202, #5 ) ) ;
#67 = ORIENTED_EDGE ( 'NONE', *, *, #171, .F. ) ;
#68 = LINE ( 'NONE', #1, #370 ) ;
#69 = CARTESIAN_POINT ( 'NONE',  ( 34.88493650666362811, 0.5747915350962015113, -149.5108719874847907 ) ) ;
#70 = CARTESIAN_POINT ( 'NONE',  ( 148.0353646318116034, 5.000000000000004441, -34.48957550228554680 ) ) ;
#71 = ORIENTED_EDGE ( 'NONE', *, *, #764, .T. ) ;
#72 = EDGE_LOOP ( 'NONE', ( #136, #611, #733, #322 ) ) ;
#73 = FACE_OUTER_BOUND ( 'NONE', #154, .T. ) ;
#74 = CARTESIAN_POINT ( 'NONE',  ( 34.71728936184633341, 1.121076372514389741, -148.8852043252828139 ) ) ;
#75 = CARTESIAN_POINT ( 'NONE',  ( 148.1050902844868631, 3.415540421776231295, -34.50825843461163345 ) ) ;
#76 = ORIENTED_EDGE ( 'NONE', *, *, #363, .F. ) ;
#77 = EDGE_CURVE ( 'NONE', #96, #443, #24, .T. ) ;
#78 = CARTESIAN_POINT ( 'NONE',  ( 45.22598273974214322, 1.646095030573801037E-12, -149.4671488811858922 ) ) ;
#79 = CARTESIAN_POINT ( 'NONE',  ( 33.78846172205584963, 5.000000000000004441, -106.7817393305489020 ) ) ;
#80 = EDGE_CURVE ( 'NONE', #272, #486, #731, .T. ) ;
#81 = ORIENTED_EDGE ( 'NONE', *, *, #231, .T. ) ;
#82 = CARTESIAN_POINT ( 'NONE',  ( 3.108624468950438313E-12, 120.0000000000000000, 5.891120924417236893E-12 ) ) ;
#83 = ORIENTED_EDGE ( 'NONE', *, *, #463, .T. ) ;
#84 = EDGE_CURVE ( 'NONE', #212, #25, #715, .T. ) ;
#85 = EDGE_CURVE ( 'NONE', #487, #630, #622, .T. ) ;
#86 = CARTESIAN_POINT ( 'NONE',  ( 34.67596027225376076, 1.319814670042349425, -148.7309620630928180 ) ) ;
#87 = CARTESIAN_POINT ( 'NONE',  ( 147.2786047498260018, 5.000000000000004441, -37.73772290441149835 ) ) ;
#88 = CARTESIAN_POINT ( 'NONE',  ( 34.48957550228459468, 4.999999999997728040, -148.0353646318108360 ) ) ;
#89 = EDGE_LOOP ( 'NONE', ( #669, #502, #129, #282 ) ) ;
#90 = CIRCLE ( 'NONE', #46, 192.0000000000108002 ) ;
#91 = CARTESIAN_POINT ( 'NONE',  ( 3.108624468950438313E-12, 120.0000000000000000, 5.891120924417236893E-12 ) ) ;
#92 = ORIENTED_EDGE ( 'NONE', *, *, #617, .F. ) ;
#93 = CARTESIAN_POINT ( 'NONE',  ( 148.2694412424644383, 2.426250010429140680, -34.55229614107701508 ) ) ;
#94 = CARTESIAN_POINT ( 'NONE',  ( 152.1073817505717045, -2.330571761538288023E-24, -39.03158980098285724 ) ) ;
#95 = FACE_OUTER_BOUND ( 'NONE', #66, .T. ) ;
#96 = VERTEX_POINT ( 'NONE', #28 ) ;
#97 = CARTESIAN_POINT ( 'NONE',  ( 34.60238832872625636, 1.862196492362126587, -148.4563878318365369 ) ) ;
#98 = CARTESIAN_POINT ( 'NONE',  ( 149.3121835723041499, 0.7188268573091797231, -34.83169810627128271 ) ) ;
#99 = CYLINDRICAL_SURFACE ( 'NONE', #741, 116.0000000000065370 ) ;
#100 = AXIS2_PLACEMENT_3D ( 'NONE', #91, #27, #737 ) ;
#101 = APPLICATION_CONTEXT ( 'automotive_design' ) ;
#102 = CARTESIAN_POINT ( 'NONE',  ( 152.8675249741141045, 2.275957200481570908E-12, -35.78434896370087159 ) ) ;
#103 = FACE_OUTER_BOUND ( 'NONE', #391, .T. ) ;
#104 = DIRECTION ( 'NONE',  ( -1.486845034160563051E-26, -1.000000000000000000, -1.312664546287763644E-27 ) ) ;
#105 = DIRECTION ( 'NONE',  ( -0.2588190451025232930, 1.211690350419398082E-27, 0.9659258262890675351 ) ) ;
#106 = DIRECTION ( 'NONE',  ( -3.469446952011558488E-16, 1.767048427694967075E-27, 1.000000000000000000 ) ) ;
#107 = CARTESIAN_POINT ( 'NONE',  ( 24.12920345916613840, 5.000000000000004441, -109.3699297815774116 ) ) ;
#108 = AXIS2_PLACEMENT_3D ( 'NONE', #752, #115, #685 ) ;
#109 = CIRCLE ( 'NONE', #223, 192.0000000000108002 ) ;
#110 = CARTESIAN_POINT ( 'NONE',  ( 112.0000000000048175, 120.0000000000011369, 2.386979502944086562E-12 ) ) ;
#111 = B_SPLINE_CURVE_WITH_KNOTS ( 'NONE', 3,
 ( #415, #354, #51, #295 ),
 .UNSPECIFIED., .F., .F.,
 ( 4, 4 ),
 ( 0.000000000000000000, 1.000000000000000000 ),
 .UNSPECIFIED. ) ;
#112 = PLANE ( 'NONE',  #553 ) ;
#113 = DIRECTION ( 'NONE',  ( -1.486845034160563051E-26, -1.000000000000000000, -1.312664546287763644E-27 ) ) ;
#114 = CARTESIAN_POINT ( 'NONE',  ( 34.00234341510815739, 4.999999999995452526, -148.1480362417326262 ) ) ;
#115 = DIRECTION ( 'NONE',  ( -1.486845034160563051E-26, -1.000000000000000000, -1.312664546287763644E-27 ) ) ;
#116 = CARTESIAN_POINT ( 'NONE',  ( 145.5960911796618973, 2.855734169475201867, -44.18873595476726734 ) ) ;
#117 = CARTESIAN_POINT ( 'NONE',  ( 35.52530509852132923, 0.01839813547836539193, -151.9007601078690470 ) ) ;
#118 = CARTESIAN_POINT ( 'NONE',  ( 148.0353646318116034, 5.000000000000004441, -34.48957550228554680 ) ) ;
#119 = ORIENTED_EDGE ( 'NONE', *, *, #586, .T. ) ;
#120 = ORIENTED_EDGE ( 'NONE', *, *, #647, .F. ) ;
#121 = VECTOR ( 'NONE', #400, 999.9999999999998863 ) ;
#122 = AXIS2_PLACEMENT_3D ( 'NONE', #227, #19, #271 ) ;
#123 = AXIS2_PLACEMENT_3D ( 'NONE', #505, #664, #373 ) ;
#124 = PLANE ( 'NONE',  #224 ) ;
#125 = CARTESIAN_POINT ( 'NONE',  ( 35.00936579071078114, 0.3779872033587168279, -149.9752483974981772 ) ) ;
#126 = CIRCLE ( 'NONE', #438, 112.0000000000062954 ) ;
#127 = DIRECTION ( 'NONE',  ( -3.469446952011557994E-16, 1.767048427694967075E-27, 1.000000000000000000 ) ) ;
#128 = ORIENTED_EDGE ( 'NONE', *, *, #158, .F. ) ;
#129 = ORIENTED_EDGE ( 'NONE', *, *, #252, .T. ) ;
#130 = CARTESIAN_POINT ( 'NONE',  ( 34.97875478797018900, 0.4244801662971232070, -149.8610065799996960 ) ) ;
#131 = CARTESIAN_POINT ( 'NONE',  ( 148.0353643180987433, 4.578504000561112619, -34.48957541822643691 ) ) ;
#132 = VERTEX_POINT ( 'NONE', #291 ) ;
#133 = CARTESIAN_POINT ( 'NONE',  ( 44.24684968933643603, 2.005857728351517988, -145.8129745897020086 ) ) ;
#134 = CARTESIAN_POINT ( 'NONE',  ( -5.273559366969493567E-12, 5.000000000000004441, 4.635181127810028556E-12 ) ) ;
#135 = ORIENTED_EDGE ( 'NONE', *, *, #77, .F. ) ;
#136 = ORIENTED_EDGE ( 'NONE', *, *, #384, .T. ) ;
#137 = ORIENTED_EDGE ( 'NONE', *, *, #36, .F. ) ;
#138 = CLOSED_SHELL ( 'NONE', ( #44, #195, #626, #760, #707, #514, #39, #180, #746, #312, #694, #517, #623, #748, #32, #393, #554, #161, #639 ) ) ;
#139 = VECTOR ( 'NONE', #237, 1000.000000000000000 ) ;
#140 = DIRECTION ( 'NONE',  ( 0.9659258262890692004, 1.479271969470339744E-26, -0.2588190451025173533 ) ) ;
#141 = AXIS2_PLACEMENT_3D ( 'NONE', #82, #710, #551 ) ;
#142 = ORIENTED_EDGE ( 'NONE', *, *, #617, .T. ) ;
#143 = VERTEX_POINT ( 'NONE', #579 ) ;
#144 = DIRECTION ( 'NONE',  ( 1.486845034160563051E-26, 1.000000000000000000, 1.312664546287763644E-27 ) ) ;
#145 = VERTEX_POINT ( 'NONE', #634 ) ;
#146 = VERTEX_POINT ( 'NONE', #230 ) ;
#147 = EDGE_CURVE ( 'NONE', #368, #706, #637, .T. ) ;
#148 = DIRECTION ( 'NONE',  ( 0.2588190451025173533, 5.200171087216552524E-27, 0.9659258262890692004 ) ) ;
#149 = DIRECTION ( 'NONE',  ( 1.486845034160563051E-26, 1.000000000000000000, 1.312664546287763644E-27 ) ) ;
#150 = CARTESIAN_POINT ( 'NONE',  ( 42.47409658173939562, -2.275957200481570908E-12, -151.1929225037144988 ) ) ;
#151 =( GEOMETRIC_REPRESENTATION_CONTEXT ( 3 ) GLOBAL_UNCERTAINTY_ASSIGNED_CONTEXT ( ( #12 ) ) GLOBAL_UNIT_ASSIGNED_CONTEXT ( ( #767, #349, #472 ) ) REPRESENTATION_CONTEXT ( 'NONE', 'WORKASPACE' ) );
#152 = VECTOR ( 'NONE', #413, 1000.000000000000000 ) ;
#153 = CARTESIAN_POINT ( 'NONE',  ( 38.81281460928987315, 2.275957200481570908E-12, -152.1739600515594759 ) ) ;
#154 = EDGE_LOOP ( 'NONE', ( #201, #185, #559, #137 ) ) ;
#155 = PRODUCT_DEFINITION_SHAPE ( 'NONE', 'NONE',  #772 ) ;
#156 = CARTESIAN_POINT ( 'NONE',  ( 150.7962844724179092, 0.1538951876304264776, -35.22936174394306619 ) ) ;
#157 = EDGE_LOOP ( 'NONE', ( #620, #197, #428, #301 ) ) ;
#158 = EDGE_CURVE ( 'NONE', #706, #402, #35, .T. ) ;
#159 = FACE_OUTER_BOUND ( 'NONE', #722, .T. ) ;
#160 = CARTESIAN_POINT ( 'NONE',  ( 3.999999999992676081, 7.000000000002282619, -115.9310139695178208 ) ) ;
#161 = ADVANCED_FACE ( 'NONE', ( #533 ), #687, .T. ) ;
#162 = CARTESIAN_POINT ( 'NONE',  ( 146.6382960529749369, 0.7666931548406704655, -44.46799390891928283 ) ) ;
#163 = CARTESIAN_POINT ( 'NONE',  ( 146.3778612774377450, 5.000000000000004441, -41.12141834662128304 ) ) ;
#164 = FACE_OUTER_BOUND ( 'NONE', #302, .T. ) ;
#165 = CARTESIAN_POINT ( 'NONE',  ( 146.2970138742299469, 1.121076372517507025, -44.37654762473344761 ) ) ;
#166 = CARTESIAN_POINT ( 'NONE',  ( 192.0000000000045475, -2.275957200481570908E-12, 3.164135620181696140E-12 ) ) ;
#167 = CARTESIAN_POINT ( 'NONE',  ( 42.25134255579805398, -8.954686124644365922E-25, -151.2446516001880639 ) ) ;
#168 = CARTESIAN_POINT ( 'NONE',  ( 146.9226815364301046, 0.5747915350986607663, -44.54419476955023072 ) ) ;
#169 = DIRECTION ( 'NONE',  ( -1.486845034160563051E-26, -1.000000000000000000, -1.312664546287763644E-27 ) ) ;
#170 = CARTESIAN_POINT ( 'NONE',  ( 34.52947769187732519, 2.855734169469095196, -148.1842816307041062 ) ) ;
#171 = EDGE_CURVE ( 'NONE', #212, #208, #417, .T. ) ;
#172 = AXIS2_PLACEMENT_3D ( 'NONE', #480, #169, #475 ) ;
#173 = AXIS2_PLACEMENT_3D ( 'NONE', #418, #113, #589 ) ;
#174 = AXIS2_PLACEMENT_3D ( 'NONE', #515, #148, #395 ) ;
#175 = VECTOR ( 'NONE', #544, 1000.000000000000000 ) ;
#176 = CARTESIAN_POINT ( 'NONE',  ( 145.8018682674486968, 2.028338448149373363, -44.24387375926058752 ) ) ;
#177 = CARTESIAN_POINT ( 'NONE',  ( 145.3011346136711097, 5.000000000000004441, -44.62712493517609147 ) ) ;
#178 = EDGE_CURVE ( 'NONE', #254, #429, #459, .T. ) ;
#179 = CARTESIAN_POINT ( 'NONE',  ( 39.03158980149984814, -8.491203644805986177E-25, -152.1073817505333921 ) ) ;
#180 = ADVANCED_FACE ( 'NONE', ( #410 ), #112, .F. ) ;
#181 =( LENGTH_UNIT ( ) NAMED_UNIT ( * ) SI_UNIT ( .MILLI., .METRE. ) );
#182 = DIRECTION ( 'NONE',  ( 1.486845034160563051E-26, 1.000000000000000000, 1.312664546287763644E-27 ) ) ;
#183 = CARTESIAN_POINT ( 'NONE',  ( 35.24713909671326917, 0.1418608838332784672, -150.8626304561830977 ) ) ;
#184 = VERTEX_POINT ( 'NONE', #632 ) ;
#185 = ORIENTED_EDGE ( 'NONE', *, *, #775, .T. ) ;
#186 = ORIENTED_EDGE ( 'NONE', *, *, #147, .F. ) ;
#187 = APPLICATION_PROTOCOL_DEFINITION ( 'draft international standard', 'automotive_design', 1998, #672 ) ;
#188 = DIRECTION ( 'NONE',  ( 1.486845034160563051E-26, 1.000000000000000000, 1.312664546287763644E-27 ) ) ;
#189 = CARTESIAN_POINT ( 'NONE',  ( 115.9310139695177782, 7.000000000002282619, -3.999999999997553957 ) ) ;
#190 = FACE_OUTER_BOUND ( 'NONE', #72, .T. ) ;
#191 = ORIENTED_EDGE ( 'NONE', *, *, #726, .T. ) ;
#192 = CARTESIAN_POINT ( 'NONE',  ( 3.999999999992787103, 120.0000000000011369, -115.9310139695179060 ) ) ;
#193 = CARTESIAN_POINT ( 'NONE',  ( 45.04462815290252564, 0.04880938752888747123, -148.7903243489148508 ) ) ;
#194 = VECTOR ( 'NONE', #684, 1000.000000000000000 ) ;
#195 = ADVANCED_FACE ( 'NONE', ( #103 ), #477, .F. ) ;
#196 = CARTESIAN_POINT ( 'NONE',  ( -2.997602166487922659E-12, 120.0000000000011369, -112.0000000000023448 ) ) ;
#197 = ORIENTED_EDGE ( 'NONE', *, *, #698, .T. ) ;
#198 = DIRECTION ( 'NONE',  ( -3.469446952011567855E-16, 0.000000000000000000, 1.000000000000000000 ) ) ;
#199 = CARTESIAN_POINT ( 'NONE',  ( 44.25623383635474539, 1.913019568592642550, -145.8479967031600211 ) ) ;
#200 = LINE ( 'NONE', #452, #273 ) ;
#201 = ORIENTED_EDGE ( 'NONE', *, *, #570, .T. ) ;
#202 = ORIENTED_EDGE ( 'NONE', *, *, #270, .F. ) ;
#203 = EDGE_LOOP ( 'NONE', ( #120, #81, #17, #83, #307, #317, #646, #552, #602, #656, #119, #326 ) ) ;
#204 = CARTESIAN_POINT ( 'NONE',  ( 44.23434756833270853, 2.140534885269499643, -145.7663160389136863 ) ) ;
#205 = CARTESIAN_POINT ( 'NONE',  ( 115.9310139695177782, 7.000000000002282619, -3.999999999997553957 ) ) ;
#206 = VERTEX_POINT ( 'NONE', #288 ) ;
#207 = ORIENTED_EDGE ( 'NONE', *, *, #560, .F. ) ;
#208 = VERTEX_POINT ( 'NONE', #529 ) ;
#209 = PRESENTATION_LAYER_ASSIGNMENT (  '', '', ( #460 ) ) ;
#210 = CARTESIAN_POINT ( 'NONE',  ( 112.0000000000056559, 0.000000000000000000, 2.164934898019055254E-12 ) ) ;
#211 = CARTESIAN_POINT ( 'NONE',  ( 44.14883376517614266, 5.000000000002280842, -145.4471741807849412 ) ) ;
#212 = VERTEX_POINT ( 'NONE', #696 ) ;
#213 = PRODUCT_RELATED_PRODUCT_CATEGORY ( 'part', '', ( #283 ) ) ;
#214 = CARTESIAN_POINT ( 'NONE',  ( 34.60840102989755707, 1.808055445136018013, -148.4788275380985283 ) ) ;
#215 = LINE ( 'NONE', #285, #194 ) ;
#216 = CARTESIAN_POINT ( 'NONE',  ( 3.108624468950438313E-12, 120.0000000000000000, 5.891120924417236893E-12 ) ) ;
#217 = CARTESIAN_POINT ( 'NONE',  ( 151.3785147999385003, 0.04880938752676190762, -35.38536989001109134 ) ) ;
#218 = DIRECTION ( 'NONE',  ( 1.486845034160563051E-26, 1.000000000000000000, 1.312664546287763644E-27 ) ) ;
#219 = AXIS2_PLACEMENT_3D ( 'NONE', #88, #619, #516 ) ;
#220 = AXIS2_PLACEMENT_3D ( 'NONE', #407, #346, #243 ) ;
#221 = CARTESIAN_POINT ( 'NONE',  ( 149.7121376430343958, 0.4917568312276385800, -34.93886547653298891 ) ) ;
#222 = PLANE ( 'NONE',  #219 ) ;
#223 = AXIS2_PLACEMENT_3D ( 'NONE', #702, #306, #481 ) ;
#224 = AXIS2_PLACEMENT_3D ( 'NONE', #490, #604, #594 ) ;
#225 = CARTESIAN_POINT ( 'NONE',  ( 34.61709115124966019, 1.733593424828879348, -148.5112595125085875 ) ) ;
#226 = CARTESIAN_POINT ( 'NONE',  ( 149.8364382609669576, 0.4350451896846288524, -34.97217172672671381 ) ) ;
#227 = CARTESIAN_POINT ( 'NONE',  ( -4.718447854656915297E-12, 6.999999999999978684, 3.337607967779376850E-12 ) ) ;
#228 = B_SPLINE_CURVE_WITH_KNOTS ( 'NONE', 3,
 ( #550, #433, #117, #365, #246, #714, #592, #183, #654, #57, #300, #426, #595, #7, #125, #62, #305, #600, #130, #69, #257, #74, #86, #332, #225, #214, #577, #97, #411, #238, #651, #536, #643, #583, #170, #539, #366, #247, #638, #596, #635 ),
 .UNSPECIFIED., .F., .F.,
 ( 4, 1, 1, 1, 1, 1, 1, 2, 2, 1, 1, 1, 1, 2, 2, 2, 1, 1, 1, 1, 2, 2, 1, 1, 1, 1, 1, 2, 2, 4 ),
 ( 0.000000000000000000, 0.1249999999999434896, 0.1874999999999104883, 0.2187499999998943345, 0.2343749999998862854, 0.2421874999998878675, 0.2460937499998825939, 0.2480468749998799294, 0.2499999999998772648, 0.3124999999997662425, 0.3437499999997150613, 0.3593749999996846411, 0.3671874999996746491, 0.3710937499996745381, 0.3749999999996744271, 0.4999999999997262745, 0.5624999999997483124, 0.5937499999997591926, 0.6093749999997669642, 0.6171874999997725153, 0.6210937499997771782, 0.6249999999997818412, 0.6874999999998685496, 0.7187499999999119593, 0.7343749999999336087, 0.7421874999999443778, 0.7460937499999498179, 0.7480468749999517053, 0.7499999999999535927, 1.000000000000000000 ),
 .UNSPECIFIED. ) ;
#229 = CARTESIAN_POINT ( 'NONE',  ( 149.8154414293159107, 0.4442690842014855868, -34.96654564264220255 ) ) ;
#230 = CARTESIAN_POINT ( 'NONE',  ( 33.78846172205756915, 0.000000000000000000, -106.7817393305518436 ) ) ;
#231 = EDGE_CURVE ( 'NONE', #383, #486, #742, .T. ) ;
#232 = CARTESIAN_POINT ( 'NONE',  ( 147.2728161289452373, 0.4244801662996269820, -44.63801305085685556 ) ) ;
#233 = CARTESIAN_POINT ( 'NONE',  ( 44.15360381295994330, 3.999085129752101064, -145.4649762414686620 ) ) ;
#234 = VECTOR ( 'NONE', #324, 1000.000000000000000 ) ;
#235 = PRODUCT_DEFINITION_FORMATION_WITH_SPECIFIED_SOURCE ( 'TUTTO', '', #283, .NOT_KNOWN. ) ;
#236 = LINE ( 'NONE', #703, #658 ) ;
#237 = DIRECTION ( 'NONE',  ( 1.486845034160563051E-26, 1.000000000000000000, 1.312664546287763644E-27 ) ) ;
#238 = CARTESIAN_POINT ( 'NONE',  ( 34.58461549637211618, 2.028338448144679340, -148.3900587184965048 ) ) ;
#239 = CARTESIAN_POINT ( 'NONE',  ( -2.553512956637860043E-12, 2.275957200481570908E-12, -112.0000000000078728 ) ) ;
#240 = DIRECTION ( 'NONE',  ( -3.469446952011558981E-16, 1.767048427694966717E-27, 1.000000000000000000 ) ) ;
#241 = DIRECTION ( 'NONE',  ( 0.9659258262890677571, 1.837730364802752873E-26, 0.2588190451025230709 ) ) ;
#242 = CARTESIAN_POINT ( 'NONE',  ( 145.6514393781499734, 2.569779790833396582, -44.20356645985468447 ) ) ;
#243 = DIRECTION ( 'NONE',  ( -3.469446952011558488E-16, 1.767048427694967075E-27, 1.000000000000000000 ) ) ;
#244 = VECTOR ( 'NONE', #218, 1000.000000000000000 ) ;
#245 = CARTESIAN_POINT ( 'NONE',  ( 145.7249018131659284, 2.263256895313747741, -44.22325065999122273 ) ) ;
#246 = CARTESIAN_POINT ( 'NONE',  ( 35.30472000750599904, 0.1069391624819564929, -151.0775253408075969 ) ) ;
#247 = CARTESIAN_POINT ( 'NONE',  ( 34.52773912446826188, 2.893558306322355556, -148.1777932088011767 ) ) ;
#248 = EDGE_LOOP ( 'NONE', ( #436, #447, #308, #729 ) ) ;
#249 =( NAMED_UNIT ( * ) PLANE_ANGLE_UNIT ( ) SI_UNIT ( $, .RADIAN. ) );
#250 = LINE ( 'NONE', #309, #175 ) ;
#251 = CARTESIAN_POINT ( 'NONE',  ( 44.62580390553304710, 0.4442690842018839903, -147.2272509782901295 ) ) ;
#252 = EDGE_CURVE ( 'NONE', #615, #383, #576, .T. ) ;
#253 = CARTESIAN_POINT ( 'NONE',  ( 45.44360722660278640, 0.000000000000000000, -150.2793345230890623 ) ) ;
#254 = VERTEX_POINT ( 'NONE', #692 ) ;
#255 = ORIENTED_EDGE ( 'NONE', *, *, #586, .F. ) ;
#256 = CARTESIAN_POINT ( 'NONE',  ( 148.0353646318116034, 5.000000000000004441, -34.48957550228554680 ) ) ;
#257 = CARTESIAN_POINT ( 'NONE',  ( 34.80873564603258075, 0.7666931548381270556, -149.2264865040292250 ) ) ;
#258 = DIRECTION ( 'NONE',  ( -1.486845034160563051E-26, -1.000000000000000000, -1.312664546287763644E-27 ) ) ;
#259 = ORIENTED_EDGE ( 'NONE', *, *, #405, .T. ) ;
#260 = FACE_OUTER_BOUND ( 'NONE', #607, .T. ) ;
#261 = LINE ( 'NONE', #319, #385 ) ;
#262 = CARTESIAN_POINT ( 'NONE',  ( 150.2793345230745103, 0.000000000000000000, -45.44360722659488516 ) ) ;
#263 = VERTEX_POINT ( 'NONE', #525 ) ;
#264 = CARTESIAN_POINT ( 'NONE',  ( 44.59812373942375530, 0.4917568312279040899, -147.1239471920083020 ) ) ;
#265 = CARTESIAN_POINT ( 'NONE',  ( 0.000000000000000000, 0.000000000000000000, 0.000000000000000000 ) ) ;
#266 = ORIENTED_EDGE ( 'NONE', *, *, #686, .T. ) ;
#267 = ORIENTED_EDGE ( 'NONE', *, *, #84, .T. ) ;
#268 = UNCERTAINTY_MEASURE_WITH_UNIT (LENGTH_MEASURE( 1.000000000000000082E-05 ), #181, 'distance_accuracy_value', 'NONE');
#269 = VERTEX_POINT ( 'NONE', #166 ) ;
#270 = EDGE_CURVE ( 'NONE', #272, #451, #431, .T. ) ;
#271 = DIRECTION ( 'NONE',  ( -3.469446952011535808E-16, 0.000000000000000000, 1.000000000000000000 ) ) ;
#272 = VERTEX_POINT ( 'NONE', #361 ) ;
#273 = VECTOR ( 'NONE', #445, 1000.000000000000114 ) ;
#274 = CARTESIAN_POINT ( 'NONE',  ( 148.1748307384843883, 2.911207331314126012, -34.52694533294004486 ) ) ;
#275 = VECTOR ( 'NONE', #591, 1000.000000000000114 ) ;
#276 = CARTESIAN_POINT ( 'NONE',  ( 152.8675249741141045, 2.275957200481570908E-12, -35.78434896370087159 ) ) ;
#277 = ORIENTED_EDGE ( 'NONE', *, *, #178, .F. ) ;
#278 = CARTESIAN_POINT ( 'NONE',  ( 148.1576629213779768, 3.018326129686871528, -34.52234523021053292 ) ) ;
#279 = FACE_OUTER_BOUND ( 'NONE', #89, .T. ) ;
#280 = EDGE_CURVE ( 'NONE', #143, #429, #261, .T. ) ;
#281 = CARTESIAN_POINT ( 'NONE',  ( 37.57673771091389625, 6.069219201284189626E-12, -147.3276555913334107 ) ) ;
#282 = ORIENTED_EDGE ( 'NONE', *, *, #647, .T. ) ;
#283 = PRODUCT ( 'ELP-0053', 'ELP-0053', '', ( #358 ) ) ;
#284 = DIRECTION ( 'NONE',  ( -3.469446952011558981E-16, 1.767048427694966717E-27, 1.000000000000000000 ) ) ;
#285 = CARTESIAN_POINT ( 'NONE',  ( 3.999999999992676081, 7.000000000002282619, -115.9310139695178208 ) ) ;
#286 = CARTESIAN_POINT ( 'NONE',  ( 34.48957550228459468, 4.999999999997728040, -148.0353646318108360 ) ) ;
#287 = CARTESIAN_POINT ( 'NONE',  ( 145.5929759256366935, 2.873784851179663757, -44.18790122496699979 ) ) ;
#288 = CARTESIAN_POINT ( 'NONE',  ( 35.78434896370874441, 0.000000000000000000, -152.8675249741273490 ) ) ;
#289 = APPLICATION_PROTOCOL_DEFINITION ( 'draft international standard', 'automotive_design', 1998, #101 ) ;
#290 = CARTESIAN_POINT ( 'NONE',  ( 152.8675249741141045, 2.275957200481570908E-12, -35.78434896370087159 ) ) ;
#291 = CARTESIAN_POINT ( 'NONE',  ( 106.7817393305490725, 5.000000000002280842, -33.78846172206084475 ) ) ;
#292 = ORIENTED_EDGE ( 'NONE', *, *, #339, .F. ) ;
#293 = CARTESIAN_POINT ( 'NONE',  ( 145.5909112412281843, 2.885842784350070023, -44.18734799444712991 ) ) ;
#294 = CARTESIAN_POINT ( 'NONE',  ( 146.3778612772877068, -6.846375318521800012E-12, -41.12141834656031847 ) ) ;
#295 = CARTESIAN_POINT ( 'NONE',  ( 44.14883376517614266, 5.000000000002280842, -145.4471741807849412 ) ) ;
#296 = FACE_OUTER_BOUND ( 'NONE', #20, .T. ) ;
#297 = DIRECTION ( 'NONE',  ( -3.469446952011558488E-16, 1.767048427694967075E-27, 1.000000000000000000 ) ) ;
#298 = LINE ( 'NONE', #556, #342 ) ;
#299 = CARTESIAN_POINT ( 'NONE',  ( 44.14883376517669689, 2.275957200481570908E-12, -145.4471741807877265 ) ) ;
#300 = CARTESIAN_POINT ( 'NONE',  ( 35.24073493176231153, 0.1461230226664181620, -150.8387297872060913 ) ) ;
#301 = ORIENTED_EDGE ( 'NONE', *, *, #580, .T. ) ;
#302 = EDGE_LOOP ( 'NONE', ( #266, #292, #446, #675 ) ) ;
#303 = AXIS2_PLACEMENT_3D ( 'NONE', #189, #2, #720 ) ;
#304 = FACE_OUTER_BOUND ( 'NONE', #608, .T. ) ;
#305 = CARTESIAN_POINT ( 'NONE',  ( 34.98533155959162144, 0.4141708940765436719, -149.8855514258406174 ) ) ;
#306 = DIRECTION ( 'NONE',  ( 1.486845034160563051E-26, 1.000000000000000000, 1.312664546287763644E-27 ) ) ;
#307 = ORIENTED_EDGE ( 'NONE', *, *, #580, .F. ) ;
#308 = ORIENTED_EDGE ( 'NONE', *, *, #613, .F. ) ;
#309 = CARTESIAN_POINT ( 'NONE',  ( 112.0000000000048175, 120.0000000000011369, 2.386979502944086562E-12 ) ) ;
#310 = FACE_OUTER_BOUND ( 'NONE', #616, .T. ) ;
#311 = LINE ( 'NONE', #15, #768 ) ;
#312 = ADVANCED_FACE ( 'NONE', ( #310 ), #14, .F. ) ;
#313 = CARTESIAN_POINT ( 'NONE',  ( -5.273559366969493567E-12, 5.000000000000004441, 4.635181127810028556E-12 ) ) ;
#314 = CARTESIAN_POINT ( 'NONE',  ( 44.49095636916172225, 0.7188268573088587576, -146.7239931212769193 ) ) ;
#315 = CARTESIAN_POINT ( 'NONE',  ( 148.1388406192810976, 3.146879061440754022, -34.51730180956401739 ) ) ;
#316 = ORIENTED_EDGE ( 'NONE', *, *, #363, .T. ) ;
#317 = ORIENTED_EDGE ( 'NONE', *, *, #750, .T. ) ;
#318 = MECHANICAL_DESIGN_GEOMETRIC_PRESENTATION_REPRESENTATION (  '', ( #460 ), #151 ) ;
#319 = CARTESIAN_POINT ( 'NONE',  ( 112.0000000000048175, 120.0000000000011369, 2.386979502944086562E-12 ) ) ;
#320 = VECTOR ( 'NONE', #6, 1000.000000000000000 ) ;
#321 = DIRECTION ( 'NONE',  ( -3.469446952011558981E-16, 1.767048427694966717E-27, 1.000000000000000000 ) ) ;
#322 = ORIENTED_EDGE ( 'NONE', *, *, #252, .F. ) ;
#323 = ORIENTED_EDGE ( 'NONE', *, *, #659, .F. ) ;
#324 = DIRECTION ( 'NONE',  ( -1.486845034160563051E-26, -1.000000000000000000, -1.312664546287763644E-27 ) ) ;
#325 = ORIENTED_EDGE ( 'NONE', *, *, #379, .F. ) ;
#326 = ORIENTED_EDGE ( 'NONE', *, *, #158, .T. ) ;
#327 = DIRECTION ( 'NONE',  ( -1.486845034160563051E-26, -1.000000000000000000, -1.312664546287763644E-27 ) ) ;
#328 = CARTESIAN_POINT ( 'NONE',  ( 3.999999999995229594, 6.999999999997702282, -187.9574419915334715 ) ) ;
#329 = VERTEX_POINT ( 'NONE', #494 ) ;
#330 = CARTESIAN_POINT ( 'NONE',  ( 148.5916009949127670, 1.525356955316516050, -34.63861858657932657 ) ) ;
#331 = CARTESIAN_POINT ( 'NONE',  ( 145.4471741807873286, 2.275957200481570908E-12, -44.14883376517862956 ) ) ;
#332 = CARTESIAN_POINT ( 'NONE',  ( 34.63543259293838616, 1.589382722365506595, -148.5797107047748682 ) ) ;
#333 = CARTESIAN_POINT ( 'NONE',  ( 150.6759415603033290, 0.1773507184508032464, -35.19711595782716529 ) ) ;
#334 = DIRECTION ( 'NONE',  ( -1.486845034160563051E-26, -1.000000000000000000, -1.312664546287763644E-27 ) ) ;
#335 = EDGE_CURVE ( 'NONE', #206, #615, #228, .T. ) ;
#336 = CARTESIAN_POINT ( 'NONE',  ( 34.00234341511050928, 9.103828801926285247E-12, -148.1480362417262882 ) ) ;
#337 = DIRECTION ( 'NONE',  ( -0.9659258262890692004, -1.484320679263753646E-26, 0.2588190451025172978 ) ) ;
#338 = VECTOR ( 'NONE', #284, 1000.000000000000000 ) ;
#339 = EDGE_CURVE ( 'NONE', #486, #146, #55, .T. ) ;
#340 = CARTESIAN_POINT ( 'NONE',  ( 148.4433438432365051, 1.894753832565110985, -34.59889320251554778 ) ) ;
#341 = DIRECTION ( 'NONE',  ( 1.486845034160563051E-26, 1.000000000000000000, 1.312664546287763644E-27 ) ) ;
#342 = VECTOR ( 'NONE', #321, 1000.000000000000000 ) ;
#343 = CIRCLE ( 'NONE', #771, 188.0000000000105729 ) ;
#344 = MANIFOLD_SOLID_BREP ( 'Raccordo1', #138 ) ;
#345 = CARTESIAN_POINT ( 'NONE',  ( 148.4011650407317404, 2.005857728352291147, -34.58759142644666440 ) ) ;
#346 = DIRECTION ( 'NONE',  ( 1.486845034160563051E-26, 1.000000000000000000, -1.767048427694962053E-27 ) ) ;
#347 = CARTESIAN_POINT ( 'NONE',  ( 149.8722306132437723, 1.592473817284482697E-12, -45.33452406271842250 ) ) ;
#348 = CARTESIAN_POINT ( 'NONE',  ( 44.17656007245401639, 3.146879061438397240, -145.5506501682522469 ) ) ;
#349 =( NAMED_UNIT ( * ) PLANE_ANGLE_UNIT ( ) SI_UNIT ( $, .RADIAN. ) );
#350 = B_SPLINE_CURVE_WITH_KNOTS ( 'NONE', 3,
 ( #636, #347, #352, #689, #528, #53, #526, #425, #633, #474, #537, #751, #421, #581, #765, #584, #42, #691, #232, #168, #162, #165, #587, #769, #578, #695, #56, #49, #761, #176, #245, #242, #483, #649, #116, #287, #293, #470, #700, #532, #479 ),
 .UNSPECIFIED., .F., .F.,
 ( 4, 1, 1, 1, 1, 1, 1, 2, 2, 1, 1, 1, 1, 2, 2, 2, 1, 1, 1, 1, 2, 2, 1, 1, 1, 1, 1, 2, 2, 4 ),
 ( 0.000000000000000000, 0.1250000000005255241, 0.1875000000007933376, 0.2187500000009268974, 0.2343750000009877932, 0.2421875000010122458, 0.2460937500010183521, 0.2480468750010152712, 0.2500000000010121903, 0.3125000000008420487, 0.3437500000007573386, 0.3593750000007105427, 0.3671875000006919465, 0.3710937500006823431, 0.3750000000006727396, 0.5000000000004729550, 0.5625000000003764766, 0.5937500000003282929, 0.6093750000003023137, 0.6171875000002893241, 0.6210937500002846612, 0.6250000000002798872, 0.6875000000002026157, 0.7187500000001627587, 0.7343750000001427747, 0.7421875000001335598, 0.7460937500001296740, 0.7480468750001276756, 0.7500000000001256772, 1.000000000000000000 ),
 .UNSPECIFIED. ) ;
#351 = SHAPE_DEFINITION_REPRESENTATION ( #155, #469 ) ;
#352 = CARTESIAN_POINT ( 'NONE',  ( 149.3125696568114336, 0.01839813548272614327, -45.18456336140711471 ) ) ;
#353 = DIRECTION ( 'NONE',  ( -1.486845034160563051E-26, -1.000000000000000000, -1.312664546287763644E-27 ) ) ;
#354 = CARTESIAN_POINT ( 'NONE',  ( 37.73772290441117860, 5.000000000000004441, -147.2786047498265134 ) ) ;
#355 = VECTOR ( 'NONE', #240, 1000.000000000000000 ) ;
#356 = LINE ( 'NONE', #476, #152 ) ;
#357 = CARTESIAN_POINT ( 'NONE',  ( 0.000000000000000000, 0.000000000000000000, 0.000000000000000000 ) ) ;
#358 = PRODUCT_CONTEXT ( 'NONE', #672, 'mechanical' ) ;
#359 = DIRECTION ( 'NONE',  ( -3.469446952011567855E-16, 0.000000000000000000, 1.000000000000000000 ) ) ;
#360 = B_SPLINE_CURVE_WITH_KNOTS ( 'NONE', 3,
 ( #606, #131, #377, #75, #315, #278, #739, #575, #274, #512, #744, #747, #93, #464, #345, #406, #37, #340, #457, #330, #518, #680, #98, #678, #221, #403, #229, #226, #467, #631, #629, #735, #333, #524, #156, #566, #682, #21, #217, #398, #102 ),
 .UNSPECIFIED., .F., .F.,
 ( 4, 1, 1, 1, 1, 1, 1, 2, 2, 1, 1, 1, 1, 2, 2, 2, 1, 1, 1, 1, 2, 2, 1, 1, 1, 1, 1, 2, 2, 4 ),
 ( 0.000000000000000000, 0.1250000000000184297, 0.1875000000000276446, 0.2187500000000322520, 0.2343750000000352496, 0.2421875000000377476, 0.2460937500000379974, 0.2480468750000370814, 0.2500000000000361378, 0.3125000000000038858, 0.3437499999999863998, 0.3593749999999761302, 0.3671874999999710232, 0.3710937499999705791, 0.3749999999999700795, 0.4999999999999268918, 0.5624999999999090727, 0.5937499999999004130, 0.6093749999999001910, 0.6171874999999001910, 0.6210937499999041878, 0.6249999999999081846, 0.6874999999999774625, 0.7187500000000116573, 0.7343750000000335287, 0.7421875000000399680, 0.7460937500000470735, 0.7480468750000508482, 0.7500000000000547340, 1.000000000000000000 ),
 .UNSPECIFIED. ) ;
#361 = CARTESIAN_POINT ( 'NONE',  ( 44.14883376517614266, 5.000000000002280842, -145.4471741807849412 ) ) ;
#362 = FILL_AREA_STYLE ('',( #542 ) ) ;
#363 = EDGE_CURVE ( 'NONE', #269, #368, #109, .T. ) ;
#364 = DIRECTION ( 'NONE',  ( 3.469446952011541231E-16, 0.000000000000000000, -1.000000000000000000 ) ) ;
#365 = CARTESIAN_POINT ( 'NONE',  ( 35.37426302486546348, 0.07205936396539151800, -151.3370634149048612 ) ) ;
#366 = CARTESIAN_POINT ( 'NONE',  ( 34.52808973155709538, 2.885842784343901624, -148.1791016922702227 ) ) ;
#367 = ORIENTED_EDGE ( 'NONE', *, *, #482, .F. ) ;
#368 = VERTEX_POINT ( 'NONE', #427 ) ;
#369 = EDGE_LOOP ( 'NONE', ( #316, #404, #612, #388 ) ) ;
#370 = VECTOR ( 'NONE', #549, 1000.000000000000000 ) ;
#371 = CARTESIAN_POINT ( 'NONE',  ( 115.9310139695194977, 120.0000000000011369, -3.999999999995618172 ) ) ;
#372 = CARTESIAN_POINT ( 'NONE',  ( 44.56077455740855697, 0.5625033967767516518, -146.9845581471063838 ) ) ;
#373 = DIRECTION ( 'NONE',  ( -3.469446952011570320E-16, 0.000000000000000000, 1.000000000000000000 ) ) ;
#374 = VERTEX_POINT ( 'NONE', #118 ) ;
#375 = CARTESIAN_POINT ( 'NONE',  ( -4.718447854656915297E-12, 6.999999999999978684, 3.337607967779376850E-12 ) ) ;
#376 = CARTESIAN_POINT ( 'NONE',  ( 45.44360722660278640, 0.000000000000000000, -150.2793345230890623 ) ) ;
#377 = CARTESIAN_POINT ( 'NONE',  ( 148.0531666924957790, 3.999085129758058077, -34.49434555006946823 ) ) ;
#378 = ORIENTED_EDGE ( 'NONE', *, *, #280, .T. ) ;
#379 = EDGE_CURVE ( 'NONE', #451, #206, #394, .T. ) ;
#380 = CARTESIAN_POINT ( 'NONE',  ( 44.73525995041380554, 0.2869896768440993728, -147.6357464989806090 ) ) ;
#381 = LINE ( 'NONE', #614, #386 ) ;
#382 = ORIENTED_EDGE ( 'NONE', *, *, #22, .T. ) ;
#383 = VERTEX_POINT ( 'NONE', #107 ) ;
#384 = EDGE_CURVE ( 'NONE', #615, #272, #111, .T. ) ;
#385 = VECTOR ( 'NONE', #555, 1000.000000000000000 ) ;
#386 = VECTOR ( 'NONE', #668, 1000.000000000000000 ) ;
#387 = CARTESIAN_POINT ( 'NONE',  ( -2.831068712794149178E-12, 120.0000000000011369, -192.0000000000102318 ) ) ;
#388 = ORIENTED_EDGE ( 'NONE', *, *, #424, .T. ) ;
#389 = EDGE_LOOP ( 'NONE', ( #4, #191, #267, #435 ) ) ;
#390 = CARTESIAN_POINT ( 'NONE',  ( 146.4158745994842263, 5.000000000000004441, -40.95747565870858153 ) ) ;
#391 = EDGE_LOOP ( 'NONE', ( #666, #450, #506, #508, #557, #543, #723, #128, #186, #76, #207, #277 ) ) ;
#392 = ORIENTED_EDGE ( 'NONE', *, *, #26, .F. ) ;
#393 = ADVANCED_FACE ( 'NONE', ( #164 ), #534, .F. ) ;
#394 = B_SPLINE_CURVE_WITH_KNOTS ( 'NONE', 3,
 ( #693, #167, #179, #423 ),
 .UNSPECIFIED., .F., .F.,
 ( 4, 4 ),
 ( 0.000000000000000000, 1.000000000000000000 ),
 .UNSPECIFIED. ) ;
#395 = DIRECTION ( 'NONE',  ( 0.9659258262890692004, 1.484320679263753933E-26, -0.2588190451025173533 ) ) ;
#396 = DIRECTION ( 'NONE',  ( -3.469446952011567855E-16, 0.000000000000000000, 1.000000000000000000 ) ) ;
#397 = AXIS2_PLACEMENT_3D ( 'NONE', #677, #149, #396 ) ;
#398 = CARTESIAN_POINT ( 'NONE',  ( 152.0553393322086890, -6.824510574710006650E-13, -35.56672447685046734 ) ) ;
#399 = AXIS2_PLACEMENT_3D ( 'NONE', #134, #18, #661 ) ;
#400 = DIRECTION ( 'NONE',  ( -0.9659258262890693114, -1.467912372435157174E-26, 0.2588190451025173533 ) ) ;
#401 = CYLINDRICAL_SURFACE ( 'NONE', #100, 192.0000000000108002 ) ;
#402 = VERTEX_POINT ( 'NONE', #697 ) ;
#403 = CARTESIAN_POINT ( 'NONE',  ( 149.7841087984819524, 0.4582373396324312953, -34.95815008951349512 ) ) ;
#404 = ORIENTED_EDGE ( 'NONE', *, *, #671, .F. ) ;
#405 = EDGE_CURVE ( 'NONE', #145, #143, #419, .T. ) ;
#406 = CARTESIAN_POINT ( 'NONE',  ( 148.4255257978879285, 1.940564251308891208, -34.59411887165370558 ) ) ;
#407 = CARTESIAN_POINT ( 'NONE',  ( 0.000000000000000000, 0.000000000000000000, 0.000000000000000000 ) ) ;
#408 =( GEOMETRIC_REPRESENTATION_CONTEXT ( 3 ) GLOBAL_UNCERTAINTY_ASSIGNED_CONTEXT ( ( #268 ) ) GLOBAL_UNIT_ASSIGNED_CONTEXT ( ( #181, #249, #590 ) ) REPRESENTATION_CONTEXT ( 'NONE', 'WORKASPACE' ) );
#409 = LINE ( 'NONE', #299, #275 ) ;
#410 = FACE_OUTER_BOUND ( 'NONE', #548, .T. ) ;
#411 = CARTESIAN_POINT ( 'NONE',  ( 34.60099479644662779, 1.875072961286082585, -148.4511870985669759 ) ) ;
#412 = EDGE_CURVE ( 'NONE', #496, #145, #298, .T. ) ;
#413 = DIRECTION ( 'NONE',  ( -1.486845034160563051E-26, -1.000000000000000000, -1.312664546287763644E-27 ) ) ;
#414 = CARTESIAN_POINT ( 'NONE',  ( 44.18620359582982360, 2.911207331314617175, -145.5866402874547703 ) ) ;
#415 = CARTESIAN_POINT ( 'NONE',  ( 34.48957550228459468, 4.999999999997728040, -148.0353646318108360 ) ) ;
#416 = PLANE ( 'NONE',  #420 ) ;
#417 = LINE ( 'NONE', #645, #139 ) ;
#418 = CARTESIAN_POINT ( 'NONE',  ( 3.108624468950438313E-12, 120.0000000000000000, 5.891120924417236893E-12 ) ) ;
#419 = CIRCLE ( 'NONE', #173, 112.0000000000062954 ) ;
#420 = AXIS2_PLACEMENT_3D ( 'NONE', #110, #439, #493 ) ;
#421 = CARTESIAN_POINT ( 'NONE',  ( 147.7931979759273133, 0.2418917565272264425, -44.77744894651152663 ) ) ;
#422 = CARTESIAN_POINT ( 'NONE',  ( -2.553512956637860043E-12, 2.275957200481570908E-12, -112.0000000000078728 ) ) ;
#423 = CARTESIAN_POINT ( 'NONE',  ( 35.78434896370874441, 0.000000000000000000, -152.8675249741273490 ) ) ;
#424 = EDGE_CURVE ( 'NONE', #184, #269, #311, .T. ) ;
#425 = CARTESIAN_POINT ( 'NONE',  ( 148.2744400051272748, 0.1418608838367429459, -44.90639735959955914 ) ) ;
#426 = CARTESIAN_POINT ( 'NONE',  ( 35.18883928674740957, 0.1811710416330852003, -150.6450526033189021 ) ) ;
#427 = CARTESIAN_POINT ( 'NONE',  ( -2.775557561562891351E-12, 2.275957200481570908E-12, -192.0000000000175930 ) ) ;
#428 = ORIENTED_EDGE ( 'NONE', *, *, #36, .T. ) ;
#429 = VERTEX_POINT ( 'NONE', #210 ) ;
#430 = ORIENTED_EDGE ( 'NONE', *, *, #84, .F. ) ;
#431 = B_SPLINE_CURVE_WITH_KNOTS ( 'NONE', 3,
 ( #41, #749, #233, #54, #348, #471, #582, #43, #414, #444, #774, #545, #650, #204, #133, #709, #199, #448, #660, #609, #541, #440, #314, #372, #264, #499, #251, #503, #538, #484, #380, #491, #725, #770, #704, #663, #605, #667, #193, #78, #376 ),
 .UNSPECIFIED., .F., .F.,
 ( 4, 1, 1, 1, 1, 1, 1, 2, 2, 1, 1, 1, 1, 2, 2, 2, 1, 1, 1, 1, 2, 2, 1, 1, 1, 1, 1, 2, 2, 4 ),
 ( 0.000000000000000000, 0.1249999999999341638, 0.1874999999999012179, 0.2187499999998842315, 0.2343749999998765432, 0.2421874999998735178, 0.2460937499998730460, 0.2480468749998728240, 0.2499999999998726019, 0.3124999999998537281, 0.3437499999998441802, 0.3593749999998376854, 0.3671874999998326339, 0.3710937499998301359, 0.3749999999998276379, 0.4999999999997427613, 0.5624999999996971312, 0.5937499999996741495, 0.6093749999996583844, 0.6171874999996548317, 0.6210937499996571631, 0.6249999999996593836, 0.6874999999996158628, 0.7187499999995943245, 0.7343749999995876632, 0.7421874999995889954, 0.7460937499995899946, 0.7480468749995945466, 0.7499999999995992095, 1.000000000000000000 ),
 .UNSPECIFIED. ) ;
#432 = LINE ( 'NONE', #256, #13 ) ;
#433 = CARTESIAN_POINT ( 'NONE',  ( 35.67526579983246648, -2.899592321245709823E-12, -152.4604210643009310 ) ) ;
#434 = CARTESIAN_POINT ( 'NONE',  ( 112.0000000000056559, 0.000000000000000000, 2.164934898019055254E-12 ) ) ;
#435 = ORIENTED_EDGE ( 'NONE', *, *, #58, .T. ) ;
#436 = ORIENTED_EDGE ( 'NONE', *, *, #698, .F. ) ;
#437 = VECTOR ( 'NONE', #456, 1000.000000000000114 ) ;
#438 = AXIS2_PLACEMENT_3D ( 'NONE', #313, #653, #364 ) ;
#439 = DIRECTION ( 'NONE',  ( 3.469446951895280390E-16, -1.767048427694967434E-27, -1.000000000000000000 ) ) ;
#440 = CARTESIAN_POINT ( 'NONE',  ( 44.43947822343641008, 0.8782418167954222366, -146.5318740659504613 ) ) ;
#441 = DIRECTION ( 'NONE',  ( -1.486845034160563051E-26, -1.000000000000000000, -1.312664546287763644E-27 ) ) ;
#442 = ORIENTED_EDGE ( 'NONE', *, *, #564, .F. ) ;
#443 = VERTEX_POINT ( 'NONE', #205 ) ;
#444 = CARTESIAN_POINT ( 'NONE',  ( 44.18659800126215487, 2.902403284002277317, -145.5881122285669562 ) ) ;
#445 = DIRECTION ( 'NONE',  ( -0.2588190451025232930, 1.211690350419398082E-27, 0.9659258262890675351 ) ) ;
#446 = ORIENTED_EDGE ( 'NONE', *, *, #80, .F. ) ;
#447 = ORIENTED_EDGE ( 'NONE', *, *, #29, .F. ) ;
#448 = CARTESIAN_POINT ( 'NONE',  ( 44.25815146540536205, 1.894753832564103346, -145.8551533922068586 ) ) ;
#449 = DIRECTION ( 'NONE',  ( 0.2588190451025173533, 5.200171087216553241E-27, 0.9659258262890692004 ) ) ;
#450 = ORIENTED_EDGE ( 'NONE', *, *, #29, .T. ) ;
#451 = VERTEX_POINT ( 'NONE', #253 ) ;
#452 = CARTESIAN_POINT ( 'NONE',  ( 34.48957550228792712, -2.275957200481570908E-12, -148.0353646318098981 ) ) ;
#453 = ORIENTED_EDGE ( 'NONE', *, *, #671, .T. ) ;
#454 = ORIENTED_EDGE ( 'NONE', *, *, #63, .T. ) ;
#455 = CARTESIAN_POINT ( 'NONE',  ( 34.48957550228459468, 4.999999999997728040, -148.0353646318108360 ) ) ;
#456 = DIRECTION ( 'NONE',  ( -0.2588190451025255134, 6.058451752096985028E-28, 0.9659258262890669799 ) ) ;
#457 = CARTESIAN_POINT ( 'NONE',  ( 148.4461671225096779, 1.887611588330787349, -34.59964969791679579 ) ) ;
#458 = DIRECTION ( 'NONE',  ( 1.486845034160563051E-26, 1.000000000000000000, 1.312664546287763644E-27 ) ) ;
#459 = CIRCLE ( 'NONE', #108, 112.0000000000062954 ) ;
#460 = STYLED_ITEM ( 'NONE', ( #705 ), #344 ) ;
#461 = CARTESIAN_POINT ( 'NONE',  ( 46.09512246593716611, 0.000000000000000000, -150.0807771996536246 ) ) ;
#462 = CARTESIAN_POINT ( 'NONE',  ( 145.4471741807837475, 5.000000000002280842, -44.14883376517860825 ) ) ;
#463 = EDGE_CURVE ( 'NONE', #146, #630, #732, .T. ) ;
#464 = CARTESIAN_POINT ( 'NONE',  ( 148.3545064899436738, 2.140534885270011234, -34.57508930544298664 ) ) ;
#465 = DIRECTION ( 'NONE',  ( -3.469446952011535808E-16, 0.000000000000000000, 1.000000000000000000 ) ) ;
#466 = EDGE_CURVE ( 'NONE', #206, #402, #200, .T. ) ;
#467 = CARTESIAN_POINT ( 'NONE',  ( 149.8488867259663948, 0.4296688280627301015, -34.97550728287031063 ) ) ;
#468 = DIRECTION ( 'NONE',  ( -3.469446952011557994E-16, 1.767048427694967075E-27, 1.000000000000000000 ) ) ;
#469 = ADVANCED_BREP_SHAPE_REPRESENTATION ( 'ELP-0053', ( #344, #523 ), #408 ) ;
#470 = CARTESIAN_POINT ( 'NONE',  ( 145.5896027577591383, 2.893558306328824159, -44.18699738735827509 ) ) ;
#471 = CARTESIAN_POINT ( 'NONE',  ( 44.18160349310046087, 3.018326129685948267, -145.5694724703486997 ) ) ;
#472 =( NAMED_UNIT ( * ) SI_UNIT ( $, .STERADIAN. ) SOLID_ANGLE_UNIT ( ) );
#473 = EDGE_CURVE ( 'NONE', #777, #329, #688, .T. ) ;
#474 = CARTESIAN_POINT ( 'NONE',  ( 148.2531510520202858, 0.1456549003820910293, -44.90069300180681466 ) ) ;
#475 = DIRECTION ( 'NONE',  ( 3.469446952011541724E-16, 0.000000000000000000, -1.000000000000000000 ) ) ;
#476 = CARTESIAN_POINT ( 'NONE',  ( -2.831068712794149178E-12, 120.0000000000011369, -192.0000000000102318 ) ) ;
#477 = PLANE ( 'NONE',  #220 ) ;
#478 = DIRECTION ( 'NONE',  ( 0.2588190451025230154, -1.262177448353538891E-27, -0.9659258262890676461 ) ) ;
#479 = CARTESIAN_POINT ( 'NONE',  ( 145.4471741807837475, 5.000000000002280842, -44.14883376517860825 ) ) ;
#480 = CARTESIAN_POINT ( 'NONE',  ( -5.273559366969493567E-12, 5.000000000000004441, 4.635181127810028556E-12 ) ) ;
#481 = DIRECTION ( 'NONE',  ( -3.469446952011557994E-16, 1.767048427694967075E-27, 1.000000000000000000 ) ) ;
#482 = EDGE_CURVE ( 'NONE', #724, #254, #673, .T. ) ;
#483 = CARTESIAN_POINT ( 'NONE',  ( 145.6187911010539153, 2.731154082050188059, -44.19481838037251009 ) ) ;
#484 = CARTESIAN_POINT ( 'NONE',  ( 44.67444526172394603, 0.3665118009954735356, -147.4087829909435925 ) ) ;
#485 = SURFACE_STYLE_FILL_AREA ( #362 ) ;
#486 = VERTEX_POINT ( 'NONE', #79 ) ;
#487 = VERTEX_POINT ( 'NONE', #262 ) ;
#488 = B_SPLINE_CURVE_WITH_KNOTS ( 'NONE', 3,
 ( #276, #94, #23, #510 ),
 .UNSPECIFIED., .F., .F.,
 ( 4, 4 ),
 ( 0.000000000000000000, 1.000000000000000000 ),
 .UNSPECIFIED. ) ;
#489 = DIRECTION ( 'NONE',  ( 1.000000000000000000, 0.000000000000000000, 0.000000000000000000 ) ) ;
#490 = CARTESIAN_POINT ( 'NONE',  ( -5.273559366969493567E-12, 5.000000000000004441, 4.635181127810028556E-12 ) ) ;
#491 = CARTESIAN_POINT ( 'NONE',  ( 44.81460388632184788, 0.2110851561188385184, -147.9318620990618740 ) ) ;
#492 = CARTESIAN_POINT ( 'NONE',  ( 115.9310139695177782, 7.000000000002282619, -3.999999999997553957 ) ) ;
#493 = DIRECTION ( 'NONE',  ( -1.000000000000000000, -1.498520175557749939E-26, -3.469446951895280390E-16 ) ) ;
#494 = CARTESIAN_POINT ( 'NONE',  ( 115.9310139695194977, 120.0000000000011369, -3.999999999995618172 ) ) ;
#495 = CARTESIAN_POINT ( 'NONE',  ( 109.3699297815747258, 5.000000000002252420, -24.12920345917002507 ) ) ;
#496 = VERTEX_POINT ( 'NONE', #387 ) ;
#497 = AXIS2_PLACEMENT_3D ( 'NONE', #500, #449, #140 ) ;
#498 = CYLINDRICAL_SURFACE ( 'NONE', #11, 188.0000000000105729 ) ;
#499 = CARTESIAN_POINT ( 'NONE',  ( 44.61740835240433256, 0.4582373396327913406, -147.1959183474561144 ) ) ;
#500 = CARTESIAN_POINT ( 'NONE',  ( 145.4471741807837475, 5.000000000002280842, -44.14883376517860825 ) ) ;
#501 = EDGE_LOOP ( 'NONE', ( #454, #59, #259, #71 ) ) ;
#502 = ORIENTED_EDGE ( 'NONE', *, *, #335, .T. ) ;
#503 = CARTESIAN_POINT ( 'NONE',  ( 44.63142998961756547, 0.4350451896850524025, -147.2482478099412333 ) ) ;
#504 = EDGE_CURVE ( 'NONE', #263, #777, #381, .T. ) ;
#505 = CARTESIAN_POINT ( 'NONE',  ( 3.108624468950438313E-12, 120.0000000000000000, 5.891120924417236893E-12 ) ) ;
#506 = ORIENTED_EDGE ( 'NONE', *, *, #85, .T. ) ;
#507 = ORIENTED_EDGE ( 'NONE', *, *, #659, .T. ) ;
#508 = ORIENTED_EDGE ( 'NONE', *, *, #463, .F. ) ;
#509 = LINE ( 'NONE', #434, #574 ) ;
#510 = CARTESIAN_POINT ( 'NONE',  ( 150.2793345230745103, 0.000000000000000000, -45.44360722659488516 ) ) ;
#511 = ORIENTED_EDGE ( 'NONE', *, *, #504, .T. ) ;
#512 = CARTESIAN_POINT ( 'NONE',  ( 148.1763026795966027, 2.902403284001660033, -34.52733973837234061 ) ) ;
#513 = FACE_OUTER_BOUND ( 'NONE', #711, .T. ) ;
#514 = ADVANCED_FACE ( 'NONE', ( #9, #610 ), #618, .T. ) ;
#515 = CARTESIAN_POINT ( 'NONE',  ( 148.0353646318116034, 5.000000000000004441, -34.48957550228554680 ) ) ;
#516 = DIRECTION ( 'NONE',  ( 0.2588190451025232930, -1.211690350419398261E-27, -0.9659258262890676461 ) ) ;
#517 = ADVANCED_FACE ( 'NONE', ( #562 ), #601, .T. ) ;
#518 = CARTESIAN_POINT ( 'NONE',  ( 148.7774562668390672, 1.230969631620264737, -34.68841835660104778 ) ) ;
#519 = CARTESIAN_POINT ( 'NONE',  ( -4.718447854656915297E-12, 6.999999999999978684, 3.337607967779376850E-12 ) ) ;
#520 = VECTOR ( 'NONE', #144, 1000.000000000000000 ) ;
#521 = CARTESIAN_POINT ( 'NONE',  ( 37.57673771089148573, 4.999999999997728040, -147.3276555912072183 ) ) ;
#522 = CARTESIAN_POINT ( 'NONE',  ( 3.108624468950438313E-12, 120.0000000000000000, 5.891120924417236893E-12 ) ) ;
#523 = AXIS2_PLACEMENT_3D ( 'NONE', #699, #648, #489 ) ;
#524 = CARTESIAN_POINT ( 'NONE',  ( 150.7558438679558037, 0.1615379552915420236, -35.21852571663600884 ) ) ;
#525 = CARTESIAN_POINT ( 'NONE',  ( 3.999999999997727596, 120.0000000000011369, -187.9574419915446981 ) ) ;
#526 = CARTESIAN_POINT ( 'NONE',  ( 148.3044420783471651, 0.1366205294923473201, -44.91443639089009565 ) ) ;
#527 = CARTESIAN_POINT ( 'NONE',  ( 152.1739600514803215, -2.275957200481570908E-12, -38.81281460929428562 ) ) ;
#528 = CARTESIAN_POINT ( 'NONE',  ( 148.4893348897511771, 0.1069391624856750739, -44.96397827039211137 ) ) ;
#529 = CARTESIAN_POINT ( 'NONE',  ( 187.9574419915316810, 119.9999999999988631, -4.000000000000398792 ) ) ;
#530 = VECTOR ( 'NONE', #105, 1000.000000000000114 ) ;
#531 = AXIS2_PLACEMENT_3D ( 'NONE', #599, #773, #708 ) ;
#532 = CARTESIAN_POINT ( 'NONE',  ( 145.4471738670708305, 4.159089166793334513, -44.14883368111949835 ) ) ;
#533 = FACE_OUTER_BOUND ( 'NONE', #248, .T. ) ;
#534 = PLANE ( 'NONE',  #743 ) ;
#535 = DIRECTION ( 'NONE',  ( 1.486845034160563051E-26, 1.000000000000000000, -1.767048427694962053E-27 ) ) ;
#536 = CARTESIAN_POINT ( 'NONE',  ( 34.54430819696523969, 2.569779790827870336, -148.2396298291940866 ) ) ;
#537 = CARTESIAN_POINT ( 'NONE',  ( 148.2505393361503820, 0.1461230226698513601, -44.89999319464864413 ) ) ;
#538 = CARTESIAN_POINT ( 'NONE',  ( 44.63476554576118360, 0.4296688280631613677, -147.2606962749406705 ) ) ;
#539 = CARTESIAN_POINT ( 'NONE',  ( 34.52864296207700079, 2.873784851173521115, -148.1811663766787319 ) ) ;
#540 = PLANE ( 'NONE',  #531 ) ;
#541 = CARTESIAN_POINT ( 'NONE',  ( 44.34767661949115336, 1.230969631618695548, -146.1892658158105576 ) ) ;
#542 = FILL_AREA_STYLE_COLOUR ( '', #717 ) ;
#543 = ORIENTED_EDGE ( 'NONE', *, *, #379, .T. ) ;
#544 = DIRECTION ( 'NONE',  ( 1.000000000000000000, 1.498520175557749939E-26, 3.469446951895280390E-16 ) ) ;
#545 = CARTESIAN_POINT ( 'NONE',  ( 44.19580782475259895, 2.699195794263760106, -145.6224837577619837 ) ) ;
#546 = LINE ( 'NONE', #3, #48 ) ;
#547 = EDGE_LOOP ( 'NONE', ( #561, #652, #323, #662 ) ) ;
#548 = EDGE_LOOP ( 'NONE', ( #511, #92, #31, #712 ) ) ;
#549 = DIRECTION ( 'NONE',  ( 1.000000000000000000, 1.498520175557749939E-26, 3.469446951895280390E-16 ) ) ;
#550 = CARTESIAN_POINT ( 'NONE',  ( 35.78434896370874441, 0.000000000000000000, -152.8675249741273490 ) ) ;
#551 = DIRECTION ( 'NONE',  ( -3.469446952011558488E-16, 1.767048427694967075E-27, 1.000000000000000000 ) ) ;
#552 = ORIENTED_EDGE ( 'NONE', *, *, #178, .T. ) ;
#553 = AXIS2_PLACEMENT_3D ( 'NONE', #160, #766, #297 ) ;
#554 = ADVANCED_FACE ( 'NONE', ( #190 ), #558, .T. ) ;
#555 = DIRECTION ( 'NONE',  ( -1.486845034160563051E-26, -1.000000000000000000, -1.312664546287763644E-27 ) ) ;
#556 = CARTESIAN_POINT ( 'NONE',  ( -2.997602166487922659E-12, 120.0000000000011369, -112.0000000000023448 ) ) ;
#557 = ORIENTED_EDGE ( 'NONE', *, *, #686, .F. ) ;
#558 = PLANE ( 'NONE',  #399 ) ;
#559 = ORIENTED_EDGE ( 'NONE', *, *, #750, .F. ) ;
#560 = EDGE_CURVE ( 'NONE', #429, #269, #509, .T. ) ;
#561 = ORIENTED_EDGE ( 'NONE', *, *, #473, .F. ) ;
#562 = FACE_OUTER_BOUND ( 'NONE', #157, .T. ) ;
#563 = CARTESIAN_POINT ( 'NONE',  ( 145.4471741807837475, 5.000000000002280842, -44.14883376517860825 ) ) ;
#564 = EDGE_CURVE ( 'NONE', #443, #329, #730, .T. ) ;
#565 = ORIENTED_EDGE ( 'NONE', *, *, #613, .T. ) ;
#566 = CARTESIAN_POINT ( 'NONE',  ( 150.8137210423237491, 0.1506762044724860861, -35.23403385876807903 ) ) ;
#567 = DIRECTION ( 'NONE',  ( -0.9659258262890693114, -1.467912372435157174E-26, 0.2588190451025173533 ) ) ;
#568 = CARTESIAN_POINT ( 'NONE',  ( 44.62712493517603463, 9.103828801926285247E-12, -145.3011346136616169 ) ) ;
#569 = LINE ( 'NONE', #681, #338 ) ;
#570 = EDGE_CURVE ( 'NONE', #34, #374, #759, .T. ) ;
#571 = CARTESIAN_POINT ( 'NONE',  ( 44.62712493517134504, 5.000000000002280842, -145.3011346136765383 ) ) ;
#572 = CARTESIAN_POINT ( 'NONE',  ( 3.999999999995229594, 6.999999999997702282, -187.9574419915334715 ) ) ;
#573 = VECTOR ( 'NONE', #337, 1000.000000000000114 ) ;
#574 = VECTOR ( 'NONE', #655, 1000.000000000000000 ) ;
#575 = CARTESIAN_POINT ( 'NONE',  ( 148.1726315193816674, 2.924439195802530644, -34.52635605395747120 ) ) ;
#576 = LINE ( 'NONE', #286, #530 ) ;
#577 = CARTESIAN_POINT ( 'NONE',  ( 34.60477967778071218, 1.840472740069525326, -148.4653124680064025 ) ) ;
#578 = CARTESIAN_POINT ( 'NONE',  ( 145.9230690614589605, 1.733593424833145935, -44.27634941413764835 ) ) ;
#579 = CARTESIAN_POINT ( 'NONE',  ( 112.0000000000048175, 120.0000000000011369, 2.386979502944086562E-12 ) ) ;
#580 = EDGE_CURVE ( 'NONE', #132, #630, #546, .T. ) ;
#581 = CARTESIAN_POINT ( 'NONE',  ( 147.5171739296900171, 0.3297807024380589591, -44.70348852623066449 ) ) ;
#582 = CARTESIAN_POINT ( 'NONE',  ( 44.18425563671624445, 2.955494100913277578, -145.5793704050717565 ) ) ;
#583 = CARTESIAN_POINT ( 'NONE',  ( 34.53145958288805417, 2.813869438516809041, -148.1916781486512207 ) ) ;
#584 = CARTESIAN_POINT ( 'NONE',  ( 147.3239739647880810, 0.4031559608149714036, -44.65172075165747145 ) ) ;
#585 = SURFACE_SIDE_STYLE ('',( #485 ) ) ;
#586 = EDGE_CURVE ( 'NONE', #145, #706, #716, .T. ) ;
#587 = CARTESIAN_POINT ( 'NONE',  ( 146.1427716120408888, 1.319814670045814875, -44.33521853514110944 ) ) ;
#588 = CARTESIAN_POINT ( 'NONE',  ( 145.3011346136783573, 3.034609600642094813E-12, -44.62712493517049950 ) ) ;
#589 = DIRECTION ( 'NONE',  ( -3.469446952011541231E-16, 0.000000000000000000, 1.000000000000000000 ) ) ;
#590 =( NAMED_UNIT ( * ) SI_UNIT ( $, .STERADIAN. ) SOLID_ANGLE_UNIT ( ) );
#591 = DIRECTION ( 'NONE',  ( -0.2588190451025255134, 6.058451752096985028E-28, 0.9659258262890669799 ) ) ;
#592 = CARTESIAN_POINT ( 'NONE',  ( 35.25517812800382700, 0.1366205294888414856, -150.8926325294031869 ) ) ;
#593 = ORIENTED_EDGE ( 'NONE', *, *, #424, .F. ) ;
#594 = DIRECTION ( 'NONE',  ( 3.469446952011558488E-16, -1.767048427694967075E-27, -1.000000000000000000 ) ) ;
#595 = CARTESIAN_POINT ( 'NONE',  ( 35.11819068362509455, 0.2418917565241715251, -150.3813884269826531 ) ) ;
#596 = CARTESIAN_POINT ( 'NONE',  ( 34.48957541822548478, 4.159089166822813155, -148.0353643180979475 ) ) ;
#597 = ORIENTED_EDGE ( 'NONE', *, *, #726, .F. ) ;
#598 = ORIENTED_EDGE ( 'NONE', *, *, #775, .F. ) ;
#599 = CARTESIAN_POINT ( 'NONE',  ( -2.997602166487922659E-12, 120.0000000000011369, -112.0000000000023448 ) ) ;
#600 = CARTESIAN_POINT ( 'NONE',  ( 34.98060279415674501, 0.4215649213474959023, -149.8679034329805972 ) ) ;
#601 = PLANE ( 'NONE',  #497 ) ;
#602 = ORIENTED_EDGE ( 'NONE', *, *, #280, .F. ) ;
#603 = ORIENTED_EDGE ( 'NONE', *, *, #473, .T. ) ;
#604 = DIRECTION ( 'NONE',  ( -1.486845034160563051E-26, -1.000000000000000000, 1.767048427694962053E-27 ) ) ;
#605 = CARTESIAN_POINT ( 'NONE',  ( 44.89641311001420121, 0.1485427687459718038, -148.2371782784096865 ) ) ;
#606 = CARTESIAN_POINT ( 'NONE',  ( 148.0353646318116034, 5.000000000000004441, -34.48957550228554680 ) ) ;
#607 = EDGE_LOOP ( 'NONE', ( #507, #392, #430, #65 ) ) ;
#608 = EDGE_LOOP ( 'NONE', ( #10, #255, #728, #453 ) ) ;
#609 = CARTESIAN_POINT ( 'NONE',  ( 44.29787684946921189, 1.525356955315267493, -146.0034105438833194 ) ) ;
#610 = FACE_OUTER_BOUND ( 'NONE', #501, .T. ) ;
#611 = ORIENTED_EDGE ( 'NONE', *, *, #80, .T. ) ;
#612 = ORIENTED_EDGE ( 'NONE', *, *, #63, .F. ) ;
#613 = EDGE_CURVE ( 'NONE', #374, #665, #360, .T. ) ;
#614 = CARTESIAN_POINT ( 'NONE',  ( 3.999999999992787103, 120.0000000000011369, -115.9310139695179060 ) ) ;
#615 = VERTEX_POINT ( 'NONE', #455 ) ;
#616 = EDGE_LOOP ( 'NONE', ( #670, #67, #597, #657 ) ) ;
#617 = EDGE_CURVE ( 'NONE', #96, #777, #215, .T. ) ;
#618 = PLANE ( 'NONE',  #141 ) ;
#619 = DIRECTION ( 'NONE',  ( 0.9659258262890676461, 1.838361453526930543E-26, 0.2588190451025232930 ) ) ;
#620 = ORIENTED_EDGE ( 'NONE', *, *, #85, .F. ) ;
#621 = FACE_OUTER_BOUND ( 'NONE', #369, .T. ) ;
#622 = LINE ( 'NONE', #331, #47 ) ;
#623 = ADVANCED_FACE ( 'NONE', ( #159 ), #676, .F. ) ;
#624 = CARTESIAN_POINT ( 'NONE',  ( 35.12084155376249583, -2.275957200481570908E-12, -153.0213269075800326 ) ) ;
#625 = CYLINDRICAL_SURFACE ( 'NONE', #753, 112.0000000000062954 ) ;
#626 = ADVANCED_FACE ( 'NONE', ( #621 ), #401, .T. ) ;
#627 = CARTESIAN_POINT ( 'NONE',  ( 106.7817393305518436, 2.275957200481570908E-12, -33.78846172205947340 ) ) ;
#628 = DIRECTION ( 'NONE',  ( 3.469446952011541231E-16, 0.000000000000000000, -1.000000000000000000 ) ) ;
#629 = CARTESIAN_POINT ( 'NONE',  ( 150.2239369500058501, 0.2869896768430119649, -35.07600168752279046 ) ) ;
#630 = VERTEX_POINT ( 'NONE', #627 ) ;
#631 = CARTESIAN_POINT ( 'NONE',  ( 149.9969734419691179, 0.3665118009947506694, -35.01518699883301622 ) ) ;
#632 = CARTESIAN_POINT ( 'NONE',  ( 192.0000000000050022, 120.0000000000011369, 5.481726184086710418E-13 ) ) ;
#633 = CARTESIAN_POINT ( 'NONE',  ( 148.2616566733200045, 0.1441337003781171522, -44.90297207616523423 ) ) ;
#634 = CARTESIAN_POINT ( 'NONE',  ( -2.997602166487922659E-12, 120.0000000000011369, -112.0000000000023448 ) ) ;
#635 = CARTESIAN_POINT ( 'NONE',  ( 34.48957550228459468, 4.999999999997728040, -148.0353646318108360 ) ) ;
#636 = CARTESIAN_POINT ( 'NONE',  ( 150.2793345230745103, 0.000000000000000000, -45.44360722659488516 ) ) ;
#637 = LINE ( 'NONE', #422, #355 ) ;
#638 = CARTESIAN_POINT ( 'NONE',  ( 34.50223074050288119, 3.458401478678715169, -148.0825946238233541 ) ) ;
#639 = ADVANCED_FACE ( 'NONE', ( #95 ), #52, .T. ) ;
#640 = PLANE ( 'NONE',  #754 ) ;
#641 = CARTESIAN_POINT ( 'NONE',  ( 147.3276555912019887, 5.000000000004556355, -37.57673771089563530 ) ) ;
#642 = VECTOR ( 'NONE', #64, 1000.000000000000000 ) ;
#643 = CARTESIAN_POINT ( 'NONE',  ( 34.53556011748275267, 2.731154082044342069, -148.2069815520968632 ) ) ;
#644 = FACE_OUTER_BOUND ( 'NONE', #389, .T. ) ;
#645 = CARTESIAN_POINT ( 'NONE',  ( 187.9574419915316810, 6.999999999997729816, -4.000000000000023981 ) ) ;
#646 = ORIENTED_EDGE ( 'NONE', *, *, #482, .T. ) ;
#647 = EDGE_CURVE ( 'NONE', #383, #402, #236, .T. ) ;
#648 = DIRECTION ( 'NONE',  ( 0.000000000000000000, 0.000000000000000000, 1.000000000000000000 ) ) ;
#649 = CARTESIAN_POINT ( 'NONE',  ( 145.6034876976087844, 2.813869438522826005, -44.19071784577794659 ) ) ;
#650 = CARTESIAN_POINT ( 'NONE',  ( 44.21155440396671565, 2.426250010429150450, -145.6812507914345076 ) ) ;
#651 = CARTESIAN_POINT ( 'NONE',  ( 34.56399239710234639, 2.263256895308766836, -148.3130922642122016 ) ) ;
#652 = ORIENTED_EDGE ( 'NONE', *, *, #504, .F. ) ;
#653 = DIRECTION ( 'NONE',  ( -1.486845034160563051E-26, -1.000000000000000000, -1.312664546287763644E-27 ) ) ;
#654 = CARTESIAN_POINT ( 'NONE',  ( 35.24371381327892294, 0.1441337003746664958, -150.8498471243757706 ) ) ;
#655 = DIRECTION ( 'NONE',  ( 1.000000000000000000, 1.498520175557749939E-26, 3.469446951895280390E-16 ) ) ;
#656 = ORIENTED_EDGE ( 'NONE', *, *, #405, .F. ) ;
#657 = ORIENTED_EDGE ( 'NONE', *, *, #564, .T. ) ;
#658 = VECTOR ( 'NONE', #104, 1000.000000000000000 ) ;
#659 = EDGE_CURVE ( 'NONE', #208, #263, #343, .T. ) ;
#660 = CARTESIAN_POINT ( 'NONE',  ( 44.25890796080661005, 1.887611588329747514, -145.8579766714800883 ) ) ;
#661 = DIRECTION ( 'NONE',  ( 3.469446952011558488E-16, -1.767048427694967075E-27, -1.000000000000000000 ) ) ;
#662 = ORIENTED_EDGE ( 'NONE', *, *, #758, .F. ) ;
#663 = CARTESIAN_POINT ( 'NONE',  ( 44.89329212165928595, 0.1506762044741840334, -148.2255305912992469 ) ) ;
#664 = DIRECTION ( 'NONE',  ( -1.486845034160563051E-26, -1.000000000000000000, -1.312664546287763644E-27 ) ) ;
#665 = VERTEX_POINT ( 'NONE', #290 ) ;
#666 = ORIENTED_EDGE ( 'NONE', *, *, #22, .F. ) ;
#667 = CARTESIAN_POINT ( 'NONE',  ( 44.89840999196064075, 0.1471908092634814924, -148.2446307432904007 ) ) ;
#668 = DIRECTION ( 'NONE',  ( -3.469446952011558981E-16, 1.767048427694966717E-27, 1.000000000000000000 ) ) ;
#669 = ORIENTED_EDGE ( 'NONE', *, *, #466, .F. ) ;
#670 = ORIENTED_EDGE ( 'NONE', *, *, #758, .T. ) ;
#671 = EDGE_CURVE ( 'NONE', #496, #368, #356, .T. ) ;
#672 = APPLICATION_CONTEXT ( 'automotive_design' ) ;
#673 = LINE ( 'NONE', #495, #234 ) ;
#674 = CARTESIAN_POINT ( 'NONE',  ( 148.0353646318117740, 0.000000000000000000, -34.48957550228598024 ) ) ;
#675 = ORIENTED_EDGE ( 'NONE', *, *, #270, .T. ) ;
#676 = PLANE ( 'NONE',  #174 ) ;
#677 = CARTESIAN_POINT ( 'NONE',  ( -4.718447854656915297E-12, 6.999999999999978684, 3.337607967779376850E-12 ) ) ;
#678 = CARTESIAN_POINT ( 'NONE',  ( 149.5727485981329323, 0.5625033967766585041, -34.90151629451789717 ) ) ;
#679 = FACE_OUTER_BOUND ( 'NONE', #203, .T. ) ;
#680 = CARTESIAN_POINT ( 'NONE',  ( 149.1200645169783172, 0.8782418167961377753, -34.78021996054609133 ) ) ;
#681 = CARTESIAN_POINT ( 'NONE',  ( 3.999999999992676081, 7.000000000002282619, -115.9310139695178208 ) ) ;
#682 = CARTESIAN_POINT ( 'NONE',  ( 150.8253687294340466, 0.1485427687442645306, -35.23715484712300139 ) ) ;
#683 = ORIENTED_EDGE ( 'NONE', *, *, #335, .F. ) ;
#684 = DIRECTION ( 'NONE',  ( 1.486845034160563051E-26, 1.000000000000000000, 1.312664546287763644E-27 ) ) ;
#685 = DIRECTION ( 'NONE',  ( -3.469446952011557994E-16, 1.767048427694967075E-27, 1.000000000000000000 ) ) ;
#686 = EDGE_CURVE ( 'NONE', #451, #146, #409, .T. ) ;
#687 =( BOUNDED_SURFACE ( )  B_SPLINE_SURFACE ( 2, 3, ( 
 ( #762, #527, #701, #756 ),
 ( #38, #50, #294, #588 ),
 ( #690, #641, #163, #177 ) ),
 .UNSPECIFIED., .F., .F., .T. ) 
 B_SPLINE_SURFACE_WITH_KNOTS ( ( 3, 3 ),
 ( 4, 4 ),
 ( 0.000000000000000000, 1.000000000000000000 ),
 ( 1.796404975284653593, 1.868786453903439781 ),
 .UNSPECIFIED. ) 
 GEOMETRIC_REPRESENTATION_ITEM ( )  RATIONAL_B_SPLINE_SURFACE ( (
 ( 1.000000000000000000, 1.000000000000000000, 1.000000000000000000, 1.000000000000000000),
 ( 1.499999999999999778, 1.499999999999999778, 1.499999999999999778, 1.499999999999999778),
 ( 1.000000000000000000, 1.000000000000000000, 1.000000000000000000, 1.000000000000000000) ) ) 
 REPRESENTATION_ITEM ( '' )  SURFACE ( )  );
#688 = CIRCLE ( 'NONE', #123, 116.0000000000065370 ) ;
#689 = CARTESIAN_POINT ( 'NONE',  ( 148.7488729638477878, 0.07205936396936211963, -45.03352128775144081 ) ) ;
#690 = CARTESIAN_POINT ( 'NONE',  ( 148.1480362417312904, 5.000000000002280842, -34.00234341510962111 ) ) ;
#691 = CARTESIAN_POINT ( 'NONE',  ( 147.2797129819260817, 0.4215649213500192727, -44.63986105704339025 ) ) ;
#692 = CARTESIAN_POINT ( 'NONE',  ( 109.3699297815783353, 0.000000000000000000, -24.12920345916995402 ) ) ;
#693 = CARTESIAN_POINT ( 'NONE',  ( 45.44360722660278640, 0.000000000000000000, -150.2793345230890623 ) ) ;
#694 = ADVANCED_FACE ( 'NONE', ( #644 ), #640, .T. ) ;
#695 = CARTESIAN_POINT ( 'NONE',  ( 145.8906370870494129, 1.808055445140438033, -44.26765929278565181 ) ) ;
#696 = CARTESIAN_POINT ( 'NONE',  ( 187.9574419915316810, 6.999999999997729816, -4.000000000000023981 ) ) ;
#697 = CARTESIAN_POINT ( 'NONE',  ( 24.12920345917041232, 0.000000000000000000, -109.3699297815740010 ) ) ;
#698 = EDGE_CURVE ( 'NONE', #487, #34, #350, .T. ) ;
#699 = CARTESIAN_POINT ( 'NONE',  ( 0.000000000000000000, 0.000000000000000000, 0.000000000000000000 ) ) ;
#700 = CARTESIAN_POINT ( 'NONE',  ( 145.4944041727912918, 3.458401478649776539, -44.16148900339557315 ) ) ;
#701 = CARTESIAN_POINT ( 'NONE',  ( 151.1929225036012099, 0.000000000000000000, -42.47409658168651703 ) ) ;
#702 = CARTESIAN_POINT ( 'NONE',  ( 0.000000000000000000, 0.000000000000000000, 0.000000000000000000 ) ) ;
#703 = CARTESIAN_POINT ( 'NONE',  ( 24.12920345916613840, 5.000000000000004441, -109.3699297815774116 ) ) ;
#704 = CARTESIAN_POINT ( 'NONE',  ( 44.88862000683425180, 0.1538951876321095480, -148.2080940213934355 ) ) ;
#705 = PRESENTATION_STYLE_ASSIGNMENT (( #45 ) ) ;
#706 = VERTEX_POINT ( 'NONE', #239 ) ;
#707 = ADVANCED_FACE ( 'NONE', ( #296 ), #416, .F. ) ;
#708 = DIRECTION ( 'NONE',  ( 3.469446952011558488E-16, -1.767048427694967075E-27, -1.000000000000000000 ) ) ;
#709 = CARTESIAN_POINT ( 'NONE',  ( 44.25337713454346300, 1.940564251307984378, -145.8373353468582252 ) ) ;
#710 = DIRECTION ( 'NONE',  ( 1.486845034160563051E-26, 1.000000000000000000, -1.767048427694962053E-27 ) ) ;
#711 = EDGE_LOOP ( 'NONE', ( #603, #442, #135, #142 ) ) ;
#712 = ORIENTED_EDGE ( 'NONE', *, *, #26, .T. ) ;
#713 = DIRECTION ( 'NONE',  ( -0.9659258262890692004, -1.484320679263753646E-26, 0.2588190451025172978 ) ) ;
#714 = CARTESIAN_POINT ( 'NONE',  ( 35.27144300369337060, 0.1263913578085058276, -150.9533338718552216 ) ) ;
#715 = CIRCLE ( 'NONE', #397, 188.0000000000105729 ) ;
#716 = LINE ( 'NONE', #196, #734 ) ;
#717 = COLOUR_RGB ( '',0.7921568627450980005, 0.8196078431372548767, 0.9333333333333333481 ) ;
#718 = PRODUCT_DEFINITION_CONTEXT ( 'detailed design', #101, 'design' ) ;
#719 = CARTESIAN_POINT ( 'NONE',  ( 109.3699297815747258, 5.000000000002252420, -24.12920345917002507 ) ) ;
#720 = DIRECTION ( 'NONE',  ( 1.000000000000000000, 1.498520175557749939E-26, 3.469446951895280390E-16 ) ) ;
#721 = DIRECTION ( 'NONE',  ( -1.486845034160563051E-26, -1.000000000000000000, -1.312664546287763644E-27 ) ) ;
#722 = EDGE_LOOP ( 'NONE', ( #382, #367, #598, #565 ) ) ;
#723 = ORIENTED_EDGE ( 'NONE', *, *, #466, .T. ) ;
#724 = VERTEX_POINT ( 'NONE', #719 ) ;
#725 = CARTESIAN_POINT ( 'NONE',  ( 44.85637422071832248, 0.1773507184523784586, -148.0877511092787415 ) ) ;
#726 = EDGE_CURVE ( 'NONE', #443, #212, #68, .T. ) ;
#727 = CARTESIAN_POINT ( 'NONE',  ( 145.4471741807837475, 5.000000000002280842, -44.14883376517860825 ) ) ;
#728 = ORIENTED_EDGE ( 'NONE', *, *, #412, .F. ) ;
#729 = ORIENTED_EDGE ( 'NONE', *, *, #570, .F. ) ;
#730 = LINE ( 'NONE', #492, #520 ) ;
#731 = LINE ( 'NONE', #211, #437 ) ;
#732 = CIRCLE ( 'NONE', #60, 112.0000000000062954 ) ;
#733 = ORIENTED_EDGE ( 'NONE', *, *, #231, .F. ) ;
#734 = VECTOR ( 'NONE', #441, 1000.000000000000000 ) ;
#735 = CARTESIAN_POINT ( 'NONE',  ( 150.5200525500867741, 0.2110851561174086066, -35.15534562343072622 ) ) ;
#736 = LINE ( 'NONE', #572, #244 ) ;
#737 = DIRECTION ( 'NONE',  ( 3.469446952011564404E-16, 0.000000000000000000, -1.000000000000000000 ) ) ;
#738 = LINE ( 'NONE', #563, #121 ) ;
#739 = CARTESIAN_POINT ( 'NONE',  ( 148.1675608561012325, 2.955494100913401034, -34.52499737382638756 ) ) ;
#740 = LINE ( 'NONE', #674, #573 ) ;
#741 = AXIS2_PLACEMENT_3D ( 'NONE', #519, #458, #465 ) ;
#742 = CIRCLE ( 'NONE', #172, 112.0000000000062812 ) ;
#743 = AXIS2_PLACEMENT_3D ( 'NONE', #763, #241, #478 ) ;
#744 = CARTESIAN_POINT ( 'NONE',  ( 148.1767554727895799, 2.899700943832200561, -34.52746106394276637 ) ) ;
#745 = DIRECTION ( 'NONE',  ( -3.469446952011564404E-16, 0.000000000000000000, 1.000000000000000000 ) ) ;
#746 = ADVANCED_FACE ( 'NONE', ( #260 ), #498, .F. ) ;
#747 = CARTESIAN_POINT ( 'NONE',  ( 148.2106742087918008, 2.699195794263302695, -34.53654956186283442 ) ) ;
#748 = ADVANCED_FACE ( 'NONE', ( #73 ), #124, .T. ) ;
#749 = CARTESIAN_POINT ( 'NONE',  ( 44.14883368111703277, 4.578504000558795362, -145.4471738670720242 ) ) ;
#750 = EDGE_CURVE ( 'NONE', #132, #724, #126, .T. ) ;
#751 = CARTESIAN_POINT ( 'NONE',  ( 148.0568621522633634, 0.1811710416363690179, -44.84809754963378481 ) ) ;
#752 = CARTESIAN_POINT ( 'NONE',  ( 0.000000000000000000, 0.000000000000000000, 0.000000000000000000 ) ) ;
#753 = AXIS2_PLACEMENT_3D ( 'NONE', #216, #334, #628 ) ;
#754 = AXIS2_PLACEMENT_3D ( 'NONE', #755, #535, #106 ) ;
#755 = CARTESIAN_POINT ( 'NONE',  ( -4.718447854656915297E-12, 6.999999999999978684, 3.337607967779376850E-12 ) ) ;
#756 = CARTESIAN_POINT ( 'NONE',  ( 150.0807771996510098, 0.000000000000000000, -46.09512246593808271 ) ) ;
#757 = CARTESIAN_POINT ( 'NONE',  ( 33.78846172205584963, 5.000000000000004441, -106.7817393305489020 ) ) ;
#758 = EDGE_CURVE ( 'NONE', #329, #208, #61, .T. ) ;
#759 = B_SPLINE_CURVE_WITH_KNOTS ( 'NONE', 3,
 ( #727, #390, #87, #70 ),
 .UNSPECIFIED., .F., .F.,
 ( 4, 4 ),
 ( 0.000000000000000000, 1.000000000000000000 ),
 .UNSPECIFIED. ) ;
#760 = ADVANCED_FACE ( 'NONE', ( #304 ), #540, .F. ) ;
#761 = CARTESIAN_POINT ( 'NONE',  ( 145.8629966475181732, 1.875072961290649376, -44.26025305933482201 ) ) ;
#762 = CARTESIAN_POINT ( 'NONE',  ( 153.0213269075823632, 0.000000000000000000, -35.12084155376697225 ) ) ;
#763 = CARTESIAN_POINT ( 'NONE',  ( 44.14883376517614266, 5.000000000002280842, -145.4471741807849412 ) ) ;
#764 = EDGE_CURVE ( 'NONE', #143, #184, #250, .T. ) ;
#765 = CARTESIAN_POINT ( 'NONE',  ( 147.3870579464434059, 0.3779872033613621563, -44.66862405359734822 ) ) ;
#766 = DIRECTION ( 'NONE',  ( -1.000000000000000000, -1.498520175557749652E-26, -3.469446952011558488E-16 ) ) ;
#767 =( LENGTH_UNIT ( ) NAMED_UNIT ( * ) SI_UNIT ( .MILLI., .METRE. ) );
#768 = VECTOR ( 'NONE', #721, 1000.000000000000000 ) ;
#769 = CARTESIAN_POINT ( 'NONE',  ( 145.9915202537244738, 1.589382722369479639, -44.29469085582612564 ) ) ;
#770 = CARTESIAN_POINT ( 'NONE',  ( 44.87778397952716603, 0.1615379552931946461, -148.1676534169311310 ) ) ;
#771 = AXIS2_PLACEMENT_3D ( 'NONE', #40, #182, #359 ) ;
#772 = PRODUCT_DEFINITION ( 'NON CONOSCIUTO', '', #235, #718 ) ;
#773 = DIRECTION ( 'NONE',  ( 1.000000000000000000, 1.498520175557749652E-26, 3.469446952011558488E-16 ) ) ;
#774 = CARTESIAN_POINT ( 'NONE',  ( 44.18671932683253090, 2.899700943832952404, -145.5885650217598482 ) ) ;
#775 = EDGE_CURVE ( 'NONE', #374, #724, #432, .T. ) ;
#776 = ORIENTED_EDGE ( 'NONE', *, *, #560, .T. ) ;
#777 = VERTEX_POINT ( 'NONE', #192 ) ;
ENDSEC;
END-ISO-10303-21;
