ISO-10303-21;
HEADER;
FILE_DESCRIPTION (( 'STEP AP214' ),
    '1' );
FILE_NAME ('ELP-0040-1.STEP',
    '2026-04-12T09:00:41',
    ( '' ),
    ( '' ),
    'SwSTEP 2.0',
    'SolidWorks 2024',
    '' );
FILE_SCHEMA (( 'AUTOMOTIVE_DESIGN' ));
ENDSEC;

DATA;
#1 = FACE_OUTER_BOUND ( 'NONE', #86, .T. ) ;
#2 = CARTESIAN_POINT ( 'NONE',  ( 61.10000000000000142, -31.00000000000000711, 37.50000000000000000 ) ) ;
#3 = ORIENTED_EDGE ( 'NONE', *, *, #899, .T. ) ;
#4 = ADVANCED_FACE ( 'NONE', ( #115 ), #913, .F. ) ;
#5 = CARTESIAN_POINT ( 'NONE',  ( 14.26251501201203986, 27.99999999999996803, 75.00000000000000000 ) ) ;
#6 = CARTESIAN_POINT ( 'NONE',  ( 5.377424649694533265, 7.110910776375424902, 59.74885854400670837 ) ) ;
#7 = EDGE_LOOP ( 'NONE', ( #347, #687, #551, #887 ) ) ;
#8 = AXIS2_PLACEMENT_3D ( 'NONE', #130, #203, #113 ) ;
#9 = VECTOR ( 'NONE', #85, 1000.000000000000000 ) ;
#10 = DIRECTION ( 'NONE',  ( 0.7071067811865516806, -0.7071067811865434649, 0.000000000000000000 ) ) ;
#11 = ORIENTED_EDGE ( 'NONE', *, *, #117, .T. ) ;
#12 = CARTESIAN_POINT ( 'NONE',  ( 5.033643862260738899, 7.656477940727916653, 16.13198398434614234 ) ) ;
#13 = EDGE_CURVE ( 'NONE', #330, #497, #640, .T. ) ;
#14 = DIRECTION ( 'NONE',  ( 0.9396926207859103153, -0.000000000000000000, 0.3420201433256631618 ) ) ;
#15 = ORIENTED_EDGE ( 'NONE', *, *, #326, .T. ) ;
#16 = CARTESIAN_POINT ( 'NONE',  ( -65.97276091847417945, -0.2461107660182825785, 0.000000000000000000 ) ) ;
#17 = EDGE_CURVE ( 'NONE', #316, #816, #697, .T. ) ;
#18 = CARTESIAN_POINT ( 'NONE',  ( 4.111647703464743842, 2.892357741840271057, 18.72916178637618856 ) ) ;
#19 = DIRECTION ( 'NONE',  ( -0.7071067811865435759, -0.7071067811865515695, 0.000000000000000000 ) ) ;
#20 = AXIS2_PLACEMENT_3D ( 'NONE', #735, #147, #665 ) ;
#21 = VECTOR ( 'NONE', #736, 1000.000000000000000 ) ;
#22 = CARTESIAN_POINT ( 'NONE',  ( -5.999999999999995559, 38.50000000000000000, 0.000000000000000000 ) ) ;
#23 = CARTESIAN_POINT ( 'NONE',  ( 3.822213064418739314, 4.817390598569301297, 19.63228823373977150 ) ) ;
#24 = ORIENTED_EDGE ( 'NONE', *, *, #746, .F. ) ;
#25 = EDGE_CURVE ( 'NONE', #40, #51, #258, .T. ) ;
#26 = CARTESIAN_POINT ( 'NONE',  ( 4.112191637987891113, 7.109167040232107659, 56.27249016104862278 ) ) ;
#27 = ORIENTED_EDGE ( 'NONE', *, *, #108, .T. ) ;
#28 = CARTESIAN_POINT ( 'NONE',  ( 4.781344277649222541, 7.799925021186850493, 16.80598111183615018 ) ) ;
#29 = ORIENTED_EDGE ( 'NONE', *, *, #504, .T. ) ;
#30 = EDGE_CURVE ( 'NONE', #272, #751, #127, .T. ) ;
#31 = DIRECTION ( 'NONE',  ( 1.000000000000000000, 0.000000000000000000, 0.000000000000000000 ) ) ;
#32 = DIRECTION ( 'NONE',  ( 1.387778780781445676E-16, -1.000000000000000000, 0.000000000000000000 ) ) ;
#33 = CIRCLE ( 'NONE', #378, 2.799999999999985612 ) ;
#34 = DIRECTION ( 'NONE',  ( -0.000000000000000000, -0.000000000000000000, -1.000000000000000000 ) ) ;
#35 = AXIS2_PLACEMENT_3D ( 'NONE', #414, #621, #543 ) ;
#36 = CARTESIAN_POINT ( 'NONE',  ( 3.822213064418739759, 5.000000000000009770, 19.63228823373976795 ) ) ;
#37 = CARTESIAN_POINT ( 'NONE',  ( -2.893067475520478826, 5.000000000000004441, 60.79157176047765176 ) ) ;
#38 = CARTESIAN_POINT ( 'NONE',  ( 23.64669573989498019, -31.00000000000001066, 0.000000000000000000 ) ) ;
#39 = CARTESIAN_POINT ( 'NONE',  ( -65.97276091847417945, -0.2461107660182825785, 75.00000000000000000 ) ) ;
#40 = VERTEX_POINT ( 'NONE', #556 ) ;
#41 = APPLICATION_CONTEXT ( 'automotive_design' ) ;
#42 = PRESENTATION_STYLE_ASSIGNMENT (( #358 ) ) ;
#43 = DIRECTION ( 'NONE',  ( -0.7071067811865515695, 0.7071067811865435759, 0.000000000000000000 ) ) ;
#44 = CARTESIAN_POINT ( 'NONE',  ( -5.999999999999991118, 4.999999999999942268, 75.00000000000000000 ) ) ;
#45 = DIRECTION ( 'NONE',  ( 0.000000000000000000, 1.000000000000000000, 0.000000000000000000 ) ) ;
#46 = ADVANCED_FACE ( 'NONE', ( #483 ), #628, .F. ) ;
#47 = EDGE_LOOP ( 'NONE', ( #915, #101, #118, #598, #368 ) ) ;
#48 = CARTESIAN_POINT ( 'NONE',  ( -2.893067475520473053, 5.000000000000009770, 14.20842823952233047 ) ) ;
#49 = CARTESIAN_POINT ( 'NONE',  ( 4.470263355792233995, 2.273801798583859224, 57.32892956037732546 ) ) ;
#50 = CARTESIAN_POINT ( 'NONE',  ( -4.474015487019413762, 5.000000000000001776, 61.36698977858559800 ) ) ;
#51 = VERTEX_POINT ( 'NONE', #930 ) ;
#52 = VECTOR ( 'NONE', #43, 1000.000000000000000 ) ;
#53 = DIRECTION ( 'NONE',  ( 0.5735764363510473807, -0.8191520442889910214, 0.000000000000000000 ) ) ;
#54 = CARTESIAN_POINT ( 'NONE',  ( 4.112216619839635712, 2.890751404075640352, 56.27256661462893561 ) ) ;
#55 = FACE_OUTER_BOUND ( 'NONE', #385, .T. ) ;
#56 = ORIENTED_EDGE ( 'NONE', *, *, #180, .F. ) ;
#57 = EDGE_CURVE ( 'NONE', #328, #743, #135, .T. ) ;
#58 = CARTESIAN_POINT ( 'NONE',  ( -0.9999999999999915623, 0.000000000000000000, 75.00000000000000000 ) ) ;
#59 = VERTEX_POINT ( 'NONE', #430 ) ;
#60 = CARTESIAN_POINT ( 'NONE',  ( -8.500000000000053291, 28.00000000000002842, 0.000000000000000000 ) ) ;
#61 = VERTEX_POINT ( 'NONE', #870 ) ;
#62 = DIRECTION ( 'NONE',  ( 0.7071067811865516806, -0.7071067811865434649, 0.000000000000000000 ) ) ;
#63 = DIRECTION ( 'NONE',  ( 0.000000000000000000, -1.000000000000000000, 0.000000000000000000 ) ) ;
#64 = CARTESIAN_POINT ( 'NONE',  ( 4.718442752845394494, 5.000000000000004441, 58.02120859953977572 ) ) ;
#65 = CARTESIAN_POINT ( 'NONE',  ( 4.844847237865002931, 7.781836768809199611, 58.36600079545367947 ) ) ;
#66 = ORIENTED_EDGE ( 'NONE', *, *, #602, .T. ) ;
#67 = CIRCLE ( 'NONE', #498, 53.00000000000000711 ) ;
#68 = VECTOR ( 'NONE', #241, 1000.000000000000227 ) ;
#69 = CARTESIAN_POINT ( 'NONE',  ( 14.26251501201203453, 0.000000000000000000, 0.000000000000000000 ) ) ;
#70 = FACE_OUTER_BOUND ( 'NONE', #799, .T. ) ;
#71 = CARTESIAN_POINT ( 'NONE',  ( 8.099999999999988987, 38.50000000000000000, 37.50000000000000000 ) ) ;
#72 = ADVANCED_FACE ( 'NONE', ( #1 ), #225, .F. ) ;
#73 = VERTEX_POINT ( 'NONE', #722 ) ;
#74 = FACE_BOUND ( 'NONE', #509, .T. ) ;
#75 = CARTESIAN_POINT ( 'NONE',  ( 5.702877759402299240, 5.727314169844265557, 60.54691157504313992 ) ) ;
#76 = VERTEX_POINT ( 'NONE', #652 ) ;
#77 = B_SPLINE_CURVE_WITH_KNOTS ( 'NONE', 3,
 ( #207, #442, #367, #75, #646, #128, #937, #372, #283, #6, #297, #502, #723, #641, #871, #65, #425, #864, #287, #585, #513, #158, #226, #459, #26, #822, #741, #604, #891, #381, #749, #454, #384, #747 ),
 .UNSPECIFIED., .F., .F.,
 ( 4, 2, 2, 2, 2, 2, 2, 2, 2, 2, 2, 2, 2, 2, 2, 2, 4 ),
 ( 0.004378629417733603986, 0.004925851975057710108, 0.005473074532381817098, 0.006020297089705924087, 0.006567519647030030210, 0.007114742204354136332, 0.007661964761678243321, 0.008209187319002350311, 0.008756409876326455566, 0.009303632433650562555, 0.009850854990974669545, 0.01039807754829877653, 0.01094530010562288352, 0.01149252266294699051, 0.01203974522027109577, 0.01258696777759520102, 0.01313419033491930801 ),
 .UNSPECIFIED. ) ;
#78 = DIRECTION ( 'NONE',  ( 0.7071067811865434649, 0.7071067811865516806, -0.000000000000000000 ) ) ;
#79 = LINE ( 'NONE', #376, #83 ) ;
#80 = EDGE_LOOP ( 'NONE', ( #294, #789, #491, #757, #642, #545, #159, #417, #24, #611, #277, #398, #603, #260, #479, #265 ) ) ;
#81 = CARTESIAN_POINT ( 'NONE',  ( 5.703138995316220594, 5.724632830090357061, 14.45246090330293853 ) ) ;
#82 = VECTOR ( 'NONE', #416, 1000.000000000000000 ) ;
#83 = VECTOR ( 'NONE', #10, 1000.000000000000000 ) ;
#84 = VECTOR ( 'NONE', #14, 1000.000000000000227 ) ;
#85 = DIRECTION ( 'NONE',  ( -1.387778780781445676E-16, 1.000000000000000000, -0.000000000000000000 ) ) ;
#86 = EDGE_LOOP ( 'NONE', ( #691, #521, #807, #659 ) ) ;
#87 = CARTESIAN_POINT ( 'NONE',  ( 5.682392887664007297, 5.902730808570220589, 14.50230965523024906 ) ) ;
#88 = ADVANCED_FACE ( 'NONE', ( #880 ), #588, .F. ) ;
#89 = LINE ( 'NONE', #22, #800 ) ;
#90 = ORIENTED_EDGE ( 'NONE', *, *, #13, .T. ) ;
#91 = CARTESIAN_POINT ( 'NONE',  ( 5.154628245248228602, 2.483284667859278816, 15.81720130614350950 ) ) ;
#92 = DIRECTION ( 'NONE',  ( 1.000000000000000000, 0.000000000000000000, 0.000000000000000000 ) ) ;
#93 = CARTESIAN_POINT ( 'NONE',  ( 3.848918631835342108, 4.274326101318504101, 19.54686738987004802 ) ) ;
#94 = ORIENTED_EDGE ( 'NONE', *, *, #13, .F. ) ;
#95 = STYLED_ITEM ( 'NONE', ( #42 ), #236 ) ;
#96 = AXIS2_PLACEMENT_3D ( 'NONE', #327, #548, #488 ) ;
#97 = DIRECTION ( 'NONE',  ( 0.7771459614569675711, 1.049727191138618326E-16, 0.6293203910498414988 ) ) ;
#98 = ADVANCED_FACE ( 'NONE', ( #70 ), #522, .F. ) ;
#99 = CARTESIAN_POINT ( 'NONE',  ( -3.850723876832334636, 5.000000000000004441, 58.16043242227710408 ) ) ;
#100 = FACE_OUTER_BOUND ( 'NONE', #129, .T. ) ;
#101 = ORIENTED_EDGE ( 'NONE', *, *, #301, .F. ) ;
#102 = DIRECTION ( 'NONE',  ( 0.7071067811865503483, 0.7071067811865446862, 0.000000000000000000 ) ) ;
#103 = ORIENTED_EDGE ( 'NONE', *, *, #25, .F. ) ;
#104 = CARTESIAN_POINT ( 'NONE',  ( 0.000000000000000000, 0.000000000000000000, 75.00000000000000000 ) ) ;
#105 = VECTOR ( 'NONE', #131, 1000.000000000000227 ) ;
#106 = CARTESIAN_POINT ( 'NONE',  ( -5.999999999999991118, 4.999999999999942268, 75.00000000000000000 ) ) ;
#107 = VERTEX_POINT ( 'NONE', #512 ) ;
#108 = EDGE_CURVE ( 'NONE', #938, #364, #583, .T. ) ;
#109 = FACE_OUTER_BOUND ( 'NONE', #298, .T. ) ;
#110 = CARTESIAN_POINT ( 'NONE',  ( 3.848901416584049162, 4.275008379847401230, 55.45307714522544273 ) ) ;
#111 = CARTESIAN_POINT ( 'NONE',  ( -8.500000000000053291, 28.00000000000002842, 75.00000000000000000 ) ) ;
#112 = ORIENTED_EDGE ( 'NONE', *, *, #703, .T. ) ;
#113 = DIRECTION ( 'NONE',  ( 0.000000000000000000, -0.000000000000000000, 1.000000000000000000 ) ) ;
#114 = FACE_OUTER_BOUND ( 'NONE', #734, .T. ) ;
#115 = FACE_OUTER_BOUND ( 'NONE', #243, .T. ) ;
#116 = LINE ( 'NONE', #708, #82 ) ;
#117 = EDGE_CURVE ( 'NONE', #825, #256, #732, .T. ) ;
#118 = ORIENTED_EDGE ( 'NONE', *, *, #504, .F. ) ;
#119 = CARTESIAN_POINT ( 'NONE',  ( -5.999999999999992895, 17.01471862576147842, 75.00000000000000000 ) ) ;
#120 = CARTESIAN_POINT ( 'NONE',  ( 5.155614715732124154, 2.484552205477444264, 59.18535167274181674 ) ) ;
#121 = MECHANICAL_DESIGN_GEOMETRIC_PRESENTATION_REPRESENTATION (  '', ( #95 ), #666 ) ;
#122 = CARTESIAN_POINT ( 'NONE',  ( -5.999999999999991118, 4.999999999999942268, 0.000000000000000000 ) ) ;
#123 = ORIENTED_EDGE ( 'NONE', *, *, #289, .F. ) ;
#124 = VECTOR ( 'NONE', #802, 1000.000000000000227 ) ;
#125 = ADVANCED_FACE ( 'NONE', ( #434 ), #860, .F. ) ;
#126 = FILL_AREA_STYLE_COLOUR ( '', #813 ) ;
#127 = LINE ( 'NONE', #38, #457 ) ;
#128 = CARTESIAN_POINT ( 'NONE',  ( 5.628794593190485251, 6.240875984461630388, 60.36810678786277151 ) ) ;
#129 = EDGE_LOOP ( 'NONE', ( #834, #247, #3, #637 ) ) ;
#130 = CARTESIAN_POINT ( 'NONE',  ( -0.9999999999999915623, 0.000000000000000000, 75.00000000000000000 ) ) ;
#131 = DIRECTION ( 'NONE',  ( 0.9396926207859102043, -0.000000000000000000, -0.3420201433256634949 ) ) ;
#132 = DIRECTION ( 'NONE',  ( -1.000000000000000000, 0.000000000000000000, 0.000000000000000000 ) ) ;
#133 = CARTESIAN_POINT ( 'NONE',  ( 0.000000000000000000, 0.000000000000000000, 75.00000000000000000 ) ) ;
#134 = ORIENTED_EDGE ( 'NONE', *, *, #57, .T. ) ;
#135 = B_SPLINE_CURVE_WITH_KNOTS ( 'NONE', 3,
 ( #857, #194, #489, #110, #774, #410, #415, #501, #926, #54, #574, #707, #204, #49, #345, #635, #853, #275, #199, #120, #421, #714, #787, #424, #719, #280, #645, #863, #210, #441, #894, #240 ),
 .UNSPECIFIED., .F., .F.,
 ( 4, 2, 2, 2, 2, 2, 2, 2, 2, 2, 2, 2, 2, 2, 2, 4 ),
 ( 0.01313419033491930975, 0.01368125159838253294, 0.01422831286184575786, 0.01477537412530897931, 0.01532243538877220076, 0.01586949665223542222, 0.01641655791569864367, 0.01751068044262508658, 0.01805774170608830456, 0.01860480296955152602, 0.01915186423301474747, 0.01969892549647796892, 0.02024598675994119037, 0.02079304802340441183, 0.02134010928686762981, 0.02188717055033085127 ),
 .UNSPECIFIED. ) ;
#136 = APPLICATION_PROTOCOL_DEFINITION ( 'draft international standard', 'automotive_design', 1998, #812 ) ;
#137 = DIRECTION ( 'NONE',  ( 0.9396926207859104263, -0.000000000000000000, -0.3420201433256636059 ) ) ;
#138 = PLANE ( 'NONE',  #361 ) ;
#139 = ORIENTED_EDGE ( 'NONE', *, *, #161, .F. ) ;
#140 = VECTOR ( 'NONE', #875, 1000.000000000000000 ) ;
#141 = VECTOR ( 'NONE', #102, 1000.000000000000114 ) ;
#142 = DIRECTION ( 'NONE',  ( -0.7071067811865515695, 0.7071067811865435759, 0.000000000000000000 ) ) ;
#143 = LINE ( 'NONE', #371, #155 ) ;
#144 = ADVANCED_FACE ( 'NONE', ( #591, #74, #874 ), #296, .F. ) ;
#145 = DIRECTION ( 'NONE',  ( -1.387778780781445676E-16, 1.000000000000000000, 0.000000000000000000 ) ) ;
#146 = ORIENTED_EDGE ( 'NONE', *, *, #775, .F. ) ;
#147 = DIRECTION ( 'NONE',  ( -0.000000000000000000, -1.000000000000000000, -0.000000000000000000 ) ) ;
#148 = CARTESIAN_POINT ( 'NONE',  ( -11.50000000000003730, 43.99999999999998579, 75.00000000000000000 ) ) ;
#149 = ORIENTED_EDGE ( 'NONE', *, *, #496, .F. ) ;
#150 = CARTESIAN_POINT ( 'NONE',  ( 3.864929098306583377, 5.901862511838268155, 19.49578948624305141 ) ) ;
#151 = ADVANCED_FACE ( 'NONE', ( #537 ), #517, .F. ) ;
#152 = CARTESIAN_POINT ( 'NONE',  ( -11.50000000000003730, 43.99999999999998579, 0.000000000000000000 ) ) ;
#153 = EDGE_LOOP ( 'NONE', ( #196, #896, #377, #29 ) ) ;
#154 = CARTESIAN_POINT ( 'NONE',  ( 5.325881017551509444, 2.774924841280863586, 15.38052850898214352 ) ) ;
#155 = VECTOR ( 'NONE', #661, 1000.000000000000000 ) ;
#156 = EDGE_CURVE ( 'NONE', #825, #730, #801, .T. ) ;
#157 = CIRCLE ( 'NONE', #667, 2.799999999999988276 ) ;
#158 = CARTESIAN_POINT ( 'NONE',  ( 4.305986211367366145, 7.516813758125303835, 56.85118592711202723 ) ) ;
#159 = ORIENTED_EDGE ( 'NONE', *, *, #683, .F. ) ;
#160 = CARTESIAN_POINT ( 'NONE',  ( 5.730530182173361631, 5.366593743914328307, 14.38673368649901718 ) ) ;
#161 = EDGE_CURVE ( 'NONE', #364, #865, #143, .T. ) ;
#162 = AXIS2_PLACEMENT_3D ( 'NONE', #848, #840, #188 ) ;
#163 = LINE ( 'NONE', #16, #68 ) ;
#164 = CARTESIAN_POINT ( 'NONE',  ( 3.864983588542405091, 4.097840075504890933, 19.49561815319740887 ) ) ;
#165 = ORIENTED_EDGE ( 'NONE', *, *, #335, .T. ) ;
#166 = DIRECTION ( 'NONE',  ( 0.7071067811865515695, -0.7071067811865435759, 0.000000000000000000 ) ) ;
#167 = EDGE_CURVE ( 'NONE', #625, #59, #375, .T. ) ;
#168 = PLANE ( 'NONE',  #420 ) ;
#169 = CARTESIAN_POINT ( 'NONE',  ( 3.933306771324852402, 3.597955722475335349, 19.27969114274601026 ) ) ;
#170 = EDGE_LOOP ( 'NONE', ( #444, #721, #737 ) ) ;
#171 = VECTOR ( 'NONE', #626, 1000.000000000000227 ) ;
#172 = VECTOR ( 'NONE', #406, 1000.000000000000000 ) ;
#173 = LINE ( 'NONE', #909, #784 ) ;
#174 = VERTEX_POINT ( 'NONE', #273 ) ;
#175 = CARTESIAN_POINT ( 'NONE',  ( 5.474412487611451716, 6.850983841494300286, 15.00976428194476320 ) ) ;
#176 = ORIENTED_EDGE ( 'NONE', *, *, #538, .T. ) ;
#177 = CARTESIAN_POINT ( 'NONE',  ( -5.999999999999992895, 17.01471862576147842, 75.00000000000000000 ) ) ;
#178 = CARTESIAN_POINT ( 'NONE',  ( 4.718442752845394494, 5.000000000000004441, 58.02120859953977572 ) ) ;
#179 = ORIENTED_EDGE ( 'NONE', *, *, #766, .F. ) ;
#180 = EDGE_CURVE ( 'NONE', #51, #284, #578, .T. ) ;
#181 = CARTESIAN_POINT ( 'NONE',  ( -65.97276091847417945, -0.2461107660182825785, 0.000000000000000000 ) ) ;
#182 = CARTESIAN_POINT ( 'NONE',  ( 61.09999999999999432, 38.50000000000000000, 37.50000000000000000 ) ) ;
#183 = EDGE_LOOP ( 'NONE', ( #66, #470, #15, #324, #401 ) ) ;
#184 = EDGE_CURVE ( 'NONE', #51, #252, #867, .T. ) ;
#185 = AXIS2_PLACEMENT_3D ( 'NONE', #804, #727, #366 ) ;
#186 = DIRECTION ( 'NONE',  ( 0.000000000000000000, -1.000000000000000000, 0.000000000000000000 ) ) ;
#187 = VECTOR ( 'NONE', #900, 1000.000000000000000 ) ;
#188 = DIRECTION ( 'NONE',  ( 0.000000000000000000, -0.000000000000000000, 1.000000000000000000 ) ) ;
#189 = DIRECTION ( 'NONE',  ( -1.387778780781445676E-16, 1.000000000000000000, 0.000000000000000000 ) ) ;
#190 = EDGE_LOOP ( 'NONE', ( #535, #94, #217, #432 ) ) ;
#191 = ADVANCED_BREP_SHAPE_REPRESENTATION ( 'ELP-0040-1', ( #236, #206 ), #500 ) ;
#192 = EDGE_CURVE ( 'NONE', #755, #882, #933, .T. ) ;
#193 = PLANE ( 'NONE',  #282 ) ;
#194 = CARTESIAN_POINT ( 'NONE',  ( 3.822213064418729989, 4.815296704762586089, 55.36771176626022850 ) ) ;
#195 = DIRECTION ( 'NONE',  ( 0.8191520442889926867, 0.5735764363510449382, -0.000000000000000000 ) ) ;
#196 = ORIENTED_EDGE ( 'NONE', *, *, #677, .F. ) ;
#197 = CARTESIAN_POINT ( 'NONE',  ( 4.157209488662594765, 7.226863050479218842, 18.59122874238464362 ) ) ;
#198 = DIRECTION ( 'NONE',  ( -0.3420201433256638279, 0.000000000000000000, -0.9396926207859100932 ) ) ;
#199 = CARTESIAN_POINT ( 'NONE',  ( 5.034003716857134769, 2.343793104460089260, 58.86896775194591669 ) ) ;
#200 = ADVANCED_FACE ( 'NONE', ( #845 ), #278, .F. ) ;
#201 = DIRECTION ( 'NONE',  ( 0.3420201433256631063, 0.000000000000000000, -0.9396926207859104263 ) ) ;
#202 = EDGE_LOOP ( 'NONE', ( #911, #382, #529, #403 ) ) ;
#203 = DIRECTION ( 'NONE',  ( 0.000000000000000000, 1.000000000000000000, 0.000000000000000000 ) ) ;
#204 = CARTESIAN_POINT ( 'NONE',  ( 4.305924505308325045, 2.483284667859275707, 56.85100433256486241 ) ) ;
#205 = AXIS2_PLACEMENT_3D ( 'NONE', #182, #557, #340 ) ;
#206 = AXIS2_PLACEMENT_3D ( 'NONE', #440, #634, #419 ) ;
#207 = CARTESIAN_POINT ( 'NONE',  ( 5.737525867042439387, 5.000000000000004441, 60.62999044266128834 ) ) ;
#208 = VERTEX_POINT ( 'NONE', #633 ) ;
#209 = CARTESIAN_POINT ( 'NONE',  ( -65.97276091847417945, -0.2461107660182825785, 75.00000000000000000 ) ) ;
#210 = CARTESIAN_POINT ( 'NONE',  ( 5.703076058513842028, 4.274326101318497884, 60.54738827204331386 ) ) ;
#211 = LINE ( 'NONE', #715, #889 ) ;
#212 = ORIENTED_EDGE ( 'NONE', *, *, #683, .T. ) ;
#213 = DIRECTION ( 'NONE',  ( -1.000000000000000000, -2.775557561562891844E-16, 0.000000000000000000 ) ) ;
#214 = CARTESIAN_POINT ( 'NONE',  ( -1.935411074208619908, 5.000000000000009770, 11.57728890132178989 ) ) ;
#215 = CARTESIAN_POINT ( 'NONE',  ( -8.500000000000053291, 28.00000000000002842, 75.00000000000000000 ) ) ;
#216 = DIRECTION ( 'NONE',  ( -0.000000000000000000, -0.000000000000000000, -1.000000000000000000 ) ) ;
#217 = ORIENTED_EDGE ( 'NONE', *, *, #295, .F. ) ;
#218 = ADVANCED_FACE ( 'NONE', ( #790 ), #573, .F. ) ;
#219 = PLANE ( 'NONE',  #890 ) ;
#220 = DIRECTION ( 'NONE',  ( 0.5735764363510449382, -0.8191520442889926867, 0.000000000000000000 ) ) ;
#221 = DIRECTION ( 'NONE',  ( 1.000000000000000000, 0.000000000000000000, 0.000000000000000000 ) ) ;
#222 = ORIENTED_EDGE ( 'NONE', *, *, #660, .T. ) ;
#223 = VECTOR ( 'NONE', #916, 1000.000000000000000 ) ;
#224 = VECTOR ( 'NONE', #482, 1000.000000000000000 ) ;
#225 = CYLINDRICAL_SURFACE ( 'NONE', #310, 2.799999999999991829 ) ;
#226 = CARTESIAN_POINT ( 'NONE',  ( 4.253790842998308896, 7.430085779507530575, 56.69718747816916249 ) ) ;
#227 = EDGE_LOOP ( 'NONE', ( #333, #179, #884, #830 ) ) ;
#228 = CYLINDRICAL_SURFACE ( 'NONE', #844, 2.799999999999991829 ) ;
#229 = EDGE_CURVE ( 'NONE', #208, #669, #717, .T. ) ;
#230 = ORIENTED_EDGE ( 'NONE', *, *, #821, .T. ) ;
#231 = CARTESIAN_POINT ( 'NONE',  ( 4.253442941938559763, 2.570653219250692789, 18.30385200021490633 ) ) ;
#232 = CARTESIAN_POINT ( 'NONE',  ( -1.935411074208625015, 5.000000000000004441, 63.42271109867818524 ) ) ;
#233 = ORIENTED_EDGE ( 'NONE', *, *, #560, .T. ) ;
#234 = CARTESIAN_POINT ( 'NONE',  ( 5.737525867042448269, 4.815296704762589641, 14.37000955733869034 ) ) ;
#235 = AXIS2_PLACEMENT_3D ( 'NONE', #837, #195, #693 ) ;
#236 = MANIFOLD_SOLID_BREP ( 'Foro per Vite M3-1', #290 ) ;
#237 = DIRECTION ( 'NONE',  ( -0.000000000000000000, -0.000000000000000000, -1.000000000000000000 ) ) ;
#238 = CARTESIAN_POINT ( 'NONE',  ( 5.595887112474771108, 6.402362564464821659, 14.71176164689086363 ) ) ;
#239 = EDGE_CURVE ( 'NONE', #284, #412, #285, .T. ) ;
#240 = CARTESIAN_POINT ( 'NONE',  ( 5.737525867042439387, 5.000000000000004441, 60.62999044266128834 ) ) ;
#241 = DIRECTION ( 'NONE',  ( 0.8191520442889906883, 0.5735764363510476027, 0.000000000000000000 ) ) ;
#242 = CARTESIAN_POINT ( 'NONE',  ( 5.213563111102723191, 7.430085779507535015, 15.66585988739518598 ) ) ;
#243 = EDGE_LOOP ( 'NONE', ( #836, #465, #655, #90 ) ) ;
#244 = CARTESIAN_POINT ( 'NONE',  ( -16.42841777254884406, 27.44313639831021234, 75.00000000000000000 ) ) ;
#245 = VERTEX_POINT ( 'NONE', #648 ) ;
#246 = LINE ( 'NONE', #544, #435 ) ;
#247 = ORIENTED_EDGE ( 'NONE', *, *, #388, .F. ) ;
#248 = VECTOR ( 'NONE', #387, 1000.000000000000000 ) ;
#249 = CARTESIAN_POINT ( 'NONE',  ( -26.42841777254884761, 27.44313639831021234, 75.00000000000000000 ) ) ;
#250 = ORIENTED_EDGE ( 'NONE', *, *, #766, .T. ) ;
#251 = LINE ( 'NONE', #111, #343 ) ;
#252 = VERTEX_POINT ( 'NONE', #119 ) ;
#253 = LINE ( 'NONE', #322, #681 ) ;
#254 = DIRECTION ( 'NONE',  ( -1.000000000000000000, -1.309225264888156130E-16, 0.000000000000000000 ) ) ;
#255 = EDGE_CURVE ( 'NONE', #107, #932, #352, .T. ) ;
#256 = VERTEX_POINT ( 'NONE', #643 ) ;
#257 = CARTESIAN_POINT ( 'NONE',  ( -5.999999999999993783, 25.50000000000000000, 0.000000000000000000 ) ) ;
#258 = LINE ( 'NONE', #564, #584 ) ;
#259 = CARTESIAN_POINT ( 'NONE',  ( 61.09999999999999432, 38.50000000000000000, 37.50000000000000000 ) ) ;
#260 = ORIENTED_EDGE ( 'NONE', *, *, #796, .F. ) ;
#261 = SURFACE_SIDE_STYLE ('',( #705 ) ) ;
#262 = CIRCLE ( 'NONE', #740, 53.00000000000000711 ) ;
#263 = CARTESIAN_POINT ( 'NONE',  ( 5.737525867042439387, 5.000000000000004441, 60.62999044266128834 ) ) ;
#264 = VECTOR ( 'NONE', #779, 1000.000000000000000 ) ;
#265 = ORIENTED_EDGE ( 'NONE', *, *, #703, .F. ) ;
#266 = DIRECTION ( 'NONE',  ( 0.9396926207859104263, -0.000000000000000000, -0.3420201433256636059 ) ) ;
#267 = ORIENTED_EDGE ( 'NONE', *, *, #806, .T. ) ;
#268 = CARTESIAN_POINT ( 'NONE',  ( 3.995807892507439174, 6.708139842476406045, 19.08474690364705495 ) ) ;
#269 = EDGE_CURVE ( 'NONE', #426, #473, #370, .T. ) ;
#270 = DIRECTION ( 'NONE',  ( -0.5735764363510477137, 0.8191520442889906883, 0.000000000000000000 ) ) ;
#271 = EDGE_LOOP ( 'NONE', ( #872, #11, #503, #525, #699, #676, #455, #850, #704, #27, #165, #566, #439, #373, #855, #494 ) ) ;
#272 = VERTEX_POINT ( 'NONE', #829 ) ;
#273 = CARTESIAN_POINT ( 'NONE',  ( 23.64669573989497309, 38.50000000000000000, 75.00000000000000000 ) ) ;
#274 = DIRECTION ( 'NONE',  ( 0.9396926207859104263, -0.000000000000000000, -0.3420201433256636059 ) ) ;
#275 = CARTESIAN_POINT ( 'NONE',  ( 4.970900664622826426, 2.289820459078974579, 58.70274070539014133 ) ) ;
#276 = DIRECTION ( 'NONE',  ( -1.000000000000000000, -1.309225264888156130E-16, 0.000000000000000000 ) ) ;
#277 = ORIENTED_EDGE ( 'NONE', *, *, #575, .F. ) ;
#278 = PLANE ( 'NONE',  #546 ) ;
#279 = CARTESIAN_POINT ( 'NONE',  ( -68.84064310022939992, 3.849649455426678912, 75.00000000000000000 ) ) ;
#280 = CARTESIAN_POINT ( 'NONE',  ( 5.595983542581052461, 3.597955722475329576, 60.28847574213219218 ) ) ;
#281 = CIRCLE ( 'NONE', #762, 53.00000000000000000 ) ;
#282 = AXIS2_PLACEMENT_3D ( 'NONE', #244, #332, #627 ) ;
#283 = CARTESIAN_POINT ( 'NONE',  ( 5.474963259581255848, 6.849525735610050958, 59.99160727490937717 ) ) ;
#284 = VERTEX_POINT ( 'NONE', #304 ) ;
#285 = LINE ( 'NONE', #427, #649 ) ;
#286 = DIRECTION ( 'NONE',  ( 0.000000000000000000, 0.000000000000000000, 1.000000000000000000 ) ) ;
#287 = CARTESIAN_POINT ( 'NONE',  ( 4.594207742059635002, 7.782130003744567759, 57.67741389089822235 ) ) ;
#288 = ORIENTED_EDGE ( 'NONE', *, *, #532, .F. ) ;
#289 = EDGE_CURVE ( 'NONE', #473, #426, #468, .T. ) ;
#290 = CLOSED_SHELL ( 'NONE', ( #515, #463, #873, #72, #353, #923, #88, #98, #542, #46, #739, #200, #399, #879, #710, #151, #607, #4, #218, #487, #760, #481, #144, #342, #125, #568, #728 ) ) ;
#291 = CARTESIAN_POINT ( 'NONE',  ( -5.999999999999993783, 25.50000000000000000, 75.00000000000000000 ) ) ;
#292 = CARTESIAN_POINT ( 'NONE',  ( 20.49999999999995026, 25.50000000000000355, 75.00000000000000000 ) ) ;
#293 = DIRECTION ( 'NONE',  ( 0.9396926207859105373, -0.000000000000000000, 0.3420201433256632173 ) ) ;
#294 = ORIENTED_EDGE ( 'NONE', *, *, #192, .F. ) ;
#295 = EDGE_CURVE ( 'NONE', #252, #330, #246, .T. ) ;
#296 = CYLINDRICAL_SURFACE ( 'NONE', #20, 59.99999999999998579 ) ;
#297 = CARTESIAN_POINT ( 'NONE',  ( 5.324967874309542992, 7.226863050479213513, 59.61716105355917961 ) ) ;
#298 = EDGE_LOOP ( 'NONE', ( #577, #876, #222 ) ) ;
#299 = AXIS2_PLACEMENT_3D ( 'NONE', #178, #266, #763 ) ;
#300 = VECTOR ( 'NONE', #524, 1000.000000000000000 ) ;
#301 = EDGE_CURVE ( 'NONE', #245, #208, #67, .T. ) ;
#302 = DIRECTION ( 'NONE',  ( 0.3420201433256630508, 0.000000000000000000, -0.9396926207859104263 ) ) ;
#303 = ORIENTED_EDGE ( 'NONE', *, *, #624, .F. ) ;
#304 = CARTESIAN_POINT ( 'NONE',  ( -16.42841777254884406, 27.44313639831021234, 0.000000000000000000 ) ) ;
#305 = CARTESIAN_POINT ( 'NONE',  ( -16.42841777254884406, 27.44313639831021234, 0.000000000000000000 ) ) ;
#306 = ORIENTED_EDGE ( 'NONE', *, *, #538, .F. ) ;
#307 = CARTESIAN_POINT ( 'NONE',  ( 4.656324580331403062, 7.800074510463620214, 17.14944951026004816 ) ) ;
#308 = CARTESIAN_POINT ( 'NONE',  ( 14.26251501201203986, 27.99999999999996803, 0.000000000000000000 ) ) ;
#309 = CARTESIAN_POINT ( 'NONE',  ( 5.518962119423678203, 3.293232996070009300, 14.90003212145537503 ) ) ;
#310 = AXIS2_PLACEMENT_3D ( 'NONE', #64, #137, #360 ) ;
#311 = VECTOR ( 'NONE', #609, 999.9999999999998863 ) ;
#312 = CARTESIAN_POINT ( 'NONE',  ( -16.42841777254884406, 27.44313639831021234, 75.00000000000000000 ) ) ;
#313 = UNCERTAINTY_MEASURE_WITH_UNIT (LENGTH_MEASURE( 1.000000000000000082E-05 ), #862, 'distance_accuracy_value', 'NONE');
#314 = LINE ( 'NONE', #809, #311 ) ;
#315 = CARTESIAN_POINT ( 'NONE',  ( 4.593056640202605401, 2.218431347557397793, 17.32582448392758323 ) ) ;
#316 = VERTEX_POINT ( 'NONE', #50 ) ;
#317 = PRODUCT_DEFINITION ( 'NON CONOSCIUTO', '', #467, #808 ) ;
#318 = CARTESIAN_POINT ( 'NONE',  ( -5.999999999999993783, 25.50000000000000000, 75.00000000000000000 ) ) ;
#319 = EDGE_LOOP ( 'NONE', ( #615, #716 ) ) ;
#320 = CARTESIAN_POINT ( 'NONE',  ( 5.154558788106959000, 7.516813758125309164, 15.81738007952746372 ) ) ;
#321 = ORIENTED_EDGE ( 'NONE', *, *, #394, .T. ) ;
#322 = CARTESIAN_POINT ( 'NONE',  ( -68.84064310022939992, 3.849649455426678912, 75.00000000000000000 ) ) ;
#323 = DIRECTION ( 'NONE',  ( -1.387778780781445676E-16, 1.000000000000000000, -0.000000000000000000 ) ) ;
#324 = ORIENTED_EDGE ( 'NONE', *, *, #695, .F. ) ;
#325 = AXIS2_PLACEMENT_3D ( 'NONE', #312, #78, #608 ) ;
#326 = EDGE_CURVE ( 'NONE', #514, #174, #827, .T. ) ;
#327 = CARTESIAN_POINT ( 'NONE',  ( 38.49999999999995737, 44.00000000000000000, 75.00000000000000000 ) ) ;
#328 = VERTEX_POINT ( 'NONE', #623 ) ;
#329 = DIRECTION ( 'NONE',  ( 0.000000000000000000, 0.000000000000000000, 1.000000000000000000 ) ) ;
#330 = VERTEX_POINT ( 'NONE', #106 ) ;
#331 = VECTOR ( 'NONE', #407, 1000.000000000000227 ) ;
#332 = DIRECTION ( 'NONE',  ( 0.000000000000000000, 1.000000000000000000, -0.000000000000000000 ) ) ;
#333 = ORIENTED_EDGE ( 'NONE', *, *, #612, .T. ) ;
#334 = CARTESIAN_POINT ( 'NONE',  ( -5.999999999999992895, 17.01471862576147842, 0.000000000000000000 ) ) ;
#335 = EDGE_CURVE ( 'NONE', #364, #40, #571, .T. ) ;
#336 = ORIENTED_EDGE ( 'NONE', *, *, #746, .T. ) ;
#337 = CARTESIAN_POINT ( 'NONE',  ( 3.933828162805895090, 6.404794283331236571, 19.27805991853369960 ) ) ;
#338 = LINE ( 'NONE', #706, #561 ) ;
#339 = DIRECTION ( 'NONE',  ( -0.000000000000000000, -0.000000000000000000, -1.000000000000000000 ) ) ;
#340 = DIRECTION ( 'NONE',  ( 0.000000000000000000, 0.000000000000000000, 1.000000000000000000 ) ) ;
#341 = ORIENTED_EDGE ( 'NONE', *, *, #796, .T. ) ;
#342 = ADVANCED_FACE ( 'NONE', ( #100 ), #629, .F. ) ;
#343 = VECTOR ( 'NONE', #411, 1000.000000000000000 ) ;
#344 = CARTESIAN_POINT ( 'NONE',  ( -8.500000000000053291, 35.99999999999996447, 75.00000000000000000 ) ) ;
#345 = CARTESIAN_POINT ( 'NONE',  ( 4.592654517860816910, 2.199714158971879385, 57.67564726562684285 ) ) ;
#346 = CARTESIAN_POINT ( 'NONE',  ( -8.500000000000053291, 28.00000000000002842, 0.000000000000000000 ) ) ;
#347 = ORIENTED_EDGE ( 'NONE', *, *, #326, .F. ) ;
#348 = CARTESIAN_POINT ( 'NONE',  ( 38.49999999999995737, 44.00000000000000000, 75.00000000000000000 ) ) ;
#349 = ORIENTED_EDGE ( 'NONE', *, *, #664, .F. ) ;
#350 = DIRECTION ( 'NONE',  ( -0.7071067811865503483, -0.7071067811865446862, 0.000000000000000000 ) ) ;
#351 = ORIENTED_EDGE ( 'NONE', *, *, #806, .F. ) ;
#352 = LINE ( 'NONE', #413, #692 ) ;
#353 = ADVANCED_FACE ( 'NONE', ( #914 ), #908, .F. ) ;
#354 = LINE ( 'NONE', #644, #105 ) ;
#355 = VERTEX_POINT ( 'NONE', #842 ) ;
#356 = LINE ( 'NONE', #944, #725 ) ;
#357 = ORIENTED_EDGE ( 'NONE', *, *, #639, .T. ) ;
#358 = SURFACE_STYLE_USAGE ( .BOTH. , #261 ) ;
#359 = PLANE ( 'NONE',  #650 ) ;
#360 = DIRECTION ( 'NONE',  ( -0.3420201433256633838, 0.000000000000000000, -0.9396926207859104263 ) ) ;
#361 = AXIS2_PLACEMENT_3D ( 'NONE', #133, #576, #653 ) ;
#362 = EDGE_CURVE ( 'NONE', #76, #816, #33, .T. ) ;
#363 = DIRECTION ( 'NONE',  ( -1.387778780781445676E-16, 1.000000000000000000, -0.000000000000000000 ) ) ;
#364 = VERTEX_POINT ( 'NONE', #39 ) ;
#365 =( NAMED_UNIT ( * ) PLANE_ANGLE_UNIT ( ) SI_UNIT ( $, .RADIAN. ) );
#366 = DIRECTION ( 'NONE',  ( -0.3420201433256638279, 0.000000000000000000, -0.9396926207859100932 ) ) ;
#367 = CARTESIAN_POINT ( 'NONE',  ( 5.730463360135622963, 5.368191869343804434, 60.61310662750247502 ) ) ;
#368 = ORIENTED_EDGE ( 'NONE', *, *, #443, .F. ) ;
#369 = EDGE_CURVE ( 'NONE', #355, #921, #907, .T. ) ;
#370 = B_SPLINE_CURVE_WITH_KNOTS ( 'NONE', 3,
 ( #795, #486, #582, #638, #150, #448, #337, #268, #851, #567, #197, #778, #606, #670, #738, #686, #307, #28, #614, #892, #12, #320, #242, #526, #386, #175, #460, #238, #464, #87, #81, #160, #753, #888 ),
 .UNSPECIFIED., .F., .F.,
 ( 4, 2, 2, 2, 2, 2, 2, 2, 2, 2, 2, 2, 2, 2, 2, 2, 4 ),
 ( 0.004378629417733619598, 0.004925851975057726588, 0.005473074532381832710, 0.006020297089705939700, 0.006567519647030046689, 0.007114742204354153679, 0.007661964761678260669, 0.008209187319002365923, 0.008756409876326472913, 0.009303632433650579903, 0.009850854990974686892, 0.01039807754829879388, 0.01094530010562290087, 0.01149252266294700786, 0.01203974522027111485, 0.01258696777759522184, 0.01313419033491932883 ),
 .UNSPECIFIED. ) ;
#371 = CARTESIAN_POINT ( 'NONE',  ( -65.97276091847417945, -0.2461107660182825785, 75.00000000000000000 ) ) ;
#372 = CARTESIAN_POINT ( 'NONE',  ( 5.518554437679106250, 6.708139842476403381, 60.09896484476470846 ) ) ;
#373 = ORIENTED_EDGE ( 'NONE', *, *, #295, .T. ) ;
#374 = EDGE_CURVE ( 'NONE', #73, #485, #251, .T. ) ;
#375 = LINE ( 'NONE', #820, #171 ) ;
#376 = CARTESIAN_POINT ( 'NONE',  ( -5.999999999999991118, 4.999999999999942268, 75.00000000000000000 ) ) ;
#377 = ORIENTED_EDGE ( 'NONE', *, *, #30, .F. ) ;
#378 = AXIS2_PLACEMENT_3D ( 'NONE', #698, #854, #770 ) ;
#379 = CARTESIAN_POINT ( 'NONE',  ( 5.682432543966426941, 4.097509759763545034, 14.50221371185655705 ) ) ;
#380 = CIRCLE ( 'NONE', #405, 59.99999999999998579 ) ;
#381 = CARTESIAN_POINT ( 'NONE',  ( 3.865019615618296545, 5.902730808570218812, 55.50449831710369608 ) ) ;
#382 = ORIENTED_EDGE ( 'NONE', *, *, #833, .F. ) ;
#383 = CARTESIAN_POINT ( 'NONE',  ( 5.703098523019645150, 4.275008379847400342, 14.45255817362456874 ) ) ;
#384 = CARTESIAN_POINT ( 'NONE',  ( 3.822213064418729100, 5.184757752589091773, 55.36771176626021429 ) ) ;
#385 = EDGE_LOOP ( 'NONE', ( #341, #541, #146, #794 ) ) ;
#386 = CARTESIAN_POINT ( 'NONE',  ( 5.378082000266614315, 7.109167040232109436, 15.24950465308529601 ) ) ;
#387 = DIRECTION ( 'NONE',  ( 0.1908089953765498836, 1.049727191138619065E-16, 0.9816271834476629765 ) ) ;
#388 = EDGE_CURVE ( 'NONE', #816, #76, #631, .T. ) ;
#389 = CARTESIAN_POINT ( 'NONE',  ( 5.474449257549822256, 3.149115842310026281, 15.00967282399247082 ) ) ;
#390 = VECTOR ( 'NONE', #220, 999.9999999999998863 ) ;
#391 = AXIS2_PLACEMENT_3D ( 'NONE', #48, #613, #917 ) ;
#392 = DIRECTION ( 'NONE',  ( 0.3420201433256632173, 0.000000000000000000, -0.9396926207859103153 ) ) ;
#393 = ORIENTED_EDGE ( 'NONE', *, *, #17, .F. ) ;
#394 = EDGE_CURVE ( 'NONE', #485, #61, #475, .T. ) ;
#395 = PLANE ( 'NONE',  #96 ) ;
#396 = ORIENTED_EDGE ( 'NONE', *, *, #156, .T. ) ;
#397 = DIRECTION ( 'NONE',  ( -0.3420201433256638279, 0.000000000000000000, -0.9396926207859100932 ) ) ;
#398 = ORIENTED_EDGE ( 'NONE', *, *, #30, .T. ) ;
#399 = ADVANCED_FACE ( 'NONE', ( #776 ), #756, .F. ) ;
#400 = CARTESIAN_POINT ( 'NONE',  ( 14.26251501201203986, 25.50000000000000355, 0.000000000000000000 ) ) ;
#401 = ORIENTED_EDGE ( 'NONE', *, *, #255, .T. ) ;
#402 = CARTESIAN_POINT ( 'NONE',  ( 61.09999999999999432, 43.99999999999999289, 37.50000000000000000 ) ) ;
#403 = ORIENTED_EDGE ( 'NONE', *, *, #180, .T. ) ;
#404 = VECTOR ( 'NONE', #213, 1000.000000000000000 ) ;
#405 = AXIS2_PLACEMENT_3D ( 'NONE', #469, #186, #754 ) ;
#406 = DIRECTION ( 'NONE',  ( 1.000000000000000000, 0.000000000000000000, 0.000000000000000000 ) ) ;
#407 = DIRECTION ( 'NONE',  ( 0.1908089953765504942, 0.000000000000000000, -0.9816271834476627545 ) ) ;
#408 = CARTESIAN_POINT ( 'NONE',  ( 61.10000000000000142, -31.00000000000000711, 37.50000000000000000 ) ) ;
#409 = DIRECTION ( 'NONE',  ( 0.7071067811865503483, 0.7071067811865446862, 0.000000000000000000 ) ) ;
#410 = CARTESIAN_POINT ( 'NONE',  ( 3.907399354356826837, 3.758127083397728274, 55.63867107279707369 ) ) ;
#411 = DIRECTION ( 'NONE',  ( -0.000000000000000000, -0.000000000000000000, -1.000000000000000000 ) ) ;
#412 = VERTEX_POINT ( 'NONE', #334 ) ;
#413 = CARTESIAN_POINT ( 'NONE',  ( -5.999999999999995559, 38.50000000000000000, 75.00000000000000000 ) ) ;
#414 = CARTESIAN_POINT ( 'NONE',  ( 0.000000000000000000, 0.000000000000000000, 0.000000000000000000 ) ) ;
#415 = CARTESIAN_POINT ( 'NONE',  ( 3.933447953598376845, 3.597323688939200625, 55.72074771021658535 ) ) ;
#416 = DIRECTION ( 'NONE',  ( -0.000000000000000000, -0.000000000000000000, -1.000000000000000000 ) ) ;
#417 = ORIENTED_EDGE ( 'NONE', *, *, #612, .F. ) ;
#418 = PRESENTATION_LAYER_ASSIGNMENT (  '', '', ( #95 ) ) ;
#419 = DIRECTION ( 'NONE',  ( 1.000000000000000000, 0.000000000000000000, 0.000000000000000000 ) ) ;
#420 = AXIS2_PLACEMENT_3D ( 'NONE', #817, #675, #886 ) ;
#421 = CARTESIAN_POINT ( 'NONE',  ( 5.213964767254950949, 2.570653219250684351, 59.33516002573525583 ) ) ;
#422 = CARTESIAN_POINT ( 'NONE',  ( 61.09999999999999432, 43.99999999999999289, 37.50000000000000000 ) ) ;
#423 = ORIENTED_EDGE ( 'NONE', *, *, #654, .T. ) ;
#424 = CARTESIAN_POINT ( 'NONE',  ( 5.474994838397115871, 3.150783985936722598, 59.99167547088718067 ) ) ;
#425 = CARTESIAN_POINT ( 'NONE',  ( 4.780554390446198454, 7.800074510463614885, 58.19186908785352585 ) ) ;
#426 = VERTEX_POINT ( 'NONE', #36 ) ;
#427 = CARTESIAN_POINT ( 'NONE',  ( -16.42841777254884406, 27.44313639831021234, 0.000000000000000000 ) ) ;
#428 = EDGE_CURVE ( 'NONE', #751, #514, #281, .T. ) ;
#429 = FACE_OUTER_BOUND ( 'NONE', #901, .T. ) ;
#430 = CARTESIAN_POINT ( 'NONE',  ( -68.84064310022939992, 3.849649455426678912, 0.000000000000000000 ) ) ;
#431 = CYLINDRICAL_SURFACE ( 'NONE', #450, 53.00000000000000711 ) ;
#432 = ORIENTED_EDGE ( 'NONE', *, *, #833, .T. ) ;
#433 = CARTESIAN_POINT ( 'NONE',  ( 61.10000000000000142, 25.50000000000000000, 37.50000000000000000 ) ) ;
#434 = FACE_OUTER_BOUND ( 'NONE', #170, .T. ) ;
#435 = VECTOR ( 'NONE', #832, 1000.000000000000000 ) ;
#436 = EDGE_CURVE ( 'NONE', #208, #174, #689, .T. ) ;
#437 = VECTOR ( 'NONE', #237, 1000.000000000000000 ) ;
#438 = CARTESIAN_POINT ( 'NONE',  ( -2.893067475520473053, 5.000000000000009770, 14.20842823952233047 ) ) ;
#439 = ORIENTED_EDGE ( 'NONE', *, *, #184, .T. ) ;
#440 = CARTESIAN_POINT ( 'NONE',  ( 0.000000000000000000, 0.000000000000000000, 0.000000000000000000 ) ) ;
#441 = CARTESIAN_POINT ( 'NONE',  ( 5.730690722669005588, 4.635723907053701076, 60.61365134487387252 ) ) ;
#442 = CARTESIAN_POINT ( 'NONE',  ( 5.737525867042438499, 5.182663241425168543, 60.62999044266127413 ) ) ;
#443 = EDGE_CURVE ( 'NONE', #669, #625, #849, .T. ) ;
#444 = ORIENTED_EDGE ( 'NONE', *, *, #654, .F. ) ;
#445 = DIRECTION ( 'NONE',  ( -0.000000000000000000, -1.000000000000000000, -0.000000000000000000 ) ) ;
#446 = LINE ( 'NONE', #895, #300 ) ;
#447 = EDGE_LOOP ( 'NONE', ( #112, #586, #620, #549 ) ) ;
#448 = CARTESIAN_POINT ( 'NONE',  ( 3.907255644775111225, 6.240875984461638382, 19.36178259962020576 ) ) ;
#449 = CARTESIAN_POINT ( 'NONE',  ( 3.760786351533547567, 5.000000000000009770, 19.60993073866074354 ) ) ;
#450 = AXIS2_PLACEMENT_3D ( 'NONE', #2, #363, #276 ) ;
#451 = EDGE_LOOP ( 'NONE', ( #393, #423, #792 ) ) ;
#452 = CONICAL_SURFACE ( 'NONE', #605, 2.799999999999987832, 1.029744258676655200 ) ;
#453 = CARTESIAN_POINT ( 'NONE',  ( 4.654447954471843119, 2.200144181816387157, 17.15463533672158647 ) ) ;
#454 = CARTESIAN_POINT ( 'NONE',  ( 3.827604121906015511, 5.366593743914325643, 55.38501993202462614 ) ) ;
#455 = ORIENTED_EDGE ( 'NONE', *, *, #436, .F. ) ;
#456 = CARTESIAN_POINT ( 'NONE',  ( 4.844205918251706322, 2.199714158971883382, 16.63322094196699297 ) ) ;
#457 = VECTOR ( 'NONE', #780, 1000.000000000000000 ) ;
#458 = EDGE_CURVE ( 'NONE', #898, #782, #116, .T. ) ;
#459 = CARTESIAN_POINT ( 'NONE',  ( 4.156432535895605795, 7.225140749208211588, 56.40644406160368618 ) ) ;
#460 = CARTESIAN_POINT ( 'NONE',  ( 5.518910520745254900, 6.706978226209158400, 14.90015825346699252 ) ) ;
#461 = CARTESIAN_POINT ( 'NONE',  ( -2.893067475520473053, 5.000000000000009770, 14.20842823952233047 ) ) ;
#462 = EDGE_LOOP ( 'NONE', ( #777, #351, #709, #764 ) ) ;
#463 = ADVANCED_FACE ( 'NONE', ( #927 ), #910, .F. ) ;
#464 = CARTESIAN_POINT ( 'NONE',  ( 5.628669254899046237, 6.241528092380106862, 14.63219720614229757 ) ) ;
#465 = ORIENTED_EDGE ( 'NONE', *, *, #458, .F. ) ;
#466 = AXIS2_PLACEMENT_3D ( 'NONE', #943, #19, #166 ) ;
#467 = PRODUCT_DEFINITION_FORMATION_WITH_SPECIFIED_SOURCE ( 'TUTTO', '', #768, .NOT_KNOWN. ) ;
#468 = B_SPLINE_CURVE_WITH_KNOTS ( 'NONE', 3,
 ( #674, #234, #599, #383, #379, #811, #824, #309, #389, #897, #154, #540, #91, #885, #456, #453, #315, #745, #531, #678, #231, #748, #18, #902, #534, #169, #818, #164, #93, #682, #23, #610 ),
 .UNSPECIFIED., .F., .F.,
 ( 4, 2, 2, 2, 2, 2, 2, 2, 2, 2, 2, 2, 2, 2, 2, 4 ),
 ( 0.01313419033491932710, 0.01368125159838254334, 0.01422831286184575786, 0.01477537412530897411, 0.01532243538877219209, 0.01586949665223540834, 0.01641655791569862979, 0.01751068044262506923, 0.01805774170608829415, 0.01860480296955151908, 0.01915186423301474400, 0.01969892549647797239, 0.02024598675994119731, 0.02079304802340442224, 0.02134010928686764716, 0.02188717055033087208 ),
 .UNSPECIFIED. ) ;
#469 = CARTESIAN_POINT ( 'NONE',  ( 61.10000000000000142, 0.000000000000000000, 37.50000000000000000 ) ) ;
#470 = ORIENTED_EDGE ( 'NONE', *, *, #428, .T. ) ;
#471 = DIRECTION ( 'NONE',  ( 0.9396926207859105373, -0.000000000000000000, 0.3420201433256632173 ) ) ;
#472 = EDGE_CURVE ( 'NONE', #73, #945, #495, .T. ) ;
#473 = VERTEX_POINT ( 'NONE', #931 ) ;
#474 = CARTESIAN_POINT ( 'NONE',  ( 14.26251501201203453, 0.000000000000000000, 75.00000000000000000 ) ) ;
#475 = LINE ( 'NONE', #346, #680 ) ;
#476 = FACE_OUTER_BOUND ( 'NONE', #47, .T. ) ;
#477 = ORIENTED_EDGE ( 'NONE', *, *, #905, .F. ) ;
#478 = DIRECTION ( 'NONE',  ( 0.8191520442889906883, 0.5735764363510476027, 0.000000000000000000 ) ) ;
#479 = ORIENTED_EDGE ( 'NONE', *, *, #394, .F. ) ;
#480 = VECTOR ( 'NONE', #924, 1000.000000000000000 ) ;
#481 = ADVANCED_FACE ( 'NONE', ( #658 ), #431, .F. ) ;
#482 = DIRECTION ( 'NONE',  ( -0.000000000000000000, -0.000000000000000000, -1.000000000000000000 ) ) ;
#483 = FACE_OUTER_BOUND ( 'NONE', #183, .T. ) ;
#484 = CARTESIAN_POINT ( 'NONE',  ( -65.97276091847417945, -0.2461107660182825785, 75.00000000000000000 ) ) ;
#485 = VERTEX_POINT ( 'NONE', #60 ) ;
#486 = CARTESIAN_POINT ( 'NONE',  ( 3.822213064418737982, 5.182663241425174760, 19.63228823373976795 ) ) ;
#487 = ADVANCED_FACE ( 'NONE', ( #793 ), #138, .T. ) ;
#488 = DIRECTION ( 'NONE',  ( 1.000000000000000000, 2.775557561562891844E-16, 0.000000000000000000 ) ) ;
#489 = CARTESIAN_POINT ( 'NONE',  ( 3.827632137673363744, 4.632763149108980905, 55.38510965671620312 ) ) ;
#490 = CARTESIAN_POINT ( 'NONE',  ( -11.50000000000003730, 43.99999999999998579, 75.00000000000000000 ) ) ;
#491 = ORIENTED_EDGE ( 'NONE', *, *, #527, .F. ) ;
#492 = CARTESIAN_POINT ( 'NONE',  ( -16.42841777254884406, 27.44313639831021234, 75.00000000000000000 ) ) ;
#493 = CARTESIAN_POINT ( 'NONE',  ( -5.999999999999995559, 38.50000000000000000, 0.000000000000000000 ) ) ;
#494 = ORIENTED_EDGE ( 'NONE', *, *, #866, .T. ) ;
#495 = LINE ( 'NONE', #720, #140 ) ;
#496 = EDGE_CURVE ( 'NONE', #669, #938, #211, .T. ) ;
#497 = VERTEX_POINT ( 'NONE', #122 ) ;
#498 = AXIS2_PLACEMENT_3D ( 'NONE', #402, #189, #254 ) ;
#499 = VECTOR ( 'NONE', #759, 1000.000000000000000 ) ;
#500 =( GEOMETRIC_REPRESENTATION_CONTEXT ( 3 ) GLOBAL_UNCERTAINTY_ASSIGNED_CONTEXT ( ( #313 ) ) GLOBAL_UNIT_ASSIGNED_CONTEXT ( ( #862, #365, #942 ) ) REPRESENTATION_CONTEXT ( 'NONE', 'WORKASPACE' ) );
#501 = CARTESIAN_POINT ( 'NONE',  ( 3.995475457156607124, 3.293232996070006191, 55.91422267512546540 ) ) ;
#502 = CARTESIAN_POINT ( 'NONE',  ( 5.213821443685179524, 7.429535294489816089, 59.33479031414259453 ) ) ;
#503 = ORIENTED_EDGE ( 'NONE', *, *, #946, .T. ) ;
#504 = EDGE_CURVE ( 'NONE', #272, #245, #262, .T. ) ;
#505 = CARTESIAN_POINT ( 'NONE',  ( -11.50000000000003730, 43.99999999999998579, 75.00000000000000000 ) ) ;
#506 = DIRECTION ( 'NONE',  ( -0.8191520442889906883, -0.5735764363510477137, 0.000000000000000000 ) ) ;
#507 = DIRECTION ( 'NONE',  ( 0.7071067811865434649, 0.7071067811865516806, -0.000000000000000000 ) ) ;
#508 = PLANE ( 'NONE',  #711 ) ;
#509 = EDGE_LOOP ( 'NONE', ( #134, #233 ) ) ;
#510 = DIRECTION ( 'NONE',  ( -0.000000000000000000, -0.000000000000000000, -1.000000000000000000 ) ) ;
#511 = PRODUCT_CONTEXT ( 'NONE', #41, 'mechanical' ) ;
#512 = CARTESIAN_POINT ( 'NONE',  ( -5.999999999999995559, 38.50000000000000000, 75.00000000000000000 ) ) ;
#513 = CARTESIAN_POINT ( 'NONE',  ( 4.415583496309170464, 7.656477940727913101, 57.16990911634202632 ) ) ;
#514 = VERTEX_POINT ( 'NONE', #71 ) ;
#515 = ADVANCED_FACE ( 'NONE', ( #729 ), #452, .F. ) ;
#516 = DIRECTION ( 'NONE',  ( 0.000000000000000000, -0.000000000000000000, -1.000000000000000000 ) ) ;
#517 = PLANE ( 'NONE',  #325 ) ;
#518 = VECTOR ( 'NONE', #478, 1000.000000000000227 ) ;
#519 = VECTOR ( 'NONE', #731, 1000.000000000000227 ) ;
#520 = LINE ( 'NONE', #580, #828 ) ;
#521 = ORIENTED_EDGE ( 'NONE', *, *, #893, .T. ) ;
#522 = PLANE ( 'NONE',  #592 ) ;
#523 = CARTESIAN_POINT ( 'NONE',  ( 4.718442752845401600, 5.000000000000009770, 16.97879140046020296 ) ) ;
#524 = DIRECTION ( 'NONE',  ( -1.000000000000000000, -2.775557561562891844E-16, 0.000000000000000000 ) ) ;
#525 = ORIENTED_EDGE ( 'NONE', *, *, #472, .T. ) ;
#526 = CARTESIAN_POINT ( 'NONE',  ( 5.325868586721441034, 7.225140749208216917, 15.38055679525610131 ) ) ;
#527 = EDGE_CURVE ( 'NONE', #782, #928, #356, .T. ) ;
#528 = LINE ( 'NONE', #318, #437 ) ;
#529 = ORIENTED_EDGE ( 'NONE', *, *, #184, .F. ) ;
#530 = VECTOR ( 'NONE', #97, 1000.000000000000000 ) ;
#531 = CARTESIAN_POINT ( 'NONE',  ( 4.415247396626842402, 2.343793104460093701, 17.83105126603167889 ) ) ;
#532 = EDGE_CURVE ( 'NONE', #945, #61, #520, .T. ) ;
#533 = FACE_OUTER_BOUND ( 'NONE', #554, .T. ) ;
#534 = CARTESIAN_POINT ( 'NONE',  ( 3.995783007972307121, 3.291785498772430429, 19.08481954249167245 ) ) ;
#535 = ORIENTED_EDGE ( 'NONE', *, *, #936, .T. ) ;
#536 = PRODUCT_RELATED_PRODUCT_CATEGORY ( 'part', '', ( #768 ) ) ;
#537 = FACE_OUTER_BOUND ( 'NONE', #202, .T. ) ;
#538 = EDGE_CURVE ( 'NONE', #921, #473, #662, .T. ) ;
#539 = LINE ( 'NONE', #600, #248 ) ;
#540 = CARTESIAN_POINT ( 'NONE',  ( 5.213896987805295424, 2.570480735291699403, 15.66500841720715265 ) ) ;
#541 = ORIENTED_EDGE ( 'NONE', *, *, #255, .F. ) ;
#542 = ADVANCED_FACE ( 'NONE', ( #55 ), #508, .F. ) ;
#543 = DIRECTION ( 'NONE',  ( 1.000000000000000000, 0.000000000000000000, -0.000000000000000000 ) ) ;
#544 = CARTESIAN_POINT ( 'NONE',  ( -5.999999999999992895, 17.01471862576147842, 75.00000000000000000 ) ) ;
#545 = ORIENTED_EDGE ( 'NONE', *, *, #239, .F. ) ;
#546 = AXIS2_PLACEMENT_3D ( 'NONE', #505, #53, #712 ) ;
#547 = CIRCLE ( 'NONE', #694, 59.99999999999998579 ) ;
#548 = DIRECTION ( 'NONE',  ( 2.775557561562891844E-16, -1.000000000000000000, 0.000000000000000000 ) ) ;
#549 = ORIENTED_EDGE ( 'NONE', *, *, #587, .T. ) ;
#550 = DIRECTION ( 'NONE',  ( 0.9396926207859104263, -0.000000000000000000, -0.3420201433256636059 ) ) ;
#551 = ORIENTED_EDGE ( 'NONE', *, *, #301, .T. ) ;
#552 = DIRECTION ( 'NONE',  ( 0.7071067811865516806, -0.7071067811865434649, 0.000000000000000000 ) ) ;
#553 = CARTESIAN_POINT ( 'NONE',  ( 4.718442752845401600, 5.000000000000009770, 16.97879140046020296 ) ) ;
#554 = EDGE_LOOP ( 'NONE', ( #349, #810, #176, #630 ) ) ;
#555 = CARTESIAN_POINT ( 'NONE',  ( -68.84064310022939992, 3.849649455426678912, 0.000000000000000000 ) ) ;
#556 = CARTESIAN_POINT ( 'NONE',  ( -26.42841777254884761, 27.44313639831021234, 75.00000000000000000 ) ) ;
#557 = DIRECTION ( 'NONE',  ( 0.000000000000000000, 1.000000000000000000, 0.000000000000000000 ) ) ;
#558 = EDGE_LOOP ( 'NONE', ( #684, #581, #149, #859 ) ) ;
#559 = AXIS2_PLACEMENT_3D ( 'NONE', #553, #293, #798 ) ;
#560 = EDGE_CURVE ( 'NONE', #743, #328, #77, .T. ) ;
#561 = VECTOR ( 'NONE', #31, 1000.000000000000000 ) ;
#562 =( LENGTH_UNIT ( ) NAMED_UNIT ( * ) SI_UNIT ( .MILLI., .METRE. ) );
#563 = LINE ( 'NONE', #555, #593 ) ;
#564 = CARTESIAN_POINT ( 'NONE',  ( -16.42841777254884406, 27.44313639831021234, 75.00000000000000000 ) ) ;
#565 = DIRECTION ( 'NONE',  ( 0.000000000000000000, 1.000000000000000000, 0.000000000000000000 ) ) ;
#566 = ORIENTED_EDGE ( 'NONE', *, *, #25, .T. ) ;
#567 = CARTESIAN_POINT ( 'NONE',  ( 4.112740194863722110, 7.110910776375428455, 18.72583343837628433 ) ) ;
#568 = ADVANCED_FACE ( 'NONE', ( #533 ), #228, .F. ) ;
#569 = LINE ( 'NONE', #852, #264 ) ;
#570 = ORIENTED_EDGE ( 'NONE', *, *, #587, .F. ) ;
#571 = LINE ( 'NONE', #484, #518 ) ;
#572 = ORIENTED_EDGE ( 'NONE', *, *, #369, .T. ) ;
#573 = PLANE ( 'NONE',  #8 ) ;
#574 = CARTESIAN_POINT ( 'NONE',  ( 4.156423876397481898, 2.774924841280860477, 56.40641440267715723 ) ) ;
#575 = EDGE_CURVE ( 'NONE', #272, #625, #446, .T. ) ;
#576 = DIRECTION ( 'NONE',  ( 0.000000000000000000, 0.000000000000000000, 1.000000000000000000 ) ) ;
#577 = ORIENTED_EDGE ( 'NONE', *, *, #639, .F. ) ;
#578 = LINE ( 'NONE', #929, #480 ) ;
#579 = CARTESIAN_POINT ( 'NONE',  ( -5.999999999999991118, 4.999999999999942268, 75.00000000000000000 ) ) ;
#580 = CARTESIAN_POINT ( 'NONE',  ( -8.500000000000053291, 35.99999999999996447, 75.00000000000000000 ) ) ;
#581 = ORIENTED_EDGE ( 'NONE', *, *, #821, .F. ) ;
#582 = CARTESIAN_POINT ( 'NONE',  ( 3.827655577436601231, 5.368191869343808875, 19.61481478902566877 ) ) ;
#583 = LINE ( 'NONE', #797, #390 ) ;
#584 = VECTOR ( 'NONE', #769, 1000.000000000000000 ) ;
#585 = CARTESIAN_POINT ( 'NONE',  ( 4.473812922723463537, 7.710339593771980304, 57.33702414958969484 ) ) ;
#586 = ORIENTED_EDGE ( 'NONE', *, *, #374, .F. ) ;
#587 = EDGE_CURVE ( 'NONE', #256, #882, #528, .T. ) ;
#588 = PLANE ( 'NONE',  #466 ) ;
#589 = DIRECTION ( 'NONE',  ( -0.8191520442889909104, -0.5735764363510472696, 0.000000000000000000 ) ) ;
#590 = EDGE_LOOP ( 'NONE', ( #336, #139, #595, #230 ) ) ;
#591 = FACE_BOUND ( 'NONE', #319, .T. ) ;
#592 = AXIS2_PLACEMENT_3D ( 'NONE', #215, #132, #286 ) ;
#593 = VECTOR ( 'NONE', #847, 999.9999999999998863 ) ;
#594 = DIRECTION ( 'NONE',  ( -1.000000000000000000, -1.309225264888156130E-16, 0.000000000000000000 ) ) ;
#595 = ORIENTED_EDGE ( 'NONE', *, *, #108, .F. ) ;
#596 = UNCERTAINTY_MEASURE_WITH_UNIT (LENGTH_MEASURE( 1.000000000000000082E-05 ), #562, 'distance_accuracy_value', 'NONE');
#597 = LINE ( 'NONE', #883, #9 ) ;
#598 = ORIENTED_EDGE ( 'NONE', *, *, #575, .T. ) ;
#599 = CARTESIAN_POINT ( 'NONE',  ( 5.730493969576220259, 4.632763149108986234, 14.38682042778856029 ) ) ;
#600 = CARTESIAN_POINT ( 'NONE',  ( -3.850723876832325310, 5.000000000000009770, 16.83956757772286750 ) ) ;
#601 = PRODUCT_DEFINITION_SHAPE ( 'NONE', 'NONE',  #317 ) ;
#602 = EDGE_CURVE ( 'NONE', #932, #751, #89, .T. ) ;
#603 = ORIENTED_EDGE ( 'NONE', *, *, #602, .F. ) ;
#604 = CARTESIAN_POINT ( 'NONE',  ( 3.933385492300490505, 6.402362564464819883, 55.72055269187350035 ) ) ;
#605 = AXIS2_PLACEMENT_3D ( 'NONE', #438, #858, #201 ) ;
#606 = CARTESIAN_POINT ( 'NONE',  ( 4.306125806125062461, 7.517122670580453025, 18.14839390500972627 ) ) ;
#607 = ADVANCED_FACE ( 'NONE', ( #815 ), #168, .F. ) ;
#608 = DIRECTION ( 'NONE',  ( -0.7071067811865516806, 0.7071067811865434649, 0.000000000000000000 ) ) ;
#609 = DIRECTION ( 'NONE',  ( 0.7771459614569666829, 0.000000000000000000, -0.6293203910498426090 ) ) ;
#610 = CARTESIAN_POINT ( 'NONE',  ( 3.822213064418739759, 5.000000000000009770, 19.63228823373976795 ) ) ;
#611 = ORIENTED_EDGE ( 'NONE', *, *, #167, .F. ) ;
#612 = EDGE_CURVE ( 'NONE', #865, #724, #163, .T. ) ;
#613 = DIRECTION ( 'NONE',  ( 0.9396926207859105373, -0.000000000000000000, 0.3420201433256632173 ) ) ;
#614 = CARTESIAN_POINT ( 'NONE',  ( 4.844260192182725966, 7.782130003744573976, 16.63557264870926744 ) ) ;
#615 = ORIENTED_EDGE ( 'NONE', *, *, #289, .T. ) ;
#616 = CARTESIAN_POINT ( 'NONE',  ( 14.26251501201203453, 25.49999999999999289, 75.00000000000000000 ) ) ;
#617 = DIRECTION ( 'NONE',  ( 0.3420201433256632173, 0.000000000000000000, -0.9396926207859103153 ) ) ;
#618 = CARTESIAN_POINT ( 'NONE',  ( 23.64669573989497309, 38.50000000000000000, 0.000000000000000000 ) ) ;
#619 = CARTESIAN_POINT ( 'NONE',  ( 23.64669573989498019, -31.00000000000001066, 75.00000000000000000 ) ) ;
#620 = ORIENTED_EDGE ( 'NONE', *, *, #946, .F. ) ;
#621 = DIRECTION ( 'NONE',  ( 0.000000000000000000, 0.000000000000000000, 1.000000000000000000 ) ) ;
#622 = DIRECTION ( 'NONE',  ( -0.7071067811865516806, 0.7071067811865434649, 0.000000000000000000 ) ) ;
#623 = CARTESIAN_POINT ( 'NONE',  ( 3.822213064418732209, 5.000000000000004441, 55.36771176626020718 ) ) ;
#624 = EDGE_CURVE ( 'NONE', #663, #921, #314, .T. ) ;
#625 = VERTEX_POINT ( 'NONE', #152 ) ;
#626 = DIRECTION ( 'NONE',  ( -0.8191520442889909104, -0.5735764363510472696, 0.000000000000000000 ) ) ;
#627 = DIRECTION ( 'NONE',  ( 0.000000000000000000, 0.000000000000000000, 1.000000000000000000 ) ) ;
#628 = PLANE ( 'NONE',  #162 ) ;
#629 = CYLINDRICAL_SURFACE ( 'NONE', #299, 2.799999999999991829 ) ;
#630 = ORIENTED_EDGE ( 'NONE', *, *, #269, .F. ) ;
#631 = CIRCLE ( 'NONE', #877, 2.799999999999985612 ) ;
#632 = EDGE_CURVE ( 'NONE', #755, #928, #668, .T. ) ;
#633 = CARTESIAN_POINT ( 'NONE',  ( 23.64669573989497309, 43.99999999999998579, 75.00000000000000000 ) ) ;
#634 = DIRECTION ( 'NONE',  ( 0.000000000000000000, 0.000000000000000000, 1.000000000000000000 ) ) ;
#635 = CARTESIAN_POINT ( 'NONE',  ( 4.782450196630127159, 2.200144181816380939, 58.19704793324788739 ) ) ;
#636 = CARTESIAN_POINT ( 'NONE',  ( -2.893067475520473053, 5.000000000000009770, 14.20842823952233047 ) ) ;
#637 = ORIENTED_EDGE ( 'NONE', *, *, #560, .F. ) ;
#638 = CARTESIAN_POINT ( 'NONE',  ( 3.849073140828138673, 5.727314169844269998, 19.54637475457008833 ) ) ;
#639 = EDGE_CURVE ( 'NONE', #663, #355, #539, .T. ) ;
#640 = LINE ( 'NONE', #579, #868 ) ;
#641 = CARTESIAN_POINT ( 'NONE',  ( 5.032629413378024275, 7.657528048433603907, 58.86536355664830467 ) ) ;
#642 = ORIENTED_EDGE ( 'NONE', *, *, #936, .F. ) ;
#643 = CARTESIAN_POINT ( 'NONE',  ( -5.999999999999993783, 25.50000000000000000, 75.00000000000000000 ) ) ;
#644 = CARTESIAN_POINT ( 'NONE',  ( 3.760786351533539573, 5.000000000000004441, 55.39006926133923514 ) ) ;
#645 = CARTESIAN_POINT ( 'NONE',  ( 5.629096939371672548, 3.760898628026248414, 60.36883868812909526 ) ) ;
#646 = CARTESIAN_POINT ( 'NONE',  ( 5.682508543805682599, 5.901862511838261938, 60.49796899833068409 ) ) ;
#647 = ORIENTED_EDGE ( 'NONE', *, *, #905, .T. ) ;
#648 = CARTESIAN_POINT ( 'NONE',  ( 8.099999999999988987, 43.99999999999998579, 37.50000000000000000 ) ) ;
#649 = VECTOR ( 'NONE', #62, 1000.000000000000000 ) ;
#650 = AXIS2_PLACEMENT_3D ( 'NONE', #651, #786, #516 ) ;
#651 = CARTESIAN_POINT ( 'NONE',  ( 0.000000000000000000, 25.50000000000000000, 75.00000000000000000 ) ) ;
#652 = CARTESIAN_POINT ( 'NONE',  ( -1.935411074208623461, 5.000000000000004441, 63.42271109867819945 ) ) ;
#653 = DIRECTION ( 'NONE',  ( 1.000000000000000000, 0.000000000000000000, -0.000000000000000000 ) ) ;
#654 = EDGE_CURVE ( 'NONE', #316, #76, #679, .T. ) ;
#655 = ORIENTED_EDGE ( 'NONE', *, *, #671, .F. ) ;
#656 = SHAPE_DEFINITION_REPRESENTATION ( #601, #191 ) ;
#657 = DIRECTION ( 'NONE',  ( -1.000000000000000000, -1.692413147294450161E-16, 0.000000000000000000 ) ) ;
#658 = FACE_OUTER_BOUND ( 'NONE', #153, .T. ) ;
#659 = ORIENTED_EDGE ( 'NONE', *, *, #899, .F. ) ;
#660 = EDGE_CURVE ( 'NONE', #921, #355, #157, .T. ) ;
#661 = DIRECTION ( 'NONE',  ( -0.000000000000000000, -0.000000000000000000, -1.000000000000000000 ) ) ;
#662 = LINE ( 'NONE', #781, #124 ) ;
#663 = VERTEX_POINT ( 'NONE', #685 ) ;
#664 = EDGE_CURVE ( 'NONE', #355, #426, #805, .T. ) ;
#665 = DIRECTION ( 'NONE',  ( 0.000000000000000000, 0.000000000000000000, -1.000000000000000000 ) ) ;
#666 =( GEOMETRIC_REPRESENTATION_CONTEXT ( 3 ) GLOBAL_UNCERTAINTY_ASSIGNED_CONTEXT ( ( #596 ) ) GLOBAL_UNIT_ASSIGNED_CONTEXT ( ( #562, #941, #785 ) ) REPRESENTATION_CONTEXT ( 'NONE', 'WORKASPACE' ) );
#667 = AXIS2_PLACEMENT_3D ( 'NONE', #461, #881, #392 ) ;
#668 = LINE ( 'NONE', #308, #21 ) ;
#669 = VERTEX_POINT ( 'NONE', #148 ) ;
#670 = CARTESIAN_POINT ( 'NONE',  ( 4.416511351163711296, 7.657528048433611900, 17.82740690700369512 ) ) ;
#671 = EDGE_CURVE ( 'NONE', #330, #898, #79, .T. ) ;
#672 = LINE ( 'NONE', #305, #187 ) ;
#673 = ORIENTED_EDGE ( 'NONE', *, *, #117, .F. ) ;
#674 = CARTESIAN_POINT ( 'NONE',  ( 5.737525867042444716, 5.000000000000009770, 14.37000955733868857 ) ) ;
#675 = DIRECTION ( 'NONE',  ( 1.000000000000000000, 1.443831961455405256E-16, -0.000000000000000000 ) ) ;
#676 = ORIENTED_EDGE ( 'NONE', *, *, #695, .T. ) ;
#677 = EDGE_CURVE ( 'NONE', #514, #245, #597, .T. ) ;
#678 = CARTESIAN_POINT ( 'NONE',  ( 4.305039162345534187, 2.484552205477450482, 18.15158545372801413 ) ) ;
#679 = LINE ( 'NONE', #232, #530 ) ;
#680 = VECTOR ( 'NONE', #45, 1000.000000000000000 ) ;
#681 = VECTOR ( 'NONE', #34, 1000.000000000000000 ) ;
#682 = CARTESIAN_POINT ( 'NONE',  ( 3.827479609664762528, 4.635723907053709070, 19.61537821256048275 ) ) ;
#683 = EDGE_CURVE ( 'NONE', #724, #284, #672, .T. ) ;
#684 = ORIENTED_EDGE ( 'NONE', *, *, #167, .T. ) ;
#685 = CARTESIAN_POINT ( 'NONE',  ( -4.474015487019406656, 5.000000000000007105, 13.63301022141438779 ) ) ;
#686 = CARTESIAN_POINT ( 'NONE',  ( 4.593646054729935813, 7.781836768809199611, 17.32416878295024176 ) ) ;
#687 = ORIENTED_EDGE ( 'NONE', *, *, #677, .T. ) ;
#688 = CARTESIAN_POINT ( 'NONE',  ( -8.500000000000053291, 35.99999999999996447, 75.00000000000000000 ) ) ;
#689 = LINE ( 'NONE', #619, #939 ) ;
#690 = CARTESIAN_POINT ( 'NONE',  ( -5.999999999999991118, 4.999999999999942268, 0.000000000000000000 ) ) ;
#691 = ORIENTED_EDGE ( 'NONE', *, *, #362, .F. ) ;
#692 = VECTOR ( 'NONE', #510, 1000.000000000000000 ) ;
#693 = DIRECTION ( 'NONE',  ( -0.5735764363510449382, 0.8191520442889926867, 0.000000000000000000 ) ) ;
#694 = AXIS2_PLACEMENT_3D ( 'NONE', #433, #63, #726 ) ;
#695 = EDGE_CURVE ( 'NONE', #107, #174, #338, .T. ) ;
#696 = FACE_OUTER_BOUND ( 'NONE', #451, .T. ) ;
#697 = LINE ( 'NONE', #935, #331 ) ;
#698 = CARTESIAN_POINT ( 'NONE',  ( -2.893067475520478826, 5.000000000000004441, 60.79157176047765176 ) ) ;
#699 = ORIENTED_EDGE ( 'NONE', *, *, #775, .T. ) ;
#700 = LINE ( 'NONE', #257, #52 ) ;
#701 = EDGE_LOOP ( 'NONE', ( #396, #267, #823, #477 ) ) ;
#702 = DIRECTION ( 'NONE',  ( -1.000000000000000000, -1.309225264888156130E-16, 0.000000000000000000 ) ) ;
#703 = EDGE_CURVE ( 'NONE', #882, #485, #700, .T. ) ;
#704 = ORIENTED_EDGE ( 'NONE', *, *, #496, .T. ) ;
#705 = SURFACE_STYLE_FILL_AREA ( #856 ) ;
#706 = CARTESIAN_POINT ( 'NONE',  ( -5.999999999999995559, 38.50000000000000000, 75.00000000000000000 ) ) ;
#707 = CARTESIAN_POINT ( 'NONE',  ( 4.253499292904115769, 2.570480735291696295, 56.69632060235552728 ) ) ;
#708 = CARTESIAN_POINT ( 'NONE',  ( -0.9999999999999915623, 0.000000000000000000, 75.00000000000000000 ) ) ;
#709 = ORIENTED_EDGE ( 'NONE', *, *, #866, .F. ) ;
#710 = ADVANCED_FACE ( 'NONE', ( #114 ), #193, .F. ) ;
#711 = AXIS2_PLACEMENT_3D ( 'NONE', #788, #733, #350 ) ;
#712 = DIRECTION ( 'NONE',  ( 0.8191520442889909104, 0.5735764363510472696, 0.000000000000000000 ) ) ;
#713 = LINE ( 'NONE', #291, #765 ) ;
#714 = CARTESIAN_POINT ( 'NONE',  ( 5.325418027546078292, 2.774031012084509751, 59.61829905718579425 ) ) ;
#715 = CARTESIAN_POINT ( 'NONE',  ( -11.50000000000003730, 43.99999999999998579, 75.00000000000000000 ) ) ;
#716 = ORIENTED_EDGE ( 'NONE', *, *, #269, .T. ) ;
#717 = LINE ( 'NONE', #348, #404 ) ;
#718 = CARTESIAN_POINT ( 'NONE',  ( -5.999999999999993783, 25.50000000000000000, 0.000000000000000000 ) ) ;
#719 = CARTESIAN_POINT ( 'NONE',  ( 5.518582066368543870, 3.291785498772423324, 60.09903648481882499 ) ) ;
#720 = CARTESIAN_POINT ( 'NONE',  ( -8.500000000000053291, 28.00000000000002842, 75.00000000000000000 ) ) ;
#721 = ORIENTED_EDGE ( 'NONE', *, *, #17, .T. ) ;
#722 = CARTESIAN_POINT ( 'NONE',  ( -8.500000000000053291, 28.00000000000002842, 75.00000000000000000 ) ) ;
#723 = CARTESIAN_POINT ( 'NONE',  ( 5.154395645189258524, 7.517122670580445920, 59.18220832342361604 ) ) ;
#724 = VERTEX_POINT ( 'NONE', #835 ) ;
#725 = VECTOR ( 'NONE', #221, 1000.000000000000000 ) ;
#726 = DIRECTION ( 'NONE',  ( 0.000000000000000000, 0.000000000000000000, -1.000000000000000000 ) ) ;
#727 = DIRECTION ( 'NONE',  ( 0.9396926207859104263, -0.000000000000000000, -0.3420201433256636059 ) ) ;
#728 = ADVANCED_FACE ( 'NONE', ( #109 ), #814, .F. ) ;
#729 = FACE_OUTER_BOUND ( 'NONE', #918, .T. ) ;
#730 = VERTEX_POINT ( 'NONE', #474 ) ;
#731 = DIRECTION ( 'NONE',  ( 0.9396926207859102043, -0.000000000000000000, -0.3420201433256634949 ) ) ;
#732 = LINE ( 'NONE', #292, #919 ) ;
#733 = DIRECTION ( 'NONE',  ( -0.7071067811865446862, 0.7071067811865503483, 0.000000000000000000 ) ) ;
#734 = EDGE_LOOP ( 'NONE', ( #212, #56, #103, #250 ) ) ;
#735 = CARTESIAN_POINT ( 'NONE',  ( 61.10000000000000142, 27.99999999999996803, 37.50000000000000000 ) ) ;
#736 = DIRECTION ( 'NONE',  ( -0.000000000000000000, -1.000000000000000000, -0.000000000000000000 ) ) ;
#737 = ORIENTED_EDGE ( 'NONE', *, *, #388, .T. ) ;
#738 = CARTESIAN_POINT ( 'NONE',  ( 4.473974438785408125, 7.710394070322212912, 17.66252459036965305 ) ) ;
#739 = ADVANCED_FACE ( 'NONE', ( #476 ), #395, .F. ) ;
#740 = AXIS2_PLACEMENT_3D ( 'NONE', #422, #145, #594 ) ;
#741 = CARTESIAN_POINT ( 'NONE',  ( 3.995517006369980528, 6.706978226209156624, 55.91435246484324750 ) ) ;
#742 = DIRECTION ( 'NONE',  ( 0.9396926207859105373, -0.000000000000000000, 0.3420201433256632173 ) ) ;
#743 = VERTEX_POINT ( 'NONE', #263 ) ;
#744 = AXIS2_PLACEMENT_3D ( 'NONE', #44, #507, #622 ) ;
#745 = CARTESIAN_POINT ( 'NONE',  ( 4.473756340039734880, 2.289820459078980353, 17.66315210061193142 ) ) ;
#746 = EDGE_CURVE ( 'NONE', #59, #865, #563, .T. ) ;
#747 = CARTESIAN_POINT ( 'NONE',  ( 3.822213064418732209, 5.000000000000004441, 55.36771176626020718 ) ) ;
#748 = CARTESIAN_POINT ( 'NONE',  ( 4.156822831417026798, 2.774031012084518188, 18.59238985666197763 ) ) ;
#749 = CARTESIAN_POINT ( 'NONE',  ( 3.848869896004405433, 5.724632830090355284, 55.45297661674530332 ) ) ;
#750 = VECTOR ( 'NONE', #772, 1000.000000000000000 ) ;
#751 = VERTEX_POINT ( 'NONE', #618 ) ;
#752 = VECTOR ( 'NONE', #758, 1000.000000000000000 ) ;
#753 = CARTESIAN_POINT ( 'NONE',  ( 5.737525867042448269, 5.184757752589091773, 14.37000955733869034 ) ) ;
#754 = DIRECTION ( 'NONE',  ( 0.000000000000000000, 0.000000000000000000, -1.000000000000000000 ) ) ;
#755 = VERTEX_POINT ( 'NONE', #400 ) ;
#756 = PLANE ( 'NONE',  #235 ) ;
#757 = ORIENTED_EDGE ( 'NONE', *, *, #846, .F. ) ;
#758 = DIRECTION ( 'NONE',  ( -0.000000000000000000, -0.000000000000000000, -1.000000000000000000 ) ) ;
#759 = DIRECTION ( 'NONE',  ( -0.000000000000000000, -0.000000000000000000, -1.000000000000000000 ) ) ;
#760 = ADVANCED_FACE ( 'NONE', ( #906 ), #773, .F. ) ;
#761 = LINE ( 'NONE', #104, #172 ) ;
#762 = AXIS2_PLACEMENT_3D ( 'NONE', #259, #565, #329 ) ;
#763 = DIRECTION ( 'NONE',  ( -0.3420201433256633838, 0.000000000000000000, -0.9396926207859104263 ) ) ;
#764 = ORIENTED_EDGE ( 'NONE', *, *, #458, .T. ) ;
#765 = VECTOR ( 'NONE', #142, 1000.000000000000000 ) ;
#766 = EDGE_CURVE ( 'NONE', #40, #724, #839, .T. ) ;
#767 = LINE ( 'NONE', #690, #940 ) ;
#768 = PRODUCT ( 'ELP-0040-1', 'ELP-0040-1', '', ( #511 ) ) ;
#769 = DIRECTION ( 'NONE',  ( 1.000000000000000000, -0.000000000000000000, -0.000000000000000000 ) ) ;
#770 = DIRECTION ( 'NONE',  ( -0.3420201433256638279, 0.000000000000000000, -0.9396926207859100932 ) ) ;
#771 = ORIENTED_EDGE ( 'NONE', *, *, #369, .F. ) ;
#772 = DIRECTION ( 'NONE',  ( -1.000000000000000000, 0.000000000000000000, 0.000000000000000000 ) ) ;
#773 = PLANE ( 'NONE',  #35 ) ;
#774 = CARTESIAN_POINT ( 'NONE',  ( 3.864988322896564021, 4.097509759763543258, 55.50439932963558221 ) ) ;
#775 = EDGE_CURVE ( 'NONE', #945, #107, #912, .T. ) ;
#776 = FACE_OUTER_BOUND ( 'NONE', #590, .T. ) ;
#777 = ORIENTED_EDGE ( 'NONE', *, *, #527, .T. ) ;
#778 = CARTESIAN_POINT ( 'NONE',  ( 4.253570795745300614, 7.429535294489823194, 18.30347665808894320 ) ) ;
#779 = DIRECTION ( 'NONE',  ( 1.443831961455405256E-16, -1.000000000000000000, 0.000000000000000000 ) ) ;
#780 = DIRECTION ( 'NONE',  ( 1.387778780781445676E-16, -1.000000000000000000, 0.000000000000000000 ) ) ;
#781 = CARTESIAN_POINT ( 'NONE',  ( 5.676099154157254745, 5.000000000000009770, 14.34765206225966239 ) ) ;
#782 = VERTEX_POINT ( 'NONE', #826 ) ;
#783 = AXIS2_PLACEMENT_3D ( 'NONE', #408, #323, #702 ) ;
#784 = VECTOR ( 'NONE', #409, 1000.000000000000114 ) ;
#785 =( NAMED_UNIT ( * ) SI_UNIT ( $, .STERADIAN. ) SOLID_ANGLE_UNIT ( ) );
#786 = DIRECTION ( 'NONE',  ( 0.000000000000000000, -1.000000000000000000, 0.000000000000000000 ) ) ;
#787 = CARTESIAN_POINT ( 'NONE',  ( 5.378727173584252341, 2.892357741840263063, 59.75211044643176450 ) ) ;
#788 = CARTESIAN_POINT ( 'NONE',  ( -8.500000000000053291, 35.99999999999996447, 75.00000000000000000 ) ) ;
#789 = ORIENTED_EDGE ( 'NONE', *, *, #632, .T. ) ;
#790 = FACE_OUTER_BOUND ( 'NONE', #462, .T. ) ;
#791 = FACE_OUTER_BOUND ( 'NONE', #227, .T. ) ;
#792 = ORIENTED_EDGE ( 'NONE', *, *, #362, .T. ) ;
#793 = FACE_OUTER_BOUND ( 'NONE', #271, .T. ) ;
#794 = ORIENTED_EDGE ( 'NONE', *, *, #532, .T. ) ;
#795 = CARTESIAN_POINT ( 'NONE',  ( 3.822213064418739759, 5.000000000000009770, 19.63228823373976795 ) ) ;
#796 = EDGE_CURVE ( 'NONE', #61, #932, #173, .T. ) ;
#797 = CARTESIAN_POINT ( 'NONE',  ( -68.84064310022939992, 3.849649455426678912, 75.00000000000000000 ) ) ;
#798 = DIRECTION ( 'NONE',  ( 0.3420201433256630508, 0.000000000000000000, -0.9396926207859104263 ) ) ;
#799 = EDGE_LOOP ( 'NONE', ( #321, #288, #819, #843 ) ) ;
#800 = VECTOR ( 'NONE', #92, 1000.000000000000000 ) ;
#801 = LINE ( 'NONE', #5, #841 ) ;
#802 = DIRECTION ( 'NONE',  ( 0.9396926207859103153, -0.000000000000000000, 0.3420201433256631618 ) ) ;
#803 = ORIENTED_EDGE ( 'NONE', *, *, #664, .T. ) ;
#804 = CARTESIAN_POINT ( 'NONE',  ( -2.893067475520478826, 5.000000000000004441, 60.79157176047765176 ) ) ;
#805 = LINE ( 'NONE', #449, #84 ) ;
#806 = EDGE_CURVE ( 'NONE', #730, #928, #380, .T. ) ;
#807 = ORIENTED_EDGE ( 'NONE', *, *, #57, .F. ) ;
#808 = PRODUCT_DEFINITION_CONTEXT ( 'detailed design', #812, 'design' ) ;
#809 = CARTESIAN_POINT ( 'NONE',  ( -1.935411074208620352, 5.000000000000009770, 11.57728890132179345 ) ) ;
#810 = ORIENTED_EDGE ( 'NONE', *, *, #660, .F. ) ;
#811 = CARTESIAN_POINT ( 'NONE',  ( 5.628613066108296259, 3.758127083397731827, 14.63233312010999931 ) ) ;
#812 = APPLICATION_CONTEXT ( 'automotive_design' ) ;
#813 = COLOUR_RGB ( '',0.7921568627450980005, 0.8196078431372548767, 0.9333333333333333481 ) ;
#814 = CONICAL_SURFACE ( 'NONE', #391, 2.799999999999987832, 1.029744258676655200 ) ;
#815 = FACE_OUTER_BOUND ( 'NONE', #190, .T. ) ;
#816 = VERTEX_POINT ( 'NONE', #99 ) ;
#817 = CARTESIAN_POINT ( 'NONE',  ( -5.999999999999992895, 17.01471862576147842, 75.00000000000000000 ) ) ;
#818 = CARTESIAN_POINT ( 'NONE',  ( 3.907016798964396465, 3.760898628026253299, 19.36253761213123425 ) ) ;
#819 = ORIENTED_EDGE ( 'NONE', *, *, #472, .F. ) ;
#820 = CARTESIAN_POINT ( 'NONE',  ( -11.50000000000003730, 43.99999999999998579, 0.000000000000000000 ) ) ;
#821 = EDGE_CURVE ( 'NONE', #938, #59, #253, .T. ) ;
#822 = CARTESIAN_POINT ( 'NONE',  ( 4.031882932410565168, 6.850983841494295845, 56.02691833824482615 ) ) ;
#823 = ORIENTED_EDGE ( 'NONE', *, *, #632, .F. ) ;
#824 = CARTESIAN_POINT ( 'NONE',  ( 5.595809605230321004, 3.597323688939203734, 14.71195118895725784 ) ) ;
#825 = VERTEX_POINT ( 'NONE', #616 ) ;
#826 = CARTESIAN_POINT ( 'NONE',  ( -0.9999999999999915623, 0.000000000000000000, 0.000000000000000000 ) ) ;
#827 = CIRCLE ( 'NONE', #205, 53.00000000000000000 ) ;
#828 = VECTOR ( 'NONE', #216, 1000.000000000000000 ) ;
#829 = CARTESIAN_POINT ( 'NONE',  ( 23.64669573989497309, 43.99999999999998579, 0.000000000000000000 ) ) ;
#830 = ORIENTED_EDGE ( 'NONE', *, *, #161, .T. ) ;
#831 = LINE ( 'NONE', #177, #752 ) ;
#832 = DIRECTION ( 'NONE',  ( 1.443831961455405256E-16, -1.000000000000000000, 0.000000000000000000 ) ) ;
#833 = EDGE_CURVE ( 'NONE', #252, #412, #831, .T. ) ;
#834 = ORIENTED_EDGE ( 'NONE', *, *, #893, .F. ) ;
#835 = CARTESIAN_POINT ( 'NONE',  ( -26.42841777254884761, 27.44313639831021234, 0.000000000000000000 ) ) ;
#836 = ORIENTED_EDGE ( 'NONE', *, *, #846, .T. ) ;
#837 = CARTESIAN_POINT ( 'NONE',  ( -68.84064310022939992, 3.849649455426678912, 75.00000000000000000 ) ) ;
#838 = ORIENTED_EDGE ( 'NONE', *, *, #192, .T. ) ;
#839 = LINE ( 'NONE', #249, #224 ) ;
#840 = DIRECTION ( 'NONE',  ( 0.000000000000000000, 1.000000000000000000, 0.000000000000000000 ) ) ;
#841 = VECTOR ( 'NONE', #445, 1000.000000000000000 ) ;
#842 = CARTESIAN_POINT ( 'NONE',  ( -3.850723876832327530, 5.000000000000009770, 16.83956757772287105 ) ) ;
#843 = ORIENTED_EDGE ( 'NONE', *, *, #374, .T. ) ;
#844 = AXIS2_PLACEMENT_3D ( 'NONE', #523, #742, #302 ) ;
#845 = FACE_OUTER_BOUND ( 'NONE', #558, .T. ) ;
#846 = EDGE_CURVE ( 'NONE', #497, #782, #767, .T. ) ;
#847 = DIRECTION ( 'NONE',  ( 0.5735764363510449382, -0.8191520442889926867, 0.000000000000000000 ) ) ;
#848 = CARTESIAN_POINT ( 'NONE',  ( -5.999999999999995559, 38.50000000000000000, 75.00000000000000000 ) ) ;
#849 = LINE ( 'NONE', #490, #499 ) ;
#850 = ORIENTED_EDGE ( 'NONE', *, *, #229, .T. ) ;
#851 = CARTESIAN_POINT ( 'NONE',  ( 4.031423228465643049, 6.849525735610058064, 18.97448636465967553 ) ) ;
#852 = CARTESIAN_POINT ( 'NONE',  ( -5.999999999999992895, 17.01471862576147842, 0.000000000000000000 ) ) ;
#853 = CARTESIAN_POINT ( 'NONE',  ( 4.845459984215231053, 2.218431347557391131, 58.36764800434195877 ) ) ;
#854 = DIRECTION ( 'NONE',  ( 0.9396926207859104263, -0.000000000000000000, -0.3420201433256636059 ) ) ;
#855 = ORIENTED_EDGE ( 'NONE', *, *, #671, .T. ) ;
#856 = FILL_AREA_STYLE ('',( #126 ) ) ;
#857 = CARTESIAN_POINT ( 'NONE',  ( 3.822213064418732209, 5.000000000000004441, 55.36771176626020718 ) ) ;
#858 = DIRECTION ( 'NONE',  ( 0.9396926207859105373, -0.000000000000000000, 0.3420201433256632173 ) ) ;
#859 = ORIENTED_EDGE ( 'NONE', *, *, #443, .T. ) ;
#860 = CONICAL_SURFACE ( 'NONE', #185, 2.799999999999985612, 1.029744258676654090 ) ;
#861 = CARTESIAN_POINT ( 'NONE',  ( 0.000000000000000000, 25.50000000000000000, 0.000000000000000000 ) ) ;
#862 =( LENGTH_UNIT ( ) NAMED_UNIT ( * ) SI_UNIT ( .MILLI., .METRE. ) );
#863 = CARTESIAN_POINT ( 'NONE',  ( 5.682440154989172321, 4.097840075504884716, 60.49780272395470604 ) ) ;
#864 = CARTESIAN_POINT ( 'NONE',  ( 4.655547804031175296, 7.799925021186846941, 57.84839591745124920 ) ) ;
#865 = VERTEX_POINT ( 'NONE', #181 ) ;
#866 = EDGE_CURVE ( 'NONE', #898, #730, #761, .T. ) ;
#867 = LINE ( 'NONE', #492, #223 ) ;
#868 = VECTOR ( 'NONE', #339, 1000.000000000000000 ) ;
#869 = APPLICATION_PROTOCOL_DEFINITION ( 'draft international standard', 'automotive_design', 1998, #41 ) ;
#870 = CARTESIAN_POINT ( 'NONE',  ( -8.500000000000053291, 35.99999999999996447, 0.000000000000000000 ) ) ;
#871 = CARTESIAN_POINT ( 'NONE',  ( 4.970664382146305016, 7.710394070322207583, 58.70211981348465002 ) ) ;
#872 = ORIENTED_EDGE ( 'NONE', *, *, #156, .F. ) ;
#873 = ADVANCED_FACE ( 'NONE', ( #696 ), #878, .F. ) ;
#874 = FACE_OUTER_BOUND ( 'NONE', #701, .T. ) ;
#875 = DIRECTION ( 'NONE',  ( 0.000000000000000000, 1.000000000000000000, 0.000000000000000000 ) ) ;
#876 = ORIENTED_EDGE ( 'NONE', *, *, #624, .T. ) ;
#877 = AXIS2_PLACEMENT_3D ( 'NONE', #920, #550, #397 ) ;
#878 = CONICAL_SURFACE ( 'NONE', #922, 2.799999999999985612, 1.029744258676654090 ) ;
#879 = ADVANCED_FACE ( 'NONE', ( #791 ), #219, .F. ) ;
#880 = FACE_OUTER_BOUND ( 'NONE', #447, .T. ) ;
#881 = DIRECTION ( 'NONE',  ( 0.9396926207859105373, -0.000000000000000000, 0.3420201433256632173 ) ) ;
#882 = VERTEX_POINT ( 'NONE', #718 ) ;
#883 = CARTESIAN_POINT ( 'NONE',  ( 8.099999999999996092, -31.00000000000001421, 37.50000000000000000 ) ) ;
#884 = ORIENTED_EDGE ( 'NONE', *, *, #335, .F. ) ;
#885 = CARTESIAN_POINT ( 'NONE',  ( 4.973314693655511931, 2.273801798583864553, 16.28894824801681906 ) ) ;
#886 = DIRECTION ( 'NONE',  ( -1.443831961455405256E-16, 1.000000000000000000, 0.000000000000000000 ) ) ;
#887 = ORIENTED_EDGE ( 'NONE', *, *, #436, .T. ) ;
#888 = CARTESIAN_POINT ( 'NONE',  ( 5.737525867042444716, 5.000000000000009770, 14.37000955733868857 ) ) ;
#889 = VECTOR ( 'NONE', #589, 1000.000000000000227 ) ;
#890 = AXIS2_PLACEMENT_3D ( 'NONE', #209, #270, #506 ) ;
#891 = CARTESIAN_POINT ( 'NONE',  ( 3.907355033653324483, 6.241528092380104198, 55.63853083919888576 ) ) ;
#892 = CARTESIAN_POINT ( 'NONE',  ( 4.970830718027452022, 7.710339593771983857, 16.29743068074543189 ) ) ;
#893 = EDGE_CURVE ( 'NONE', #76, #743, #925, .T. ) ;
#894 = CARTESIAN_POINT ( 'NONE',  ( 5.737525867042438499, 4.817390598569293303, 60.62999044266128124 ) ) ;
#895 = CARTESIAN_POINT ( 'NONE',  ( 38.49999999999995737, 44.00000000000000000, 0.000000000000000000 ) ) ;
#896 = ORIENTED_EDGE ( 'NONE', *, *, #428, .F. ) ;
#897 = CARTESIAN_POINT ( 'NONE',  ( 5.378051994061177510, 2.890751404075645237, 15.24957927795042956 ) ) ;
#898 = VERTEX_POINT ( 'NONE', #58 ) ;
#899 = EDGE_CURVE ( 'NONE', #816, #328, #354, .T. ) ;
#900 = DIRECTION ( 'NONE',  ( 1.000000000000000000, -0.000000000000000000, -0.000000000000000000 ) ) ;
#901 = EDGE_LOOP ( 'NONE', ( #673, #647, #838, #570 ) ) ;
#902 = CARTESIAN_POINT ( 'NONE',  ( 4.031403583712483751, 3.150783985936731035, 18.97455890428109271 ) ) ;
#903 = EDGE_LOOP ( 'NONE', ( #771, #803, #123, #306 ) ) ;
#904 = AXIS2_PLACEMENT_3D ( 'NONE', #636, #471, #617 ) ;
#905 = EDGE_CURVE ( 'NONE', #825, #755, #547, .T. ) ;
#906 = FACE_OUTER_BOUND ( 'NONE', #80, .T. ) ;
#907 = CIRCLE ( 'NONE', #904, 2.799999999999988276 ) ;
#908 = CYLINDRICAL_SURFACE ( 'NONE', #783, 53.00000000000000711 ) ;
#909 = CARTESIAN_POINT ( 'NONE',  ( -8.500000000000053291, 35.99999999999996447, 0.000000000000000000 ) ) ;
#910 = CYLINDRICAL_SURFACE ( 'NONE', #559, 2.799999999999991829 ) ;
#911 = ORIENTED_EDGE ( 'NONE', *, *, #239, .T. ) ;
#912 = LINE ( 'NONE', #688, #141 ) ;
#913 = PLANE ( 'NONE',  #744 ) ;
#914 = FACE_OUTER_BOUND ( 'NONE', #7, .T. ) ;
#915 = ORIENTED_EDGE ( 'NONE', *, *, #229, .F. ) ;
#916 = DIRECTION ( 'NONE',  ( 0.7071067811865516806, -0.7071067811865434649, 0.000000000000000000 ) ) ;
#917 = DIRECTION ( 'NONE',  ( 0.3420201433256631063, 0.000000000000000000, -0.9396926207859104263 ) ) ;
#918 = EDGE_LOOP ( 'NONE', ( #303, #357, #572 ) ) ;
#919 = VECTOR ( 'NONE', #657, 1000.000000000000000 ) ;
#920 = CARTESIAN_POINT ( 'NONE',  ( -2.893067475520478826, 5.000000000000004441, 60.79157176047765176 ) ) ;
#921 = VERTEX_POINT ( 'NONE', #214 ) ;
#922 = AXIS2_PLACEMENT_3D ( 'NONE', #37, #274, #198 ) ;
#923 = ADVANCED_FACE ( 'NONE', ( #429 ), #359, .F. ) ;
#924 = DIRECTION ( 'NONE',  ( -0.000000000000000000, -0.000000000000000000, -1.000000000000000000 ) ) ;
#925 = LINE ( 'NONE', #934, #519 ) ;
#926 = CARTESIAN_POINT ( 'NONE',  ( 4.031852311778981957, 3.149115842310021396, 56.02682464212788460 ) ) ;
#927 = FACE_OUTER_BOUND ( 'NONE', #903, .T. ) ;
#928 = VERTEX_POINT ( 'NONE', #69 ) ;
#929 = CARTESIAN_POINT ( 'NONE',  ( -16.42841777254884406, 27.44313639831021234, 75.00000000000000000 ) ) ;
#930 = CARTESIAN_POINT ( 'NONE',  ( -16.42841777254884406, 27.44313639831021234, 75.00000000000000000 ) ) ;
#931 = CARTESIAN_POINT ( 'NONE',  ( 5.737525867042444716, 5.000000000000009770, 14.37000955733868857 ) ) ;
#932 = VERTEX_POINT ( 'NONE', #493 ) ;
#933 = LINE ( 'NONE', #861, #750 ) ;
#934 = CARTESIAN_POINT ( 'NONE',  ( 5.676099154157249416, 5.000000000000004441, 60.65234793774031630 ) ) ;
#935 = CARTESIAN_POINT ( 'NONE',  ( -3.850723876832332859, 5.000000000000004441, 58.16043242227711119 ) ) ;
#936 = EDGE_CURVE ( 'NONE', #412, #497, #569, .T. ) ;
#937 = CARTESIAN_POINT ( 'NONE',  ( 5.595334420915507145, 6.404794283331231242, 60.28689100790508348 ) ) ;
#938 = VERTEX_POINT ( 'NONE', #279 ) ;
#939 = VECTOR ( 'NONE', #32, 1000.000000000000000 ) ;
#940 = VECTOR ( 'NONE', #552, 1000.000000000000000 ) ;
#941 =( NAMED_UNIT ( * ) PLANE_ANGLE_UNIT ( ) SI_UNIT ( $, .RADIAN. ) );
#942 =( NAMED_UNIT ( * ) SI_UNIT ( $, .STERADIAN. ) SOLID_ANGLE_UNIT ( ) );
#943 = CARTESIAN_POINT ( 'NONE',  ( -5.999999999999993783, 25.50000000000000000, 75.00000000000000000 ) ) ;
#944 = CARTESIAN_POINT ( 'NONE',  ( -0.9999999999999915623, 0.000000000000000000, 0.000000000000000000 ) ) ;
#945 = VERTEX_POINT ( 'NONE', #344 ) ;
#946 = EDGE_CURVE ( 'NONE', #256, #73, #713, .T. ) ;
ENDSEC;
END-ISO-10303-21;
