ISO-10303-21;
HEADER;
FILE_DESCRIPTION (( 'STEP AP214' ),
    '1' );
FILE_NAME ('ELP-0062.STEP',
    '2026-05-01T13:30:34',
    ( '' ),
    ( '' ),
    'SwSTEP 2.0',
    'SolidWorks 2024',
    '' );
FILE_SCHEMA (( 'AUTOMOTIVE_DESIGN' ));
ENDSEC;

DATA;
#1 = ADVANCED_FACE ( 'NONE', ( #1039 ), #949, .F. ) ;
#2 = APPLICATION_CONTEXT ( 'automotive_design' ) ;
#3 = EDGE_LOOP ( 'NONE', ( #583, #226, #786, #622 ) ) ;
#4 = LINE ( 'NONE', #986, #478 ) ;
#5 = DIRECTION ( 'NONE',  ( -0.000000000000000000, -0.000000000000000000, 1.000000000000000000 ) ) ;
#6 = CARTESIAN_POINT ( 'NONE',  ( -6.229999999999896509, 57.04999999999998295, 43.92016652059596282 ) ) ;
#7 = VECTOR ( 'NONE', #505, 1000.000000000000000 ) ;
#8 = VECTOR ( 'NONE', #265, 1000.000000000000000 ) ;
#9 = VERTEX_POINT ( 'NONE', #768 ) ;
#10 = CARTESIAN_POINT ( 'NONE',  ( -7.349999999999996980, 36.64999999999999858, 0.000000000000000000 ) ) ;
#11 = EDGE_CURVE ( 'NONE', #56, #578, #494, .T. ) ;
#12 = CIRCLE ( 'NONE', #275, 1.699999999999987965 ) ;
#13 = AXIS2_PLACEMENT_3D ( 'NONE', #1038, #604, #955 ) ;
#14 = CARTESIAN_POINT ( 'NONE',  ( -36.52999999999999403, 53.04999999999998295, 24.86016652059597121 ) ) ;
#15 = FACE_OUTER_BOUND ( 'NONE', #154, .T. ) ;
#16 = EDGE_LOOP ( 'NONE', ( #96, #667 ) ) ;
#17 = DIRECTION ( 'NONE',  ( 1.049727191138617463E-16, 0.5150380749100555988, -0.8571673007021114454 ) ) ;
#18 = EDGE_CURVE ( 'NONE', #1068, #78, #267, .T. ) ;
#19 = ORIENTED_EDGE ( 'NONE', *, *, #324, .F. ) ;
#20 = DIRECTION ( 'NONE',  ( 0.000000000000000000, 0.000000000000000000, 1.000000000000000000 ) ) ;
#21 = CARTESIAN_POINT ( 'NONE',  ( -36.52999999999999403, 57.04999999999998295, 45.62016652059595856 ) ) ;
#22 = VERTEX_POINT ( 'NONE', #54 ) ;
#23 = FACE_OUTER_BOUND ( 'NONE', #211, .T. ) ;
#24 = DIRECTION ( 'NONE',  ( 1.000000000000000000, 0.000000000000000000, 0.000000000000000000 ) ) ;
#25 = VERTEX_POINT ( 'NONE', #774 ) ;
#26 = CARTESIAN_POINT ( 'NONE',  ( -6.229999999999899174, 53.04999999999998295, 23.16016652059597192 ) ) ;
#27 = EDGE_LOOP ( 'NONE', ( #651, #506, #589, #689 ) ) ;
#28 = AXIS2_PLACEMENT_3D ( 'NONE', #1103, #666, #757 ) ;
#29 = AXIS2_PLACEMENT_3D ( 'NONE', #1140, #534, #88 ) ;
#30 = CARTESIAN_POINT ( 'NONE',  ( -42.29999999999999716, 57.04999999999998295, 20.41016652059597192 ) ) ;
#31 = CARTESIAN_POINT ( 'NONE',  ( -42.29999999999999716, -18.30800534819475445, 57.93954554967682924 ) ) ;
#32 = ORIENTED_EDGE ( 'NONE', *, *, #363, .T. ) ;
#33 = VERTEX_POINT ( 'NONE', #880 ) ;
#34 = CARTESIAN_POINT ( 'NONE',  ( -6.229999999999896509, 53.04999999999998295, 43.92016652059596282 ) ) ;
#35 = DIRECTION ( 'NONE',  ( 0.000000000000000000, 0.7651893786180983259, 0.6438052615892856378 ) ) ;
#36 = PRODUCT ( 'ELP-0062', 'ELP-0062', '', ( #451 ) ) ;
#37 = ORIENTED_EDGE ( 'NONE', *, *, #113, .T. ) ;
#38 = EDGE_CURVE ( 'NONE', #203, #573, #441, .T. ) ;
#39 = ORIENTED_EDGE ( 'NONE', *, *, #594, .F. ) ;
#40 = CARTESIAN_POINT ( 'NONE',  ( -36.52999999999999403, 53.04999999999998295, 23.16016652059597192 ) ) ;
#41 = DIRECTION ( 'NONE',  ( 1.000000000000000000, -3.610927701937645169E-33, 0.000000000000000000 ) ) ;
#42 = ORIENTED_EDGE ( 'NONE', *, *, #1034, .F. ) ;
#43 = ORIENTED_EDGE ( 'NONE', *, *, #249, .F. ) ;
#44 = AXIS2_PLACEMENT_3D ( 'NONE', #356, #771, #1125 ) ;
#45 = AXIS2_PLACEMENT_3D ( 'NONE', #340, #801, #433 ) ;
#46 = CARTESIAN_POINT ( 'NONE',  ( -5.723320407571171934E-32, -15.85000000000001386, -67.00000000000000000 ) ) ;
#47 = CARTESIAN_POINT ( 'NONE',  ( 1.527422417919623873E-31, 42.29999999999999716, 0.000000000000000000 ) ) ;
#48 = ORIENTED_EDGE ( 'NONE', *, *, #621, .T. ) ;
#49 = DIRECTION ( 'NONE',  ( 3.610927701937645169E-33, 1.000000000000000000, 0.000000000000000000 ) ) ;
#50 = ORIENTED_EDGE ( 'NONE', *, *, #413, .F. ) ;
#51 = EDGE_CURVE ( 'NONE', #22, #966, #199, .T. ) ;
#52 = LINE ( 'NONE', #765, #350 ) ;
#53 = CARTESIAN_POINT ( 'NONE',  ( -38.34999999999999432, 5.649999999999994138, 0.000000000000000000 ) ) ;
#54 = CARTESIAN_POINT ( 'NONE',  ( -36.52999999999999403, 57.04999999999998295, 23.16016652059597902 ) ) ;
#55 = LINE ( 'NONE', #449, #1128 ) ;
#56 = VERTEX_POINT ( 'NONE', #945 ) ;
#57 = DIRECTION ( 'NONE',  ( -0.000000000000000000, -0.000000000000000000, 1.000000000000000000 ) ) ;
#58 = DIRECTION ( 'NONE',  ( 0.000000000000000000, 0.000000000000000000, 1.000000000000000000 ) ) ;
#59 = DIRECTION ( 'NONE',  ( 0.000000000000000000, -0.000000000000000000, 1.000000000000000000 ) ) ;
#60 = EDGE_CURVE ( 'NONE', #829, #1008, #1045, .T. ) ;
#61 = DIRECTION ( 'NONE',  ( -0.000000000000000000, -0.000000000000000000, 1.000000000000000000 ) ) ;
#62 = ORIENTED_EDGE ( 'NONE', *, *, #191, .F. ) ;
#63 = VECTOR ( 'NONE', #278, 1000.000000000000000 ) ;
#64 = DIRECTION ( 'NONE',  ( -1.000000000000000000, 0.000000000000000000, 0.000000000000000000 ) ) ;
#65 =( LENGTH_UNIT ( ) NAMED_UNIT ( * ) SI_UNIT ( .MILLI., .METRE. ) );
#66 = EDGE_CURVE ( 'NONE', #989, #999, #592, .T. ) ;
#67 = AXIS2_PLACEMENT_3D ( 'NONE', #948, #1021, #228 ) ;
#68 = CARTESIAN_POINT ( 'NONE',  ( 0.000000000000000000, 57.04999999999999005, 56.00000000000000000 ) ) ;
#69 = ORIENTED_EDGE ( 'NONE', *, *, #292, .F. ) ;
#70 = DIRECTION ( 'NONE',  ( -0.000000000000000000, 1.000000000000000000, -1.949684284958172601E-16 ) ) ;
#71 = LINE ( 'NONE', #708, #407 ) ;
#72 = CARTESIAN_POINT ( 'NONE',  ( 0.000000000000000000, 0.000000000000000000, -32.00000000000000000 ) ) ;
#73 = LINE ( 'NONE', #1142, #716 ) ;
#74 = ORIENTED_EDGE ( 'NONE', *, *, #75, .T. ) ;
#75 = EDGE_CURVE ( 'NONE', #1093, #931, #688, .T. ) ;
#76 = DIRECTION ( 'NONE',  ( 1.000000000000000000, -0.000000000000000000, -0.000000000000000000 ) ) ;
#77 = CARTESIAN_POINT ( 'NONE',  ( -6.229999999999896509, 57.04999999999998295, 43.92016652059596282 ) ) ;
#78 = VERTEX_POINT ( 'NONE', #605 ) ;
#79 = ADVANCED_FACE ( 'NONE', ( #525 ), #660, .F. ) ;
#80 = CARTESIAN_POINT ( 'NONE',  ( -6.229999999999897398, 52.02853694765313008, 43.92016652059596282 ) ) ;
#81 = CYLINDRICAL_SURFACE ( 'NONE', #1111, 1.699999999999986189 ) ;
#82 = AXIS2_PLACEMENT_3D ( 'NONE', #1122, #785, #790 ) ;
#83 = LINE ( 'NONE', #171, #662 ) ;
#84 = AXIS2_PLACEMENT_3D ( 'NONE', #514, #623, #864 ) ;
#85 = VECTOR ( 'NONE', #453, 1000.000000000000000 ) ;
#86 = ORIENTED_EDGE ( 'NONE', *, *, #617, .F. ) ;
#87 = EDGE_CURVE ( 'NONE', #588, #394, #680, .T. ) ;
#88 = DIRECTION ( 'NONE',  ( 1.000000000000000000, 0.000000000000000000, 0.000000000000000000 ) ) ;
#89 = ADVANCED_FACE ( 'NONE', ( #600, #430, #779, #1135, #252 ), #609, .T. ) ;
#90 = PRESENTATION_STYLE_ASSIGNMENT (( #976 ) ) ;
#91 = ORIENTED_EDGE ( 'NONE', *, *, #633, .F. ) ;
#92 = LINE ( 'NONE', #455, #310 ) ;
#93 = DIRECTION ( 'NONE',  ( 0.000000000000000000, 0.000000000000000000, 1.000000000000000000 ) ) ;
#94 = DIRECTION ( 'NONE',  ( -3.610927701937645169E-33, -1.000000000000000000, 0.000000000000000000 ) ) ;
#95 = FACE_OUTER_BOUND ( 'NONE', #294, .T. ) ;
#96 = ORIENTED_EDGE ( 'NONE', *, *, #431, .T. ) ;
#97 = DIRECTION ( 'NONE',  ( 0.000000000000000000, 0.000000000000000000, 1.000000000000000000 ) ) ;
#98 = CARTESIAN_POINT ( 'NONE',  ( -34.95000000000002416, 36.64999999999999858, 0.000000000000000000 ) ) ;
#99 = FACE_OUTER_BOUND ( 'NONE', #596, .T. ) ;
#100 = AXIS2_PLACEMENT_3D ( 'NONE', #107, #463, #825 ) ;
#101 = EDGE_CURVE ( 'NONE', #9, #25, #73, .T. ) ;
#102 = VECTOR ( 'NONE', #57, 1000.000000000000000 ) ;
#103 = EDGE_LOOP ( 'NONE', ( #39, #683, #974, #648 ) ) ;
#104 = FACE_OUTER_BOUND ( 'NONE', #469, .T. ) ;
#105 = CIRCLE ( 'NONE', #912, 1.699999999999989742 ) ;
#106 = ORIENTED_EDGE ( 'NONE', *, *, #545, .T. ) ;
#107 = CARTESIAN_POINT ( 'NONE',  ( -6.229999999999899174, 53.04999999999998295, 24.86016652059597121 ) ) ;
#108 = DIRECTION ( 'NONE',  ( -0.000000000000000000, -0.000000000000000000, 1.000000000000000000 ) ) ;
#109 = EDGE_LOOP ( 'NONE', ( #915, #135, #32, #1023 ) ) ;
#110 = DIRECTION ( 'NONE',  ( -1.000000000000000000, 0.000000000000000000, 0.000000000000000000 ) ) ;
#111 = CARTESIAN_POINT ( 'NONE',  ( 0.000000000000000000, 42.29999999999999005, 8.000000000000000000 ) ) ;
#112 = EDGE_LOOP ( 'NONE', ( #392, #618, #816, #619 ) ) ;
#113 = EDGE_CURVE ( 'NONE', #271, #1068, #699, .T. ) ;
#114 = LINE ( 'NONE', #192, #480 ) ;
#115 = CARTESIAN_POINT ( 'NONE',  ( 0.000000000000000000, 57.04999999999998295, 20.41016652059597192 ) ) ;
#116 = EDGE_LOOP ( 'NONE', ( #475, #417 ) ) ;
#117 = AXIS2_PLACEMENT_3D ( 'NONE', #644, #913, #724 ) ;
#118 = DIRECTION ( 'NONE',  ( 3.610927701937645169E-33, 1.000000000000000000, 0.000000000000000000 ) ) ;
#119 = EDGE_LOOP ( 'NONE', ( #530, #48, #647 ) ) ;
#120 = VECTOR ( 'NONE', #1086, 1000.000000000000000 ) ;
#121 = EDGE_CURVE ( 'NONE', #582, #213, #896, .T. ) ;
#122 = DIRECTION ( 'NONE',  ( -0.000000000000000000, 1.000000000000000000, -1.949684284958172601E-16 ) ) ;
#123 = DIRECTION ( 'NONE',  ( 0.000000000000000000, 0.000000000000000000, 1.000000000000000000 ) ) ;
#124 = ADVANCED_FACE ( 'NONE', ( #805 ), #906, .F. ) ;
#125 = ORIENTED_EDGE ( 'NONE', *, *, #377, .F. ) ;
#126 = CARTESIAN_POINT ( 'NONE',  ( -36.52999999999999403, 57.04999999999998295, 42.22016652059597419 ) ) ;
#127 = ORIENTED_EDGE ( 'NONE', *, *, #1091, .T. ) ;
#128 = LINE ( 'NONE', #753, #613 ) ;
#129 = EDGE_CURVE ( 'NONE', #1035, #770, #4, .T. ) ;
#130 = VERTEX_POINT ( 'NONE', #1082 ) ;
#131 = CARTESIAN_POINT ( 'NONE',  ( -5.723320407571171934E-32, -15.85000000000001386, 8.000000000000000000 ) ) ;
#132 = ORIENTED_EDGE ( 'NONE', *, *, #159, .F. ) ;
#133 = LINE ( 'NONE', #46, #1107 ) ;
#134 = CARTESIAN_POINT ( 'NONE',  ( -42.29999999999999716, 1.527422417919623873E-31, 8.000000000000000000 ) ) ;
#135 = ORIENTED_EDGE ( 'NONE', *, *, #249, .T. ) ;
#136 = ADVANCED_FACE ( 'NONE', ( #104 ), #900, .F. ) ;
#137 = FACE_OUTER_BOUND ( 'NONE', #436, .T. ) ;
#138 = VECTOR ( 'NONE', #346, 1000.000000000000000 ) ;
#139 = AXIS2_PLACEMENT_3D ( 'NONE', #787, #782, #778 ) ;
#140 = VECTOR ( 'NONE', #241, 1000.000000000000000 ) ;
#141 = DIRECTION ( 'NONE',  ( -0.000000000000000000, -0.000000000000000000, 1.000000000000000000 ) ) ;
#142 = CARTESIAN_POINT ( 'NONE',  ( 1.527422417919623873E-31, 42.29999999999999716, 6.000000000000000000 ) ) ;
#143 = CARTESIAN_POINT ( 'NONE',  ( 0.000000000000000000, 42.29999999999999005, 8.000000000000000000 ) ) ;
#144 = ORIENTED_EDGE ( 'NONE', *, *, #531, .F. ) ;
#145 = EDGE_CURVE ( 'NONE', #721, #924, #283, .T. ) ;
#146 = DIRECTION ( 'NONE',  ( -0.000000000000000000, 1.000000000000000000, -1.949684284958172601E-16 ) ) ;
#147 = CARTESIAN_POINT ( 'NONE',  ( -42.29999999999999716, 1.527422417919623873E-31, -32.00000000000000000 ) ) ;
#148 = ORIENTED_EDGE ( 'NONE', *, *, #1104, .T. ) ;
#149 = ORIENTED_EDGE ( 'NONE', *, *, #524, .T. ) ;
#150 = ADVANCED_FACE ( 'NONE', ( #549 ), #983, .F. ) ;
#151 = CARTESIAN_POINT ( 'NONE',  ( -38.34999999999999432, 36.64999999999999858, 0.000000000000000000 ) ) ;
#152 = DIRECTION ( 'NONE',  ( -0.000000000000000000, -0.000000000000000000, 1.000000000000000000 ) ) ;
#153 = DIRECTION ( 'NONE',  ( 0.000000000000000000, 0.000000000000000000, 1.000000000000000000 ) ) ;
#154 = EDGE_LOOP ( 'NONE', ( #939, #319, #1132, #127 ) ) ;
#155 = VECTOR ( 'NONE', #17, 1000.000000000000000 ) ;
#156 = LINE ( 'NONE', #1042, #577 ) ;
#157 = AXIS2_PLACEMENT_3D ( 'NONE', #205, #5, #382 ) ;
#158 = DIRECTION ( 'NONE',  ( -0.000000000000000000, -0.000000000000000000, 1.000000000000000000 ) ) ;
#159 = EDGE_CURVE ( 'NONE', #588, #33, #468, .T. ) ;
#160 = CONICAL_SURFACE ( 'NONE', #256, 1.700000000000000178, 1.029744258676652535 ) ;
#161 = CARTESIAN_POINT ( 'NONE',  ( -38.34999999999999432, 5.649999999999994138, 6.000000000000000000 ) ) ;
#162 = AXIS2_PLACEMENT_3D ( 'NONE', #732, #374, #298 ) ;
#163 = EDGE_CURVE ( 'NONE', #314, #571, #544, .T. ) ;
#164 = DIRECTION ( 'NONE',  ( 0.000000000000000000, 1.000000000000000000, -1.949684284958172601E-16 ) ) ;
#165 = AXIS2_PLACEMENT_3D ( 'NONE', #1146, #703, #546 ) ;
#166 = UNCERTAINTY_MEASURE_WITH_UNIT (LENGTH_MEASURE( 1.000000000000000082E-05 ), #1060, 'distance_accuracy_value', 'NONE');
#167 = VERTEX_POINT ( 'NONE', #10 ) ;
#168 = CARTESIAN_POINT ( 'NONE',  ( -6.229999999999899174, 57.04999999999998295, 26.56016652059596339 ) ) ;
#169 = FACE_OUTER_BOUND ( 'NONE', #654, .T. ) ;
#170 = PRODUCT_RELATED_PRODUCT_CATEGORY ( 'part', '', ( #36 ) ) ;
#171 = CARTESIAN_POINT ( 'NONE',  ( -36.52999999999999403, 53.04999999999998295, 45.62016652059596566 ) ) ;
#172 = CARTESIAN_POINT ( 'NONE',  ( -36.64999999999999858, 5.649999999999994138, 6.000000000000001776 ) ) ;
#173 = EDGE_CURVE ( 'NONE', #399, #714, #92, .T. ) ;
#174 = ORIENTED_EDGE ( 'NONE', *, *, #1012, .F. ) ;
#175 = LINE ( 'NONE', #344, #102 ) ;
#176 =( NAMED_UNIT ( * ) PLANE_ANGLE_UNIT ( ) SI_UNIT ( $, .RADIAN. ) );
#177 = DIRECTION ( 'NONE',  ( -0.000000000000000000, 1.000000000000000000, -1.949684284958172601E-16 ) ) ;
#178 = EDGE_LOOP ( 'NONE', ( #1092, #1113 ) ) ;
#179 = DIRECTION ( 'NONE',  ( 1.000000000000000000, -3.610927701937645169E-33, 0.000000000000000000 ) ) ;
#180 = DIRECTION ( 'NONE',  ( 0.000000000000000000, -0.000000000000000000, 1.000000000000000000 ) ) ;
#181 = CARTESIAN_POINT ( 'NONE',  ( -6.229999999999899174, 57.04999999999998295, 26.56016652059596694 ) ) ;
#182 = CONICAL_SURFACE ( 'NONE', #315, 1.700000000000000178, 1.029744258676652535 ) ;
#183 = VECTOR ( 'NONE', #428, 1000.000000000000000 ) ;
#184 = VERTEX_POINT ( 'NONE', #1077 ) ;
#185 = DIRECTION ( 'NONE',  ( 1.000000000000000000, 0.000000000000000000, 0.000000000000000000 ) ) ;
#186 = DIRECTION ( 'NONE',  ( -0.000000000000000000, 1.000000000000000000, -1.949684284958172601E-16 ) ) ;
#187 = SHAPE_DEFINITION_REPRESENTATION ( #584, #769 ) ;
#188 = LINE ( 'NONE', #620, #959 ) ;
#189 = ORIENTED_EDGE ( 'NONE', *, *, #818, .F. ) ;
#190 = CARTESIAN_POINT ( 'NONE',  ( -6.229999999999899174, 57.04999999999998295, 24.86016652059597121 ) ) ;
#191 = EDGE_CURVE ( 'NONE', #657, #924, #1066, .T. ) ;
#192 = CARTESIAN_POINT ( 'NONE',  ( -42.29999999999999716, 0.000000000000000000, 8.000000000000000000 ) ) ;
#193 = CARTESIAN_POINT ( 'NONE',  ( -6.229999999999896509, 57.04999999999998295, 42.22016652059597419 ) ) ;
#194 = ORIENTED_EDGE ( 'NONE', *, *, #1144, .T. ) ;
#195 = DIRECTION ( 'NONE',  ( -0.000000000000000000, 1.000000000000000000, -1.949684284958172601E-16 ) ) ;
#196 = ORIENTED_EDGE ( 'NONE', *, *, #638, .T. ) ;
#197 = FACE_OUTER_BOUND ( 'NONE', #355, .T. ) ;
#198 = EDGE_CURVE ( 'NONE', #989, #578, #188, .T. ) ;
#199 = CIRCLE ( 'NONE', #700, 1.699999999999993072 ) ;
#200 = DIRECTION ( 'NONE',  ( 3.610927701937645853E-33, 1.000000000000000000, -0.000000000000000000 ) ) ;
#201 = AXIS2_PLACEMENT_3D ( 'NONE', #898, #94, #456 ) ;
#202 = VECTOR ( 'NONE', #1100, 1000.000000000000000 ) ;
#203 = VERTEX_POINT ( 'NONE', #608 ) ;
#204 = CIRCLE ( 'NONE', #629, 1.699999999999987965 ) ;
#205 = CARTESIAN_POINT ( 'NONE',  ( -5.650000000000009237, 36.64999999999999858, 6.000000000000000000 ) ) ;
#206 = FACE_BOUND ( 'NONE', #16, .T. ) ;
#207 = ORIENTED_EDGE ( 'NONE', *, *, #1144, .F. ) ;
#208 = EDGE_CURVE ( 'NONE', #770, #1018, #542, .T. ) ;
#209 = DIRECTION ( 'NONE',  ( -0.000000000000000000, 1.000000000000000000, -1.949684284958172601E-16 ) ) ;
#210 = DIRECTION ( 'NONE',  ( 1.000000000000000000, -2.114251557592029225E-33, -1.778861959060778587E-33 ) ) ;
#211 = EDGE_LOOP ( 'NONE', ( #1155, #610, #411, #743 ) ) ;
#212 = ADVANCED_FACE ( 'NONE', ( #693 ), #962, .F. ) ;
#213 = VERTEX_POINT ( 'NONE', #879 ) ;
#214 = DIRECTION ( 'NONE',  ( 0.000000000000000000, -0.000000000000000000, 1.000000000000000000 ) ) ;
#215 = LINE ( 'NONE', #193, #220 ) ;
#216 = VERTEX_POINT ( 'NONE', #1065 ) ;
#217 = VECTOR ( 'NONE', #288, 1000.000000000000000 ) ;
#218 = VERTEX_POINT ( 'NONE', #875 ) ;
#219 = CIRCLE ( 'NONE', #425, 1.699999999999989742 ) ;
#220 = VECTOR ( 'NONE', #575, 1000.000000000000000 ) ;
#221 = EDGE_CURVE ( 'NONE', #999, #56, #698, .T. ) ;
#222 = CARTESIAN_POINT ( 'NONE',  ( -42.29999999999999716, 42.29999999999999005, 6.000000000000000000 ) ) ;
#223 = DIRECTION ( 'NONE',  ( -0.000000000000000000, 1.000000000000000000, -1.949684284958172601E-16 ) ) ;
#224 = ORIENTED_EDGE ( 'NONE', *, *, #198, .F. ) ;
#225 = CARTESIAN_POINT ( 'NONE',  ( -6.229999999999896509, 57.04999999999998295, 45.62016652059595856 ) ) ;
#226 = ORIENTED_EDGE ( 'NONE', *, *, #349, .F. ) ;
#227 = DIRECTION ( 'NONE',  ( -1.000000000000000000, -1.640400450096271510E-16, 0.000000000000000000 ) ) ;
#228 = DIRECTION ( 'NONE',  ( 0.000000000000000000, 0.000000000000000000, 1.000000000000000000 ) ) ;
#229 = EDGE_CURVE ( 'NONE', #213, #966, #712, .T. ) ;
#230 = ORIENTED_EDGE ( 'NONE', *, *, #537, .F. ) ;
#231 = ORIENTED_EDGE ( 'NONE', *, *, #537, .T. ) ;
#232 = CARTESIAN_POINT ( 'NONE',  ( 1.527422417919623873E-31, 42.29999999999999716, 0.000000000000000000 ) ) ;
#233 = PLANE ( 'NONE',  #426 ) ;
#234 = EDGE_LOOP ( 'NONE', ( #491, #268, #74, #1016 ) ) ;
#235 = PRODUCT_DEFINITION_CONTEXT ( 'detailed design', #911, 'design' ) ;
#236 = ORIENTED_EDGE ( 'NONE', *, *, #818, .T. ) ;
#237 = AXIS2_PLACEMENT_3D ( 'NONE', #884, #180, #473 ) ;
#238 = VECTOR ( 'NONE', #227, 1000.000000000000000 ) ;
#239 = CIRCLE ( 'NONE', #1015, 1.700000000000000178 ) ;
#240 = LINE ( 'NONE', #232, #238 ) ;
#241 = DIRECTION ( 'NONE',  ( -0.000000000000000000, -0.000000000000000000, 1.000000000000000000 ) ) ;
#242 = ORIENTED_EDGE ( 'NONE', *, *, #75, .F. ) ;
#243 = ORIENTED_EDGE ( 'NONE', *, *, #229, .T. ) ;
#244 = EDGE_CURVE ( 'NONE', #9, #606, #83, .T. ) ;
#245 = DIRECTION ( 'NONE',  ( 1.049727191138617340E-16, 0.5150380749100558209, -0.8571673007021113344 ) ) ;
#246 = DIRECTION ( 'NONE',  ( 0.000000000000000000, 0.000000000000000000, 1.000000000000000000 ) ) ;
#247 = DIRECTION ( 'NONE',  ( -0.000000000000000000, 1.000000000000000000, -1.949684284958172601E-16 ) ) ;
#248 = ORIENTED_EDGE ( 'NONE', *, *, #868, .F. ) ;
#249 = EDGE_CURVE ( 'NONE', #25, #733, #1049, .T. ) ;
#250 = CARTESIAN_POINT ( 'NONE',  ( -36.52999999999999403, 57.04999999999998295, 24.86016652059597121 ) ) ;
#251 = CARTESIAN_POINT ( 'NONE',  ( -36.52999999999999403, 57.04999999999998295, 43.92016652059596282 ) ) ;
#252 = FACE_OUTER_BOUND ( 'NONE', #234, .T. ) ;
#253 = ORIENTED_EDGE ( 'NONE', *, *, #1073, .F. ) ;
#254 = VECTOR ( 'NONE', #336, 1000.000000000000000 ) ;
#255 = DIRECTION ( 'NONE',  ( -1.000000000000000000, 3.610927701937645169E-33, 0.000000000000000000 ) ) ;
#256 = AXIS2_PLACEMENT_3D ( 'NONE', #34, #1133, #357 ) ;
#257 = DIRECTION ( 'NONE',  ( -0.000000000000000000, -0.000000000000000000, 1.000000000000000000 ) ) ;
#258 = EDGE_CURVE ( 'NONE', #130, #664, #273, .T. ) ;
#259 = AXIS2_PLACEMENT_3D ( 'NONE', #1116, #415, #1120 ) ;
#260 = CARTESIAN_POINT ( 'NONE',  ( -6.229999999999899174, 57.04999999999998295, 24.86016652059597121 ) ) ;
#261 = ORIENTED_EDGE ( 'NONE', *, *, #208, .T. ) ;
#262 = VERTEX_POINT ( 'NONE', #72 ) ;
#263 = MANIFOLD_SOLID_BREP ( 'Raccordo1', #1047 ) ;
#264 = APPLICATION_PROTOCOL_DEFINITION ( 'draft international standard', 'automotive_design', 1998, #911 ) ;
#265 = DIRECTION ( 'NONE',  ( -0.000000000000000000, 1.000000000000000000, -1.949684284958172601E-16 ) ) ;
#266 = ADVANCED_FACE ( 'NONE', ( #429 ), #1044, .F. ) ;
#267 = LINE ( 'NONE', #694, #289 ) ;
#268 = ORIENTED_EDGE ( 'NONE', *, *, #972, .F. ) ;
#269 = CARTESIAN_POINT ( 'NONE',  ( -6.229999999999899174, 53.04999999999998295, 26.56016652059597050 ) ) ;
#270 = CARTESIAN_POINT ( 'NONE',  ( -36.52999999999999403, 53.04999999999998295, 45.62016652059596566 ) ) ;
#271 = VERTEX_POINT ( 'NONE', #448 ) ;
#272 = EDGE_CURVE ( 'NONE', #899, #1093, #523, .T. ) ;
#273 = LINE ( 'NONE', #1141, #138 ) ;
#274 = DIRECTION ( 'NONE',  ( 0.000000000000000000, 0.000000000000000000, 1.000000000000000000 ) ) ;
#275 = AXIS2_PLACEMENT_3D ( 'NONE', #927, #214, #1115 ) ;
#276 = CIRCLE ( 'NONE', #597, 1.700000000000000178 ) ;
#277 = ORIENTED_EDGE ( 'NONE', *, *, #272, .F. ) ;
#278 = DIRECTION ( 'NONE',  ( 1.000000000000000000, -3.610927701937645169E-33, 0.000000000000000000 ) ) ;
#279 = ORIENTED_EDGE ( 'NONE', *, *, #820, .T. ) ;
#280 = DIRECTION ( 'NONE',  ( 1.000000000000000000, 0.000000000000000000, 0.000000000000000000 ) ) ;
#281 = FACE_BOUND ( 'NONE', #311, .T. ) ;
#282 = VERTEX_POINT ( 'NONE', #705 ) ;
#283 = LINE ( 'NONE', #1069, #886 ) ;
#284 = EDGE_CURVE ( 'NONE', #459, #167, #811, .T. ) ;
#285 = FACE_OUTER_BOUND ( 'NONE', #1118, .T. ) ;
#286 = CARTESIAN_POINT ( 'NONE',  ( 0.000000000000000000, 42.29999999999999005, 8.000000000000000000 ) ) ;
#287 = VERTEX_POINT ( 'NONE', #98 ) ;
#288 = DIRECTION ( 'NONE',  ( -0.000000000000000000, -0.000000000000000000, 1.000000000000000000 ) ) ;
#289 = VECTOR ( 'NONE', #420, 1000.000000000000000 ) ;
#290 = CYLINDRICAL_SURFACE ( 'NONE', #157, 1.699999999999987965 ) ;
#291 = FACE_OUTER_BOUND ( 'NONE', #348, .T. ) ;
#292 = EDGE_CURVE ( 'NONE', #999, #989, #887, .T. ) ;
#293 = AXIS2_PLACEMENT_3D ( 'NONE', #483, #836, #313 ) ;
#294 = EDGE_LOOP ( 'NONE', ( #248, #326, #406, #231 ) ) ;
#295 = CIRCLE ( 'NONE', #67, 1.700000000000000178 ) ;
#296 = EDGE_LOOP ( 'NONE', ( #62, #304 ) ) ;
#297 = DIRECTION ( 'NONE',  ( -0.000000000000000000, 1.000000000000000000, -1.949684284958172601E-16 ) ) ;
#298 = DIRECTION ( 'NONE',  ( 1.000000000000000000, 0.000000000000000000, -0.000000000000000000 ) ) ;
#299 = ADVANCED_FACE ( 'NONE', ( #23 ), #634, .F. ) ;
#300 = ORIENTED_EDGE ( 'NONE', *, *, #1034, .T. ) ;
#301 = ORIENTED_EDGE ( 'NONE', *, *, #1073, .T. ) ;
#302 = DIRECTION ( 'NONE',  ( -0.000000000000000000, 1.000000000000000000, -1.949684284958172601E-16 ) ) ;
#303 = CARTESIAN_POINT ( 'NONE',  ( -36.52999999999999403, 57.04999999999998295, 43.92016652059596282 ) ) ;
#304 = ORIENTED_EDGE ( 'NONE', *, *, #1137, .F. ) ;
#305 = DIRECTION ( 'NONE',  ( -1.000000000000000000, 3.610927701937645169E-33, 0.000000000000000000 ) ) ;
#306 = ORIENTED_EDGE ( 'NONE', *, *, #129, .T. ) ;
#307 = EDGE_CURVE ( 'NONE', #282, #770, #833, .T. ) ;
#308 = CARTESIAN_POINT ( 'NONE',  ( -36.65000000000000568, 36.64999999999999858, 0.000000000000000000 ) ) ;
#309 = FACE_OUTER_BOUND ( 'NONE', #496, .T. ) ;
#310 = VECTOR ( 'NONE', #722, 1000.000000000000000 ) ;
#311 = EDGE_LOOP ( 'NONE', ( #844, #1027 ) ) ;
#312 = VECTOR ( 'NONE', #373, 1000.000000000000000 ) ;
#313 = DIRECTION ( 'NONE',  ( -1.000000000000000000, 0.000000000000000000, 0.000000000000000000 ) ) ;
#314 = VERTEX_POINT ( 'NONE', #559 ) ;
#315 = AXIS2_PLACEMENT_3D ( 'NONE', #752, #772, #1109 ) ;
#316 = CIRCLE ( 'NONE', #718, 1.699999999999987965 ) ;
#317 = DIRECTION ( 'NONE',  ( -0.000000000000000000, -0.7651893786180983259, -0.6438052615892856378 ) ) ;
#318 = CARTESIAN_POINT ( 'NONE',  ( -3.950000000000017941, 5.649999999999994138, 6.000000000000000000 ) ) ;
#319 = ORIENTED_EDGE ( 'NONE', *, *, #284, .F. ) ;
#320 = DIRECTION ( 'NONE',  ( 3.610927701937645169E-33, 1.000000000000000000, 0.000000000000000000 ) ) ;
#321 = EDGE_LOOP ( 'NONE', ( #306, #1064, #1143, #375, #841, #492, #631, #1028, #106, #800, #878 ) ) ;
#322 = FACE_OUTER_BOUND ( 'NONE', #1010, .T. ) ;
#323 = CARTESIAN_POINT ( 'NONE',  ( -36.52999999999999403, 57.04999999999998295, 26.56016652059596694 ) ) ;
#324 = EDGE_CURVE ( 'NONE', #1040, #726, #114, .T. ) ;
#325 = ORIENTED_EDGE ( 'NONE', *, *, #1070, .F. ) ;
#326 = ORIENTED_EDGE ( 'NONE', *, *, #562, .F. ) ;
#327 = CARTESIAN_POINT ( 'NONE',  ( -36.52999999999999403, 57.04999999999998295, 24.86016652059597121 ) ) ;
#328 = CARTESIAN_POINT ( 'NONE',  ( -42.29999999999999716, -11.85000000000001386, -32.00000000000000000 ) ) ;
#329 = DIRECTION ( 'NONE',  ( -0.000000000000000000, 1.000000000000000000, -1.949684284958172601E-16 ) ) ;
#330 = ORIENTED_EDGE ( 'NONE', *, *, #229, .F. ) ;
#331 = VECTOR ( 'NONE', #981, 1000.000000000000114 ) ;
#332 = DIRECTION ( 'NONE',  ( -0.000000000000000000, 0.000000000000000000, -1.000000000000000000 ) ) ;
#333 = AXIS2_PLACEMENT_3D ( 'NONE', #508, #485, #686 ) ;
#334 = LINE ( 'NONE', #598, #965 ) ;
#335 = CARTESIAN_POINT ( 'NONE',  ( 0.000000000000000000, 0.000000000000000000, 0.000000000000000000 ) ) ;
#336 = DIRECTION ( 'NONE',  ( -1.000000000000000000, 0.000000000000000000, 0.000000000000000000 ) ) ;
#337 = EDGE_CURVE ( 'NONE', #582, #440, #731, .T. ) ;
#338 = ORIENTED_EDGE ( 'NONE', *, *, #960, .F. ) ;
#339 = DIRECTION ( 'NONE',  ( -0.000000000000000000, -0.000000000000000000, 1.000000000000000000 ) ) ;
#340 = CARTESIAN_POINT ( 'NONE',  ( -6.229999999999899174, 57.04999999999998295, 24.86016652059597121 ) ) ;
#341 = DIRECTION ( 'NONE',  ( 0.000000000000000000, 0.000000000000000000, 1.000000000000000000 ) ) ;
#342 = DIRECTION ( 'NONE',  ( 1.000000000000000000, 0.000000000000000000, 0.000000000000000000 ) ) ;
#343 = ORIENTED_EDGE ( 'NONE', *, *, #1012, .T. ) ;
#344 = CARTESIAN_POINT ( 'NONE',  ( -7.349999999999996980, 36.64999999999999858, 6.000000000000000000 ) ) ;
#345 = EDGE_CURVE ( 'NONE', #287, #925, #719, .T. ) ;
#346 = DIRECTION ( 'NONE',  ( 0.000000000000000000, 0.5150380749100562650, 0.8571673007021111124 ) ) ;
#347 = DIRECTION ( 'NONE',  ( 1.049727191138617710E-16, 0.5150380749100552658, -0.8571673007021116675 ) ) ;
#348 = EDGE_LOOP ( 'NONE', ( #512, #553, #387, #194 ) ) ;
#349 = EDGE_CURVE ( 'NONE', #931, #369, #997, .T. ) ;
#350 = VECTOR ( 'NONE', #659, 1000.000000000000000 ) ;
#351 = LINE ( 'NONE', #883, #665 ) ;
#352 = AXIS2_PLACEMENT_3D ( 'NONE', #493, #865, #591 ) ;
#353 = CARTESIAN_POINT ( 'NONE',  ( 0.000000000000000000, 0.000000000000000000, 8.000000000000000000 ) ) ;
#354 = ORIENTED_EDGE ( 'NONE', *, *, #526, .T. ) ;
#355 = EDGE_LOOP ( 'NONE', ( #919, #125, #236, #672 ) ) ;
#356 = CARTESIAN_POINT ( 'NONE',  ( -6.229999999999899174, 53.04999999999998295, 24.86016652059597121 ) ) ;
#357 = DIRECTION ( 'NONE',  ( 0.000000000000000000, 0.000000000000000000, 1.000000000000000000 ) ) ;
#358 = DIRECTION ( 'NONE',  ( 1.000000000000000000, 0.000000000000000000, 0.000000000000000000 ) ) ;
#359 = ADVANCED_FACE ( 'NONE', ( #901 ), #576, .F. ) ;
#360 = EDGE_LOOP ( 'NONE', ( #149, #957, #728, #397 ) ) ;
#361 = DIRECTION ( 'NONE',  ( 0.000000000000000000, 0.000000000000000000, 1.000000000000000000 ) ) ;
#362 = DIRECTION ( 'NONE',  ( -0.000000000000000000, 1.000000000000000000, -1.949684284958172601E-16 ) ) ;
#363 = EDGE_CURVE ( 'NONE', #733, #517, #404, .T. ) ;
#364 = EDGE_LOOP ( 'NONE', ( #758, #671 ) ) ;
#365 = CARTESIAN_POINT ( 'NONE',  ( -42.29999999999999716, -11.85000000000001386, -67.00000000000000000 ) ) ;
#366 = DIRECTION ( 'NONE',  ( 0.000000000000000000, 0.7651893786180984369, 0.6438052615892855268 ) ) ;
#367 = AXIS2_PLACEMENT_3D ( 'NONE', #503, #146, #409 ) ;
#368 = AXIS2_PLACEMENT_3D ( 'NONE', #803, #362, #274 ) ;
#369 = VERTEX_POINT ( 'NONE', #30 ) ;
#370 = DIRECTION ( 'NONE',  ( -0.000000000000000000, -1.000000000000000000, -0.000000000000000000 ) ) ;
#371 = ADVANCED_FACE ( 'NONE', ( #821 ), #519, .F. ) ;
#372 = PRODUCT_DEFINITION_FORMATION_WITH_SPECIFIED_SOURCE ( 'TUTTO', '', #36, .NOT_KNOWN. ) ;
#373 = DIRECTION ( 'NONE',  ( -0.000000000000000000, -0.000000000000000000, 1.000000000000000000 ) ) ;
#374 = DIRECTION ( 'NONE',  ( 0.000000000000000000, -0.000000000000000000, 1.000000000000000000 ) ) ;
#375 = ORIENTED_EDGE ( 'NONE', *, *, #552, .F. ) ;
#376 = CARTESIAN_POINT ( 'NONE',  ( -7.349999999999993427, 5.649999999999994138, 6.000000000000000000 ) ) ;
#377 = EDGE_CURVE ( 'NONE', #664, #721, #792, .T. ) ;
#378 = DIRECTION ( 'NONE',  ( -0.000000000000000000, 1.000000000000000000, -1.949684284958172601E-16 ) ) ;
#379 = DIRECTION ( 'NONE',  ( -0.000000000000000000, 1.000000000000000000, -1.949684284958172601E-16 ) ) ;
#380 = ORIENTED_EDGE ( 'NONE', *, *, #377, .T. ) ;
#381 = ADVANCED_FACE ( 'NONE', ( #285 ), #964, .F. ) ;
#382 = DIRECTION ( 'NONE',  ( 1.000000000000000000, 0.000000000000000000, 0.000000000000000000 ) ) ;
#383 = AXIS2_PLACEMENT_3D ( 'NONE', #1061, #789, #361 ) ;
#384 = PLANE ( 'NONE',  #482 ) ;
#385 = AXIS2_PLACEMENT_3D ( 'NONE', #477, #1085, #280 ) ;
#386 = CIRCLE ( 'NONE', #139, 1.699999999999986189 ) ;
#387 = ORIENTED_EDGE ( 'NONE', *, *, #960, .T. ) ;
#388 = VECTOR ( 'NONE', #210, 1000.000000000000000 ) ;
#389 = LINE ( 'NONE', #653, #445 ) ;
#390 = CARTESIAN_POINT ( 'NONE',  ( -42.29999999999999716, 1.527422417919623873E-31, 8.000000000000000000 ) ) ;
#391 = DIRECTION ( 'NONE',  ( 1.000000000000000000, -3.610927701937645169E-33, 0.000000000000000000 ) ) ;
#392 = ORIENTED_EDGE ( 'NONE', *, *, #221, .F. ) ;
#393 = FACE_OUTER_BOUND ( 'NONE', #178, .T. ) ;
#394 = VERTEX_POINT ( 'NONE', #649 ) ;
#395 = CARTESIAN_POINT ( 'NONE',  ( -36.65000000000000568, 36.64999999999999858, 6.000000000000001776 ) ) ;
#396 = FACE_BOUND ( 'NONE', #1096, .T. ) ;
#397 = ORIENTED_EDGE ( 'NONE', *, *, #1070, .T. ) ;
#398 = ADVANCED_FACE ( 'NONE', ( #1074 ), #290, .F. ) ;
#399 = VERTEX_POINT ( 'NONE', #735 ) ;
#400 = FACE_OUTER_BOUND ( 'NONE', #750, .T. ) ;
#401 = CARTESIAN_POINT ( 'NONE',  ( -36.52999999999999403, 57.04999999999998295, 23.16016652059597547 ) ) ;
#402 = AXIS2_PLACEMENT_3D ( 'NONE', #190, #990, #97 ) ;
#403 = ORIENTED_EDGE ( 'NONE', *, *, #414, .T. ) ;
#404 = CIRCLE ( 'NONE', #926, 1.699999999999993072 ) ;
#405 = ADVANCED_FACE ( 'NONE', ( #197 ), #922, .F. ) ;
#406 = ORIENTED_EDGE ( 'NONE', *, *, #759, .T. ) ;
#407 = VECTOR ( 'NONE', #179, 1000.000000000000000 ) ;
#408 = ADVANCED_FACE ( 'NONE', ( #1094 ), #547, .T. ) ;
#409 = DIRECTION ( 'NONE',  ( 0.000000000000000000, 0.000000000000000000, 1.000000000000000000 ) ) ;
#410 = DIRECTION ( 'NONE',  ( 1.000000000000000000, 0.000000000000000000, 0.000000000000000000 ) ) ;
#411 = ORIENTED_EDGE ( 'NONE', *, *, #345, .T. ) ;
#412 = EDGE_LOOP ( 'NONE', ( #439, #1002 ) ) ;
#413 = EDGE_CURVE ( 'NONE', #931, #829, #807, .T. ) ;
#414 = EDGE_CURVE ( 'NONE', #440, #213, #812, .T. ) ;
#415 = DIRECTION ( 'NONE',  ( -0.000000000000000000, -0.000000000000000000, 1.000000000000000000 ) ) ;
#416 = DIRECTION ( 'NONE',  ( 0.000000000000000000, 0.000000000000000000, 1.000000000000000000 ) ) ;
#417 = ORIENTED_EDGE ( 'NONE', *, *, #51, .F. ) ;
#418 = DIRECTION ( 'NONE',  ( 1.000000000000000000, 0.000000000000000000, 0.000000000000000000 ) ) ;
#419 = LINE ( 'NONE', #142, #1052 ) ;
#420 = DIRECTION ( 'NONE',  ( -0.000000000000000000, -0.000000000000000000, 1.000000000000000000 ) ) ;
#421 = AXIS2_PLACEMENT_3D ( 'NONE', #632, #637, #727 ) ;
#422 = ORIENTED_EDGE ( 'NONE', *, *, #159, .T. ) ;
#423 = COLOUR_RGB ( '',0.7921568627450980005, 0.8196078431372548767, 0.9333333333333333481 ) ;
#424 = FACE_OUTER_BOUND ( 'NONE', #119, .T. ) ;
#425 = AXIS2_PLACEMENT_3D ( 'NONE', #669, #141, #418 ) ;
#426 = AXIS2_PLACEMENT_3D ( 'NONE', #134, #581, #489 ) ;
#427 = CYLINDRICAL_SURFACE ( 'NONE', #84, 1.699999999999987965 ) ;
#428 = DIRECTION ( 'NONE',  ( -0.000000000000000000, -0.000000000000000000, 1.000000000000000000 ) ) ;
#429 = FACE_OUTER_BOUND ( 'NONE', #109, .T. ) ;
#430 = FACE_BOUND ( 'NONE', #1046, .T. ) ;
#431 = EDGE_CURVE ( 'NONE', #909, #314, #12, .T. ) ;
#432 = ORIENTED_EDGE ( 'NONE', *, *, #1019, .T. ) ;
#433 = DIRECTION ( 'NONE',  ( 0.000000000000000000, 0.000000000000000000, 1.000000000000000000 ) ) ;
#434 = DIRECTION ( 'NONE',  ( -0.000000000000000000, 1.000000000000000000, -1.949684284958172601E-16 ) ) ;
#435 = DIRECTION ( 'NONE',  ( 0.000000000000000000, 0.000000000000000000, 1.000000000000000000 ) ) ;
#436 = EDGE_LOOP ( 'NONE', ( #1053, #921, #982, #301 ) ) ;
#437 = EDGE_CURVE ( 'NONE', #636, #287, #595, .T. ) ;
#438 = CARTESIAN_POINT ( 'NONE',  ( -36.52999999999999403, 52.02853694765313008, 24.86016652059597121 ) ) ;
#439 = ORIENTED_EDGE ( 'NONE', *, *, #831, .F. ) ;
#440 = VERTEX_POINT ( 'NONE', #40 ) ;
#441 = CIRCLE ( 'NONE', #1011, 1.699999999999993072 ) ;
#442 = CARTESIAN_POINT ( 'NONE',  ( -3.950000000000019273, 36.64999999999999858, 6.000000000000001776 ) ) ;
#443 = AXIS2_PLACEMENT_3D ( 'NONE', #1000, #209, #740 ) ;
#444 = CARTESIAN_POINT ( 'NONE',  ( -6.229999999999896509, 53.04999999999998295, 43.92016652059596282 ) ) ;
#445 = VECTOR ( 'NONE', #320, 1000.000000000000000 ) ;
#446 = DIRECTION ( 'NONE',  ( -1.000000000000000000, 0.000000000000000000, 0.000000000000000000 ) ) ;
#447 = AXIS2_PLACEMENT_3D ( 'NONE', #565, #918, #24 ) ;
#448 = CARTESIAN_POINT ( 'NONE',  ( -42.29999999999999716, -11.85000000000001386, -67.00000000000000000 ) ) ;
#449 = CARTESIAN_POINT ( 'NONE',  ( -42.29999999999999716, -15.85000000000001386, 8.000000000000000000 ) ) ;
#450 = ORIENTED_EDGE ( 'NONE', *, *, #501, .T. ) ;
#451 = PRODUCT_CONTEXT ( 'NONE', #2, 'mechanical' ) ;
#452 = DIRECTION ( 'NONE',  ( 0.000000000000000000, 0.5150380749100557098, 0.8571673007021114454 ) ) ;
#453 = DIRECTION ( 'NONE',  ( -0.000000000000000000, 1.000000000000000000, -1.949684284958172601E-16 ) ) ;
#454 = ORIENTED_EDGE ( 'NONE', *, *, #101, .T. ) ;
#455 = CARTESIAN_POINT ( 'NONE',  ( -42.29999999999999716, -15.85000000000001386, 8.000000000000000000 ) ) ;
#456 = DIRECTION ( 'NONE',  ( 1.000000000000000000, -3.610927701937645169E-33, 0.000000000000000000 ) ) ;
#457 = EDGE_CURVE ( 'NONE', #738, #925, #663, .T. ) ;
#458 = CYLINDRICAL_SURFACE ( 'NONE', #628, 1.699999999999993072 ) ;
#459 = VERTEX_POINT ( 'NONE', #746 ) ;
#460 = CARTESIAN_POINT ( 'NONE',  ( -36.64999999999999858, 5.649999999999994138, 6.000000000000000000 ) ) ;
#461 = FACE_OUTER_BOUND ( 'NONE', #602, .T. ) ;
#462 = VECTOR ( 'NONE', #655, 1000.000000000000000 ) ;
#463 = DIRECTION ( 'NONE',  ( -0.000000000000000000, 1.000000000000000000, -1.949684284958172601E-16 ) ) ;
#464 = DIRECTION ( 'NONE',  ( 0.000000000000000000, 0.000000000000000000, -1.000000000000000000 ) ) ;
#465 = VECTOR ( 'NONE', #1030, 1000.000000000000000 ) ;
#466 = CIRCLE ( 'NONE', #45, 1.699999999999989742 ) ;
#467 = ORIENTED_EDGE ( 'NONE', *, *, #920, .T. ) ;
#468 = LINE ( 'NONE', #817, #155 ) ;
#469 = EDGE_LOOP ( 'NONE', ( #1050, #863, #580, #189 ) ) ;
#470 = CARTESIAN_POINT ( 'NONE',  ( -36.52999999999999403, 53.04999999999998295, 23.16016652059597192 ) ) ;
#471 = FACE_OUTER_BOUND ( 'NONE', #946, .T. ) ;
#472 = EDGE_LOOP ( 'NONE', ( #535, #977, #380 ) ) ;
#473 = DIRECTION ( 'NONE',  ( 1.000000000000000000, 0.000000000000000000, 0.000000000000000000 ) ) ;
#474 = DIRECTION ( 'NONE',  ( 0.000000000000000000, 0.000000000000000000, 1.000000000000000000 ) ) ;
#475 = ORIENTED_EDGE ( 'NONE', *, *, #638, .F. ) ;
#476 = ADVANCED_FACE ( 'NONE', ( #400 ), #858, .F. ) ;
#477 = CARTESIAN_POINT ( 'NONE',  ( -36.64999999999999858, 5.649999999999994138, 0.000000000000000000 ) ) ;
#478 = VECTOR ( 'NONE', #370, 1000.000000000000000 ) ;
#479 = FACE_OUTER_BOUND ( 'NONE', #27, .T. ) ;
#480 = VECTOR ( 'NONE', #366, 1000.000000000000114 ) ;
#481 = ORIENTED_EDGE ( 'NONE', *, *, #1104, .F. ) ;
#482 = AXIS2_PLACEMENT_3D ( 'NONE', #1075, #464, #635 ) ;
#483 = CARTESIAN_POINT ( 'NONE',  ( 0.000000000000000000, 42.29999999999999005, 6.000000000000000000 ) ) ;
#484 = ORIENTED_EDGE ( 'NONE', *, *, #414, .F. ) ;
#485 = DIRECTION ( 'NONE',  ( -0.000000000000000000, 1.000000000000000000, -1.949684284958172601E-16 ) ) ;
#486 = FACE_OUTER_BOUND ( 'NONE', #3, .T. ) ;
#487 = ORIENTED_EDGE ( 'NONE', *, *, #244, .T. ) ;
#488 = CARTESIAN_POINT ( 'NONE',  ( -36.52999999999999403, 53.04999999999998295, 24.86016652059597121 ) ) ;
#489 = DIRECTION ( 'NONE',  ( -1.000000000000000000, 3.610927701937645169E-33, 0.000000000000000000 ) ) ;
#490 = ADVANCED_FACE ( 'NONE', ( #322 ), #182, .F. ) ;
#491 = ORIENTED_EDGE ( 'NONE', *, *, #545, .F. ) ;
#492 = ORIENTED_EDGE ( 'NONE', *, *, #780, .F. ) ;
#493 = CARTESIAN_POINT ( 'NONE',  ( 0.000000000000000000, 0.000000000000000000, 8.000000000000000000 ) ) ;
#494 = CIRCLE ( 'NONE', #1124, 1.699999999999993072 ) ;
#495 = AXIS2_PLACEMENT_3D ( 'NONE', #963, #164, #876 ) ;
#496 = EDGE_LOOP ( 'NONE', ( #69, #764, #1117, #224 ) ) ;
#497 = AXIS2_PLACEMENT_3D ( 'NONE', #1006, #378, #1079 ) ;
#498 = VECTOR ( 'NONE', #317, 1000.000000000000114 ) ;
#499 = PLANE ( 'NONE',  #293 ) ;
#500 = ORIENTED_EDGE ( 'NONE', *, *, #1091, .F. ) ;
#501 = EDGE_CURVE ( 'NONE', #571, #184, #219, .T. ) ;
#502 =( GEOMETRIC_REPRESENTATION_CONTEXT ( 3 ) GLOBAL_UNCERTAINTY_ASSIGNED_CONTEXT ( ( #166 ) ) GLOBAL_UNIT_ASSIGNED_CONTEXT ( ( #1060, #176, #788 ) ) REPRESENTATION_CONTEXT ( 'NONE', 'WORKASPACE' ) );
#503 = CARTESIAN_POINT ( 'NONE',  ( -6.229999999999896509, 57.04999999999998295, 43.92016652059596282 ) ) ;
#504 = DIRECTION ( 'NONE',  ( -0.000000000000000000, -0.000000000000000000, -1.000000000000000000 ) ) ;
#505 = DIRECTION ( 'NONE',  ( 0.000000000000000000, -1.949684284958172601E-16, -1.000000000000000000 ) ) ;
#506 = ORIENTED_EDGE ( 'NONE', *, *, #920, .F. ) ;
#507 = EDGE_CURVE ( 'NONE', #899, #714, #717, .T. ) ;
#508 = CARTESIAN_POINT ( 'NONE',  ( -6.229999999999896509, 53.04999999999998295, 43.92016652059596282 ) ) ;
#509 = DIRECTION ( 'NONE',  ( 1.000000000000000000, -3.610927701937645169E-33, 0.000000000000000000 ) ) ;
#510 = DIRECTION ( 'NONE',  ( 1.640400450096271510E-16, -1.000000000000000000, 0.000000000000000000 ) ) ;
#511 = DIRECTION ( 'NONE',  ( 0.000000000000000000, 0.000000000000000000, -1.000000000000000000 ) ) ;
#512 = ORIENTED_EDGE ( 'NONE', *, *, #163, .F. ) ;
#513 = CARTESIAN_POINT ( 'NONE',  ( -6.229999999999896509, 57.04999999999998295, 43.92016652059596282 ) ) ;
#514 = CARTESIAN_POINT ( 'NONE',  ( -5.650000000000005684, 5.649999999999994138, 6.000000000000000000 ) ) ;
#515 = PLANE ( 'NONE',  #352 ) ;
#516 = EDGE_CURVE ( 'NONE', #1008, #1035, #941, .T. ) ;
#517 = VERTEX_POINT ( 'NONE', #847 ) ;
#518 = ORIENTED_EDGE ( 'NONE', *, *, #244, .F. ) ;
#519 = CONICAL_SURFACE ( 'NONE', #1048, 1.700000000000000178, 1.029744258676652979 ) ;
#520 = AXIS2_PLACEMENT_3D ( 'NONE', #308, #590, #574 ) ;
#521 = VECTOR ( 'NONE', #670, 1000.000000000000000 ) ;
#522 = LINE ( 'NONE', #970, #183 ) ;
#523 = LINE ( 'NONE', #353, #331 ) ;
#524 = EDGE_CURVE ( 'NONE', #991, #1035, #240, .T. ) ;
#525 = FACE_OUTER_BOUND ( 'NONE', #823, .T. ) ;
#526 = EDGE_CURVE ( 'NONE', #636, #738, #585, .T. ) ;
#527 = ORIENTED_EDGE ( 'NONE', *, *, #1153, .F. ) ;
#528 =( NAMED_UNIT ( * ) PLANE_ANGLE_UNIT ( ) SI_UNIT ( $, .RADIAN. ) );
#529 = ORIENTED_EDGE ( 'NONE', *, *, #272, .T. ) ;
#530 = ORIENTED_EDGE ( 'NONE', *, *, #258, .F. ) ;
#531 = EDGE_CURVE ( 'NONE', #695, #1068, #133, .T. ) ;
#532 = CARTESIAN_POINT ( 'NONE',  ( -5.723320407571171934E-32, -15.85000000000001386, -67.00000000000000000 ) ) ;
#533 = CARTESIAN_POINT ( 'NONE',  ( -7.349999999999995204, 5.649999999999994138, 6.000000000000001776 ) ) ;
#534 = DIRECTION ( 'NONE',  ( 0.000000000000000000, -0.000000000000000000, 1.000000000000000000 ) ) ;
#535 = ORIENTED_EDGE ( 'NONE', *, *, #621, .F. ) ;
#536 = AXIS2_PLACEMENT_3D ( 'NONE', #855, #329, #153 ) ;
#537 = EDGE_CURVE ( 'NONE', #573, #203, #849, .T. ) ;
#538 = VECTOR ( 'NONE', #110, 1000.000000000000000 ) ;
#539 = CARTESIAN_POINT ( 'NONE',  ( -6.229999999999899174, 53.04999999999998295, 23.16016652059597192 ) ) ;
#540 = AXIS2_PLACEMENT_3D ( 'NONE', #1098, #49, #305 ) ;
#541 = AXIS2_PLACEMENT_3D ( 'NONE', #893, #257, #358 ) ;
#542 = LINE ( 'NONE', #1057, #791 ) ;
#543 = ORIENTED_EDGE ( 'NONE', *, *, #437, .T. ) ;
#544 = LINE ( 'NONE', #376, #217 ) ;
#545 = EDGE_CURVE ( 'NONE', #726, #369, #52, .T. ) ;
#546 = DIRECTION ( 'NONE',  ( 1.000000000000000000, 0.000000000000000000, 0.000000000000000000 ) ) ;
#547 = PLANE ( 'NONE',  #201 ) ;
#548 = ORIENTED_EDGE ( 'NONE', *, *, #952, .F. ) ;
#549 = FACE_OUTER_BOUND ( 'NONE', #112, .T. ) ;
#550 = CARTESIAN_POINT ( 'NONE',  ( -34.95000000000002416, 36.64999999999999858, 6.000000000000000000 ) ) ;
#551 = CARTESIAN_POINT ( 'NONE',  ( 0.000000000000000000, 13.88225773126951879, 19.68007661877190628 ) ) ;
#552 = EDGE_CURVE ( 'NONE', #271, #701, #334, .T. ) ;
#553 = ORIENTED_EDGE ( 'NONE', *, *, #431, .F. ) ;
#554 = DIRECTION ( 'NONE',  ( -0.000000000000000000, -0.000000000000000000, 1.000000000000000000 ) ) ;
#555 = AXIS2_PLACEMENT_3D ( 'NONE', #706, #510, #860 ) ;
#556 = ORIENTED_EDGE ( 'NONE', *, *, #51, .T. ) ;
#557 = AXIS2_PLACEMENT_3D ( 'NONE', #460, #554, #185 ) ;
#558 = CONICAL_SURFACE ( 'NONE', #44, 1.700000000000000178, 1.029744258676652313 ) ;
#559 = CARTESIAN_POINT ( 'NONE',  ( -7.349999999999993427, 5.649999999999994138, 0.000000000000000000 ) ) ;
#560 = DIRECTION ( 'NONE',  ( 0.000000000000000000, 0.6438052615892856378, -0.7651893786180983259 ) ) ;
#561 = VECTOR ( 'NONE', #509, 1000.000000000000000 ) ;
#562 = EDGE_CURVE ( 'NONE', #394, #33, #996, .T. ) ;
#563 = ORIENTED_EDGE ( 'NONE', *, *, #307, .T. ) ;
#564 = CARTESIAN_POINT ( 'NONE',  ( 0.000000000000000000, 57.04999999999998295, 20.41016652059597192 ) ) ;
#565 = CARTESIAN_POINT ( 'NONE',  ( -5.650000000000005684, 5.649999999999994138, 6.000000000000000000 ) ) ;
#566 = ORIENTED_EDGE ( 'NONE', *, *, #723, .T. ) ;
#567 = EDGE_LOOP ( 'NONE', ( #563, #261, #745, #174 ) ) ;
#568 = ADVANCED_FACE ( 'NONE', ( #838 ), #160, .F. ) ;
#569 = DIRECTION ( 'NONE',  ( -0.000000000000000000, -0.000000000000000000, 1.000000000000000000 ) ) ;
#570 = CARTESIAN_POINT ( 'NONE',  ( -6.229999999999899174, 57.04999999999998295, 23.16016652059598258 ) ) ;
#571 = VERTEX_POINT ( 'NONE', #533 ) ;
#572 = CARTESIAN_POINT ( 'NONE',  ( 0.000000000000000000, 0.000000000000000000, 0.000000000000000000 ) ) ;
#573 = VERTEX_POINT ( 'NONE', #697 ) ;
#574 = DIRECTION ( 'NONE',  ( 1.000000000000000000, 0.000000000000000000, 0.000000000000000000 ) ) ;
#575 = DIRECTION ( 'NONE',  ( -0.000000000000000000, 1.000000000000000000, -1.949684284958172601E-16 ) ) ;
#576 = CONICAL_SURFACE ( 'NONE', #100, 1.700000000000000178, 1.029744258676652313 ) ;
#577 = VECTOR ( 'NONE', #954, 1000.000000000000000 ) ;
#578 = VERTEX_POINT ( 'NONE', #969 ) ;
#579 = AXIS2_PLACEMENT_3D ( 'NONE', #111, #560, #35 ) ;
#580 = ORIENTED_EDGE ( 'NONE', *, *, #1137, .T. ) ;
#581 = DIRECTION ( 'NONE',  ( 3.610927701937645169E-33, 1.000000000000000000, 0.000000000000000000 ) ) ;
#582 = VERTEX_POINT ( 'NONE', #438 ) ;
#583 = ORIENTED_EDGE ( 'NONE', *, *, #668, .F. ) ;
#584 = PRODUCT_DEFINITION_SHAPE ( 'NONE', 'NONE',  #601 ) ;
#585 = LINE ( 'NONE', #935, #202 ) ;
#586 = LINE ( 'NONE', #328, #561 ) ;
#587 = ADVANCED_FACE ( 'NONE', ( #1156 ), #1037, .F. ) ;
#588 = VERTEX_POINT ( 'NONE', #80 ) ;
#589 = ORIENTED_EDGE ( 'NONE', *, *, #751, .F. ) ;
#590 = DIRECTION ( 'NONE',  ( 0.000000000000000000, -0.000000000000000000, 1.000000000000000000 ) ) ;
#591 = DIRECTION ( 'NONE',  ( 0.000000000000000000, -0.7651893786180984369, -0.6438052615892854158 ) ) ;
#592 = CIRCLE ( 'NONE', #82, 1.699999999999993072 ) ;
#593 = EDGE_LOOP ( 'NONE', ( #1105, #905, #403 ) ) ;
#594 = EDGE_CURVE ( 'NONE', #33, #394, #643, .T. ) ;
#595 = CIRCLE ( 'NONE', #520, 1.699999999999986189 ) ;
#596 = EDGE_LOOP ( 'NONE', ( #1151, #1076, #819, #852 ) ) ;
#597 = AXIS2_PLACEMENT_3D ( 'NONE', #928, #914, #123 ) ;
#598 = CARTESIAN_POINT ( 'NONE',  ( -42.29999999999999716, -11.85000000000001386, -32.00000000000000000 ) ) ;
#599 = DIRECTION ( 'NONE',  ( 0.000000000000000000, 0.000000000000000000, 1.000000000000000000 ) ) ;
#600 = FACE_BOUND ( 'NONE', #116, .T. ) ;
#601 = PRODUCT_DEFINITION ( 'NON CONOSCIUTO', '', #372, #235 ) ;
#602 = EDGE_LOOP ( 'NONE', ( #481, #253, #793, #343 ) ) ;
#603 = FACE_OUTER_BOUND ( 'NONE', #103, .T. ) ;
#604 = DIRECTION ( 'NONE',  ( -0.000000000000000000, -0.000000000000000000, 1.000000000000000000 ) ) ;
#605 = CARTESIAN_POINT ( 'NONE',  ( -4.278949326796114140E-32, -11.85000000000001386, -32.00000000000000000 ) ) ;
#606 = VERTEX_POINT ( 'NONE', #270 ) ;
#607 = FACE_OUTER_BOUND ( 'NONE', #827, .T. ) ;
#608 = CARTESIAN_POINT ( 'NONE',  ( -6.229999999999896509, 57.04999999999998295, 42.22016652059597419 ) ) ;
#609 = PLANE ( 'NONE',  #495 ) ;
#610 = ORIENTED_EDGE ( 'NONE', *, *, #1097, .F. ) ;
#611 = VECTOR ( 'NONE', #1036, 1000.000000000000114 ) ;
#612 = AXIS2_PLACEMENT_3D ( 'NONE', #968, #339, #978 ) ;
#613 = VECTOR ( 'NONE', #152, 1000.000000000000000 ) ;
#614 = FACE_OUTER_BOUND ( 'NONE', #934, .T. ) ;
#615 = ADVANCED_FACE ( 'NONE', ( #169 ), #427, .F. ) ;
#616 = SURFACE_STYLE_FILL_AREA ( #802 ) ;
#617 = EDGE_CURVE ( 'NONE', #925, #738, #386, .T. ) ;
#618 = ORIENTED_EDGE ( 'NONE', *, *, #66, .F. ) ;
#619 = ORIENTED_EDGE ( 'NONE', *, *, #652, .T. ) ;
#620 = CARTESIAN_POINT ( 'NONE',  ( -34.95000000000000995, 5.649999999999994138, 6.000000000000000000 ) ) ;
#621 = EDGE_CURVE ( 'NONE', #130, #721, #979, .T. ) ;
#622 = ORIENTED_EDGE ( 'NONE', *, *, #60, .T. ) ;
#623 = DIRECTION ( 'NONE',  ( -0.000000000000000000, -0.000000000000000000, 1.000000000000000000 ) ) ;
#624 = DIRECTION ( 'NONE',  ( -0.000000000000000000, 1.000000000000000000, -1.949684284958172601E-16 ) ) ;
#625 = LINE ( 'NONE', #181, #85 ) ;
#626 = ORIENTED_EDGE ( 'NONE', *, *, #501, .F. ) ;
#627 = AXIS2_PLACEMENT_3D ( 'NONE', #251, #624, #1147 ) ;
#628 = AXIS2_PLACEMENT_3D ( 'NONE', #6, #177, #885 ) ;
#629 = AXIS2_PLACEMENT_3D ( 'NONE', #854, #942, #410 ) ;
#630 =( NAMED_UNIT ( * ) SI_UNIT ( $, .STERADIAN. ) SOLID_ANGLE_UNIT ( ) );
#631 = ORIENTED_EDGE ( 'NONE', *, *, #751, .T. ) ;
#632 = CARTESIAN_POINT ( 'NONE',  ( -42.29999999999999716, 0.000000000000000000, 6.000000000000000000 ) ) ;
#633 = EDGE_CURVE ( 'NONE', #714, #695, #156, .T. ) ;
#634 = CYLINDRICAL_SURFACE ( 'NONE', #117, 1.699999999999986189 ) ;
#635 = DIRECTION ( 'NONE',  ( -1.000000000000000000, 0.000000000000000000, -0.000000000000000000 ) ) ;
#636 = VERTEX_POINT ( 'NONE', #151 ) ;
#637 = DIRECTION ( 'NONE',  ( 1.000000000000000000, 0.000000000000000000, 0.000000000000000000 ) ) ;
#638 = EDGE_CURVE ( 'NONE', #966, #22, #734, .T. ) ;
#639 = CARTESIAN_POINT ( 'NONE',  ( -36.52999999999999403, 53.04999999999998295, 43.92016652059596282 ) ) ;
#640 = CARTESIAN_POINT ( 'NONE',  ( -5.650000000000009237, 36.64999999999999858, 6.000000000000000000 ) ) ;
#641 = ORIENTED_EDGE ( 'NONE', *, *, #531, .T. ) ;
#642 = VECTOR ( 'NONE', #434, 1000.000000000000000 ) ;
#643 = CIRCLE ( 'NONE', #889, 1.700000000000000178 ) ;
#644 = CARTESIAN_POINT ( 'NONE',  ( -36.65000000000000568, 36.64999999999999858, 6.000000000000000000 ) ) ;
#645 = DIRECTION ( 'NONE',  ( 1.000000000000000000, 0.000000000000000000, 0.000000000000000000 ) ) ;
#646 = AXIS2_PLACEMENT_3D ( 'NONE', #303, #379, #474 ) ;
#647 = ORIENTED_EDGE ( 'NONE', *, *, #1063, .T. ) ;
#648 = ORIENTED_EDGE ( 'NONE', *, *, #759, .F. ) ;
#649 = CARTESIAN_POINT ( 'NONE',  ( -6.229999999999896509, 53.04999999999998295, 45.62016652059596566 ) ) ;
#650 = CARTESIAN_POINT ( 'NONE',  ( 0.000000000000000000, 42.29999999999999005, 6.000000000000000000 ) ) ;
#651 = ORIENTED_EDGE ( 'NONE', *, *, #507, .F. ) ;
#652 = EDGE_CURVE ( 'NONE', #578, #56, #1013, .T. ) ;
#653 = CARTESIAN_POINT ( 'NONE',  ( -42.29999999999999716, -15.85000000000001386, -67.00000000000000000 ) ) ;
#654 = EDGE_LOOP ( 'NONE', ( #985, #1148, #450, #338 ) ) ;
#655 = DIRECTION ( 'NONE',  ( 1.049727191138617710E-16, 0.5150380749100552658, -0.8571673007021116675 ) ) ;
#656 = FACE_BOUND ( 'NONE', #364, .T. ) ;
#657 = VERTEX_POINT ( 'NONE', #168 ) ;
#658 = ORIENTED_EDGE ( 'NONE', *, *, #562, .T. ) ;
#659 = DIRECTION ( 'NONE',  ( 0.000000000000000000, -1.949684284958172601E-16, -1.000000000000000000 ) ) ;
#660 = CONICAL_SURFACE ( 'NONE', #536, 1.700000000000000178, 1.029744258676652979 ) ;
#661 = LINE ( 'NONE', #318, #140 ) ;
#662 = VECTOR ( 'NONE', #452, 1000.000000000000000 ) ;
#663 = CIRCLE ( 'NONE', #1071, 1.699999999999986189 ) ;
#664 = VERTEX_POINT ( 'NONE', #269 ) ;
#665 = VECTOR ( 'NONE', #975, 1000.000000000000000 ) ;
#666 = DIRECTION ( 'NONE',  ( 1.000000000000000000, 0.000000000000000000, 0.000000000000000000 ) ) ;
#667 = ORIENTED_EDGE ( 'NONE', *, *, #1078, .T. ) ;
#668 = EDGE_CURVE ( 'NONE', #369, #1008, #1138, .T. ) ;
#669 = CARTESIAN_POINT ( 'NONE',  ( -5.650000000000005684, 5.649999999999994138, 6.000000000000001776 ) ) ;
#670 = DIRECTION ( 'NONE',  ( -0.000000000000000000, 1.000000000000000000, -1.949684284958172601E-16 ) ) ;
#671 = ORIENTED_EDGE ( 'NONE', *, *, #1041, .T. ) ;
#672 = ORIENTED_EDGE ( 'NONE', *, *, #191, .T. ) ;
#673 = DIRECTION ( 'NONE',  ( -0.000000000000000000, -0.000000000000000000, 1.000000000000000000 ) ) ;
#674 = CARTESIAN_POINT ( 'NONE',  ( -34.95000000000000995, 5.649999999999994138, 0.000000000000000000 ) ) ;
#675 = EDGE_CURVE ( 'NONE', #167, #218, #175, .T. ) ;
#676 = ORIENTED_EDGE ( 'NONE', *, *, #345, .F. ) ;
#677 = VERTEX_POINT ( 'NONE', #442 ) ;
#678 = DIRECTION ( 'NONE',  ( 0.000000000000000000, 0.000000000000000000, 1.000000000000000000 ) ) ;
#679 = CARTESIAN_POINT ( 'NONE',  ( -42.29999999999999716, 42.29999999999999005, 0.000000000000000000 ) ) ;
#680 = LINE ( 'NONE', #956, #1029 ) ;
#681 = VECTOR ( 'NONE', #569, 1000.000000000000000 ) ;
#682 = VECTOR ( 'NONE', #713, 1000.000000000000000 ) ;
#683 = ORIENTED_EDGE ( 'NONE', *, *, #868, .T. ) ;
#684 = AXIS2_PLACEMENT_3D ( 'NONE', #783, #980, #446 ) ;
#685 = CARTESIAN_POINT ( 'NONE',  ( -42.29999999999999716, -11.85000000000001386, -32.00000000000000000 ) ) ;
#686 = DIRECTION ( 'NONE',  ( 0.000000000000000000, 0.000000000000000000, 1.000000000000000000 ) ) ;
#687 = FACE_OUTER_BOUND ( 'NONE', #1112, .T. ) ;
#688 = LINE ( 'NONE', #68, #7 ) ;
#689 = ORIENTED_EDGE ( 'NONE', *, *, #173, .T. ) ;
#690 = ADVANCED_FACE ( 'NONE', ( #607 ), #691, .T. ) ;
#691 = PLANE ( 'NONE',  #754 ) ;
#692 = DIRECTION ( 'NONE',  ( -0.000000000000000000, -0.000000000000000000, 1.000000000000000000 ) ) ;
#693 = FACE_OUTER_BOUND ( 'NONE', #835, .T. ) ;
#694 = CARTESIAN_POINT ( 'NONE',  ( -4.278949326796114140E-32, -11.85000000000001386, -32.00000000000000000 ) ) ;
#695 = VERTEX_POINT ( 'NONE', #532 ) ;
#696 = ADVANCED_FACE ( 'NONE', ( #424 ), #558, .F. ) ;
#697 = CARTESIAN_POINT ( 'NONE',  ( -6.229999999999896509, 57.04999999999998295, 45.62016652059595856 ) ) ;
#698 = LINE ( 'NONE', #161, #940 ) ;
#699 = LINE ( 'NONE', #365, #63 ) ;
#700 = AXIS2_PLACEMENT_3D ( 'NONE', #1130, #869, #435 ) ;
#701 = VERTEX_POINT ( 'NONE', #685 ) ;
#702 = AXIS2_PLACEMENT_3D ( 'NONE', #763, #749, #828 ) ;
#703 = DIRECTION ( 'NONE',  ( 0.000000000000000000, 0.000000000000000000, 1.000000000000000000 ) ) ;
#704 = ADVANCED_FACE ( 'NONE', ( #603 ), #953, .F. ) ;
#705 = CARTESIAN_POINT ( 'NONE',  ( -42.29999999999999716, 1.527422417919623873E-31, -32.00000000000000000 ) ) ;
#706 = CARTESIAN_POINT ( 'NONE',  ( 1.527422417919623873E-31, 42.29999999999999716, 6.000000000000000000 ) ) ;
#707 = EDGE_LOOP ( 'NONE', ( #144, #527, #566, #37 ) ) ;
#708 = CARTESIAN_POINT ( 'NONE',  ( -42.29999999999999716, -15.85000000000001386, -67.00000000000000000 ) ) ;
#709 = ADVANCED_FACE ( 'NONE', ( #461 ), #810, .T. ) ;
#710 = ORIENTED_EDGE ( 'NONE', *, *, #337, .F. ) ;
#711 = CARTESIAN_POINT ( 'NONE',  ( 0.000000000000000000, 57.04999999999999005, 56.00000000000000000 ) ) ;
#712 = LINE ( 'NONE', #1154, #642 ) ;
#713 = DIRECTION ( 'NONE',  ( -0.000000000000000000, 1.000000000000000000, -1.949684284958172601E-16 ) ) ;
#714 = VERTEX_POINT ( 'NONE', #131 ) ;
#715 = DIRECTION ( 'NONE',  ( 0.000000000000000000, 0.5150380749100557098, 0.8571673007021114454 ) ) ;
#716 = VECTOR ( 'NONE', #347, 1000.000000000000000 ) ;
#717 = CIRCLE ( 'NONE', #870, 50.00000000000000000 ) ;
#718 = AXIS2_PLACEMENT_3D ( 'NONE', #859, #59, #747 ) ;
#719 = LINE ( 'NONE', #550, #681 ) ;
#720 = DIRECTION ( 'NONE',  ( -0.000000000000000000, 1.000000000000000000, -1.949684284958172601E-16 ) ) ;
#721 = VERTEX_POINT ( 'NONE', #26 ) ;
#722 = DIRECTION ( 'NONE',  ( 1.000000000000000000, -3.610927701937645169E-33, 0.000000000000000000 ) ) ;
#723 = EDGE_CURVE ( 'NONE', #216, #271, #389, .T. ) ;
#724 = DIRECTION ( 'NONE',  ( 1.000000000000000000, 0.000000000000000000, 0.000000000000000000 ) ) ;
#725 = PLANE ( 'NONE',  #737 ) ;
#726 = VERTEX_POINT ( 'NONE', #851 ) ;
#727 = DIRECTION ( 'NONE',  ( 0.000000000000000000, 0.000000000000000000, -1.000000000000000000 ) ) ;
#728 = ORIENTED_EDGE ( 'NONE', *, *, #60, .F. ) ;
#729 = EDGE_CURVE ( 'NONE', #1018, #991, #1003, .T. ) ;
#730 = ADVANCED_FACE ( 'NONE', ( #393 ), #499, .T. ) ;
#731 = LINE ( 'NONE', #470, #462 ) ;
#732 = CARTESIAN_POINT ( 'NONE',  ( 0.000000000000000000, 0.000000000000000000, 0.000000000000000000 ) ) ;
#733 = VERTEX_POINT ( 'NONE', #126 ) ;
#734 = CIRCLE ( 'NONE', #910, 1.699999999999993072 ) ;
#735 = CARTESIAN_POINT ( 'NONE',  ( -42.29999999999999716, -15.85000000000001386, 8.000000000000000000 ) ) ;
#736 = LINE ( 'NONE', #1090, #388 ) ;
#737 = AXIS2_PLACEMENT_3D ( 'NONE', #650, #903, #815 ) ;
#738 = VERTEX_POINT ( 'NONE', #1009 ) ;
#739 = ORIENTED_EDGE ( 'NONE', *, *, #675, .T. ) ;
#740 = DIRECTION ( 'NONE',  ( 0.000000000000000000, 0.000000000000000000, 1.000000000000000000 ) ) ;
#741 = DIRECTION ( 'NONE',  ( 0.000000000000000000, 1.000000000000000000, 0.000000000000000000 ) ) ;
#742 = ADVANCED_FACE ( 'NONE', ( #137 ), #744, .T. ) ;
#743 = ORIENTED_EDGE ( 'NONE', *, *, #617, .T. ) ;
#744 = PLANE ( 'NONE',  #540 ) ;
#745 = ORIENTED_EDGE ( 'NONE', *, *, #1019, .F. ) ;
#746 = CARTESIAN_POINT ( 'NONE',  ( -3.950000000000021050, 36.64999999999999858, 0.000000000000000000 ) ) ;
#747 = DIRECTION ( 'NONE',  ( 1.000000000000000000, 0.000000000000000000, 0.000000000000000000 ) ) ;
#748 = EDGE_LOOP ( 'NONE', ( #710, #806, #881 ) ) ;
#749 = DIRECTION ( 'NONE',  ( 0.000000000000000000, 0.000000000000000000, -1.000000000000000000 ) ) ;
#750 = EDGE_LOOP ( 'NONE', ( #484, #300, #556, #330 ) ) ;
#751 = EDGE_CURVE ( 'NONE', #399, #1040, #943, .T. ) ;
#752 = CARTESIAN_POINT ( 'NONE',  ( -6.229999999999896509, 53.04999999999998295, 43.92016652059596282 ) ) ;
#753 = CARTESIAN_POINT ( 'NONE',  ( 0.000000000000000000, 0.000000000000000000, 8.000000000000000000 ) ) ;
#754 = AXIS2_PLACEMENT_3D ( 'NONE', #795, #332, #1054 ) ;
#755 = ORIENTED_EDGE ( 'NONE', *, *, #87, .F. ) ;
#756 = CIRCLE ( 'NONE', #29, 1.699999999999986189 ) ;
#757 = DIRECTION ( 'NONE',  ( 0.000000000000000000, 0.000000000000000000, -1.000000000000000000 ) ) ;
#758 = ORIENTED_EDGE ( 'NONE', *, *, #284, .T. ) ;
#759 = EDGE_CURVE ( 'NONE', #394, #573, #1017, .T. ) ;
#760 = CARTESIAN_POINT ( 'NONE',  ( 0.000000000000000000, 42.29999999999999005, 8.000000000000000000 ) ) ;
#761 = CARTESIAN_POINT ( 'NONE',  ( -4.278949326796114140E-32, -11.85000000000001386, -67.00000000000000000 ) ) ;
#762 = ORIENTED_EDGE ( 'NONE', *, *, #952, .T. ) ;
#763 = CARTESIAN_POINT ( 'NONE',  ( -42.29999999999999716, 1.527422417919623873E-31, -32.00000000000000000 ) ) ;
#764 = ORIENTED_EDGE ( 'NONE', *, *, #221, .T. ) ;
#765 = CARTESIAN_POINT ( 'NONE',  ( -42.29999999999999716, 57.04999999999999005, 56.00000000000000000 ) ) ;
#766 = LINE ( 'NONE', #147, #1072 ) ;
#767 = ADVANCED_FACE ( 'NONE', ( #95 ), #458, .F. ) ;
#768 = CARTESIAN_POINT ( 'NONE',  ( -36.52999999999999403, 52.02853694765313008, 43.92016652059596282 ) ) ;
#769 = ADVANCED_BREP_SHAPE_REPRESENTATION ( 'ELP-0062', ( #263, #165 ), #502 ) ;
#770 = VERTEX_POINT ( 'NONE', #950 ) ;
#771 = DIRECTION ( 'NONE',  ( -0.000000000000000000, 1.000000000000000000, -1.949684284958172601E-16 ) ) ;
#772 = DIRECTION ( 'NONE',  ( -0.000000000000000000, 1.000000000000000000, -1.949684284958172601E-16 ) ) ;
#773 = CYLINDRICAL_SURFACE ( 'NONE', #13, 1.699999999999993072 ) ;
#774 = CARTESIAN_POINT ( 'NONE',  ( -36.52999999999999403, 53.04999999999998295, 42.22016652059596709 ) ) ;
#775 = AXIS2_PLACEMENT_3D ( 'NONE', #1055, #255, #882 ) ;
#776 = EDGE_LOOP ( 'NONE', ( #86, #995 ) ) ;
#777 = AXIS2_PLACEMENT_3D ( 'NONE', #799, #720, #1062 ) ;
#778 = DIRECTION ( 'NONE',  ( 1.000000000000000000, 0.000000000000000000, 0.000000000000000000 ) ) ;
#779 = FACE_BOUND ( 'NONE', #412, .T. ) ;
#780 = EDGE_CURVE ( 'NONE', #399, #216, #55, .T. ) ;
#781 = ORIENTED_EDGE ( 'NONE', *, *, #1041, .F. ) ;
#782 = DIRECTION ( 'NONE',  ( -0.000000000000000000, -0.000000000000000000, 1.000000000000000000 ) ) ;
#783 = CARTESIAN_POINT ( 'NONE',  ( 0.000000000000000000, 42.29999999999999005, 6.000000000000000000 ) ) ;
#784 = DIRECTION ( 'NONE',  ( -0.000000000000000000, -0.000000000000000000, 1.000000000000000000 ) ) ;
#785 = DIRECTION ( 'NONE',  ( 0.000000000000000000, -0.000000000000000000, 1.000000000000000000 ) ) ;
#786 = ORIENTED_EDGE ( 'NONE', *, *, #413, .T. ) ;
#787 = CARTESIAN_POINT ( 'NONE',  ( -36.65000000000000568, 36.64999999999999858, 6.000000000000001776 ) ) ;
#788 =( NAMED_UNIT ( * ) SI_UNIT ( $, .STERADIAN. ) SOLID_ANGLE_UNIT ( ) );
#789 = DIRECTION ( 'NONE',  ( -0.000000000000000000, 1.000000000000000000, -1.949684284958172601E-16 ) ) ;
#790 = DIRECTION ( 'NONE',  ( 1.000000000000000000, 0.000000000000000000, 0.000000000000000000 ) ) ;
#791 = VECTOR ( 'NONE', #76, 1000.000000000000000 ) ;
#792 = CIRCLE ( 'NONE', #497, 1.700000000000000178 ) ;
#793 = ORIENTED_EDGE ( 'NONE', *, *, #897, .T. ) ;
#794 = VECTOR ( 'NONE', #118, 1000.000000000000000 ) ;
#795 = CARTESIAN_POINT ( 'NONE',  ( 0.000000000000000000, 42.29999999999999005, 6.000000000000000000 ) ) ;
#796 = ADVANCED_FACE ( 'NONE', ( #861 ), #1088, .F. ) ;
#797 = CARTESIAN_POINT ( 'NONE',  ( -36.65000000000000568, 36.64999999999999858, 6.000000000000000000 ) ) ;
#798 = DIRECTION ( 'NONE',  ( -0.000000000000000000, 1.000000000000000000, -1.949684284958172601E-16 ) ) ;
#799 = CARTESIAN_POINT ( 'NONE',  ( -36.52999999999999403, 53.04999999999998295, 24.86016652059597121 ) ) ;
#800 = ORIENTED_EDGE ( 'NONE', *, *, #668, .T. ) ;
#801 = DIRECTION ( 'NONE',  ( -0.000000000000000000, 1.000000000000000000, -1.949684284958172601E-16 ) ) ;
#802 = FILL_AREA_STYLE ('',( #894 ) ) ;
#803 = CARTESIAN_POINT ( 'NONE',  ( -36.52999999999999403, 53.04999999999998295, 43.92016652059596282 ) ) ;
#804 = ORIENTED_EDGE ( 'NONE', *, *, #1153, .T. ) ;
#805 = FACE_OUTER_BOUND ( 'NONE', #321, .T. ) ;
#806 = ORIENTED_EDGE ( 'NONE', *, *, #121, .T. ) ;
#807 = LINE ( 'NONE', #760, #498 ) ;
#808 = ORIENTED_EDGE ( 'NONE', *, *, #1121, .F. ) ;
#809 = CARTESIAN_POINT ( 'NONE',  ( -36.52999999999999403, 53.04999999999998295, 26.56016652059597050 ) ) ;
#810 = PLANE ( 'NONE',  #702 ) ;
#811 = CIRCLE ( 'NONE', #237, 1.699999999999987965 ) ;
#812 = CIRCLE ( 'NONE', #1149, 1.700000000000000178 ) ;
#813 = VECTOR ( 'NONE', #64, 1000.000000000000000 ) ;
#814 = CARTESIAN_POINT ( 'NONE',  ( -36.52999999999999403, 57.04999999999998295, 43.92016652059596282 ) ) ;
#815 = DIRECTION ( 'NONE',  ( -1.000000000000000000, 0.000000000000000000, 0.000000000000000000 ) ) ;
#816 = ORIENTED_EDGE ( 'NONE', *, *, #198, .T. ) ;
#817 = CARTESIAN_POINT ( 'NONE',  ( -6.229999999999896509, 53.04999999999998295, 42.22016652059596709 ) ) ;
#818 = EDGE_CURVE ( 'NONE', #664, #657, #625, .T. ) ;
#819 = ORIENTED_EDGE ( 'NONE', *, *, #129, .F. ) ;
#820 = EDGE_CURVE ( 'NONE', #25, #606, #1032, .T. ) ;
#821 = FACE_OUTER_BOUND ( 'NONE', #748, .T. ) ;
#822 = LINE ( 'NONE', #21, #120 ) ;
#823 = EDGE_LOOP ( 'NONE', ( #871, #487, #762 ) ) ;
#824 = EDGE_CURVE ( 'NONE', #213, #440, #276, .T. ) ;
#825 = DIRECTION ( 'NONE',  ( 0.000000000000000000, 0.000000000000000000, 1.000000000000000000 ) ) ;
#826 = CARTESIAN_POINT ( 'NONE',  ( -42.29999999999999716, 1.527422417919623873E-31, -32.00000000000000000 ) ) ;
#827 = EDGE_LOOP ( 'NONE', ( #500, #1059 ) ) ;
#828 = DIRECTION ( 'NONE',  ( -1.000000000000000000, 0.000000000000000000, -0.000000000000000000 ) ) ;
#829 = VERTEX_POINT ( 'NONE', #286 ) ;
#830 = STYLED_ITEM ( 'NONE', ( #90 ), #263 ) ;
#831 = EDGE_CURVE ( 'NONE', #517, #733, #944, .T. ) ;
#832 = AXIS2_PLACEMENT_3D ( 'NONE', #327, #122, #58 ) ;
#833 = LINE ( 'NONE', #390, #312 ) ;
#834 = CYLINDRICAL_SURFACE ( 'NONE', #1150, 50.00000000000000000 ) ;
#835 = EDGE_LOOP ( 'NONE', ( #42, #840, #243, #196 ) ) ;
#836 = DIRECTION ( 'NONE',  ( -0.000000000000000000, 0.000000000000000000, -1.000000000000000000 ) ) ;
#837 = ORIENTED_EDGE ( 'NONE', *, *, #437, .F. ) ;
#838 = FACE_OUTER_BOUND ( 'NONE', #1004, .T. ) ;
#839 = PLANE ( 'NONE',  #579 ) ;
#840 = ORIENTED_EDGE ( 'NONE', *, *, #824, .F. ) ;
#841 = ORIENTED_EDGE ( 'NONE', *, *, #723, .F. ) ;
#842 = DIRECTION ( 'NONE',  ( -0.000000000000000000, 1.000000000000000000, -1.949684284958172601E-16 ) ) ;
#843 = FACE_OUTER_BOUND ( 'NONE', #856, .T. ) ;
#844 = ORIENTED_EDGE ( 'NONE', *, *, #66, .T. ) ;
#845 = ORIENTED_EDGE ( 'NONE', *, *, #729, .T. ) ;
#846 = AXIS2_PLACEMENT_3D ( 'NONE', #260, #798, #341 ) ;
#847 = CARTESIAN_POINT ( 'NONE',  ( -36.52999999999999403, 57.04999999999998295, 45.62016652059595856 ) ) ;
#848 = DIRECTION ( 'NONE',  ( -0.000000000000000000, 1.000000000000000000, -1.949684284958172601E-16 ) ) ;
#849 = CIRCLE ( 'NONE', #367, 1.699999999999993072 ) ;
#850 = ORIENTED_EDGE ( 'NONE', *, *, #87, .T. ) ;
#851 = CARTESIAN_POINT ( 'NONE',  ( -42.29999999999999716, 57.04999999999999005, 56.00000000000000000 ) ) ;
#852 = ORIENTED_EDGE ( 'NONE', *, *, #524, .F. ) ;
#853 = DIRECTION ( 'NONE',  ( -1.000000000000000000, 3.610927701937645169E-33, 0.000000000000000000 ) ) ;
#854 = CARTESIAN_POINT ( 'NONE',  ( -5.650000000000009237, 36.64999999999999858, 0.000000000000000000 ) ) ;
#855 = CARTESIAN_POINT ( 'NONE',  ( -36.52999999999999403, 53.04999999999998295, 43.92016652059596282 ) ) ;
#856 = EDGE_LOOP ( 'NONE', ( #43, #548, #895, #951 ) ) ;
#857 = ADVANCED_FACE ( 'NONE', ( #15 ), #1080, .F. ) ;
#858 = CYLINDRICAL_SURFACE ( 'NONE', #832, 1.699999999999996625 ) ;
#859 = CARTESIAN_POINT ( 'NONE',  ( -5.650000000000005684, 5.649999999999994138, 0.000000000000000000 ) ) ;
#860 = DIRECTION ( 'NONE',  ( 1.000000000000000000, 1.640400450096271510E-16, 0.000000000000000000 ) ) ;
#861 = FACE_OUTER_BOUND ( 'NONE', #593, .T. ) ;
#862 = UNCERTAINTY_MEASURE_WITH_UNIT (LENGTH_MEASURE( 1.000000000000000082E-05 ), #65, 'distance_accuracy_value', 'NONE');
#863 = ORIENTED_EDGE ( 'NONE', *, *, #145, .T. ) ;
#864 = DIRECTION ( 'NONE',  ( 1.000000000000000000, 0.000000000000000000, 0.000000000000000000 ) ) ;
#865 = DIRECTION ( 'NONE',  ( 0.000000000000000000, -0.6438052615892855268, 0.7651893786180985479 ) ) ;
#866 = ADVANCED_FACE ( 'NONE', ( #396, #206, #281, #656, #99 ), #1007, .F. ) ;
#867 = DIRECTION ( 'NONE',  ( -0.000000000000000000, -0.000000000000000000, 1.000000000000000000 ) ) ;
#868 = EDGE_CURVE ( 'NONE', #33, #203, #215, .T. ) ;
#869 = DIRECTION ( 'NONE',  ( -0.000000000000000000, 1.000000000000000000, -1.949684284958172601E-16 ) ) ;
#870 = AXIS2_PLACEMENT_3D ( 'NONE', #1020, #853, #1024 ) ;
#871 = ORIENTED_EDGE ( 'NONE', *, *, #101, .F. ) ;
#872 = AXIS2_PLACEMENT_3D ( 'NONE', #1014, #848, #599 ) ;
#873 = DIRECTION ( 'NONE',  ( 0.000000000000000000, 0.000000000000000000, 1.000000000000000000 ) ) ;
#874 = DIRECTION ( 'NONE',  ( 1.000000000000000000, 0.000000000000000000, 0.000000000000000000 ) ) ;
#875 = CARTESIAN_POINT ( 'NONE',  ( -7.349999999999998757, 36.64999999999999858, 6.000000000000001776 ) ) ;
#876 = DIRECTION ( 'NONE',  ( 0.000000000000000000, 1.949684284958172601E-16, 1.000000000000000000 ) ) ;
#877 = ADVANCED_FACE ( 'NONE', ( #486 ), #839, .T. ) ;
#878 = ORIENTED_EDGE ( 'NONE', *, *, #516, .T. ) ;
#879 = CARTESIAN_POINT ( 'NONE',  ( -36.52999999999999403, 53.04999999999998295, 26.56016652059597050 ) ) ;
#880 = CARTESIAN_POINT ( 'NONE',  ( -6.229999999999896509, 53.04999999999998295, 42.22016652059596709 ) ) ;
#881 = ORIENTED_EDGE ( 'NONE', *, *, #824, .T. ) ;
#882 = DIRECTION ( 'NONE',  ( -3.610927701937645169E-33, -1.000000000000000000, 0.000000000000000000 ) ) ;
#883 = CARTESIAN_POINT ( 'NONE',  ( 0.000000000000000000, 0.000000000000000000, -32.00000000000000000 ) ) ;
#884 = CARTESIAN_POINT ( 'NONE',  ( -5.650000000000009237, 36.64999999999999858, 0.000000000000000000 ) ) ;
#885 = DIRECTION ( 'NONE',  ( 0.000000000000000000, 0.000000000000000000, 1.000000000000000000 ) ) ;
#886 = VECTOR ( 'NONE', #195, 1000.000000000000000 ) ;
#887 = CIRCLE ( 'NONE', #385, 1.699999999999993072 ) ;
#888 = ORIENTED_EDGE ( 'NONE', *, *, #507, .T. ) ;
#889 = AXIS2_PLACEMENT_3D ( 'NONE', #444, #892, #873 ) ;
#890 = CIRCLE ( 'NONE', #541, 1.699999999999989742 ) ;
#891 = ADVANCED_FACE ( 'NONE', ( #993 ), #384, .T. ) ;
#892 = DIRECTION ( 'NONE',  ( -0.000000000000000000, 1.000000000000000000, -1.949684284958172601E-16 ) ) ;
#893 = CARTESIAN_POINT ( 'NONE',  ( -5.650000000000009237, 36.64999999999999858, 6.000000000000001776 ) ) ;
#894 = FILL_AREA_STYLE_COLOUR ( '', #423 ) ;
#895 = ORIENTED_EDGE ( 'NONE', *, *, #904, .T. ) ;
#896 = LINE ( 'NONE', #809, #907 ) ;
#897 = EDGE_CURVE ( 'NONE', #701, #282, #988, .T. ) ;
#898 = CARTESIAN_POINT ( 'NONE',  ( -42.29999999999999716, -15.85000000000001386, 8.000000000000000000 ) ) ;
#899 = VERTEX_POINT ( 'NONE', #551 ) ;
#900 = CYLINDRICAL_SURFACE ( 'NONE', #402, 1.699999999999993072 ) ;
#901 = FACE_OUTER_BOUND ( 'NONE', #472, .T. ) ;
#902 = ADVANCED_FACE ( 'NONE', ( #471 ), #725, .T. ) ;
#903 = DIRECTION ( 'NONE',  ( -0.000000000000000000, 0.000000000000000000, -1.000000000000000000 ) ) ;
#904 = EDGE_CURVE ( 'NONE', #606, #517, #822, .T. ) ;
#905 = ORIENTED_EDGE ( 'NONE', *, *, #337, .T. ) ;
#906 = PLANE ( 'NONE',  #421 ) ;
#907 = VECTOR ( 'NONE', #715, 1000.000000000000000 ) ;
#908 =( GEOMETRIC_REPRESENTATION_CONTEXT ( 3 ) GLOBAL_UNCERTAINTY_ASSIGNED_CONTEXT ( ( #862 ) ) GLOBAL_UNIT_ASSIGNED_CONTEXT ( ( #65, #528, #630 ) ) REPRESENTATION_CONTEXT ( 'NONE', 'WORKASPACE' ) );
#909 = VERTEX_POINT ( 'NONE', #1001 ) ;
#910 = AXIS2_PLACEMENT_3D ( 'NONE', #250, #70, #1139 ) ;
#911 = APPLICATION_CONTEXT ( 'automotive_design' ) ;
#912 = AXIS2_PLACEMENT_3D ( 'NONE', #1043, #692, #874 ) ;
#913 = DIRECTION ( 'NONE',  ( -0.000000000000000000, -0.000000000000000000, 1.000000000000000000 ) ) ;
#914 = DIRECTION ( 'NONE',  ( -0.000000000000000000, 1.000000000000000000, -1.949684284958172601E-16 ) ) ;
#915 = ORIENTED_EDGE ( 'NONE', *, *, #820, .F. ) ;
#916 = ADVANCED_FACE ( 'NONE', ( #291 ), #998, .F. ) ;
#917 = DIRECTION ( 'NONE',  ( 0.000000000000000000, 0.000000000000000000, 1.000000000000000000 ) ) ;
#918 = DIRECTION ( 'NONE',  ( -0.000000000000000000, -0.000000000000000000, 1.000000000000000000 ) ) ;
#919 = ORIENTED_EDGE ( 'NONE', *, *, #145, .F. ) ;
#920 = EDGE_CURVE ( 'NONE', #1040, #899, #736, .T. ) ;
#921 = ORIENTED_EDGE ( 'NONE', *, *, #113, .F. ) ;
#922 = CYLINDRICAL_SURFACE ( 'NONE', #443, 1.699999999999993072 ) ;
#923 = CARTESIAN_POINT ( 'NONE',  ( -34.95000000000002416, 36.64999999999999858, 6.000000000000001776 ) ) ;
#924 = VERTEX_POINT ( 'NONE', #570 ) ;
#925 = VERTEX_POINT ( 'NONE', #923 ) ;
#926 = AXIS2_PLACEMENT_3D ( 'NONE', #814, #1089, #917 ) ;
#927 = CARTESIAN_POINT ( 'NONE',  ( -5.650000000000005684, 5.649999999999994138, 0.000000000000000000 ) ) ;
#928 = CARTESIAN_POINT ( 'NONE',  ( -36.52999999999999403, 53.04999999999998295, 24.86016652059597121 ) ) ;
#929 = VECTOR ( 'NONE', #200, 1000.000000000000000 ) ;
#930 = ORIENTED_EDGE ( 'NONE', *, *, #457, .T. ) ;
#931 = VERTEX_POINT ( 'NONE', #115 ) ;
#932 = FACE_OUTER_BOUND ( 'NONE', #567, .T. ) ;
#933 = ORIENTED_EDGE ( 'NONE', *, *, #987, .T. ) ;
#934 = EDGE_LOOP ( 'NONE', ( #837, #354, #930, #676 ) ) ;
#935 = CARTESIAN_POINT ( 'NONE',  ( -38.34999999999999432, 36.64999999999999858, 6.000000000000000000 ) ) ;
#936 = LINE ( 'NONE', #1025, #813 ) ;
#937 = ADVANCED_FACE ( 'NONE', ( #479 ), #834, .F. ) ;
#938 = EDGE_LOOP ( 'NONE', ( #91, #1081, #1102, #804 ) ) ;
#939 = ORIENTED_EDGE ( 'NONE', *, *, #675, .F. ) ;
#940 = VECTOR ( 'NONE', #867, 1000.000000000000000 ) ;
#941 = LINE ( 'NONE', #222, #465 ) ;
#942 = DIRECTION ( 'NONE',  ( 0.000000000000000000, -0.000000000000000000, 1.000000000000000000 ) ) ;
#943 = CIRCLE ( 'NONE', #28, 50.00000000000000000 ) ;
#944 = CIRCLE ( 'NONE', #646, 1.699999999999993072 ) ;
#945 = CARTESIAN_POINT ( 'NONE',  ( -38.34999999999999432, 5.649999999999994138, 6.000000000000001776 ) ) ;
#946 = EDGE_LOOP ( 'NONE', ( #207, #626 ) ) ;
#947 = DIRECTION ( 'NONE',  ( -0.000000000000000000, -0.000000000000000000, 1.000000000000000000 ) ) ;
#948 = CARTESIAN_POINT ( 'NONE',  ( -6.229999999999899174, 53.04999999999998295, 24.86016652059597121 ) ) ;
#949 = PLANE ( 'NONE',  #555 ) ;
#950 = CARTESIAN_POINT ( 'NONE',  ( -42.29999999999999716, 0.000000000000000000, 0.000000000000000000 ) ) ;
#951 = ORIENTED_EDGE ( 'NONE', *, *, #831, .T. ) ;
#952 = EDGE_CURVE ( 'NONE', #606, #25, #239, .T. ) ;
#953 = CYLINDRICAL_SURFACE ( 'NONE', #1051, 1.699999999999993072 ) ;
#954 = DIRECTION ( 'NONE',  ( 0.000000000000000000, 0.000000000000000000, -1.000000000000000000 ) ) ;
#955 = DIRECTION ( 'NONE',  ( 1.000000000000000000, 0.000000000000000000, 0.000000000000000000 ) ) ;
#956 = CARTESIAN_POINT ( 'NONE',  ( -6.229999999999896509, 53.04999999999998295, 45.62016652059596566 ) ) ;
#957 = ORIENTED_EDGE ( 'NONE', *, *, #516, .F. ) ;
#958 = FACE_OUTER_BOUND ( 'NONE', #776, .T. ) ;
#959 = VECTOR ( 'NONE', #784, 1000.000000000000000 ) ;
#960 = EDGE_CURVE ( 'NONE', #909, #184, #661, .T. ) ;
#961 = AXIS2_PLACEMENT_3D ( 'NONE', #639, #297, #992 ) ;
#962 = CYLINDRICAL_SURFACE ( 'NONE', #383, 1.699999999999996625 ) ;
#963 = CARTESIAN_POINT ( 'NONE',  ( 0.000000000000000000, 57.04999999999999005, 56.00000000000000000 ) ) ;
#964 = CONICAL_SURFACE ( 'NONE', #961, 1.700000000000000178, 1.029744258676652979 ) ;
#965 = VECTOR ( 'NONE', #947, 1000.000000000000000 ) ;
#966 = VERTEX_POINT ( 'NONE', #323 ) ;
#967 = AXIS2_PLACEMENT_3D ( 'NONE', #640, #108, #645 ) ;
#968 = CARTESIAN_POINT ( 'NONE',  ( -36.64999999999999858, 5.649999999999994138, 6.000000000000001776 ) ) ;
#969 = CARTESIAN_POINT ( 'NONE',  ( -34.95000000000000995, 5.649999999999994138, 6.000000000000001776 ) ) ;
#970 = CARTESIAN_POINT ( 'NONE',  ( -3.950000000000021050, 36.64999999999999858, 6.000000000000000000 ) ) ;
#971 = SURFACE_SIDE_STYLE ('',( #616 ) ) ;
#972 = EDGE_CURVE ( 'NONE', #1093, #726, #936, .T. ) ;
#973 = ORIENTED_EDGE ( 'NONE', *, *, #972, .T. ) ;
#974 = ORIENTED_EDGE ( 'NONE', *, *, #38, .T. ) ;
#975 = DIRECTION ( 'NONE',  ( 3.610927701937645853E-33, 1.000000000000000000, -0.000000000000000000 ) ) ;
#976 = SURFACE_STYLE_USAGE ( .BOTH. , #971 ) ;
#977 = ORIENTED_EDGE ( 'NONE', *, *, #258, .T. ) ;
#978 = DIRECTION ( 'NONE',  ( 1.000000000000000000, 0.000000000000000000, 0.000000000000000000 ) ) ;
#979 = LINE ( 'NONE', #539, #1108 ) ;
#980 = DIRECTION ( 'NONE',  ( -0.000000000000000000, 0.000000000000000000, -1.000000000000000000 ) ) ;
#981 = DIRECTION ( 'NONE',  ( 0.000000000000000000, 0.7651893786180984369, 0.6438052615892855268 ) ) ;
#982 = ORIENTED_EDGE ( 'NONE', *, *, #552, .T. ) ;
#983 = CYLINDRICAL_SURFACE ( 'NONE', #557, 1.699999999999993072 ) ;
#984 = CARTESIAN_POINT ( 'NONE',  ( -36.52999999999999403, 57.04999999999998295, 42.22016652059597419 ) ) ;
#985 = ORIENTED_EDGE ( 'NONE', *, *, #1078, .F. ) ;
#986 = CARTESIAN_POINT ( 'NONE',  ( -42.29999999999999716, 0.000000000000000000, 0.000000000000000000 ) ) ;
#987 = EDGE_CURVE ( 'NONE', #218, #677, #1129, .T. ) ;
#988 = LINE ( 'NONE', #826, #929 ) ;
#989 = VERTEX_POINT ( 'NONE', #674 ) ;
#990 = DIRECTION ( 'NONE',  ( -0.000000000000000000, 1.000000000000000000, -1.949684284958172601E-16 ) ) ;
#991 = VERTEX_POINT ( 'NONE', #47 ) ;
#992 = DIRECTION ( 'NONE',  ( 0.000000000000000000, 0.000000000000000000, 1.000000000000000000 ) ) ;
#993 = FACE_OUTER_BOUND ( 'NONE', #707, .T. ) ;
#994 = ADVANCED_FACE ( 'NONE', ( #843 ), #1127, .F. ) ;
#995 = ORIENTED_EDGE ( 'NONE', *, *, #457, .F. ) ;
#996 = CIRCLE ( 'NONE', #333, 1.700000000000000178 ) ;
#997 = LINE ( 'NONE', #564, #538 ) ;
#998 = CYLINDRICAL_SURFACE ( 'NONE', #447, 1.699999999999987965 ) ;
#999 = VERTEX_POINT ( 'NONE', #53 ) ;
#1000 = CARTESIAN_POINT ( 'NONE',  ( -6.229999999999899174, 57.04999999999998295, 24.86016652059597121 ) ) ;
#1001 = CARTESIAN_POINT ( 'NONE',  ( -3.950000000000017941, 5.649999999999994138, 0.000000000000000000 ) ) ;
#1002 = ORIENTED_EDGE ( 'NONE', *, *, #363, .F. ) ;
#1003 = LINE ( 'NONE', #572, #794 ) ;
#1004 = EDGE_LOOP ( 'NONE', ( #132, #850, #658 ) ) ;
#1005 = ADVANCED_FACE ( 'NONE', ( #932 ), #233, .T. ) ;
#1006 = CARTESIAN_POINT ( 'NONE',  ( -6.229999999999899174, 53.04999999999998295, 24.86016652059597121 ) ) ;
#1007 = PLANE ( 'NONE',  #162 ) ;
#1008 = VERTEX_POINT ( 'NONE', #1101 ) ;
#1009 = CARTESIAN_POINT ( 'NONE',  ( -38.34999999999999432, 36.64999999999999858, 6.000000000000001776 ) ) ;
#1010 = EDGE_LOOP ( 'NONE', ( #755, #422, #1136 ) ) ;
#1011 = AXIS2_PLACEMENT_3D ( 'NONE', #77, #247, #416 ) ;
#1012 = EDGE_CURVE ( 'NONE', #282, #262, #766, .T. ) ;
#1013 = CIRCLE ( 'NONE', #612, 1.699999999999993072 ) ;
#1014 = CARTESIAN_POINT ( 'NONE',  ( -36.52999999999999403, 57.04999999999998295, 43.92016652059596282 ) ) ;
#1015 = AXIS2_PLACEMENT_3D ( 'NONE', #1095, #223, #246 ) ;
#1016 = ORIENTED_EDGE ( 'NONE', *, *, #349, .T. ) ;
#1017 = LINE ( 'NONE', #225, #682 ) ;
#1018 = VERTEX_POINT ( 'NONE', #335 ) ;
#1019 = EDGE_CURVE ( 'NONE', #262, #1018, #128, .T. ) ;
#1020 = CARTESIAN_POINT ( 'NONE',  ( 0.000000000000000000, -18.30800534819475445, 57.93954554967682924 ) ) ;
#1021 = DIRECTION ( 'NONE',  ( -0.000000000000000000, 1.000000000000000000, -1.949684284958172601E-16 ) ) ;
#1022 = EDGE_LOOP ( 'NONE', ( #781, #739, #933, #808 ) ) ;
#1023 = ORIENTED_EDGE ( 'NONE', *, *, #904, .F. ) ;
#1024 = DIRECTION ( 'NONE',  ( -3.610927701937645169E-33, -1.000000000000000000, 0.000000000000000000 ) ) ;
#1025 = CARTESIAN_POINT ( 'NONE',  ( 0.000000000000000000, 57.04999999999999005, 56.00000000000000000 ) ) ;
#1026 = ADVANCED_FACE ( 'NONE', ( #687 ), #515, .T. ) ;
#1027 = ORIENTED_EDGE ( 'NONE', *, *, #292, .T. ) ;
#1028 = ORIENTED_EDGE ( 'NONE', *, *, #324, .T. ) ;
#1029 = VECTOR ( 'NONE', #1033, 1000.000000000000000 ) ;
#1030 = DIRECTION ( 'NONE',  ( -0.000000000000000000, -0.000000000000000000, -1.000000000000000000 ) ) ;
#1031 = CARTESIAN_POINT ( 'NONE',  ( -42.29999999999999716, 13.88225773126951879, 19.68007661877190628 ) ) ;
#1032 = CIRCLE ( 'NONE', #368, 1.700000000000000178 ) ;
#1033 = DIRECTION ( 'NONE',  ( 0.000000000000000000, 0.5150380749100560429, 0.8571673007021112234 ) ) ;
#1034 = EDGE_CURVE ( 'NONE', #440, #22, #1110, .T. ) ;
#1035 = VERTEX_POINT ( 'NONE', #679 ) ;
#1036 = DIRECTION ( 'NONE',  ( -0.000000000000000000, -0.7651893786180983259, -0.6438052615892856378 ) ) ;
#1037 = PLANE ( 'NONE',  #775 ) ;
#1038 = CARTESIAN_POINT ( 'NONE',  ( -36.64999999999999858, 5.649999999999994138, 6.000000000000000000 ) ) ;
#1039 = FACE_OUTER_BOUND ( 'NONE', #360, .T. ) ;
#1040 = VERTEX_POINT ( 'NONE', #1031 ) ;
#1041 = EDGE_CURVE ( 'NONE', #167, #459, #204, .T. ) ;
#1042 = CARTESIAN_POINT ( 'NONE',  ( -5.723320407571171934E-32, -15.85000000000001386, 8.000000000000000000 ) ) ;
#1043 = CARTESIAN_POINT ( 'NONE',  ( -5.650000000000005684, 5.649999999999994138, 6.000000000000001776 ) ) ;
#1044 = CYLINDRICAL_SURFACE ( 'NONE', #627, 1.699999999999993072 ) ;
#1045 = LINE ( 'NONE', #143, #254 ) ;
#1046 = EDGE_LOOP ( 'NONE', ( #230, #1083 ) ) ;
#1047 = CLOSED_SHELL ( 'NONE', ( #476, #796, #704, #490, #266, #381, #136, #696, #1131, #615, #1084, #398, #587, #1, #124, #866, #857, #150, #916, #299, #690, #730, #902, #1114, #877, #89, #1026, #359, #405, #79, #994, #568, #767, #371, #212, #1005, #709, #742, #891, #408, #937 ) ) ;
#1048 = AXIS2_PLACEMENT_3D ( 'NONE', #14, #302, #20 ) ;
#1049 = LINE ( 'NONE', #984, #8 ) ;
#1050 = ORIENTED_EDGE ( 'NONE', *, *, #1063, .F. ) ;
#1051 = AXIS2_PLACEMENT_3D ( 'NONE', #513, #186, #93 ) ;
#1052 = VECTOR ( 'NONE', #504, 1000.000000000000000 ) ;
#1053 = ORIENTED_EDGE ( 'NONE', *, *, #18, .F. ) ;
#1054 = DIRECTION ( 'NONE',  ( -1.000000000000000000, 0.000000000000000000, 0.000000000000000000 ) ) ;
#1055 = CARTESIAN_POINT ( 'NONE',  ( 0.000000000000000000, 0.000000000000000000, 6.000000000000000000 ) ) ;
#1056 = APPLICATION_PROTOCOL_DEFINITION ( 'draft international standard', 'automotive_design', 1998, #2 ) ;
#1057 = CARTESIAN_POINT ( 'NONE',  ( 0.000000000000000000, 0.000000000000000000, 0.000000000000000000 ) ) ;
#1058 = ORIENTED_EDGE ( 'NONE', *, *, #633, .T. ) ;
#1059 = ORIENTED_EDGE ( 'NONE', *, *, #987, .F. ) ;
#1060 =( LENGTH_UNIT ( ) NAMED_UNIT ( * ) SI_UNIT ( .MILLI., .METRE. ) );
#1061 = CARTESIAN_POINT ( 'NONE',  ( -36.52999999999999403, 57.04999999999998295, 24.86016652059597121 ) ) ;
#1062 = DIRECTION ( 'NONE',  ( 0.000000000000000000, 0.000000000000000000, 1.000000000000000000 ) ) ;
#1063 = EDGE_CURVE ( 'NONE', #721, #664, #295, .T. ) ;
#1064 = ORIENTED_EDGE ( 'NONE', *, *, #307, .F. ) ;
#1065 = CARTESIAN_POINT ( 'NONE',  ( -42.29999999999999716, -15.85000000000001386, -67.00000000000000000 ) ) ;
#1066 = CIRCLE ( 'NONE', #846, 1.699999999999989742 ) ;
#1067 = MECHANICAL_DESIGN_GEOMETRIC_PRESENTATION_REPRESENTATION (  '', ( #830 ), #908 ) ;
#1068 = VERTEX_POINT ( 'NONE', #761 ) ;
#1069 = CARTESIAN_POINT ( 'NONE',  ( -6.229999999999899174, 57.04999999999998295, 23.16016652059597902 ) ) ;
#1070 = EDGE_CURVE ( 'NONE', #829, #991, #419, .T. ) ;
#1071 = AXIS2_PLACEMENT_3D ( 'NONE', #395, #673, #1119 ) ;
#1072 = VECTOR ( 'NONE', #41, 1000.000000000000000 ) ;
#1073 = EDGE_CURVE ( 'NONE', #701, #78, #586, .T. ) ;
#1074 = FACE_OUTER_BOUND ( 'NONE', #1022, .T. ) ;
#1075 = CARTESIAN_POINT ( 'NONE',  ( -42.29999999999999716, -15.85000000000001386, -67.00000000000000000 ) ) ;
#1076 = ORIENTED_EDGE ( 'NONE', *, *, #208, .F. ) ;
#1077 = CARTESIAN_POINT ( 'NONE',  ( -3.950000000000016165, 5.649999999999994138, 6.000000000000001776 ) ) ;
#1078 = EDGE_CURVE ( 'NONE', #314, #909, #316, .T. ) ;
#1079 = DIRECTION ( 'NONE',  ( 0.000000000000000000, 0.000000000000000000, 1.000000000000000000 ) ) ;
#1080 = CYLINDRICAL_SURFACE ( 'NONE', #967, 1.699999999999987965 ) ;
#1081 = ORIENTED_EDGE ( 'NONE', *, *, #173, .F. ) ;
#1082 = CARTESIAN_POINT ( 'NONE',  ( -6.229999999999900062, 52.02853694765313008, 24.86016652059597121 ) ) ;
#1083 = ORIENTED_EDGE ( 'NONE', *, *, #38, .F. ) ;
#1084 = ADVANCED_FACE ( 'NONE', ( #309 ), #773, .F. ) ;
#1085 = DIRECTION ( 'NONE',  ( 0.000000000000000000, -0.000000000000000000, 1.000000000000000000 ) ) ;
#1086 = DIRECTION ( 'NONE',  ( -0.000000000000000000, 1.000000000000000000, -1.949684284958172601E-16 ) ) ;
#1087 = EDGE_LOOP ( 'NONE', ( #845, #325, #50, #242, #277, #888, #1058, #641, #1099, #148, #432 ) ) ;
#1088 = CONICAL_SURFACE ( 'NONE', #777, 1.700000000000000178, 1.029744258676652979 ) ;
#1089 = DIRECTION ( 'NONE',  ( -0.000000000000000000, 1.000000000000000000, -1.949684284958172601E-16 ) ) ;
#1090 = CARTESIAN_POINT ( 'NONE',  ( 0.000000000000000000, 13.88225773126951701, 19.68007661877189918 ) ) ;
#1091 = EDGE_CURVE ( 'NONE', #677, #218, #890, .T. ) ;
#1092 = ORIENTED_EDGE ( 'NONE', *, *, #652, .F. ) ;
#1093 = VERTEX_POINT ( 'NONE', #711 ) ;
#1094 = FACE_OUTER_BOUND ( 'NONE', #938, .T. ) ;
#1095 = CARTESIAN_POINT ( 'NONE',  ( -36.52999999999999403, 53.04999999999998295, 43.92016652059596282 ) ) ;
#1096 = EDGE_LOOP ( 'NONE', ( #1123, #543 ) ) ;
#1097 = EDGE_CURVE ( 'NONE', #287, #636, #756, .T. ) ;
#1098 = CARTESIAN_POINT ( 'NONE',  ( -42.29999999999999716, -11.85000000000001386, -32.00000000000000000 ) ) ;
#1099 = ORIENTED_EDGE ( 'NONE', *, *, #18, .T. ) ;
#1100 = DIRECTION ( 'NONE',  ( -0.000000000000000000, -0.000000000000000000, 1.000000000000000000 ) ) ;
#1101 = CARTESIAN_POINT ( 'NONE',  ( -42.29999999999999716, 42.29999999999999005, 8.000000000000000000 ) ) ;
#1102 = ORIENTED_EDGE ( 'NONE', *, *, #780, .T. ) ;
#1103 = CARTESIAN_POINT ( 'NONE',  ( -42.29999999999999716, -18.30800534819475445, 57.93954554967682924 ) ) ;
#1104 = EDGE_CURVE ( 'NONE', #78, #262, #351, .T. ) ;
#1105 = ORIENTED_EDGE ( 'NONE', *, *, #121, .F. ) ;
#1106 = PRESENTATION_LAYER_ASSIGNMENT (  '', '', ( #830 ) ) ;
#1107 = VECTOR ( 'NONE', #1126, 1000.000000000000000 ) ;
#1108 = VECTOR ( 'NONE', #245, 1000.000000000000000 ) ;
#1109 = DIRECTION ( 'NONE',  ( 0.000000000000000000, 0.000000000000000000, 1.000000000000000000 ) ) ;
#1110 = LINE ( 'NONE', #401, #521 ) ;
#1111 = AXIS2_PLACEMENT_3D ( 'NONE', #797, #158, #1152 ) ;
#1112 = EDGE_LOOP ( 'NONE', ( #19, #467, #529, #973 ) ) ;
#1113 = ORIENTED_EDGE ( 'NONE', *, *, #11, .F. ) ;
#1114 = ADVANCED_FACE ( 'NONE', ( #958 ), #1134, .T. ) ;
#1115 = DIRECTION ( 'NONE',  ( 1.000000000000000000, 0.000000000000000000, 0.000000000000000000 ) ) ;
#1116 = CARTESIAN_POINT ( 'NONE',  ( -5.650000000000009237, 36.64999999999999858, 6.000000000000001776 ) ) ;
#1117 = ORIENTED_EDGE ( 'NONE', *, *, #11, .T. ) ;
#1118 = EDGE_LOOP ( 'NONE', ( #518, #454, #279 ) ) ;
#1119 = DIRECTION ( 'NONE',  ( 1.000000000000000000, 0.000000000000000000, 0.000000000000000000 ) ) ;
#1120 = DIRECTION ( 'NONE',  ( 1.000000000000000000, 0.000000000000000000, 0.000000000000000000 ) ) ;
#1121 = EDGE_CURVE ( 'NONE', #459, #677, #522, .T. ) ;
#1122 = CARTESIAN_POINT ( 'NONE',  ( -36.64999999999999858, 5.649999999999994138, 0.000000000000000000 ) ) ;
#1123 = ORIENTED_EDGE ( 'NONE', *, *, #1097, .T. ) ;
#1124 = AXIS2_PLACEMENT_3D ( 'NONE', #172, #61, #342 ) ;
#1125 = DIRECTION ( 'NONE',  ( 0.000000000000000000, 0.000000000000000000, 1.000000000000000000 ) ) ;
#1126 = DIRECTION ( 'NONE',  ( 3.610927701937645169E-33, 1.000000000000000000, 0.000000000000000000 ) ) ;
#1127 = CYLINDRICAL_SURFACE ( 'NONE', #872, 1.699999999999993072 ) ;
#1128 = VECTOR ( 'NONE', #511, 1000.000000000000000 ) ;
#1129 = CIRCLE ( 'NONE', #259, 1.699999999999989742 ) ;
#1130 = CARTESIAN_POINT ( 'NONE',  ( -36.52999999999999403, 57.04999999999998295, 24.86016652059597121 ) ) ;
#1131 = ADVANCED_FACE ( 'NONE', ( #614 ), #81, .F. ) ;
#1132 = ORIENTED_EDGE ( 'NONE', *, *, #1121, .T. ) ;
#1133 = DIRECTION ( 'NONE',  ( -0.000000000000000000, 1.000000000000000000, -1.949684284958172601E-16 ) ) ;
#1134 = PLANE ( 'NONE',  #684 ) ;
#1135 = FACE_BOUND ( 'NONE', #296, .T. ) ;
#1136 = ORIENTED_EDGE ( 'NONE', *, *, #594, .T. ) ;
#1137 = EDGE_CURVE ( 'NONE', #924, #657, #466, .T. ) ;
#1138 = LINE ( 'NONE', #1145, #611 ) ;
#1139 = DIRECTION ( 'NONE',  ( 0.000000000000000000, 0.000000000000000000, 1.000000000000000000 ) ) ;
#1140 = CARTESIAN_POINT ( 'NONE',  ( -36.65000000000000568, 36.64999999999999858, 0.000000000000000000 ) ) ;
#1141 = CARTESIAN_POINT ( 'NONE',  ( -6.229999999999899174, 53.04999999999998295, 26.56016652059597050 ) ) ;
#1142 = CARTESIAN_POINT ( 'NONE',  ( -36.52999999999999403, 53.04999999999998295, 42.22016652059596709 ) ) ;
#1143 = ORIENTED_EDGE ( 'NONE', *, *, #897, .F. ) ;
#1144 = EDGE_CURVE ( 'NONE', #184, #571, #105, .T. ) ;
#1145 = CARTESIAN_POINT ( 'NONE',  ( -42.29999999999999716, 42.29999999999999005, 8.000000000000000000 ) ) ;
#1146 = CARTESIAN_POINT ( 'NONE',  ( 0.000000000000000000, 0.000000000000000000, 0.000000000000000000 ) ) ;
#1147 = DIRECTION ( 'NONE',  ( 0.000000000000000000, 0.000000000000000000, 1.000000000000000000 ) ) ;
#1148 = ORIENTED_EDGE ( 'NONE', *, *, #163, .T. ) ;
#1149 = AXIS2_PLACEMENT_3D ( 'NONE', #488, #842, #678 ) ;
#1150 = AXIS2_PLACEMENT_3D ( 'NONE', #31, #391, #741 ) ;
#1151 = ORIENTED_EDGE ( 'NONE', *, *, #729, .F. ) ;
#1152 = DIRECTION ( 'NONE',  ( 1.000000000000000000, 0.000000000000000000, 0.000000000000000000 ) ) ;
#1153 = EDGE_CURVE ( 'NONE', #216, #695, #71, .T. ) ;
#1154 = CARTESIAN_POINT ( 'NONE',  ( -36.52999999999999403, 57.04999999999998295, 26.56016652059597050 ) ) ;
#1155 = ORIENTED_EDGE ( 'NONE', *, *, #526, .F. ) ;
#1156 = FACE_OUTER_BOUND ( 'NONE', #1087, .T. ) ;
ENDSEC;
END-ISO-10303-21;
