ISO-10303-21;
HEADER;
FILE_DESCRIPTION (( 'STEP AP214' ),
    '1' );
FILE_NAME ('ELP-0065.STEP',
    '2026-05-03T11:20:46',
    ( '' ),
    ( '' ),
    'SwSTEP 2.0',
    'SolidWorks 2024',
    '' );
FILE_SCHEMA (( 'AUTOMOTIVE_DESIGN' ));
ENDSEC;

DATA;
#1 = ORIENTED_EDGE ( 'NONE', *, *, #552, .F. ) ;
#2 = PLANE ( 'NONE',  #805 ) ;
#3 = VECTOR ( 'NONE', #852, 1000.000000000000114 ) ;
#4 = ORIENTED_EDGE ( 'NONE', *, *, #175, .F. ) ;
#5 = DIRECTION ( 'NONE',  ( -0.000000000000000000, 1.000000000000000000, -0.000000000000000000 ) ) ;
#6 = VERTEX_POINT ( 'NONE', #177 ) ;
#7 = EDGE_CURVE ( 'NONE', #916, #282, #543, .T. ) ;
#8 = DIRECTION ( 'NONE',  ( -1.000000000000000000, 0.000000000000000000, 0.000000000000000000 ) ) ;
#9 = ORIENTED_EDGE ( 'NONE', *, *, #735, .T. ) ;
#10 = PLANE ( 'NONE',  #165 ) ;
#11 = ORIENTED_EDGE ( 'NONE', *, *, #275, .T. ) ;
#12 = VECTOR ( 'NONE', #622, 1000.000000000000114 ) ;
#13 = VECTOR ( 'NONE', #319, 1000.000000000000000 ) ;
#14 =( NAMED_UNIT ( * ) PLANE_ANGLE_UNIT ( ) SI_UNIT ( $, .RADIAN. ) );
#15 = DIRECTION ( 'NONE',  ( 1.261617073437677752E-16, 0.7071067811865462405, 0.7071067811865489050 ) ) ;
#16 = DIRECTION ( 'NONE',  ( 0.000000000000000000, 1.000000000000000000, -0.000000000000000000 ) ) ;
#17 = ORIENTED_EDGE ( 'NONE', *, *, #305, .T. ) ;
#18 = ORIENTED_EDGE ( 'NONE', *, *, #1157, .T. ) ;
#19 = CARTESIAN_POINT ( 'NONE',  ( 106.9999999999999716, 51.97056274847695789, 87.68124086713191900 ) ) ;
#20 = AXIS2_PLACEMENT_3D ( 'NONE', #388, #201, #111 ) ;
#21 = LINE ( 'NONE', #843, #173 ) ;
#22 = CYLINDRICAL_SURFACE ( 'NONE', #455, 2.250000000000001776 ) ;
#23 = ADVANCED_FACE ( 'NONE', ( #653 ), #1124, .F. ) ;
#24 = ORIENTED_EDGE ( 'NONE', *, *, #581, .F. ) ;
#25 = CARTESIAN_POINT ( 'NONE',  ( -7.750000000000036415, 0.000000000000000000, 161.5439392393395792 ) ) ;
#26 = ORIENTED_EDGE ( 'NONE', *, *, #1180, .F. ) ;
#27 = EDGE_LOOP ( 'NONE', ( #504, #1109 ) ) ;
#28 = LINE ( 'NONE', #951, #1111 ) ;
#29 = CYLINDRICAL_SURFACE ( 'NONE', #870, 2.250000000000001776 ) ;
#30 = CYLINDRICAL_SURFACE ( 'NONE', #321, 9.999999999999989342 ) ;
#31 = ADVANCED_FACE ( 'NONE', ( #375 ), #29, .F. ) ;
#32 = ORIENTED_EDGE ( 'NONE', *, *, #208, .F. ) ;
#33 = FACE_OUTER_BOUND ( 'NONE', #624, .T. ) ;
#34 = ORIENTED_EDGE ( 'NONE', *, *, #610, .F. ) ;
#35 = VERTEX_POINT ( 'NONE', #866 ) ;
#36 = VECTOR ( 'NONE', #149, 1000.000000000000000 ) ;
#37 = DIRECTION ( 'NONE',  ( 0.000000000000000000, 0.000000000000000000, 1.000000000000000000 ) ) ;
#38 = AXIS2_PLACEMENT_3D ( 'NONE', #349, #618, #159 ) ;
#39 = DIRECTION ( 'NONE',  ( -0.000000000000000000, 1.000000000000000000, -0.000000000000000000 ) ) ;
#40 = CARTESIAN_POINT ( 'NONE',  ( 129.7500000000000853, 5.000000000000000000, 161.5439392393395508 ) ) ;
#41 = APPLICATION_CONTEXT ( 'automotive_design' ) ;
#42 = ORIENTED_EDGE ( 'NONE', *, *, #331, .F. ) ;
#43 = LINE ( 'NONE', #499, #129 ) ;
#44 = ORIENTED_EDGE ( 'NONE', *, *, #855, .F. ) ;
#45 = ADVANCED_FACE ( 'NONE', ( #1114 ), #287, .F. ) ;
#46 = PLANE ( 'NONE',  #940 ) ;
#47 = VECTOR ( 'NONE', #179, 1000.000000000000000 ) ;
#48 = CARTESIAN_POINT ( 'NONE',  ( 112.0000000000000000, 0.000000000000000000, 9.999999999999998224 ) ) ;
#49 = ORIENTED_EDGE ( 'NONE', *, *, #399, .T. ) ;
#50 = CARTESIAN_POINT ( 'NONE',  ( -7.750000000000036415, 5.000000000000000888, 163.7939392393395792 ) ) ;
#51 = ORIENTED_EDGE ( 'NONE', *, *, #540, .T. ) ;
#52 = EDGE_CURVE ( 'NONE', #986, #35, #567, .T. ) ;
#53 = DIRECTION ( 'NONE',  ( 0.000000000000000000, -0.000000000000000000, 1.000000000000000000 ) ) ;
#54 = EDGE_LOOP ( 'NONE', ( #438, #922, #426, #808 ) ) ;
#55 = FACE_BOUND ( 'NONE', #778, .T. ) ;
#56 = PLANE ( 'NONE',  #379 ) ;
#57 = CIRCLE ( 'NONE', #919, 9.999999999999984013 ) ;
#58 = AXIS2_PLACEMENT_3D ( 'NONE', #872, #791, #53 ) ;
#59 = ORIENTED_EDGE ( 'NONE', *, *, #175, .T. ) ;
#60 = DIRECTION ( 'NONE',  ( -0.000000000000000000, -0.7071067811865490160, 0.7071067811865460184 ) ) ;
#61 = DIRECTION ( 'NONE',  ( -1.000000000000000000, -0.000000000000000000, 0.000000000000000000 ) ) ;
#62 = ORIENTED_EDGE ( 'NONE', *, *, #380, .F. ) ;
#63 = EDGE_CURVE ( 'NONE', #745, #67, #474, .T. ) ;
#64 = DIRECTION ( 'NONE',  ( -0.000000000000000000, 1.000000000000000000, -0.000000000000000000 ) ) ;
#65 = APPLICATION_PROTOCOL_DEFINITION ( 'draft international standard', 'automotive_design', 1998, #41 ) ;
#66 = LINE ( 'NONE', #436, #689 ) ;
#67 = VERTEX_POINT ( 'NONE', #395 ) ;
#68 = CARTESIAN_POINT ( 'NONE',  ( 0.000000000000000000, -10.78427124746187893, 10.78427124746184163 ) ) ;
#69 = ORIENTED_EDGE ( 'NONE', *, *, #205, .T. ) ;
#70 = DIRECTION ( 'NONE',  ( -1.000000000000000000, -0.000000000000000000, -0.000000000000000000 ) ) ;
#71 = PLANE ( 'NONE',  #703 ) ;
#72 = ORIENTED_EDGE ( 'NONE', *, *, #126, .F. ) ;
#73 = DIRECTION ( 'NONE',  ( 0.000000000000000000, 0.7071067811865489050, -0.7071067811865462405 ) ) ;
#74 = VECTOR ( 'NONE', #928, 1000.000000000000114 ) ;
#75 = LINE ( 'NONE', #155, #517 ) ;
#76 = ADVANCED_FACE ( 'NONE', ( #299 ), #194, .F. ) ;
#77 = DIRECTION ( 'NONE',  ( -0.000000000000000000, 1.000000000000000000, -0.000000000000000000 ) ) ;
#78 = ORIENTED_EDGE ( 'NONE', *, *, #453, .F. ) ;
#79 = LINE ( 'NONE', #743, #741 ) ;
#80 = CIRCLE ( 'NONE', #1066, 2.250000000000001776 ) ;
#81 = CARTESIAN_POINT ( 'NONE',  ( 137.0000000000000000, 5.000000000000000000, -15.00000000000000000 ) ) ;
#82 = EDGE_CURVE ( 'NONE', #1095, #412, #218, .T. ) ;
#83 = FACE_OUTER_BOUND ( 'NONE', #1013, .T. ) ;
#84 = EDGE_CURVE ( 'NONE', #203, #960, #760, .T. ) ;
#85 = ORIENTED_EDGE ( 'NONE', *, *, #447, .T. ) ;
#86 = DIRECTION ( 'NONE',  ( -0.000000000000000000, 1.000000000000000000, -0.000000000000000000 ) ) ;
#87 = CARTESIAN_POINT ( 'NONE',  ( -7.750000000000036415, 5.000000000000000000, -10.00000000000001599 ) ) ;
#88 = ORIENTED_EDGE ( 'NONE', *, *, #109, .F. ) ;
#89 = DIRECTION ( 'NONE',  ( 0.000000000000000000, 0.000000000000000000, 1.000000000000000000 ) ) ;
#90 = EDGE_CURVE ( 'NONE', #141, #745, #1130, .T. ) ;
#91 = VECTOR ( 'NONE', #454, 1000.000000000000114 ) ;
#92 = VECTOR ( 'NONE', #541, 1000.000000000000000 ) ;
#93 = DIRECTION ( 'NONE',  ( -0.000000000000000000, 1.000000000000000000, -0.000000000000000000 ) ) ;
#94 = SURFACE_SIDE_STYLE ('',( #807 ) ) ;
#95 = EDGE_LOOP ( 'NONE', ( #519, #1174, #826, #850 ) ) ;
#96 = FACE_OUTER_BOUND ( 'NONE', #54, .T. ) ;
#97 = ORIENTED_EDGE ( 'NONE', *, *, #915, .F. ) ;
#98 = FACE_BOUND ( 'NONE', #660, .T. ) ;
#99 = ORIENTED_EDGE ( 'NONE', *, *, #983, .T. ) ;
#100 = DIRECTION ( 'NONE',  ( -1.000000000000000000, 0.000000000000000000, -1.826024711554533420E-16 ) ) ;
#101 = ORIENTED_EDGE ( 'NONE', *, *, #1105, .T. ) ;
#102 = DIRECTION ( 'NONE',  ( -1.000000000000000000, 0.000000000000000000, 0.000000000000000000 ) ) ;
#103 = DIRECTION ( 'NONE',  ( 0.000000000000000000, 0.7071067811865463515, 0.7071067811865487940 ) ) ;
#104 = PLANE ( 'NONE',  #609 ) ;
#105 = ORIENTED_EDGE ( 'NONE', *, *, #924, .T. ) ;
#106 = VERTEX_POINT ( 'NONE', #308 ) ;
#107 = VECTOR ( 'NONE', #60, 1000.000000000000114 ) ;
#108 = AXIS2_PLACEMENT_3D ( 'NONE', #441, #77, #740 ) ;
#109 = EDGE_CURVE ( 'NONE', #1035, #203, #672, .T. ) ;
#110 = CARTESIAN_POINT ( 'NONE',  ( 122.0000000000000000, 94.39696961966988908, 59.39696961967012356 ) ) ;
#111 = DIRECTION ( 'NONE',  ( 0.000000000000000000, 0.000000000000000000, -1.000000000000000000 ) ) ;
#112 = CARTESIAN_POINT ( 'NONE',  ( 137.0000000000000000, 0.000000000000000000, -15.00000000000000000 ) ) ;
#113 = CARTESIAN_POINT ( 'NONE',  ( 14.99999999999999289, 31.11091270347397497, 10.25304832720493486 ) ) ;
#114 = VERTEX_POINT ( 'NONE', #1045 ) ;
#115 = DIRECTION ( 'NONE',  ( 0.000000000000000000, 0.000000000000000000, -1.000000000000000000 ) ) ;
#116 = VECTOR ( 'NONE', #546, 1000.000000000000000 ) ;
#117 = EDGE_CURVE ( 'NONE', #532, #277, #21, .T. ) ;
#118 = CARTESIAN_POINT ( 'NONE',  ( 112.0000000000000000, 0.000000000000000000, 0.000000000000000000 ) ) ;
#119 = LINE ( 'NONE', #844, #744 ) ;
#120 = ORIENTED_EDGE ( 'NONE', *, *, #831, .F. ) ;
#121 = DIRECTION ( 'NONE',  ( 0.000000000000000000, -0.7071067811865460184, -0.7071067811865491270 ) ) ;
#122 = ORIENTED_EDGE ( 'NONE', *, *, #685, .T. ) ;
#123 = CARTESIAN_POINT ( 'NONE',  ( -15.00000000000001421, 5.000000000000000000, 168.7939392393395224 ) ) ;
#124 = PLANE ( 'NONE',  #723 ) ;
#125 = ORIENTED_EDGE ( 'NONE', *, *, #241, .T. ) ;
#126 = EDGE_CURVE ( 'NONE', #752, #114, #327, .T. ) ;
#127 = CARTESIAN_POINT ( 'NONE',  ( 96.99999999999997158, 45.25304832720492954, 10.25304832720496151 ) ) ;
#128 = ORIENTED_EDGE ( 'NONE', *, *, #489, .T. ) ;
#129 = VECTOR ( 'NONE', #221, 1000.000000000000000 ) ;
#130 = CARTESIAN_POINT ( 'NONE',  ( 122.0000000000000000, 4.999999999999995559, 148.7939392393395792 ) ) ;
#131 = CARTESIAN_POINT ( 'NONE',  ( 24.99999999999999289, 45.25304832720492954, 10.25304832720496151 ) ) ;
#132 = FACE_OUTER_BOUND ( 'NONE', #254, .T. ) ;
#133 = ORIENTED_EDGE ( 'NONE', *, *, #390, .F. ) ;
#134 = CARTESIAN_POINT ( 'NONE',  ( 137.0000000000000000, 5.000000000000000000, -15.00000000000000000 ) ) ;
#135 = ADVANCED_FACE ( 'NONE', ( #562 ), #932, .F. ) ;
#136 = ORIENTED_EDGE ( 'NONE', *, *, #260, .T. ) ;
#137 = VECTOR ( 'NONE', #938, 1000.000000000000000 ) ;
#138 = DIRECTION ( 'NONE',  ( 0.000000000000000000, -1.000000000000000000, 0.000000000000000000 ) ) ;
#139 = VERTEX_POINT ( 'NONE', #314 ) ;
#140 = LINE ( 'NONE', #227, #247 ) ;
#141 = VERTEX_POINT ( 'NONE', #680 ) ;
#142 = LINE ( 'NONE', #889, #553 ) ;
#143 = ORIENTED_EDGE ( 'NONE', *, *, #1142, .F. ) ;
#144 = CARTESIAN_POINT ( 'NONE',  ( 137.0000000000000000, 5.000000000000000000, 168.7939392393395508 ) ) ;
#145 = EDGE_CURVE ( 'NONE', #392, #780, #496, .T. ) ;
#146 = DIRECTION ( 'NONE',  ( -0.000000000000000000, 0.000000000000000000, -1.000000000000000000 ) ) ;
#147 = AXIS2_PLACEMENT_3D ( 'NONE', #1074, #602, #250 ) ;
#148 = VERTEX_POINT ( 'NONE', #381 ) ;
#149 = DIRECTION ( 'NONE',  ( 0.000000000000000000, -1.000000000000000000, 0.000000000000000000 ) ) ;
#150 = FACE_OUTER_BOUND ( 'NONE', #1059, .T. ) ;
#151 = EDGE_CURVE ( 'NONE', #1021, #773, #748, .T. ) ;
#152 = ORIENTED_EDGE ( 'NONE', *, *, #786, .F. ) ;
#153 = CARTESIAN_POINT ( 'NONE',  ( -7.750000000000036415, 5.000000000000000888, -7.750000000000015987 ) ) ;
#154 = VECTOR ( 'NONE', #1146, 1000.000000000000000 ) ;
#155 = CARTESIAN_POINT ( 'NONE',  ( 122.0000000000000000, 30.85786437626904188, 9.999999999999998224 ) ) ;
#156 = CARTESIAN_POINT ( 'NONE',  ( 24.99999999999999289, 16.96877707974297067, 38.53731957466681024 ) ) ;
#157 = LINE ( 'NONE', #1063, #959 ) ;
#158 = VERTEX_POINT ( 'NONE', #236 ) ;
#159 = DIRECTION ( 'NONE',  ( 1.000000000000000000, 0.000000000000000000, -0.000000000000000000 ) ) ;
#160 = EDGE_CURVE ( 'NONE', #868, #894, #80, .T. ) ;
#161 = LINE ( 'NONE', #87, #655 ) ;
#162 = PLANE ( 'NONE',  #766 ) ;
#163 = ORIENTED_EDGE ( 'NONE', *, *, #969, .F. ) ;
#164 = LINE ( 'NONE', #240, #1017 ) ;
#165 = AXIS2_PLACEMENT_3D ( 'NONE', #654, #1087, #1028 ) ;
#166 = VECTOR ( 'NONE', #566, 1000.000000000000000 ) ;
#167 = ORIENTED_EDGE ( 'NONE', *, *, #806, .T. ) ;
#168 = ADVANCED_FACE ( 'NONE', ( #429 ), #339, .F. ) ;
#169 = CARTESIAN_POINT ( 'NONE',  ( 14.99999999999999467, 9.897709267877509376, 31.46625176280131697 ) ) ;
#170 = CARTESIAN_POINT ( 'NONE',  ( 122.0000000000000000, 87.32590180780441358, 52.32590180780462674 ) ) ;
#171 = ORIENTED_EDGE ( 'NONE', *, *, #813, .F. ) ;
#172 = CARTESIAN_POINT ( 'NONE',  ( -7.750000000000036415, 0.000000000000000000, 163.7939392393395792 ) ) ;
#173 = VECTOR ( 'NONE', #1051, 1000.000000000000114 ) ;
#174 = DIRECTION ( 'NONE',  ( 0.000000000000000000, -0.7071067811865460184, -0.7071067811865490160 ) ) ;
#175 = EDGE_CURVE ( 'NONE', #897, #1035, #333, .T. ) ;
#176 = DIRECTION ( 'NONE',  ( 0.000000000000000000, 0.000000000000000000, 1.000000000000000000 ) ) ;
#177 = CARTESIAN_POINT ( 'NONE',  ( 106.9999999999999716, 31.11091270347397497, 10.25304832720493486 ) ) ;
#178 = FACE_OUTER_BOUND ( 'NONE', #95, .T. ) ;
#179 = DIRECTION ( 'NONE',  ( -0.000000000000000000, 0.7071067811865489050, -0.7071067811865462405 ) ) ;
#180 = DIRECTION ( 'NONE',  ( 0.000000000000000000, 0.7071067811865490160, -0.7071067811865460184 ) ) ;
#181 = EDGE_CURVE ( 'NONE', #282, #763, #690, .T. ) ;
#182 = ORIENTED_EDGE ( 'NONE', *, *, #1189, .T. ) ;
#183 = CYLINDRICAL_SURFACE ( 'NONE', #266, 2.250000000000001776 ) ;
#184 = VECTOR ( 'NONE', #687, 1000.000000000000114 ) ;
#185 = EDGE_LOOP ( 'NONE', ( #133, #651, #632, #431 ) ) ;
#186 = VECTOR ( 'NONE', #346, 1000.000000000000114 ) ;
#187 = AXIS2_PLACEMENT_3D ( 'NONE', #1143, #219, #1057 ) ;
#188 = DIRECTION ( 'NONE',  ( 0.000000000000000000, 0.7071067811865489050, -0.7071067811865462405 ) ) ;
#189 = ORIENTED_EDGE ( 'NONE', *, *, #756, .F. ) ;
#190 = LINE ( 'NONE', #732, #1075 ) ;
#191 = ORIENTED_EDGE ( 'NONE', *, *, #63, .T. ) ;
#192 = AXIS2_PLACEMENT_3D ( 'NONE', #533, #274, #1171 ) ;
#193 = CARTESIAN_POINT ( 'NONE',  ( 10.00000000000000000, 80.25483399593892386, 59.39696961967008804 ) ) ;
#194 = PLANE ( 'NONE',  #424 ) ;
#195 = DIRECTION ( 'NONE',  ( 0.000000000000000000, -0.7071067811865460184, -0.7071067811865491270 ) ) ;
#196 = EDGE_LOOP ( 'NONE', ( #929, #358, #99, #746 ) ) ;
#197 = ORIENTED_EDGE ( 'NONE', *, *, #229, .F. ) ;
#198 = ADVANCED_FACE ( 'NONE', ( #816, #804 ), #2, .F. ) ;
#199 = ORIENTED_EDGE ( 'NONE', *, *, #756, .T. ) ;
#200 = DIRECTION ( 'NONE',  ( 0.000000000000000000, 0.000000000000000000, 1.000000000000000000 ) ) ;
#201 = DIRECTION ( 'NONE',  ( 1.000000000000000000, -0.000000000000000000, 0.000000000000000000 ) ) ;
#202 = CARTESIAN_POINT ( 'NONE',  ( 129.7500000000000853, 5.000000000000000000, 159.2939392393395508 ) ) ;
#203 = VERTEX_POINT ( 'NONE', #1091 ) ;
#204 = ORIENTED_EDGE ( 'NONE', *, *, #574, .T. ) ;
#205 = EDGE_CURVE ( 'NONE', #1187, #335, #257, .T. ) ;
#206 = VECTOR ( 'NONE', #1040, 1000.000000000000000 ) ;
#207 = CIRCLE ( 'NONE', #862, 2.250000000000001776 ) ;
#208 = EDGE_CURVE ( 'NONE', #1007, #645, #797, .T. ) ;
#209 = CARTESIAN_POINT ( 'NONE',  ( 0.000000000000000000, 2.826641456012024545, 38.53731957466677471 ) ) ;
#210 = VECTOR ( 'NONE', #102, 1000.000000000000000 ) ;
#211 = DIRECTION ( 'NONE',  ( 0.000000000000000000, 0.7071067811865461294, 0.7071067811865489050 ) ) ;
#212 = DIRECTION ( 'NONE',  ( -0.000000000000000000, 0.7071067811865489050, -0.7071067811865462405 ) ) ;
#213 = EDGE_LOOP ( 'NONE', ( #476, #649 ) ) ;
#214 = DIRECTION ( 'NONE',  ( 0.000000000000000000, 0.000000000000000000, -1.000000000000000000 ) ) ;
#215 = ORIENTED_EDGE ( 'NONE', *, *, #520, .T. ) ;
#216 = VECTOR ( 'NONE', #902, 1000.000000000000000 ) ;
#217 = EDGE_CURVE ( 'NONE', #310, #392, #640, .T. ) ;
#218 = LINE ( 'NONE', #123, #1005 ) ;
#219 = DIRECTION ( 'NONE',  ( 0.000000000000000000, -0.7071067811865489050, 0.7071067811865462405 ) ) ;
#220 = ORIENTED_EDGE ( 'NONE', *, *, #542, .T. ) ;
#221 = DIRECTION ( 'NONE',  ( 0.000000000000000000, 0.000000000000000000, 1.000000000000000000 ) ) ;
#222 = ORIENTED_EDGE ( 'NONE', *, *, #1096, .T. ) ;
#223 = DIRECTION ( 'NONE',  ( 0.000000000000000000, 0.000000000000000000, 1.000000000000000000 ) ) ;
#224 = CARTESIAN_POINT ( 'NONE',  ( -7.750000000000036415, 5.000000000000000888, -5.500000000000015987 ) ) ;
#225 = EDGE_CURVE ( 'NONE', #1007, #524, #728, .T. ) ;
#226 = ORIENTED_EDGE ( 'NONE', *, *, #390, .T. ) ;
#227 = CARTESIAN_POINT ( 'NONE',  ( -15.00000000000001421, 5.000000000000000000, -15.00000000000001599 ) ) ;
#228 = ORIENTED_EDGE ( 'NONE', *, *, #767, .F. ) ;
#229 = EDGE_CURVE ( 'NONE', #35, #271, #1156, .T. ) ;
#230 = VECTOR ( 'NONE', #856, 1000.000000000000000 ) ;
#231 = DIRECTION ( 'NONE',  ( 0.000000000000000000, 0.000000000000000000, 1.000000000000000000 ) ) ;
#232 = VECTOR ( 'NONE', #1162, 1000.000000000000000 ) ;
#233 = CARTESIAN_POINT ( 'NONE',  ( 0.000000000000000000, 4.999999999999995559, 148.7939392393395792 ) ) ;
#234 = ORIENTED_EDGE ( 'NONE', *, *, #84, .F. ) ;
#235 = DIRECTION ( 'NONE',  ( 1.000000000000000000, 0.000000000000000000, 0.000000000000000000 ) ) ;
#236 = CARTESIAN_POINT ( 'NONE',  ( 10.00000000000000000, 30.85786437626904188, 9.999999999999998224 ) ) ;
#237 = VECTOR ( 'NONE', #15, 1000.000000000000000 ) ;
#238 = DIRECTION ( 'NONE',  ( 1.000000000000000000, 0.000000000000000000, 1.826024711554533420E-16 ) ) ;
#239 = ORIENTED_EDGE ( 'NONE', *, *, #1189, .F. ) ;
#240 = CARTESIAN_POINT ( 'NONE',  ( 60.99999999999998579, 1.058874503045589943, 79.19595949289326597 ) ) ;
#241 = EDGE_CURVE ( 'NONE', #659, #158, #75, .T. ) ;
#242 = CARTESIAN_POINT ( 'NONE',  ( 129.7500000000000284, 5.000000000000000888, -5.500000000000031086 ) ) ;
#243 = EDGE_LOOP ( 'NONE', ( #457, #811, #226, #617 ) ) ;
#244 = CARTESIAN_POINT ( 'NONE',  ( 96.99999999999997158, 45.25304832720492954, 10.25304832720496151 ) ) ;
#245 = EDGE_CURVE ( 'NONE', #312, #601, #161, .T. ) ;
#246 = FACE_BOUND ( 'NONE', #1102, .T. ) ;
#247 = VECTOR ( 'NONE', #591, 1000.000000000000000 ) ;
#248 = COLOUR_RGB ( '',0.7921568627450980005, 0.8196078431372548767, 0.9333333333333333481 ) ;
#249 = EDGE_LOOP ( 'NONE', ( #899, #443, #34, #570 ) ) ;
#250 = DIRECTION ( 'NONE',  ( 0.000000000000000000, 0.000000000000000000, -1.000000000000000000 ) ) ;
#251 = CARTESIAN_POINT ( 'NONE',  ( -7.750000000000036415, 0.000000000000000000, -10.00000000000001599 ) ) ;
#252 = CARTESIAN_POINT ( 'NONE',  ( 24.99999999999999289, 16.96877707974297067, 38.53731957466681024 ) ) ;
#253 = ADVANCED_FACE ( 'NONE', ( #1097 ), #1085, .F. ) ;
#254 = EDGE_LOOP ( 'NONE', ( #72, #824, #383, #713 ) ) ;
#255 = CARTESIAN_POINT ( 'NONE',  ( 61.00000000000000711, 17.67766952966374916, 121.9741340859450389 ) ) ;
#256 = UNCERTAINTY_MEASURE_WITH_UNIT (LENGTH_MEASURE( 1.000000000000000082E-05 ), #291, 'distance_accuracy_value', 'NONE');
#257 = LINE ( 'NONE', #81, #730 ) ;
#258 = PLANE ( 'NONE',  #704 ) ;
#259 = EDGE_LOOP ( 'NONE', ( #1042, #612, #297, #668 ) ) ;
#260 = EDGE_CURVE ( 'NONE', #277, #897, #440, .T. ) ;
#261 = CARTESIAN_POINT ( 'NONE',  ( 122.0000000000000000, 5.000000000000004441, 148.7939392393395792 ) ) ;
#262 = ORIENTED_EDGE ( 'NONE', *, *, #1148, .F. ) ;
#263 = CARTESIAN_POINT ( 'NONE',  ( -7.750000000000036415, 5.000000000000000888, -7.750000000000015987 ) ) ;
#264 = EDGE_LOOP ( 'NONE', ( #78, #163, #857, #125 ) ) ;
#265 = PLANE ( 'NONE',  #833 ) ;
#266 = AXIS2_PLACEMENT_3D ( 'NONE', #644, #1181, #89 ) ;
#267 = VECTOR ( 'NONE', #561, 1000.000000000000000 ) ;
#268 = EDGE_CURVE ( 'NONE', #601, #773, #751, .T. ) ;
#269 = ORIENTED_EDGE ( 'NONE', *, *, #90, .F. ) ;
#270 = PRESENTATION_STYLE_ASSIGNMENT (( #913 ) ) ;
#271 = VERTEX_POINT ( 'NONE', #351 ) ;
#272 = CARTESIAN_POINT ( 'NONE',  ( 61.00000000000000711, 24.74873734152918558, 129.0452018978105286 ) ) ;
#273 = ORIENTED_EDGE ( 'NONE', *, *, #1077, .F. ) ;
#274 = DIRECTION ( 'NONE',  ( -0.000000000000000000, -0.7071067811865461294, -0.7071067811865490160 ) ) ;
#275 = EDGE_CURVE ( 'NONE', #6, #392, #356, .T. ) ;
#276 = CARTESIAN_POINT ( 'NONE',  ( -7.750000000000036415, 5.000000000000000000, 163.7939392393395792 ) ) ;
#277 = VERTEX_POINT ( 'NONE', #907 ) ;
#278 = DIRECTION ( 'NONE',  ( 0.000000000000000000, 0.000000000000000000, 1.000000000000000000 ) ) ;
#279 = EDGE_LOOP ( 'NONE', ( #120, #433, #452, #290 ) ) ;
#280 = DIRECTION ( 'NONE',  ( -0.000000000000000000, 1.000000000000000000, -0.000000000000000000 ) ) ;
#281 = PLANE ( 'NONE',  #285 ) ;
#282 = VERTEX_POINT ( 'NONE', #344 ) ;
#283 = CARTESIAN_POINT ( 'NONE',  ( 25.00000000000000000, 55.85965004500301490, 77.42819253992699657 ) ) ;
#284 = ORIENTED_EDGE ( 'NONE', *, *, #345, .F. ) ;
#285 = AXIS2_PLACEMENT_3D ( 'NONE', #827, #8, #936 ) ;
#286 = DIRECTION ( 'NONE',  ( 0.000000000000000000, -0.7071067811865462405, -0.7071067811865489050 ) ) ;
#287 = PLANE ( 'NONE',  #20 ) ;
#288 = FACE_BOUND ( 'NONE', #27, .T. ) ;
#289 = EDGE_CURVE ( 'NONE', #384, #6, #1003, .T. ) ;
#290 = ORIENTED_EDGE ( 'NONE', *, *, #82, .T. ) ;
#291 =( LENGTH_UNIT ( ) NAMED_UNIT ( * ) SI_UNIT ( .MILLI., .METRE. ) );
#292 = CARTESIAN_POINT ( 'NONE',  ( -7.750000000000036415, 5.000000000000000000, -5.500000000000016875 ) ) ;
#293 = CARTESIAN_POINT ( 'NONE',  ( 122.0000000000000000, 27.92893218813451384, 7.071067811865461294 ) ) ;
#294 = EDGE_CURVE ( 'NONE', #763, #106, #539, .T. ) ;
#295 = ORIENTED_EDGE ( 'NONE', *, *, #520, .F. ) ;
#296 = ORIENTED_EDGE ( 'NONE', *, *, #289, .F. ) ;
#297 = ORIENTED_EDGE ( 'NONE', *, *, #1077, .T. ) ;
#298 = DIRECTION ( 'NONE',  ( -0.000000000000000000, 1.000000000000000000, -0.000000000000000000 ) ) ;
#299 = FACE_OUTER_BOUND ( 'NONE', #707, .T. ) ;
#300 = CARTESIAN_POINT ( 'NONE',  ( 25.00000000000000000, 55.85965004500301490, 77.42819253992699657 ) ) ;
#301 = ORIENTED_EDGE ( 'NONE', *, *, #413, .T. ) ;
#302 = CARTESIAN_POINT ( 'NONE',  ( 0.000000000000000000, 0.000000000000000000, 0.000000000000000000 ) ) ;
#303 = EDGE_LOOP ( 'NONE', ( #873, #674 ) ) ;
#304 = CIRCLE ( 'NONE', #665, 2.250000000000000444 ) ;
#305 = EDGE_CURVE ( 'NONE', #1083, #1116, #1166, .T. ) ;
#306 = CIRCLE ( 'NONE', #836, 9.999999999999985789 ) ;
#307 = LINE ( 'NONE', #671, #1020 ) ;
#308 = CARTESIAN_POINT ( 'NONE',  ( 0.000000000000000000, 5.000000000000000000, 0.000000000000000000 ) ) ;
#309 = FACE_BOUND ( 'NONE', #1053, .T. ) ;
#310 = VERTEX_POINT ( 'NONE', #709 ) ;
#311 = CARTESIAN_POINT ( 'NONE',  ( 129.7500000000000284, 5.000000000000000000, -10.00000000000003553 ) ) ;
#312 = VERTEX_POINT ( 'NONE', #251 ) ;
#313 = CARTESIAN_POINT ( 'NONE',  ( -15.00000000000001421, 5.000000000000000000, 168.7939392393395224 ) ) ;
#314 = CARTESIAN_POINT ( 'NONE',  ( 129.7500000000000284, 0.000000000000000000, -5.500000000000031086 ) ) ;
#315 = CARTESIAN_POINT ( 'NONE',  ( 60.99999999999998579, 8.129942314911046353, 86.26702730475874148 ) ) ;
#316 = ORIENTED_EDGE ( 'NONE', *, *, #969, .T. ) ;
#317 = CARTESIAN_POINT ( 'NONE',  ( 137.0000000000000000, 0.000000000000000000, 168.7939392393395508 ) ) ;
#318 = ORIENTED_EDGE ( 'NONE', *, *, #413, .F. ) ;
#319 = DIRECTION ( 'NONE',  ( -0.000000000000000000, 0.7071067811865489050, -0.7071067811865462405 ) ) ;
#320 = LINE ( 'NONE', #127, #184 ) ;
#321 = AXIS2_PLACEMENT_3D ( 'NONE', #315, #212, #775 ) ;
#322 = CARTESIAN_POINT ( 'NONE',  ( 137.0000000000000000, 5.000000000000000000, 168.7939392393395508 ) ) ;
#323 = EDGE_LOOP ( 'NONE', ( #776, #62, #370, #105, #18, #49, #11, #800 ) ) ;
#324 = ADVANCED_FACE ( 'NONE', ( #720 ), #992, .T. ) ;
#325 = CARTESIAN_POINT ( 'NONE',  ( 129.7500000000000853, 5.000000000000000888, 163.7939392393395508 ) ) ;
#326 = PRODUCT_CONTEXT ( 'NONE', #598, 'mechanical' ) ;
#327 = CIRCLE ( 'NONE', #846, 9.999999999999985789 ) ;
#328 = DIRECTION ( 'NONE',  ( 1.000000000000000000, 0.000000000000000000, -0.000000000000000000 ) ) ;
#329 = ORIENTED_EDGE ( 'NONE', *, *, #845, .T. ) ;
#330 = DIRECTION ( 'NONE',  ( -0.000000000000000000, 1.000000000000000000, -0.000000000000000000 ) ) ;
#331 = EDGE_CURVE ( 'NONE', #106, #141, #398, .T. ) ;
#332 = ADVANCED_FACE ( 'NONE', ( #864, #961, #772, #848, #675, #55 ), #667, .F. ) ;
#333 = LINE ( 'NONE', #156, #154 ) ;
#334 = CARTESIAN_POINT ( 'NONE',  ( 129.7500000000000284, 5.000000000000000888, -10.00000000000003553 ) ) ;
#335 = VERTEX_POINT ( 'NONE', #134 ) ;
#336 = PLANE ( 'NONE',  #527 ) ;
#337 = EDGE_CURVE ( 'NONE', #621, #1154, #1037, .T. ) ;
#338 = VECTOR ( 'NONE', #578, 1000.000000000000000 ) ;
#339 = CYLINDRICAL_SURFACE ( 'NONE', #635, 2.249999999999999556 ) ;
#340 = CARTESIAN_POINT ( 'NONE',  ( 14.99999999999999467, 16.96877707974297067, 38.53731957466681024 ) ) ;
#341 = CIRCLE ( 'NONE', #1018, 2.250000000000001776 ) ;
#342 = ORIENTED_EDGE ( 'NONE', *, *, #1173, .F. ) ;
#343 = LINE ( 'NONE', #422, #36 ) ;
#344 = CARTESIAN_POINT ( 'NONE',  ( 0.000000000000000000, 94.39696961966988908, 59.39696961967012356 ) ) ;
#345 = EDGE_CURVE ( 'NONE', #1021, #312, #1149, .T. ) ;
#346 = DIRECTION ( 'NONE',  ( 1.261617073437677506E-16, 0.7071067811865461294, 0.7071067811865489050 ) ) ;
#347 = VECTOR ( 'NONE', #582, 1000.000000000000000 ) ;
#348 = ORIENTED_EDGE ( 'NONE', *, *, #7, .F. ) ;
#349 = CARTESIAN_POINT ( 'NONE',  ( 122.0000000000000000, 0.000000000000000000, 9.999999999999998224 ) ) ;
#350 = ORIENTED_EDGE ( 'NONE', *, *, #542, .F. ) ;
#351 = CARTESIAN_POINT ( 'NONE',  ( 61.00000000000000711, 24.74873734152922111, 114.9030662740795918 ) ) ;
#352 = FACE_OUTER_BOUND ( 'NONE', #415, .T. ) ;
#353 = ORIENTED_EDGE ( 'NONE', *, *, #679, .T. ) ;
#354 = FACE_OUTER_BOUND ( 'NONE', #249, .T. ) ;
#355 = VERTEX_POINT ( 'NONE', #50 ) ;
#356 = LINE ( 'NONE', #633, #710 ) ;
#357 = CARTESIAN_POINT ( 'NONE',  ( -7.750000000000036415, 5.000000000000000888, 161.5439392393395792 ) ) ;
#358 = ORIENTED_EDGE ( 'NONE', *, *, #337, .F. ) ;
#359 = LINE ( 'NONE', #726, #91 ) ;
#360 = AXIS2_PLACEMENT_3D ( 'NONE', #255, #887, #995 ) ;
#361 = AXIS2_PLACEMENT_3D ( 'NONE', #425, #1158, #699 ) ;
#362 = EDGE_CURVE ( 'NONE', #389, #894, #1049, .T. ) ;
#363 = PRODUCT_DEFINITION_FORMATION_WITH_SPECIFIED_SOURCE ( 'TUTTO', '', #914, .NOT_KNOWN. ) ;
#364 = ORIENTED_EDGE ( 'NONE', *, *, #885, .T. ) ;
#365 = DIRECTION ( 'NONE',  ( 0.000000000000000000, 0.000000000000000000, 1.000000000000000000 ) ) ;
#366 = AXIS2_PLACEMENT_3D ( 'NONE', #615, #1185, #1177 ) ;
#367 = EDGE_CURVE ( 'NONE', #1154, #621, #762, .T. ) ;
#368 = DIRECTION ( 'NONE',  ( 0.000000000000000000, 0.000000000000000000, 1.000000000000000000 ) ) ;
#369 =( NAMED_UNIT ( * ) SI_UNIT ( $, .STERADIAN. ) SOLID_ANGLE_UNIT ( ) );
#370 = ORIENTED_EDGE ( 'NONE', *, *, #241, .F. ) ;
#371 = DIRECTION ( 'NONE',  ( 0.000000000000000000, 0.7071067811865489050, -0.7071067811865462405 ) ) ;
#372 = EDGE_LOOP ( 'NONE', ( #1079, #97, #69, #128 ) ) ;
#373 = EDGE_CURVE ( 'NONE', #765, #986, #57, .T. ) ;
#374 = DIRECTION ( 'NONE',  ( 0.000000000000000000, -0.7071067811865460184, -0.7071067811865490160 ) ) ;
#375 = FACE_OUTER_BOUND ( 'NONE', #1100, .T. ) ;
#376 = DIRECTION ( 'NONE',  ( -0.000000000000000000, -0.7071067811865461294, -0.7071067811865490160 ) ) ;
#377 = AXIS2_PLACEMENT_3D ( 'NONE', #525, #714, #898 ) ;
#378 = ORIENTED_EDGE ( 'NONE', *, *, #90, .T. ) ;
#379 = AXIS2_PLACEMENT_3D ( 'NONE', #322, #691, #238 ) ;
#380 = EDGE_CURVE ( 'NONE', #158, #1117, #777, .T. ) ;
#381 = CARTESIAN_POINT ( 'NONE',  ( 106.9999999999999716, 80.25483399593892386, 59.39696961967008804 ) ) ;
#382 = DIRECTION ( 'NONE',  ( -0.000000000000000000, 0.7071067811865489050, -0.7071067811865462405 ) ) ;
#383 = ORIENTED_EDGE ( 'NONE', *, *, #590, .T. ) ;
#384 = VERTEX_POINT ( 'NONE', #941 ) ;
#385 = ORIENTED_EDGE ( 'NONE', *, *, #631, .F. ) ;
#386 = AXIS2_PLACEMENT_3D ( 'NONE', #480, #945, #1119 ) ;
#387 = LINE ( 'NONE', #841, #166 ) ;
#388 = CARTESIAN_POINT ( 'NONE',  ( 0.000000000000000000, 0.000000000000000000, 0.000000000000000000 ) ) ;
#389 = VERTEX_POINT ( 'NONE', #411 ) ;
#390 = EDGE_CURVE ( 'NONE', #335, #470, #43, .T. ) ;
#391 = DIRECTION ( 'NONE',  ( 1.000000000000000000, -0.000000000000000000, 0.000000000000000000 ) ) ;
#392 = VERTEX_POINT ( 'NONE', #113 ) ;
#393 = VERTEX_POINT ( 'NONE', #955 ) ;
#394 = CARTESIAN_POINT ( 'NONE',  ( 122.0000000000000000, 35.00000000000000000, 0.000000000000000000 ) ) ;
#395 = CARTESIAN_POINT ( 'NONE',  ( 122.0000000000000000, 94.39696961966988908, 59.39696961967012356 ) ) ;
#396 = CARTESIAN_POINT ( 'NONE',  ( -15.00000000000001421, 0.000000000000000000, -15.00000000000001599 ) ) ;
#397 = ORIENTED_EDGE ( 'NONE', *, *, #875, .T. ) ;
#398 = LINE ( 'NONE', #484, #908 ) ;
#399 = EDGE_CURVE ( 'NONE', #148, #6, #477, .T. ) ;
#400 = AXIS2_PLACEMENT_3D ( 'NONE', #1188, #5, #365 ) ;
#401 = AXIS2_PLACEMENT_3D ( 'NONE', #1000, #920, #535 ) ;
#402 = LINE ( 'NONE', #851, #267 ) ;
#403 = DIRECTION ( 'NONE',  ( 1.000000000000000000, -0.000000000000000000, 0.000000000000000000 ) ) ;
#404 = DIRECTION ( 'NONE',  ( -0.000000000000000000, 1.000000000000000000, -0.000000000000000000 ) ) ;
#405 = EDGE_LOOP ( 'NONE', ( #927, #794, #696, #676 ) ) ;
#406 = DIRECTION ( 'NONE',  ( 0.000000000000000000, 0.000000000000000000, 1.000000000000000000 ) ) ;
#407 = CARTESIAN_POINT ( 'NONE',  ( 122.0000000000000000, 80.25483399593892386, 59.39696961967009514 ) ) ;
#408 = DIRECTION ( 'NONE',  ( 0.000000000000000000, 0.000000000000000000, 1.000000000000000000 ) ) ;
#409 = LINE ( 'NONE', #1120, #594 ) ;
#410 = VERTEX_POINT ( 'NONE', #317 ) ;
#411 = CARTESIAN_POINT ( 'NONE',  ( 129.7500000000000284, 0.000000000000000000, -10.00000000000003553 ) ) ;
#412 = VERTEX_POINT ( 'NONE', #1054 ) ;
#413 = EDGE_CURVE ( 'NONE', #960, #471, #320, .T. ) ;
#414 = CARTESIAN_POINT ( 'NONE',  ( 14.99999999999998934, -17.85533905932736687, 17.85533905932730292 ) ) ;
#415 = EDGE_LOOP ( 'NONE', ( #42, #85, #26, #269 ) ) ;
#416 = DIRECTION ( 'NONE',  ( -0.000000000000000000, 0.7071067811865489050, -0.7071067811865462405 ) ) ;
#417 = CIRCLE ( 'NONE', #360, 9.999999999999984013 ) ;
#418 = AXIS2_PLACEMENT_3D ( 'NONE', #575, #298, #37 ) ;
#419 = FACE_OUTER_BOUND ( 'NONE', #910, .T. ) ;
#420 = ADVANCED_FACE ( 'NONE', ( #33 ), #1061, .T. ) ;
#421 = ORIENTED_EDGE ( 'NONE', *, *, #245, .T. ) ;
#422 = CARTESIAN_POINT ( 'NONE',  ( 137.0000000000000000, 5.000000000000000000, -15.00000000000000000 ) ) ;
#423 = EDGE_CURVE ( 'NONE', #1095, #1187, #140, .T. ) ;
#424 = AXIS2_PLACEMENT_3D ( 'NONE', #118, #403, #587 ) ;
#425 = CARTESIAN_POINT ( 'NONE',  ( -7.750000000000036415, 0.000000000000000000, -7.750000000000015987 ) ) ;
#426 = ORIENTED_EDGE ( 'NONE', *, *, #466, .T. ) ;
#427 = FACE_OUTER_BOUND ( 'NONE', #716, .T. ) ;
#428 = EDGE_CURVE ( 'NONE', #67, #1139, #505, .T. ) ;
#429 = FACE_OUTER_BOUND ( 'NONE', #771, .T. ) ;
#430 = DIRECTION ( 'NONE',  ( -0.000000000000000000, -0.000000000000000000, -1.000000000000000000 ) ) ;
#431 = ORIENTED_EDGE ( 'NONE', *, *, #698, .F. ) ;
#432 = LINE ( 'NONE', #793, #997 ) ;
#433 = ORIENTED_EDGE ( 'NONE', *, *, #1161, .F. ) ;
#434 = DIRECTION ( 'NONE',  ( 1.000000000000000000, -0.000000000000000000, 1.141265444721583511E-16 ) ) ;
#435 = AXIS2_PLACEMENT_3D ( 'NONE', #544, #376, #550 ) ;
#436 = CARTESIAN_POINT ( 'NONE',  ( 112.0000000000000000, 27.92893218813451384, 7.071067811865461294 ) ) ;
#437 = VECTOR ( 'NONE', #16, 1000.000000000000000 ) ;
#438 = ORIENTED_EDGE ( 'NONE', *, *, #362, .F. ) ;
#439 = CARTESIAN_POINT ( 'NONE',  ( 10.00000000000000000, 0.000000000000000000, 139.6518036156086566 ) ) ;
#440 = LINE ( 'NONE', #522, #536 ) ;
#441 = CARTESIAN_POINT ( 'NONE',  ( -7.750000000000036415, 5.000000000000000000, -7.750000000000015987 ) ) ;
#442 = VECTOR ( 'NONE', #810, 1000.000000000000000 ) ;
#443 = ORIENTED_EDGE ( 'NONE', *, *, #1182, .F. ) ;
#444 = DIRECTION ( 'NONE',  ( 0.000000000000000000, 0.000000000000000000, 1.000000000000000000 ) ) ;
#445 = CARTESIAN_POINT ( 'NONE',  ( 106.9999999999999716, 9.897709267877507600, 31.46625176280131697 ) ) ;
#446 = FILL_AREA_STYLE ('',( #822 ) ) ;
#447 = EDGE_CURVE ( 'NONE', #106, #916, #1126, .T. ) ;
#448 = ORIENTED_EDGE ( 'NONE', *, *, #208, .T. ) ;
#449 = CYLINDRICAL_SURFACE ( 'NONE', #607, 2.250000000000001776 ) ;
#450 = CARTESIAN_POINT ( 'NONE',  ( 112.0000000000000000, 0.000000000000000000, 153.7939392393395792 ) ) ;
#451 = CARTESIAN_POINT ( 'NONE',  ( 24.99999999999999289, 45.25304832720492954, 10.25304832720496151 ) ) ;
#452 = ORIENTED_EDGE ( 'NONE', *, *, #698, .T. ) ;
#453 = EDGE_CURVE ( 'NONE', #934, #158, #432, .T. ) ;
#454 = DIRECTION ( 'NONE',  ( 0.000000000000000000, -0.7071067811865461294, -0.7071067811865489050 ) ) ;
#455 = AXIS2_PLACEMENT_3D ( 'NONE', #40, #404, #835 ) ;
#456 = DIRECTION ( 'NONE',  ( 1.000000000000000000, 0.000000000000000000, 0.000000000000000000 ) ) ;
#457 = ORIENTED_EDGE ( 'NONE', *, *, #885, .F. ) ;
#458 = CARTESIAN_POINT ( 'NONE',  ( 60.99999999999998579, 36.41421356237299989, 57.98275605729689630 ) ) ;
#459 = ORIENTED_EDGE ( 'NONE', *, *, #983, .F. ) ;
#460 = ADVANCED_FACE ( 'NONE', ( #516 ), #1164, .T. ) ;
#461 = DIRECTION ( 'NONE',  ( -0.000000000000000000, 1.000000000000000000, -0.000000000000000000 ) ) ;
#462 = VERTEX_POINT ( 'NONE', #325 ) ;
#463 = CARTESIAN_POINT ( 'NONE',  ( 129.7500000000000284, 5.000000000000000000, -7.750000000000032863 ) ) ;
#464 = ORIENTED_EDGE ( 'NONE', *, *, #275, .F. ) ;
#465 = ORIENTED_EDGE ( 'NONE', *, *, #1105, .F. ) ;
#466 = EDGE_CURVE ( 'NONE', #139, #868, #1160, .T. ) ;
#467 = CARTESIAN_POINT ( 'NONE',  ( -7.750000000000036415, 5.000000000000000000, 161.5439392393395792 ) ) ;
#468 = CARTESIAN_POINT ( 'NONE',  ( 61.00000000000000711, 31.81980515339466464, 121.9741340859450673 ) ) ;
#469 = VECTOR ( 'NONE', #978, 1000.000000000000000 ) ;
#470 = VERTEX_POINT ( 'NONE', #144 ) ;
#471 = VERTEX_POINT ( 'NONE', #244 ) ;
#472 = AXIS2_PLACEMENT_3D ( 'NONE', #1036, #759, #200 ) ;
#473 = CARTESIAN_POINT ( 'NONE',  ( -7.750000000000036415, 0.000000000000000000, 159.2939392393395792 ) ) ;
#474 = LINE ( 'NONE', #769, #1047 ) ;
#475 = DIRECTION ( 'NONE',  ( -0.000000000000000000, 1.000000000000000000, -0.000000000000000000 ) ) ;
#476 = ORIENTED_EDGE ( 'NONE', *, *, #373, .T. ) ;
#477 = LINE ( 'NONE', #597, #1089 ) ;
#478 = EDGE_LOOP ( 'NONE', ( #737, #643, #847, #557 ) ) ;
#479 = DIRECTION ( 'NONE',  ( -1.000000000000000000, -0.000000000000000000, -0.000000000000000000 ) ) ;
#480 = CARTESIAN_POINT ( 'NONE',  ( 24.99999999999999289, 16.96877707974297067, 38.53731957466681024 ) ) ;
#481 = FACE_BOUND ( 'NONE', #942, .T. ) ;
#482 = ADVANCED_FACE ( 'NONE', ( #531, #905 ), #336, .T. ) ;
#483 = ORIENTED_EDGE ( 'NONE', *, *, #623, .F. ) ;
#484 = CARTESIAN_POINT ( 'NONE',  ( 122.0000000000000000, 5.000000000000000000, 0.000000000000000000 ) ) ;
#485 = ORIENTED_EDGE ( 'NONE', *, *, #581, .T. ) ;
#486 = DIRECTION ( 'NONE',  ( -1.000000000000000000, 0.000000000000000000, 0.000000000000000000 ) ) ;
#487 = CARTESIAN_POINT ( 'NONE',  ( 122.0000000000000000, 0.000000000000000000, 0.000000000000000000 ) ) ;
#488 = DIRECTION ( 'NONE',  ( -0.000000000000000000, 1.000000000000000000, -0.000000000000000000 ) ) ;
#489 = EDGE_CURVE ( 'NONE', #335, #819, #343, .T. ) ;
#490 = ORIENTED_EDGE ( 'NONE', *, *, #855, .T. ) ;
#491 = DIRECTION ( 'NONE',  ( -0.000000000000000000, 0.000000000000000000, -1.000000000000000000 ) ) ;
#492 = CIRCLE ( 'NONE', #377, 2.250000000000001776 ) ;
#493 = ADVANCED_FACE ( 'NONE', ( #427 ), #991, .F. ) ;
#494 = PRESENTATION_LAYER_ASSIGNMENT (  '', '', ( #512 ) ) ;
#495 = VECTOR ( 'NONE', #1050, 1000.000000000000000 ) ;
#496 = LINE ( 'NONE', #834, #237 ) ;
#497 = FACE_OUTER_BOUND ( 'NONE', #323, .T. ) ;
#498 = EDGE_LOOP ( 'NONE', ( #950, #273, #571, #984 ) ) ;
#499 = CARTESIAN_POINT ( 'NONE',  ( 137.0000000000000000, 5.000000000000000000, -15.00000000000000000 ) ) ;
#500 = ORIENTED_EDGE ( 'NONE', *, *, #767, .T. ) ;
#501 = EDGE_CURVE ( 'NONE', #462, #393, #492, .T. ) ;
#502 = CARTESIAN_POINT ( 'NONE',  ( -7.750000000000036415, 5.000000000000000000, -7.750000000000015987 ) ) ;
#503 = CARTESIAN_POINT ( 'NONE',  ( 129.7500000000000853, 0.000000000000000000, 163.7939392393395508 ) ) ;
#504 = ORIENTED_EDGE ( 'NONE', *, *, #1142, .T. ) ;
#505 = LINE ( 'NONE', #757, #338 ) ;
#506 = ORIENTED_EDGE ( 'NONE', *, *, #1096, .F. ) ;
#507 = EDGE_CURVE ( 'NONE', #1064, #666, #721, .T. ) ;
#508 = DIRECTION ( 'NONE',  ( 0.000000000000000000, 0.000000000000000000, 1.000000000000000000 ) ) ;
#509 = ORIENTED_EDGE ( 'NONE', *, *, #631, .T. ) ;
#510 = CARTESIAN_POINT ( 'NONE',  ( 112.0000000000000000, 87.32590180780441358, 52.32590180780462674 ) ) ;
#511 = AXIS2_PLACEMENT_3D ( 'NONE', #734, #683, #1104 ) ;
#512 = STYLED_ITEM ( 'NONE', ( #270 ), #1062 ) ;
#513 = LINE ( 'NONE', #884, #572 ) ;
#514 = EDGE_CURVE ( 'NONE', #589, #1007, #787, .T. ) ;
#515 = ORIENTED_EDGE ( 'NONE', *, *, #245, .F. ) ;
#516 = FACE_OUTER_BOUND ( 'NONE', #264, .T. ) ;
#517 = VECTOR ( 'NONE', #814, 1000.000000000000000 ) ;
#518 = CARTESIAN_POINT ( 'NONE',  ( -15.00000000000001421, 0.000000000000000000, -15.00000000000001599 ) ) ;
#519 = ORIENTED_EDGE ( 'NONE', *, *, #641, .F. ) ;
#520 = EDGE_CURVE ( 'NONE', #393, #462, #861, .T. ) ;
#521 = DIRECTION ( 'NONE',  ( 0.000000000000000000, 1.000000000000000000, -0.000000000000000000 ) ) ;
#522 = CARTESIAN_POINT ( 'NONE',  ( 24.99999999999999289, 16.96877707974297067, 38.53731957466681024 ) ) ;
#523 = CARTESIAN_POINT ( 'NONE',  ( 0.000000000000000000, 35.00000000000000000, 0.000000000000000000 ) ) ;
#524 = VERTEX_POINT ( 'NONE', #439 ) ;
#525 = CARTESIAN_POINT ( 'NONE',  ( 129.7500000000000853, 5.000000000000000888, 161.5439392393395508 ) ) ;
#526 = ORIENTED_EDGE ( 'NONE', *, *, #331, .T. ) ;
#527 = AXIS2_PLACEMENT_3D ( 'NONE', #68, #697, #1169 ) ;
#528 = CARTESIAN_POINT ( 'NONE',  ( 61.00000000000000711, 17.67766952966371008, 136.1162697096759757 ) ) ;
#529 = CIRCLE ( 'NONE', #418, 2.250000000000001776 ) ;
#530 = EDGE_LOOP ( 'NONE', ( #329, #4, #1168, #1145 ) ) ;
#531 = FACE_BOUND ( 'NONE', #840, .T. ) ;
#532 = VERTEX_POINT ( 'NONE', #1070 ) ;
#533 = CARTESIAN_POINT ( 'NONE',  ( 61.00000000000000711, 45.96194077712559078, 150.2584053334070120 ) ) ;
#534 = EDGE_CURVE ( 'NONE', #1117, #524, #801, .T. ) ;
#535 = DIRECTION ( 'NONE',  ( 0.000000000000000000, 0.7071067811865489050, -0.7071067811865462405 ) ) ;
#536 = VECTOR ( 'NONE', #70, 1000.000000000000000 ) ;
#537 = ORIENTED_EDGE ( 'NONE', *, *, #1043, .F. ) ;
#538 = CYLINDRICAL_SURFACE ( 'NONE', #435, 9.999999999999984013 ) ;
#539 = LINE ( 'NONE', #619, #442 ) ;
#540 = EDGE_CURVE ( 'NONE', #1139, #763, #606, .T. ) ;
#541 = DIRECTION ( 'NONE',  ( -0.000000000000000000, 1.000000000000000000, -0.000000000000000000 ) ) ;
#542 = EDGE_CURVE ( 'NONE', #271, #35, #417, .T. ) ;
#543 = LINE ( 'NONE', #956, #947 ) ;
#544 = CARTESIAN_POINT ( 'NONE',  ( 61.00000000000000711, 45.96194077712559078, 150.2584053334070120 ) ) ;
#545 = EDGE_LOOP ( 'NONE', ( #1107, #785, #348, #1093 ) ) ;
#546 = DIRECTION ( 'NONE',  ( -1.000000000000000000, 0.000000000000000000, 0.000000000000000000 ) ) ;
#547 = FACE_OUTER_BOUND ( 'NONE', #629, .T. ) ;
#548 = AXIS2_PLACEMENT_3D ( 'NONE', #1144, #280, #406 ) ;
#549 = EDGE_LOOP ( 'NONE', ( #537, #1055 ) ) ;
#550 = DIRECTION ( 'NONE',  ( 0.000000000000000000, 0.7071067811865489050, -0.7071067811865462405 ) ) ;
#551 = AXIS2_PLACEMENT_3D ( 'NONE', #272, #195, #371 ) ;
#552 = EDGE_CURVE ( 'NONE', #752, #666, #164, .T. ) ;
#553 = VECTOR ( 'NONE', #1078, 1000.000000000000114 ) ;
#554 = ORIENTED_EDGE ( 'NONE', *, *, #845, .F. ) ;
#555 = CARTESIAN_POINT ( 'NONE',  ( 9.999999999999994671, 27.92893218813451384, 7.071067811865461294 ) ) ;
#556 = PRODUCT_DEFINITION_SHAPE ( 'NONE', 'NONE',  #1113 ) ;
#557 = ORIENTED_EDGE ( 'NONE', *, *, #893, .F. ) ;
#558 = DIRECTION ( 'NONE',  ( -0.000000000000000000, 1.000000000000000000, -0.000000000000000000 ) ) ;
#559 = ADVANCED_FACE ( 'NONE', ( #781 ), #1152, .T. ) ;
#560 = ORIENTED_EDGE ( 'NONE', *, *, #507, .T. ) ;
#561 = DIRECTION ( 'NONE',  ( 0.000000000000000000, -1.000000000000000000, 0.000000000000000000 ) ) ;
#562 = FACE_OUTER_BOUND ( 'NONE', #686, .T. ) ;
#563 = CARTESIAN_POINT ( 'NONE',  ( 61.00000000000000711, 53.03300858899107340, 143.1873375215415649 ) ) ;
#564 = ORIENTED_EDGE ( 'NONE', *, *, #362, .T. ) ;
#565 = ORIENTED_EDGE ( 'NONE', *, *, #534, .F. ) ;
#566 = DIRECTION ( 'NONE',  ( -0.000000000000000000, 0.7071067811865489050, -0.7071067811865462405 ) ) ;
#567 = LINE ( 'NONE', #742, #3 ) ;
#568 = PLANE ( 'NONE',  #187 ) ;
#569 = AXIS2_PLACEMENT_3D ( 'NONE', #1134, #869, #585 ) ;
#570 = ORIENTED_EDGE ( 'NONE', *, *, #305, .F. ) ;
#571 = ORIENTED_EDGE ( 'NONE', *, *, #63, .F. ) ;
#572 = VECTOR ( 'NONE', #61, 1000.000000000000000 ) ;
#573 = EDGE_LOOP ( 'NONE', ( #890, #199, #215, #506 ) ) ;
#574 = EDGE_CURVE ( 'NONE', #139, #389, #1183, .T. ) ;
#575 = CARTESIAN_POINT ( 'NONE',  ( 129.7500000000000853, 0.000000000000000000, 161.5439392393395508 ) ) ;
#576 = DIRECTION ( 'NONE',  ( 1.261617073437677506E-16, 0.7071067811865461294, 0.7071067811865489050 ) ) ;
#577 = CARTESIAN_POINT ( 'NONE',  ( -7.750000000000036415, 5.000000000000000000, 159.2939392393395792 ) ) ;
#578 = DIRECTION ( 'NONE',  ( 0.000000000000000000, -0.7071067811865491270, 0.7071067811865459074 ) ) ;
#579 = VERTEX_POINT ( 'NONE', #985 ) ;
#580 = VECTOR ( 'NONE', #576, 1000.000000000000114 ) ;
#581 = EDGE_CURVE ( 'NONE', #773, #601, #304, .T. ) ;
#582 = DIRECTION ( 'NONE',  ( 1.000000000000000000, 0.000000000000000000, 0.000000000000000000 ) ) ;
#583 = CARTESIAN_POINT ( 'NONE',  ( 60.99999999999998579, 22.27207793864205598, 57.98275605729688209 ) ) ;
#584 = ADVANCED_FACE ( 'NONE', ( #923 ), #183, .F. ) ;
#585 = DIRECTION ( 'NONE',  ( 0.000000000000000000, 0.000000000000000000, 1.000000000000000000 ) ) ;
#586 = LINE ( 'NONE', #209, #210 ) ;
#587 = DIRECTION ( 'NONE',  ( 0.000000000000000000, 0.000000000000000000, -1.000000000000000000 ) ) ;
#588 = FACE_OUTER_BOUND ( 'NONE', #573, .T. ) ;
#589 = VERTEX_POINT ( 'NONE', #1008 ) ;
#590 = EDGE_CURVE ( 'NONE', #666, #1064, #688, .T. ) ;
#591 = DIRECTION ( 'NONE',  ( -0.000000000000000000, -0.000000000000000000, -1.000000000000000000 ) ) ;
#592 = AXIS2_PLACEMENT_3D ( 'NONE', #809, #86, #444 ) ;
#593 = EDGE_LOOP ( 'NONE', ( #17, #44, #1121, #1151, #596, #565, #342, #904 ) ) ;
#594 = VECTOR ( 'NONE', #939, 1000.000000000000000 ) ;
#595 = DIRECTION ( 'NONE',  ( 8.920979878885101582E-17, 0.000000000000000000, 1.000000000000000000 ) ) ;
#596 = ORIENTED_EDGE ( 'NONE', *, *, #225, .T. ) ;
#597 = CARTESIAN_POINT ( 'NONE',  ( 106.9999999999999716, 38.18198051533943271, 17.32411613907042636 ) ) ;
#598 = APPLICATION_CONTEXT ( 'automotive_design' ) ;
#599 = EDGE_CURVE ( 'NONE', #838, #819, #1175, .T. ) ;
#600 = CARTESIAN_POINT ( 'NONE',  ( -7.750000000000036415, 5.000000000000000888, 161.5439392393395792 ) ) ;
#601 = VERTEX_POINT ( 'NONE', #1014 ) ;
#602 = DIRECTION ( 'NONE',  ( 1.000000000000000000, -0.000000000000000000, 0.000000000000000000 ) ) ;
#603 = ADVANCED_FACE ( 'NONE', ( #96 ), #449, .F. ) ;
#604 = CARTESIAN_POINT ( 'NONE',  ( 96.99999999999997158, 84.14392129246496665, 49.14392129246515850 ) ) ;
#605 = VERTEX_POINT ( 'NONE', #283 ) ;
#606 = LINE ( 'NONE', #261, #937 ) ;
#607 = AXIS2_PLACEMENT_3D ( 'NONE', #463, #825, #278 ) ;
#608 = DIRECTION ( 'NONE',  ( 1.000000000000000000, 0.000000000000000000, 0.000000000000000000 ) ) ;
#609 = AXIS2_PLACEMENT_3D ( 'NONE', #755, #1125, #681 ) ;
#610 = EDGE_CURVE ( 'NONE', #1116, #384, #359, .T. ) ;
#611 = DIRECTION ( 'NONE',  ( 0.000000000000000000, -0.7071067811865490160, 0.7071067811865460184 ) ) ;
#612 = ORIENTED_EDGE ( 'NONE', *, *, #428, .F. ) ;
#613 = DIRECTION ( 'NONE',  ( 0.000000000000000000, 0.000000000000000000, 1.000000000000000000 ) ) ;
#614 = ORIENTED_EDGE ( 'NONE', *, *, #798, .F. ) ;
#615 = CARTESIAN_POINT ( 'NONE',  ( 61.00000000000000711, 17.67766952966374916, 121.9741340859450389 ) ) ;
#616 = LINE ( 'NONE', #1082, #232 ) ;
#617 = ORIENTED_EDGE ( 'NONE', *, *, #1161, .T. ) ;
#618 = DIRECTION ( 'NONE',  ( 0.000000000000000000, 0.000000000000000000, 1.000000000000000000 ) ) ;
#619 = CARTESIAN_POINT ( 'NONE',  ( 0.000000000000000000, 5.000000000000000000, 0.000000000000000000 ) ) ;
#620 = CARTESIAN_POINT ( 'NONE',  ( -7.750000000000036415, 0.000000000000000000, -5.500000000000016875 ) ) ;
#621 = VERTEX_POINT ( 'NONE', #172 ) ;
#622 = DIRECTION ( 'NONE',  ( -0.000000000000000000, -0.7071067811865490160, 0.7071067811865460184 ) ) ;
#623 = EDGE_CURVE ( 'NONE', #894, #868, #702, .T. ) ;
#624 = EDGE_LOOP ( 'NONE', ( #962, #1030, #854, #509 ) ) ;
#625 = DIRECTION ( 'NONE',  ( -0.000000000000000000, 1.000000000000000000, -0.000000000000000000 ) ) ;
#626 = AXIS2_PLACEMENT_3D ( 'NONE', #25, #646, #764 ) ;
#627 = FACE_OUTER_BOUND ( 'NONE', #918, .T. ) ;
#628 = VECTOR ( 'NONE', #779, 1000.000000000000000 ) ;
#629 = EDGE_LOOP ( 'NONE', ( #464, #296, #1073, #878 ) ) ;
#630 = DIRECTION ( 'NONE',  ( 0.000000000000000000, 0.000000000000000000, -1.000000000000000000 ) ) ;
#631 = EDGE_CURVE ( 'NONE', #524, #934, #190, .T. ) ;
#632 = ORIENTED_EDGE ( 'NONE', *, *, #423, .F. ) ;
#633 = CARTESIAN_POINT ( 'NONE',  ( 24.99999999999999289, 31.11091270347397497, 10.25304832720493486 ) ) ;
#634 = FACE_OUTER_BOUND ( 'NONE', #839, .T. ) ;
#635 = AXIS2_PLACEMENT_3D ( 'NONE', #502, #963, #883 ) ;
#636 = EDGE_LOOP ( 'NONE', ( #316, #385, #1103, #448 ) ) ;
#637 = CARTESIAN_POINT ( 'NONE',  ( 112.0000000000000000, 0.000000000000000000, 9.999999999999998224 ) ) ;
#638 = ADVANCED_BREP_SHAPE_REPRESENTATION ( 'ELP-0065', ( #1062, #882 ), #724 ) ;
#639 = ORIENTED_EDGE ( 'NONE', *, *, #974, .T. ) ;
#640 = LINE ( 'NONE', #169, #1170 ) ;
#641 = EDGE_CURVE ( 'NONE', #986, #765, #795, .T. ) ;
#642 = LINE ( 'NONE', #276, #92 ) ;
#643 = ORIENTED_EDGE ( 'NONE', *, *, #217, .F. ) ;
#644 = CARTESIAN_POINT ( 'NONE',  ( -7.750000000000036415, 5.000000000000000000, 161.5439392393395792 ) ) ;
#645 = VERTEX_POINT ( 'NONE', #637 ) ;
#646 = DIRECTION ( 'NONE',  ( -0.000000000000000000, 1.000000000000000000, -0.000000000000000000 ) ) ;
#647 = CARTESIAN_POINT ( 'NONE',  ( 60.99999999999998579, 43.48528137423844697, 65.05382386916237181 ) ) ;
#648 = VECTOR ( 'NONE', #948, 1000.000000000000000 ) ;
#649 = ORIENTED_EDGE ( 'NONE', *, *, #641, .T. ) ;
#650 = LINE ( 'NONE', #1022, #958 ) ;
#651 = ORIENTED_EDGE ( 'NONE', *, *, #205, .F. ) ;
#652 = LINE ( 'NONE', #110, #818 ) ;
#653 = FACE_OUTER_BOUND ( 'NONE', #1034, .T. ) ;
#654 = CARTESIAN_POINT ( 'NONE',  ( 0.000000000000000000, -17.85533905932736687, 17.85533905932730292 ) ) ;
#655 = VECTOR ( 'NONE', #93, 1000.000000000000000 ) ;
#656 = ORIENTED_EDGE ( 'NONE', *, *, #294, .T. ) ;
#657 = CARTESIAN_POINT ( 'NONE',  ( 129.7500000000000284, 5.000000000000000000, -7.750000000000032863 ) ) ;
#658 = LINE ( 'NONE', #957, #1076 ) ;
#659 = VERTEX_POINT ( 'NONE', #1115 ) ;
#660 = EDGE_LOOP ( 'NONE', ( #350, #197 ) ) ;
#661 = ADVANCED_FACE ( 'NONE', ( #178 ), #538, .F. ) ;
#662 = LINE ( 'NONE', #407, #1150 ) ;
#663 = DIRECTION ( 'NONE',  ( 0.000000000000000000, 0.7071067811865490160, -0.7071067811865461294 ) ) ;
#664 = DIRECTION ( 'NONE',  ( -1.000000000000000000, 0.000000000000000000, -1.826024711554533420E-16 ) ) ;
#665 = AXIS2_PLACEMENT_3D ( 'NONE', #153, #558, #812 ) ;
#666 = VERTEX_POINT ( 'NONE', #738 ) ;
#667 = PLANE ( 'NONE',  #511 ) ;
#668 = ORIENTED_EDGE ( 'NONE', *, *, #181, .T. ) ;
#669 = VECTOR ( 'NONE', #488, 1000.000000000000000 ) ;
#670 = EDGE_CURVE ( 'NONE', #532, #960, #650, .T. ) ;
#671 = CARTESIAN_POINT ( 'NONE',  ( 122.0000000000000000, 5.000000000000000000, 0.000000000000000000 ) ) ;
#672 = LINE ( 'NONE', #131, #580 ) ;
#673 = FACE_OUTER_BOUND ( 'NONE', #1069, .T. ) ;
#674 = ORIENTED_EDGE ( 'NONE', *, *, #367, .T. ) ;
#675 = FACE_OUTER_BOUND ( 'NONE', #185, .T. ) ;
#676 = ORIENTED_EDGE ( 'NONE', *, *, #915, .T. ) ;
#677 = VECTOR ( 'NONE', #1032, 1000.000000000000000 ) ;
#678 = FACE_OUTER_BOUND ( 'NONE', #530, .T. ) ;
#679 = EDGE_CURVE ( 'NONE', #965, #871, #1110, .T. ) ;
#680 = CARTESIAN_POINT ( 'NONE',  ( 122.0000000000000000, 5.000000000000000000, 0.000000000000000000 ) ) ;
#681 = DIRECTION ( 'NONE',  ( -0.000000000000000000, 0.000000000000000000, -1.000000000000000000 ) ) ;
#682 = ORIENTED_EDGE ( 'NONE', *, *, #428, .T. ) ;
#683 = DIRECTION ( 'NONE',  ( 0.000000000000000000, -1.000000000000000000, 0.000000000000000000 ) ) ;
#684 = CARTESIAN_POINT ( 'NONE',  ( 122.0000000000000000, 35.00000000000000000, 0.000000000000000000 ) ) ;
#685 = EDGE_CURVE ( 'NONE', #765, #271, #917, .T. ) ;
#686 = EDGE_LOOP ( 'NONE', ( #1159, #167, #725, #459 ) ) ;
#687 = DIRECTION ( 'NONE',  ( -0.000000000000000000, -0.7071067811865461294, -0.7071067811865489050 ) ) ;
#688 = CIRCLE ( 'NONE', #815, 9.999999999999989342 ) ;
#689 = VECTOR ( 'NONE', #896, 1000.000000000000000 ) ;
#690 = LINE ( 'NONE', #970, #1026 ) ;
#691 = DIRECTION ( 'NONE',  ( -1.826024711554533420E-16, 0.000000000000000000, 1.000000000000000000 ) ) ;
#692 = ORIENTED_EDGE ( 'NONE', *, *, #514, .F. ) ;
#693 = CARTESIAN_POINT ( 'NONE',  ( 25.00000000000000000, 55.85965004500301490, 77.42819253992699657 ) ) ;
#694 = CARTESIAN_POINT ( 'NONE',  ( 129.7500000000000284, 5.000000000000000888, -7.750000000000032863 ) ) ;
#695 = PLANE ( 'NONE',  #58 ) ;
#696 = ORIENTED_EDGE ( 'NONE', *, *, #423, .T. ) ;
#697 = DIRECTION ( 'NONE',  ( 0.000000000000000000, 0.7071067811865489050, -0.7071067811865461294 ) ) ;
#698 = EDGE_CURVE ( 'NONE', #470, #1095, #79, .T. ) ;
#699 = DIRECTION ( 'NONE',  ( 0.000000000000000000, 0.000000000000000000, 1.000000000000000000 ) ) ;
#700 = ORIENTED_EDGE ( 'NONE', *, *, #268, .T. ) ;
#701 = DIRECTION ( 'NONE',  ( -0.000000000000000000, 0.7071067811865462405, 0.7071067811865489050 ) ) ;
#702 = CIRCLE ( 'NONE', #400, 2.250000000000001776 ) ;
#703 = AXIS2_PLACEMENT_3D ( 'NONE', #340, #706, #595 ) ;
#704 = AXIS2_PLACEMENT_3D ( 'NONE', #170, #374, #180 ) ;
#705 = ADVANCED_FACE ( 'NONE', ( #288, #354 ), #10, .F. ) ;
#706 = DIRECTION ( 'NONE',  ( -1.000000000000000000, 8.920979878885067069E-17, 8.920979878885101582E-17 ) ) ;
#707 = EDGE_LOOP ( 'NONE', ( #32, #692, #830, #614 ) ) ;
#708 = CARTESIAN_POINT ( 'NONE',  ( 129.7500000000000853, 5.000000000000000888, 161.5439392393395508 ) ) ;
#709 = CARTESIAN_POINT ( 'NONE',  ( 14.99999999999999289, 2.826641456012020992, 38.53731957466677471 ) ) ;
#710 = VECTOR ( 'NONE', #999, 1000.000000000000000 ) ;
#711 = CARTESIAN_POINT ( 'NONE',  ( 106.9999999999999716, 87.32590180780441358, 52.32590180780462674 ) ) ;
#712 = ADVANCED_FACE ( 'NONE', ( #718 ), #265, .T. ) ;
#713 = ORIENTED_EDGE ( 'NONE', *, *, #1128, .F. ) ;
#714 = DIRECTION ( 'NONE',  ( -0.000000000000000000, 1.000000000000000000, -0.000000000000000000 ) ) ;
#715 =( LENGTH_UNIT ( ) NAMED_UNIT ( * ) SI_UNIT ( .MILLI., .METRE. ) );
#716 = EDGE_LOOP ( 'NONE', ( #996, #731, #171, #9 ) ) ;
#717 = ADVANCED_FACE ( 'NONE', ( #132 ), #30, .F. ) ;
#718 = FACE_OUTER_BOUND ( 'NONE', #372, .T. ) ;
#719 = ADVANCED_FACE ( 'NONE', ( #673 ), #104, .T. ) ;
#720 = FACE_OUTER_BOUND ( 'NONE', #243, .T. ) ;
#721 = CIRCLE ( 'NONE', #880, 9.999999999999989342 ) ;
#722 = DIRECTION ( 'NONE',  ( -0.000000000000000000, 0.7071067811865489050, -0.7071067811865462405 ) ) ;
#723 = AXIS2_PLACEMENT_3D ( 'NONE', #293, #1046, #867 ) ;
#724 =( GEOMETRIC_REPRESENTATION_CONTEXT ( 3 ) GLOBAL_UNCERTAINTY_ASSIGNED_CONTEXT ( ( #256 ) ) GLOBAL_UNIT_ASSIGNED_CONTEXT ( ( #291, #14, #747 ) ) REPRESENTATION_CONTEXT ( 'NONE', 'WORKASPACE' ) );
#725 = ORIENTED_EDGE ( 'NONE', *, *, #944, .T. ) ;
#726 = CARTESIAN_POINT ( 'NONE',  ( 106.9999999999999716, -17.85533905932736687, 17.85533905932730292 ) ) ;
#727 = ADVANCED_FACE ( 'NONE', ( #481, #953 ), #568, .F. ) ;
#728 = LINE ( 'NONE', #1010, #116 ) ;
#729 = FACE_OUTER_BOUND ( 'NONE', #593, .T. ) ;
#730 = VECTOR ( 'NONE', #434, 1000.000000000000000 ) ;
#731 = ORIENTED_EDGE ( 'NONE', *, *, #670, .F. ) ;
#732 = CARTESIAN_POINT ( 'NONE',  ( 9.999999999999994671, 0.000000000000000000, 153.7939392393395792 ) ) ;
#733 = ORIENTED_EDGE ( 'NONE', *, *, #1128, .T. ) ;
#734 = CARTESIAN_POINT ( 'NONE',  ( 0.000000000000000000, 5.000000000000000000, 0.000000000000000000 ) ) ;
#735 = EDGE_CURVE ( 'NONE', #605, #203, #1052, .T. ) ;
#736 = CYLINDRICAL_SURFACE ( 'NONE', #1132, 9.999999999999989342 ) ;
#737 = ORIENTED_EDGE ( 'NONE', *, *, #145, .F. ) ;
#738 = CARTESIAN_POINT ( 'NONE',  ( 60.99999999999998579, 29.34314575050754925, 50.91168824543141369 ) ) ;
#739 = EDGE_LOOP ( 'NONE', ( #500, #1122, #968, #136 ) ) ;
#740 = DIRECTION ( 'NONE',  ( 0.000000000000000000, 0.000000000000000000, 1.000000000000000000 ) ) ;
#741 = VECTOR ( 'NONE', #100, 1000.000000000000000 ) ;
#742 = CARTESIAN_POINT ( 'NONE',  ( 61.00000000000000711, 38.89087296526011528, 157.3294731452724591 ) ) ;
#743 = CARTESIAN_POINT ( 'NONE',  ( 137.0000000000000000, 5.000000000000000000, 168.7939392393395508 ) ) ;
#744 = VECTOR ( 'NONE', #664, 1000.000000000000000 ) ;
#745 = VERTEX_POINT ( 'NONE', #684 ) ;
#746 = ORIENTED_EDGE ( 'NONE', *, *, #1043, .T. ) ;
#747 =( NAMED_UNIT ( * ) SI_UNIT ( $, .STERADIAN. ) SOLID_ANGLE_UNIT ( ) );
#748 = LINE ( 'NONE', #292, #677 ) ;
#749 = LINE ( 'NONE', #577, #921 ) ;
#750 = ADVANCED_FACE ( 'NONE', ( #497 ), #124, .T. ) ;
#751 = CIRCLE ( 'NONE', #823, 2.250000000000000444 ) ;
#752 = VERTEX_POINT ( 'NONE', #583 ) ;
#753 = DIRECTION ( 'NONE',  ( 0.000000000000000000, 0.7071067811865463515, 0.7071067811865487940 ) ) ;
#754 = DIRECTION ( 'NONE',  ( 0.000000000000000000, 0.000000000000000000, 1.000000000000000000 ) ) ;
#755 = CARTESIAN_POINT ( 'NONE',  ( 106.9999999999999716, 16.96877707974297067, 38.53731957466681024 ) ) ;
#756 = EDGE_CURVE ( 'NONE', #965, #393, #853, .T. ) ;
#757 = CARTESIAN_POINT ( 'NONE',  ( 122.0000000000000000, 94.39696961966988908, 59.39696961967012356 ) ) ;
#758 = ORIENTED_EDGE ( 'NONE', *, *, #117, .F. ) ;
#759 = DIRECTION ( 'NONE',  ( -0.000000000000000000, 1.000000000000000000, -0.000000000000000000 ) ) ;
#760 = LINE ( 'NONE', #952, #347 ) ;
#761 = DIRECTION ( 'NONE',  ( 1.261617073437677506E-16, 0.7071067811865461294, 0.7071067811865489050 ) ) ;
#762 = CIRCLE ( 'NONE', #548, 2.250000000000001776 ) ;
#763 = VERTEX_POINT ( 'NONE', #233 ) ;
#764 = DIRECTION ( 'NONE',  ( 0.000000000000000000, 0.000000000000000000, 1.000000000000000000 ) ) ;
#765 = VERTEX_POINT ( 'NONE', #468 ) ;
#766 = AXIS2_PLACEMENT_3D ( 'NONE', #903, #176, #1178 ) ;
#767 = EDGE_CURVE ( 'NONE', #897, #605, #860, .T. ) ;
#768 = LINE ( 'NONE', #394, #495 ) ;
#769 = CARTESIAN_POINT ( 'NONE',  ( 122.0000000000000000, 35.00000000000000000, 0.000000000000000000 ) ) ;
#770 = CARTESIAN_POINT ( 'NONE',  ( 15.00000000000000000, 80.25483399593892386, 59.39696961967008804 ) ) ;
#771 = EDGE_LOOP ( 'NONE', ( #515, #284, #1086, #485 ) ) ;
#772 = FACE_BOUND ( 'NONE', #1024, .T. ) ;
#773 = VERTEX_POINT ( 'NONE', #224 ) ;
#774 = ADVANCED_FACE ( 'NONE', ( #588 ), #22, .F. ) ;
#775 = DIRECTION ( 'NONE',  ( 0.000000000000000000, 0.7071067811865464625, 0.7071067811865485719 ) ) ;
#776 = ORIENTED_EDGE ( 'NONE', *, *, #1173, .T. ) ;
#777 = LINE ( 'NONE', #555, #206 ) ;
#778 = EDGE_LOOP ( 'NONE', ( #24, #849 ) ) ;
#779 = DIRECTION ( 'NONE',  ( 0.000000000000000000, 0.000000000000000000, 1.000000000000000000 ) ) ;
#780 = VERTEX_POINT ( 'NONE', #770 ) ;
#781 = FACE_OUTER_BOUND ( 'NONE', #792, .T. ) ;
#782 = AXIS2_PLACEMENT_3D ( 'NONE', #966, #391, #214 ) ;
#783 = AXIS2_PLACEMENT_3D ( 'NONE', #1012, #1006, #1172 ) ;
#784 = PLANE ( 'NONE',  #881 ) ;
#785 = ORIENTED_EDGE ( 'NONE', *, *, #181, .F. ) ;
#786 = EDGE_CURVE ( 'NONE', #277, #471, #658, .T. ) ;
#787 = LINE ( 'NONE', #510, #12 ) ;
#788 = FACE_BOUND ( 'NONE', #933, .T. ) ;
#789 = ORIENTED_EDGE ( 'NONE', *, *, #373, .F. ) ;
#790 = DIRECTION ( 'NONE',  ( 0.000000000000000000, 0.7071067811865464625, 0.7071067811865485719 ) ) ;
#791 = DIRECTION ( 'NONE',  ( -0.000000000000000000, 1.000000000000000000, 0.000000000000000000 ) ) ;
#792 = EDGE_LOOP ( 'NONE', ( #682, #182, #378, #191 ) ) ;
#793 = CARTESIAN_POINT ( 'NONE',  ( 9.999999999999994671, 0.000000000000000000, 9.999999999999998224 ) ) ;
#794 = ORIENTED_EDGE ( 'NONE', *, *, #82, .F. ) ;
#795 = CIRCLE ( 'NONE', #551, 9.999999999999984013 ) ;
#796 =( GEOMETRIC_REPRESENTATION_CONTEXT ( 3 ) GLOBAL_UNCERTAINTY_ASSIGNED_CONTEXT ( ( #892 ) ) GLOBAL_UNIT_ASSIGNED_CONTEXT ( ( #715, #817, #369 ) ) REPRESENTATION_CONTEXT ( 'NONE', 'WORKASPACE' ) );
#797 = LINE ( 'NONE', #450, #216 ) ;
#798 = EDGE_CURVE ( 'NONE', #645, #659, #1138, .T. ) ;
#799 = CARTESIAN_POINT ( 'NONE',  ( 137.0000000000000000, 0.000000000000000000, -15.00000000000000000 ) ) ;
#800 = ORIENTED_EDGE ( 'NONE', *, *, #145, .T. ) ;
#801 = LINE ( 'NONE', #879, #107 ) ;
#802 = PRODUCT_DEFINITION_CONTEXT ( 'detailed design', #41, 'design' ) ;
#803 = ORIENTED_EDGE ( 'NONE', *, *, #289, .T. ) ;
#804 = FACE_OUTER_BOUND ( 'NONE', #259, .T. ) ;
#805 = AXIS2_PLACEMENT_3D ( 'NONE', #987, #174, #1081 ) ;
#806 = EDGE_CURVE ( 'NONE', #1154, #579, #749, .T. ) ;
#807 = SURFACE_STYLE_FILL_AREA ( #446 ) ;
#808 = ORIENTED_EDGE ( 'NONE', *, *, #160, .T. ) ;
#809 = CARTESIAN_POINT ( 'NONE',  ( 129.7500000000000853, 0.000000000000000000, 161.5439392393395508 ) ) ;
#810 = DIRECTION ( 'NONE',  ( 0.000000000000000000, 0.000000000000000000, -1.000000000000000000 ) ) ;
#811 = ORIENTED_EDGE ( 'NONE', *, *, #489, .F. ) ;
#812 = DIRECTION ( 'NONE',  ( 0.000000000000000000, 0.000000000000000000, 1.000000000000000000 ) ) ;
#813 = EDGE_CURVE ( 'NONE', #605, #532, #409, .T. ) ;
#814 = DIRECTION ( 'NONE',  ( -1.000000000000000000, 0.000000000000000000, 0.000000000000000000 ) ) ;
#815 = AXIS2_PLACEMENT_3D ( 'NONE', #458, #1094, #1108 ) ;
#816 = FACE_BOUND ( 'NONE', #213, .T. ) ;
#817 =( NAMED_UNIT ( * ) PLANE_ANGLE_UNIT ( ) SI_UNIT ( $, .RADIAN. ) );
#818 = VECTOR ( 'NONE', #479, 1000.000000000000000 ) ;
#819 = VERTEX_POINT ( 'NONE', #112 ) ;
#820 = DIRECTION ( 'NONE',  ( 1.000000000000000000, -0.000000000000000000, 1.141265444721583511E-16 ) ) ;
#821 = CARTESIAN_POINT ( 'NONE',  ( 137.0000000000000000, 5.000000000000000000, -15.00000000000000000 ) ) ;
#822 = FILL_AREA_STYLE_COLOUR ( '', #248 ) ;
#823 = AXIS2_PLACEMENT_3D ( 'NONE', #263, #625, #368 ) ;
#824 = ORIENTED_EDGE ( 'NONE', *, *, #552, .T. ) ;
#825 = DIRECTION ( 'NONE',  ( -0.000000000000000000, 1.000000000000000000, -0.000000000000000000 ) ) ;
#826 = ORIENTED_EDGE ( 'NONE', *, *, #229, .T. ) ;
#827 = CARTESIAN_POINT ( 'NONE',  ( -15.00000000000001421, 5.000000000000000000, -15.00000000000001599 ) ) ;
#828 = ORIENTED_EDGE ( 'NONE', *, *, #507, .F. ) ;
#829 = CARTESIAN_POINT ( 'NONE',  ( 137.0000000000000000, 0.000000000000000000, -15.00000000000000000 ) ) ;
#830 = ORIENTED_EDGE ( 'NONE', *, *, #924, .F. ) ;
#831 = EDGE_CURVE ( 'NONE', #410, #412, #119, .T. ) ;
#832 = DIRECTION ( 'NONE',  ( 0.000000000000000000, 0.7071067811865490160, -0.7071067811865461294 ) ) ;
#833 = AXIS2_PLACEMENT_3D ( 'NONE', #1002, #911, #1033 ) ;
#834 = CARTESIAN_POINT ( 'NONE',  ( 14.99999999999999467, 38.18198051533943271, 17.32411613907042636 ) ) ;
#835 = DIRECTION ( 'NONE',  ( 0.000000000000000000, 0.000000000000000000, 1.000000000000000000 ) ) ;
#836 = AXIS2_PLACEMENT_3D ( 'NONE', #858, #832, #753 ) ;
#837 = VECTOR ( 'NONE', #931, 1000.000000000000000 ) ;
#838 = VERTEX_POINT ( 'NONE', #396 ) ;
#839 = EDGE_LOOP ( 'NONE', ( #1, #143, #733, #560 ) ) ;
#840 = EDGE_LOOP ( 'NONE', ( #828, #925 ) ) ;
#841 = CARTESIAN_POINT ( 'NONE',  ( 60.99999999999998579, 15.20101012677650409, 93.33809511662421698 ) ) ;
#842 = ADVANCED_FACE ( 'NONE', ( #1131, #309, #788, #246, #988, #150 ), #695, .F. ) ;
#843 = CARTESIAN_POINT ( 'NONE',  ( 96.99999999999997158, 16.96877707974297067, 38.53731957466681024 ) ) ;
#844 = CARTESIAN_POINT ( 'NONE',  ( 137.0000000000000000, 0.000000000000000000, 168.7939392393395508 ) ) ;
#845 = EDGE_CURVE ( 'NONE', #471, #1035, #616, .T. ) ;
#846 = AXIS2_PLACEMENT_3D ( 'NONE', #859, #663, #103 ) ;
#847 = ORIENTED_EDGE ( 'NONE', *, *, #930, .T. ) ;
#848 = FACE_BOUND ( 'NONE', #1135, .T. ) ;
#849 = ORIENTED_EDGE ( 'NONE', *, *, #268, .F. ) ;
#850 = ORIENTED_EDGE ( 'NONE', *, *, #685, .F. ) ;
#851 = CARTESIAN_POINT ( 'NONE',  ( 137.0000000000000000, 5.000000000000000000, 168.7939392393395508 ) ) ;
#852 = DIRECTION ( 'NONE',  ( -0.000000000000000000, -0.7071067811865461294, -0.7071067811865489050 ) ) ;
#853 = LINE ( 'NONE', #202, #669 ) ;
#854 = ORIENTED_EDGE ( 'NONE', *, *, #534, .T. ) ;
#855 = EDGE_CURVE ( 'NONE', #148, #1116, #1068, .T. ) ;
#856 = DIRECTION ( 'NONE',  ( -0.000000000000000000, 1.000000000000000000, -0.000000000000000000 ) ) ;
#857 = ORIENTED_EDGE ( 'NONE', *, *, #798, .T. ) ;
#858 = CARTESIAN_POINT ( 'NONE',  ( 60.99999999999998579, 29.34314575050750662, 65.05382386916235760 ) ) ;
#859 = CARTESIAN_POINT ( 'NONE',  ( 60.99999999999998579, 29.34314575050750662, 65.05382386916235760 ) ) ;
#860 = LINE ( 'NONE', #946, #980 ) ;
#861 = CIRCLE ( 'NONE', #1058, 2.250000000000001776 ) ;
#862 = AXIS2_PLACEMENT_3D ( 'NONE', #600, #971, #508 ) ;
#863 = ORIENTED_EDGE ( 'NONE', *, *, #974, .F. ) ;
#864 = FACE_BOUND ( 'NONE', #549, .T. ) ;
#865 = ADVANCED_FACE ( 'NONE', ( #1072 ), #71, .T. ) ;
#866 = CARTESIAN_POINT ( 'NONE',  ( 61.00000000000000711, 10.60660171779826477, 129.0452018978105002 ) ) ;
#867 = DIRECTION ( 'NONE',  ( 0.000000000000000000, -0.7071067811865462405, -0.7071067811865489050 ) ) ;
#868 = VERTEX_POINT ( 'NONE', #242 ) ;
#869 = DIRECTION ( 'NONE',  ( -0.000000000000000000, 1.000000000000000000, -0.000000000000000000 ) ) ;
#870 = AXIS2_PLACEMENT_3D ( 'NONE', #657, #1137, #223 ) ;
#871 = VERTEX_POINT ( 'NONE', #503 ) ;
#872 = CARTESIAN_POINT ( 'NONE',  ( 122.0000000000000000, 0.000000000000000000, 153.7939392393395792 ) ) ;
#873 = ORIENTED_EDGE ( 'NONE', *, *, #337, .T. ) ;
#874 = DIRECTION ( 'NONE',  ( 1.000000000000000000, 0.000000000000000000, -0.000000000000000000 ) ) ;
#875 = EDGE_CURVE ( 'NONE', #412, #838, #964, .T. ) ;
#876 = DIRECTION ( 'NONE',  ( 0.000000000000000000, -0.7071067811865491270, 0.7071067811865459074 ) ) ;
#877 = CARTESIAN_POINT ( 'NONE',  ( 10.00000000000000000, 0.000000000000000000, 9.999999999999998224 ) ) ;
#878 = ORIENTED_EDGE ( 'NONE', *, *, #217, .T. ) ;
#879 = CARTESIAN_POINT ( 'NONE',  ( 9.999999999999994671, 87.32590180780441358, 52.32590180780462674 ) ) ;
#880 = AXIS2_PLACEMENT_3D ( 'NONE', #1155, #73, #790 ) ;
#881 = AXIS2_PLACEMENT_3D ( 'NONE', #1153, #328, #146 ) ;
#882 = AXIS2_PLACEMENT_3D ( 'NONE', #1056, #231, #608 ) ;
#883 = DIRECTION ( 'NONE',  ( 0.000000000000000000, 0.000000000000000000, 1.000000000000000000 ) ) ;
#884 = CARTESIAN_POINT ( 'NONE',  ( 122.0000000000000000, 0.000000000000000000, 9.999999999999998224 ) ) ;
#885 = EDGE_CURVE ( 'NONE', #819, #410, #982, .T. ) ;
#886 = ORIENTED_EDGE ( 'NONE', *, *, #109, .T. ) ;
#887 = DIRECTION ( 'NONE',  ( 0.000000000000000000, -0.7071067811865461294, -0.7071067811865490160 ) ) ;
#888 = AXIS2_PLACEMENT_3D ( 'NONE', #467, #39, #754 ) ;
#889 = CARTESIAN_POINT ( 'NONE',  ( 15.00000000000000178, 59.04163056034244761, 80.61017305526647192 ) ) ;
#890 = ORIENTED_EDGE ( 'NONE', *, *, #679, .F. ) ;
#891 = DIRECTION ( 'NONE',  ( 0.000000000000000000, -0.7071067811865489050, 0.7071067811865462405 ) ) ;
#892 = UNCERTAINTY_MEASURE_WITH_UNIT (LENGTH_MEASURE( 1.000000000000000082E-05 ), #715, 'distance_accuracy_value', 'NONE');
#893 = EDGE_CURVE ( 'NONE', #780, #1083, #142, .T. ) ;
#894 = VERTEX_POINT ( 'NONE', #334 ) ;
#895 = DIRECTION ( 'NONE',  ( 0.000000000000000000, 0.7071067811865489050, -0.7071067811865462405 ) ) ;
#896 = DIRECTION ( 'NONE',  ( 0.000000000000000000, 0.7071067811865462405, 0.7071067811865489050 ) ) ;
#897 = VERTEX_POINT ( 'NONE', #252 ) ;
#898 = DIRECTION ( 'NONE',  ( 0.000000000000000000, 0.000000000000000000, 1.000000000000000000 ) ) ;
#899 = ORIENTED_EDGE ( 'NONE', *, *, #930, .F. ) ;
#900 = AXIS2_PLACEMENT_3D ( 'NONE', #693, #701, #891 ) ;
#901 = VECTOR ( 'NONE', #611, 1000.000000000000114 ) ;
#902 = DIRECTION ( 'NONE',  ( 0.000000000000000000, 0.000000000000000000, -1.000000000000000000 ) ) ;
#903 = CARTESIAN_POINT ( 'NONE',  ( 122.0000000000000000, 0.000000000000000000, 0.000000000000000000 ) ) ;
#904 = ORIENTED_EDGE ( 'NONE', *, *, #893, .T. ) ;
#905 = FACE_OUTER_BOUND ( 'NONE', #739, .T. ) ;
#906 = ORIENTED_EDGE ( 'NONE', *, *, #599, .T. ) ;
#907 = CARTESIAN_POINT ( 'NONE',  ( 96.99999999999997158, 16.96877707974297067, 38.53731957466681024 ) ) ;
#908 = VECTOR ( 'NONE', #235, 1000.000000000000000 ) ;
#909 = CARTESIAN_POINT ( 'NONE',  ( 60.99999999999998579, 8.129942314911046353, 86.26702730475874148 ) ) ;
#910 = EDGE_LOOP ( 'NONE', ( #301, #152, #758, #1163 ) ) ;
#911 = DIRECTION ( 'NONE',  ( 1.141265444721583511E-16, 0.000000000000000000, -1.000000000000000000 ) ) ;
#912 = CARTESIAN_POINT ( 'NONE',  ( 122.0000000000000000, 51.97056274847697210, 87.68124086713191900 ) ) ;
#913 = SURFACE_STYLE_USAGE ( .BOTH. , #94 ) ;
#914 = PRODUCT ( 'ELP-0065', 'ELP-0065', '', ( #326 ) ) ;
#915 = EDGE_CURVE ( 'NONE', #1187, #838, #157, .T. ) ;
#916 = VERTEX_POINT ( 'NONE', #523 ) ;
#917 = LINE ( 'NONE', #563, #74 ) ;
#918 = EDGE_LOOP ( 'NONE', ( #189, #465, #222, #1141 ) ) ;
#919 = AXIS2_PLACEMENT_3D ( 'NONE', #1016, #121, #188 ) ;
#920 = DIRECTION ( 'NONE',  ( 0.000000000000000000, -0.7071067811865462405, -0.7071067811865489050 ) ) ;
#921 = VECTOR ( 'NONE', #475, 1000.000000000000000 ) ;
#922 = ORIENTED_EDGE ( 'NONE', *, *, #574, .F. ) ;
#923 = FACE_OUTER_BOUND ( 'NONE', #196, .T. ) ;
#924 = EDGE_CURVE ( 'NONE', #659, #589, #66, .T. ) ;
#925 = ORIENTED_EDGE ( 'NONE', *, *, #590, .F. ) ;
#926 = CARTESIAN_POINT ( 'NONE',  ( 112.0000000000000000, 0.000000000000000000, 139.6518036156086566 ) ) ;
#927 = ORIENTED_EDGE ( 'NONE', *, *, #875, .F. ) ;
#928 = DIRECTION ( 'NONE',  ( -0.000000000000000000, -0.7071067811865461294, -0.7071067811865489050 ) ) ;
#929 = ORIENTED_EDGE ( 'NONE', *, *, #806, .F. ) ;
#930 = EDGE_CURVE ( 'NONE', #310, #1083, #1167, .T. ) ;
#931 = DIRECTION ( 'NONE',  ( -1.000000000000000000, 0.000000000000000000, 0.000000000000000000 ) ) ;
#932 = CYLINDRICAL_SURFACE ( 'NONE', #888, 2.250000000000001776 ) ;
#933 = EDGE_LOOP ( 'NONE', ( #204, #972 ) ) ;
#934 = VERTEX_POINT ( 'NONE', #877 ) ;
#935 = ADVANCED_FACE ( 'NONE', ( #1147 ), #56, .T. ) ;
#936 = DIRECTION ( 'NONE',  ( 0.000000000000000000, 0.000000000000000000, 1.000000000000000000 ) ) ;
#937 = VECTOR ( 'NONE', #1080, 1000.000000000000000 ) ;
#938 = DIRECTION ( 'NONE',  ( 0.000000000000000000, 1.000000000000000000, 0.000000000000000000 ) ) ;
#939 = DIRECTION ( 'NONE',  ( 1.000000000000000000, 0.000000000000000000, 0.000000000000000000 ) ) ;
#940 = AXIS2_PLACEMENT_3D ( 'NONE', #1044, #286, #1129 ) ;
#941 = CARTESIAN_POINT ( 'NONE',  ( 106.9999999999999716, 2.826641456012020992, 38.53731957466677471 ) ) ;
#942 = EDGE_LOOP ( 'NONE', ( #234, #88, #554, #318 ) ) ;
#943 = CARTESIAN_POINT ( 'NONE',  ( -15.00000000000001421, 5.000000000000000000, -15.00000000000001599 ) ) ;
#944 = EDGE_CURVE ( 'NONE', #579, #355, #207, .T. ) ;
#945 = DIRECTION ( 'NONE',  ( -1.000000000000000000, 8.920979878885067069E-17, 8.920979878885101582E-17 ) ) ;
#946 = CARTESIAN_POINT ( 'NONE',  ( 24.99999999999999289, 16.96877707974297067, 38.53731957466681024 ) ) ;
#947 = VECTOR ( 'NONE', #211, 1000.000000000000114 ) ;
#948 = DIRECTION ( 'NONE',  ( 0.000000000000000000, 1.000000000000000000, 0.000000000000000000 ) ) ;
#949 = ORIENTED_EDGE ( 'NONE', *, *, #735, .F. ) ;
#950 = ORIENTED_EDGE ( 'NONE', *, *, #7, .T. ) ;
#951 = CARTESIAN_POINT ( 'NONE',  ( 129.7500000000000853, 5.000000000000000000, 163.7939392393395508 ) ) ;
#952 = CARTESIAN_POINT ( 'NONE',  ( 25.00000000000000000, 84.14392129246496665, 49.14392129246515850 ) ) ;
#953 = FACE_OUTER_BOUND ( 'NONE', #498, .T. ) ;
#954 = ADVANCED_FACE ( 'NONE', ( #419 ), #784, .F. ) ;
#955 = CARTESIAN_POINT ( 'NONE',  ( 129.7500000000000853, 5.000000000000000888, 159.2939392393395508 ) ) ;
#956 = CARTESIAN_POINT ( 'NONE',  ( 0.000000000000000000, 35.00000000000000000, 0.000000000000000000 ) ) ;
#957 = CARTESIAN_POINT ( 'NONE',  ( 96.99999999999997158, 16.96877707974297067, 38.53731957466681024 ) ) ;
#958 = VECTOR ( 'NONE', #1101, 1000.000000000000000 ) ;
#959 = VECTOR ( 'NONE', #138, 1000.000000000000000 ) ;
#960 = VERTEX_POINT ( 'NONE', #604 ) ;
#961 = FACE_BOUND ( 'NONE', #1048, .T. ) ;
#962 = ORIENTED_EDGE ( 'NONE', *, *, #453, .T. ) ;
#963 = DIRECTION ( 'NONE',  ( -0.000000000000000000, 1.000000000000000000, -0.000000000000000000 ) ) ;
#964 = LINE ( 'NONE', #518, #1090 ) ;
#965 = VERTEX_POINT ( 'NONE', #976 ) ;
#966 = CARTESIAN_POINT ( 'NONE',  ( 10.00000000000000000, 0.000000000000000000, 0.000000000000000000 ) ) ;
#967 = VECTOR ( 'NONE', #456, 1000.000000000000000 ) ;
#968 = ORIENTED_EDGE ( 'NONE', *, *, #117, .T. ) ;
#969 = EDGE_CURVE ( 'NONE', #645, #934, #513, .T. ) ;
#970 = CARTESIAN_POINT ( 'NONE',  ( 0.000000000000000000, 94.39696961966988908, 59.39696961967012356 ) ) ;
#971 = DIRECTION ( 'NONE',  ( -0.000000000000000000, 1.000000000000000000, -0.000000000000000000 ) ) ;
#972 = ORIENTED_EDGE ( 'NONE', *, *, #1148, .T. ) ;
#973 = CARTESIAN_POINT ( 'NONE',  ( 129.7500000000000284, 0.000000000000000000, -7.750000000000032863 ) ) ;
#974 = EDGE_CURVE ( 'NONE', #312, #1021, #1039, .T. ) ;
#975 = DIRECTION ( 'NONE',  ( -0.000000000000000000, 1.000000000000000000, -0.000000000000000000 ) ) ;
#976 = CARTESIAN_POINT ( 'NONE',  ( 129.7500000000000853, 0.000000000000000000, 159.2939392393395508 ) ) ;
#977 = ORIENTED_EDGE ( 'NONE', *, *, #610, .T. ) ;
#978 = DIRECTION ( 'NONE',  ( -0.000000000000000000, 1.000000000000000000, -0.000000000000000000 ) ) ;
#979 = VECTOR ( 'NONE', #820, 1000.000000000000000 ) ;
#980 = VECTOR ( 'NONE', #761, 1000.000000000000114 ) ;
#981 = SHAPE_DEFINITION_REPRESENTATION ( #556, #638 ) ;
#982 = LINE ( 'NONE', #799, #628 ) ;
#983 = EDGE_CURVE ( 'NONE', #621, #355, #642, .T. ) ;
#984 = ORIENTED_EDGE ( 'NONE', *, *, #1180, .T. ) ;
#985 = CARTESIAN_POINT ( 'NONE',  ( -7.750000000000036415, 5.000000000000000888, 159.2939392393395792 ) ) ;
#986 = VERTEX_POINT ( 'NONE', #528 ) ;
#987 = CARTESIAN_POINT ( 'NONE',  ( 122.0000000000000000, 94.39696961966988908, 59.39696961967012356 ) ) ;
#988 = FACE_BOUND ( 'NONE', #636, .T. ) ;
#989 = ORIENTED_EDGE ( 'NONE', *, *, #160, .F. ) ;
#990 = ADVANCED_FACE ( 'NONE', ( #83 ), #1019, .F. ) ;
#991 = PLANE ( 'NONE',  #900 ) ;
#992 = PLANE ( 'NONE',  #1118 ) ;
#993 = PLANE ( 'NONE',  #401 ) ;
#994 = EDGE_LOOP ( 'NONE', ( #1133, #789, #122, #220 ) ) ;
#995 = DIRECTION ( 'NONE',  ( 0.000000000000000000, 0.7071067811865489050, -0.7071067811865462405 ) ) ;
#996 = ORIENTED_EDGE ( 'NONE', *, *, #84, .T. ) ;
#997 = VECTOR ( 'NONE', #521, 1000.000000000000000 ) ;
#998 = CIRCLE ( 'NONE', #472, 2.250000000000001776 ) ;
#999 = DIRECTION ( 'NONE',  ( -1.000000000000000000, 0.000000000000000000, 0.000000000000000000 ) ) ;
#1000 = CARTESIAN_POINT ( 'NONE',  ( 24.99999999999999289, 9.897709267877509376, 31.46625176280131697 ) ) ;
#1001 = ORIENTED_EDGE ( 'NONE', *, *, #466, .F. ) ;
#1002 = CARTESIAN_POINT ( 'NONE',  ( 137.0000000000000000, 5.000000000000000000, -15.00000000000000000 ) ) ;
#1003 = LINE ( 'NONE', #445, #47 ) ;
#1004 = ADVANCED_FACE ( 'NONE', ( #627 ), #1186, .F. ) ;
#1005 = VECTOR ( 'NONE', #1038, 1000.000000000000000 ) ;
#1006 = DIRECTION ( 'NONE',  ( -0.000000000000000000, 1.000000000000000000, -0.000000000000000000 ) ) ;
#1007 = VERTEX_POINT ( 'NONE', #926 ) ;
#1008 = CARTESIAN_POINT ( 'NONE',  ( 112.0000000000000000, 80.25483399593892386, 59.39696961967008804 ) ) ;
#1009 = ORIENTED_EDGE ( 'NONE', *, *, #623, .T. ) ;
#1010 = CARTESIAN_POINT ( 'NONE',  ( 122.0000000000000000, 0.000000000000000000, 139.6518036156086566 ) ) ;
#1011 = PRODUCT_RELATED_PRODUCT_CATEGORY ( 'part', '', ( #914 ) ) ;
#1012 = CARTESIAN_POINT ( 'NONE',  ( 129.7500000000000853, 5.000000000000000000, 161.5439392393395508 ) ) ;
#1013 = EDGE_LOOP ( 'NONE', ( #863, #421, #700, #1041 ) ) ;
#1014 = CARTESIAN_POINT ( 'NONE',  ( -7.750000000000036415, 5.000000000000000888, -10.00000000000001599 ) ) ;
#1015 = ORIENTED_EDGE ( 'NONE', *, *, #501, .F. ) ;
#1016 = CARTESIAN_POINT ( 'NONE',  ( 61.00000000000000711, 24.74873734152918558, 129.0452018978105286 ) ) ;
#1017 = VECTOR ( 'NONE', #416, 1000.000000000000000 ) ;
#1018 = AXIS2_PLACEMENT_3D ( 'NONE', #357, #461, #1099 ) ;
#1019 = CYLINDRICAL_SURFACE ( 'NONE', #108, 2.249999999999999556 ) ;
#1020 = VECTOR ( 'NONE', #115, 1000.000000000000000 ) ;
#1021 = VERTEX_POINT ( 'NONE', #620 ) ;
#1022 = CARTESIAN_POINT ( 'NONE',  ( 96.99999999999997158, 55.85965004500301490, 77.42819253992699657 ) ) ;
#1023 = ADVANCED_FACE ( 'NONE', ( #352 ), #162, .F. ) ;
#1024 = EDGE_LOOP ( 'NONE', ( #989, #483 ) ) ;
#1025 = CARTESIAN_POINT ( 'NONE',  ( 15.00000000000000178, 51.97056274847695789, 87.68124086713191900 ) ) ;
#1026 = VECTOR ( 'NONE', #876, 1000.000000000000000 ) ;
#1027 = DIRECTION ( 'NONE',  ( 0.000000000000000000, 0.7071067811865461294, 0.7071067811865489050 ) ) ;
#1028 = DIRECTION ( 'NONE',  ( 0.000000000000000000, 0.7071067811865461294, 0.7071067811865489050 ) ) ;
#1029 = ADVANCED_FACE ( 'NONE', ( #98, #729 ), #258, .T. ) ;
#1030 = ORIENTED_EDGE ( 'NONE', *, *, #380, .T. ) ;
#1031 = APPLICATION_PROTOCOL_DEFINITION ( 'draft international standard', 'automotive_design', 1998, #598 ) ;
#1032 = DIRECTION ( 'NONE',  ( -0.000000000000000000, 1.000000000000000000, -0.000000000000000000 ) ) ;
#1033 = DIRECTION ( 'NONE',  ( -1.000000000000000000, 0.000000000000000000, -1.141265444721583511E-16 ) ) ;
#1034 = EDGE_LOOP ( 'NONE', ( #886, #949, #228, #59 ) ) ;
#1035 = VERTEX_POINT ( 'NONE', #451 ) ;
#1036 = CARTESIAN_POINT ( 'NONE',  ( 129.7500000000000284, 0.000000000000000000, -7.750000000000032863 ) ) ;
#1037 = CIRCLE ( 'NONE', #626, 2.250000000000001776 ) ;
#1038 = DIRECTION ( 'NONE',  ( 0.000000000000000000, -1.000000000000000000, 0.000000000000000000 ) ) ;
#1039 = CIRCLE ( 'NONE', #361, 2.249999999999999556 ) ;
#1040 = DIRECTION ( 'NONE',  ( 0.000000000000000000, 0.7071067811865462405, 0.7071067811865489050 ) ) ;
#1041 = ORIENTED_EDGE ( 'NONE', *, *, #151, .F. ) ;
#1042 = ORIENTED_EDGE ( 'NONE', *, *, #540, .F. ) ;
#1043 = EDGE_CURVE ( 'NONE', #355, #579, #341, .T. ) ;
#1044 = CARTESIAN_POINT ( 'NONE',  ( 24.99999999999999289, 16.96877707974297067, 38.53731957466681024 ) ) ;
#1045 = CARTESIAN_POINT ( 'NONE',  ( 60.99999999999998579, 36.41421356237296436, 72.12489168102784731 ) ) ;
#1046 = DIRECTION ( 'NONE',  ( 0.000000000000000000, -0.7071067811865489050, 0.7071067811865462405 ) ) ;
#1047 = VECTOR ( 'NONE', #1027, 1000.000000000000114 ) ;
#1048 = EDGE_LOOP ( 'NONE', ( #1015, #295 ) ) ;
#1049 = LINE ( 'NONE', #311, #230 ) ;
#1050 = DIRECTION ( 'NONE',  ( -1.000000000000000000, -0.000000000000000000, -0.000000000000000000 ) ) ;
#1051 = DIRECTION ( 'NONE',  ( -0.000000000000000000, -0.7071067811865461294, -0.7071067811865489050 ) ) ;
#1052 = LINE ( 'NONE', #300, #13 ) ;
#1053 = EDGE_LOOP ( 'NONE', ( #101, #353 ) ) ;
#1054 = CARTESIAN_POINT ( 'NONE',  ( -15.00000000000001421, 0.000000000000000000, 168.7939392393395224 ) ) ;
#1055 = ORIENTED_EDGE ( 'NONE', *, *, #944, .F. ) ;
#1056 = CARTESIAN_POINT ( 'NONE',  ( 0.000000000000000000, 0.000000000000000000, 0.000000000000000000 ) ) ;
#1057 = DIRECTION ( 'NONE',  ( 0.000000000000000000, -0.7071067811865462405, -0.7071067811865489050 ) ) ;
#1058 = AXIS2_PLACEMENT_3D ( 'NONE', #708, #330, #1065 ) ;
#1059 = EDGE_LOOP ( 'NONE', ( #364, #1127, #397, #906 ) ) ;
#1060 = ADVANCED_FACE ( 'NONE', ( #547 ), #993, .T. ) ;
#1061 = PLANE ( 'NONE',  #782 ) ;
#1062 = MANIFOLD_SOLID_BREP ( 'Foro per Vite M4-1', #1098 ) ;
#1063 = CARTESIAN_POINT ( 'NONE',  ( -15.00000000000001421, 5.000000000000000000, -15.00000000000001599 ) ) ;
#1064 = VERTEX_POINT ( 'NONE', #647 ) ;
#1065 = DIRECTION ( 'NONE',  ( 0.000000000000000000, 0.000000000000000000, 1.000000000000000000 ) ) ;
#1066 = AXIS2_PLACEMENT_3D ( 'NONE', #694, #975, #408 ) ;
#1067 = ADVANCED_FACE ( 'NONE', ( #634 ), #736, .F. ) ;
#1068 = LINE ( 'NONE', #711, #901 ) ;
#1069 = EDGE_LOOP ( 'NONE', ( #490, #977, #803, #1179 ) ) ;
#1070 = CARTESIAN_POINT ( 'NONE',  ( 96.99999999999997158, 55.85965004500301490, 77.42819253992699657 ) ) ;
#1071 = ADVANCED_FACE ( 'NONE', ( #1106 ), #281, .T. ) ;
#1072 = FACE_OUTER_BOUND ( 'NONE', #478, .T. ) ;
#1073 = ORIENTED_EDGE ( 'NONE', *, *, #1182, .T. ) ;
#1074 = CARTESIAN_POINT ( 'NONE',  ( 122.0000000000000000, 0.000000000000000000, 0.000000000000000000 ) ) ;
#1075 = VECTOR ( 'NONE', #630, 1000.000000000000000 ) ;
#1076 = VECTOR ( 'NONE', #382, 1000.000000000000000 ) ;
#1077 = EDGE_CURVE ( 'NONE', #67, #282, #652, .T. ) ;
#1078 = DIRECTION ( 'NONE',  ( -3.697785493223493385E-32, -0.7071067811865490160, 0.7071067811865460184 ) ) ;
#1079 = ORIENTED_EDGE ( 'NONE', *, *, #599, .F. ) ;
#1080 = DIRECTION ( 'NONE',  ( -1.000000000000000000, 0.000000000000000000, 0.000000000000000000 ) ) ;
#1081 = DIRECTION ( 'NONE',  ( 0.000000000000000000, 0.7071067811865490160, -0.7071067811865460184 ) ) ;
#1082 = CARTESIAN_POINT ( 'NONE',  ( 24.99999999999999289, 45.25304832720492954, 10.25304832720496151 ) ) ;
#1083 = VERTEX_POINT ( 'NONE', #1025 ) ;
#1084 = CARTESIAN_POINT ( 'NONE',  ( 129.7500000000000284, 5.000000000000000000, -5.500000000000031086 ) ) ;
#1085 = CYLINDRICAL_SURFACE ( 'NONE', #192, 9.999999999999984013 ) ;
#1086 = ORIENTED_EDGE ( 'NONE', *, *, #151, .T. ) ;
#1087 = DIRECTION ( 'NONE',  ( 0.000000000000000000, 0.7071067811865489050, -0.7071067811865461294 ) ) ;
#1088 = ADVANCED_FACE ( 'NONE', ( #678 ), #46, .F. ) ;
#1089 = VECTOR ( 'NONE', #1140, 1000.000000000000000 ) ;
#1090 = VECTOR ( 'NONE', #430, 1000.000000000000000 ) ;
#1091 = CARTESIAN_POINT ( 'NONE',  ( 24.99999999999999289, 84.14392129246496665, 49.14392129246515850 ) ) ;
#1092 = DIRECTION ( 'NONE',  ( 0.000000000000000000, 0.7071067811865464625, 0.7071067811865485719 ) ) ;
#1093 = ORIENTED_EDGE ( 'NONE', *, *, #447, .F. ) ;
#1094 = DIRECTION ( 'NONE',  ( 0.000000000000000000, 0.7071067811865489050, -0.7071067811865462405 ) ) ;
#1095 = VERTEX_POINT ( 'NONE', #313 ) ;
#1096 = EDGE_CURVE ( 'NONE', #871, #462, #28, .T. ) ;
#1097 = FACE_OUTER_BOUND ( 'NONE', #994, .T. ) ;
#1098 = CLOSED_SHELL ( 'NONE', ( #135, #774, #31, #990, #661, #717, #332, #1023, #198, #559, #45, #842, #727, #23, #1088, #954, #493, #482, #1029, #460, #750, #76, #420, #865, #1060, #719, #705, #1067, #253, #324, #712, #1071, #935, #168, #603, #1004, #584 ) ) ;
#1099 = DIRECTION ( 'NONE',  ( 0.000000000000000000, 0.000000000000000000, 1.000000000000000000 ) ) ;
#1100 = EDGE_LOOP ( 'NONE', ( #262, #564, #1009, #1001 ) ) ;
#1101 = DIRECTION ( 'NONE',  ( -0.000000000000000000, 0.7071067811865489050, -0.7071067811865462405 ) ) ;
#1102 = EDGE_LOOP ( 'NONE', ( #1176, #639 ) ) ;
#1103 = ORIENTED_EDGE ( 'NONE', *, *, #225, .F. ) ;
#1104 = DIRECTION ( 'NONE',  ( 0.000000000000000000, -0.000000000000000000, -1.000000000000000000 ) ) ;
#1105 = EDGE_CURVE ( 'NONE', #871, #965, #529, .T. ) ;
#1106 = FACE_OUTER_BOUND ( 'NONE', #405, .T. ) ;
#1107 = ORIENTED_EDGE ( 'NONE', *, *, #294, .F. ) ;
#1108 = DIRECTION ( 'NONE',  ( 0.000000000000000000, 0.7071067811865464625, 0.7071067811865485719 ) ) ;
#1109 = ORIENTED_EDGE ( 'NONE', *, *, #126, .T. ) ;
#1110 = CIRCLE ( 'NONE', #592, 2.250000000000001776 ) ;
#1111 = VECTOR ( 'NONE', #1123, 1000.000000000000000 ) ;
#1112 = CARTESIAN_POINT ( 'NONE',  ( 122.0000000000000000, 80.25483399593892386, 59.39696961967009514 ) ) ;
#1113 = PRODUCT_DEFINITION ( 'NON CONOSCIUTO', '', #363, #802 ) ;
#1114 = FACE_OUTER_BOUND ( 'NONE', #545, .T. ) ;
#1115 = CARTESIAN_POINT ( 'NONE',  ( 112.0000000000000000, 30.85786437626904188, 9.999999999999998224 ) ) ;
#1116 = VERTEX_POINT ( 'NONE', #19 ) ;
#1117 = VERTEX_POINT ( 'NONE', #193 ) ;
#1118 = AXIS2_PLACEMENT_3D ( 'NONE', #821, #874, #491 ) ;
#1119 = DIRECTION ( 'NONE',  ( 8.920979878885101582E-17, 0.000000000000000000, 1.000000000000000000 ) ) ;
#1120 = CARTESIAN_POINT ( 'NONE',  ( 25.00000000000000000, 55.85965004500301490, 77.42819253992699657 ) ) ;
#1121 = ORIENTED_EDGE ( 'NONE', *, *, #1157, .F. ) ;
#1122 = ORIENTED_EDGE ( 'NONE', *, *, #813, .T. ) ;
#1123 = DIRECTION ( 'NONE',  ( -0.000000000000000000, 1.000000000000000000, -0.000000000000000000 ) ) ;
#1124 = PLANE ( 'NONE',  #386 ) ;
#1125 = DIRECTION ( 'NONE',  ( 1.000000000000000000, 0.000000000000000000, -0.000000000000000000 ) ) ;
#1126 = LINE ( 'NONE', #302, #648 ) ;
#1127 = ORIENTED_EDGE ( 'NONE', *, *, #831, .T. ) ;
#1128 = EDGE_CURVE ( 'NONE', #114, #1064, #387, .T. ) ;
#1129 = DIRECTION ( 'NONE',  ( 0.000000000000000000, 0.7071067811865489050, -0.7071067811865462405 ) ) ;
#1130 = LINE ( 'NONE', #487, #137 ) ;
#1131 = FACE_BOUND ( 'NONE', #303, .T. ) ;
#1132 = AXIS2_PLACEMENT_3D ( 'NONE', #909, #722, #1092 ) ;
#1133 = ORIENTED_EDGE ( 'NONE', *, *, #52, .F. ) ;
#1134 = CARTESIAN_POINT ( 'NONE',  ( -7.750000000000036415, 0.000000000000000000, -7.750000000000015987 ) ) ;
#1135 = EDGE_LOOP ( 'NONE', ( #239, #51, #656, #526 ) ) ;
#1136 = LINE ( 'NONE', #1112, #837 ) ;
#1137 = DIRECTION ( 'NONE',  ( -0.000000000000000000, 1.000000000000000000, -0.000000000000000000 ) ) ;
#1138 = LINE ( 'NONE', #48, #437 ) ;
#1139 = VERTEX_POINT ( 'NONE', #130 ) ;
#1140 = DIRECTION ( 'NONE',  ( 0.000000000000000000, -0.7071067811865462405, -0.7071067811865489050 ) ) ;
#1141 = ORIENTED_EDGE ( 'NONE', *, *, #501, .T. ) ;
#1142 = EDGE_CURVE ( 'NONE', #114, #752, #306, .T. ) ;
#1143 = CARTESIAN_POINT ( 'NONE',  ( 122.0000000000000000, 35.00000000000000000, 0.000000000000000000 ) ) ;
#1144 = CARTESIAN_POINT ( 'NONE',  ( -7.750000000000036415, 0.000000000000000000, 161.5439392393395792 ) ) ;
#1145 = ORIENTED_EDGE ( 'NONE', *, *, #786, .T. ) ;
#1146 = DIRECTION ( 'NONE',  ( -0.000000000000000000, 0.7071067811865489050, -0.7071067811865462405 ) ) ;
#1147 = FACE_OUTER_BOUND ( 'NONE', #279, .T. ) ;
#1148 = EDGE_CURVE ( 'NONE', #389, #139, #998, .T. ) ;
#1149 = CIRCLE ( 'NONE', #569, 2.249999999999999556 ) ;
#1150 = VECTOR ( 'NONE', #486, 1000.000000000000000 ) ;
#1151 = ORIENTED_EDGE ( 'NONE', *, *, #514, .T. ) ;
#1152 = PLANE ( 'NONE',  #147 ) ;
#1153 = CARTESIAN_POINT ( 'NONE',  ( 96.99999999999997158, 16.96877707974297067, 38.53731957466681024 ) ) ;
#1154 = VERTEX_POINT ( 'NONE', #473 ) ;
#1155 = CARTESIAN_POINT ( 'NONE',  ( 60.99999999999998579, 36.41421356237299989, 57.98275605729689630 ) ) ;
#1156 = CIRCLE ( 'NONE', #366, 9.999999999999984013 ) ;
#1157 = EDGE_CURVE ( 'NONE', #589, #148, #662, .T. ) ;
#1158 = DIRECTION ( 'NONE',  ( -0.000000000000000000, 1.000000000000000000, -0.000000000000000000 ) ) ;
#1159 = ORIENTED_EDGE ( 'NONE', *, *, #367, .F. ) ;
#1160 = LINE ( 'NONE', #1084, #469 ) ;
#1161 = EDGE_CURVE ( 'NONE', #470, #410, #402, .T. ) ;
#1162 = DIRECTION ( 'NONE',  ( -1.000000000000000000, -0.000000000000000000, -0.000000000000000000 ) ) ;
#1163 = ORIENTED_EDGE ( 'NONE', *, *, #670, .T. ) ;
#1164 = PLANE ( 'NONE',  #38 ) ;
#1165 = AXIS2_PLACEMENT_3D ( 'NONE', #973, #64, #613 ) ;
#1166 = LINE ( 'NONE', #912, #967 ) ;
#1167 = LINE ( 'NONE', #414, #186 ) ;
#1168 = ORIENTED_EDGE ( 'NONE', *, *, #260, .F. ) ;
#1169 = DIRECTION ( 'NONE',  ( 0.000000000000000000, 0.7071067811865461294, 0.7071067811865489050 ) ) ;
#1170 = VECTOR ( 'NONE', #895, 1000.000000000000000 ) ;
#1171 = DIRECTION ( 'NONE',  ( 0.000000000000000000, 0.7071067811865489050, -0.7071067811865462405 ) ) ;
#1172 = DIRECTION ( 'NONE',  ( 0.000000000000000000, 0.000000000000000000, 1.000000000000000000 ) ) ;
#1173 = EDGE_CURVE ( 'NONE', #780, #1117, #1136, .T. ) ;
#1174 = ORIENTED_EDGE ( 'NONE', *, *, #52, .T. ) ;
#1175 = LINE ( 'NONE', #829, #979 ) ;
#1176 = ORIENTED_EDGE ( 'NONE', *, *, #345, .T. ) ;
#1177 = DIRECTION ( 'NONE',  ( 0.000000000000000000, 0.7071067811865489050, -0.7071067811865462405 ) ) ;
#1178 = DIRECTION ( 'NONE',  ( 1.000000000000000000, 0.000000000000000000, -0.000000000000000000 ) ) ;
#1179 = ORIENTED_EDGE ( 'NONE', *, *, #399, .F. ) ;
#1180 = EDGE_CURVE ( 'NONE', #745, #916, #768, .T. ) ;
#1181 = DIRECTION ( 'NONE',  ( -0.000000000000000000, 1.000000000000000000, -0.000000000000000000 ) ) ;
#1182 = EDGE_CURVE ( 'NONE', #384, #310, #586, .T. ) ;
#1183 = CIRCLE ( 'NONE', #1165, 2.250000000000001776 ) ;
#1184 = MECHANICAL_DESIGN_GEOMETRIC_PRESENTATION_REPRESENTATION (  '', ( #512 ), #796 ) ;
#1185 = DIRECTION ( 'NONE',  ( 0.000000000000000000, -0.7071067811865461294, -0.7071067811865490160 ) ) ;
#1186 = CYLINDRICAL_SURFACE ( 'NONE', #783, 2.250000000000001776 ) ;
#1187 = VERTEX_POINT ( 'NONE', #943 ) ;
#1188 = CARTESIAN_POINT ( 'NONE',  ( 129.7500000000000284, 5.000000000000000888, -7.750000000000032863 ) ) ;
#1189 = EDGE_CURVE ( 'NONE', #1139, #141, #307, .T. ) ;
ENDSEC;
END-ISO-10303-21;
