ISO-10303-21;
HEADER;
FILE_DESCRIPTION (( 'STEP AP214' ),
    '1' );
FILE_NAME ('ELP-0021-2.STEP',
    '2026-03-21T09:09:20',
    ( '' ),
    ( '' ),
    'SwSTEP 2.0',
    'SolidWorks 2024',
    '' );
FILE_SCHEMA (( 'AUTOMOTIVE_DESIGN' ));
ENDSEC;

DATA;
#1 = DIRECTION ( 'NONE',  ( -0.7071067811865473507, 0.000000000000000000, 0.7071067811865477948 ) ) ;
#2 = ORIENTED_EDGE ( 'NONE', *, *, #516, .F. ) ;
#3 = EDGE_CURVE ( 'NONE', #420, #623, #185, .T. ) ;
#4 = CARTESIAN_POINT ( 'NONE',  ( -8.500000000000000000, 35.50000000000000711, 0.000000000000000000 ) ) ;
#5 = VECTOR ( 'NONE', #550, 1000.000000000000000 ) ;
#6 = DIRECTION ( 'NONE',  ( 0.000000000000000000, 0.000000000000000000, 1.000000000000000000 ) ) ;
#7 = CYLINDRICAL_SURFACE ( 'NONE', #324, 2.000000000000000000 ) ;
#8 = FACE_OUTER_BOUND ( 'NONE', #381, .T. ) ;
#9 = LINE ( 'NONE', #115, #228 ) ;
#10 = DIRECTION ( 'NONE',  ( 0.000000000000000000, -0.000000000000000000, -1.000000000000000000 ) ) ;
#11 = CYLINDRICAL_SURFACE ( 'NONE', #457, 4.000000000000000000 ) ;
#12 =( LENGTH_UNIT ( ) NAMED_UNIT ( * ) SI_UNIT ( .MILLI., .METRE. ) );
#13 = EDGE_CURVE ( 'NONE', #218, #527, #746, .T. ) ;
#14 = DIRECTION ( 'NONE',  ( -0.000000000000000000, -0.000000000000000000, 1.000000000000000000 ) ) ;
#15 = VECTOR ( 'NONE', #486, 999.9999999999998863 ) ;
#16 = LINE ( 'NONE', #241, #685 ) ;
#17 = VECTOR ( 'NONE', #493, 1000.000000000000000 ) ;
#18 = EDGE_CURVE ( 'NONE', #236, #742, #307, .T. ) ;
#19 =( LENGTH_UNIT ( ) NAMED_UNIT ( * ) SI_UNIT ( .MILLI., .METRE. ) );
#20 = DIRECTION ( 'NONE',  ( -1.000000000000000000, -0.000000000000000000, -0.000000000000000000 ) ) ;
#21 = FACE_OUTER_BOUND ( 'NONE', #706, .T. ) ;
#22 = LINE ( 'NONE', #371, #709 ) ;
#23 = ORIENTED_EDGE ( 'NONE', *, *, #195, .T. ) ;
#24 = DIRECTION ( 'NONE',  ( -1.000000000000000000, -0.000000000000000000, -0.000000000000000000 ) ) ;
#25 = VECTOR ( 'NONE', #29, 1000.000000000000000 ) ;
#26 = CARTESIAN_POINT ( 'NONE',  ( -8.673617379884035472E-16, 4.500000000000000000, 85.00000000000000000 ) ) ;
#27 = ORIENTED_EDGE ( 'NONE', *, *, #390, .F. ) ;
#28 = AXIS2_PLACEMENT_3D ( 'NONE', #645, #467, #393 ) ;
#29 = DIRECTION ( 'NONE',  ( -0.000000000000000000, -1.000000000000000000, -0.000000000000000000 ) ) ;
#30 = DIRECTION ( 'NONE',  ( -1.000000000000000000, -1.049697256412017070E-16, 0.000000000000000000 ) ) ;
#31 = ORIENTED_EDGE ( 'NONE', *, *, #156, .F. ) ;
#32 = MANIFOLD_SOLID_BREP ( 'Foro svasato per Vite M4-1', #484 ) ;
#33 = CARTESIAN_POINT ( 'NONE',  ( 0.000000000000000000, 0.000000000000000000, 0.000000000000000000 ) ) ;
#34 = ORIENTED_EDGE ( 'NONE', *, *, #134, .F. ) ;
#35 = EDGE_CURVE ( 'NONE', #326, #523, #59, .T. ) ;
#36 = PRODUCT_CONTEXT ( 'NONE', #46, 'mechanical' ) ;
#37 = VERTEX_POINT ( 'NONE', #532 ) ;
#38 = STYLED_ITEM ( 'NONE', ( #302 ), #32 ) ;
#39 = ORIENTED_EDGE ( 'NONE', *, *, #454, .T. ) ;
#40 = DIRECTION ( 'NONE',  ( -0.000000000000000000, -1.000000000000000000, -0.000000000000000000 ) ) ;
#41 = ORIENTED_EDGE ( 'NONE', *, *, #725, .F. ) ;
#42 = ADVANCED_FACE ( 'NONE', ( #131 ), #7, .F. ) ;
#43 = ORIENTED_EDGE ( 'NONE', *, *, #609, .F. ) ;
#44 = VERTEX_POINT ( 'NONE', #251 ) ;
#45 = EDGE_CURVE ( 'NONE', #435, #460, #729, .T. ) ;
#46 = APPLICATION_CONTEXT ( 'automotive_design' ) ;
#47 = AXIS2_PLACEMENT_3D ( 'NONE', #26, #30, #733 ) ;
#48 = ORIENTED_EDGE ( 'NONE', *, *, #45, .T. ) ;
#49 = DIRECTION ( 'NONE',  ( -1.000000000000000000, 0.000000000000000000, 0.000000000000000000 ) ) ;
#50 = EDGE_CURVE ( 'NONE', #363, #693, #382, .T. ) ;
#51 = DIRECTION ( 'NONE',  ( -3.942553354492742052E-17, 1.000000000000000000, -0.000000000000000000 ) ) ;
#52 = VERTEX_POINT ( 'NONE', #240 ) ;
#53 = FACE_OUTER_BOUND ( 'NONE', #577, .T. ) ;
#54 = LINE ( 'NONE', #301, #220 ) ;
#55 = DIRECTION ( 'NONE',  ( 0.000000000000000000, -0.000000000000000000, -1.000000000000000000 ) ) ;
#56 = DIRECTION ( 'NONE',  ( -1.000000000000000000, 0.000000000000000000, 0.000000000000000000 ) ) ;
#57 = CARTESIAN_POINT ( 'NONE',  ( -2.500000000000001776, 4.500000000000000000, 85.00000000000000000 ) ) ;
#58 = FACE_OUTER_BOUND ( 'NONE', #275, .T. ) ;
#59 = LINE ( 'NONE', #136, #635 ) ;
#60 = CARTESIAN_POINT ( 'NONE',  ( -8.673617379884035472E-16, 4.500000000000000000, 82.75000000000002842 ) ) ;
#61 = CARTESIAN_POINT ( 'NONE',  ( -8.500000000000000000, 11.50000000000000178, 0.000000000000000000 ) ) ;
#62 = DIRECTION ( 'NONE',  ( -0.000000000000000000, -0.000000000000000000, -1.000000000000000000 ) ) ;
#63 = DIRECTION ( 'NONE',  ( -1.000000000000000000, 0.000000000000000000, 0.000000000000000000 ) ) ;
#64 = EDGE_CURVE ( 'NONE', #697, #564, #265, .T. ) ;
#65 = CYLINDRICAL_SURFACE ( 'NONE', #446, 2.249999999999974243 ) ;
#66 = DIRECTION ( 'NONE',  ( -0.000000000000000000, -0.000000000000000000, -1.000000000000000000 ) ) ;
#67 = DIRECTION ( 'NONE',  ( -1.000000000000000000, -0.000000000000000000, -0.000000000000000000 ) ) ;
#68 = DIRECTION ( 'NONE',  ( -1.000000000000000000, -0.000000000000000000, -0.000000000000000000 ) ) ;
#69 = CARTESIAN_POINT ( 'NONE',  ( 19.00000000000000000, 10.50000000000000000, 100.0000000000000000 ) ) ;
#70 = ADVANCED_FACE ( 'NONE', ( #559 ), #321, .F. ) ;
#71 = EDGE_LOOP ( 'NONE', ( #464, #636, #157, #85 ) ) ;
#72 = AXIS2_PLACEMENT_3D ( 'NONE', #663, #584, #10 ) ;
#73 = PLANE ( 'NONE',  #455 ) ;
#74 = ORIENTED_EDGE ( 'NONE', *, *, #622, .T. ) ;
#75 = CARTESIAN_POINT ( 'NONE',  ( -2.500000000000001776, 4.500000000000000000, 89.70000000000000284 ) ) ;
#76 = VECTOR ( 'NONE', #349, 1000.000000000000000 ) ;
#77 = FACE_OUTER_BOUND ( 'NONE', #88, .T. ) ;
#78 = CARTESIAN_POINT ( 'NONE',  ( 0.000000000000000000, 0.000000000000000000, 100.0000000000000000 ) ) ;
#79 = CARTESIAN_POINT ( 'NONE',  ( -2.500000000000000000, -3.061616997868383141E-16, 100.0000000000000000 ) ) ;
#80 = ORIENTED_EDGE ( 'NONE', *, *, #447, .T. ) ;
#81 = DIRECTION ( 'NONE',  ( 1.000000000000000000, 0.000000000000000000, 0.000000000000000000 ) ) ;
#82 = EDGE_CURVE ( 'NONE', #563, #363, #312, .T. ) ;
#83 = CARTESIAN_POINT ( 'NONE',  ( -8.673617379884035472E-16, 4.500000000000000000, 15.00000000000000000 ) ) ;
#84 = ORIENTED_EDGE ( 'NONE', *, *, #521, .F. ) ;
#85 = ORIENTED_EDGE ( 'NONE', *, *, #681, .T. ) ;
#86 = DIRECTION ( 'NONE',  ( 3.469446951953614189E-15, -1.000000000000000000, 0.000000000000000000 ) ) ;
#87 = DIRECTION ( 'NONE',  ( 0.000000000000000000, 0.000000000000000000, -1.000000000000000000 ) ) ;
#88 = EDGE_LOOP ( 'NONE', ( #556, #566, #470, #147 ) ) ;
#89 = PRODUCT_DEFINITION_SHAPE ( 'NONE', 'NONE',  #540 ) ;
#90 = VECTOR ( 'NONE', #1, 999.9999999999998863 ) ;
#91 = CARTESIAN_POINT ( 'NONE',  ( -2.436585231968789955, -2.983956305180290068E-16, 86.13674105660574298 ) ) ;
#92 = ORIENTED_EDGE ( 'NONE', *, *, #339, .T. ) ;
#93 = UNCERTAINTY_MEASURE_WITH_UNIT (LENGTH_MEASURE( 1.000000000000000082E-05 ), #19, 'distance_accuracy_value', 'NONE');
#94 = ORIENTED_EDGE ( 'NONE', *, *, #562, .T. ) ;
#95 = EDGE_LOOP ( 'NONE', ( #461, #267, #43, #340, #684, #200, #104, #106, #510, #629, #214, #620 ) ) ;
#96 = CARTESIAN_POINT ( 'NONE',  ( -2.500000000000000000, -3.061616997868383141E-16, 83.64353400337495259 ) ) ;
#97 =( NAMED_UNIT ( * ) SI_UNIT ( $, .STERADIAN. ) SOLID_ANGLE_UNIT ( ) );
#98 = ORIENTED_EDGE ( 'NONE', *, *, #279, .F. ) ;
#99 = ORIENTED_EDGE ( 'NONE', *, *, #114, .T. ) ;
#100 = CIRCLE ( 'NONE', #412, 4.699999999999995737 ) ;
#101 = DIRECTION ( 'NONE',  ( -1.000000000000000000, 0.000000000000000000, 0.000000000000000000 ) ) ;
#102 = EDGE_CURVE ( 'NONE', #581, #236, #450, .T. ) ;
#103 = AXIS2_PLACEMENT_3D ( 'NONE', #201, #736, #499 ) ;
#104 = ORIENTED_EDGE ( 'NONE', *, *, #632, .T. ) ;
#105 = EDGE_CURVE ( 'NONE', #420, #423, #230, .T. ) ;
#106 = ORIENTED_EDGE ( 'NONE', *, *, #506, .T. ) ;
#107 = VERTEX_POINT ( 'NONE', #619 ) ;
#108 = CONICAL_SURFACE ( 'NONE', #161, 4.699999999999995737, 0.7853981633974485010 ) ;
#109 = CARTESIAN_POINT ( 'NONE',  ( -4.500000000000000000, 15.50000000000000000, 100.0000000000000000 ) ) ;
#110 = ORIENTED_EDGE ( 'NONE', *, *, #459, .T. ) ;
#111 = APPLICATION_CONTEXT ( 'automotive_design' ) ;
#112 = AXIS2_PLACEMENT_3D ( 'NONE', #472, #172, #649 ) ;
#113 = DIRECTION ( 'NONE',  ( 1.156482317317871133E-15, 1.000000000000000000, -0.000000000000000000 ) ) ;
#114 = EDGE_CURVE ( 'NONE', #452, #328, #22, .T. ) ;
#115 = CARTESIAN_POINT ( 'NONE',  ( -4.500000000000000000, 13.50000000000000178, 100.0000000000000000 ) ) ;
#116 = DIRECTION ( 'NONE',  ( -1.224646799147353207E-16, 1.000000000000000000, 0.000000000000000000 ) ) ;
#117 = ORIENTED_EDGE ( 'NONE', *, *, #576, .F. ) ;
#118 = DIRECTION ( 'NONE',  ( -1.000000000000000000, -1.049697256412017070E-16, 0.000000000000000000 ) ) ;
#119 = LINE ( 'NONE', #352, #592 ) ;
#120 = FILL_AREA_STYLE ('',( #546 ) ) ;
#121 = LINE ( 'NONE', #75, #15 ) ;
#122 = VECTOR ( 'NONE', #305, 1000.000000000000000 ) ;
#123 = CARTESIAN_POINT ( 'NONE',  ( -4.500000000000000000, 13.50000000000000178, 100.0000000000000000 ) ) ;
#124 = FACE_OUTER_BOUND ( 'NONE', #281, .T. ) ;
#125 = CIRCLE ( 'NONE', #219, 2.000000000000000000 ) ;
#126 = ADVANCED_FACE ( 'NONE', ( #677 ), #432, .F. ) ;
#127 = CARTESIAN_POINT ( 'NONE',  ( -2.500000000000000000, 4.500000000000000000, 12.75000000000002132 ) ) ;
#128 = DIRECTION ( 'NONE',  ( 1.000000000000000000, 0.000000000000000000, 0.000000000000000000 ) ) ;
#129 = CARTESIAN_POINT ( 'NONE',  ( -6.500000000000000888, 35.50000000000001421, 100.0000000000000000 ) ) ;
#130 = CARTESIAN_POINT ( 'NONE',  ( -8.673617379884035472E-16, 4.500000000000000000, 85.00000000000000000 ) ) ;
#131 = FACE_OUTER_BOUND ( 'NONE', #266, .T. ) ;
#132 = ADVANCED_FACE ( 'NONE', ( #374 ), #615, .F. ) ;
#133 = FACE_OUTER_BOUND ( 'NONE', #71, .T. ) ;
#134 = EDGE_CURVE ( 'NONE', #737, #512, #439, .T. ) ;
#135 = VERTEX_POINT ( 'NONE', #419 ) ;
#136 = CARTESIAN_POINT ( 'NONE',  ( -2.500000000000000000, -3.061616997868383141E-16, 100.0000000000000000 ) ) ;
#137 = CARTESIAN_POINT ( 'NONE',  ( -2.500000000000000000, 9.500000000000001776, 0.000000000000000000 ) ) ;
#138 = EDGE_CURVE ( 'NONE', #208, #623, #545, .T. ) ;
#139 = CARTESIAN_POINT ( 'NONE',  ( 0.000000000000000000, 0.000000000000000000, 100.0000000000000000 ) ) ;
#140 = AXIS2_PLACEMENT_3D ( 'NONE', #176, #351, #49 ) ;
#141 = DIRECTION ( 'NONE',  ( 0.000000000000000000, -0.000000000000000000, -1.000000000000000000 ) ) ;
#142 = VECTOR ( 'NONE', #68, 1000.000000000000000 ) ;
#143 = EDGE_CURVE ( 'NONE', #391, #326, #170, .T. ) ;
#144 = ORIENTED_EDGE ( 'NONE', *, *, #146, .T. ) ;
#145 = DIRECTION ( 'NONE',  ( -1.000000000000000000, -0.000000000000000000, -0.000000000000000000 ) ) ;
#146 = EDGE_CURVE ( 'NONE', #378, #452, #597, .T. ) ;
#147 = ORIENTED_EDGE ( 'NONE', *, *, #138, .T. ) ;
#148 = CARTESIAN_POINT ( 'NONE',  ( -2.386411388131590261, -2.922511067924144120E-16, 85.91394723428665259 ) ) ;
#149 = CARTESIAN_POINT ( 'NONE',  ( -6.500000000000000000, 15.50000000000000000, 0.000000000000000000 ) ) ;
#150 = ORIENTED_EDGE ( 'NONE', *, *, #763, .F. ) ;
#151 = EDGE_LOOP ( 'NONE', ( #338, #574, #41, #480, #336, #110, #652, #304, #626, #318, #673, #231 ) ) ;
#152 = CARTESIAN_POINT ( 'NONE',  ( -2.500000000000000000, 4.500000000000000000, 15.00000000000000000 ) ) ;
#153 = ORIENTED_EDGE ( 'NONE', *, *, #533, .F. ) ;
#154 = AXIS2_PLACEMENT_3D ( 'NONE', #216, #383, #166 ) ;
#155 = LINE ( 'NONE', #350, #608 ) ;
#156 = EDGE_CURVE ( 'NONE', #571, #221, #522, .T. ) ;
#157 = ORIENTED_EDGE ( 'NONE', *, *, #339, .F. ) ;
#158 = CARTESIAN_POINT ( 'NONE',  ( -4.500000000000000000, 15.50000000000000000, 0.000000000000000000 ) ) ;
#159 = EDGE_LOOP ( 'NONE', ( #515, #174, #323, #453 ) ) ;
#160 = ORIENTED_EDGE ( 'NONE', *, *, #454, .F. ) ;
#161 = AXIS2_PLACEMENT_3D ( 'NONE', #760, #287, #719 ) ;
#162 = ADVANCED_FACE ( 'NONE', ( #58 ), #284, .F. ) ;
#163 = ORIENTED_EDGE ( 'NONE', *, *, #698, .F. ) ;
#164 = ORIENTED_EDGE ( 'NONE', *, *, #156, .T. ) ;
#165 = ORIENTED_EDGE ( 'NONE', *, *, #428, .F. ) ;
#166 = DIRECTION ( 'NONE',  ( 0.000000000000000000, 0.000000000000000000, 1.000000000000000000 ) ) ;
#167 = CARTESIAN_POINT ( 'NONE',  ( -2.500000000000000000, 9.500000000000001776, 0.000000000000000000 ) ) ;
#168 = VECTOR ( 'NONE', #514, 1000.000000000000000 ) ;
#169 = CARTESIAN_POINT ( 'NONE',  ( -2.500000000000001776, 4.500000000000000000, 15.00000000000000000 ) ) ;
#170 = CIRCLE ( 'NONE', #644, 4.699999999999999289 ) ;
#171 = CARTESIAN_POINT ( 'NONE',  ( -1.102182119232617714E-15, 10.49999999999999822, 100.0000000000000000 ) ) ;
#172 = DIRECTION ( 'NONE',  ( -1.000000000000000000, 1.156482317317871133E-15, 0.000000000000000000 ) ) ;
#173 = LINE ( 'NONE', #362, #518 ) ;
#174 = ORIENTED_EDGE ( 'NONE', *, *, #138, .F. ) ;
#175 = DIRECTION ( 'NONE',  ( -1.000000000000000000, 0.000000000000000000, 0.000000000000000000 ) ) ;
#176 = CARTESIAN_POINT ( 'NONE',  ( -4.500000000000000888, 9.500000000000001776, 0.000000000000000000 ) ) ;
#177 = LINE ( 'NONE', #593, #427 ) ;
#178 = CARTESIAN_POINT ( 'NONE',  ( -0.04999999999999232836, 4.500000000000000000, 15.00000000000000000 ) ) ;
#179 = CARTESIAN_POINT ( 'NONE',  ( -6.500000000000000000, 15.50000000000000000, 100.0000000000000000 ) ) ;
#180 = VECTOR ( 'NONE', #386, 999.9999999999998863 ) ;
#181 = ORIENTED_EDGE ( 'NONE', *, *, #763, .T. ) ;
#182 = EDGE_CURVE ( 'NONE', #221, #260, #54, .T. ) ;
#183 = DIRECTION ( 'NONE',  ( 0.000000000000000000, 0.000000000000000000, 1.000000000000000000 ) ) ;
#184 = VECTOR ( 'NONE', #141, 1000.000000000000000 ) ;
#185 = LINE ( 'NONE', #127, #246 ) ;
#186 = AXIS2_PLACEMENT_3D ( 'NONE', #646, #116, #348 ) ;
#187 = CARTESIAN_POINT ( 'NONE',  ( -2.500000000000000000, -3.061616997868383141E-16, 100.0000000000000000 ) ) ;
#188 = ORIENTED_EDGE ( 'NONE', *, *, #533, .T. ) ;
#189 = CYLINDRICAL_SURFACE ( 'NONE', #682, 2.000000000000000000 ) ;
#190 = SURFACE_SIDE_STYLE ('',( #488 ) ) ;
#191 = DIRECTION ( 'NONE',  ( -1.049697256412017070E-16, 1.000000000000000000, -0.000000000000000000 ) ) ;
#192 = ORIENTED_EDGE ( 'NONE', *, *, #609, .T. ) ;
#193 = DIRECTION ( 'NONE',  ( -1.000000000000000000, 0.000000000000000000, 0.000000000000000000 ) ) ;
#194 = DIRECTION ( 'NONE',  ( -1.000000000000000000, -0.000000000000000000, -0.000000000000000000 ) ) ;
#195 = EDGE_CURVE ( 'NONE', #460, #44, #415, .T. ) ;
#196 = CARTESIAN_POINT ( 'NONE',  ( -1.102182119232617714E-15, 10.49999999999999822, 0.000000000000000000 ) ) ;
#197 = ORIENTED_EDGE ( 'NONE', *, *, #64, .F. ) ;
#198 = CARTESIAN_POINT ( 'NONE',  ( -2.318003006993155424, -2.838734962928107196E-16, 85.46095693624920386 ) ) ;
#199 = DIRECTION ( 'NONE',  ( -1.000000000000000000, -1.049697256412017070E-16, 0.000000000000000000 ) ) ;
#200 = ORIENTED_EDGE ( 'NONE', *, *, #562, .F. ) ;
#201 = CARTESIAN_POINT ( 'NONE',  ( -6.500000000000000888, 35.50000000000001421, 100.0000000000000000 ) ) ;
#202 = EDGE_LOOP ( 'NONE', ( #437, #98, #263, #164 ) ) ;
#203 = DIRECTION ( 'NONE',  ( 0.000000000000000000, 0.000000000000000000, 1.000000000000000000 ) ) ;
#204 = EDGE_LOOP ( 'NONE', ( #552, #687, #555, #34 ) ) ;
#205 = CARTESIAN_POINT ( 'NONE',  ( -2.500000000000001776, 0.000000000000000000, 86.35646599662506162 ) ) ;
#206 = AXIS2_PLACEMENT_3D ( 'NONE', #728, #379, #193 ) ;
#207 = EDGE_CURVE ( 'NONE', #208, #44, #539, .T. ) ;
#208 = VERTEX_POINT ( 'NONE', #531 ) ;
#209 = CIRCLE ( 'NONE', #140, 2.000000000000000000 ) ;
#210 = PRESENTATION_LAYER_ASSIGNMENT (  '', '', ( #38 ) ) ;
#211 = DIRECTION ( 'NONE',  ( -1.000000000000000000, -0.000000000000000000, -0.000000000000000000 ) ) ;
#212 = ORIENTED_EDGE ( 'NONE', *, *, #421, .T. ) ;
#213 = CARTESIAN_POINT ( 'NONE',  ( 19.00000000000000355, 13.50000000000000178, 0.000000000000000000 ) ) ;
#214 = ORIENTED_EDGE ( 'NONE', *, *, #714, .F. ) ;
#215 = EDGE_CURVE ( 'NONE', #260, #452, #173, .T. ) ;
#216 = CARTESIAN_POINT ( 'NONE',  ( -0.04999999999999232836, 4.500000000000000000, 85.00000000000000000 ) ) ;
#217 = VECTOR ( 'NONE', #51, 1000.000000000000000 ) ;
#218 = VERTEX_POINT ( 'NONE', #405 ) ;
#219 = AXIS2_PLACEMENT_3D ( 'NONE', #158, #692, #101 ) ;
#220 = VECTOR ( 'NONE', #656, 1000.000000000000000 ) ;
#221 = VERTEX_POINT ( 'NONE', #720 ) ;
#222 = ORIENTED_EDGE ( 'NONE', *, *, #436, .F. ) ;
#223 = CARTESIAN_POINT ( 'NONE',  ( -2.500000000000001776, 4.500000000000000000, 15.00000000000000000 ) ) ;
#224 = DIRECTION ( 'NONE',  ( 0.000000000000000000, 0.000000000000000000, 1.000000000000000000 ) ) ;
#225 = ORIENTED_EDGE ( 'NONE', *, *, #509, .T. ) ;
#226 = AXIS2_PLACEMENT_3D ( 'NONE', #740, #211, #466 ) ;
#227 = DIRECTION ( 'NONE',  ( -0.000000000000000000, -1.000000000000000000, -0.000000000000000000 ) ) ;
#228 = VECTOR ( 'NONE', #591, 1000.000000000000000 ) ;
#229 = DIRECTION ( 'NONE',  ( 0.000000000000000000, 0.000000000000000000, 1.000000000000000000 ) ) ;
#230 = CIRCLE ( 'NONE', #334, 2.249999999999977796 ) ;
#231 = ORIENTED_EDGE ( 'NONE', *, *, #506, .F. ) ;
#232 = ADVANCED_FACE ( 'NONE', ( #124 ), #400, .F. ) ;
#233 = CARTESIAN_POINT ( 'NONE',  ( -6.500000000000000888, 35.50000000000001421, 100.0000000000000000 ) ) ;
#234 = DIRECTION ( 'NONE',  ( 1.000000000000000000, 1.224646799147353207E-16, -0.000000000000000000 ) ) ;
#235 = FACE_OUTER_BOUND ( 'NONE', #751, .T. ) ;
#236 = VERTEX_POINT ( 'NONE', #588 ) ;
#237 = CARTESIAN_POINT ( 'NONE',  ( -2.500000000000001776, 4.500000000000000000, 89.70000000000000284 ) ) ;
#238 = CARTESIAN_POINT ( 'NONE',  ( -2.436585231968787735, -2.983956305180287603E-16, 16.13674105660572167 ) ) ;
#239 = CARTESIAN_POINT ( 'NONE',  ( 19.00000000000000355, 13.50000000000000178, 100.0000000000000000 ) ) ;
#240 = CARTESIAN_POINT ( 'NONE',  ( -2.500000000000000000, -3.061616997868383141E-16, 100.0000000000000000 ) ) ;
#241 = CARTESIAN_POINT ( 'NONE',  ( -2.500000000000000000, 4.500000000000000000, 17.24999999999997868 ) ) ;
#242 = FACE_OUTER_BOUND ( 'NONE', #495, .T. ) ;
#243 = CIRCLE ( 'NONE', #355, 2.249999999999977796 ) ;
#244 = DIRECTION ( 'NONE',  ( -1.000000000000000000, -1.049697256412017070E-16, 0.000000000000000000 ) ) ;
#245 = VECTOR ( 'NONE', #310, 1000.000000000000000 ) ;
#246 = VECTOR ( 'NONE', #657, 1000.000000000000000 ) ;
#247 = CARTESIAN_POINT ( 'NONE',  ( -2.500000000000001776, 4.500000000000000888, 10.30000000000000071 ) ) ;
#248 = ORIENTED_EDGE ( 'NONE', *, *, #681, .F. ) ;
#249 = CARTESIAN_POINT ( 'NONE',  ( -8.500000000000000000, 11.50000000000000178, 100.0000000000000000 ) ) ;
#250 = EDGE_CURVE ( 'NONE', #389, #435, #280, .T. ) ;
#251 = CARTESIAN_POINT ( 'NONE',  ( -2.500000000000001776, 4.500000000000000000, 19.69999999999999929 ) ) ;
#252 = DIRECTION ( 'NONE',  ( 0.000000000000000000, 0.000000000000000000, 1.000000000000000000 ) ) ;
#253 = CARTESIAN_POINT ( 'NONE',  ( 0.000000000000000000, 0.000000000000000000, 0.000000000000000000 ) ) ;
#254 = DIRECTION ( 'NONE',  ( -1.000000000000000000, 0.000000000000000000, -0.000000000000000000 ) ) ;
#255 = ORIENTED_EDGE ( 'NONE', *, *, #538, .T. ) ;
#256 = DIRECTION ( 'NONE',  ( -1.000000000000000000, 0.000000000000000000, -0.000000000000000000 ) ) ;
#257 = CONICAL_SURFACE ( 'NONE', #28, 4.699999999999999289, 0.7853981633974485010 ) ;
#258 = CARTESIAN_POINT ( 'NONE',  ( 19.00000000000000000, 10.50000000000000000, 100.0000000000000000 ) ) ;
#259 = DIRECTION ( 'NONE',  ( 0.000000000000000000, 0.000000000000000000, 1.000000000000000000 ) ) ;
#260 = VERTEX_POINT ( 'NONE', #293 ) ;
#261 = UNCERTAINTY_MEASURE_WITH_UNIT (LENGTH_MEASURE( 1.000000000000000082E-05 ), #12, 'distance_accuracy_value', 'NONE');
#262 = EDGE_CURVE ( 'NONE', #37, #333, #119, .T. ) ;
#263 = ORIENTED_EDGE ( 'NONE', *, *, #638, .F. ) ;
#264 = CARTESIAN_POINT ( 'NONE',  ( -6.500000000000000000, 13.50000000000000178, 100.0000000000000000 ) ) ;
#265 = LINE ( 'NONE', #139, #5 ) ;
#266 = EDGE_LOOP ( 'NONE', ( #734, #274, #494, #689 ) ) ;
#267 = ORIENTED_EDGE ( 'NONE', *, *, #250, .F. ) ;
#268 = DIRECTION ( 'NONE',  ( -1.000000000000000000, -0.000000000000000000, -0.000000000000000000 ) ) ;
#269 = EDGE_CURVE ( 'NONE', #512, #617, #526, .T. ) ;
#270 = ORIENTED_EDGE ( 'NONE', *, *, #538, .F. ) ;
#271 = ORIENTED_EDGE ( 'NONE', *, *, #616, .T. ) ;
#272 = VECTOR ( 'NONE', #372, 999.9999999999998863 ) ;
#273 = LINE ( 'NONE', #708, #368 ) ;
#274 = ORIENTED_EDGE ( 'NONE', *, *, #82, .F. ) ;
#275 = EDGE_LOOP ( 'NONE', ( #278, #743, #375, #701 ) ) ;
#276 = LINE ( 'NONE', #750, #180 ) ;
#277 = ORIENTED_EDGE ( 'NONE', *, *, #146, .F. ) ;
#278 = ORIENTED_EDGE ( 'NONE', *, *, #403, .F. ) ;
#279 = EDGE_CURVE ( 'NONE', #135, #260, #177, .T. ) ;
#280 = CIRCLE ( 'NONE', #723, 4.699999999999995737 ) ;
#281 = EDGE_LOOP ( 'NONE', ( #602, #344, #48, #634, #749, #458, #197, #117 ) ) ;
#282 = CARTESIAN_POINT ( 'NONE',  ( -2.385745910020641514, -2.921696092285667517E-16, 14.08935833736793697 ) ) ;
#283 = ADVANCED_FACE ( 'NONE', ( #235 ), #535, .F. ) ;
#284 = CYLINDRICAL_SURFACE ( 'NONE', #560, 2.249999999999974243 ) ;
#285 = EDGE_CURVE ( 'NONE', #236, #581, #479, .T. ) ;
#286 = ORIENTED_EDGE ( 'NONE', *, *, #143, .T. ) ;
#287 = DIRECTION ( 'NONE',  ( -1.000000000000000000, -0.000000000000000000, -0.000000000000000000 ) ) ;
#288 = DIRECTION ( 'NONE',  ( 0.000000000000000000, 0.000000000000000000, 1.000000000000000000 ) ) ;
#289 = EDGE_LOOP ( 'NONE', ( #642, #501, #314, #401 ) ) ;
#290 = CARTESIAN_POINT ( 'NONE',  ( -6.500000000000000000, 15.50000000000000000, 0.000000000000000000 ) ) ;
#291 = CARTESIAN_POINT ( 'NONE',  ( -2.318003006993154536, -2.838734962928106703E-16, 15.46095693624920742 ) ) ;
#292 = VECTOR ( 'NONE', #227, 1000.000000000000000 ) ;
#293 = CARTESIAN_POINT ( 'NONE',  ( 19.00000000000000000, 10.50000000000000000, 0.000000000000000000 ) ) ;
#294 = VECTOR ( 'NONE', #62, 1000.000000000000000 ) ;
#295 = SURFACE_STYLE_USAGE ( .BOTH. , #190 ) ;
#296 = ADVANCED_FACE ( 'NONE', ( #724 ), #189, .F. ) ;
#297 = DIRECTION ( 'NONE',  ( 1.000000000000000000, 0.000000000000000000, 0.000000000000000000 ) ) ;
#298 = PLANE ( 'NONE',  #112 ) ;
#299 = DIRECTION ( 'NONE',  ( -0.000000000000000000, -0.000000000000000000, -1.000000000000000000 ) ) ;
#300 = CARTESIAN_POINT ( 'NONE',  ( -2.500000000000000000, 4.500000000000000000, 85.00000000000000000 ) ) ;
#301 = CARTESIAN_POINT ( 'NONE',  ( 19.00000000000000000, 10.50000000000000000, 0.000000000000000000 ) ) ;
#302 = PRESENTATION_STYLE_ASSIGNMENT (( #295 ) ) ;
#303 = CARTESIAN_POINT ( 'NONE',  ( -6.500000000000000888, 35.50000000000001421, 0.000000000000000000 ) ) ;
#304 = ORIENTED_EDGE ( 'NONE', *, *, #215, .F. ) ;
#305 = DIRECTION ( 'NONE',  ( -1.000000000000000000, -0.000000000000000000, -0.000000000000000000 ) ) ;
#306 = AXIS2_PLACEMENT_3D ( 'NONE', #57, #529, #6 ) ;
#307 = LINE ( 'NONE', #474, #142 ) ;
#308 = AXIS2_PLACEMENT_3D ( 'NONE', #761, #463, #288 ) ;
#309 = VECTOR ( 'NONE', #66, 1000.000000000000000 ) ;
#310 = DIRECTION ( 'NONE',  ( 1.000000000000000000, 1.224646799147353207E-16, -0.000000000000000000 ) ) ;
#311 = CYLINDRICAL_SURFACE ( 'NONE', #640, 2.249999999999977796 ) ;
#312 = LINE ( 'NONE', #672, #17 ) ;
#313 = CARTESIAN_POINT ( 'NONE',  ( -2.500000000000000000, -3.061616997868383141E-16, 0.000000000000000000 ) ) ;
#314 = ORIENTED_EDGE ( 'NONE', *, *, #396, .F. ) ;
#315 = CARTESIAN_POINT ( 'NONE',  ( -2.500000000000000000, -3.061616997868383141E-16, 83.64353400337495259 ) ) ;
#316 = DIRECTION ( 'NONE',  ( -1.000000000000000000, -9.130123557772669567E-17, 0.000000000000000000 ) ) ;
#317 = EDGE_CURVE ( 'NONE', #218, #435, #442, .T. ) ;
#318 = ORIENTED_EDGE ( 'NONE', *, *, #627, .F. ) ;
#319 = CARTESIAN_POINT ( 'NONE',  ( -2.500000000000001776, 4.500000000000000888, 80.30000000000001137 ) ) ;
#320 = CIRCLE ( 'NONE', #154, 2.249999999999988010 ) ;
#321 = PLANE ( 'NONE',  #573 ) ;
#322 = ADVANCED_FACE ( 'NONE', ( #21 ), #604, .F. ) ;
#323 = ORIENTED_EDGE ( 'NONE', *, *, #207, .T. ) ;
#324 = AXIS2_PLACEMENT_3D ( 'NONE', #366, #717, #606 ) ;
#325 = CARTESIAN_POINT ( 'NONE',  ( -2.500000000000000000, 4.500000000000000000, 82.75000000000002842 ) ) ;
#326 = VERTEX_POINT ( 'NONE', #735 ) ;
#327 = DIRECTION ( 'NONE',  ( -1.049697256412017070E-16, 1.000000000000000000, -0.000000000000000000 ) ) ;
#328 = VERTEX_POINT ( 'NONE', #610 ) ;
#329 = DIRECTION ( 'NONE',  ( 0.000000000000000000, -0.000000000000000000, -1.000000000000000000 ) ) ;
#330 = ADVANCED_FACE ( 'NONE', ( #77 ), #311, .F. ) ;
#331 = ORIENTED_EDGE ( 'NONE', *, *, #421, .F. ) ;
#332 = AXIS2_PLACEMENT_3D ( 'NONE', #178, #20, #252 ) ;
#333 = VERTEX_POINT ( 'NONE', #430 ) ;
#334 = AXIS2_PLACEMENT_3D ( 'NONE', #83, #199, #554 ) ;
#335 = DIRECTION ( 'NONE',  ( 1.049697256412017070E-16, -1.000000000000000000, 0.000000000000000000 ) ) ;
#336 = ORIENTED_EDGE ( 'NONE', *, *, #269, .F. ) ;
#337 = ORIENTED_EDGE ( 'NONE', *, *, #207, .F. ) ;
#338 = ORIENTED_EDGE ( 'NONE', *, *, #676, .T. ) ;
#339 = EDGE_CURVE ( 'NONE', #107, #333, #732, .T. ) ;
#340 = ORIENTED_EDGE ( 'NONE', *, *, #13, .F. ) ;
#341 = CARTESIAN_POINT ( 'NONE',  ( -8.500000000000000000, 35.50000000000000711, 100.0000000000000000 ) ) ;
#342 = AXIS2_PLACEMENT_3D ( 'NONE', #406, #194, #667 ) ;
#343 = CARTESIAN_POINT ( 'NONE',  ( -1.102182119232617714E-15, 10.49999999999999822, 100.0000000000000000 ) ) ;
#344 = ORIENTED_EDGE ( 'NONE', *, *, #317, .T. ) ;
#345 = DIRECTION ( 'NONE',  ( -1.000000000000000000, -3.469446951953614189E-15, -0.000000000000000000 ) ) ;
#346 = DIRECTION ( 'NONE',  ( -0.000000000000000000, -0.000000000000000000, -1.000000000000000000 ) ) ;
#347 = ADVANCED_FACE ( 'NONE', ( #497 ), #670, .T. ) ;
#348 = DIRECTION ( 'NONE',  ( -1.000000000000000000, -1.224646799147353207E-16, 0.000000000000000000 ) ) ;
#349 = DIRECTION ( 'NONE',  ( -0.000000000000000000, -0.000000000000000000, -1.000000000000000000 ) ) ;
#350 = CARTESIAN_POINT ( 'NONE',  ( -2.500000000000000000, -3.061616997868383141E-16, 0.000000000000000000 ) ) ;
#351 = DIRECTION ( 'NONE',  ( -0.000000000000000000, 0.000000000000000000, 1.000000000000000000 ) ) ;
#352 = CARTESIAN_POINT ( 'NONE',  ( -8.500000000000000000, 15.50000000000000178, 100.0000000000000000 ) ) ;
#353 = AXIS2_PLACEMENT_3D ( 'NONE', #553, #438, #203 ) ;
#354 = FACE_OUTER_BOUND ( 'NONE', #95, .T. ) ;
#355 = AXIS2_PLACEMENT_3D ( 'NONE', #745, #631, #456 ) ;
#356 = VECTOR ( 'NONE', #191, 1000.000000000000000 ) ;
#357 = CARTESIAN_POINT ( 'NONE',  ( -6.500000000000000888, 35.50000000000001421, 100.0000000000000000 ) ) ;
#358 = CARTESIAN_POINT ( 'NONE',  ( -2.500000000000001776, 4.500000000000000000, 15.00000000000000000 ) ) ;
#359 = PRODUCT_DEFINITION_FORMATION_WITH_SPECIFIED_SOURCE ( 'TUTTO', '', #572, .NOT_KNOWN. ) ;
#360 = DIRECTION ( 'NONE',  ( 0.000000000000000000, -0.000000000000000000, -1.000000000000000000 ) ) ;
#361 = CARTESIAN_POINT ( 'NONE',  ( -2.436767031860286536, -2.984178945835497376E-16, 13.86262902750093673 ) ) ;
#362 = CARTESIAN_POINT ( 'NONE',  ( 19.00000000000000355, 13.50000000000000178, 0.000000000000000000 ) ) ;
#363 = VERTEX_POINT ( 'NONE', #487 ) ;
#364 = DIRECTION ( 'NONE',  ( 0.000000000000000000, 0.000000000000000000, -1.000000000000000000 ) ) ;
#365 = CARTESIAN_POINT ( 'NONE',  ( -2.300006812602238160, -2.816695981070437735E-16, 84.77055189668479329 ) ) ;
#366 = CARTESIAN_POINT ( 'NONE',  ( -4.500000000000000888, 9.500000000000001776, 100.0000000000000000 ) ) ;
#367 = DIRECTION ( 'NONE',  ( -1.000000000000000000, 0.000000000000000000, 0.000000000000000000 ) ) ;
#368 = VECTOR ( 'NONE', #113, 1000.000000000000000 ) ;
#369 = VERTEX_POINT ( 'NONE', #544 ) ;
#370 = VECTOR ( 'NONE', #613, 1000.000000000000000 ) ;
#371 = CARTESIAN_POINT ( 'NONE',  ( -6.500000000000000000, 13.50000000000000178, 0.000000000000000000 ) ) ;
#372 = DIRECTION ( 'NONE',  ( -0.7071067811865473507, 8.659560562354936556E-17, -0.7071067811865477948 ) ) ;
#373 = CARTESIAN_POINT ( 'NONE',  ( -2.317630959005975821, -2.838279335551479016E-16, 84.54262469653521350 ) ) ;
#374 = FACE_OUTER_BOUND ( 'NONE', #387, .T. ) ;
#375 = ORIENTED_EDGE ( 'NONE', *, *, #18, .T. ) ;
#376 = CARTESIAN_POINT ( 'NONE',  ( -2.299993191367118328, -2.816679299868447362E-16, 85.22918080416742725 ) ) ;
#377 = DIRECTION ( 'NONE',  ( 0.000000000000000000, 0.000000000000000000, -1.000000000000000000 ) ) ;
#378 = VERTEX_POINT ( 'NONE', #492 ) ;
#379 = DIRECTION ( 'NONE',  ( 0.000000000000000000, -0.000000000000000000, -1.000000000000000000 ) ) ;
#380 = VECTOR ( 'NONE', #345, 1000.000000000000000 ) ;
#381 = EDGE_LOOP ( 'NONE', ( #691, #503, #212, #674 ) ) ;
#382 = CIRCLE ( 'NONE', #611, 2.000000000000000000 ) ;
#383 = DIRECTION ( 'NONE',  ( -1.000000000000000000, -0.000000000000000000, -0.000000000000000000 ) ) ;
#384 = ORIENTED_EDGE ( 'NONE', *, *, #549, .F. ) ;
#385 = ADVANCED_FACE ( 'NONE', ( #618 ), #73, .F. ) ;
#386 = DIRECTION ( 'NONE',  ( -0.7071067811865473507, 8.659560562354936556E-17, -0.7071067811865477948 ) ) ;
#387 = EDGE_LOOP ( 'NONE', ( #757, #647, #507, #150 ) ) ;
#388 = DIRECTION ( 'NONE',  ( 0.000000000000000000, 0.000000000000000000, 1.000000000000000000 ) ) ;
#389 = VERTEX_POINT ( 'NONE', #319 ) ;
#390 = EDGE_CURVE ( 'NONE', #378, #739, #558, .T. ) ;
#391 = VERTEX_POINT ( 'NONE', #738 ) ;
#392 = ORIENTED_EDGE ( 'NONE', *, *, #638, .T. ) ;
#393 = DIRECTION ( 'NONE',  ( 0.000000000000000000, 0.000000000000000000, 1.000000000000000000 ) ) ;
#394 = ORIENTED_EDGE ( 'NONE', *, *, #105, .F. ) ;
#395 = VECTOR ( 'NONE', #346, 1000.000000000000000 ) ;
#396 = EDGE_CURVE ( 'NONE', #563, #37, #655, .T. ) ;
#397 = CARTESIAN_POINT ( 'NONE',  ( -8.500000000000000000, 35.50000000000000711, 100.0000000000000000 ) ) ;
#398 = DIRECTION ( 'NONE',  ( 0.000000000000000000, 0.000000000000000000, 1.000000000000000000 ) ) ;
#399 = COLOUR_RGB ( '',0.7921568627450980005, 0.8196078431372548767, 0.9333333333333333481 ) ;
#400 = PLANE ( 'NONE',  #186 ) ;
#401 = ORIENTED_EDGE ( 'NONE', *, *, #82, .T. ) ;
#402 = PLANE ( 'NONE',  #557 ) ;
#403 = EDGE_CURVE ( 'NONE', #581, #369, #621, .T. ) ;
#404 = CARTESIAN_POINT ( 'NONE',  ( -2.386411388131588485, -2.922511067924142148E-16, 15.91394723428664015 ) ) ;
#405 = CARTESIAN_POINT ( 'NONE',  ( -2.500000000000001776, 0.000000000000000000, 86.35646599662506162 ) ) ;
#406 = CARTESIAN_POINT ( 'NONE',  ( -2.500000000000001776, 4.500000000000000000, 85.00000000000000000 ) ) ;
#407 = CARTESIAN_POINT ( 'NONE',  ( 0.000000000000000000, 0.000000000000000000, 0.000000000000000000 ) ) ;
#408 = CARTESIAN_POINT ( 'NONE',  ( -2.300006812602238160, -2.816695981070437735E-16, 14.77055189668477730 ) ) ;
#409 = DIRECTION ( 'NONE',  ( -0.000000000000000000, -0.000000000000000000, -1.000000000000000000 ) ) ;
#410 = ORIENTED_EDGE ( 'NONE', *, *, #285, .T. ) ;
#411 = CARTESIAN_POINT ( 'NONE',  ( 0.000000000000000000, 0.000000000000000000, 100.0000000000000000 ) ) ;
#412 = AXIS2_PLACEMENT_3D ( 'NONE', #659, #547, #551 ) ;
#413 = CARTESIAN_POINT ( 'NONE',  ( -2.299993191367117440, -2.816679299868447362E-16, 15.22918080416740416 ) ) ;
#414 = CARTESIAN_POINT ( 'NONE',  ( -2.500000000000001776, 4.500000000000000000, 19.69999999999999929 ) ) ;
#415 = CIRCLE ( 'NONE', #661, 4.699999999999999289 ) ;
#416 = ADVANCED_FACE ( 'NONE', ( #505 ), #703, .F. ) ;
#417 = DIRECTION ( 'NONE',  ( -0.000000000000000000, -1.000000000000000000, -0.000000000000000000 ) ) ;
#418 = ORIENTED_EDGE ( 'NONE', *, *, #436, .T. ) ;
#419 = CARTESIAN_POINT ( 'NONE',  ( 19.00000000000000000, 10.50000000000000000, 100.0000000000000000 ) ) ;
#420 = VERTEX_POINT ( 'NONE', #451 ) ;
#421 = EDGE_CURVE ( 'NONE', #369, #742, #605, .T. ) ;
#422 = CARTESIAN_POINT ( 'NONE',  ( -4.500000000000000888, 11.50000000000000178, 0.000000000000000000 ) ) ;
#423 = VERTEX_POINT ( 'NONE', #586 ) ;
#424 = CARTESIAN_POINT ( 'NONE',  ( -2.385745910020644178, -2.921696092285670968E-16, 84.08935833736792631 ) ) ;
#425 = CARTESIAN_POINT ( 'NONE',  ( -2.500000000000000000, -3.061616997868383141E-16, 100.0000000000000000 ) ) ;
#426 = LINE ( 'NONE', #69, #370 ) ;
#427 = VECTOR ( 'NONE', #299, 1000.000000000000000 ) ;
#428 = EDGE_CURVE ( 'NONE', #135, #378, #273, .T. ) ;
#429 = ORIENTED_EDGE ( 'NONE', *, *, #627, .T. ) ;
#430 = CARTESIAN_POINT ( 'NONE',  ( -8.500000000000000000, 15.50000000000000178, 100.0000000000000000 ) ) ;
#431 = AXIS2_PLACEMENT_3D ( 'NONE', #79, #128, #364 ) ;
#432 = PLANE ( 'NONE',  #671 ) ;
#433 = VECTOR ( 'NONE', #87, 1000.000000000000000 ) ;
#434 =( GEOMETRIC_REPRESENTATION_CONTEXT ( 3 ) GLOBAL_UNCERTAINTY_ASSIGNED_CONTEXT ( ( #261 ) ) GLOBAL_UNIT_ASSIGNED_CONTEXT ( ( #12, #639, #97 ) ) REPRESENTATION_CONTEXT ( 'NONE', 'WORKASPACE' ) );
#435 = VERTEX_POINT ( 'NONE', #96 ) ;
#436 = EDGE_CURVE ( 'NONE', #369, #389, #276, .T. ) ;
#437 = ORIENTED_EDGE ( 'NONE', *, *, #182, .T. ) ;
#438 = DIRECTION ( 'NONE',  ( -1.000000000000000000, -0.000000000000000000, -0.000000000000000000 ) ) ;
#439 = LINE ( 'NONE', #149, #433 ) ;
#440 = ORIENTED_EDGE ( 'NONE', *, *, #428, .T. ) ;
#441 = DIRECTION ( 'NONE',  ( 1.000000000000000000, 3.469446951953614189E-15, 0.000000000000000000 ) ) ;
#442 = B_SPLINE_CURVE_WITH_KNOTS ( 'NONE', 3,
 ( #205, #91, #148, #198, #376, #365, #373, #424, #680, #315 ),
 .UNSPECIFIED., .F., .F.,
 ( 4, 2, 2, 2, 4 ),
 ( 0.02325897412907040190, 0.02393999439126076254, 0.02462101465345112317, 0.02530203491564148380, 0.02598305517783184443 ),
 .UNSPECIFIED. ) ;
#443 = VERTEX_POINT ( 'NONE', #4 ) ;
#444 = ORIENTED_EDGE ( 'NONE', *, *, #50, .T. ) ;
#445 = CARTESIAN_POINT ( 'NONE',  ( -8.500000000000000000, 35.50000000000000711, 0.000000000000000000 ) ) ;
#446 = AXIS2_PLACEMENT_3D ( 'NONE', #300, #537, #722 ) ;
#447 = EDGE_CURVE ( 'NONE', #423, #420, #243, .T. ) ;
#448 = APPLICATION_PROTOCOL_DEFINITION ( 'draft international standard', 'automotive_design', 1998, #46 ) ;
#449 = ORIENTED_EDGE ( 'NONE', *, *, #477, .T. ) ;
#450 = CIRCLE ( 'NONE', #47, 2.249999999999977796 ) ;
#451 = CARTESIAN_POINT ( 'NONE',  ( -8.673617379884035472E-16, 4.500000000000000000, 12.75000000000002132 ) ) ;
#452 = VERTEX_POINT ( 'NONE', #213 ) ;
#453 = ORIENTED_EDGE ( 'NONE', *, *, #714, .T. ) ;
#454 = EDGE_CURVE ( 'NONE', #697, #571, #524, .T. ) ;
#455 = AXIS2_PLACEMENT_3D ( 'NONE', #675, #86, #441 ) ;
#456 = DIRECTION ( 'NONE',  ( 1.049697256412016823E-16, -1.000000000000000000, 0.000000000000000000 ) ) ;
#457 = AXIS2_PLACEMENT_3D ( 'NONE', #599, #360, #367 ) ;
#458 = ORIENTED_EDGE ( 'NONE', *, *, #755, .T. ) ;
#459 = EDGE_CURVE ( 'NONE', #512, #328, #125, .T. ) ;
#460 = VERTEX_POINT ( 'NONE', #695 ) ;
#461 = ORIENTED_EDGE ( 'NONE', *, *, #45, .F. ) ;
#462 = LINE ( 'NONE', #341, #395 ) ;
#463 = DIRECTION ( 'NONE',  ( -1.000000000000000000, -0.000000000000000000, -0.000000000000000000 ) ) ;
#464 = ORIENTED_EDGE ( 'NONE', *, *, #725, .T. ) ;
#465 = CIRCLE ( 'NONE', #528, 4.000000000000000000 ) ;
#466 = DIRECTION ( 'NONE',  ( 0.000000000000000000, 0.000000000000000000, 1.000000000000000000 ) ) ;
#467 = DIRECTION ( 'NONE',  ( -1.000000000000000000, -0.000000000000000000, -0.000000000000000000 ) ) ;
#468 = MECHANICAL_DESIGN_GEOMETRIC_PRESENTATION_REPRESENTATION (  '', ( #38 ), #756 ) ;
#469 = DIRECTION ( 'NONE',  ( -1.000000000000000000, -0.000000000000000000, -0.000000000000000000 ) ) ;
#470 = ORIENTED_EDGE ( 'NONE', *, *, #549, .T. ) ;
#471 = CARTESIAN_POINT ( 'NONE',  ( -4.500000000000000888, 15.50000000000000178, 100.0000000000000000 ) ) ;
#472 = CARTESIAN_POINT ( 'NONE',  ( 19.00000000000000355, 13.50000000000000178, 100.0000000000000000 ) ) ;
#473 = CARTESIAN_POINT ( 'NONE',  ( -2.500000000000000000, 4.500000000000000000, 85.00000000000000000 ) ) ;
#474 = CARTESIAN_POINT ( 'NONE',  ( -2.500000000000000000, 4.500000000000000000, 87.24999999999998579 ) ) ;
#475 = DIRECTION ( 'NONE',  ( -1.000000000000000000, -0.000000000000000000, -0.000000000000000000 ) ) ;
#476 = CARTESIAN_POINT ( 'NONE',  ( -2.317630959005974489, -2.838279335551477044E-16, 14.54262469653522949 ) ) ;
#477 = EDGE_CURVE ( 'NONE', #617, #443, #648, .T. ) ;
#478 = DIRECTION ( 'NONE',  ( 1.156482317317871133E-15, 1.000000000000000000, -0.000000000000000000 ) ) ;
#479 = CIRCLE ( 'NONE', #694, 2.249999999999977796 ) ;
#480 = ORIENTED_EDGE ( 'NONE', *, *, #477, .F. ) ;
#481 = PLANE ( 'NONE',  #696 ) ;
#482 = CIRCLE ( 'NONE', #658, 2.000000000000000000 ) ;
#483 = DIRECTION ( 'NONE',  ( 1.049697256412016823E-16, -1.000000000000000000, 0.000000000000000000 ) ) ;
#484 = CLOSED_SHELL ( 'NONE', ( #700, #650, #416, #322, #570, #489, #126, #758, #283, #132, #385, #598, #232, #70, #347, #42, #296, #582, #330, #747, #162, #707 ) ) ;
#485 = ORIENTED_EDGE ( 'NONE', *, *, #3, .T. ) ;
#486 = DIRECTION ( 'NONE',  ( -0.7071067811865473507, 0.000000000000000000, 0.7071067811865477948 ) ) ;
#487 = CARTESIAN_POINT ( 'NONE',  ( -4.500000000000000888, 11.50000000000000178, 100.0000000000000000 ) ) ;
#488 = SURFACE_STYLE_FILL_AREA ( #120 ) ;
#489 = ADVANCED_FACE ( 'NONE', ( #686, #508, #765 ), #402, .F. ) ;
#490 = CARTESIAN_POINT ( 'NONE',  ( -8.500000000000000000, 11.50000000000000178, 100.0000000000000000 ) ) ;
#491 = ORIENTED_EDGE ( 'NONE', *, *, #215, .T. ) ;
#492 = CARTESIAN_POINT ( 'NONE',  ( 19.00000000000000355, 13.50000000000000178, 100.0000000000000000 ) ) ;
#493 = DIRECTION ( 'NONE',  ( -0.000000000000000000, 0.000000000000000000, 1.000000000000000000 ) ) ;
#494 = ORIENTED_EDGE ( 'NONE', *, *, #676, .F. ) ;
#495 = EDGE_LOOP ( 'NONE', ( #222, #2, #188, #192 ) ) ;
#496 = EDGE_CURVE ( 'NONE', #52, #218, #575, .T. ) ;
#497 = FACE_OUTER_BOUND ( 'NONE', #151, .T. ) ;
#498 = CIRCLE ( 'NONE', #332, 2.249999999999988010 ) ;
#499 = DIRECTION ( 'NONE',  ( 3.942553354492742052E-17, -1.000000000000000000, 0.000000000000000000 ) ) ;
#500 = ORIENTED_EDGE ( 'NONE', *, *, #317, .F. ) ;
#501 = ORIENTED_EDGE ( 'NONE', *, *, #262, .F. ) ;
#502 = DIRECTION ( 'NONE',  ( 0.000000000000000000, 0.000000000000000000, -1.000000000000000000 ) ) ;
#503 = ORIENTED_EDGE ( 'NONE', *, *, #403, .T. ) ;
#504 = PRODUCT_DEFINITION_CONTEXT ( 'detailed design', #111, 'design' ) ;
#505 = FACE_OUTER_BOUND ( 'NONE', #721, .T. ) ;
#506 = EDGE_CURVE ( 'NONE', #699, #523, #155, .T. ) ;
#507 = ORIENTED_EDGE ( 'NONE', *, *, #269, .T. ) ;
#508 = FACE_BOUND ( 'NONE', #561, .T. ) ;
#509 = EDGE_CURVE ( 'NONE', #739, #737, #482, .T. ) ;
#510 = ORIENTED_EDGE ( 'NONE', *, *, #35, .F. ) ;
#511 = LINE ( 'NONE', #397, #380 ) ;
#512 = VERTEX_POINT ( 'NONE', #290 ) ;
#513 = EDGE_LOOP ( 'NONE', ( #429, #31, #160, #679 ) ) ;
#514 = DIRECTION ( 'NONE',  ( -1.000000000000000000, -3.469446951953614189E-15, -0.000000000000000000 ) ) ;
#515 = ORIENTED_EDGE ( 'NONE', *, *, #616, .F. ) ;
#516 = EDGE_CURVE ( 'NONE', #742, #369, #320, .T. ) ;
#517 = ORIENTED_EDGE ( 'NONE', *, *, #13, .T. ) ;
#518 = VECTOR ( 'NONE', #478, 1000.000000000000000 ) ;
#519 = EDGE_LOOP ( 'NONE', ( #449, #248, #84, #181 ) ) ;
#520 = CARTESIAN_POINT ( 'NONE',  ( -2.500000000000001776, 0.000000000000000000, 16.35646599662505452 ) ) ;
#521 = EDGE_CURVE ( 'NONE', #666, #107, #511, .T. ) ;
#522 = LINE ( 'NONE', #343, #530 ) ;
#523 = VERTEX_POINT ( 'NONE', #313 ) ;
#524 = LINE ( 'NONE', #171, #641 ) ;
#525 = CARTESIAN_POINT ( 'NONE',  ( 0.000000000000000000, 0.000000000000000000, 0.000000000000000000 ) ) ;
#526 = LINE ( 'NONE', #716, #217 ) ;
#527 = VERTEX_POINT ( 'NONE', #237 ) ;
#528 = AXIS2_PLACEMENT_3D ( 'NONE', #471, #713, #175 ) ;
#529 = DIRECTION ( 'NONE',  ( -1.000000000000000000, -0.000000000000000000, -0.000000000000000000 ) ) ;
#530 = VECTOR ( 'NONE', #409, 1000.000000000000000 ) ;
#531 = CARTESIAN_POINT ( 'NONE',  ( -0.04999999999999232836, 4.500000000000000000, 17.24999999999998579 ) ) ;
#532 = CARTESIAN_POINT ( 'NONE',  ( -8.500000000000000000, 15.50000000000000178, 0.000000000000000000 ) ) ;
#533 = EDGE_CURVE ( 'NONE', #742, #527, #121, .T. ) ;
#534 = DIRECTION ( 'NONE',  ( 0.000000000000000000, 0.000000000000000000, -1.000000000000000000 ) ) ;
#535 = PLANE ( 'NONE',  #72 ) ;
#536 =( NAMED_UNIT ( * ) PLANE_ANGLE_UNIT ( ) SI_UNIT ( $, .RADIAN. ) );
#537 = DIRECTION ( 'NONE',  ( -1.000000000000000000, -0.000000000000000000, -0.000000000000000000 ) ) ;
#538 = EDGE_CURVE ( 'NONE', #623, #208, #498, .T. ) ;
#539 = LINE ( 'NONE', #414, #90 ) ;
#540 = PRODUCT_DEFINITION ( 'NON CONOSCIUTO', '', #359, #504 ) ;
#541 =( NAMED_UNIT ( * ) SI_UNIT ( $, .STERADIAN. ) SOLID_ANGLE_UNIT ( ) );
#542 = CARTESIAN_POINT ( 'NONE',  ( -0.04999999999999232836, 4.500000000000000000, 12.75000000000000888 ) ) ;
#543 = VECTOR ( 'NONE', #417, 1000.000000000000000 ) ;
#544 = CARTESIAN_POINT ( 'NONE',  ( -0.04999999999999232836, 4.500000000000000000, 82.75000000000001421 ) ) ;
#545 = CIRCLE ( 'NONE', #308, 2.249999999999988010 ) ;
#546 = FILL_AREA_STYLE_COLOUR ( '', #399 ) ;
#547 = DIRECTION ( 'NONE',  ( -1.000000000000000000, -0.000000000000000000, -0.000000000000000000 ) ) ;
#548 = DIRECTION ( 'NONE',  ( 0.000000000000000000, 0.000000000000000000, 1.000000000000000000 ) ) ;
#549 = EDGE_CURVE ( 'NONE', #423, #208, #16, .T. ) ;
#550 = DIRECTION ( 'NONE',  ( -0.000000000000000000, -0.000000000000000000, -1.000000000000000000 ) ) ;
#551 = DIRECTION ( 'NONE',  ( 0.000000000000000000, 0.000000000000000000, 1.000000000000000000 ) ) ;
#552 = ORIENTED_EDGE ( 'NONE', *, *, #509, .F. ) ;
#553 = CARTESIAN_POINT ( 'NONE',  ( -2.500000000000000000, 4.500000000000000000, 15.00000000000000000 ) ) ;
#554 = DIRECTION ( 'NONE',  ( 1.049697256412016823E-16, -1.000000000000000000, 0.000000000000000000 ) ) ;
#555 = ORIENTED_EDGE ( 'NONE', *, *, #459, .F. ) ;
#556 = ORIENTED_EDGE ( 'NONE', *, *, #3, .F. ) ;
#557 = AXIS2_PLACEMENT_3D ( 'NONE', #753, #118, #335 ) ;
#558 = LINE ( 'NONE', #264, #122 ) ;
#559 = FACE_OUTER_BOUND ( 'NONE', #712, .T. ) ;
#560 = AXIS2_PLACEMENT_3D ( 'NONE', #473, #67, #224 ) ;
#561 = EDGE_LOOP ( 'NONE', ( #80, #764 ) ) ;
#562 = EDGE_CURVE ( 'NONE', #693, #52, #718, .T. ) ;
#563 = VERTEX_POINT ( 'NONE', #422 ) ;
#564 = VERTEX_POINT ( 'NONE', #407 ) ;
#565 = DIRECTION ( 'NONE',  ( -1.000000000000000000, -0.000000000000000000, -0.000000000000000000 ) ) ;
#566 = ORIENTED_EDGE ( 'NONE', *, *, #447, .F. ) ;
#567 = ORIENTED_EDGE ( 'NONE', *, *, #643, .T. ) ;
#568 = DIRECTION ( 'NONE',  ( -0.000000000000000000, -0.000000000000000000, -1.000000000000000000 ) ) ;
#569 = AXIS2_PLACEMENT_3D ( 'NONE', #223, #702, #398 ) ;
#570 = ADVANCED_FACE ( 'NONE', ( #354 ), #669, .F. ) ;
#571 = VERTEX_POINT ( 'NONE', #665 ) ;
#572 = PRODUCT ( 'ELP-0021-2', 'ELP-0021-2', '', ( #36 ) ) ;
#573 = AXIS2_PLACEMENT_3D ( 'NONE', #78, #377, #254 ) ;
#574 = ORIENTED_EDGE ( 'NONE', *, *, #396, .T. ) ;
#575 = LINE ( 'NONE', #628, #580 ) ;
#576 = EDGE_CURVE ( 'NONE', #52, #697, #653, .T. ) ;
#577 = EDGE_LOOP ( 'NONE', ( #331, #418, #731, #500, #517, #153 ) ) ;
#578 = EDGE_LOOP ( 'NONE', ( #491, #277, #165, #759 ) ) ;
#579 = B_SPLINE_CURVE_WITH_KNOTS ( 'NONE', 3,
 ( #520, #238, #404, #291, #413, #408, #476, #282, #361, #587 ),
 .UNSPECIFIED., .F., .F.,
 ( 4, 2, 2, 2, 4 ),
 ( 0.02325897412907039150, 0.02393999439126075213, 0.02462101465345110582, 0.02530203491564146298, 0.02598305517783181667 ),
 .UNSPECIFIED. ) ;
#580 = VECTOR ( 'NONE', #568, 1000.000000000000000 ) ;
#581 = VERTEX_POINT ( 'NONE', #60 ) ;
#582 = ADVANCED_FACE ( 'NONE', ( #595 ), #11, .T. ) ;
#583 = CARTESIAN_POINT ( 'NONE',  ( 0.000000000000000000, 0.000000000000000000, 100.0000000000000000 ) ) ;
#584 = DIRECTION ( 'NONE',  ( 0.000000000000000000, -1.000000000000000000, 0.000000000000000000 ) ) ;
#585 = ORIENTED_EDGE ( 'NONE', *, *, #576, .T. ) ;
#586 = CARTESIAN_POINT ( 'NONE',  ( -8.673617379884035472E-16, 4.500000000000000000, 17.24999999999997868 ) ) ;
#587 = CARTESIAN_POINT ( 'NONE',  ( -2.500000000000000000, -3.061616997868383141E-16, 13.64353400337495081 ) ) ;
#588 = CARTESIAN_POINT ( 'NONE',  ( -8.673617379884035472E-16, 4.500000000000000000, 87.24999999999998579 ) ) ;
#589 = CARTESIAN_POINT ( 'NONE',  ( -4.500000000000000888, 9.500000000000001776, 100.0000000000000000 ) ) ;
#590 = CARTESIAN_POINT ( 'NONE',  ( -4.500000000000000000, 15.50000000000000000, 100.0000000000000000 ) ) ;
#591 = DIRECTION ( 'NONE',  ( -0.000000000000000000, -0.000000000000000000, 1.000000000000000000 ) ) ;
#592 = VECTOR ( 'NONE', #14, 1000.000000000000000 ) ;
#593 = CARTESIAN_POINT ( 'NONE',  ( 19.00000000000000000, 10.50000000000000000, 100.0000000000000000 ) ) ;
#594 = VECTOR ( 'NONE', #234, 1000.000000000000000 ) ;
#595 = FACE_OUTER_BOUND ( 'NONE', #289, .T. ) ;
#596 = CARTESIAN_POINT ( 'NONE',  ( -2.500000000000000000, 9.500000000000001776, 100.0000000000000000 ) ) ;
#597 = LINE ( 'NONE', #239, #294 ) ;
#598 = ADVANCED_FACE ( 'NONE', ( #133 ), #481, .F. ) ;
#599 = CARTESIAN_POINT ( 'NONE',  ( -4.500000000000000888, 15.50000000000000178, 100.0000000000000000 ) ) ;
#600 = CARTESIAN_POINT ( 'NONE',  ( -0.04999999999999232836, 4.500000000000000000, 87.25000000000000000 ) ) ;
#601 = DIRECTION ( 'NONE',  ( -1.000000000000000000, -0.000000000000000000, -0.000000000000000000 ) ) ;
#602 = ORIENTED_EDGE ( 'NONE', *, *, #496, .T. ) ;
#603 = LINE ( 'NONE', #233, #705 ) ;
#604 = CYLINDRICAL_SURFACE ( 'NONE', #353, 2.249999999999977796 ) ;
#605 = CIRCLE ( 'NONE', #767, 2.249999999999988010 ) ;
#606 = DIRECTION ( 'NONE',  ( 1.000000000000000000, 0.000000000000000000, 0.000000000000000000 ) ) ;
#607 = DIRECTION ( 'NONE',  ( -3.942553354492742052E-17, 1.000000000000000000, -0.000000000000000000 ) ) ;
#608 = VECTOR ( 'NONE', #40, 1000.000000000000000 ) ;
#609 = EDGE_CURVE ( 'NONE', #527, #389, #100, .T. ) ;
#610 = CARTESIAN_POINT ( 'NONE',  ( -4.500000000000000000, 13.50000000000000178, 0.000000000000000000 ) ) ;
#611 = AXIS2_PLACEMENT_3D ( 'NONE', #589, #55, #63 ) ;
#612 = DIRECTION ( 'NONE',  ( -9.130123557772669567E-17, 1.000000000000000000, 0.000000000000000000 ) ) ;
#613 = DIRECTION ( 'NONE',  ( 1.000000000000000000, 9.130123557772669567E-17, -0.000000000000000000 ) ) ;
#614 = DIRECTION ( 'NONE',  ( 0.000000000000000000, 0.000000000000000000, 1.000000000000000000 ) ) ;
#615 = PLANE ( 'NONE',  #103 ) ;
#616 = EDGE_CURVE ( 'NONE', #623, #391, #730, .T. ) ;
#617 = VERTEX_POINT ( 'NONE', #303 ) ;
#618 = FACE_OUTER_BOUND ( 'NONE', #519, .T. ) ;
#619 = CARTESIAN_POINT ( 'NONE',  ( -8.500000000000000000, 35.50000000000000711, 100.0000000000000000 ) ) ;
#620 = ORIENTED_EDGE ( 'NONE', *, *, #195, .F. ) ;
#621 = LINE ( 'NONE', #325, #741 ) ;
#622 = EDGE_CURVE ( 'NONE', #737, #666, #603, .T. ) ;
#623 = VERTEX_POINT ( 'NONE', #542 ) ;
#624 = ORIENTED_EDGE ( 'NONE', *, *, #521, .T. ) ;
#625 = CARTESIAN_POINT ( 'NONE',  ( -0.04999999999999232836, 4.500000000000000000, 85.00000000000000000 ) ) ;
#626 = ORIENTED_EDGE ( 'NONE', *, *, #182, .F. ) ;
#627 = EDGE_CURVE ( 'NONE', #564, #221, #727, .T. ) ;
#628 = CARTESIAN_POINT ( 'NONE',  ( -2.500000000000000000, -3.061616997868383141E-16, 100.0000000000000000 ) ) ;
#629 = ORIENTED_EDGE ( 'NONE', *, *, #143, .F. ) ;
#630 = AXIS2_PLACEMENT_3D ( 'NONE', #253, #502, #256 ) ;
#631 = DIRECTION ( 'NONE',  ( -1.000000000000000000, -1.049697256412017070E-16, 0.000000000000000000 ) ) ;
#632 = EDGE_CURVE ( 'NONE', #693, #699, #668, .T. ) ;
#633 = CONICAL_SURFACE ( 'NONE', #306, 4.699999999999995737, 0.7853981633974485010 ) ;
#634 = ORIENTED_EDGE ( 'NONE', *, *, #698, .T. ) ;
#635 = VECTOR ( 'NONE', #726, 1000.000000000000000 ) ;
#636 = ORIENTED_EDGE ( 'NONE', *, *, #262, .T. ) ;
#637 = ORIENTED_EDGE ( 'NONE', *, *, #688, .T. ) ;
#638 = EDGE_CURVE ( 'NONE', #571, #135, #426, .T. ) ;
#639 =( NAMED_UNIT ( * ) PLANE_ANGLE_UNIT ( ) SI_UNIT ( $, .RADIAN. ) );
#640 = AXIS2_PLACEMENT_3D ( 'NONE', #152, #24, #548 ) ;
#641 = VECTOR ( 'NONE', #327, 1000.000000000000000 ) ;
#642 = ORIENTED_EDGE ( 'NONE', *, *, #643, .F. ) ;
#643 = EDGE_CURVE ( 'NONE', #333, #363, #465, .T. ) ;
#644 = AXIS2_PLACEMENT_3D ( 'NONE', #358, #601, #704 ) ;
#645 = CARTESIAN_POINT ( 'NONE',  ( -2.500000000000001776, 4.500000000000000000, 15.00000000000000000 ) ) ;
#646 = CARTESIAN_POINT ( 'NONE',  ( 0.000000000000000000, 0.000000000000000000, 100.0000000000000000 ) ) ;
#647 = ORIENTED_EDGE ( 'NONE', *, *, #134, .T. ) ;
#648 = LINE ( 'NONE', #445, #168 ) ;
#649 = DIRECTION ( 'NONE',  ( -1.156482317317871133E-15, -1.000000000000000000, 0.000000000000000000 ) ) ;
#650 = ADVANCED_FACE ( 'NONE', ( #8 ), #65, .F. ) ;
#651 = CARTESIAN_POINT ( 'NONE',  ( -2.500000000000001776, 4.500000000000000000, 85.00000000000000000 ) ) ;
#652 = ORIENTED_EDGE ( 'NONE', *, *, #114, .F. ) ;
#653 = LINE ( 'NONE', #411, #245 ) ;
#654 = LINE ( 'NONE', #61, #292 ) ;
#655 = CIRCLE ( 'NONE', #206, 4.000000000000000000 ) ;
#656 = DIRECTION ( 'NONE',  ( 1.000000000000000000, 9.130123557772669567E-17, -0.000000000000000000 ) ) ;
#657 = DIRECTION ( 'NONE',  ( -1.000000000000000000, -0.000000000000000000, -0.000000000000000000 ) ) ;
#658 = AXIS2_PLACEMENT_3D ( 'NONE', #590, #329, #56 ) ;
#659 = CARTESIAN_POINT ( 'NONE',  ( -2.500000000000001776, 4.500000000000000000, 85.00000000000000000 ) ) ;
#660 = LINE ( 'NONE', #525, #594 ) ;
#661 = AXIS2_PLACEMENT_3D ( 'NONE', #169, #711, #183 ) ;
#662 = AXIS2_PLACEMENT_3D ( 'NONE', #33, #259, #678 ) ;
#663 = CARTESIAN_POINT ( 'NONE',  ( -6.500000000000000000, 13.50000000000000178, 100.0000000000000000 ) ) ;
#664 = EDGE_LOOP ( 'NONE', ( #410, #754 ) ) ;
#665 = CARTESIAN_POINT ( 'NONE',  ( -1.102182119232617714E-15, 10.49999999999999822, 100.0000000000000000 ) ) ;
#666 = VERTEX_POINT ( 'NONE', #357 ) ;
#667 = DIRECTION ( 'NONE',  ( 0.000000000000000000, 0.000000000000000000, 1.000000000000000000 ) ) ;
#668 = LINE ( 'NONE', #137, #184 ) ;
#669 = PLANE ( 'NONE',  #431 ) ;
#670 = PLANE ( 'NONE',  #630 ) ;
#671 = AXIS2_PLACEMENT_3D ( 'NONE', #258, #612, #316 ) ;
#672 = CARTESIAN_POINT ( 'NONE',  ( -4.500000000000000888, 11.50000000000000178, 100.0000000000000000 ) ) ;
#673 = ORIENTED_EDGE ( 'NONE', *, *, #755, .F. ) ;
#674 = ORIENTED_EDGE ( 'NONE', *, *, #18, .F. ) ;
#675 = CARTESIAN_POINT ( 'NONE',  ( -8.500000000000000000, 35.50000000000000711, 100.0000000000000000 ) ) ;
#676 = EDGE_CURVE ( 'NONE', #699, #563, #209, .T. ) ;
#677 = FACE_OUTER_BOUND ( 'NONE', #202, .T. ) ;
#678 = DIRECTION ( 'NONE',  ( 1.000000000000000000, 0.000000000000000000, 0.000000000000000000 ) ) ;
#679 = ORIENTED_EDGE ( 'NONE', *, *, #64, .T. ) ;
#680 = CARTESIAN_POINT ( 'NONE',  ( -2.436767031860288757, -2.984178945835498362E-16, 83.86262902750094383 ) ) ;
#681 = EDGE_CURVE ( 'NONE', #107, #443, #462, .T. ) ;
#682 = AXIS2_PLACEMENT_3D ( 'NONE', #109, #614, #81 ) ;
#683 = SHAPE_DEFINITION_REPRESENTATION ( #89, #762 ) ;
#684 = ORIENTED_EDGE ( 'NONE', *, *, #496, .F. ) ;
#685 = VECTOR ( 'NONE', #475, 1000.000000000000000 ) ;
#686 = FACE_BOUND ( 'NONE', #664, .T. ) ;
#687 = ORIENTED_EDGE ( 'NONE', *, *, #688, .F. ) ;
#688 = EDGE_CURVE ( 'NONE', #328, #739, #9, .T. ) ;
#689 = ORIENTED_EDGE ( 'NONE', *, *, #632, .F. ) ;
#690 = ORIENTED_EDGE ( 'NONE', *, *, #390, .T. ) ;
#691 = ORIENTED_EDGE ( 'NONE', *, *, #102, .F. ) ;
#692 = DIRECTION ( 'NONE',  ( -0.000000000000000000, 0.000000000000000000, 1.000000000000000000 ) ) ;
#693 = VERTEX_POINT ( 'NONE', #596 ) ;
#694 = AXIS2_PLACEMENT_3D ( 'NONE', #130, #244, #483 ) ;
#695 = CARTESIAN_POINT ( 'NONE',  ( -2.500000000000001776, 0.000000000000000000, 16.35646599662505452 ) ) ;
#696 = AXIS2_PLACEMENT_3D ( 'NONE', #490, #297, #534 ) ;
#697 = VERTEX_POINT ( 'NONE', #583 ) ;
#698 = EDGE_CURVE ( 'NONE', #460, #326, #579, .T. ) ;
#699 = VERTEX_POINT ( 'NONE', #167 ) ;
#700 = ADVANCED_FACE ( 'NONE', ( #53 ), #633, .F. ) ;
#701 = ORIENTED_EDGE ( 'NONE', *, *, #516, .T. ) ;
#702 = DIRECTION ( 'NONE',  ( -1.000000000000000000, -0.000000000000000000, -0.000000000000000000 ) ) ;
#703 = CONICAL_SURFACE ( 'NONE', #226, 4.699999999999999289, 0.7853981633974485010 ) ;
#704 = DIRECTION ( 'NONE',  ( 0.000000000000000000, 0.000000000000000000, 1.000000000000000000 ) ) ;
#705 = VECTOR ( 'NONE', #607, 1000.000000000000000 ) ;
#706 = EDGE_LOOP ( 'NONE', ( #394, #485, #255, #384 ) ) ;
#707 = ADVANCED_FACE ( 'NONE', ( #242 ), #108, .F. ) ;
#708 = CARTESIAN_POINT ( 'NONE',  ( 19.00000000000000355, 13.50000000000000178, 100.0000000000000000 ) ) ;
#709 = VECTOR ( 'NONE', #145, 1000.000000000000000 ) ;
#710 = FACE_OUTER_BOUND ( 'NONE', #578, .T. ) ;
#711 = DIRECTION ( 'NONE',  ( -1.000000000000000000, -0.000000000000000000, -0.000000000000000000 ) ) ;
#712 = EDGE_LOOP ( 'NONE', ( #92, #567, #444, #94, #585, #39, #392, #440, #690, #225, #74, #624 ) ) ;
#713 = DIRECTION ( 'NONE',  ( -0.000000000000000000, 0.000000000000000000, 1.000000000000000000 ) ) ;
#714 = EDGE_CURVE ( 'NONE', #44, #391, #744, .T. ) ;
#715 = LINE ( 'NONE', #129, #309 ) ;
#716 = CARTESIAN_POINT ( 'NONE',  ( -6.500000000000000888, 35.50000000000001421, 0.000000000000000000 ) ) ;
#717 = DIRECTION ( 'NONE',  ( -0.000000000000000000, 0.000000000000000000, 1.000000000000000000 ) ) ;
#718 = LINE ( 'NONE', #187, #543 ) ;
#719 = DIRECTION ( 'NONE',  ( 0.000000000000000000, 0.000000000000000000, 1.000000000000000000 ) ) ;
#720 = CARTESIAN_POINT ( 'NONE',  ( -1.102182119232617714E-15, 10.49999999999999822, 0.000000000000000000 ) ) ;
#721 = EDGE_LOOP ( 'NONE', ( #270, #271, #286, #163, #23, #337 ) ) ;
#722 = DIRECTION ( 'NONE',  ( 0.000000000000000000, 0.000000000000000000, 1.000000000000000000 ) ) ;
#723 = AXIS2_PLACEMENT_3D ( 'NONE', #651, #469, #229 ) ;
#724 = FACE_OUTER_BOUND ( 'NONE', #204, .T. ) ;
#725 = EDGE_CURVE ( 'NONE', #443, #37, #654, .T. ) ;
#726 = DIRECTION ( 'NONE',  ( -0.000000000000000000, -0.000000000000000000, -1.000000000000000000 ) ) ;
#727 = LINE ( 'NONE', #196, #356 ) ;
#728 = CARTESIAN_POINT ( 'NONE',  ( -4.500000000000000888, 15.50000000000000178, 0.000000000000000000 ) ) ;
#729 = LINE ( 'NONE', #425, #76 ) ;
#730 = LINE ( 'NONE', #247, #272 ) ;
#731 = ORIENTED_EDGE ( 'NONE', *, *, #250, .T. ) ;
#732 = LINE ( 'NONE', #249, #25 ) ;
#733 = DIRECTION ( 'NONE',  ( 1.049697256412016823E-16, -1.000000000000000000, 0.000000000000000000 ) ) ;
#734 = ORIENTED_EDGE ( 'NONE', *, *, #50, .F. ) ;
#735 = CARTESIAN_POINT ( 'NONE',  ( -2.500000000000000000, -3.061616997868383141E-16, 13.64353400337495081 ) ) ;
#736 = DIRECTION ( 'NONE',  ( -1.000000000000000000, -3.942553354492742052E-17, 0.000000000000000000 ) ) ;
#737 = VERTEX_POINT ( 'NONE', #179 ) ;
#738 = CARTESIAN_POINT ( 'NONE',  ( -2.500000000000001776, 4.500000000000000888, 10.30000000000000071 ) ) ;
#739 = VERTEX_POINT ( 'NONE', #123 ) ;
#740 = CARTESIAN_POINT ( 'NONE',  ( -2.500000000000001776, 4.500000000000000000, 15.00000000000000000 ) ) ;
#741 = VECTOR ( 'NONE', #268, 1000.000000000000000 ) ;
#742 = VERTEX_POINT ( 'NONE', #600 ) ;
#743 = ORIENTED_EDGE ( 'NONE', *, *, #285, .F. ) ;
#744 = CIRCLE ( 'NONE', #569, 4.699999999999999289 ) ;
#745 = CARTESIAN_POINT ( 'NONE',  ( -8.673617379884035472E-16, 4.500000000000000000, 15.00000000000000000 ) ) ;
#746 = CIRCLE ( 'NONE', #342, 4.699999999999995737 ) ;
#747 = ADVANCED_FACE ( 'NONE', ( #766 ), #257, .F. ) ;
#748 = APPLICATION_PROTOCOL_DEFINITION ( 'draft international standard', 'automotive_design', 1998, #111 ) ;
#749 = ORIENTED_EDGE ( 'NONE', *, *, #35, .T. ) ;
#750 = CARTESIAN_POINT ( 'NONE',  ( -2.500000000000001776, 4.500000000000000888, 80.30000000000001137 ) ) ;
#751 = EDGE_LOOP ( 'NONE', ( #99, #637, #27, #144 ) ) ;
#752 = PRODUCT_RELATED_PRODUCT_CATEGORY ( 'part', '', ( #572 ) ) ;
#753 = CARTESIAN_POINT ( 'NONE',  ( -1.102182119232617714E-15, 10.49999999999999822, 100.0000000000000000 ) ) ;
#754 = ORIENTED_EDGE ( 'NONE', *, *, #102, .T. ) ;
#755 = EDGE_CURVE ( 'NONE', #523, #564, #660, .T. ) ;
#756 =( GEOMETRIC_REPRESENTATION_CONTEXT ( 3 ) GLOBAL_UNCERTAINTY_ASSIGNED_CONTEXT ( ( #93 ) ) GLOBAL_UNIT_ASSIGNED_CONTEXT ( ( #19, #536, #541 ) ) REPRESENTATION_CONTEXT ( 'NONE', 'WORKASPACE' ) );
#757 = ORIENTED_EDGE ( 'NONE', *, *, #622, .F. ) ;
#758 = ADVANCED_FACE ( 'NONE', ( #710 ), #298, .F. ) ;
#759 = ORIENTED_EDGE ( 'NONE', *, *, #279, .T. ) ;
#760 = CARTESIAN_POINT ( 'NONE',  ( -2.500000000000001776, 4.500000000000000000, 85.00000000000000000 ) ) ;
#761 = CARTESIAN_POINT ( 'NONE',  ( -0.04999999999999232836, 4.500000000000000000, 15.00000000000000000 ) ) ;
#762 = ADVANCED_BREP_SHAPE_REPRESENTATION ( 'ELP-0021-2', ( #32, #662 ), #434 ) ;
#763 = EDGE_CURVE ( 'NONE', #666, #617, #715, .T. ) ;
#764 = ORIENTED_EDGE ( 'NONE', *, *, #105, .T. ) ;
#765 = FACE_OUTER_BOUND ( 'NONE', #513, .T. ) ;
#766 = FACE_OUTER_BOUND ( 'NONE', #159, .T. ) ;
#767 = AXIS2_PLACEMENT_3D ( 'NONE', #625, #565, #388 ) ;
ENDSEC;
END-ISO-10303-21;
