ISO-10303-21;
HEADER;
FILE_DESCRIPTION (( 'STEP AP214' ),
    '1' );
FILE_NAME ('ELP-0035.STEP',
    '2026-04-12T13:30:17',
    ( '' ),
    ( '' ),
    'SwSTEP 2.0',
    'SolidWorks 2024',
    '' );
FILE_SCHEMA (( 'AUTOMOTIVE_DESIGN' ));
ENDSEC;

DATA;
#1 = EDGE_CURVE ( 'NONE', #592, #54, #963, .T. ) ;
#2 = LINE ( 'NONE', #164, #311 ) ;
#3 = DIRECTION ( 'NONE',  ( 0.9704222074352949479, 0.2414140412577723827, -0.000000000000000000 ) ) ;
#4 = DIRECTION ( 'NONE',  ( -0.000000000000000000, -0.000000000000000000, 1.000000000000000000 ) ) ;
#5 = ORIENTED_EDGE ( 'NONE', *, *, #47, .T. ) ;
#6 = CIRCLE ( 'NONE', #653, 2.249999999999977796 ) ;
#7 = CARTESIAN_POINT ( 'NONE',  ( -47.55545420673367119, -15.95239089262980059, -3.000000000000002665 ) ) ;
#8 = EDGE_CURVE ( 'NONE', #531, #152, #258, .T. ) ;
#9 = VECTOR ( 'NONE', #800, 1000.000000000000000 ) ;
#10 = DIRECTION ( 'NONE',  ( 1.000000000000000000, 0.000000000000000000, 0.000000000000000000 ) ) ;
#11 = AXIS2_PLACEMENT_3D ( 'NONE', #1123, #584, #699 ) ;
#12 = DIRECTION ( 'NONE',  ( 6.661307186332912908E-16, 1.000000000000000000, 0.000000000000000000 ) ) ;
#13 = ORIENTED_EDGE ( 'NONE', *, *, #208, .F. ) ;
#14 = CARTESIAN_POINT ( 'NONE',  ( 9.079866380819563432, -8.045974940702670608, 0.000000000000000000 ) ) ;
#15 = ORIENTED_EDGE ( 'NONE', *, *, #355, .T. ) ;
#16 = CARTESIAN_POINT ( 'NONE',  ( 0.000000000000000000, 0.000000000000000000, -82.00000000000000000 ) ) ;
#17 = ORIENTED_EDGE ( 'NONE', *, *, #1055, .F. ) ;
#18 = CARTESIAN_POINT ( 'NONE',  ( -6.059181243465328492, 3.645040830887615879, 0.000000000000000000 ) ) ;
#19 = PLANE ( 'NONE',  #678 ) ;
#20 = CARTESIAN_POINT ( 'NONE',  ( -1.207070206288862302, 4.852111037176475072, -82.00000000000000000 ) ) ;
#21 = ADVANCED_FACE ( 'NONE', ( #345 ), #1027, .F. ) ;
#22 = VERTEX_POINT ( 'NONE', #591 ) ;
#23 = DIRECTION ( 'NONE',  ( -0.2414140412577724104, 0.9704222074352948368, 2.602085213965210247E-15 ) ) ;
#24 = STYLED_ITEM ( 'NONE', ( #952 ), #118 ) ;
#25 = EDGE_LOOP ( 'NONE', ( #342, #303, #810, #489 ) ) ;
#26 = CARTESIAN_POINT ( 'NONE',  ( 18.27708015727290558, -0.3285962530221075983, 0.000000000000000000 ) ) ;
#27 = DIRECTION ( 'NONE',  ( 1.000000000000000000, 0.000000000000000000, 0.000000000000000000 ) ) ;
#28 = AXIS2_PLACEMENT_3D ( 'NONE', #560, #741, #23 ) ;
#29 = ORIENTED_EDGE ( 'NONE', *, *, #855, .F. ) ;
#30 = CIRCLE ( 'NONE', #877, 3.000000000000002220 ) ;
#31 = DIRECTION ( 'NONE',  ( -0.9704222074352949479, -0.2414140412577724937, -0.000000000000000000 ) ) ;
#32 = ORIENTED_EDGE ( 'NONE', *, *, #1, .T. ) ;
#33 = DIRECTION ( 'NONE',  ( -0.7660444431189793457, -0.6427876096865378086, 0.000000000000000000 ) ) ;
#34 = DIRECTION ( 'NONE',  ( 0.000000000000000000, -0.000000000000000000, 1.000000000000000000 ) ) ;
#35 = VERTEX_POINT ( 'NONE', #145 ) ;
#36 = LINE ( 'NONE', #1088, #951 ) ;
#37 = EDGE_CURVE ( 'NONE', #566, #1013, #957, .T. ) ;
#38 = VERTEX_POINT ( 'NONE', #269 ) ;
#39 = CARTESIAN_POINT ( 'NONE',  ( 2.733583504843942080, 2.293748910706840505, 0.000000000000000000 ) ) ;
#40 = CARTESIAN_POINT ( 'NONE',  ( 1.689898288804406068, -6.792955452047055864, -79.00000000000000000 ) ) ;
#41 = EDGE_LOOP ( 'NONE', ( #860, #13, #716, #273 ) ) ;
#42 = SHAPE_DEFINITION_REPRESENTATION ( #409, #673 ) ;
#43 = ORIENTED_EDGE ( 'NONE', *, *, #58, .F. ) ;
#44 = FACE_OUTER_BOUND ( 'NONE', #756, .T. ) ;
#45 = COLOUR_RGB ( '',0.7921568627450980005, 0.8196078431372548767, 0.9333333333333333481 ) ;
#46 = CARTESIAN_POINT ( 'NONE',  ( 9.027080157272926897, 10.79725392388590421, 0.000000000000000000 ) ) ;
#47 = EDGE_CURVE ( 'NONE', #921, #211, #83, .T. ) ;
#48 = ORIENTED_EDGE ( 'NONE', *, *, #58, .T. ) ;
#49 = AXIS2_PLACEMENT_3D ( 'NONE', #955, #496, #866 ) ;
#50 = ORIENTED_EDGE ( 'NONE', *, *, #1026, .F. ) ;
#51 = PLANE ( 'NONE',  #326 ) ;
#52 = LINE ( 'NONE', #310, #1073 ) ;
#53 = EDGE_CURVE ( 'NONE', #291, #97, #1117, .T. ) ;
#54 = VERTEX_POINT ( 'NONE', #1043 ) ;
#55 = CARTESIAN_POINT ( 'NONE',  ( 9.079866380819563432, -8.045974940702670608, -82.00000000000000000 ) ) ;
#56 = CARTESIAN_POINT ( 'NONE',  ( 9.079866380819563432, -8.045974940702670608, 0.000000000000000000 ) ) ;
#57 = EDGE_LOOP ( 'NONE', ( #438, #704 ) ) ;
#58 = EDGE_CURVE ( 'NONE', #105, #558, #943, .T. ) ;
#59 = CARTESIAN_POINT ( 'NONE',  ( -49.72818057805362457, -7.218591025712149722, 4.000000000000000000 ) ) ;
#60 = FACE_OUTER_BOUND ( 'NONE', #1098, .T. ) ;
#61 = AXIS2_PLACEMENT_3D ( 'NONE', #519, #875, #425 ) ;
#62 = VECTOR ( 'NONE', #724, 1000.000000000000000 ) ;
#63 = DIRECTION ( 'NONE',  ( -0.000000000000000000, -0.000000000000000000, -1.000000000000000000 ) ) ;
#64 = VECTOR ( 'NONE', #222, 1000.000000000000000 ) ;
#65 = AXIS2_PLACEMENT_3D ( 'NONE', #98, #967, #453 ) ;
#66 = CARTESIAN_POINT ( 'NONE',  ( 9.079866380819563432, -8.045974940702670608, 4.000000000000000000 ) ) ;
#67 = CARTESIAN_POINT ( 'NONE',  ( -1.207070206288862302, 4.852111037176475072, 0.000000000000000000 ) ) ;
#68 = CARTESIAN_POINT ( 'NONE',  ( 4.277080157272902028, 8.797253923885909543, -86.00000000000000000 ) ) ;
#69 = ORIENTED_EDGE ( 'NONE', *, *, #622, .T. ) ;
#70 = PLANE ( 'NONE',  #49 ) ;
#71 = DIRECTION ( 'NONE',  ( -0.9492161539016372718, -0.2361385652397420543, -0.2079116908177584266 ) ) ;
#72 = CARTESIAN_POINT ( 'NONE',  ( 4.277080157272902028, 3.588896382483342862, 4.000000000000000000 ) ) ;
#73 = ORIENTED_EDGE ( 'NONE', *, *, #103, .F. ) ;
#74 = CARTESIAN_POINT ( 'NONE',  ( -3.057787632811235223, 1.839482980609062679, 4.000000000000000000 ) ) ;
#75 = DIRECTION ( 'NONE',  ( -0.9704222074352949479, -0.2414140412577724937, 0.000000000000000000 ) ) ;
#76 = SURFACE_STYLE_FILL_AREA ( #1032 ) ;
#77 = EDGE_CURVE ( 'NONE', #975, #964, #1138, .T. ) ;
#78 = EDGE_LOOP ( 'NONE', ( #710, #170, #29, #371 ) ) ;
#79 = CIRCLE ( 'NONE', #765, 2.249999999999989786 ) ;
#80 = FACE_OUTER_BOUND ( 'NONE', #477, .T. ) ;
#81 = VERTEX_POINT ( 'NONE', #334 ) ;
#82 = CARTESIAN_POINT ( 'NONE',  ( -46.83121208296034155, -18.86365751493568155, 0.000000000000000000 ) ) ;
#83 = LINE ( 'NONE', #1125, #981 ) ;
#84 = ORIENTED_EDGE ( 'NONE', *, *, #662, .T. ) ;
#85 = CARTESIAN_POINT ( 'NONE',  ( 9.079866380819563432, -8.045974940702670608, -86.00000000000000000 ) ) ;
#86 = DIRECTION ( 'NONE',  ( -0.000000000000000000, -0.000000000000000000, 1.000000000000000000 ) ) ;
#87 = CARTESIAN_POINT ( 'NONE',  ( -6.059181243465328492, 3.645040830887614991, -82.00000000000000000 ) ) ;
#88 = ORIENTED_EDGE ( 'NONE', *, *, #436, .T. ) ;
#89 = ADVANCED_FACE ( 'NONE', ( #168 ), #510, .F. ) ;
#90 = DIRECTION ( 'NONE',  ( 0.000000000000000000, 0.000000000000000000, -1.000000000000000000 ) ) ;
#91 = EDGE_CURVE ( 'NONE', #558, #81, #501, .T. ) ;
#92 = DIRECTION ( 'NONE',  ( -0.6427876096865378086, 0.7660444431189793457, 0.000000000000000000 ) ) ;
#93 = CARTESIAN_POINT ( 'NONE',  ( 9.079866380819563432, -8.045974940702670608, 4.000000000000000000 ) ) ;
#94 = VERTEX_POINT ( 'NONE', #854 ) ;
#95 = CARTESIAN_POINT ( 'NONE',  ( -44.39085843715942303, -5.890813798794383160, -82.00000000000000000 ) ) ;
#96 = EDGE_CURVE ( 'NONE', #352, #740, #420, .T. ) ;
#97 = VERTEX_POINT ( 'NONE', #695 ) ;
#98 = CARTESIAN_POINT ( 'NONE',  ( 11.27708015727290025, 8.797253923885909543, -86.00000000000000000 ) ) ;
#99 = DIRECTION ( 'NONE',  ( 0.9704222074352949479, 0.2414140412577724937, -0.000000000000000000 ) ) ;
#100 = ORIENTED_EDGE ( 'NONE', *, *, #923, .F. ) ;
#101 = LINE ( 'NONE', #718, #196 ) ;
#102 = FACE_OUTER_BOUND ( 'NONE', #25, .T. ) ;
#103 = EDGE_CURVE ( 'NONE', #835, #132, #415, .T. ) ;
#104 = LINE ( 'NONE', #526, #62 ) ;
#105 = VERTEX_POINT ( 'NONE', #162 ) ;
#106 = DIRECTION ( 'NONE',  ( -0.2414140412577724382, 0.9704222074352948368, 0.000000000000000000 ) ) ;
#107 = ORIENTED_EDGE ( 'NONE', *, *, #1135, .T. ) ;
#108 = DIRECTION ( 'NONE',  ( -0.7660444431189793457, -0.6427876096865378086, 0.000000000000000000 ) ) ;
#109 = EDGE_CURVE ( 'NONE', #837, #336, #776, .T. ) ;
#110 = ORIENTED_EDGE ( 'NONE', *, *, #1115, .F. ) ;
#111 = VECTOR ( 'NONE', #940, 1000.000000000000000 ) ;
#112 = ORIENTED_EDGE ( 'NONE', *, *, #384, .F. ) ;
#113 = CARTESIAN_POINT ( 'NONE',  ( 4.277080157272902028, 3.588896382483342862, 4.000000000000000000 ) ) ;
#114 = DIRECTION ( 'NONE',  ( 0.9704222074352948368, 0.2414140412577725492, -0.000000000000000000 ) ) ;
#115 = VECTOR ( 'NONE', #422, 1000.000000000000000 ) ;
#116 = VECTOR ( 'NONE', #778, 1000.000000000000000 ) ;
#117 = VERTEX_POINT ( 'NONE', #1121 ) ;
#118 = MANIFOLD_SOLID_BREP ( 'Raccordo2', #412 ) ;
#119 = EDGE_CURVE ( 'NONE', #844, #652, #104, .T. ) ;
#120 = APPLICATION_PROTOCOL_DEFINITION ( 'draft international standard', 'automotive_design', 1998, #999 ) ;
#121 = VERTEX_POINT ( 'NONE', #689 ) ;
#122 = DIRECTION ( 'NONE',  ( 0.9704222074352949479, 0.2414140412577724937, -0.000000000000000000 ) ) ;
#123 = CARTESIAN_POINT ( 'NONE',  ( 4.277080157272902028, 3.588896382483342862, 0.000000000000000000 ) ) ;
#124 = EDGE_LOOP ( 'NONE', ( #599, #908, #382, #646 ) ) ;
#125 = EDGE_CURVE ( 'NONE', #900, #163, #290, .T. ) ;
#126 = DIRECTION ( 'NONE',  ( 0.8568976291385347333, -0.5154866178444966751, -0.000000000000000000 ) ) ;
#127 = EDGE_CURVE ( 'NONE', #1071, #607, #6, .T. ) ;
#128 = ORIENTED_EDGE ( 'NONE', *, *, #615, .F. ) ;
#129 = DIRECTION ( 'NONE',  ( 0.000000000000000000, -0.000000000000000000, 1.000000000000000000 ) ) ;
#130 = CARTESIAN_POINT ( 'NONE',  ( -0.4803545435887496273, 6.123971126301735346, -86.00000000000000000 ) ) ;
#131 = ORIENTED_EDGE ( 'NONE', *, *, #651, .F. ) ;
#132 = VERTEX_POINT ( 'NONE', #735 ) ;
#133 = CYLINDRICAL_SURFACE ( 'NONE', #694, 6.999999999999995559 ) ;
#134 = EDGE_CURVE ( 'NONE', #325, #180, #1056, .T. ) ;
#135 = DIRECTION ( 'NONE',  ( 0.000000000000000000, 0.000000000000000000, 1.000000000000000000 ) ) ;
#136 = AXIS2_PLACEMENT_3D ( 'NONE', #956, #509, #414 ) ;
#137 = ORIENTED_EDGE ( 'NONE', *, *, #868, .T. ) ;
#138 = AXIS2_PLACEMENT_3D ( 'NONE', #274, #183, #639 ) ;
#139 = DIRECTION ( 'NONE',  ( 0.9704222074352949479, 0.2414140412577724382, 0.000000000000000000 ) ) ;
#140 = CARTESIAN_POINT ( 'NONE',  ( 11.27708015727290203, 8.797253923885909543, 4.000000000000000000 ) ) ;
#141 = ADVANCED_FACE ( 'NONE', ( #530 ), #1067, .F. ) ;
#142 = ORIENTED_EDGE ( 'NONE', *, *, #1078, .T. ) ;
#143 = CARTESIAN_POINT ( 'NONE',  ( -44.39085843715943014, -5.890813798794384937, -82.00000000000000000 ) ) ;
#144 = DIRECTION ( 'NONE',  ( 1.000000000000000000, 0.000000000000000000, -0.000000000000000000 ) ) ;
#145 = CARTESIAN_POINT ( 'NONE',  ( 18.27708015727290558, -0.3285962530221075983, -86.00000000000000000 ) ) ;
#146 = ADVANCED_FACE ( 'NONE', ( #275 ), #283, .F. ) ;
#147 = CARTESIAN_POINT ( 'NONE',  ( 1.689898288804404958, -6.792955452047057641, 0.000000000000000000 ) ) ;
#148 = LINE ( 'NONE', #235, #966 ) ;
#149 = VECTOR ( 'NONE', #888, 1000.000000000000227 ) ;
#150 = DIRECTION ( 'NONE',  ( -0.000000000000000000, -0.000000000000000000, 1.000000000000000000 ) ) ;
#151 = AXIS2_PLACEMENT_3D ( 'NONE', #40, #295, #926 ) ;
#152 = VERTEX_POINT ( 'NONE', #455 ) ;
#153 = EDGE_CURVE ( 'NONE', #835, #190, #1082, .T. ) ;
#154 = VECTOR ( 'NONE', #122, 1000.000000000000000 ) ;
#155 = LINE ( 'NONE', #676, #896 ) ;
#156 = DIRECTION ( 'NONE',  ( 0.2414140412577727435, -0.9704222074352948368, 0.000000000000000000 ) ) ;
#157 = CARTESIAN_POINT ( 'NONE',  ( -46.10696995918702612, -21.77492413724156606, 4.000000000000000000 ) ) ;
#158 = EDGE_LOOP ( 'NONE', ( #821, #1060, #43, #791 ) ) ;
#159 = CARTESIAN_POINT ( 'NONE',  ( -49.72818057805362457, -7.218591025712149722, 4.000000000000000000 ) ) ;
#160 = EDGE_CURVE ( 'NONE', #685, #357, #381, .T. ) ;
#161 = PLANE ( 'NONE',  #192 ) ;
#162 = CARTESIAN_POINT ( 'NONE',  ( 4.277080157272902028, 3.588896382483342862, -86.00000000000000000 ) ) ;
#163 = VERTEX_POINT ( 'NONE', #87 ) ;
#164 = CARTESIAN_POINT ( 'NONE',  ( -46.10696995918702612, -21.77492413724156606, -86.00000000000000000 ) ) ;
#165 = PLANE ( 'NONE',  #714 ) ;
#166 = EDGE_CURVE ( 'NONE', #832, #54, #440, .T. ) ;
#167 = VECTOR ( 'NONE', #701, 1000.000000000000000 ) ;
#168 = FACE_OUTER_BOUND ( 'NONE', #385, .T. ) ;
#169 = PRESENTATION_LAYER_ASSIGNMENT (  '', '', ( #24 ) ) ;
#170 = ORIENTED_EDGE ( 'NONE', *, *, #109, .T. ) ;
#171 = VECTOR ( 'NONE', #995, 1000.000000000000000 ) ;
#172 = AXIS2_PLACEMENT_3D ( 'NONE', #1119, #332, #687 ) ;
#173 = DIRECTION ( 'NONE',  ( 1.000000000000000000, 0.000000000000000000, 0.000000000000000000 ) ) ;
#174 = VECTOR ( 'NONE', #221, 1000.000000000000000 ) ;
#175 = VECTOR ( 'NONE', #1009, 1000.000000000000000 ) ;
#176 = ORIENTED_EDGE ( 'NONE', *, *, #1033, .T. ) ;
#177 = FACE_OUTER_BOUND ( 'NONE', #1095, .T. ) ;
#178 = EDGE_CURVE ( 'NONE', #485, #592, #446, .T. ) ;
#179 = CARTESIAN_POINT ( 'NONE',  ( 0.000000000000000000, 0.000000000000000000, -82.00000000000000000 ) ) ;
#180 = VERTEX_POINT ( 'NONE', #973 ) ;
#181 = CARTESIAN_POINT ( 'NONE',  ( 14.37070575623447510, -3.638323423154464997, -3.000000000000000000 ) ) ;
#182 = ORIENTED_EDGE ( 'NONE', *, *, #125, .T. ) ;
#183 = DIRECTION ( 'NONE',  ( 0.000000000000000000, -0.000000000000000000, 1.000000000000000000 ) ) ;
#184 = ORIENTED_EDGE ( 'NONE', *, *, #333, .F. ) ;
#185 = DIRECTION ( 'NONE',  ( 0.9704222074352949479, 0.2414140412577724937, -0.000000000000000000 ) ) ;
#186 = ORIENTED_EDGE ( 'NONE', *, *, #588, .T. ) ;
#187 = CARTESIAN_POINT ( 'NONE',  ( 18.27708015727290558, -0.3285962530221075983, -86.00000000000000000 ) ) ;
#188 = DIRECTION ( 'NONE',  ( 0.9704222074352949479, 0.2414140412577724382, -0.000000000000000000 ) ) ;
#189 = VECTOR ( 'NONE', #263, 1000.000000000000000 ) ;
#190 = VERTEX_POINT ( 'NONE', #197 ) ;
#191 = DIRECTION ( 'NONE',  ( -0.9492161539016377159, -0.2361385652397421930, 0.2079116908177566225 ) ) ;
#192 = AXIS2_PLACEMENT_3D ( 'NONE', #775, #863, #428 ) ;
#193 = EDGE_LOOP ( 'NONE', ( #112, #1126, #664, #231 ) ) ;
#194 = VECTOR ( 'NONE', #404, 1000.000000000000114 ) ;
#195 = CARTESIAN_POINT ( 'NONE',  ( 4.277080157272905581, 8.797253923885909543, 4.000000000000000000 ) ) ;
#196 = VECTOR ( 'NONE', #524, 1000.000000000000000 ) ;
#197 = CARTESIAN_POINT ( 'NONE',  ( 9.079866380819563432, -8.045974940702670608, 4.000000000000000000 ) ) ;
#198 = ORIENTED_EDGE ( 'NONE', *, *, #333, .T. ) ;
#199 = DIRECTION ( 'NONE',  ( -0.9704222074352948368, -0.2414140412577725492, 0.000000000000000000 ) ) ;
#200 = EDGE_LOOP ( 'NONE', ( #1103, #264 ) ) ;
#201 = CARTESIAN_POINT ( 'NONE',  ( -0.4803545435887491832, 6.123971126301736234, 4.000000000000000000 ) ) ;
#202 = DIRECTION ( 'NONE',  ( 0.9704222074352949479, 0.2414140412577724382, -0.000000000000000000 ) ) ;
#203 = ORIENTED_EDGE ( 'NONE', *, *, #688, .T. ) ;
#204 = LINE ( 'NONE', #635, #823 ) ;
#205 = ORIENTED_EDGE ( 'NONE', *, *, #851, .F. ) ;
#206 = DIRECTION ( 'NONE',  ( -0.7660444431189790127, -0.6427876096865381417, -0.000000000000000000 ) ) ;
#207 = LINE ( 'NONE', #123, #323 ) ;
#208 = EDGE_CURVE ( 'NONE', #211, #117, #552, .T. ) ;
#209 = ORIENTED_EDGE ( 'NONE', *, *, #668, .F. ) ;
#210 =( NAMED_UNIT ( * ) SI_UNIT ( $, .STERADIAN. ) SOLID_ANGLE_UNIT ( ) );
#211 = VERTEX_POINT ( 'NONE', #460 ) ;
#212 = LINE ( 'NONE', #930, #541 ) ;
#213 = AXIS2_PLACEMENT_3D ( 'NONE', #140, #497, #387 ) ;
#214 = CIRCLE ( 'NONE', #677, 3.000000000000002220 ) ;
#215 = CARTESIAN_POINT ( 'NONE',  ( -49.07980504224911300, -12.20968975010084101, 1.291434853173253572 ) ) ;
#216 = ADVANCED_FACE ( 'NONE', ( #907 ), #545, .F. ) ;
#217 = CIRCLE ( 'NONE', #472, 6.999999999999997335 ) ;
#218 = ORIENTED_EDGE ( 'NONE', *, *, #502, .F. ) ;
#219 = CARTESIAN_POINT ( 'NONE',  ( 18.27708015727289848, 8.797253923885909543, -86.00000000000000000 ) ) ;
#220 = ORIENTED_EDGE ( 'NONE', *, *, #994, .F. ) ;
#221 = DIRECTION ( 'NONE',  ( 0.7660444431189793457, 0.6427876096865378086, -0.000000000000000000 ) ) ;
#222 = DIRECTION ( 'NONE',  ( 0.000000000000000000, 1.000000000000000000, 0.000000000000000000 ) ) ;
#223 = ORIENTED_EDGE ( 'NONE', *, *, #287, .F. ) ;
#224 = VERTEX_POINT ( 'NONE', #820 ) ;
#225 = CARTESIAN_POINT ( 'NONE',  ( 18.27708015727290558, -0.3285962530221075983, -86.00000000000000000 ) ) ;
#226 = LINE ( 'NONE', #846, #674 ) ;
#227 = ORIENTED_EDGE ( 'NONE', *, *, #335, .T. ) ;
#228 = EDGE_CURVE ( 'NONE', #740, #571, #79, .T. ) ;
#229 = DIRECTION ( 'NONE',  ( -0.000000000000000000, -0.000000000000000000, -1.000000000000000000 ) ) ;
#230 = CARTESIAN_POINT ( 'NONE',  ( 11.27708015727290203, 8.797253923885909543, 0.000000000000000000 ) ) ;
#231 = ORIENTED_EDGE ( 'NONE', *, *, #744, .F. ) ;
#232 = AXIS2_PLACEMENT_3D ( 'NONE', #711, #1054, #727 ) ;
#233 = AXIS2_PLACEMENT_3D ( 'NONE', #370, #1051, #173 ) ;
#234 = CARTESIAN_POINT ( 'NONE',  ( 9.079866380819563432, -8.045974940702670608, 4.000000000000000000 ) ) ;
#235 = CARTESIAN_POINT ( 'NONE',  ( -44.39085843715937330, -5.890813798794368950, 0.000000000000000000 ) ) ;
#236 = EDGE_CURVE ( 'NONE', #1013, #733, #376, .T. ) ;
#237 = ORIENTED_EDGE ( 'NONE', *, *, #125, .F. ) ;
#238 = LINE ( 'NONE', #427, #619 ) ;
#239 = DIRECTION ( 'NONE',  ( 0.2414140412577724382, -0.9704222074352949479, 0.000000000000000000 ) ) ;
#240 = EDGE_CURVE ( 'NONE', #900, #485, #745, .T. ) ;
#241 = ORIENTED_EDGE ( 'NONE', *, *, #398, .T. ) ;
#242 = ORIENTED_EDGE ( 'NONE', *, *, #375, .F. ) ;
#243 = DIRECTION ( 'NONE',  ( -0.2414140412577725769, 0.9704222074352949479, 0.000000000000000000 ) ) ;
#244 = AXIS2_PLACEMENT_3D ( 'NONE', #785, #506, #864 ) ;
#245 = CARTESIAN_POINT ( 'NONE',  ( 18.27708015727289848, 8.797253923885909543, -86.00000000000000000 ) ) ;
#246 = VECTOR ( 'NONE', #373, 1000.000000000000227 ) ;
#247 = AXIS2_PLACEMENT_3D ( 'NONE', #902, #465, #12 ) ;
#248 = SURFACE_SIDE_STYLE ('',( #76 ) ) ;
#249 = VECTOR ( 'NONE', #570, 1000.000000000000000 ) ;
#250 = VECTOR ( 'NONE', #734, 1000.000000000000000 ) ;
#251 = EDGE_LOOP ( 'NONE', ( #648, #475, #406, #353 ) ) ;
#252 = EDGE_CURVE ( 'NONE', #132, #989, #931, .T. ) ;
#253 = VECTOR ( 'NONE', #206, 1000.000000000000114 ) ;
#254 = VECTOR ( 'NONE', #773, 1000.000000000000114 ) ;
#255 = DIRECTION ( 'NONE',  ( -0.000000000000000000, -0.000000000000000000, -1.000000000000000000 ) ) ;
#256 = PRODUCT ( 'ELP-0035', 'ELP-0035', '', ( #468 ) ) ;
#257 = DIRECTION ( 'NONE',  ( 0.000000000000000000, -0.000000000000000000, 1.000000000000000000 ) ) ;
#258 = LINE ( 'NONE', #72, #746 ) ;
#259 = ORIENTED_EDGE ( 'NONE', *, *, #166, .T. ) ;
#260 = EDGE_CURVE ( 'NONE', #977, #945, #207, .T. ) ;
#261 = CARTESIAN_POINT ( 'NONE',  ( 0.9656561650310881983, -3.881688829741174462, -82.00000000000000000 ) ) ;
#262 = FACE_OUTER_BOUND ( 'NONE', #736, .T. ) ;
#263 = DIRECTION ( 'NONE',  ( 0.000000000000000000, 1.000000000000000000, 0.000000000000000000 ) ) ;
#264 = ORIENTED_EDGE ( 'NONE', *, *, #662, .F. ) ;
#265 = CARTESIAN_POINT ( 'NONE',  ( 4.277080157272905581, 8.797253923885909543, 4.000000000000000000 ) ) ;
#266 = EDGE_LOOP ( 'NONE', ( #824, #865, #209, #366 ) ) ;
#267 = CYLINDRICAL_SURFACE ( 'NONE', #521, 5.000000000000000000 ) ;
#268 = EDGE_CURVE ( 'NONE', #296, #571, #393, .T. ) ;
#269 = CARTESIAN_POINT ( 'NONE',  ( -46.83121208296034155, -18.86365751493568155, -82.00000000000000000 ) ) ;
#270 = VERTEX_POINT ( 'NONE', #1012 ) ;
#271 = AXIS2_PLACEMENT_3D ( 'NONE', #187, #92, #108 ) ;
#272 = DIRECTION ( 'NONE',  ( 1.000000000000000000, 0.000000000000000000, 0.000000000000000000 ) ) ;
#273 = ORIENTED_EDGE ( 'NONE', *, *, #240, .F. ) ;
#274 = CARTESIAN_POINT ( 'NONE',  ( 11.27708015727290558, 10.79725392388590421, -82.00000000000000000 ) ) ;
#275 = FACE_OUTER_BOUND ( 'NONE', #158, .T. ) ;
#276 = ORIENTED_EDGE ( 'NONE', *, *, #236, .T. ) ;
#277 = DIRECTION ( 'NONE',  ( 1.000000000000000000, 0.000000000000000000, 0.000000000000000000 ) ) ;
#278 = ORIENTED_EDGE ( 'NONE', *, *, #543, .F. ) ;
#279 = FACE_BOUND ( 'NONE', #57, .T. ) ;
#280 = ORIENTED_EDGE ( 'NONE', *, *, #573, .T. ) ;
#281 = DIRECTION ( 'NONE',  ( 0.000000000000000000, 0.000000000000000000, 1.000000000000000000 ) ) ;
#282 = DIRECTION ( 'NONE',  ( 0.000000000000000000, 0.000000000000000000, 1.000000000000000000 ) ) ;
#283 = PLANE ( 'NONE',  #304 ) ;
#284 = ORIENTED_EDGE ( 'NONE', *, *, #375, .T. ) ;
#285 = AXIS2_PLACEMENT_3D ( 'NONE', #759, #484, #320 ) ;
#286 = CARTESIAN_POINT ( 'NONE',  ( 0.9656561650310881983, -3.881688829741174462, -3.000000000000002665 ) ) ;
#287 = EDGE_CURVE ( 'NONE', #812, #798, #405, .T. ) ;
#288 = ORIENTED_EDGE ( 'NONE', *, *, #944, .F. ) ;
#289 = CARTESIAN_POINT ( 'NONE',  ( 9.027080157272926897, 10.79725392388590421, -86.00000000000000000 ) ) ;
#290 = LINE ( 'NONE', #20, #504 ) ;
#291 = VERTEX_POINT ( 'NONE', #492 ) ;
#292 = DIRECTION ( 'NONE',  ( 7.603558867825107376E-16, -1.000000000000000000, 0.000000000000000000 ) ) ;
#293 = ORIENTED_EDGE ( 'NONE', *, *, #878, .F. ) ;
#294 = CARTESIAN_POINT ( 'NONE',  ( 0.000000000000000000, 0.000000000000000000, 0.000000000000000000 ) ) ;
#295 = DIRECTION ( 'NONE',  ( -0.9704222074352949479, -0.2414140412577724104, 0.000000000000000000 ) ) ;
#296 = VERTEX_POINT ( 'NONE', #46 ) ;
#297 = CARTESIAN_POINT ( 'NONE',  ( -46.83121208296034155, -18.86365751493568155, -82.00000000000000000 ) ) ;
#298 = ORIENTED_EDGE ( 'NONE', *, *, #160, .F. ) ;
#299 = LINE ( 'NONE', #1091, #194 ) ;
#300 = ADVANCED_FACE ( 'NONE', ( #397 ), #1086, .F. ) ;
#301 = LINE ( 'NONE', #215, #309 ) ;
#302 = ADVANCED_FACE ( 'NONE', ( #556 ), #755, .F. ) ;
#303 = ORIENTED_EDGE ( 'NONE', *, *, #914, .F. ) ;
#304 = AXIS2_PLACEMENT_3D ( 'NONE', #363, #632, #1062 ) ;
#305 = DIRECTION ( 'NONE',  ( 0.000000000000000000, 0.000000000000000000, 1.000000000000000000 ) ) ;
#306 = ORIENTED_EDGE ( 'NONE', *, *, #103, .T. ) ;
#307 = CARTESIAN_POINT ( 'NONE',  ( 14.37070575623447510, -3.638323423154464997, 0.000000000000000000 ) ) ;
#308 = AXIS2_PLACEMENT_3D ( 'NONE', #911, #645, #659 ) ;
#309 = VECTOR ( 'NONE', #565, 1000.000000000000000 ) ;
#310 = CARTESIAN_POINT ( 'NONE',  ( 18.27708015727289848, 8.797253923885909543, -82.00000000000000000 ) ) ;
#311 = VECTOR ( 'NONE', #1059, 1000.000000000000114 ) ;
#312 = ORIENTED_EDGE ( 'NONE', *, *, #766, .F. ) ;
#313 = APPLICATION_PROTOCOL_DEFINITION ( 'draft international standard', 'automotive_design', 1998, #827 ) ;
#314 = ORIENTED_EDGE ( 'NONE', *, *, #781, .T. ) ;
#315 = LINE ( 'NONE', #738, #857 ) ;
#316 = CARTESIAN_POINT ( 'NONE',  ( 9.079866380819563432, -8.045974940702670608, -86.00000000000000000 ) ) ;
#317 = ORIENTED_EDGE ( 'NONE', *, *, #1120, .T. ) ;
#318 = EDGE_CURVE ( 'NONE', #1110, #121, #52, .T. ) ;
#319 = CARTESIAN_POINT ( 'NONE',  ( -3.057787632811232559, 1.839482980609060903, -86.00000000000000000 ) ) ;
#320 = DIRECTION ( 'NONE',  ( 0.2414140412577724937, -0.9704222074352949479, 0.000000000000000000 ) ) ;
#321 = ORIENTED_EDGE ( 'NONE', *, *, #744, .T. ) ;
#322 = FACE_OUTER_BOUND ( 'NONE', #411, .T. ) ;
#323 = VECTOR ( 'NONE', #576, 1000.000000000000000 ) ;
#324 = LINE ( 'NONE', #1124, #561 ) ;
#325 = VERTEX_POINT ( 'NONE', #316 ) ;
#326 = AXIS2_PLACEMENT_3D ( 'NONE', #665, #464, #993 ) ;
#327 = CARTESIAN_POINT ( 'NONE',  ( 11.27708015727290558, 10.79725392388590421, 0.000000000000000000 ) ) ;
#328 = CYLINDRICAL_SURFACE ( 'NONE', #449, 2.999999999999998668 ) ;
#329 = CARTESIAN_POINT ( 'NONE',  ( 4.277080157272902028, 3.588896382483342862, -86.00000000000000000 ) ) ;
#330 = ORIENTED_EDGE ( 'NONE', *, *, #1135, .F. ) ;
#331 = CARTESIAN_POINT ( 'NONE',  ( -49.72818057805362457, -7.218591025712149722, 1.169061089185130520 ) ) ;
#332 = DIRECTION ( 'NONE',  ( 0.6427876096865381417, -0.7660444431189790127, 0.000000000000000000 ) ) ;
#333 = EDGE_CURVE ( 'NONE', #357, #977, #1018, .T. ) ;
#334 = CARTESIAN_POINT ( 'NONE',  ( 4.277080157272902028, 8.797253923885909543, -82.00000000000000000 ) ) ;
#335 = EDGE_CURVE ( 'NONE', #270, #117, #226, .T. ) ;
#336 = VERTEX_POINT ( 'NONE', #581 ) ;
#337 = FACE_OUTER_BOUND ( 'NONE', #193, .T. ) ;
#338 = VECTOR ( 'NONE', #150, 1000.000000000000000 ) ;
#339 = CARTESIAN_POINT ( 'NONE',  ( -47.55545420673367119, -15.95239089262980059, -3.000000000000002665 ) ) ;
#340 = DIRECTION ( 'NONE',  ( 0.000000000000000000, 0.000000000000000000, -1.000000000000000000 ) ) ;
#341 = AXIS2_PLACEMENT_3D ( 'NONE', #613, #1137, #984 ) ;
#342 = ORIENTED_EDGE ( 'NONE', *, *, #268, .F. ) ;
#343 = DIRECTION ( 'NONE',  ( -0.000000000000000000, -0.000000000000000000, -1.000000000000000000 ) ) ;
#344 = DIRECTION ( 'NONE',  ( 0.000000000000000000, 0.000000000000000000, -1.000000000000000000 ) ) ;
#345 = FACE_OUTER_BOUND ( 'NONE', #1040, .T. ) ;
#346 = VERTEX_POINT ( 'NONE', #1105 ) ;
#347 = EDGE_CURVE ( 'NONE', #346, #105, #1007, .T. ) ;
#348 = DIRECTION ( 'NONE',  ( 0.2414140412577724937, -0.9704222074352949479, 0.000000000000000000 ) ) ;
#349 = EDGE_CURVE ( 'NONE', #757, #81, #650, .T. ) ;
#350 = ORIENTED_EDGE ( 'NONE', *, *, #634, .F. ) ;
#351 = FACE_OUTER_BOUND ( 'NONE', #432, .T. ) ;
#352 = VERTEX_POINT ( 'NONE', #410 ) ;
#353 = ORIENTED_EDGE ( 'NONE', *, *, #923, .T. ) ;
#354 = CARTESIAN_POINT ( 'NONE',  ( 11.27708015727290558, 10.79725392388590421, 4.000000000000000000 ) ) ;
#355 = EDGE_CURVE ( 'NONE', #97, #531, #448, .T. ) ;
#356 = DIRECTION ( 'NONE',  ( -0.2414140412577723827, 0.9704222074352949479, 0.000000000000000000 ) ) ;
#357 = VERTEX_POINT ( 'NONE', #763 ) ;
#358 = DIRECTION ( 'NONE',  ( 0.9492161539016372718, 0.2361385652397420820, 0.2079116908177584544 ) ) ;
#359 = VECTOR ( 'NONE', #229, 1000.000000000000000 ) ;
#360 = LINE ( 'NONE', #459, #752 ) ;
#361 = EDGE_CURVE ( 'NONE', #607, #1071, #748, .T. ) ;
#362 = VECTOR ( 'NONE', #305, 1000.000000000000000 ) ;
#363 = CARTESIAN_POINT ( 'NONE',  ( 4.277080157272902028, 3.588896382483342862, -86.00000000000000000 ) ) ;
#364 = ORIENTED_EDGE ( 'NONE', *, *, #361, .F. ) ;
#365 = DIRECTION ( 'NONE',  ( -0.000000000000000000, 0.000000000000000000, -1.000000000000000000 ) ) ;
#366 = ORIENTED_EDGE ( 'NONE', *, *, #851, .T. ) ;
#367 = PRODUCT_DEFINITION_CONTEXT ( 'detailed design', #999, 'design' ) ;
#368 = CARTESIAN_POINT ( 'NONE',  ( 0.9656561650310881983, -3.881688829741174462, -82.00000000000000000 ) ) ;
#369 =( LENGTH_UNIT ( ) NAMED_UNIT ( * ) SI_UNIT ( .MILLI., .METRE. ) );
#370 = CARTESIAN_POINT ( 'NONE',  ( 11.27708015727290558, 10.79725392388590421, 4.000000000000000000 ) ) ;
#371 = ORIENTED_EDGE ( 'NONE', *, *, #77, .F. ) ;
#372 = PLANE ( 'NONE',  #232 ) ;
#373 = DIRECTION ( 'NONE',  ( 0.9704222074352948368, 0.2414140412577725492, -0.000000000000000000 ) ) ;
#374 = ORIENTED_EDGE ( 'NONE', *, *, #407, .T. ) ;
#375 = EDGE_CURVE ( 'NONE', #921, #22, #301, .T. ) ;
#376 = CIRCLE ( 'NONE', #151, 3.000000000000000444 ) ;
#377 = LINE ( 'NONE', #1079, #175 ) ;
#378 = AXIS2_PLACEMENT_3D ( 'NONE', #784, #779, #344 ) ;
#379 = ORIENTED_EDGE ( 'NONE', *, *, #1113, .F. ) ;
#380 = CARTESIAN_POINT ( 'NONE',  ( 18.27708015727290558, -0.3285962530221075983, 4.000000000000000000 ) ) ;
#381 = LINE ( 'NONE', #720, #1092 ) ;
#382 = ORIENTED_EDGE ( 'NONE', *, *, #236, .F. ) ;
#383 = EDGE_CURVE ( 'NONE', #1071, #522, #920, .T. ) ;
#384 = EDGE_CURVE ( 'NONE', #652, #346, #894, .T. ) ;
#385 = EDGE_LOOP ( 'NONE', ( #1084, #1080, #1008, #1058 ) ) ;
#386 = LINE ( 'NONE', #307, #154 ) ;
#387 = DIRECTION ( 'NONE',  ( 1.000000000000000000, 0.000000000000000000, 0.000000000000000000 ) ) ;
#388 = ORIENTED_EDGE ( 'NONE', *, *, #109, .F. ) ;
#389 = LINE ( 'NONE', #843, #401 ) ;
#390 = ORIENTED_EDGE ( 'NONE', *, *, #1, .F. ) ;
#391 = DIRECTION ( 'NONE',  ( -0.000000000000000000, -0.000000000000000000, 1.000000000000000000 ) ) ;
#392 = EDGE_CURVE ( 'NONE', #163, #1017, #324, .T. ) ;
#393 = LINE ( 'NONE', #1002, #488 ) ;
#394 = ORIENTED_EDGE ( 'NONE', *, *, #1113, .T. ) ;
#395 = ORIENTED_EDGE ( 'NONE', *, *, #885, .T. ) ;
#396 = LINE ( 'NONE', #1011, #250 ) ;
#397 = FACE_OUTER_BOUND ( 'NONE', #41, .T. ) ;
#398 = EDGE_CURVE ( 'NONE', #485, #211, #853, .T. ) ;
#399 = VECTOR ( 'NONE', #255, 1000.000000000000000 ) ;
#400 = ORIENTED_EDGE ( 'NONE', *, *, #968, .F. ) ;
#401 = VECTOR ( 'NONE', #928, 1000.000000000000000 ) ;
#402 = FACE_OUTER_BOUND ( 'NONE', #913, .T. ) ;
#403 = VERTEX_POINT ( 'NONE', #82 ) ;
#404 = DIRECTION ( 'NONE',  ( 0.2414140412577724937, -0.9704222074352949479, -0.000000000000000000 ) ) ;
#405 = LINE ( 'NONE', #1093, #1127 ) ;
#406 = ORIENTED_EDGE ( 'NONE', *, *, #8, .F. ) ;
#407 = EDGE_CURVE ( 'NONE', #607, #751, #608, .T. ) ;
#408 = DIRECTION ( 'NONE',  ( 0.2414140412577724937, -0.9704222074352949479, -0.000000000000000000 ) ) ;
#409 = PRODUCT_DEFINITION_SHAPE ( 'NONE', 'NONE',  #513 ) ;
#410 = CARTESIAN_POINT ( 'NONE',  ( 13.52708015727288249, 10.79725392388590421, 0.000000000000000000 ) ) ;
#411 = EDGE_LOOP ( 'NONE', ( #182, #441, #280, #227, #742 ) ) ;
#412 = CLOSED_SHELL ( 'NONE', ( #996, #302, #761, #829, #606, #89, #731, #216, #586, #141, #418, #600, #675, #454, #21, #493, #146, #567, #1063, #534, #579, #557, #954, #862, #874, #466, #416, #300, #1021, #424, #1014, #442, #808, #551 ) ) ;
#413 = CARTESIAN_POINT ( 'NONE',  ( -6.059181243465328492, 3.645040830887614547, 0.000000000000000000 ) ) ;
#414 = DIRECTION ( 'NONE',  ( 0.2414140412577724937, -0.9704222074352949479, 0.000000000000000000 ) ) ;
#415 = LINE ( 'NONE', #157, #1109 ) ;
#416 = ADVANCED_FACE ( 'NONE', ( #693 ), #433, .F. ) ;
#417 = CARTESIAN_POINT ( 'NONE',  ( -46.10696995918702612, -21.77492413724156606, -86.00000000000000000 ) ) ;
#418 = ADVANCED_FACE ( 'NONE', ( #962, #60 ), #161, .T. ) ;
#419 = FACE_OUTER_BOUND ( 'NONE', #656, .T. ) ;
#420 = LINE ( 'NONE', #434, #486 ) ;
#421 = ORIENTED_EDGE ( 'NONE', *, *, #712, .F. ) ;
#422 = DIRECTION ( 'NONE',  ( -0.000000000000000000, -0.000000000000000000, 1.000000000000000000 ) ) ;
#423 = FACE_OUTER_BOUND ( 'NONE', #795, .T. ) ;
#424 = ADVANCED_FACE ( 'NONE', ( #942 ), #328, .F. ) ;
#425 = DIRECTION ( 'NONE',  ( 7.603558867825107376E-16, -1.000000000000000000, 0.000000000000000000 ) ) ;
#426 = ORIENTED_EDGE ( 'NONE', *, *, #1120, .F. ) ;
#427 = CARTESIAN_POINT ( 'NONE',  ( -46.10696995918702612, -21.77492413724156606, 0.000000000000000000 ) ) ;
#428 = DIRECTION ( 'NONE',  ( 1.000000000000000000, 0.000000000000000000, -0.000000000000000000 ) ) ;
#429 = AXIS2_PLACEMENT_3D ( 'NONE', #649, #1001, #483 ) ;
#430 = ORIENTED_EDGE ( 'NONE', *, *, #96, .F. ) ;
#431 = CYLINDRICAL_SURFACE ( 'NONE', #754, 3.000000000000000444 ) ;
#432 = EDGE_LOOP ( 'NONE', ( #203, #927, #610, #314 ) ) ;
#433 = PLANE ( 'NONE',  #136 ) ;
#434 = CARTESIAN_POINT ( 'NONE',  ( 13.52708015727288249, 10.79725392388590421, 4.000000000000000000 ) ) ;
#435 = EDGE_LOOP ( 'NONE', ( #847, #128 ) ) ;
#436 = EDGE_CURVE ( 'NONE', #22, #737, #148, .T. ) ;
#437 = CARTESIAN_POINT ( 'NONE',  ( -6.059181243465328492, 3.645040830887615879, 4.000000000000000000 ) ) ;
#438 = ORIENTED_EDGE ( 'NONE', *, *, #127, .T. ) ;
#439 = DIRECTION ( 'NONE',  ( 0.7660444431189790127, 0.6427876096865381417, 0.000000000000000000 ) ) ;
#440 = LINE ( 'NONE', #809, #538 ) ;
#441 = ORIENTED_EDGE ( 'NONE', *, *, #392, .T. ) ;
#442 = ADVANCED_FACE ( 'NONE', ( #423 ), #1116, .F. ) ;
#443 = DIRECTION ( 'NONE',  ( -0.2414140412577725769, 0.9704222074352948368, 0.000000000000000000 ) ) ;
#444 = ORIENTED_EDGE ( 'NONE', *, *, #383, .F. ) ;
#445 = CARTESIAN_POINT ( 'NONE',  ( -47.55545420673367119, -15.95239089262980059, -82.00000000000000000 ) ) ;
#446 = LINE ( 'NONE', #179, #654 ) ;
#447 = ORIENTED_EDGE ( 'NONE', *, *, #318, .T. ) ;
#448 = CIRCLE ( 'NONE', #213, 6.999999999999995559 ) ;
#449 = AXIS2_PLACEMENT_3D ( 'NONE', #769, #75, #156 ) ;
#450 = CARTESIAN_POINT ( 'NONE',  ( 11.27708015727290025, 8.797253923885909543, -82.00000000000000000 ) ) ;
#451 = AXIS2_PLACEMENT_3D ( 'NONE', #234, #243, #948 ) ;
#452 = ORIENTED_EDGE ( 'NONE', *, *, #912, .F. ) ;
#453 = DIRECTION ( 'NONE',  ( 1.000000000000000000, 0.000000000000000000, -0.000000000000000000 ) ) ;
#454 = ADVANCED_FACE ( 'NONE', ( #683, #1022 ), #165, .T. ) ;
#455 = CARTESIAN_POINT ( 'NONE',  ( 4.277080157272902028, 3.588896382483342862, 4.000000000000000000 ) ) ;
#456 = EDGE_LOOP ( 'NONE', ( #223, #1034, #5, #971, #1029, #629, #816, #107, #961, #841, #317, #554, #73, #312 ) ) ;
#457 = CYLINDRICAL_SURFACE ( 'NONE', #523, 2.249999999999977796 ) ;
#458 = ORIENTED_EDGE ( 'NONE', *, *, #318, .F. ) ;
#459 = CARTESIAN_POINT ( 'NONE',  ( -1.207070206288862302, 4.852111037176475072, -86.00000000000000000 ) ) ;
#460 = CARTESIAN_POINT ( 'NONE',  ( -48.52111037176474895, -12.07070206288862124, -83.16906108918513496 ) ) ;
#461 = ORIENTED_EDGE ( 'NONE', *, *, #153, .T. ) ;
#462 = PLANE ( 'NONE',  #660 ) ;
#463 = VERTEX_POINT ( 'NONE', #939 ) ;
#464 = DIRECTION ( 'NONE',  ( 0.2414140412577723827, -0.9704222074352949479, 0.000000000000000000 ) ) ;
#465 = DIRECTION ( 'NONE',  ( 1.000000000000000000, -6.661307186332912908E-16, 0.000000000000000000 ) ) ;
#466 = ADVANCED_FACE ( 'NONE', ( #262 ), #505, .F. ) ;
#467 = VERTEX_POINT ( 'NONE', #339 ) ;
#468 = PRODUCT_CONTEXT ( 'NONE', #827, 'mechanical' ) ;
#469 = EDGE_LOOP ( 'NONE', ( #220, #482, #84, #430 ) ) ;
#470 = CIRCLE ( 'NONE', #138, 2.249999999999977796 ) ;
#471 = DIRECTION ( 'NONE',  ( 0.2414140412577724937, -0.9704222074352949479, 0.000000000000000000 ) ) ;
#472 = AXIS2_PLACEMENT_3D ( 'NONE', #450, #365, #811 ) ;
#473 = DIRECTION ( 'NONE',  ( 0.7660444431189790127, 0.6427876096865381417, 0.000000000000000000 ) ) ;
#474 = PRODUCT_DEFINITION_FORMATION_WITH_SPECIFIED_SOURCE ( 'TUTTO', '', #256, .NOT_KNOWN. ) ;
#475 = ORIENTED_EDGE ( 'NONE', *, *, #622, .F. ) ;
#476 = EDGE_CURVE ( 'NONE', #511, #844, #842, .T. ) ;
#477 = EDGE_LOOP ( 'NONE', ( #426, #1090, #1023, #350 ) ) ;
#478 = LINE ( 'NONE', #225, #580 ) ;
#479 = DIRECTION ( 'NONE',  ( 0.000000000000000000, 0.000000000000000000, 1.000000000000000000 ) ) ;
#480 = ORIENTED_EDGE ( 'NONE', *, *, #792, .F. ) ;
#481 = EDGE_CURVE ( 'NONE', #38, #566, #214, .T. ) ;
#482 = ORIENTED_EDGE ( 'NONE', *, *, #268, .T. ) ;
#483 = DIRECTION ( 'NONE',  ( 1.000000000000000000, 0.000000000000000000, 0.000000000000000000 ) ) ;
#484 = DIRECTION ( 'NONE',  ( 0.2017621219549737277, 0.05019280150505158605, -0.9781476007338059109 ) ) ;
#485 = VERTEX_POINT ( 'NONE', #867 ) ;
#486 = VECTOR ( 'NONE', #780, 1000.000000000000000 ) ;
#487 = CARTESIAN_POINT ( 'NONE',  ( -46.83121208296035576, -18.86365751493568510, -3.000000000000000000 ) ) ;
#488 = VECTOR ( 'NONE', #935, 1000.000000000000000 ) ;
#489 = ORIENTED_EDGE ( 'NONE', *, *, #228, .T. ) ;
#490 = LINE ( 'NONE', #294, #253 ) ;
#491 = AXIS2_PLACEMENT_3D ( 'NONE', #826, #34, #739 ) ;
#492 = CARTESIAN_POINT ( 'NONE',  ( 18.27708015727290558, -0.3285962530221075983, 4.000000000000000000 ) ) ;
#493 = ADVANCED_FACE ( 'NONE', ( #419 ), #590, .F. ) ;
#494 = CIRCLE ( 'NONE', #680, 2.249999999999977796 ) ;
#495 = ORIENTED_EDGE ( 'NONE', *, *, #588, .F. ) ;
#496 = DIRECTION ( 'NONE',  ( 0.000000000000000000, -0.000000000000000000, 1.000000000000000000 ) ) ;
#497 = DIRECTION ( 'NONE',  ( 0.000000000000000000, 0.000000000000000000, 1.000000000000000000 ) ) ;
#498 = ORIENTED_EDGE ( 'NONE', *, *, #688, .F. ) ;
#499 = LINE ( 'NONE', #59, #1057 ) ;
#500 = DIRECTION ( 'NONE',  ( -0.000000000000000000, 0.000000000000000000, -1.000000000000000000 ) ) ;
#501 = LINE ( 'NONE', #68, #338 ) ;
#502 = EDGE_CURVE ( 'NONE', #463, #1110, #1031, .T. ) ;
#503 = FACE_OUTER_BOUND ( 'NONE', #992, .T. ) ;
#504 = VECTOR ( 'NONE', #188, 1000.000000000000000 ) ;
#505 = PLANE ( 'NONE',  #595 ) ;
#506 = DIRECTION ( 'NONE',  ( -0.2414140412577725769, 0.9704222074352949479, 0.000000000000000000 ) ) ;
#507 = EDGE_LOOP ( 'NONE', ( #1000, #1050, #958, #889, #48, #681, #969, #587, #667, #690 ) ) ;
#508 = FACE_OUTER_BOUND ( 'NONE', #661, .T. ) ;
#509 = DIRECTION ( 'NONE',  ( 0.2017621219549719236, 0.05019280150505113502, 0.9781476007338062439 ) ) ;
#510 = PLANE ( 'NONE',  #61 ) ;
#511 = VERTEX_POINT ( 'NONE', #906 ) ;
#512 = FACE_BOUND ( 'NONE', #624, .T. ) ;
#513 = PRODUCT_DEFINITION ( 'NON CONOSCIUTO', '', #474, #367 ) ;
#514 = DIRECTION ( 'NONE',  ( -0.2414140412577724382, 0.9704222074352948368, 0.000000000000000000 ) ) ;
#515 = CARTESIAN_POINT ( 'NONE',  ( -3.057787632811233003, 1.839482980609061125, 0.000000000000000000 ) ) ;
#516 = ORIENTED_EDGE ( 'NONE', *, *, #37, .T. ) ;
#517 = CARTESIAN_POINT ( 'NONE',  ( 11.27708015727290558, 10.79725392388590421, 0.000000000000000000 ) ) ;
#518 = DIRECTION ( 'NONE',  ( 0.9704222074352950589, 0.2414140412577725214, -0.000000000000000000 ) ) ;
#519 = CARTESIAN_POINT ( 'NONE',  ( 18.27708015727289848, 8.797253923885909543, 4.000000000000000000 ) ) ;
#520 = AXIS2_PLACEMENT_3D ( 'NONE', #1037, #500, #872 ) ;
#521 = AXIS2_PLACEMENT_3D ( 'NONE', #1066, #282, #10 ) ;
#522 = VERTEX_POINT ( 'NONE', #529 ) ;
#523 = AXIS2_PLACEMENT_3D ( 'NONE', #354, #708, #272 ) ;
#524 = DIRECTION ( 'NONE',  ( 7.603558867825107376E-16, -1.000000000000000000, 0.000000000000000000 ) ) ;
#525 = CARTESIAN_POINT ( 'NONE',  ( 0.000000000000000000, 0.000000000000000000, 4.000000000000000000 ) ) ;
#526 = CARTESIAN_POINT ( 'NONE',  ( -3.057787632811233003, 1.839482980609061125, 0.000000000000000000 ) ) ;
#527 = EDGE_LOOP ( 'NONE', ( #288, #828, #242, #50 ) ) ;
#528 = DIRECTION ( 'NONE',  ( -0.000000000000000000, -0.000000000000000000, -1.000000000000000000 ) ) ;
#529 = CARTESIAN_POINT ( 'NONE',  ( 13.52708015727288249, 10.79725392388590421, -82.00000000000000000 ) ) ;
#530 = FACE_OUTER_BOUND ( 'NONE', #456, .T. ) ;
#531 = VERTEX_POINT ( 'NONE', #195 ) ;
#532 = EDGE_CURVE ( 'NONE', #94, #837, #616, .T. ) ;
#533 = CARTESIAN_POINT ( 'NONE',  ( 4.277080157272902028, 3.588896382483342862, 0.000000000000000000 ) ) ;
#534 = ADVANCED_FACE ( 'NONE', ( #351 ), #887, .F. ) ;
#535 = ORIENTED_EDGE ( 'NONE', *, *, #774, .F. ) ;
#536 = CARTESIAN_POINT ( 'NONE',  ( 4.277080157272902028, 8.797253923885909543, -86.00000000000000000 ) ) ;
#537 = VECTOR ( 'NONE', #859, 1000.000000000000000 ) ;
#538 = VECTOR ( 'NONE', #985, 1000.000000000000114 ) ;
#539 = ORIENTED_EDGE ( 'NONE', *, *, #651, .T. ) ;
#540 = AXIS2_PLACEMENT_3D ( 'NONE', #130, #257, #1108 ) ;
#541 = VECTOR ( 'NONE', #33, 1000.000000000000000 ) ;
#542 = CARTESIAN_POINT ( 'NONE',  ( -6.059181243465328492, 3.645040830887614547, 0.000000000000000000 ) ) ;
#543 = EDGE_CURVE ( 'NONE', #566, #467, #1072, .T. ) ;
#544 = CARTESIAN_POINT ( 'NONE',  ( -47.55545420673367119, -15.95239089262980059, -79.00000000000000000 ) ) ;
#545 = PLANE ( 'NONE',  #247 ) ;
#546 = ORIENTED_EDGE ( 'NONE', *, *, #766, .T. ) ;
#547 = LINE ( 'NONE', #297, #771 ) ;
#548 = EDGE_LOOP ( 'NONE', ( #643, #892, #1068, #725 ) ) ;
#549 = UNCERTAINTY_MEASURE_WITH_UNIT (LENGTH_MEASURE( 1.000000000000000082E-05 ), #369, 'distance_accuracy_value', 'NONE');
#550 = DIRECTION ( 'NONE',  ( 1.000000000000000000, 0.000000000000000000, 0.000000000000000000 ) ) ;
#551 = ADVANCED_FACE ( 'NONE', ( #705 ), #267, .F. ) ;
#552 = LINE ( 'NONE', #797, #947 ) ;
#553 = ORIENTED_EDGE ( 'NONE', *, *, #794, .F. ) ;
#554 = ORIENTED_EDGE ( 'NONE', *, *, #878, .T. ) ;
#555 = CARTESIAN_POINT ( 'NONE',  ( 4.277080157272902028, 3.588896382483342862, -82.00000000000000000 ) ) ;
#556 = FACE_OUTER_BOUND ( 'NONE', #469, .T. ) ;
#557 = ADVANCED_FACE ( 'NONE', ( #102 ), #719, .F. ) ;
#558 = VERTEX_POINT ( 'NONE', #536 ) ;
#559 =( GEOMETRIC_REPRESENTATION_CONTEXT ( 3 ) GLOBAL_UNCERTAINTY_ASSIGNED_CONTEXT ( ( #549 ) ) GLOBAL_UNIT_ASSIGNED_CONTEXT ( ( #369, #628, #979 ) ) REPRESENTATION_CONTEXT ( 'NONE', 'WORKASPACE' ) );
#560 = CARTESIAN_POINT ( 'NONE',  ( 1.689898288804404514, -6.792955452047057641, -3.000000000000000000 ) ) ;
#561 = VECTOR ( 'NONE', #1042, 1000.000000000000000 ) ;
#562 = ORIENTED_EDGE ( 'NONE', *, *, #178, .F. ) ;
#563 = PLANE ( 'NONE',  #822 ) ;
#564 = VECTOR ( 'NONE', #358, 1000.000000000000114 ) ;
#565 = DIRECTION ( 'NONE',  ( 0.9492161539016377159, 0.2361385652397421375, -0.2079116908177566225 ) ) ;
#566 = VERTEX_POINT ( 'NONE', #544 ) ;
#567 = ADVANCED_FACE ( 'NONE', ( #901 ), #631, .T. ) ;
#568 = ORIENTED_EDGE ( 'NONE', *, *, #1094, .T. ) ;
#569 = LINE ( 'NONE', #670, #750 ) ;
#570 = DIRECTION ( 'NONE',  ( -0.000000000000000000, -0.000000000000000000, 1.000000000000000000 ) ) ;
#571 = VERTEX_POINT ( 'NONE', #1061 ) ;
#572 = CARTESIAN_POINT ( 'NONE',  ( 18.27708015727289848, 8.797253923885909543, -82.00000000000000000 ) ) ;
#573 = EDGE_CURVE ( 'NONE', #1017, #270, #360, .T. ) ;
#574 = ORIENTED_EDGE ( 'NONE', *, *, #1078, .F. ) ;
#575 = DIRECTION ( 'NONE',  ( 0.9704222074352949479, 0.2414140412577724937, 0.000000000000000000 ) ) ;
#576 = DIRECTION ( 'NONE',  ( -6.661307186332912908E-16, -1.000000000000000000, -0.000000000000000000 ) ) ;
#577 = EDGE_LOOP ( 'NONE', ( #394, #1064, #278, #516 ) ) ;
#578 = DIRECTION ( 'NONE',  ( -0.000000000000000000, -0.000000000000000000, -1.000000000000000000 ) ) ;
#579 = ADVANCED_FACE ( 'NONE', ( #279, #627 ), #978, .F. ) ;
#580 = VECTOR ( 'NONE', #833, 1000.000000000000000 ) ;
#581 = CARTESIAN_POINT ( 'NONE',  ( -3.057787632811232559, 1.839482980609060903, 0.000000000000000000 ) ) ;
#582 = CIRCLE ( 'NONE', #28, 3.000000000000000444 ) ;
#583 = ORIENTED_EDGE ( 'NONE', *, *, #355, .F. ) ;
#584 = DIRECTION ( 'NONE',  ( 0.000000000000000000, 0.000000000000000000, -1.000000000000000000 ) ) ;
#585 = DIRECTION ( 'NONE',  ( -0.2414140412577725214, 0.9704222074352949479, 0.000000000000000000 ) ) ;
#586 = ADVANCED_FACE ( 'NONE', ( #177 ), #807, .F. ) ;
#587 = ORIENTED_EDGE ( 'NONE', *, *, #1046, .T. ) ;
#588 = EDGE_CURVE ( 'NONE', #511, #757, #972, .T. ) ;
#589 = CARTESIAN_POINT ( 'NONE',  ( -48.52111037176474895, -12.07070206288862124, 1.169061089185130520 ) ) ;
#590 = PLANE ( 'NONE',  #172 ) ;
#591 = CARTESIAN_POINT ( 'NONE',  ( -43.18378823087051188, -10.74292483597084491, 0.000000000000000000 ) ) ;
#592 = VERTEX_POINT ( 'NONE', #16 ) ;
#593 = PLANE ( 'NONE',  #451 ) ;
#594 = VECTOR ( 'NONE', #473, 1000.000000000000114 ) ;
#595 = AXIS2_PLACEMENT_3D ( 'NONE', #67, #239, #1025 ) ;
#596 = DIRECTION ( 'NONE',  ( -0.000000000000000000, -0.000000000000000000, 1.000000000000000000 ) ) ;
#597 = SURFACE_STYLE_USAGE ( .BOTH. , #248 ) ;
#598 = VECTOR ( 'NONE', #348, 1000.000000000000114 ) ;
#599 = ORIENTED_EDGE ( 'NONE', *, *, #481, .F. ) ;
#600 = ADVANCED_FACE ( 'NONE', ( #796 ), #19, .T. ) ;
#601 = PLANE ( 'NONE',  #1019 ) ;
#602 = CARTESIAN_POINT ( 'NONE',  ( 9.027080157272926897, 10.79725392388590421, 4.000000000000000000 ) ) ;
#603 = CARTESIAN_POINT ( 'NONE',  ( 18.27708015727289848, 8.797253923885909543, 4.000000000000000000 ) ) ;
#604 = ORIENTED_EDGE ( 'NONE', *, *, #668, .T. ) ;
#605 = CYLINDRICAL_SURFACE ( 'NONE', #11, 5.000000000000000888 ) ;
#606 = ADVANCED_FACE ( 'NONE', ( #723 ), #372, .F. ) ;
#607 = VERTEX_POINT ( 'NONE', #289 ) ;
#608 = LINE ( 'NONE', #602, #1128 ) ;
#609 = CARTESIAN_POINT ( 'NONE',  ( -6.059181243465328492, 3.645040830887614991, 0.000000000000000000 ) ) ;
#610 = ORIENTED_EDGE ( 'NONE', *, *, #1046, .F. ) ;
#611 = CARTESIAN_POINT ( 'NONE',  ( -49.72818057805361036, -7.218591025712146170, 1.169061089185130298 ) ) ;
#612 = ORIENTED_EDGE ( 'NONE', *, *, #815, .F. ) ;
#613 = CARTESIAN_POINT ( 'NONE',  ( 11.27708015727290558, 10.79725392388590421, 4.000000000000000000 ) ) ;
#614 = MECHANICAL_DESIGN_GEOMETRIC_PRESENTATION_REPRESENTATION (  '', ( #24 ), #559 ) ;
#615 = EDGE_CURVE ( 'NONE', #751, #522, #470, .T. ) ;
#616 = CIRCLE ( 'NONE', #768, 5.000000000000000000 ) ;
#617 = CIRCLE ( 'NONE', #949, 2.249999999999977796 ) ;
#618 = ORIENTED_EDGE ( 'NONE', *, *, #994, .T. ) ;
#619 = VECTOR ( 'NONE', #408, 1000.000000000000114 ) ;
#620 = LINE ( 'NONE', #982, #1131 ) ;
#621 = DIRECTION ( 'NONE',  ( -0.000000000000000000, -0.000000000000000000, -1.000000000000000000 ) ) ;
#622 = EDGE_CURVE ( 'NONE', #152, #945, #1015, .T. ) ;
#623 = DIRECTION ( 'NONE',  ( -7.603558867825107376E-16, 1.000000000000000000, -0.000000000000000000 ) ) ;
#624 = EDGE_LOOP ( 'NONE', ( #747, #618 ) ) ;
#625 = DIRECTION ( 'NONE',  ( -0.8568976291385347333, 0.5154866178444966751, -0.000000000000000000 ) ) ;
#626 = ORIENTED_EDGE ( 'NONE', *, *, #1003, .T. ) ;
#627 = FACE_OUTER_BOUND ( 'NONE', #507, .T. ) ;
#628 =( NAMED_UNIT ( * ) PLANE_ANGLE_UNIT ( ) SI_UNIT ( $, .RADIAN. ) );
#629 = ORIENTED_EDGE ( 'NONE', *, *, #983, .F. ) ;
#630 = PLANE ( 'NONE',  #636 ) ;
#631 = CYLINDRICAL_SURFACE ( 'NONE', #873, 6.999999999999997335 ) ;
#632 = DIRECTION ( 'NONE',  ( 1.000000000000000000, -0.000000000000000000, 0.000000000000000000 ) ) ;
#633 = ORIENTED_EDGE ( 'NONE', *, *, #912, .T. ) ;
#634 = EDGE_CURVE ( 'NONE', #403, #832, #386, .T. ) ;
#635 = CARTESIAN_POINT ( 'NONE',  ( -6.059181243465328492, 3.645040830887614547, -86.00000000000000000 ) ) ;
#636 = AXIS2_PLACEMENT_3D ( 'NONE', #542, #871, #90 ) ;
#637 = VECTOR ( 'NONE', #904, 1000.000000000000000 ) ;
#638 = ORIENTED_EDGE ( 'NONE', *, *, #974, .F. ) ;
#639 = DIRECTION ( 'NONE',  ( 1.000000000000000000, 0.000000000000000000, 0.000000000000000000 ) ) ;
#640 = DIRECTION ( 'NONE',  ( -0.2414140412577724937, 0.9704222074352949479, 0.000000000000000000 ) ) ;
#641 = ORIENTED_EDGE ( 'NONE', *, *, #53, .T. ) ;
#642 =( LENGTH_UNIT ( ) NAMED_UNIT ( * ) SI_UNIT ( .MILLI., .METRE. ) );
#643 = ORIENTED_EDGE ( 'NONE', *, *, #407, .F. ) ;
#644 = CARTESIAN_POINT ( 'NONE',  ( 9.027080157272926897, 10.79725392388590421, -82.00000000000000000 ) ) ;
#645 = DIRECTION ( 'NONE',  ( -0.000000000000000000, -0.000000000000000000, 1.000000000000000000 ) ) ;
#646 = ORIENTED_EDGE ( 'NONE', *, *, #37, .F. ) ;
#647 = LINE ( 'NONE', #922, #898 ) ;
#648 = ORIENTED_EDGE ( 'NONE', *, *, #260, .T. ) ;
#649 = CARTESIAN_POINT ( 'NONE',  ( 11.27708015727290025, 8.797253923885909543, -86.00000000000000000 ) ) ;
#650 = LINE ( 'NONE', #1016, #64 ) ;
#651 = EDGE_CURVE ( 'NONE', #945, #782, #490, .T. ) ;
#652 = VERTEX_POINT ( 'NONE', #319 ) ;
#653 = AXIS2_PLACEMENT_3D ( 'NONE', #728, #814, #895 ) ;
#654 = VECTOR ( 'NONE', #202, 1000.000000000000000 ) ;
#655 = CARTESIAN_POINT ( 'NONE',  ( -48.52111037176475605, -12.07070206288862479, 0.000000000000000000 ) ) ;
#656 = EDGE_LOOP ( 'NONE', ( #980, #321, #186, #421 ) ) ;
#657 = FACE_OUTER_BOUND ( 'NONE', #577, .T. ) ;
#658 = VECTOR ( 'NONE', #722, 1000.000000000000000 ) ;
#659 = DIRECTION ( 'NONE',  ( 1.000000000000000000, 0.000000000000000000, 0.000000000000000000 ) ) ;
#660 = AXIS2_PLACEMENT_3D ( 'NONE', #219, #998, #292 ) ;
#661 = EDGE_LOOP ( 'NONE', ( #1101, #205, #932, #306 ) ) ;
#662 = EDGE_CURVE ( 'NONE', #571, #740, #1096, .T. ) ;
#663 = DIRECTION ( 'NONE',  ( 0.000000000000000000, 0.000000000000000000, 1.000000000000000000 ) ) ;
#664 = ORIENTED_EDGE ( 'NONE', *, *, #476, .F. ) ;
#665 = CARTESIAN_POINT ( 'NONE',  ( -48.52111037176474895, -12.07070206288862124, 4.000000000000000000 ) ) ;
#666 = DIRECTION ( 'NONE',  ( 1.000000000000000000, 0.000000000000000000, 0.000000000000000000 ) ) ;
#667 = ORIENTED_EDGE ( 'NONE', *, *, #134, .T. ) ;
#668 = EDGE_CURVE ( 'NONE', #190, #291, #1099, .T. ) ;
#669 = UNCERTAINTY_MEASURE_WITH_UNIT (LENGTH_MEASURE( 1.000000000000000082E-05 ), #642, 'distance_accuracy_value', 'NONE');
#670 = CARTESIAN_POINT ( 'NONE',  ( 18.27708015727290558, -0.3285962530221075983, 4.000000000000000000 ) ) ;
#671 = CARTESIAN_POINT ( 'NONE',  ( 0.000000000000000000, 0.000000000000000000, -86.00000000000000000 ) ) ;
#672 = EDGE_LOOP ( 'NONE', ( #924, #777, #612, #388 ) ) ;
#673 = ADVANCED_BREP_SHAPE_REPRESENTATION ( 'ELP-0035', ( #118, #1038 ), #732 ) ;
#674 = VECTOR ( 'NONE', #135, 1000.000000000000000 ) ;
#675 = ADVANCED_FACE ( 'NONE', ( #657 ), #563, .T. ) ;
#676 = CARTESIAN_POINT ( 'NONE',  ( 0.000000000000000000, 0.000000000000000000, 4.000000000000000000 ) ) ;
#677 = AXIS2_PLACEMENT_3D ( 'NONE', #950, #518, #514 ) ;
#678 = AXIS2_PLACEMENT_3D ( 'NONE', #368, #3, #356 ) ;
#679 = CARTESIAN_POINT ( 'NONE',  ( -31.31802284641939949, -7.791052597136151725, -79.40098044709033331 ) ) ;
#680 = AXIS2_PLACEMENT_3D ( 'NONE', #517, #281, #277 ) ;
#681 = ORIENTED_EDGE ( 'NONE', *, *, #774, .T. ) ;
#682 = DIRECTION ( 'NONE',  ( 0.000000000000000000, 0.000000000000000000, 1.000000000000000000 ) ) ;
#683 = FACE_BOUND ( 'NONE', #435, .T. ) ;
#684 = DIRECTION ( 'NONE',  ( 0.000000000000000000, 0.000000000000000000, 1.000000000000000000 ) ) ;
#685 = VERTEX_POINT ( 'NONE', #26 ) ;
#686 = DIRECTION ( 'NONE',  ( 0.000000000000000000, -0.000000000000000000, 1.000000000000000000 ) ) ;
#687 = DIRECTION ( 'NONE',  ( 0.7660444431189790127, 0.6427876096865381417, 0.000000000000000000 ) ) ;
#688 = EDGE_CURVE ( 'NONE', #121, #879, #212, .T. ) ;
#689 = CARTESIAN_POINT ( 'NONE',  ( 18.27708015727290558, -0.3285962530221075983, -82.00000000000000000 ) ) ;
#690 = ORIENTED_EDGE ( 'NONE', *, *, #983, .T. ) ;
#691 = CARTESIAN_POINT ( 'NONE',  ( -3.057787632811232559, 1.839482980609060903, -82.00000000000000000 ) ) ;
#692 = VECTOR ( 'NONE', #114, 1000.000000000000227 ) ;
#693 = FACE_OUTER_BOUND ( 'NONE', #527, .T. ) ;
#694 = AXIS2_PLACEMENT_3D ( 'NONE', #925, #578, #1081 ) ;
#695 = CARTESIAN_POINT ( 'NONE',  ( 18.27708015727289848, 8.797253923885909543, 4.000000000000000000 ) ) ;
#696 = CIRCLE ( 'NONE', #770, 2.249999999999977796 ) ;
#697 = EDGE_LOOP ( 'NONE', ( #903, #176, #379, #276, #787, #32 ) ) ;
#698 = EDGE_CURVE ( 'NONE', #291, #685, #569, .T. ) ;
#699 = DIRECTION ( 'NONE',  ( -1.000000000000000000, 0.000000000000000000, 0.000000000000000000 ) ) ;
#700 = DIRECTION ( 'NONE',  ( 0.000000000000000000, -0.000000000000000000, 1.000000000000000000 ) ) ;
#701 = DIRECTION ( 'NONE',  ( -7.603558867825107376E-16, 1.000000000000000000, -0.000000000000000000 ) ) ;
#702 = ORIENTED_EDGE ( 'NONE', *, *, #77, .T. ) ;
#703 = LINE ( 'NONE', #611, #1076 ) ;
#704 = ORIENTED_EDGE ( 'NONE', *, *, #361, .T. ) ;
#705 = FACE_OUTER_BOUND ( 'NONE', #672, .T. ) ;
#706 = CARTESIAN_POINT ( 'NONE',  ( 0.9656561650310893086, -3.881688829741173574, -79.00000000000000000 ) ) ;
#707 = ORIENTED_EDGE ( 'NONE', *, *, #634, .T. ) ;
#708 = DIRECTION ( 'NONE',  ( -0.000000000000000000, -0.000000000000000000, 1.000000000000000000 ) ) ;
#709 = EDGE_CURVE ( 'NONE', #522, #751, #617, .T. ) ;
#710 = ORIENTED_EDGE ( 'NONE', *, *, #1003, .F. ) ;
#711 = CARTESIAN_POINT ( 'NONE',  ( 18.27708015727290558, -0.3285962530221075983, 4.000000000000000000 ) ) ;
#712 = EDGE_CURVE ( 'NONE', #105, #757, #396, .T. ) ;
#713 = CARTESIAN_POINT ( 'NONE',  ( 9.079866380819563432, -8.045974940702670608, -86.00000000000000000 ) ) ;
#714 = AXIS2_PLACEMENT_3D ( 'NONE', #858, #700, #144 ) ;
#715 = VECTOR ( 'NONE', #941, 1000.000000000000114 ) ;
#716 = ORIENTED_EDGE ( 'NONE', *, *, #398, .F. ) ;
#717 = VECTOR ( 'NONE', #343, 1000.000000000000000 ) ;
#718 = CARTESIAN_POINT ( 'NONE',  ( 18.27708015727289848, 8.797253923885909543, -86.00000000000000000 ) ) ;
#719 = CYLINDRICAL_SURFACE ( 'NONE', #341, 2.249999999999977796 ) ;
#720 = CARTESIAN_POINT ( 'NONE',  ( 18.27708015727289848, 8.797253923885909543, 0.000000000000000000 ) ) ;
#721 = ORIENTED_EDGE ( 'NONE', *, *, #946, .F. ) ;
#722 = DIRECTION ( 'NONE',  ( -0.000000000000000000, -0.000000000000000000, 1.000000000000000000 ) ) ;
#723 = FACE_OUTER_BOUND ( 'NONE', #266, .T. ) ;
#724 = DIRECTION ( 'NONE',  ( -0.000000000000000000, -0.000000000000000000, -1.000000000000000000 ) ) ;
#725 = ORIENTED_EDGE ( 'NONE', *, *, #709, .T. ) ;
#726 = FACE_OUTER_BOUND ( 'NONE', #78, .T. ) ;
#727 = DIRECTION ( 'NONE',  ( -0.7660444431189793457, -0.6427876096865378086, 0.000000000000000000 ) ) ;
#728 = CARTESIAN_POINT ( 'NONE',  ( 11.27708015727290558, 10.79725392388590421, -86.00000000000000000 ) ) ;
#729 = EDGE_LOOP ( 'NONE', ( #1077, #218, #535, #1044 ) ) ;
#730 = LINE ( 'NONE', #1102, #362 ) ;
#731 = ADVANCED_FACE ( 'NONE', ( #44 ), #133, .T. ) ;
#732 =( GEOMETRIC_REPRESENTATION_CONTEXT ( 3 ) GLOBAL_UNCERTAINTY_ASSIGNED_CONTEXT ( ( #669 ) ) GLOBAL_UNIT_ASSIGNED_CONTEXT ( ( #642, #916, #210 ) ) REPRESENTATION_CONTEXT ( 'NONE', 'WORKASPACE' ) );
#733 = VERTEX_POINT ( 'NONE', #743 ) ;
#734 = DIRECTION ( 'NONE',  ( -0.000000000000000000, -0.000000000000000000, 1.000000000000000000 ) ) ;
#735 = CARTESIAN_POINT ( 'NONE',  ( -46.10696995918702612, -21.77492413724156606, 0.000000000000000000 ) ) ;
#736 = EDGE_LOOP ( 'NONE', ( #633, #702, #1005, #764, #897 ) ) ;
#737 = VERTEX_POINT ( 'NONE', #934 ) ;
#738 = CARTESIAN_POINT ( 'NONE',  ( 2.733583504843940748, 2.293748910706839617, -86.00000000000000000 ) ) ;
#739 = DIRECTION ( 'NONE',  ( 1.000000000000000000, 0.000000000000000000, 0.000000000000000000 ) ) ;
#740 = VERTEX_POINT ( 'NONE', #845 ) ;
#741 = DIRECTION ( 'NONE',  ( -0.9704222074352949479, -0.2414140412577724104, 0.000000000000000000 ) ) ;
#742 = ORIENTED_EDGE ( 'NONE', *, *, #936, .T. ) ;
#743 = CARTESIAN_POINT ( 'NONE',  ( 1.689898288804405402, -6.792955452047058529, -82.00000000000000000 ) ) ;
#744 = EDGE_CURVE ( 'NONE', #346, #511, #315, .T. ) ;
#745 = LINE ( 'NONE', #839, #171 ) ;
#746 = VECTOR ( 'NONE', #1039, 1000.000000000000000 ) ;
#747 = ORIENTED_EDGE ( 'NONE', *, *, #914, .T. ) ;
#748 = CIRCLE ( 'NONE', #491, 2.249999999999977796 ) ;
#749 = DIRECTION ( 'NONE',  ( 1.000000000000000000, 0.000000000000000000, 0.000000000000000000 ) ) ;
#750 = VECTOR ( 'NONE', #758, 1000.000000000000000 ) ;
#751 = VERTEX_POINT ( 'NONE', #644 ) ;
#752 = VECTOR ( 'NONE', #789, 1000.000000000000000 ) ;
#753 = DIRECTION ( 'NONE',  ( 1.000000000000000000, 0.000000000000000000, 0.000000000000000000 ) ) ;
#754 = AXIS2_PLACEMENT_3D ( 'NONE', #181, #185, #443 ) ;
#755 = CYLINDRICAL_SURFACE ( 'NONE', #308, 2.249999999999977796 ) ;
#756 = EDGE_LOOP ( 'NONE', ( #198, #100, #583, #395 ) ) ;
#757 = VERTEX_POINT ( 'NONE', #555 ) ;
#758 = DIRECTION ( 'NONE',  ( -0.000000000000000000, -0.000000000000000000, -1.000000000000000000 ) ) ;
#759 = CARTESIAN_POINT ( 'NONE',  ( -44.39085843715942303, -5.890813798794384937, -82.00000000000000000 ) ) ;
#760 = ORIENTED_EDGE ( 'NONE', *, *, #47, .F. ) ;
#761 = ADVANCED_FACE ( 'NONE', ( #1085 ), #51, .F. ) ;
#762 = DIRECTION ( 'NONE',  ( 1.000000000000000000, 0.000000000000000000, 0.000000000000000000 ) ) ;
#763 = CARTESIAN_POINT ( 'NONE',  ( 18.27708015727289848, 8.797253923885909543, 0.000000000000000000 ) ) ;
#764 = ORIENTED_EDGE ( 'NONE', *, *, #944, .T. ) ;
#765 = AXIS2_PLACEMENT_3D ( 'NONE', #883, #4, #27 ) ;
#766 = EDGE_CURVE ( 'NONE', #798, #835, #299, .T. ) ;
#767 = DIRECTION ( 'NONE',  ( 0.9704222074352949479, 0.2414140412577724382, 0.000000000000000000 ) ) ;
#768 = AXIS2_PLACEMENT_3D ( 'NONE', #201, #621, #550 ) ;
#769 = CARTESIAN_POINT ( 'NONE',  ( -46.83121208296034865, -18.86365751493568155, -79.00000000000000000 ) ) ;
#770 = AXIS2_PLACEMENT_3D ( 'NONE', #327, #682, #1024 ) ;
#771 = VECTOR ( 'NONE', #31, 1000.000000000000000 ) ;
#772 = CARTESIAN_POINT ( 'NONE',  ( 0.000000000000000000, 0.000000000000000000, -82.00000000000000000 ) ) ;
#773 = DIRECTION ( 'NONE',  ( 0.8568976291385347333, -0.5154866178444966751, -0.000000000000000000 ) ) ;
#774 = EDGE_CURVE ( 'NONE', #558, #463, #933, .T. ) ;
#775 = CARTESIAN_POINT ( 'NONE',  ( 11.27708015727290203, 8.797253923885909543, 4.000000000000000000 ) ) ;
#776 = LINE ( 'NONE', #515, #111 ) ;
#777 = ORIENTED_EDGE ( 'NONE', *, *, #1069, .F. ) ;
#778 = DIRECTION ( 'NONE',  ( 0.7660444431189793457, 0.6427876096865378086, -0.000000000000000000 ) ) ;
#779 = DIRECTION ( 'NONE',  ( -0.5154866178444966751, -0.8568976291385347333, -0.000000000000000000 ) ) ;
#780 = DIRECTION ( 'NONE',  ( -0.000000000000000000, -0.000000000000000000, 1.000000000000000000 ) ) ;
#781 = EDGE_CURVE ( 'NONE', #35, #121, #478, .T. ) ;
#782 = VERTEX_POINT ( 'NONE', #39 ) ;
#783 = CARTESIAN_POINT ( 'NONE',  ( 18.27708015727289848, 8.797253923885909543, 4.000000000000000000 ) ) ;
#784 = CARTESIAN_POINT ( 'NONE',  ( -6.059181243465328492, 3.645040830887614547, 0.000000000000000000 ) ) ;
#785 = CARTESIAN_POINT ( 'NONE',  ( 9.079866380819563432, -8.045974940702670608, -86.00000000000000000 ) ) ;
#786 = EDGE_CURVE ( 'NONE', #964, #737, #1006, .T. ) ;
#787 = ORIENTED_EDGE ( 'NONE', *, *, #792, .T. ) ;
#788 = CARTESIAN_POINT ( 'NONE',  ( 0.9656561650310881983, -3.881688829741174462, -79.00000000000000000 ) ) ;
#789 = DIRECTION ( 'NONE',  ( -0.9704222074352949479, -0.2414140412577724382, 0.000000000000000000 ) ) ;
#790 = DIRECTION ( 'NONE',  ( -0.000000000000000000, -0.000000000000000000, -1.000000000000000000 ) ) ;
#791 = ORIENTED_EDGE ( 'NONE', *, *, #712, .T. ) ;
#792 = EDGE_CURVE ( 'NONE', #733, #592, #856, .T. ) ;
#793 = FACE_OUTER_BOUND ( 'NONE', #548, .T. ) ;
#794 = EDGE_CURVE ( 'NONE', #180, #224, #1020, .T. ) ;
#795 = EDGE_LOOP ( 'NONE', ( #638, #1049, #17, #1122 ) ) ;
#796 = FACE_OUTER_BOUND ( 'NONE', #697, .T. ) ;
#797 = CARTESIAN_POINT ( 'NONE',  ( -46.10696995918702612, -21.77492413724156606, -83.16906108918513496 ) ) ;
#798 = VERTEX_POINT ( 'NONE', #159 ) ;
#799 = LINE ( 'NONE', #7, #876 ) ;
#800 = DIRECTION ( 'NONE',  ( 0.000000000000000000, 0.000000000000000000, 1.000000000000000000 ) ) ;
#801 = AXIS2_PLACEMENT_3D ( 'NONE', #1075, #99, #640 ) ;
#802 = DIRECTION ( 'NONE',  ( -0.2414140412577724937, 0.9704222074352949479, 0.000000000000000000 ) ) ;
#803 = AXIS2_PLACEMENT_3D ( 'NONE', #1041, #686, #762 ) ;
#804 = ORIENTED_EDGE ( 'NONE', *, *, #868, .F. ) ;
#805 = VECTOR ( 'NONE', #976, 1000.000000000000114 ) ;
#806 = CARTESIAN_POINT ( 'NONE',  ( -6.059181243465328492, 3.645040830887614547, -82.00000000000000000 ) ) ;
#807 = PLANE ( 'NONE',  #986 ) ;
#808 = ADVANCED_FACE ( 'NONE', ( #337 ), #605, .F. ) ;
#809 = CARTESIAN_POINT ( 'NONE',  ( 0.9656561650310881983, -3.881688829741174462, 0.000000000000000000 ) ) ;
#810 = ORIENTED_EDGE ( 'NONE', *, *, #96, .T. ) ;
#811 = DIRECTION ( 'NONE',  ( 1.000000000000000000, 0.000000000000000000, 0.000000000000000000 ) ) ;
#812 = VERTEX_POINT ( 'NONE', #331 ) ;
#813 = DIRECTION ( 'NONE',  ( 0.6427876096865381417, -0.7660444431189790127, 0.000000000000000000 ) ) ;
#814 = DIRECTION ( 'NONE',  ( 0.000000000000000000, -0.000000000000000000, 1.000000000000000000 ) ) ;
#815 = EDGE_CURVE ( 'NONE', #336, #782, #915, .T. ) ;
#816 = ORIENTED_EDGE ( 'NONE', *, *, #794, .T. ) ;
#817 = DIRECTION ( 'NONE',  ( -0.2414140412577724937, 0.9704222074352949479, 0.000000000000000000 ) ) ;
#818 = ORIENTED_EDGE ( 'NONE', *, *, #502, .T. ) ;
#819 = CARTESIAN_POINT ( 'NONE',  ( 11.27708015727290558, 10.79725392388590421, 4.000000000000000888 ) ) ;
#820 = CARTESIAN_POINT ( 'NONE',  ( -46.10696995918702612, -21.77492413724156606, -82.00000000000000000 ) ) ;
#821 = ORIENTED_EDGE ( 'NONE', *, *, #349, .T. ) ;
#822 = AXIS2_PLACEMENT_3D ( 'NONE', #825, #471, #575 ) ;
#823 = VECTOR ( 'NONE', #126, 1000.000000000000114 ) ;
#824 = ORIENTED_EDGE ( 'NONE', *, *, #831, .T. ) ;
#825 = CARTESIAN_POINT ( 'NONE',  ( -47.55545420673367119, -15.95239089262980059, -82.00000000000000000 ) ) ;
#826 = CARTESIAN_POINT ( 'NONE',  ( 11.27708015727290558, 10.79725392388590421, -86.00000000000000000 ) ) ;
#827 = APPLICATION_CONTEXT ( 'automotive_design' ) ;
#828 = ORIENTED_EDGE ( 'NONE', *, *, #436, .F. ) ;
#829 = ADVANCED_FACE ( 'NONE', ( #508 ), #593, .F. ) ;
#830 = CARTESIAN_POINT ( 'NONE',  ( 0.000000000000000000, 0.000000000000000000, 0.000000000000000000 ) ) ;
#831 = EDGE_CURVE ( 'NONE', #989, #685, #848, .T. ) ;
#832 = VERTEX_POINT ( 'NONE', #147 ) ;
#833 = DIRECTION ( 'NONE',  ( -0.000000000000000000, -0.000000000000000000, 1.000000000000000000 ) ) ;
#834 = CARTESIAN_POINT ( 'NONE',  ( 13.52708015727288249, 10.79725392388590421, 4.000000000000000000 ) ) ;
#835 = VERTEX_POINT ( 'NONE', #1129 ) ;
#836 = LINE ( 'NONE', #655, #637 ) ;
#837 = VERTEX_POINT ( 'NONE', #74 ) ;
#838 = CARTESIAN_POINT ( 'NONE',  ( -49.72818057805362457, -7.218591025712149722, 0.000000000000000000 ) ) ;
#839 = CARTESIAN_POINT ( 'NONE',  ( -44.39085843715942303, -5.890813798794386713, -82.00000000000000000 ) ) ;
#840 = VECTOR ( 'NONE', #340, 1000.000000000000000 ) ;
#841 = ORIENTED_EDGE ( 'NONE', *, *, #543, .T. ) ;
#842 = CIRCLE ( 'NONE', #520, 4.999999999999999112 ) ;
#843 = CARTESIAN_POINT ( 'NONE',  ( 2.733583504843941636, 2.293748910706840505, 4.000000000000000000 ) ) ;
#844 = VERTEX_POINT ( 'NONE', #691 ) ;
#845 = CARTESIAN_POINT ( 'NONE',  ( 13.52708015727289492, 10.79725392388590421, 4.000000000000000888 ) ) ;
#846 = CARTESIAN_POINT ( 'NONE',  ( -49.72818057805362457, -7.218591025712149722, -86.00000000000000000 ) ) ;
#847 = ORIENTED_EDGE ( 'NONE', *, *, #709, .F. ) ;
#848 = LINE ( 'NONE', #1114, #116 ) ;
#849 = DIRECTION ( 'NONE',  ( -0.000000000000000000, -0.000000000000000000, 1.000000000000000000 ) ) ;
#850 = ORIENTED_EDGE ( 'NONE', *, *, #349, .F. ) ;
#851 = EDGE_CURVE ( 'NONE', #190, #989, #1035, .T. ) ;
#852 = LINE ( 'NONE', #413, #254 ) ;
#853 = LINE ( 'NONE', #679, #1074 ) ;
#854 = CARTESIAN_POINT ( 'NONE',  ( 2.733583504843942080, 2.293748910706840505, 4.000000000000000000 ) ) ;
#855 = EDGE_CURVE ( 'NONE', #964, #336, #852, .T. ) ;
#856 = LINE ( 'NONE', #261, #715 ) ;
#857 = VECTOR ( 'NONE', #919, 1000.000000000000000 ) ;
#858 = CARTESIAN_POINT ( 'NONE',  ( 11.27708015727290025, 8.797253923885909543, -82.00000000000000000 ) ) ;
#859 = DIRECTION ( 'NONE',  ( 0.9704222074352949479, 0.2414140412577724937, -0.000000000000000000 ) ) ;
#860 = ORIENTED_EDGE ( 'NONE', *, *, #936, .F. ) ;
#861 = DIRECTION ( 'NONE',  ( -0.7660444431189790127, -0.6427876096865381417, -0.000000000000000000 ) ) ;
#862 = ADVANCED_FACE ( 'NONE', ( #322 ), #601, .F. ) ;
#863 = DIRECTION ( 'NONE',  ( 0.000000000000000000, 0.000000000000000000, 1.000000000000000000 ) ) ;
#864 = DIRECTION ( 'NONE',  ( -0.9704222074352948368, -0.2414140412577725492, 0.000000000000000000 ) ) ;
#865 = ORIENTED_EDGE ( 'NONE', *, *, #698, .F. ) ;
#866 = DIRECTION ( 'NONE',  ( 1.000000000000000000, 0.000000000000000000, -0.000000000000000000 ) ) ;
#867 = CARTESIAN_POINT ( 'NONE',  ( -43.18378823087056873, -10.74292483597085912, -82.00000000000000000 ) ) ;
#868 = EDGE_CURVE ( 'NONE', #152, #94, #155, .T. ) ;
#869 = FILL_AREA_STYLE_COLOUR ( '', #45 ) ;
#870 = ORIENTED_EDGE ( 'NONE', *, *, #1069, .T. ) ;
#871 = DIRECTION ( 'NONE',  ( -0.5154866178444966751, -0.8568976291385347333, -0.000000000000000000 ) ) ;
#872 = DIRECTION ( 'NONE',  ( 1.000000000000000000, 0.000000000000000000, 0.000000000000000000 ) ) ;
#873 = AXIS2_PLACEMENT_3D ( 'NONE', #893, #86, #1048 ) ;
#874 = ADVANCED_FACE ( 'NONE', ( #503, #512 ), #70, .F. ) ;
#875 = DIRECTION ( 'NONE',  ( -1.000000000000000000, -7.603558867825107376E-16, 0.000000000000000000 ) ) ;
#876 = VECTOR ( 'NONE', #891, 1000.000000000000000 ) ;
#877 = AXIS2_PLACEMENT_3D ( 'NONE', #487, #1097, #106 ) ;
#878 = EDGE_CURVE ( 'NONE', #403, #132, #238, .T. ) ;
#879 = VERTEX_POINT ( 'NONE', #55 ) ;
#880 = LINE ( 'NONE', #95, #564 ) ;
#881 = ORIENTED_EDGE ( 'NONE', *, *, #615, .T. ) ;
#882 = DIRECTION ( 'NONE',  ( 0.7660444431189790127, 0.6427876096865381417, 0.000000000000000000 ) ) ;
#883 = CARTESIAN_POINT ( 'NONE',  ( 11.27708015727290558, 10.79725392388590421, 4.000000000000000888 ) ) ;
#884 = ORIENTED_EDGE ( 'NONE', *, *, #974, .T. ) ;
#885 = EDGE_CURVE ( 'NONE', #97, #357, #938, .T. ) ;
#886 = FACE_OUTER_BOUND ( 'NONE', #1083, .T. ) ;
#887 = PLANE ( 'NONE',  #271 ) ;
#888 = DIRECTION ( 'NONE',  ( -0.9704222074352948368, -0.2414140412577725492, 0.000000000000000000 ) ) ;
#889 = ORIENTED_EDGE ( 'NONE', *, *, #347, .T. ) ;
#890 = PRODUCT_RELATED_PRODUCT_CATEGORY ( 'part', '', ( #256 ) ) ;
#891 = DIRECTION ( 'NONE',  ( -0.9704222074352949479, -0.2414140412577724937, -0.000000000000000000 ) ) ;
#892 = ORIENTED_EDGE ( 'NONE', *, *, #127, .F. ) ;
#893 = CARTESIAN_POINT ( 'NONE',  ( 11.27708015727290025, 8.797253923885909543, -86.00000000000000000 ) ) ;
#894 = CIRCLE ( 'NONE', #540, 4.999999999999999112 ) ;
#895 = DIRECTION ( 'NONE',  ( 1.000000000000000000, 0.000000000000000000, 0.000000000000000000 ) ) ;
#896 = VECTOR ( 'NONE', #861, 1000.000000000000114 ) ;
#897 = ORIENTED_EDGE ( 'NONE', *, *, #287, .T. ) ;
#898 = VECTOR ( 'NONE', #817, 1000.000000000000114 ) ;
#899 = LINE ( 'NONE', #1136, #598 ) ;
#900 = VERTEX_POINT ( 'NONE', #143 ) ;
#901 = FACE_OUTER_BOUND ( 'NONE', #729, .T. ) ;
#902 = CARTESIAN_POINT ( 'NONE',  ( 4.277080157272902028, 3.588896382483342862, 4.000000000000000000 ) ) ;
#903 = ORIENTED_EDGE ( 'NONE', *, *, #166, .F. ) ;
#904 = DIRECTION ( 'NONE',  ( -0.9704222074352949479, -0.2414140412577724382, -0.000000000000000000 ) ) ;
#905 = ORIENTED_EDGE ( 'NONE', *, *, #240, .T. ) ;
#906 = CARTESIAN_POINT ( 'NONE',  ( 2.733583504843941192, 2.293748910706840061, -82.00000000000000000 ) ) ;
#907 = FACE_OUTER_BOUND ( 'NONE', #251, .T. ) ;
#908 = ORIENTED_EDGE ( 'NONE', *, *, #1094, .F. ) ;
#909 = ORIENTED_EDGE ( 'NONE', *, *, #8, .T. ) ;
#910 = DIRECTION ( 'NONE',  ( 1.000000000000000000, 0.000000000000000000, 0.000000000000000000 ) ) ;
#911 = CARTESIAN_POINT ( 'NONE',  ( 11.27708015727290558, 10.79725392388590421, 4.000000000000000000 ) ) ;
#912 = EDGE_CURVE ( 'NONE', #798, #975, #499, .T. ) ;
#913 = EDGE_LOOP ( 'NONE', ( #447, #1004, #400, #818 ) ) ;
#914 = EDGE_CURVE ( 'NONE', #352, #296, #696, .T. ) ;
#915 = CIRCLE ( 'NONE', #803, 5.000000000000000000 ) ;
#916 =( NAMED_UNIT ( * ) PLANE_ANGLE_UNIT ( ) SI_UNIT ( $, .RADIAN. ) );
#917 = VECTOR ( 'NONE', #528, 1000.000000000000000 ) ;
#918 = ORIENTED_EDGE ( 'NONE', *, *, #831, .F. ) ;
#919 = DIRECTION ( 'NONE',  ( -0.000000000000000000, -0.000000000000000000, 1.000000000000000000 ) ) ;
#920 = LINE ( 'NONE', #834, #249 ) ;
#921 = VERTEX_POINT ( 'NONE', #589 ) ;
#922 = CARTESIAN_POINT ( 'NONE',  ( -46.10696995918702612, -21.77492413724156606, -82.00000000000000000 ) ) ;
#923 = EDGE_CURVE ( 'NONE', #531, #977, #1065, .T. ) ;
#924 = ORIENTED_EDGE ( 'NONE', *, *, #532, .F. ) ;
#925 = CARTESIAN_POINT ( 'NONE',  ( 11.27708015727290203, 8.797253923885909543, 4.000000000000000000 ) ) ;
#926 = DIRECTION ( 'NONE',  ( -0.2414140412577724104, 0.9704222074352948368, 0.000000000000000000 ) ) ;
#927 = ORIENTED_EDGE ( 'NONE', *, *, #960, .F. ) ;
#928 = DIRECTION ( 'NONE',  ( 0.000000000000000000, 0.000000000000000000, 1.000000000000000000 ) ) ;
#929 = ORIENTED_EDGE ( 'NONE', *, *, #815, .T. ) ;
#930 = CARTESIAN_POINT ( 'NONE',  ( 18.27708015727290558, -0.3285962530221075983, -82.00000000000000000 ) ) ;
#931 = LINE ( 'NONE', #56, #692 ) ;
#932 = ORIENTED_EDGE ( 'NONE', *, *, #153, .F. ) ;
#933 = CIRCLE ( 'NONE', #429, 6.999999999999997335 ) ;
#934 = CARTESIAN_POINT ( 'NONE',  ( -44.39085843715937330, -5.890813798794369838, 0.000000000000000000 ) ) ;
#935 = DIRECTION ( 'NONE',  ( -0.000000000000000000, -0.000000000000000000, 1.000000000000000000 ) ) ;
#936 = EDGE_CURVE ( 'NONE', #117, #900, #880, .T. ) ;
#937 = VERTEX_POINT ( 'NONE', #286 ) ;
#938 = LINE ( 'NONE', #783, #717 ) ;
#939 = CARTESIAN_POINT ( 'NONE',  ( 18.27708015727289848, 8.797253923885909543, -86.00000000000000000 ) ) ;
#940 = DIRECTION ( 'NONE',  ( 0.000000000000000000, 0.000000000000000000, -1.000000000000000000 ) ) ;
#941 = DIRECTION ( 'NONE',  ( -0.2414140412577723827, 0.9704222074352949479, 0.000000000000000000 ) ) ;
#942 = FACE_OUTER_BOUND ( 'NONE', #124, .T. ) ;
#943 = LINE ( 'NONE', #329, #189 ) ;
#944 = EDGE_CURVE ( 'NONE', #737, #812, #703, .T. ) ;
#945 = VERTEX_POINT ( 'NONE', #533 ) ;
#946 = EDGE_CURVE ( 'NONE', #81, #1110, #217, .T. ) ;
#947 = VECTOR ( 'NONE', #802, 1000.000000000000114 ) ;
#948 = DIRECTION ( 'NONE',  ( -0.9704222074352948368, -0.2414140412577725492, 0.000000000000000000 ) ) ;
#949 = AXIS2_PLACEMENT_3D ( 'NONE', #1104, #129, #910 ) ;
#950 = CARTESIAN_POINT ( 'NONE',  ( -46.83121208296034155, -18.86365751493568155, -79.00000000000000000 ) ) ;
#951 = VECTOR ( 'NONE', #199, 1000.000000000000227 ) ;
#952 = PRESENTATION_STYLE_ASSIGNMENT (( #597 ) ) ;
#953 = ORIENTED_EDGE ( 'NONE', *, *, #786, .F. ) ;
#954 = ADVANCED_FACE ( 'NONE', ( #793 ), #965, .F. ) ;
#955 = CARTESIAN_POINT ( 'NONE',  ( -49.72818057805362457, -7.218591025712149722, 0.000000000000000000 ) ) ;
#956 = CARTESIAN_POINT ( 'NONE',  ( -46.10696995918702612, -21.77492413724156606, 1.169061089185130520 ) ) ;
#957 = LINE ( 'NONE', #706, #537 ) ;
#958 = ORIENTED_EDGE ( 'NONE', *, *, #384, .T. ) ;
#959 = CARTESIAN_POINT ( 'NONE',  ( 4.277080157272905581, 8.797253923885909543, 0.000000000000000000 ) ) ;
#960 = EDGE_CURVE ( 'NONE', #325, #879, #1070, .T. ) ;
#961 = ORIENTED_EDGE ( 'NONE', *, *, #481, .T. ) ;
#962 = FACE_BOUND ( 'NONE', #200, .T. ) ;
#963 = LINE ( 'NONE', #772, #1089 ) ;
#964 = VERTEX_POINT ( 'NONE', #18 ) ;
#965 = CYLINDRICAL_SURFACE ( 'NONE', #233, 2.249999999999977796 ) ;
#966 = VECTOR ( 'NONE', #585, 1000.000000000000000 ) ;
#967 = DIRECTION ( 'NONE',  ( 0.000000000000000000, -0.000000000000000000, 1.000000000000000000 ) ) ;
#968 = EDGE_CURVE ( 'NONE', #463, #35, #101, .T. ) ;
#969 = ORIENTED_EDGE ( 'NONE', *, *, #968, .T. ) ;
#970 = CARTESIAN_POINT ( 'NONE',  ( -6.059181243465328492, 3.645040830887614991, -86.00000000000000000 ) ) ;
#971 = ORIENTED_EDGE ( 'NONE', *, *, #208, .T. ) ;
#972 = LINE ( 'NONE', #990, #1130 ) ;
#973 = CARTESIAN_POINT ( 'NONE',  ( -46.10696995918702612, -21.77492413724156606, -86.00000000000000000 ) ) ;
#974 = EDGE_CURVE ( 'NONE', #844, #163, #1045, .T. ) ;
#975 = VERTEX_POINT ( 'NONE', #437 ) ;
#976 = DIRECTION ( 'NONE',  ( -0.8568976291385347333, 0.5154866178444966751, -0.000000000000000000 ) ) ;
#977 = VERTEX_POINT ( 'NONE', #959 ) ;
#978 = PLANE ( 'NONE',  #65 ) ;
#979 =( NAMED_UNIT ( * ) SI_UNIT ( $, .STERADIAN. ) SOLID_ANGLE_UNIT ( ) );
#980 = ORIENTED_EDGE ( 'NONE', *, *, #347, .F. ) ;
#981 = VECTOR ( 'NONE', #63, 1000.000000000000000 ) ;
#982 = CARTESIAN_POINT ( 'NONE',  ( 4.394545145586068458, -2.643640426850661473, 4.000000000000000000 ) ) ;
#983 = EDGE_CURVE ( 'NONE', #180, #270, #2, .T. ) ;
#984 = DIRECTION ( 'NONE',  ( 1.000000000000000000, 0.000000000000000000, 0.000000000000000000 ) ) ;
#985 = DIRECTION ( 'NONE',  ( -0.2414140412577723827, 0.9704222074352949479, 0.000000000000000000 ) ) ;
#986 = AXIS2_PLACEMENT_3D ( 'NONE', #525, #813, #439 ) ;
#987 = ORIENTED_EDGE ( 'NONE', *, *, #178, .T. ) ;
#988 = CARTESIAN_POINT ( 'NONE',  ( 13.52708015727288249, 10.79725392388590421, -86.00000000000000000 ) ) ;
#989 = VERTEX_POINT ( 'NONE', #14 ) ;
#990 = CARTESIAN_POINT ( 'NONE',  ( 0.000000000000000000, 0.000000000000000000, -82.00000000000000000 ) ) ;
#991 = ORIENTED_EDGE ( 'NONE', *, *, #855, .T. ) ;
#992 = EDGE_LOOP ( 'NONE', ( #953, #991, #929, #131, #1134, #184, #298, #918, #1106, #293, #707, #259, #1133, #88 ) ) ;
#993 = DIRECTION ( 'NONE',  ( 0.9704222074352949479, 0.2414140412577723827, 0.000000000000000000 ) ) ;
#994 = EDGE_CURVE ( 'NONE', #296, #352, #494, .T. ) ;
#995 = DIRECTION ( 'NONE',  ( 0.2414140412577725214, -0.9704222074352949479, 0.000000000000000000 ) ) ;
#996 = ADVANCED_FACE ( 'NONE', ( #886 ), #457, .F. ) ;
#997 = ORIENTED_EDGE ( 'NONE', *, *, #476, .T. ) ;
#998 = DIRECTION ( 'NONE',  ( -1.000000000000000000, -7.603558867825107376E-16, 0.000000000000000000 ) ) ;
#999 = APPLICATION_CONTEXT ( 'automotive_design' ) ;
#1000 = ORIENTED_EDGE ( 'NONE', *, *, #573, .F. ) ;
#1001 = DIRECTION ( 'NONE',  ( -0.000000000000000000, 0.000000000000000000, -1.000000000000000000 ) ) ;
#1002 = CARTESIAN_POINT ( 'NONE',  ( 9.027080157272926897, 10.79725392388590421, 4.000000000000000000 ) ) ;
#1003 = EDGE_CURVE ( 'NONE', #837, #975, #620, .T. ) ;
#1004 = ORIENTED_EDGE ( 'NONE', *, *, #781, .F. ) ;
#1005 = ORIENTED_EDGE ( 'NONE', *, *, #786, .T. ) ;
#1006 = LINE ( 'NONE', #838, #1112 ) ;
#1007 = LINE ( 'NONE', #671, #594 ) ;
#1008 = ORIENTED_EDGE ( 'NONE', *, *, #53, .F. ) ;
#1009 = DIRECTION ( 'NONE',  ( -0.7660444431189793457, -0.6427876096865378086, 0.000000000000000000 ) ) ;
#1010 = ORIENTED_EDGE ( 'NONE', *, *, #960, .T. ) ;
#1011 = CARTESIAN_POINT ( 'NONE',  ( 4.277080157272902028, 3.588896382483342862, -86.00000000000000000 ) ) ;
#1012 = CARTESIAN_POINT ( 'NONE',  ( -49.72818057805362457, -7.218591025712149722, -86.00000000000000000 ) ) ;
#1013 = VERTEX_POINT ( 'NONE', #788 ) ;
#1014 = ADVANCED_FACE ( 'NONE', ( #726 ), #630, .F. ) ;
#1015 = LINE ( 'NONE', #113, #359 ) ;
#1016 = CARTESIAN_POINT ( 'NONE',  ( 4.277080157272902028, 3.588896382483342862, -82.00000000000000000 ) ) ;
#1017 = VERTEX_POINT ( 'NONE', #970 ) ;
#1018 = CIRCLE ( 'NONE', #1052, 6.999999999999995559 ) ;
#1019 = AXIS2_PLACEMENT_3D ( 'NONE', #1030, #1107, #139 ) ;
#1020 = LINE ( 'NONE', #417, #115 ) ;
#1021 = ADVANCED_FACE ( 'NONE', ( #80 ), #431, .F. ) ;
#1022 = FACE_OUTER_BOUND ( 'NONE', #1047, .T. ) ;
#1023 = ORIENTED_EDGE ( 'NONE', *, *, #1033, .F. ) ;
#1024 = DIRECTION ( 'NONE',  ( 1.000000000000000000, 0.000000000000000000, 0.000000000000000000 ) ) ;
#1025 = DIRECTION ( 'NONE',  ( 0.9704222074352949479, 0.2414140412577724382, 0.000000000000000000 ) ) ;
#1026 = EDGE_CURVE ( 'NONE', #812, #921, #899, .T. ) ;
#1027 = PLANE ( 'NONE',  #244 ) ;
#1028 = EDGE_CURVE ( 'NONE', #937, #467, #799, .T. ) ;
#1029 = ORIENTED_EDGE ( 'NONE', *, *, #335, .F. ) ;
#1030 = CARTESIAN_POINT ( 'NONE',  ( -1.207070206288862302, 4.852111037176475072, 0.000000000000000000 ) ) ;
#1031 = LINE ( 'NONE', #245, #1111 ) ;
#1032 = FILL_AREA_STYLE ('',( #869 ) ) ;
#1033 = EDGE_CURVE ( 'NONE', #832, #937, #582, .T. ) ;
#1034 = ORIENTED_EDGE ( 'NONE', *, *, #1026, .T. ) ;
#1035 = LINE ( 'NONE', #66, #399 ) ;
#1036 = AXIS2_PLACEMENT_3D ( 'NONE', #819, #391, #753 ) ;
#1037 = CARTESIAN_POINT ( 'NONE',  ( -0.4803545435887496273, 6.123971126301735346, -82.00000000000000000 ) ) ;
#1038 = AXIS2_PLACEMENT_3D ( 'NONE', #830, #663, #749 ) ;
#1039 = DIRECTION ( 'NONE',  ( -6.661307186332912908E-16, -1.000000000000000000, -0.000000000000000000 ) ) ;
#1040 = EDGE_LOOP ( 'NONE', ( #142, #553, #1087, #1010 ) ) ;
#1041 = CARTESIAN_POINT ( 'NONE',  ( -0.4803545435887491832, 6.123971126301736234, 0.000000000000000000 ) ) ;
#1042 = DIRECTION ( 'NONE',  ( 0.000000000000000000, 0.000000000000000000, -1.000000000000000000 ) ) ;
#1043 = CARTESIAN_POINT ( 'NONE',  ( 0.000000000000000000, 0.000000000000000000, 0.000000000000000000 ) ) ;
#1044 = ORIENTED_EDGE ( 'NONE', *, *, #91, .T. ) ;
#1045 = LINE ( 'NONE', #806, #805 ) ;
#1046 = EDGE_CURVE ( 'NONE', #35, #325, #377, .T. ) ;
#1047 = EDGE_LOOP ( 'NONE', ( #480, #568, #330, #574, #498, #458, #721, #850, #495, #997, #884, #237, #905, #987 ) ) ;
#1048 = DIRECTION ( 'NONE',  ( 1.000000000000000000, 0.000000000000000000, 0.000000000000000000 ) ) ;
#1049 = ORIENTED_EDGE ( 'NONE', *, *, #119, .T. ) ;
#1050 = ORIENTED_EDGE ( 'NONE', *, *, #1055, .T. ) ;
#1051 = DIRECTION ( 'NONE',  ( -0.000000000000000000, -0.000000000000000000, 1.000000000000000000 ) ) ;
#1052 = AXIS2_PLACEMENT_3D ( 'NONE', #230, #479, #666 ) ;
#1053 = EDGE_LOOP ( 'NONE', ( #110, #390, #562, #241, #760, #284 ) ) ;
#1054 = DIRECTION ( 'NONE',  ( -0.6427876096865378086, 0.7660444431189793457, 0.000000000000000000 ) ) ;
#1055 = EDGE_CURVE ( 'NONE', #1017, #652, #204, .T. ) ;
#1056 = LINE ( 'NONE', #713, #149 ) ;
#1057 = VECTOR ( 'NONE', #767, 1000.000000000000000 ) ;
#1058 = ORIENTED_EDGE ( 'NONE', *, *, #698, .T. ) ;
#1059 = DIRECTION ( 'NONE',  ( -0.2414140412577724937, 0.9704222074352949479, 0.000000000000000000 ) ) ;
#1060 = ORIENTED_EDGE ( 'NONE', *, *, #91, .F. ) ;
#1061 = CARTESIAN_POINT ( 'NONE',  ( 9.027080157272914462, 10.79725392388590421, 4.000000000000000888 ) ) ;
#1062 = DIRECTION ( 'NONE',  ( 0.000000000000000000, 0.000000000000000000, -1.000000000000000000 ) ) ;
#1063 = ADVANCED_FACE ( 'NONE', ( #402 ), #462, .F. ) ;
#1064 = ORIENTED_EDGE ( 'NONE', *, *, #1028, .T. ) ;
#1065 = LINE ( 'NONE', #265, #917 ) ;
#1066 = CARTESIAN_POINT ( 'NONE',  ( -0.4803545435887491832, 6.123971126301736234, 0.000000000000000000 ) ) ;
#1067 = PLANE ( 'NONE',  #801 ) ;
#1068 = ORIENTED_EDGE ( 'NONE', *, *, #383, .T. ) ;
#1069 = EDGE_CURVE ( 'NONE', #782, #94, #389, .T. ) ;
#1070 = LINE ( 'NONE', #85, #658 ) ;
#1071 = VERTEX_POINT ( 'NONE', #988 ) ;
#1072 = LINE ( 'NONE', #445, #9 ) ;
#1073 = VECTOR ( 'NONE', #1100, 1000.000000000000000 ) ;
#1074 = VECTOR ( 'NONE', #71, 1000.000000000000227 ) ;
#1075 = CARTESIAN_POINT ( 'NONE',  ( -46.10696995918702612, -21.77492413724156606, 4.000000000000000000 ) ) ;
#1076 = VECTOR ( 'NONE', #191, 1000.000000000000227 ) ;
#1077 = ORIENTED_EDGE ( 'NONE', *, *, #946, .T. ) ;
#1078 = EDGE_CURVE ( 'NONE', #879, #224, #36, .T. ) ;
#1079 = CARTESIAN_POINT ( 'NONE',  ( 18.27708015727290558, -0.3285962530221075983, -86.00000000000000000 ) ) ;
#1080 = ORIENTED_EDGE ( 'NONE', *, *, #885, .F. ) ;
#1081 = DIRECTION ( 'NONE',  ( -1.000000000000000000, 0.000000000000000000, 0.000000000000000000 ) ) ;
#1082 = LINE ( 'NONE', #93, #246 ) ;
#1083 = EDGE_LOOP ( 'NONE', ( #364, #374, #881, #444 ) ) ;
#1084 = ORIENTED_EDGE ( 'NONE', *, *, #160, .T. ) ;
#1085 = FACE_OUTER_BOUND ( 'NONE', #1053, .T. ) ;
#1086 = PLANE ( 'NONE',  #285 ) ;
#1087 = ORIENTED_EDGE ( 'NONE', *, *, #134, .F. ) ;
#1088 = CARTESIAN_POINT ( 'NONE',  ( 9.079866380819563432, -8.045974940702670608, -82.00000000000000000 ) ) ;
#1089 = VECTOR ( 'NONE', #684, 1000.000000000000000 ) ;
#1090 = ORIENTED_EDGE ( 'NONE', *, *, #1028, .F. ) ;
#1091 = CARTESIAN_POINT ( 'NONE',  ( -46.10696995918702612, -21.77492413724156606, 4.000000000000000000 ) ) ;
#1092 = VECTOR ( 'NONE', #623, 1000.000000000000000 ) ;
#1093 = CARTESIAN_POINT ( 'NONE',  ( -49.72818057805362457, -7.218591025712149722, 4.000000000000000000 ) ) ;
#1094 = EDGE_CURVE ( 'NONE', #733, #38, #547, .T. ) ;
#1095 = EDGE_LOOP ( 'NONE', ( #539, #870, #804, #69 ) ) ;
#1096 = CIRCLE ( 'NONE', #1036, 2.249999999999989786 ) ;
#1097 = DIRECTION ( 'NONE',  ( 0.9704222074352950589, 0.2414140412577725214, -0.000000000000000000 ) ) ;
#1098 = EDGE_LOOP ( 'NONE', ( #137, #1139, #626, #452, #546, #461, #604, #641, #15, #909 ) ) ;
#1099 = LINE ( 'NONE', #380, #174 ) ;
#1100 = DIRECTION ( 'NONE',  ( 7.603558867825107376E-16, -1.000000000000000000, 0.000000000000000000 ) ) ;
#1101 = ORIENTED_EDGE ( 'NONE', *, *, #252, .T. ) ;
#1102 = CARTESIAN_POINT ( 'NONE',  ( 0.9656561650310881983, -3.881688829741174462, -82.00000000000000000 ) ) ;
#1103 = ORIENTED_EDGE ( 'NONE', *, *, #228, .F. ) ;
#1104 = CARTESIAN_POINT ( 'NONE',  ( 11.27708015727290558, 10.79725392388590421, -82.00000000000000000 ) ) ;
#1105 = CARTESIAN_POINT ( 'NONE',  ( 2.733583504843941192, 2.293748910706840061, -86.00000000000000000 ) ) ;
#1106 = ORIENTED_EDGE ( 'NONE', *, *, #252, .F. ) ;
#1107 = DIRECTION ( 'NONE',  ( 0.2414140412577724382, -0.9704222074352949479, 0.000000000000000000 ) ) ;
#1108 = DIRECTION ( 'NONE',  ( 1.000000000000000000, 0.000000000000000000, 0.000000000000000000 ) ) ;
#1109 = VECTOR ( 'NONE', #790, 1000.000000000000000 ) ;
#1110 = VERTEX_POINT ( 'NONE', #572 ) ;
#1111 = VECTOR ( 'NONE', #596, 1000.000000000000000 ) ;
#1112 = VECTOR ( 'NONE', #1118, 1000.000000000000000 ) ;
#1113 = EDGE_CURVE ( 'NONE', #1013, #937, #730, .T. ) ;
#1114 = CARTESIAN_POINT ( 'NONE',  ( 18.27708015727290558, -0.3285962530221075983, 0.000000000000000000 ) ) ;
#1115 = EDGE_CURVE ( 'NONE', #54, #22, #836, .T. ) ;
#1116 = PLANE ( 'NONE',  #378 ) ;
#1117 = LINE ( 'NONE', #603, #167 ) ;
#1118 = DIRECTION ( 'NONE',  ( -0.9704222074352949479, -0.2414140412577724382, -0.000000000000000000 ) ) ;
#1119 = CARTESIAN_POINT ( 'NONE',  ( 0.000000000000000000, 0.000000000000000000, -86.00000000000000000 ) ) ;
#1120 = EDGE_CURVE ( 'NONE', #467, #403, #30, .T. ) ;
#1121 = CARTESIAN_POINT ( 'NONE',  ( -49.72818057805362457, -7.218591025712149722, -83.16906108918513496 ) ) ;
#1122 = ORIENTED_EDGE ( 'NONE', *, *, #392, .F. ) ;
#1123 = CARTESIAN_POINT ( 'NONE',  ( -0.4803545435887496273, 6.123971126301735346, -86.00000000000000000 ) ) ;
#1124 = CARTESIAN_POINT ( 'NONE',  ( -6.059181243465328492, 3.645040830887614991, 0.000000000000000000 ) ) ;
#1125 = CARTESIAN_POINT ( 'NONE',  ( -48.52111037176474895, -12.07070206288862124, 4.000000000000000000 ) ) ;
#1126 = ORIENTED_EDGE ( 'NONE', *, *, #119, .F. ) ;
#1127 = VECTOR ( 'NONE', #849, 1000.000000000000000 ) ;
#1128 = VECTOR ( 'NONE', #1132, 1000.000000000000000 ) ;
#1129 = CARTESIAN_POINT ( 'NONE',  ( -46.10696995918702612, -21.77492413724156606, 4.000000000000000000 ) ) ;
#1130 = VECTOR ( 'NONE', #882, 1000.000000000000114 ) ;
#1131 = VECTOR ( 'NONE', #625, 1000.000000000000114 ) ;
#1132 = DIRECTION ( 'NONE',  ( -0.000000000000000000, -0.000000000000000000, 1.000000000000000000 ) ) ;
#1133 = ORIENTED_EDGE ( 'NONE', *, *, #1115, .T. ) ;
#1134 = ORIENTED_EDGE ( 'NONE', *, *, #260, .F. ) ;
#1135 = EDGE_CURVE ( 'NONE', #224, #38, #647, .T. ) ;
#1136 = CARTESIAN_POINT ( 'NONE',  ( -46.10696995918702612, -21.77492413724156606, 1.169061089185130520 ) ) ;
#1137 = DIRECTION ( 'NONE',  ( -0.000000000000000000, -0.000000000000000000, 1.000000000000000000 ) ) ;
#1138 = LINE ( 'NONE', #609, #840 ) ;
#1139 = ORIENTED_EDGE ( 'NONE', *, *, #532, .T. ) ;
ENDSEC;
END-ISO-10303-21;
