ISO-10303-21;
HEADER;
FILE_DESCRIPTION (( 'STEP AP214' ),
    '1' );
FILE_NAME ('ELP-0034.STEP',
    '2026-04-12T09:03:19',
    ( '' ),
    ( '' ),
    'SwSTEP 2.0',
    'SolidWorks 2024',
    '' );
FILE_SCHEMA (( 'AUTOMOTIVE_DESIGN' ));
ENDSEC;

DATA;
#1 = ORIENTED_EDGE ( 'NONE', *, *, #261, .T. ) ;
#2 = AXIS2_PLACEMENT_3D ( 'NONE', #90, #518, #511 ) ;
#3 = EDGE_CURVE ( 'NONE', #439, #66, #270, .T. ) ;
#4 = CARTESIAN_POINT ( 'NONE',  ( 9.999999999999998224, 7.000000000000000000, 86.08326913195982399 ) ) ;
#5 = EDGE_LOOP ( 'NONE', ( #242, #410, #193, #841 ) ) ;
#6 = CARTESIAN_POINT ( 'NONE',  ( 0.000000000000000000, 6.999999999999999112, 69.99999999999998579 ) ) ;
#7 = VERTEX_POINT ( 'NONE', #267 ) ;
#8 = ORIENTED_EDGE ( 'NONE', *, *, #906, .F. ) ;
#9 = DIRECTION ( 'NONE',  ( 0.8660254037844397068, 0.000000000000000000, -0.4999999999999981681 ) ) ;
#10 = DIRECTION ( 'NONE',  ( 0.000000000000000000, 0.000000000000000000, 1.000000000000000000 ) ) ;
#11 = ORIENTED_EDGE ( 'NONE', *, *, #73, .T. ) ;
#12 = EDGE_CURVE ( 'NONE', #773, #797, #817, .T. ) ;
#13 = CARTESIAN_POINT ( 'NONE',  ( 21.74082149473277425, 17.72949404329616385, 51.17559349054430839 ) ) ;
#14 = CARTESIAN_POINT ( 'NONE',  ( 5.524398865882597320, 44.56484627967579826, 54.72231052975759269 ) ) ;
#15 = AXIS2_PLACEMENT_3D ( 'NONE', #658, #71, #510 ) ;
#16 = AXIS2_PLACEMENT_3D ( 'NONE', #571, #359, #161 ) ;
#17 = CIRCLE ( 'NONE', #498, 1.199999999999992628 ) ;
#18 = DIRECTION ( 'NONE',  ( 0.000000000000000000, 1.000000000000000000, -0.000000000000000000 ) ) ;
#19 = ORIENTED_EDGE ( 'NONE', *, *, #338, .T. ) ;
#20 = DIRECTION ( 'NONE',  ( 0.4999999999999995004, 0.000000000000000000, -0.8660254037844390407 ) ) ;
#21 = CARTESIAN_POINT ( 'NONE',  ( 5.065623011258550079, 43.97197831746775876, 54.76638843452389693 ) ) ;
#22 = DIRECTION ( 'NONE',  ( 1.000000000000000000, 0.000000000000000000, -1.084202172485505050E-16 ) ) ;
#23 = VERTEX_POINT ( 'NONE', #771 ) ;
#24 = CARTESIAN_POINT ( 'NONE',  ( -3.498227857143596520, 43.00000000000000000, 54.88863636363635834 ) ) ;
#25 = EDGE_CURVE ( 'NONE', #204, #706, #421, .T. ) ;
#26 = CARTESIAN_POINT ( 'NONE',  ( 44.16729559300642904, 50.00000000000000000, -25.49999999999990408 ) ) ;
#27 = VERTEX_POINT ( 'NONE', #626 ) ;
#28 = CARTESIAN_POINT ( 'NONE',  ( -5.074843491758443292, 43.95973798601061588, 54.76583237287346151 ) ) ;
#29 = DIRECTION ( 'NONE',  ( -0.000000000000000000, -1.000000000000000000, 0.000000000000000000 ) ) ;
#30 = AXIS2_PLACEMENT_3D ( 'NONE', #375, #20, #573 ) ;
#31 = DIRECTION ( 'NONE',  ( -0.000000000000000000, -1.000000000000000000, 0.000000000000000000 ) ) ;
#32 = CONICAL_SURFACE ( 'NONE', #96, 2.199999999999993516, 0.7853981633974472798 ) ;
#33 = LINE ( 'NONE', #315, #331 ) ;
#34 = CARTESIAN_POINT ( 'NONE',  ( 3.852535513714460791, 43.12158569568009625, 54.86516461770990105 ) ) ;
#35 = CARTESIAN_POINT ( 'NONE',  ( -14.06099240286109442, 9.594876380610642741, 59.88470196678279933 ) ) ;
#36 = DIRECTION ( 'NONE',  ( -0.000000000000000000, -1.000000000000000000, -0.000000000000000000 ) ) ;
#37 = CARTESIAN_POINT ( 'NONE',  ( -13.48999503560789393, 9.037547987125181592, 60.90461664880119486 ) ) ;
#38 = CARTESIAN_POINT ( 'NONE',  ( -5.753835732110636592, 45.07111980019491426, 54.69823467454448718 ) ) ;
#39 = EDGE_CURVE ( 'NONE', #341, #46, #135, .T. ) ;
#40 = ORIENTED_EDGE ( 'NONE', *, *, #542, .F. ) ;
#41 = ORIENTED_EDGE ( 'NONE', *, *, #628, .F. ) ;
#42 = DIRECTION ( 'NONE',  ( -1.000000000000000000, 0.000000000000000000, 0.000000000000000000 ) ) ;
#43 = CARTESIAN_POINT ( 'NONE',  ( -9.999999999999998224, 0.000000000000000000, 74.99999999999998579 ) ) ;
#44 = CIRCLE ( 'NONE', #495, 30.00000000000000000 ) ;
#45 = TOROIDAL_SURFACE ( 'NONE', #81, 69.99999999999998579, 15.00000000000000000 ) ;
#46 = VERTEX_POINT ( 'NONE', #168 ) ;
#47 = LINE ( 'NONE', #142, #466 ) ;
#48 = EDGE_CURVE ( 'NONE', #83, #665, #591, .T. ) ;
#49 = ORIENTED_EDGE ( 'NONE', *, *, #748, .F. ) ;
#50 = ORIENTED_EDGE ( 'NONE', *, *, #505, .F. ) ;
#51 = EDGE_CURVE ( 'NONE', #587, #776, #438, .T. ) ;
#52 = CARTESIAN_POINT ( 'NONE',  ( 0.000000000000000000, 6.999999999999999112, 0.000000000000000000 ) ) ;
#53 = LINE ( 'NONE', #408, #730 ) ;
#54 = ORIENTED_EDGE ( 'NONE', *, *, #617, .F. ) ;
#55 = DIRECTION ( 'NONE',  ( 0.000000000000000000, 0.000000000000000000, 1.000000000000000000 ) ) ;
#56 = ORIENTED_EDGE ( 'NONE', *, *, #200, .F. ) ;
#57 = DIRECTION ( 'NONE',  ( 8.881784197001252323E-16, 0.000000000000000000, 1.000000000000000000 ) ) ;
#58 = VERTEX_POINT ( 'NONE', #160 ) ;
#59 = AXIS2_PLACEMENT_3D ( 'NONE', #478, #545, #833 ) ;
#60 =( GEOMETRIC_REPRESENTATION_CONTEXT ( 3 ) GLOBAL_UNCERTAINTY_ASSIGNED_CONTEXT ( ( #877 ) ) GLOBAL_UNIT_ASSIGNED_CONTEXT ( ( #719, #714, #618 ) ) REPRESENTATION_CONTEXT ( 'NONE', 'WORKASPACE' ) );
#61 = SURFACE_SIDE_STYLE ('',( #772 ) ) ;
#62 = VERTEX_POINT ( 'NONE', #92 ) ;
#63 = DIRECTION ( 'NONE',  ( 0.000000000000000000, 0.000000000000000000, -1.000000000000000000 ) ) ;
#64 = DIRECTION ( 'NONE',  ( -1.084202172485505050E-16, 0.000000000000000000, 1.000000000000000000 ) ) ;
#65 = ADVANCED_FACE ( 'NONE', ( #435, #366 ), #870, .F. ) ;
#66 = VERTEX_POINT ( 'NONE', #520 ) ;
#67 = DIRECTION ( 'NONE',  ( 1.000000000000000000, -0.000000000000000000, -1.224646799147353207E-16 ) ) ;
#68 = VERTEX_POINT ( 'NONE', #236 ) ;
#69 = DIRECTION ( 'NONE',  ( -0.000000000000000000, -1.000000000000000000, -0.000000000000000000 ) ) ;
#70 = DIRECTION ( 'NONE',  ( -1.000000000000000000, 0.000000000000000000, -1.084202172485505050E-16 ) ) ;
#71 = DIRECTION ( 'NONE',  ( -0.000000000000000000, -1.000000000000000000, 0.000000000000000000 ) ) ;
#72 = PRODUCT_DEFINITION ( 'NON CONOSCIUTO', '', #843, #592 ) ;
#73 = EDGE_CURVE ( 'NONE', #27, #776, #450, .T. ) ;
#74 = ORIENTED_EDGE ( 'NONE', *, *, #131, .T. ) ;
#75 = DIRECTION ( 'NONE',  ( -0.000000000000000000, -1.000000000000000000, 0.000000000000000000 ) ) ;
#76 = ORIENTED_EDGE ( 'NONE', *, *, #748, .T. ) ;
#77 = CARTESIAN_POINT ( 'NONE',  ( 22.54021924050960379, 18.57585284058643538, 50.58432148243999649 ) ) ;
#78 = AXIS2_PLACEMENT_3D ( 'NONE', #124, #412, #718 ) ;
#79 = ORIENTED_EDGE ( 'NONE', *, *, #633, .F. ) ;
#80 = AXIS2_PLACEMENT_3D ( 'NONE', #709, #401, #765 ) ;
#81 = AXIS2_PLACEMENT_3D ( 'NONE', #561, #203, #196 ) ;
#82 = CARTESIAN_POINT ( 'NONE',  ( 9.999999999999998224, 7.000000000000000000, 86.08326913195982399 ) ) ;
#83 = VERTEX_POINT ( 'NONE', #666 ) ;
#84 = CARTESIAN_POINT ( 'NONE',  ( 13.48997842320576446, 9.037532227023129749, 60.90464827657312696 ) ) ;
#85 = PRODUCT_DEFINITION_SHAPE ( 'NONE', 'NONE',  #72 ) ;
#86 = ADVANCED_FACE ( 'NONE', ( #583 ), #515, .T. ) ;
#87 = CARTESIAN_POINT ( 'NONE',  ( -5.000000000000005329, 7.000000000000000000, 86.08326913195982399 ) ) ;
#88 = ORIENTED_EDGE ( 'NONE', *, *, #237, .F. ) ;
#89 = DIRECTION ( 'NONE',  ( 1.084202172485504927E-16, 0.000000000000000000, -1.000000000000000000 ) ) ;
#90 = CARTESIAN_POINT ( 'NONE',  ( 0.000000000000000000, 43.00000000000000000, 54.99999999999999289 ) ) ;
#91 = ORIENTED_EDGE ( 'NONE', *, *, #494, .T. ) ;
#92 = CARTESIAN_POINT ( 'NONE',  ( -5.878304635907306044E-16, 7.000000000000001776, 79.80000000000001137 ) ) ;
#93 = CARTESIAN_POINT ( 'NONE',  ( -5.991067731380085526, 50.00000000000000000, 54.67272727272727195 ) ) ;
#94 = AXIS2_PLACEMENT_3D ( 'NONE', #604, #536, #745 ) ;
#95 = VECTOR ( 'NONE', #324, 1000.000000000000000 ) ;
#96 = AXIS2_PLACEMENT_3D ( 'NONE', #928, #563, #276 ) ;
#97 = CARTESIAN_POINT ( 'NONE',  ( -24.18385951237944198, 20.28205599817437133, 49.50314585639556242 ) ) ;
#98 = EDGE_LOOP ( 'NONE', ( #146, #837, #128, #577 ) ) ;
#99 = CARTESIAN_POINT ( 'NONE',  ( -8.572527594031484037E-16, 7.000000000000001776, 82.00000000000000000 ) ) ;
#100 = EDGE_CURVE ( 'NONE', #353, #434, #106, .T. ) ;
#101 = CARTESIAN_POINT ( 'NONE',  ( -10.56641786858247123, 6.999999999999999112, 69.19791047008934015 ) ) ;
#102 = CARTESIAN_POINT ( 'NONE',  ( 0.000000000000000000, 0.000000000000000000, 0.000000000000000000 ) ) ;
#103 = CARTESIAN_POINT ( 'NONE',  ( 0.000000000000000000, 43.00000000000000000, 54.99999999999999289 ) ) ;
#104 = CARTESIAN_POINT ( 'NONE',  ( 9.999999999999998224, 0.000000000000000000, 86.08326913195982399 ) ) ;
#105 = CARTESIAN_POINT ( 'NONE',  ( -9.999999999999998224, 7.000000000000000000, 86.08326913195982399 ) ) ;
#106 = CIRCLE ( 'NONE', #153, 3.499999999999947597 ) ;
#107 = DIRECTION ( 'NONE',  ( 0.000000000000000000, 0.000000000000000000, -1.000000000000000000 ) ) ;
#108 = CIRCLE ( 'NONE', #829, 5.000000000000004441 ) ;
#109 = VECTOR ( 'NONE', #360, 1000.000000000000000 ) ;
#110 = CARTESIAN_POINT ( 'NONE',  ( 0.000000000000000000, 50.00000000000000000, 0.000000000000000000 ) ) ;
#111 = CARTESIAN_POINT ( 'NONE',  ( -21.74088601883615368, 17.72956256416901155, 51.17554387822886497 ) ) ;
#112 = EDGE_CURVE ( 'NONE', #509, #920, #538, .T. ) ;
#113 = DIRECTION ( 'NONE',  ( 0.000000000000000000, 0.000000000000000000, 1.000000000000000000 ) ) ;
#114 = VERTEX_POINT ( 'NONE', #800 ) ;
#115 = ORIENTED_EDGE ( 'NONE', *, *, #710, .F. ) ;
#116 = CARTESIAN_POINT ( 'NONE',  ( -8.572527594031484037E-16, 7.000000000000000000, 83.20000000000000284 ) ) ;
#117 = LINE ( 'NONE', #497, #608 ) ;
#118 = CIRCLE ( 'NONE', #348, 54.99999999999999289 ) ;
#119 = EDGE_LOOP ( 'NONE', ( #888, #880, #284, #856 ) ) ;
#120 = AXIS2_PLACEMENT_3D ( 'NONE', #266, #191, #208 ) ;
#121 = EDGE_CURVE ( 'NONE', #569, #269, #801, .T. ) ;
#122 = EDGE_LOOP ( 'NONE', ( #356, #291, #813, #151, #255, #755, #418, #8, #325 ) ) ;
#123 = CARTESIAN_POINT ( 'NONE',  ( -7.102951435054669359E-16, 0.000000000000000000, 80.80000000000001137 ) ) ;
#124 = CARTESIAN_POINT ( 'NONE',  ( 0.000000000000000000, 46.35410196624970780, 54.99999999999999289 ) ) ;
#125 = B_SPLINE_CURVE_WITH_KNOTS ( 'NONE', 3,
 ( #24, #328, #889, #469, #28, #317, #823, #392, #38, #323, #173, #619, #260, #528 ),
 .UNSPECIFIED., .F., .F.,
 ( 4, 2, 2, 2, 2, 2, 4 ),
 ( 0.000000000000000000, 0.001115179548188528855, 0.002230359096377057711, 0.002787948870471313248, 0.003345538644565569653, 0.003903128418659825190, 0.004460718192754081594 ),
 .UNSPECIFIED. ) ;
#126 = CYLINDRICAL_SURFACE ( 'NONE', #555, 1.199999999999992628 ) ;
#127 =( NAMED_UNIT ( * ) SI_UNIT ( $, .STERADIAN. ) SOLID_ANGLE_UNIT ( ) );
#128 = ORIENTED_EDGE ( 'NONE', *, *, #305, .T. ) ;
#129 = SURFACE_STYLE_USAGE ( .BOTH. , #61 ) ;
#130 = VERTEX_POINT ( 'NONE', #6 ) ;
#131 = EDGE_CURVE ( 'NONE', #374, #114, #152, .T. ) ;
#132 = FACE_OUTER_BOUND ( 'NONE', #934, .T. ) ;
#133 = CARTESIAN_POINT ( 'NONE',  ( 9.999999999999998224, 0.000000000000000000, 74.99999999999998579 ) ) ;
#134 = EDGE_CURVE ( 'NONE', #567, #526, #731, .T. ) ;
#135 = CIRCLE ( 'NONE', #840, 1.199999999999992628 ) ;
#136 = ORIENTED_EDGE ( 'NONE', *, *, #349, .F. ) ;
#137 = AXIS2_PLACEMENT_3D ( 'NONE', #293, #448, #145 ) ;
#138 = CARTESIAN_POINT ( 'NONE',  ( 0.000000000000000000, 46.35410196624970780, 60.99999999999999289 ) ) ;
#139 = ORIENTED_EDGE ( 'NONE', *, *, #167, .T. ) ;
#140 = CARTESIAN_POINT ( 'NONE',  ( 0.000000000000000000, 50.00000000000000000, 0.000000000000000000 ) ) ;
#141 = ADVANCED_FACE ( 'NONE', ( #678 ), #599, .T. ) ;
#142 = CARTESIAN_POINT ( 'NONE',  ( 0.000000000000000000, 43.00000000000000000, 60.99999999999999289 ) ) ;
#143 = DIRECTION ( 'NONE',  ( 0.000000000000000000, 1.000000000000000000, 0.000000000000000000 ) ) ;
#144 = ORIENTED_EDGE ( 'NONE', *, *, #352, .F. ) ;
#145 = DIRECTION ( 'NONE',  ( 0.000000000000000000, -0.000000000000000000, 1.000000000000000000 ) ) ;
#146 = ORIENTED_EDGE ( 'NONE', *, *, #281, .F. ) ;
#147 = CARTESIAN_POINT ( 'NONE',  ( 17.29507802874445943, 12.95870844253072818, 55.36193802060020630 ) ) ;
#148 = FILL_AREA_STYLE_COLOUR ( '', #541 ) ;
#149 = ORIENTED_EDGE ( 'NONE', *, *, #447, .T. ) ;
#150 = FACE_OUTER_BOUND ( 'NONE', #850, .T. ) ;
#151 = ORIENTED_EDGE ( 'NONE', *, *, #190, .T. ) ;
#152 = LINE ( 'NONE', #441, #756 ) ;
#153 = AXIS2_PLACEMENT_3D ( 'NONE', #231, #595, #240 ) ;
#154 = VECTOR ( 'NONE', #774, 1000.000000000000000 ) ;
#155 = CYLINDRICAL_SURFACE ( 'NONE', #556, 3.499999999999947597 ) ;
#156 = ADVANCED_FACE ( 'NONE', ( #396 ), #187, .T. ) ;
#157 = VECTOR ( 'NONE', #762, 1000.000000000000000 ) ;
#158 = CARTESIAN_POINT ( 'NONE',  ( -9.999999999999998224, 0.000000000000000000, 86.08326913195982399 ) ) ;
#159 = ORIENTED_EDGE ( 'NONE', *, *, #936, .T. ) ;
#160 = CARTESIAN_POINT ( 'NONE',  ( -3.498227857143596520, 50.00000000000000000, 54.88863636363635834 ) ) ;
#161 = DIRECTION ( 'NONE',  ( 0.000000000000000000, 0.000000000000000000, -1.000000000000000000 ) ) ;
#162 = ORIENTED_EDGE ( 'NONE', *, *, #121, .T. ) ;
#163 = CARTESIAN_POINT ( 'NONE',  ( 12.45401717393277252, 8.107221074000619865, 63.09985584141783477 ) ) ;
#164 = CARTESIAN_POINT ( 'NONE',  ( 4.799576591920780011, 43.71299135944176584, 54.79034498149861321 ) ) ;
#165 = CARTESIAN_POINT ( 'NONE',  ( 0.000000000000000000, 46.35410196624970780, 54.99999999999999289 ) ) ;
#166 = VERTEX_POINT ( 'NONE', #752 ) ;
#167 = EDGE_CURVE ( 'NONE', #27, #507, #180, .T. ) ;
#168 = CARTESIAN_POINT ( 'NONE',  ( -8.572527594031484037E-16, 0.000000000000000000, 83.20000000000000284 ) ) ;
#169 = CIRCLE ( 'NONE', #246, 3.499999999999947597 ) ;
#170 = TOROIDAL_SURFACE ( 'NONE', #405, 69.99999999999998579, 15.00000000000000000 ) ;
#171 = CIRCLE ( 'NONE', #368, 3.500000000000003109 ) ;
#172 = LINE ( 'NONE', #532, #636 ) ;
#173 = CARTESIAN_POINT ( 'NONE',  ( -5.916512235288287513, 45.61010944968932534, 54.68085385350028105 ) ) ;
#174 = EDGE_CURVE ( 'NONE', #7, #630, #257, .T. ) ;
#175 = DIRECTION ( 'NONE',  ( 0.000000000000000000, 0.000000000000000000, -1.000000000000000000 ) ) ;
#176 = CARTESIAN_POINT ( 'NONE',  ( -5.991067731380085526, 46.35410196624970780, 54.67272727272727195 ) ) ;
#177 = DIRECTION ( 'NONE',  ( -0.000000000000000000, -1.000000000000000000, -0.000000000000000000 ) ) ;
#178 = DIRECTION ( 'NONE',  ( -0.000000000000000000, -1.000000000000000000, -0.000000000000000000 ) ) ;
#179 = EDGE_CURVE ( 'NONE', #712, #501, #381, .T. ) ;
#180 = CIRCLE ( 'NONE', #664, 5.000000000000004441 ) ;
#181 = CARTESIAN_POINT ( 'NONE',  ( 10.56641786858247123, 6.999999999999999112, 69.19791047008934015 ) ) ;
#182 = CIRCLE ( 'NONE', #59, 5.999999999999998224 ) ;
#183 = AXIS2_PLACEMENT_3D ( 'NONE', #355, #489, #852 ) ;
#184 = DIRECTION ( 'NONE',  ( 0.000000000000000000, 0.7071067811865483499, 0.7071067811865467956 ) ) ;
#185 = ADVANCED_BREP_SHAPE_REPRESENTATION ( 'ELP-0034', ( #713, #120 ), #350 ) ;
#186 = LINE ( 'NONE', #820, #157 ) ;
#187 = CYLINDRICAL_SURFACE ( 'NONE', #586, 5.000000000000004441 ) ;
#188 = ORIENTED_EDGE ( 'NONE', *, *, #830, .F. ) ;
#189 = CARTESIAN_POINT ( 'NONE',  ( 44.16729559300642904, 0.000000000000000000, -25.49999999999989342 ) ) ;
#190 = EDGE_CURVE ( 'NONE', #634, #873, #493, .T. ) ;
#191 = DIRECTION ( 'NONE',  ( 0.000000000000000000, 0.000000000000000000, 1.000000000000000000 ) ) ;
#192 = VERTEX_POINT ( 'NONE', #533 ) ;
#193 = ORIENTED_EDGE ( 'NONE', *, *, #906, .T. ) ;
#194 = AXIS2_PLACEMENT_3D ( 'NONE', #506, #796, #941 ) ;
#195 = LINE ( 'NONE', #207, #154 ) ;
#196 = DIRECTION ( 'NONE',  ( 0.000000000000000000, 0.000000000000000000, 1.000000000000000000 ) ) ;
#197 = CIRCLE ( 'NONE', #306, 5.000000000000004441 ) ;
#198 = ORIENTED_EDGE ( 'NONE', *, *, #338, .F. ) ;
#199 = CIRCLE ( 'NONE', #247, 5.999999999999998224 ) ;
#200 = EDGE_CURVE ( 'NONE', #23, #547, #742, .T. ) ;
#201 = FACE_OUTER_BOUND ( 'NONE', #487, .T. ) ;
#202 = DIRECTION ( 'NONE',  ( 0.000000000000000000, 0.000000000000000000, -1.000000000000000000 ) ) ;
#203 = DIRECTION ( 'NONE',  ( 0.000000000000000000, 1.000000000000000000, -0.000000000000000000 ) ) ;
#204 = VERTEX_POINT ( 'NONE', #176 ) ;
#205 = FACE_OUTER_BOUND ( 'NONE', #122, .T. ) ;
#206 = EDGE_LOOP ( 'NONE', ( #115, #734, #696, #1 ) ) ;
#207 = CARTESIAN_POINT ( 'NONE',  ( -9.999999999999998224, 0.000000000000000000, 74.99999999999998579 ) ) ;
#208 = DIRECTION ( 'NONE',  ( 1.000000000000000000, 0.000000000000000000, 0.000000000000000000 ) ) ;
#209 = ORIENTED_EDGE ( 'NONE', *, *, #253, .T. ) ;
#210 = PLANE ( 'NONE',  #194 ) ;
#211 = ORIENTED_EDGE ( 'NONE', *, *, #121, .F. ) ;
#212 = EDGE_CURVE ( 'NONE', #575, #27, #33, .T. ) ;
#213 = DIRECTION ( 'NONE',  ( 0.000000000000000000, 1.000000000000000000, 0.000000000000000000 ) ) ;
#214 = VECTOR ( 'NONE', #361, 1000.000000000000000 ) ;
#215 = ORIENTED_EDGE ( 'NONE', *, *, #883, .T. ) ;
#216 = AXIS2_PLACEMENT_3D ( 'NONE', #825, #254, #107 ) ;
#217 = AXIS2_PLACEMENT_3D ( 'NONE', #486, #671, #600 ) ;
#218 = LINE ( 'NONE', #865, #233 ) ;
#219 = ORIENTED_EDGE ( 'NONE', *, *, #25, .T. ) ;
#220 = CARTESIAN_POINT ( 'NONE',  ( 0.000000000000000000, 22.00000000000000000, 54.99999999999999289 ) ) ;
#221 = DIRECTION ( 'NONE',  ( 0.000000000000000000, 1.000000000000000000, 0.000000000000000000 ) ) ;
#222 = CARTESIAN_POINT ( 'NONE',  ( 0.000000000000000000, 22.00000000000000000, 0.000000000000000000 ) ) ;
#223 = ORIENTED_EDGE ( 'NONE', *, *, #131, .F. ) ;
#224 = FACE_OUTER_BOUND ( 'NONE', #871, .T. ) ;
#225 = ORIENTED_EDGE ( 'NONE', *, *, #780, .F. ) ;
#226 = ADVANCED_FACE ( 'NONE', ( #908 ), #826, .T. ) ;
#227 = DIRECTION ( 'NONE',  ( 0.000000000000000000, 1.000000000000000000, 0.000000000000000000 ) ) ;
#228 = ORIENTED_EDGE ( 'NONE', *, *, #936, .F. ) ;
#229 = CARTESIAN_POINT ( 'NONE',  ( 44.16729559300642904, 50.00000000000000000, -25.49999999999989342 ) ) ;
#230 = VERTEX_POINT ( 'NONE', #105 ) ;
#231 = CARTESIAN_POINT ( 'NONE',  ( 0.000000000000000000, 43.00000000000000000, 54.99999999999999289 ) ) ;
#232 = AXIS2_PLACEMENT_3D ( 'NONE', #423, #917, #770 ) ;
#233 = VECTOR ( 'NONE', #553, 999.9999999999998863 ) ;
#234 = FACE_OUTER_BOUND ( 'NONE', #639, .T. ) ;
#235 = ORIENTED_EDGE ( 'NONE', *, *, #399, .F. ) ;
#236 = CARTESIAN_POINT ( 'NONE',  ( 5.000000000000005329, 7.000000000000000000, 91.08326913195983821 ) ) ;
#237 = EDGE_CURVE ( 'NONE', #439, #669, #831, .T. ) ;
#238 = CARTESIAN_POINT ( 'NONE',  ( -17.99649713485381497, 13.71278635739170682, 54.58178568199701175 ) ) ;
#239 = ORIENTED_EDGE ( 'NONE', *, *, #12, .F. ) ;
#240 = DIRECTION ( 'NONE',  ( 0.000000000000000000, 0.000000000000000000, 1.000000000000000000 ) ) ;
#241 = CARTESIAN_POINT ( 'NONE',  ( -23.76907848142450419, 19.85423443335520588, 49.76511315782180844 ) ) ;
#242 = ORIENTED_EDGE ( 'NONE', *, *, #51, .F. ) ;
#243 = DIRECTION ( 'NONE',  ( 0.000000000000000000, 0.000000000000000000, -1.000000000000000000 ) ) ;
#244 = CARTESIAN_POINT ( 'NONE',  ( 0.000000000000000000, 43.00000000000000000, 54.99999999999999289 ) ) ;
#245 = CLOSED_SHELL ( 'NONE', ( #390, #467, #862, #667, #311, #516, #646, #86, #141, #300, #540, #65, #156, #415, #226, #912, #603, #682, #429, #764, #527, #582, #875, #794, #918, #596 ) ) ;
#246 = AXIS2_PLACEMENT_3D ( 'NONE', #461, #757, #411 ) ;
#247 = AXIS2_PLACEMENT_3D ( 'NONE', #290, #425, #268 ) ;
#248 = CARTESIAN_POINT ( 'NONE',  ( -15.94763292336649485, 11.53101598373405601, 57.06132706800147503 ) ) ;
#249 = DIRECTION ( 'NONE',  ( 0.000000000000000000, 0.000000000000000000, -1.000000000000000000 ) ) ;
#250 = FACE_OUTER_BOUND ( 'NONE', #654, .T. ) ;
#251 = DIRECTION ( 'NONE',  ( 0.8660254037844397068, 0.000000000000000000, -0.4999999999999981681 ) ) ;
#252 = DIRECTION ( 'NONE',  ( -0.000000000000000000, -1.000000000000000000, 0.000000000000000000 ) ) ;
#253 = EDGE_CURVE ( 'NONE', #657, #204, #125, .T. ) ;
#254 = DIRECTION ( 'NONE',  ( -0.000000000000000000, -1.000000000000000000, -0.000000000000000000 ) ) ;
#255 = ORIENTED_EDGE ( 'NONE', *, *, #459, .T. ) ;
#256 = DIRECTION ( 'NONE',  ( 0.000000000000000000, 1.000000000000000000, 0.000000000000000000 ) ) ;
#257 = CIRCLE ( 'NONE', #784, 54.99999999999999289 ) ;
#258 = AXIS2_PLACEMENT_3D ( 'NONE', #921, #694, #63 ) ;
#259 = CIRCLE ( 'NONE', #680, 69.99999999999998579 ) ;
#260 = CARTESIAN_POINT ( 'NONE',  ( -5.991067731380064210, 46.16556096055359859, 54.67272727272725774 ) ) ;
#261 = EDGE_CURVE ( 'NONE', #669, #62, #475, .T. ) ;
#262 = CARTESIAN_POINT ( 'NONE',  ( -47.63139720814419320, 50.00000000000000000, -27.49999999999988276 ) ) ;
#263 = ORIENTED_EDGE ( 'NONE', *, *, #691, .T. ) ;
#264 = VERTEX_POINT ( 'NONE', #674 ) ;
#265 = DIRECTION ( 'NONE',  ( 0.8660254037844389297, 0.000000000000000000, 0.4999999999999994449 ) ) ;
#266 = CARTESIAN_POINT ( 'NONE',  ( 0.000000000000000000, 0.000000000000000000, 0.000000000000000000 ) ) ;
#267 = CARTESIAN_POINT ( 'NONE',  ( -47.63139720814417899, 0.000000000000000000, -27.49999999999989342 ) ) ;
#268 = DIRECTION ( 'NONE',  ( 0.000000000000000000, 0.000000000000000000, 1.000000000000000000 ) ) ;
#269 = VERTEX_POINT ( 'NONE', #897 ) ;
#270 = CIRCLE ( 'NONE', #552, 1.199999999999992628 ) ;
#271 = AXIS2_PLACEMENT_3D ( 'NONE', #530, #177, #609 ) ;
#272 = CARTESIAN_POINT ( 'NONE',  ( 0.000000000000000000, 22.00000000000000000, 69.99999999999998579 ) ) ;
#273 = DIRECTION ( 'NONE',  ( 0.000000000000000000, 1.000000000000000000, 0.000000000000000000 ) ) ;
#274 = CIRCLE ( 'NONE', #217, 54.99999999999999289 ) ;
#275 = ORIENTED_EDGE ( 'NONE', *, *, #753, .F. ) ;
#276 = DIRECTION ( 'NONE',  ( 0.000000000000000000, 0.000000000000000000, 1.000000000000000000 ) ) ;
#277 = EDGE_LOOP ( 'NONE', ( #702, #235, #342, #345 ) ) ;
#278 = PLANE ( 'NONE',  #910 ) ;
#279 = DIRECTION ( 'NONE',  ( 1.000000000000000000, -0.000000000000000000, 0.000000000000000000 ) ) ;
#280 = ORIENTED_EDGE ( 'NONE', *, *, #134, .F. ) ;
#281 = EDGE_CURVE ( 'NONE', #7, #452, #385, .T. ) ;
#282 = PRESENTATION_STYLE_ASSIGNMENT (( #129 ) ) ;
#283 = CARTESIAN_POINT ( 'NONE',  ( 3.498227857143596520, 43.00000000000000000, 54.88863636363635834 ) ) ;
#284 = ORIENTED_EDGE ( 'NONE', *, *, #312, .T. ) ;
#285 = CARTESIAN_POINT ( 'NONE',  ( 9.999999999999998224, 6.999999999999999112, 74.99999999999998579 ) ) ;
#286 = ORIENTED_EDGE ( 'NONE', *, *, #25, .F. ) ;
#287 = DIRECTION ( 'NONE',  ( 0.000000000000000000, 1.000000000000000000, 0.000000000000000000 ) ) ;
#288 = CARTESIAN_POINT ( 'NONE',  ( 14.06097238397973470, 9.594856655973048376, 59.88473664297612231 ) ) ;
#289 = VECTOR ( 'NONE', #549, 1000.000000000000000 ) ;
#290 = CARTESIAN_POINT ( 'NONE',  ( 0.000000000000000000, 50.00000000000000000, 54.99999999999999289 ) ) ;
#291 = ORIENTED_EDGE ( 'NONE', *, *, #362, .T. ) ;
#292 = EDGE_CURVE ( 'NONE', #657, #353, #169, .T. ) ;
#293 = CARTESIAN_POINT ( 'NONE',  ( 0.000000000000000000, 50.00000000000000000, 0.000000000000000000 ) ) ;
#294 = ORIENTED_EDGE ( 'NONE', *, *, #352, .T. ) ;
#295 = CARTESIAN_POINT ( 'NONE',  ( 40.00000000000000000, 0.000000000000000000, 74.99999999999998579 ) ) ;
#296 = ORIENTED_EDGE ( 'NONE', *, *, #710, .T. ) ;
#297 = DIRECTION ( 'NONE',  ( 1.084202172485504927E-16, 0.000000000000000000, -1.000000000000000000 ) ) ;
#298 = EDGE_LOOP ( 'NONE', ( #223, #79, #562, #384 ) ) ;
#299 = CARTESIAN_POINT ( 'NONE',  ( 25.01961668272578265, 21.14049431123428135, 48.98953776921290881 ) ) ;
#300 = ADVANCED_FACE ( 'NONE', ( #416 ), #471, .F. ) ;
#301 = DIRECTION ( 'NONE',  ( -0.000000000000000000, -1.000000000000000000, -0.000000000000000000 ) ) ;
#302 = CARTESIAN_POINT ( 'NONE',  ( -40.00000000000000000, 0.000000000000000000, 74.99999999999998579 ) ) ;
#303 = ORIENTED_EDGE ( 'NONE', *, *, #505, .T. ) ;
#304 = DIRECTION ( 'NONE',  ( 0.000000000000000000, 1.000000000000000000, 0.000000000000000000 ) ) ;
#305 = EDGE_CURVE ( 'NONE', #773, #712, #624, .T. ) ;
#306 = AXIS2_PLACEMENT_3D ( 'NONE', #705, #789, #923 ) ;
#307 = LINE ( 'NONE', #503, #455 ) ;
#308 = ORIENTED_EDGE ( 'NONE', *, *, #167, .F. ) ;
#309 = CARTESIAN_POINT ( 'NONE',  ( 0.000000000000000000, 50.00000000000000000, 54.99999999999999289 ) ) ;
#310 = FACE_OUTER_BOUND ( 'NONE', #119, .T. ) ;
#311 = ADVANCED_FACE ( 'NONE', ( #781 ), #539, .F. ) ;
#312 = EDGE_CURVE ( 'NONE', #657, #58, #763, .T. ) ;
#313 = CARTESIAN_POINT ( 'NONE',  ( -10.56641786858247123, 6.999999999999999112, 69.19791047008934015 ) ) ;
#314 = EDGE_LOOP ( 'NONE', ( #91, #901, #40 ) ) ;
#315 = CARTESIAN_POINT ( 'NONE',  ( -5.000000000000005329, 7.000000000000000000, 91.08326913195983821 ) ) ;
#316 = CARTESIAN_POINT ( 'NONE',  ( 40.00000000000000000, 6.999999999999999112, 74.99999999999998579 ) ) ;
#317 = CARTESIAN_POINT ( 'NONE',  ( -5.410132714012013899, 44.41038646929160194, 54.73338169715680124 ) ) ;
#318 = DIRECTION ( 'NONE',  ( 0.000000000000000000, 0.000000000000000000, 1.000000000000000000 ) ) ;
#319 = VECTOR ( 'NONE', #297, 1000.000000000000000 ) ;
#320 = PRESENTATION_LAYER_ASSIGNMENT (  '', '', ( #382 ) ) ;
#321 = CYLINDRICAL_SURFACE ( 'NONE', #216, 54.99999999999999289 ) ;
#322 = EDGE_CURVE ( 'NONE', #204, #797, #698, .T. ) ;
#323 = CARTESIAN_POINT ( 'NONE',  ( -5.871530710382723228, 45.42617409082114932, 54.68572601018191648 ) ) ;
#324 = DIRECTION ( 'NONE',  ( -0.000000000000000000, 1.000000000000000000, -0.000000000000000000 ) ) ;
#325 = ORIENTED_EDGE ( 'NONE', *, *, #134, .T. ) ;
#326 = DIRECTION ( 'NONE',  ( 0.000000000000000000, 1.000000000000000000, 0.000000000000000000 ) ) ;
#327 = CARTESIAN_POINT ( 'NONE',  ( -7.102951435054669359E-16, 7.000000000000000000, 80.80000000000001137 ) ) ;
#328 = CARTESIAN_POINT ( 'NONE',  ( -3.858871634823036967, 43.10768680201625358, 54.86565138544841602 ) ) ;
#329 = EDGE_CURVE ( 'NONE', #547, #130, #440, .T. ) ;
#330 = ORIENTED_EDGE ( 'NONE', *, *, #322, .T. ) ;
#331 = VECTOR ( 'NONE', #388, 1000.000000000000000 ) ;
#332 = AXIS2_PLACEMENT_3D ( 'NONE', #427, #593, #798 ) ;
#333 = AXIS2_PLACEMENT_3D ( 'NONE', #640, #346, #932 ) ;
#334 = DIRECTION ( 'NONE',  ( 0.000000000000000000, 1.000000000000000000, -0.000000000000000000 ) ) ;
#335 = FACE_OUTER_BOUND ( 'NONE', #779, .T. ) ;
#336 = EDGE_LOOP ( 'NONE', ( #149, #445, #280, #485 ) ) ;
#337 = EDGE_LOOP ( 'NONE', ( #54, #49, #697, #476 ) ) ;
#338 = EDGE_CURVE ( 'NONE', #547, #83, #118, .T. ) ;
#339 = CARTESIAN_POINT ( 'NONE',  ( -3.498227857143596520, 43.00000000000000000, 54.88863636363635834 ) ) ;
#340 = CARTESIAN_POINT ( 'NONE',  ( -25.88235294117647101, 50.00000000000000000, 48.52941176470587692 ) ) ;
#341 = VERTEX_POINT ( 'NONE', #123 ) ;
#342 = ORIENTED_EDGE ( 'NONE', *, *, #179, .T. ) ;
#343 = CARTESIAN_POINT ( 'NONE',  ( 0.000000000000000000, 43.00000000000000000, 58.49999999999994316 ) ) ;
#344 = CARTESIAN_POINT ( 'NONE',  ( -8.572527594031484037E-16, 7.000000000000001776, 82.00000000000000000 ) ) ;
#345 = ORIENTED_EDGE ( 'NONE', *, *, #633, .T. ) ;
#346 = DIRECTION ( 'NONE',  ( 0.000000000000000000, 1.000000000000000000, 0.000000000000000000 ) ) ;
#347 = ORIENTED_EDGE ( 'NONE', *, *, #725, .F. ) ;
#348 = AXIS2_PLACEMENT_3D ( 'NONE', #838, #334, #354 ) ;
#349 = EDGE_CURVE ( 'NONE', #873, #859, #195, .T. ) ;
#350 =( GEOMETRIC_REPRESENTATION_CONTEXT ( 3 ) GLOBAL_UNCERTAINTY_ASSIGNED_CONTEXT ( ( #376 ) ) GLOBAL_UNIT_ASSIGNED_CONTEXT ( ( #473, #782, #127 ) ) REPRESENTATION_CONTEXT ( 'NONE', 'WORKASPACE' ) );
#351 = ORIENTED_EDGE ( 'NONE', *, *, #780, .T. ) ;
#352 = EDGE_CURVE ( 'NONE', #706, #166, #182, .T. ) ;
#353 = VERTEX_POINT ( 'NONE', #343 ) ;
#354 = DIRECTION ( 'NONE',  ( 0.000000000000000000, 0.000000000000000000, 1.000000000000000000 ) ) ;
#355 = CARTESIAN_POINT ( 'NONE',  ( 0.000000000000000000, 43.00000000000000000, 54.99999999999999289 ) ) ;
#356 = ORIENTED_EDGE ( 'NONE', *, *, #616, .T. ) ;
#357 = DIRECTION ( 'NONE',  ( 0.000000000000000000, 1.000000000000000000, -0.000000000000000000 ) ) ;
#358 = ORIENTED_EDGE ( 'NONE', *, *, #811, .F. ) ;
#359 = DIRECTION ( 'NONE',  ( -0.000000000000000000, -1.000000000000000000, -0.000000000000000000 ) ) ;
#360 = DIRECTION ( 'NONE',  ( 0.000000000000000000, 1.000000000000000000, 0.000000000000000000 ) ) ;
#361 = DIRECTION ( 'NONE',  ( 1.000000000000000000, -0.000000000000000000, 0.000000000000000000 ) ) ;
#362 = EDGE_CURVE ( 'NONE', #665, #130, #367, .T. ) ;
#363 = ORIENTED_EDGE ( 'NONE', *, *, #51, .T. ) ;
#364 = DIRECTION ( 'NONE',  ( 0.000000000000000000, 0.000000000000000000, 1.000000000000000000 ) ) ;
#365 = ORIENTED_EDGE ( 'NONE', *, *, #738, .F. ) ;
#366 = FACE_OUTER_BOUND ( 'NONE', #432, .T. ) ;
#367 = CIRCLE ( 'NONE', #477, 69.99999999999998579 ) ;
#368 = AXIS2_PLACEMENT_3D ( 'NONE', #414, #67, #778 ) ;
#369 = ORIENTED_EDGE ( 'NONE', *, *, #481, .T. ) ;
#370 = LINE ( 'NONE', #444, #607 ) ;
#371 = ORIENTED_EDGE ( 'NONE', *, *, #824, .T. ) ;
#372 = CARTESIAN_POINT ( 'NONE',  ( 11.15450602410171577, 7.151379014987689686, 66.66037218599505820 ) ) ;
#373 = FACE_OUTER_BOUND ( 'NONE', #554, .T. ) ;
#374 = VERTEX_POINT ( 'NONE', #189 ) ;
#375 = CARTESIAN_POINT ( 'NONE',  ( -47.63139720814419320, 50.00000000000000000, -27.49999999999988276 ) ) ;
#376 = UNCERTAINTY_MEASURE_WITH_UNIT (LENGTH_MEASURE( 1.000000000000000082E-05 ), #473, 'distance_accuracy_value', 'NONE');
#377 = CARTESIAN_POINT ( 'NONE',  ( 25.88235294117647101, 0.000000000000000000, 48.52941176470587692 ) ) ;
#378 = ORIENTED_EDGE ( 'NONE', *, *, #481, .F. ) ;
#379 = EDGE_CURVE ( 'NONE', #46, #439, #472, .T. ) ;
#380 = DIRECTION ( 'NONE',  ( 0.000000000000000000, -0.000000000000000000, 1.000000000000000000 ) ) ;
#381 = CIRCLE ( 'NONE', #907, 51.00000000000000711 ) ;
#382 = STYLED_ITEM ( 'NONE', ( #282 ), #713 ) ;
#383 = CARTESIAN_POINT ( 'NONE',  ( -11.15450889005957968, 7.151380302483018703, 66.66036146230419490 ) ) ;
#384 = ORIENTED_EDGE ( 'NONE', *, *, #550, .T. ) ;
#385 = LINE ( 'NONE', #610, #570 ) ;
#386 = CARTESIAN_POINT ( 'NONE',  ( -19.44638502954759574, 15.27289106873917923, 53.12292236337783180 ) ) ;
#387 = ORIENTED_EDGE ( 'NONE', *, *, #916, .T. ) ;
#388 = DIRECTION ( 'NONE',  ( -0.000000000000000000, -1.000000000000000000, -0.000000000000000000 ) ) ;
#389 = DIRECTION ( 'NONE',  ( 0.000000000000000000, 0.000000000000000000, 1.000000000000000000 ) ) ;
#390 = ADVANCED_FACE ( 'NONE', ( #132 ), #818, .T. ) ;
#391 = CARTESIAN_POINT ( 'NONE',  ( -10.00000000000000711, 7.000000000000000000, 1.084202172485505815E-15 ) ) ;
#392 = CARTESIAN_POINT ( 'NONE',  ( -5.681449919180172614, 44.89997191616562588, 54.70583649927105796 ) ) ;
#393 = AXIS2_PLACEMENT_3D ( 'NONE', #140, #804, #364 ) ;
#394 = AXIS2_PLACEMENT_3D ( 'NONE', #629, #273, #717 ) ;
#395 = CARTESIAN_POINT ( 'NONE',  ( 5.000000000000005329, 7.000000000000000000, 91.08326913195983821 ) ) ;
#396 = FACE_OUTER_BOUND ( 'NONE', #847, .T. ) ;
#397 = CARTESIAN_POINT ( 'NONE',  ( -24.81438966726044981, 20.92537633584181478, 49.12612888243635467 ) ) ;
#398 = CARTESIAN_POINT ( 'NONE',  ( 0.000000000000000000, 22.00000000000000000, 0.000000000000000000 ) ) ;
#399 = EDGE_CURVE ( 'NONE', #712, #452, #631, .T. ) ;
#400 = ORIENTED_EDGE ( 'NONE', *, *, #312, .F. ) ;
#401 = DIRECTION ( 'NONE',  ( -0.000000000000000000, 1.000000000000000000, -0.000000000000000000 ) ) ;
#402 = CARTESIAN_POINT ( 'NONE',  ( 3.678548269554867911, 43.05384296015245127, 54.87714396863988497 ) ) ;
#403 = PRODUCT_RELATED_PRODUCT_CATEGORY ( 'part', '', ( #502 ) ) ;
#404 = ORIENTED_EDGE ( 'NONE', *, *, #903, .F. ) ;
#405 = AXIS2_PLACEMENT_3D ( 'NONE', #222, #844, #568 ) ;
#406 = AXIS2_PLACEMENT_3D ( 'NONE', #707, #357, #645 ) ;
#407 = DIRECTION ( 'NONE',  ( -0.000000000000000000, 1.000000000000000000, -0.000000000000000000 ) ) ;
#408 = CARTESIAN_POINT ( 'NONE',  ( 0.000000000000000000, 7.000000000000000000, 91.08326913195983821 ) ) ;
#409 = ORIENTED_EDGE ( 'NONE', *, *, #725, .T. ) ;
#410 = ORIENTED_EDGE ( 'NONE', *, *, #517, .F. ) ;
#411 = DIRECTION ( 'NONE',  ( 0.000000000000000000, 0.000000000000000000, 1.000000000000000000 ) ) ;
#412 = DIRECTION ( 'NONE',  ( 0.000000000000000000, 1.000000000000000000, -0.000000000000000000 ) ) ;
#413 = B_SPLINE_CURVE_WITH_KNOTS ( 'NONE', 3,
 ( #313, #751, #383, #457, #451, #741, #892, #37, #35, #676, #759, #248, #597, #822, #238, #386, #468, #111, #900, #241, #97, #397, #522, #460, #681, #525 ),
 .UNSPECIFIED., .F., .F.,
 ( 4, 2, 2, 2, 2, 2, 2, 2, 2, 2, 2, 2, 4 ),
 ( 0.000000000000000000, 0.003886758454958925274, 0.005830137682438387911, 0.007773516909917850548, 0.01166027536487679317, 0.01360365459235626448, 0.01554703381983573579, 0.01943379227479467494, 0.02332055072975361409, 0.02720730918471255325, 0.02915068841219202456, 0.03012237802593176195, 0.03109406763967149934 ),
 .UNSPECIFIED. ) ;
#414 = CARTESIAN_POINT ( 'NONE',  ( 3.061616997868383141E-16, 46.35410196624970780, 57.49999999999999289 ) ) ;
#415 = ADVANCED_FACE ( 'NONE', ( #846 ), #278, .F. ) ;
#416 = FACE_OUTER_BOUND ( 'NONE', #277, .T. ) ;
#417 = APPLICATION_PROTOCOL_DEFINITION ( 'draft international standard', 'automotive_design', 1998, #612 ) ;
#418 = ORIENTED_EDGE ( 'NONE', *, *, #922, .T. ) ;
#419 = DIRECTION ( 'NONE',  ( 0.000000000000000000, 1.000000000000000000, 0.000000000000000000 ) ) ;
#420 = ORIENTED_EDGE ( 'NONE', *, *, #48, .T. ) ;
#421 = CIRCLE ( 'NONE', #78, 5.999999999999998224 ) ;
#422 = CIRCLE ( 'NONE', #802, 30.00000000000000000 ) ;
#423 = CARTESIAN_POINT ( 'NONE',  ( 0.000000000000000000, 50.00000000000000000, 0.000000000000000000 ) ) ;
#424 = ORIENTED_EDGE ( 'NONE', *, *, #362, .F. ) ;
#425 = DIRECTION ( 'NONE',  ( 0.000000000000000000, 1.000000000000000000, -0.000000000000000000 ) ) ;
#426 = ORIENTED_EDGE ( 'NONE', *, *, #322, .F. ) ;
#427 = CARTESIAN_POINT ( 'NONE',  ( -8.572527594031484037E-16, 7.000000000000000000, 82.00000000000000000 ) ) ;
#428 = FACE_OUTER_BOUND ( 'NONE', #336, .T. ) ;
#429 = ADVANCED_FACE ( 'NONE', ( #483 ), #126, .F. ) ;
#430 = ORIENTED_EDGE ( 'NONE', *, *, #73, .F. ) ;
#431 = LINE ( 'NONE', #482, #727 ) ;
#432 = EDGE_LOOP ( 'NONE', ( #832, #387, #74, #225, #885, #931, #363, #430, #139, #869, #369, #783 ) ) ;
#433 = CARTESIAN_POINT ( 'NONE',  ( -10.00000000000000711, 0.000000000000000000, 1.084202172485505815E-15 ) ) ;
#434 = VERTEX_POINT ( 'NONE', #283 ) ;
#435 = FACE_BOUND ( 'NONE', #836, .T. ) ;
#436 = ORIENTED_EDGE ( 'NONE', *, *, #814, .F. ) ;
#437 = CARTESIAN_POINT ( 'NONE',  ( 0.000000000000000000, 50.00000000000000000, 54.99999999999999289 ) ) ;
#438 = CIRCLE ( 'NONE', #15, 5.000000000000004441 ) ;
#439 = VERTEX_POINT ( 'NONE', #855 ) ;
#440 = CIRCLE ( 'NONE', #758, 15.00000000000000000 ) ;
#441 = CARTESIAN_POINT ( 'NONE',  ( 44.16729559300642904, 0.000000000000000000, -25.49999999999990408 ) ) ;
#442 = MECHANICAL_DESIGN_GEOMETRIC_PRESENTATION_REPRESENTATION (  '', ( #382 ), #60 ) ;
#443 = LINE ( 'NONE', #732, #456 ) ;
#444 = CARTESIAN_POINT ( 'NONE',  ( -10.00000000000000711, 7.000000000000000000, 1.084202172485505815E-15 ) ) ;
#445 = ORIENTED_EDGE ( 'NONE', *, *, #703, .T. ) ;
#446 = CARTESIAN_POINT ( 'NONE',  ( 20.19486260263987631, 16.07902242759243094, 52.44436926426806878 ) ) ;
#447 = EDGE_CURVE ( 'NONE', #587, #920, #872, .T. ) ;
#448 = DIRECTION ( 'NONE',  ( 0.000000000000000000, 1.000000000000000000, 0.000000000000000000 ) ) ;
#449 = ORIENTED_EDGE ( 'NONE', *, *, #292, .T. ) ;
#450 = LINE ( 'NONE', #661, #214 ) ;
#451 = CARTESIAN_POINT ( 'NONE',  ( -11.98003120976046532, 7.721566354268654564, 64.26333603209546652 ) ) ;
#452 = VERTEX_POINT ( 'NONE', #659 ) ;
#453 = CARTESIAN_POINT ( 'NONE',  ( 12.70414160956348937, 8.324359332863432215, 62.53801136328798549 ) ) ;
#454 = AXIS2_PLACEMENT_3D ( 'NONE', #99, #463, #458 ) ;
#455 = VECTOR ( 'NONE', #69, 1000.000000000000000 ) ;
#456 = VECTOR ( 'NONE', #301, 1000.000000000000000 ) ;
#457 = CARTESIAN_POINT ( 'NONE',  ( -11.76032613041010144, 7.556462404643092157, 64.85486314446815470 ) ) ;
#458 = DIRECTION ( 'NONE',  ( 0.000000000000000000, 0.000000000000000000, 1.000000000000000000 ) ) ;
#459 = EDGE_CURVE ( 'NONE', #873, #230, #370, .T. ) ;
#460 = CARTESIAN_POINT ( 'NONE',  ( -25.45200584935910371, 21.56986116907150830, 48.76232212831260426 ) ) ;
#461 = CARTESIAN_POINT ( 'NONE',  ( 0.000000000000000000, 43.00000000000000000, 54.99999999999999289 ) ) ;
#462 = LINE ( 'NONE', #327, #95 ) ;
#463 = DIRECTION ( 'NONE',  ( -0.000000000000000000, 1.000000000000000000, -0.000000000000000000 ) ) ;
#464 = AXIS2_PLACEMENT_3D ( 'NONE', #683, #905, #615 ) ;
#465 = VECTOR ( 'NONE', #265, 1000.000000000000227 ) ;
#466 = VECTOR ( 'NONE', #643, 1000.000000000000000 ) ;
#467 = ADVANCED_FACE ( 'NONE', ( #373 ), #736, .T. ) ;
#468 = CARTESIAN_POINT ( 'NONE',  ( -20.19491792658170581, 16.07908185692192049, 52.44432051698515806 ) ) ;
#469 = CARTESIAN_POINT ( 'NONE',  ( -4.807399686857141141, 43.69965053857559667, 54.79036418162758793 ) ) ;
#470 = EDGE_CURVE ( 'NONE', #575, #230, #108, .T. ) ;
#471 = CYLINDRICAL_SURFACE ( 'NONE', #232, 51.00000000000000711 ) ;
#472 = LINE ( 'NONE', #116, #692 ) ;
#473 =( LENGTH_UNIT ( ) NAMED_UNIT ( * ) SI_UNIT ( .MILLI., .METRE. ) );
#474 = DIRECTION ( 'NONE',  ( 0.000000000000000000, 0.000000000000000000, 1.000000000000000000 ) ) ;
#475 = CIRCLE ( 'NONE', #454, 2.199999999999993516 ) ;
#476 = ORIENTED_EDGE ( 'NONE', *, *, #3, .T. ) ;
#477 = AXIS2_PLACEMENT_3D ( 'NONE', #52, #704, #57 ) ;
#478 = CARTESIAN_POINT ( 'NONE',  ( 0.000000000000000000, 46.35410196624970780, 54.99999999999999289 ) ) ;
#479 = LINE ( 'NONE', #340, #109 ) ;
#480 = CARTESIAN_POINT ( 'NONE',  ( 0.000000000000000000, 50.00000000000000000, 0.000000000000000000 ) ) ;
#481 = EDGE_CURVE ( 'NONE', #859, #630, #422, .T. ) ;
#482 = CARTESIAN_POINT ( 'NONE',  ( -47.63139720814417899, 50.00000000000000000, -27.49999999999989342 ) ) ;
#483 = FACE_OUTER_BOUND ( 'NONE', #337, .T. ) ;
#484 = DIRECTION ( 'NONE',  ( 0.000000000000000000, 0.000000000000000000, 1.000000000000000000 ) ) ;
#485 = ORIENTED_EDGE ( 'NONE', *, *, #517, .T. ) ;
#486 = CARTESIAN_POINT ( 'NONE',  ( 0.000000000000000000, 0.000000000000000000, 0.000000000000000000 ) ) ;
#487 = EDGE_LOOP ( 'NONE', ( #198, #693, #424, #492 ) ) ;
#488 = DIRECTION ( 'NONE',  ( -0.000000000000000000, 1.000000000000000000, -0.000000000000000000 ) ) ;
#489 = DIRECTION ( 'NONE',  ( 0.000000000000000000, 1.000000000000000000, 0.000000000000000000 ) ) ;
#490 = EDGE_LOOP ( 'NONE', ( #598, #925, #400, #209, #330, #239, #263, #685, #159, #688, #19, #729, #351, #937, #275, #50, #641 ) ) ;
#491 = CARTESIAN_POINT ( 'NONE',  ( -47.63139720814417899, 50.00000000000000000, -27.49999999999989342 ) ) ;
#492 = ORIENTED_EDGE ( 'NONE', *, *, #48, .F. ) ;
#493 = CIRCLE ( 'NONE', #94, 30.00000000000000000 ) ;
#494 = EDGE_CURVE ( 'NONE', #58, #192, #679, .T. ) ;
#495 = AXIS2_PLACEMENT_3D ( 'NONE', #316, #31, #684 ) ;
#496 = FACE_OUTER_BOUND ( 'NONE', #523, .T. ) ;
#497 = CARTESIAN_POINT ( 'NONE',  ( 3.498227857143596520, 43.00000000000000000, 54.88863636363635834 ) ) ;
#498 = AXIS2_PLACEMENT_3D ( 'NONE', #701, #785, #55 ) ;
#499 = ORIENTED_EDGE ( 'NONE', *, *, #349, .T. ) ;
#500 = CARTESIAN_POINT ( 'NONE',  ( -44.16729559300642904, 50.00000000000000000, -25.49999999999990408 ) ) ;
#501 = VERTEX_POINT ( 'NONE', #229 ) ;
#502 = PRODUCT ( 'ELP-0034', 'ELP-0034', '', ( #632 ) ) ;
#503 = CARTESIAN_POINT ( 'NONE',  ( 47.63139720814417899, 50.00000000000000000, -27.49999999999989342 ) ) ;
#504 = CARTESIAN_POINT ( 'NONE',  ( 15.94760166677757240, 11.53098316571614212, 57.06136903239630698 ) ) ;
#505 = EDGE_CURVE ( 'NONE', #166, #269, #733, .T. ) ;
#506 = CARTESIAN_POINT ( 'NONE',  ( 0.000000000000000000, 7.000000000000000000, 0.000000000000000000 ) ) ;
#507 = VERTEX_POINT ( 'NONE', #158 ) ;
#508 = DIRECTION ( 'NONE',  ( 0.000000000000000000, 0.000000000000000000, 1.000000000000000000 ) ) ;
#509 = VERTEX_POINT ( 'NONE', #377 ) ;
#510 = DIRECTION ( 'NONE',  ( 0.000000000000000000, 0.000000000000000000, 1.000000000000000000 ) ) ;
#511 = DIRECTION ( 'NONE',  ( 0.000000000000000000, 0.000000000000000000, 1.000000000000000000 ) ) ;
#512 = AXIS2_PLACEMENT_3D ( 'NONE', #724, #221, #380 ) ;
#513 = ORIENTED_EDGE ( 'NONE', *, *, #703, .F. ) ;
#514 = VECTOR ( 'NONE', #287, 1000.000000000000000 ) ;
#515 = PLANE ( 'NONE',  #30 ) ;
#516 = ADVANCED_FACE ( 'NONE', ( #496 ), #656, .F. ) ;
#517 = EDGE_CURVE ( 'NONE', #567, #587, #879, .T. ) ;
#518 = DIRECTION ( 'NONE',  ( 0.000000000000000000, 1.000000000000000000, 0.000000000000000000 ) ) ;
#519 = ORIENTED_EDGE ( 'NONE', *, *, #39, .T. ) ;
#520 = CARTESIAN_POINT ( 'NONE',  ( -7.102951435054662456E-16, 5.999999999999997335, 80.80000000000001137 ) ) ;
#521 = CARTESIAN_POINT ( 'NONE',  ( 5.189708299219292442, 44.11369189204840779, 54.75472117457234589 ) ) ;
#522 = CARTESIAN_POINT ( 'NONE',  ( -25.02596081986318310, 21.14008157270827581, 49.00311509935767162 ) ) ;
#523 = EDGE_LOOP ( 'NONE', ( #737, #915, #726, #766 ) ) ;
#524 = DIRECTION ( 'NONE',  ( 0.000000000000000000, 0.000000000000000000, 1.000000000000000000 ) ) ;
#525 = CARTESIAN_POINT ( 'NONE',  ( -25.88235294117647101, 22.00000000000000000, 48.52941176470587692 ) ) ;
#526 = VERTEX_POINT ( 'NONE', #650 ) ;
#527 = ADVANCED_FACE ( 'NONE', ( #234 ), #807, .F. ) ;
#528 = CARTESIAN_POINT ( 'NONE',  ( -5.991067731380085526, 46.35410196624970780, 54.67272727272727195 ) ) ;
#529 = CYLINDRICAL_SURFACE ( 'NONE', #821, 3.499999999999947597 ) ;
#530 = CARTESIAN_POINT ( 'NONE',  ( -40.00000000000000000, 50.00000000000000000, 74.99999999999998579 ) ) ;
#531 = CARTESIAN_POINT ( 'NONE',  ( -5.000000000000005329, 0.000000000000000000, 86.08326913195982399 ) ) ;
#532 = CARTESIAN_POINT ( 'NONE',  ( 44.16729559300642904, 50.00000000000000000, -25.49999999999989342 ) ) ;
#533 = CARTESIAN_POINT ( 'NONE',  ( 3.498227857143596520, 50.00000000000000000, 54.88863636363635834 ) ) ;
#534 = PLANE ( 'NONE',  #896 ) ;
#535 = ORIENTED_EDGE ( 'NONE', *, *, #190, .F. ) ;
#536 = DIRECTION ( 'NONE',  ( -0.000000000000000000, -1.000000000000000000, 0.000000000000000000 ) ) ;
#537 = CARTESIAN_POINT ( 'NONE',  ( 4.188196654535255803, 43.28414395630326084, 54.84056279065504214 ) ) ;
#538 = CIRCLE ( 'NONE', #677, 30.00000000000000000 ) ;
#539 = CONICAL_SURFACE ( 'NONE', #80, 2.199999999999993516, 0.7853981633974472798 ) ;
#540 = ADVANCED_FACE ( 'NONE', ( #150, #663 ), #863, .T. ) ;
#541 = COLOUR_RGB ( '',0.7921568627450980005, 0.8196078431372548767, 0.9333333333333333481 ) ;
#542 = EDGE_CURVE ( 'NONE', #58, #708, #744, .T. ) ;
#543 = DIRECTION ( 'NONE',  ( 0.000000000000000000, 0.000000000000000000, 1.000000000000000000 ) ) ;
#544 = DIRECTION ( 'NONE',  ( -0.000000000000000000, 1.000000000000000000, -0.000000000000000000 ) ) ;
#545 = DIRECTION ( 'NONE',  ( 0.000000000000000000, 1.000000000000000000, -0.000000000000000000 ) ) ;
#546 = DIRECTION ( 'NONE',  ( -0.000000000000000000, 1.000000000000000000, -0.000000000000000000 ) ) ;
#547 = VERTEX_POINT ( 'NONE', #220 ) ;
#548 = ORIENTED_EDGE ( 'NONE', *, *, #655, .F. ) ;
#549 = DIRECTION ( 'NONE',  ( 0.000000000000000000, 1.000000000000000000, 0.000000000000000000 ) ) ;
#550 = EDGE_CURVE ( 'NONE', #264, #114, #307, .T. ) ;
#551 = ORIENTED_EDGE ( 'NONE', *, *, #253, .F. ) ;
#552 = AXIS2_PLACEMENT_3D ( 'NONE', #919, #777, #790 ) ;
#553 = DIRECTION ( 'NONE',  ( 8.659560562354925463E-17, 0.7071067811865483499, -0.7071067811865467956 ) ) ;
#554 = EDGE_LOOP ( 'NONE', ( #219, #215, #347, #426 ) ) ;
#555 = AXIS2_PLACEMENT_3D ( 'NONE', #851, #488, #933 ) ;
#556 = AXIS2_PLACEMENT_3D ( 'NONE', #244, #882, #890 ) ;
#557 = CARTESIAN_POINT ( 'NONE',  ( -44.16729559300642904, 50.00000000000000000, -25.49999999999990408 ) ) ;
#558 = FACE_OUTER_BOUND ( 'NONE', #559, .T. ) ;
#559 = EDGE_LOOP ( 'NONE', ( #649, #294, #303, #211 ) ) ;
#560 = CARTESIAN_POINT ( 'NONE',  ( 5.000000000000005329, 0.000000000000000000, 91.08326913195983821 ) ) ;
#561 = CARTESIAN_POINT ( 'NONE',  ( 0.000000000000000000, 22.00000000000000000, 0.000000000000000000 ) ) ;
#562 = ORIENTED_EDGE ( 'NONE', *, *, #638, .T. ) ;
#563 = DIRECTION ( 'NONE',  ( -0.000000000000000000, 1.000000000000000000, -0.000000000000000000 ) ) ;
#564 = EDGE_CURVE ( 'NONE', #859, #507, #793, .T. ) ;
#565 = DIRECTION ( 'NONE',  ( -0.000000000000000000, -1.000000000000000000, -0.000000000000000000 ) ) ;
#566 = DIRECTION ( 'NONE',  ( 0.000000000000000000, 1.000000000000000000, 0.000000000000000000 ) ) ;
#567 = VERTEX_POINT ( 'NONE', #4 ) ;
#568 = DIRECTION ( 'NONE',  ( 0.000000000000000000, 0.000000000000000000, 1.000000000000000000 ) ) ;
#569 = VERTEX_POINT ( 'NONE', #576 ) ;
#570 = VECTOR ( 'NONE', #670, 1000.000000000000227 ) ;
#571 = CARTESIAN_POINT ( 'NONE',  ( 40.00000000000000000, 50.00000000000000000, 74.99999999999998579 ) ) ;
#572 = AXIS2_PLACEMENT_3D ( 'NONE', #344, #546, #484 ) ;
#573 = DIRECTION ( 'NONE',  ( -0.8660254037844389297, 0.000000000000000000, -0.4999999999999994449 ) ) ;
#574 = FILL_AREA_STYLE ('',( #148 ) ) ;
#575 = VERTEX_POINT ( 'NONE', #867 ) ;
#576 = CARTESIAN_POINT ( 'NONE',  ( 0.000000000000000000, 50.00000000000000000, 60.99999999999999289 ) ) ;
#577 = ORIENTED_EDGE ( 'NONE', *, *, #399, .T. ) ;
#578 = CARTESIAN_POINT ( 'NONE',  ( 15.29615343732686483, 10.85183406529199246, 57.96966495984961654 ) ) ;
#579 = ORIENTED_EDGE ( 'NONE', *, *, #261, .F. ) ;
#580 = DIRECTION ( 'NONE',  ( 1.084202172485504927E-16, 0.000000000000000000, 1.000000000000000000 ) ) ;
#581 = ORIENTED_EDGE ( 'NONE', *, *, #616, .F. ) ;
#582 = ADVANCED_FACE ( 'NONE', ( #224 ), #728, .F. ) ;
#583 = FACE_OUTER_BOUND ( 'NONE', #98, .T. ) ;
#584 = CARTESIAN_POINT ( 'NONE',  ( 5.991067731380065098, 45.97702115555896540, 54.67272727272727906 ) ) ;
#585 = DIRECTION ( 'NONE',  ( -0.000000000000000000, -1.000000000000000000, -0.000000000000000000 ) ) ;
#586 = AXIS2_PLACEMENT_3D ( 'NONE', #819, #36, #249 ) ;
#587 = VERTEX_POINT ( 'NONE', #104 ) ;
#588 = VECTOR ( 'NONE', #585, 1000.000000000000000 ) ;
#589 = CARTESIAN_POINT ( 'NONE',  ( 19.44633405205036070, 15.27283618333195037, 53.12297042572658512 ) ) ;
#590 = VECTOR ( 'NONE', #690, 1000.000000000000000 ) ;
#591 = B_SPLINE_CURVE_WITH_KNOTS ( 'NONE', 3,
 ( #648, #299, #809, #77, #13, #446, #589, #739, #147, #874, #504, #578, #939, #288, #84, #453, #163, #806, #886, #372, #795, #881 ),
 .UNSPECIFIED., .F., .F.,
 ( 4, 2, 2, 2, 2, 2, 2, 2, 2, 2, 4 ),
 ( -2.786522279697825586E-05, 0.003877645926762427961, 0.007783157076321834018, 0.01168866822588124008, 0.01559417937544064527, 0.01754693495022035393, 0.01949969052500006780, 0.02340520167455948861, 0.02535795724933920248, 0.02731071282411891982, 0.03121622397367835450 ),
 .UNSPECIFIED. ) ;
#592 = PRODUCT_DEFINITION_CONTEXT ( 'detailed design', #834, 'design' ) ;
#593 = DIRECTION ( 'NONE',  ( -0.000000000000000000, 1.000000000000000000, -0.000000000000000000 ) ) ;
#594 = ORIENTED_EDGE ( 'NONE', *, *, #179, .F. ) ;
#595 = DIRECTION ( 'NONE',  ( 0.000000000000000000, 1.000000000000000000, -0.000000000000000000 ) ) ;
#596 = ADVANCED_FACE ( 'NONE', ( #884 ), #860, .T. ) ;
#597 = CARTESIAN_POINT ( 'NONE',  ( -16.27987716412026131, 11.88122193735688903, 56.62481253008475335 ) ) ;
#598 = ORIENTED_EDGE ( 'NONE', *, *, #895, .T. ) ;
#599 = PLANE ( 'NONE',  #464 ) ;
#600 = DIRECTION ( 'NONE',  ( 0.000000000000000000, 0.000000000000000000, 1.000000000000000000 ) ) ;
#601 = FACE_OUTER_BOUND ( 'NONE', #490, .T. ) ;
#602 = ORIENTED_EDGE ( 'NONE', *, *, #100, .T. ) ;
#603 = ADVANCED_FACE ( 'NONE', ( #816 ), #534, .F. ) ;
#604 = CARTESIAN_POINT ( 'NONE',  ( -40.00000000000000000, 6.999999999999999112, 74.99999999999998579 ) ) ;
#605 = DIRECTION ( 'NONE',  ( 0.000000000000000000, 1.000000000000000000, 0.000000000000000000 ) ) ;
#606 = VECTOR ( 'NONE', #251, 1000.000000000000000 ) ;
#607 = VECTOR ( 'NONE', #580, 1000.000000000000000 ) ;
#608 = VECTOR ( 'NONE', #566, 1000.000000000000000 ) ;
#609 = DIRECTION ( 'NONE',  ( 0.000000000000000000, 0.000000000000000000, -1.000000000000000000 ) ) ;
#610 = CARTESIAN_POINT ( 'NONE',  ( -47.63139720814419320, 0.000000000000000000, -27.49999999999988276 ) ) ;
#611 = CARTESIAN_POINT ( 'NONE',  ( 3.498227857143596520, 43.00000000000000000, 54.88863636363635834 ) ) ;
#612 = APPLICATION_CONTEXT ( 'automotive_design' ) ;
#613 = DIRECTION ( 'NONE',  ( -0.000000000000000000, -1.000000000000000000, -0.000000000000000000 ) ) ;
#614 = EDGE_LOOP ( 'NONE', ( #579, #404 ) ) ;
#615 = DIRECTION ( 'NONE',  ( -0.8660254037844395958, 0.000000000000000000, 0.4999999999999981681 ) ) ;
#616 = EDGE_CURVE ( 'NONE', #526, #665, #44, .T. ) ;
#617 = EDGE_CURVE ( 'NONE', #341, #66, #462, .T. ) ;
#618 =( NAMED_UNIT ( * ) SI_UNIT ( $, .STERADIAN. ) SOLID_ANGLE_UNIT ( ) );
#619 = CARTESIAN_POINT ( 'NONE',  ( -5.976000546981818928, 45.97907576733550172, 54.67438442854790992 ) ) ;
#620 = AXIS2_PLACEMENT_3D ( 'NONE', #480, #143, #474 ) ;
#621 = VECTOR ( 'NONE', #613, 1000.000000000000000 ) ;
#622 = ORIENTED_EDGE ( 'NONE', *, *, #628, .T. ) ;
#623 = AXIS2_PLACEMENT_3D ( 'NONE', #699, #70, #64 ) ;
#624 = LINE ( 'NONE', #262, #465 ) ;
#625 = CARTESIAN_POINT ( 'NONE',  ( 0.000000000000000000, 43.00000000000000000, 58.49999999999994316 ) ) ;
#626 = CARTESIAN_POINT ( 'NONE',  ( -5.000000000000005329, 0.000000000000000000, 91.08326913195983821 ) ) ;
#627 = ORIENTED_EDGE ( 'NONE', *, *, #824, .F. ) ;
#628 = EDGE_CURVE ( 'NONE', #634, #23, #413, .T. ) ;
#629 = CARTESIAN_POINT ( 'NONE',  ( 0.000000000000000000, 0.000000000000000000, 0.000000000000000000 ) ) ;
#630 = VERTEX_POINT ( 'NONE', #754 ) ;
#631 = LINE ( 'NONE', #557, #878 ) ;
#632 = PRODUCT_CONTEXT ( 'NONE', #612, 'mechanical' ) ;
#633 = EDGE_CURVE ( 'NONE', #501, #374, #172, .T. ) ;
#634 = VERTEX_POINT ( 'NONE', #101 ) ;
#635 = FACE_OUTER_BOUND ( 'NONE', #206, .T. ) ;
#636 = VECTOR ( 'NONE', #747, 1000.000000000000000 ) ;
#637 = DIRECTION ( 'NONE',  ( -1.000000000000000000, 0.000000000000000000, -0.000000000000000000 ) ) ;
#638 = EDGE_CURVE ( 'NONE', #501, #264, #672, .T. ) ;
#639 = EDGE_LOOP ( 'NONE', ( #581, #513, #853, #358, #420 ) ) ;
#640 = CARTESIAN_POINT ( 'NONE',  ( 0.000000000000000000, 50.00000000000000000, 0.000000000000000000 ) ) ;
#641 = ORIENTED_EDGE ( 'NONE', *, *, #814, .T. ) ;
#642 = CARTESIAN_POINT ( 'NONE',  ( 0.000000000000000000, 7.000000000000000000, 91.08326913195983821 ) ) ;
#643 = DIRECTION ( 'NONE',  ( 0.000000000000000000, 1.000000000000000000, 0.000000000000000000 ) ) ;
#644 = ORIENTED_EDGE ( 'NONE', *, *, #12, .T. ) ;
#645 = DIRECTION ( 'NONE',  ( 0.000000000000000000, 0.000000000000000000, 1.000000000000000000 ) ) ;
#646 = ADVANCED_FACE ( 'NONE', ( #601 ), #321, .T. ) ;
#647 = ORIENTED_EDGE ( 'NONE', *, *, #305, .F. ) ;
#648 = CARTESIAN_POINT ( 'NONE',  ( 25.88235294117647101, 22.00000000000000000, 48.52941176470587692 ) ) ;
#649 = ORIENTED_EDGE ( 'NONE', *, *, #883, .F. ) ;
#650 = CARTESIAN_POINT ( 'NONE',  ( 9.999999999999998224, 7.000000000000000000, 74.99999999999998579 ) ) ;
#651 = EDGE_LOOP ( 'NONE', ( #799, #499, #768, #627 ) ) ;
#652 = CIRCLE ( 'NONE', #572, 2.199999999999993516 ) ;
#653 = DIRECTION ( 'NONE',  ( 0.000000000000000000, 0.000000000000000000, 1.000000000000000000 ) ) ;
#654 = EDGE_LOOP ( 'NONE', ( #929, #56, #41, #792 ) ) ;
#655 = EDGE_CURVE ( 'NONE', #68, #776, #827, .T. ) ;
#656 = CYLINDRICAL_SURFACE ( 'NONE', #332, 1.199999999999992628 ) ;
#657 = VERTEX_POINT ( 'NONE', #904 ) ;
#658 = CARTESIAN_POINT ( 'NONE',  ( 5.000000000000005329, 0.000000000000000000, 86.08326913195982399 ) ) ;
#659 = CARTESIAN_POINT ( 'NONE',  ( -44.16729559300642904, 0.000000000000000000, -25.49999999999990408 ) ) ;
#660 = ORIENTED_EDGE ( 'NONE', *, *, #848, .T. ) ;
#661 = CARTESIAN_POINT ( 'NONE',  ( 0.000000000000000000, 0.000000000000000000, 91.08326913195983821 ) ) ;
#662 = CARTESIAN_POINT ( 'NONE',  ( 5.696409943011508936, 44.89626933083312110, 54.70434114625833644 ) ) ;
#663 = FACE_BOUND ( 'NONE', #314, .T. ) ;
#664 = AXIS2_PLACEMENT_3D ( 'NONE', #531, #252, #113 ) ;
#665 = VERTEX_POINT ( 'NONE', #181 ) ;
#666 = CARTESIAN_POINT ( 'NONE',  ( 25.88235294117647101, 22.00000000000000000, 48.52941176470587692 ) ) ;
#667 = ADVANCED_FACE ( 'NONE', ( #201 ), #170, .F. ) ;
#668 = CARTESIAN_POINT ( 'NONE',  ( 4.351097538198271941, 43.37990896437322164, 54.82783475158907294 ) ) ;
#669 = VERTEX_POINT ( 'NONE', #935 ) ;
#670 = DIRECTION ( 'NONE',  ( 0.8660254037844389297, 0.000000000000000000, 0.4999999999999994449 ) ) ;
#671 = DIRECTION ( 'NONE',  ( 0.000000000000000000, 1.000000000000000000, 0.000000000000000000 ) ) ;
#672 = LINE ( 'NONE', #26, #606 ) ;
#673 = EDGE_LOOP ( 'NONE', ( #188, #296, #786, #88 ) ) ;
#674 = CARTESIAN_POINT ( 'NONE',  ( 47.63139720814417899, 50.00000000000000000, -27.49999999999989342 ) ) ;
#675 = CARTESIAN_POINT ( 'NONE',  ( 0.000000000000000000, 6.999999999999999112, 0.000000000000000000 ) ) ;
#676 = CARTESIAN_POINT ( 'NONE',  ( -14.97919588341814823, 10.52525497469966176, 58.43843459092730086 ) ) ;
#677 = AXIS2_PLACEMENT_3D ( 'NONE', #295, #227, #524 ) ;
#678 = FACE_OUTER_BOUND ( 'NONE', #298, .T. ) ;
#679 = CIRCLE ( 'NONE', #393, 54.99999999999999289 ) ;
#680 = AXIS2_PLACEMENT_3D ( 'NONE', #675, #29, #318 ) ;
#681 = CARTESIAN_POINT ( 'NONE',  ( -25.66770450474125909, 21.78615532801177679, 48.64389093080464477 ) ) ;
#682 = ADVANCED_FACE ( 'NONE', ( #791, #205 ), #210, .T. ) ;
#683 = CARTESIAN_POINT ( 'NONE',  ( 44.16729559300642904, 50.00000000000000000, -25.49999999999990408 ) ) ;
#684 = DIRECTION ( 'NONE',  ( 0.000000000000000000, 0.000000000000000000, 1.000000000000000000 ) ) ;
#685 = ORIENTED_EDGE ( 'NONE', *, *, #174, .T. ) ;
#686 = DIRECTION ( 'NONE',  ( 0.000000000000000000, 1.000000000000000000, -0.000000000000000000 ) ) ;
#687 = DIRECTION ( 'NONE',  ( 0.000000000000000000, 0.000000000000000000, 1.000000000000000000 ) ) ;
#688 = ORIENTED_EDGE ( 'NONE', *, *, #200, .T. ) ;
#689 = CARTESIAN_POINT ( 'NONE',  ( -5.991067731380085526, 43.00000000000000000, 54.67272727272727195 ) ) ;
#690 = DIRECTION ( 'NONE',  ( 0.000000000000000000, 1.000000000000000000, 0.000000000000000000 ) ) ;
#691 = EDGE_CURVE ( 'NONE', #773, #7, #431, .T. ) ;
#692 = VECTOR ( 'NONE', #407, 1000.000000000000000 ) ;
#693 = ORIENTED_EDGE ( 'NONE', *, *, #329, .T. ) ;
#694 = DIRECTION ( 'NONE',  ( -0.000000000000000000, -1.000000000000000000, 0.000000000000000000 ) ) ;
#695 = PLANE ( 'NONE',  #623 ) ;
#696 = ORIENTED_EDGE ( 'NONE', *, *, #237, .T. ) ;
#697 = ORIENTED_EDGE ( 'NONE', *, *, #379, .T. ) ;
#698 = LINE ( 'NONE', #689, #767 ) ;
#699 = CARTESIAN_POINT ( 'NONE',  ( 10.00000000000000711, 7.000000000000000000, 1.084202172485505815E-15 ) ) ;
#700 = ORIENTED_EDGE ( 'NONE', *, *, #470, .T. ) ;
#701 = CARTESIAN_POINT ( 'NONE',  ( -8.572527594031484037E-16, 0.000000000000000000, 82.00000000000000000 ) ) ;
#702 = ORIENTED_EDGE ( 'NONE', *, *, #916, .F. ) ;
#703 = EDGE_CURVE ( 'NONE', #920, #526, #849, .T. ) ;
#704 = DIRECTION ( 'NONE',  ( -0.000000000000000000, -1.000000000000000000, 0.000000000000000000 ) ) ;
#705 = CARTESIAN_POINT ( 'NONE',  ( 5.000000000000005329, 7.000000000000000000, 86.08326913195982399 ) ) ;
#706 = VERTEX_POINT ( 'NONE', #138 ) ;
#707 = CARTESIAN_POINT ( 'NONE',  ( 0.000000000000000000, 50.00000000000000000, 54.99999999999999289 ) ) ;
#708 = VERTEX_POINT ( 'NONE', #854 ) ;
#709 = CARTESIAN_POINT ( 'NONE',  ( -8.572527594031484037E-16, 7.000000000000001776, 82.00000000000000000 ) ) ;
#710 = EDGE_CURVE ( 'NONE', #66, #62, #218, .T. ) ;
#711 = APPLICATION_PROTOCOL_DEFINITION ( 'draft international standard', 'automotive_design', 1998, #834 ) ;
#712 = VERTEX_POINT ( 'NONE', #500 ) ;
#713 = MANIFOLD_SOLID_BREP ( 'Raccordo3', #245 ) ;
#714 =( NAMED_UNIT ( * ) PLANE_ANGLE_UNIT ( ) SI_UNIT ( $, .RADIAN. ) );
#715 = ORIENTED_EDGE ( 'NONE', *, *, #895, .F. ) ;
#716 = DIRECTION ( 'NONE',  ( 0.000000000000000000, 0.000000000000000000, 1.000000000000000000 ) ) ;
#717 = DIRECTION ( 'NONE',  ( 0.000000000000000000, 0.000000000000000000, 1.000000000000000000 ) ) ;
#718 = DIRECTION ( 'NONE',  ( 0.000000000000000000, 0.000000000000000000, -1.000000000000000000 ) ) ;
#719 =( LENGTH_UNIT ( ) NAMED_UNIT ( * ) SI_UNIT ( .MILLI., .METRE. ) );
#720 = ORIENTED_EDGE ( 'NONE', *, *, #753, .T. ) ;
#721 = B_SPLINE_CURVE_WITH_KNOTS ( 'NONE', 3,
 ( #810, #584, #876, #662, #14, #521, #21, #164, #740, #668, #537, #34, #402, #611 ),
 .UNSPECIFIED., .F., .F.,
 ( 4, 2, 2, 2, 2, 2, 4 ),
 ( 0.000000000000000000, 0.001115172687011495864, 0.002230345374022991729, 0.002787931717528732180, 0.003345518061034472631, 0.003903104404540213516, 0.004460690748045954834 ),
 .UNSPECIFIED. ) ;
#722 = DIRECTION ( 'NONE',  ( 1.084202172485504927E-16, 0.000000000000000000, 1.000000000000000000 ) ) ;
#723 = EDGE_LOOP ( 'NONE', ( #365, #286, #551, #449 ) ) ;
#724 = CARTESIAN_POINT ( 'NONE',  ( 0.000000000000000000, 0.000000000000000000, 0.000000000000000000 ) ) ;
#725 = EDGE_CURVE ( 'NONE', #797, #569, #199, .T. ) ;
#726 = ORIENTED_EDGE ( 'NONE', *, *, #830, .T. ) ;
#727 = VECTOR ( 'NONE', #858, 1000.000000000000000 ) ;
#728 = CYLINDRICAL_SURFACE ( 'NONE', #271, 30.00000000000000000 ) ;
#729 = ORIENTED_EDGE ( 'NONE', *, *, #811, .T. ) ;
#730 = VECTOR ( 'NONE', #279, 1000.000000000000000 ) ;
#731 = LINE ( 'NONE', #735, #940 ) ;
#732 = CARTESIAN_POINT ( 'NONE',  ( 25.88235294117647101, 50.00000000000000000, 48.52941176470587692 ) ) ;
#733 = LINE ( 'NONE', #938, #514 ) ;
#734 = ORIENTED_EDGE ( 'NONE', *, *, #3, .F. ) ;
#735 = CARTESIAN_POINT ( 'NONE',  ( 10.00000000000000711, 7.000000000000000000, 1.084202172485505815E-15 ) ) ;
#736 = CYLINDRICAL_SURFACE ( 'NONE', #2, 5.999999999999998224 ) ;
#737 = ORIENTED_EDGE ( 'NONE', *, *, #39, .F. ) ;
#738 = EDGE_CURVE ( 'NONE', #706, #353, #171, .T. ) ;
#739 = CARTESIAN_POINT ( 'NONE',  ( 17.99645444598800026, 13.71274045615760429, 54.58183186605476322 ) ) ;
#740 = CARTESIAN_POINT ( 'NONE',  ( 4.656748689585417544, 43.59449964048827297, 54.80272078078345999 ) ) ;
#741 = CARTESIAN_POINT ( 'NONE',  ( -12.45402782850097090, 8.107230097103027333, 63.09983103932142967 ) ) ;
#742 = CIRCLE ( 'NONE', #893, 54.99999999999999289 ) ;
#743 = ORIENTED_EDGE ( 'NONE', *, *, #212, .T. ) ;
#744 = CIRCLE ( 'NONE', #787, 3.499999999999947597 ) ;
#745 = DIRECTION ( 'NONE',  ( 1.063963731932441632E-14, 0.000000000000000000, 1.000000000000000000 ) ) ;
#746 = CIRCLE ( 'NONE', #394, 51.00000000000000711 ) ;
#747 = DIRECTION ( 'NONE',  ( -0.000000000000000000, -1.000000000000000000, -0.000000000000000000 ) ) ;
#748 = EDGE_CURVE ( 'NONE', #46, #341, #17, .T. ) ;
#749 = DIRECTION ( 'NONE',  ( 0.000000000000000000, 0.000000000000000000, 1.000000000000000000 ) ) ;
#750 = CARTESIAN_POINT ( 'NONE',  ( -8.572527594031484037E-16, 5.999999999999997335, 82.00000000000000000 ) ) ;
#751 = CARTESIAN_POINT ( 'NONE',  ( -10.82130948174371277, 7.000000000000000888, 67.90486368204601320 ) ) ;
#752 = CARTESIAN_POINT ( 'NONE',  ( 5.991067731380073091, 46.35410196624970780, 54.67272727272727195 ) ) ;
#753 = EDGE_CURVE ( 'NONE', #269, #264, #899, .T. ) ;
#754 = CARTESIAN_POINT ( 'NONE',  ( -25.88235294117647101, 0.000000000000000000, 48.52941176470587692 ) ) ;
#755 = ORIENTED_EDGE ( 'NONE', *, *, #470, .F. ) ;
#756 = VECTOR ( 'NONE', #9, 1000.000000000000000 ) ;
#757 = DIRECTION ( 'NONE',  ( 0.000000000000000000, 1.000000000000000000, -0.000000000000000000 ) ) ;
#758 = AXIS2_PLACEMENT_3D ( 'NONE', #272, #42, #930 ) ;
#759 = CARTESIAN_POINT ( 'NONE',  ( -15.29618110031444012, 10.85186267224885626, 57.96962477448371942 ) ) ;
#760 = ORIENTED_EDGE ( 'NONE', *, *, #638, .F. ) ;
#761 = CARTESIAN_POINT ( 'NONE',  ( 5.000000000000005329, 7.000000000000000000, 86.08326913195982399 ) ) ;
#762 = DIRECTION ( 'NONE',  ( -0.000000000000000000, -1.000000000000000000, -0.000000000000000000 ) ) ;
#763 = LINE ( 'NONE', #339, #289 ) ;
#764 = ADVANCED_FACE ( 'NONE', ( #635 ), #32, .F. ) ;
#765 = DIRECTION ( 'NONE',  ( 0.000000000000000000, 0.000000000000000000, 1.000000000000000000 ) ) ;
#766 = ORIENTED_EDGE ( 'NONE', *, *, #379, .F. ) ;
#767 = VECTOR ( 'NONE', #913, 1000.000000000000000 ) ;
#768 = ORIENTED_EDGE ( 'NONE', *, *, #564, .T. ) ;
#769 = CIRCLE ( 'NONE', #406, 3.499999999999947597 ) ;
#770 = DIRECTION ( 'NONE',  ( 0.000000000000000000, 0.000000000000000000, -1.000000000000000000 ) ) ;
#771 = CARTESIAN_POINT ( 'NONE',  ( -25.88235294117647101, 22.00000000000000000, 48.52941176470587692 ) ) ;
#772 = SURFACE_STYLE_FILL_AREA ( #574 ) ;
#773 = VERTEX_POINT ( 'NONE', #491 ) ;
#774 = DIRECTION ( 'NONE',  ( -0.000000000000000000, -1.000000000000000000, -0.000000000000000000 ) ) ;
#775 = EDGE_CURVE ( 'NONE', #708, #192, #769, .T. ) ;
#776 = VERTEX_POINT ( 'NONE', #560 ) ;
#777 = DIRECTION ( 'NONE',  ( -0.000000000000000000, 1.000000000000000000, -0.000000000000000000 ) ) ;
#778 = DIRECTION ( 'NONE',  ( -1.224646799147352221E-16, 0.000000000000000000, -1.000000000000000000 ) ) ;
#779 = EDGE_LOOP ( 'NONE', ( #808, #660, #894, #715 ) ) ;
#780 = EDGE_CURVE ( 'NONE', #509, #114, #274, .T. ) ;
#781 = FACE_OUTER_BOUND ( 'NONE', #673, .T. ) ;
#782 =( NAMED_UNIT ( * ) PLANE_ANGLE_UNIT ( ) SI_UNIT ( $, .RADIAN. ) );
#783 = ORIENTED_EDGE ( 'NONE', *, *, #174, .F. ) ;
#784 = AXIS2_PLACEMENT_3D ( 'NONE', #102, #326, #749 ) ;
#785 = DIRECTION ( 'NONE',  ( 0.000000000000000000, 1.000000000000000000, 0.000000000000000000 ) ) ;
#786 = ORIENTED_EDGE ( 'NONE', *, *, #903, .T. ) ;
#787 = AXIS2_PLACEMENT_3D ( 'NONE', #437, #18, #716 ) ;
#788 = CARTESIAN_POINT ( 'NONE',  ( 10.00000000000000711, 0.000000000000000000, 1.084202172485505815E-15 ) ) ;
#789 = DIRECTION ( 'NONE',  ( -0.000000000000000000, -1.000000000000000000, 0.000000000000000000 ) ) ;
#790 = DIRECTION ( 'NONE',  ( 0.000000000000000000, 0.000000000000000000, 1.000000000000000000 ) ) ;
#791 = FACE_BOUND ( 'NONE', #614, .T. ) ;
#792 = ORIENTED_EDGE ( 'NONE', *, *, #868, .F. ) ;
#793 = LINE ( 'NONE', #433, #842 ) ;
#794 = ADVANCED_FACE ( 'NONE', ( #310 ), #155, .F. ) ;
#795 = CARTESIAN_POINT ( 'NONE',  ( 10.82130838396747130, 7.000000000000002665, 67.90486925098578297 ) ) ;
#796 = DIRECTION ( 'NONE',  ( 0.000000000000000000, 1.000000000000000000, -0.000000000000000000 ) ) ;
#797 = VERTEX_POINT ( 'NONE', #93 ) ;
#798 = DIRECTION ( 'NONE',  ( 0.000000000000000000, 0.000000000000000000, 1.000000000000000000 ) ) ;
#799 = ORIENTED_EDGE ( 'NONE', *, *, #459, .F. ) ;
#800 = CARTESIAN_POINT ( 'NONE',  ( 47.63139720814417899, 0.000000000000000000, -27.49999999999989342 ) ) ;
#801 = CIRCLE ( 'NONE', #924, 5.999999999999998224 ) ;
#802 = AXIS2_PLACEMENT_3D ( 'NONE', #302, #213, #508 ) ;
#803 = VECTOR ( 'NONE', #419, 1000.000000000000000 ) ;
#804 = DIRECTION ( 'NONE',  ( 0.000000000000000000, 1.000000000000000000, 0.000000000000000000 ) ) ;
#805 = ORIENTED_EDGE ( 'NONE', *, *, #738, .T. ) ;
#806 = CARTESIAN_POINT ( 'NONE',  ( 11.98002349151697032, 7.721560428486331062, 64.26335632922994989 ) ) ;
#807 = CYLINDRICAL_SURFACE ( 'NONE', #16, 30.00000000000000000 ) ;
#808 = ORIENTED_EDGE ( 'NONE', *, *, #100, .F. ) ;
#809 = CARTESIAN_POINT ( 'NONE',  ( 24.17859625399196588, 20.28025613867476551, 49.49210935517962895 ) ) ;
#810 = CARTESIAN_POINT ( 'NONE',  ( 5.991067731380073091, 46.35410196624970780, 54.67272727272727195 ) ) ;
#811 = EDGE_CURVE ( 'NONE', #83, #509, #443, .T. ) ;
#812 = DIRECTION ( 'NONE',  ( -1.084202172485505050E-16, 0.000000000000000000, -1.000000000000000000 ) ) ;
#813 = ORIENTED_EDGE ( 'NONE', *, *, #868, .T. ) ;
#814 = EDGE_CURVE ( 'NONE', #166, #434, #721, .T. ) ;
#815 = DIRECTION ( 'NONE',  ( 0.000000000000000000, 0.000000000000000000, 1.000000000000000000 ) ) ;
#816 = FACE_OUTER_BOUND ( 'NONE', #651, .T. ) ;
#817 = CIRCLE ( 'NONE', #620, 54.99999999999999289 ) ;
#818 = TOROIDAL_SURFACE ( 'NONE', #258, 2.500000000000000000, 3.500000000000000000 ) ;
#819 = CARTESIAN_POINT ( 'NONE',  ( -5.000000000000005329, 7.000000000000000000, 86.08326913195982399 ) ) ;
#820 = CARTESIAN_POINT ( 'NONE',  ( -9.999999999999998224, 7.000000000000000000, 86.08326913195982399 ) ) ;
#821 = AXIS2_PLACEMENT_3D ( 'NONE', #103, #605, #389 ) ;
#822 = CARTESIAN_POINT ( 'NONE',  ( -17.29511677566575401, 12.95874990291841478, 55.36189302951125057 ) ) ;
#823 = CARTESIAN_POINT ( 'NONE',  ( -5.510061936119388548, 44.57020223326532005, 54.72336464189002925 ) ) ;
#824 = EDGE_CURVE ( 'NONE', #230, #507, #186, .T. ) ;
#825 = CARTESIAN_POINT ( 'NONE',  ( 0.000000000000000000, 50.00000000000000000, 0.000000000000000000 ) ) ;
#826 = CYLINDRICAL_SURFACE ( 'NONE', #891, 5.000000000000004441 ) ;
#827 = LINE ( 'NONE', #395, #621 ) ;
#828 = CARTESIAN_POINT ( 'NONE',  ( -8.572527594031484037E-16, 7.000000000000001776, 84.20000000000000284 ) ) ;
#829 = AXIS2_PLACEMENT_3D ( 'NONE', #87, #75, #10 ) ;
#830 = EDGE_CURVE ( 'NONE', #66, #439, #861, .T. ) ;
#831 = LINE ( 'NONE', #828, #857 ) ;
#832 = ORIENTED_EDGE ( 'NONE', *, *, #281, .T. ) ;
#833 = DIRECTION ( 'NONE',  ( 0.000000000000000000, 0.000000000000000000, -1.000000000000000000 ) ) ;
#834 = APPLICATION_CONTEXT ( 'automotive_design' ) ;
#835 = CYLINDRICAL_SURFACE ( 'NONE', #183, 5.999999999999998224 ) ;
#836 = EDGE_LOOP ( 'NONE', ( #76, #519 ) ) ;
#837 = ORIENTED_EDGE ( 'NONE', *, *, #691, .F. ) ;
#838 = CARTESIAN_POINT ( 'NONE',  ( 0.000000000000000000, 22.00000000000000000, 0.000000000000000000 ) ) ;
#839 = SHAPE_DEFINITION_REPRESENTATION ( #85, #185 ) ;
#840 = AXIS2_PLACEMENT_3D ( 'NONE', #914, #304, #815 ) ;
#841 = ORIENTED_EDGE ( 'NONE', *, *, #655, .T. ) ;
#842 = VECTOR ( 'NONE', #722, 1000.000000000000000 ) ;
#843 = PRODUCT_DEFINITION_FORMATION_WITH_SPECIFIED_SOURCE ( 'TUTTO', '', #502, .NOT_KNOWN. ) ;
#844 = DIRECTION ( 'NONE',  ( 0.000000000000000000, 1.000000000000000000, -0.000000000000000000 ) ) ;
#845 = ORIENTED_EDGE ( 'NONE', *, *, #212, .F. ) ;
#846 = FACE_OUTER_BOUND ( 'NONE', #911, .T. ) ;
#847 = EDGE_LOOP ( 'NONE', ( #308, #845, #700, #371 ) ) ;
#848 = EDGE_CURVE ( 'NONE', #353, #708, #909, .T. ) ;
#849 = LINE ( 'NONE', #285, #803 ) ;
#850 = EDGE_LOOP ( 'NONE', ( #409, #162, #720, #760, #594, #647, #644 ) ) ;
#851 = CARTESIAN_POINT ( 'NONE',  ( -8.572527594031484037E-16, 7.000000000000000000, 82.00000000000000000 ) ) ;
#852 = DIRECTION ( 'NONE',  ( 0.000000000000000000, 0.000000000000000000, 1.000000000000000000 ) ) ;
#853 = ORIENTED_EDGE ( 'NONE', *, *, #112, .F. ) ;
#854 = CARTESIAN_POINT ( 'NONE',  ( 0.000000000000000000, 50.00000000000000000, 58.49999999999994316 ) ) ;
#855 = CARTESIAN_POINT ( 'NONE',  ( -8.572527594031484037E-16, 5.999999999999997335, 83.20000000000000284 ) ) ;
#856 = ORIENTED_EDGE ( 'NONE', *, *, #542, .T. ) ;
#857 = VECTOR ( 'NONE', #184, 999.9999999999998863 ) ;
#858 = DIRECTION ( 'NONE',  ( -0.000000000000000000, -1.000000000000000000, -0.000000000000000000 ) ) ;
#859 = VERTEX_POINT ( 'NONE', #43 ) ;
#860 = TOROIDAL_SURFACE ( 'NONE', #926, 2.500000000000000000, 3.500000000000000000 ) ;
#861 = CIRCLE ( 'NONE', #927, 1.199999999999992628 ) ;
#862 = ADVANCED_FACE ( 'NONE', ( #335 ), #529, .F. ) ;
#863 = PLANE ( 'NONE',  #137 ) ;
#864 = DIRECTION ( 'NONE',  ( 0.000000000000000000, 1.000000000000000000, -0.000000000000000000 ) ) ;
#865 = CARTESIAN_POINT ( 'NONE',  ( -5.878304635907306044E-16, 7.000000000000001776, 79.80000000000001137 ) ) ;
#866 = ORIENTED_EDGE ( 'NONE', *, *, #922, .F. ) ;
#867 = CARTESIAN_POINT ( 'NONE',  ( -5.000000000000005329, 7.000000000000000000, 91.08326913195983821 ) ) ;
#868 = EDGE_CURVE ( 'NONE', #130, #634, #259, .T. ) ;
#869 = ORIENTED_EDGE ( 'NONE', *, *, #564, .F. ) ;
#870 = PLANE ( 'NONE',  #512 ) ;
#871 = EDGE_LOOP ( 'NONE', ( #535, #622, #228, #378, #136 ) ) ;
#872 = LINE ( 'NONE', #788, #319 ) ;
#873 = VERTEX_POINT ( 'NONE', #898 ) ;
#874 = CARTESIAN_POINT ( 'NONE',  ( 16.27984406797436989, 11.88118697877093588, 56.62485530486148377 ) ) ;
#875 = ADVANCED_FACE ( 'NONE', ( #250 ), #45, .F. ) ;
#876 = CARTESIAN_POINT ( 'NONE',  ( 5.931949643601205580, 45.61007465175423903, 54.67930138462664758 ) ) ;
#877 = UNCERTAINTY_MEASURE_WITH_UNIT (LENGTH_MEASURE( 1.000000000000000082E-05 ), #719, 'distance_accuracy_value', 'NONE');
#878 = VECTOR ( 'NONE', #565, 1000.000000000000000 ) ;
#879 = LINE ( 'NONE', #82, #588 ) ;
#880 = ORIENTED_EDGE ( 'NONE', *, *, #292, .F. ) ;
#881 = CARTESIAN_POINT ( 'NONE',  ( 10.56641786858247123, 6.999999999999999112, 69.19791047008934015 ) ) ;
#882 = DIRECTION ( 'NONE',  ( 0.000000000000000000, 1.000000000000000000, 0.000000000000000000 ) ) ;
#883 = EDGE_CURVE ( 'NONE', #706, #569, #47, .T. ) ;
#884 = FACE_OUTER_BOUND ( 'NONE', #723, .T. ) ;
#885 = ORIENTED_EDGE ( 'NONE', *, *, #112, .T. ) ;
#886 = CARTESIAN_POINT ( 'NONE',  ( 11.76031973592944979, 7.556457814534933703, 64.85488111057875926 ) ) ;
#887 = DIRECTION ( 'NONE',  ( -0.000000000000000000, -1.000000000000000000, 0.000000000000000000 ) ) ;
#888 = ORIENTED_EDGE ( 'NONE', *, *, #848, .F. ) ;
#889 = CARTESIAN_POINT ( 'NONE',  ( -4.192705365392776606, 43.26933099645425784, 54.84082713292697520 ) ) ;
#890 = DIRECTION ( 'NONE',  ( 0.000000000000000000, 0.000000000000000000, 1.000000000000000000 ) ) ;
#891 = AXIS2_PLACEMENT_3D ( 'NONE', #761, #178, #243 ) ;
#892 = CARTESIAN_POINT ( 'NONE',  ( -12.70415361028489620, 8.324369882029312606, 62.53798496925901418 ) ) ;
#893 = AXIS2_PLACEMENT_3D ( 'NONE', #398, #686, #902 ) ;
#894 = ORIENTED_EDGE ( 'NONE', *, *, #775, .T. ) ;
#895 = EDGE_CURVE ( 'NONE', #434, #192, #117, .T. ) ;
#896 = AXIS2_PLACEMENT_3D ( 'NONE', #391, #22, #812 ) ;
#897 = CARTESIAN_POINT ( 'NONE',  ( 5.991067731380072203, 50.00000000000000000, 54.67272727272727195 ) ) ;
#898 = CARTESIAN_POINT ( 'NONE',  ( -9.999999999999998224, 7.000000000000000000, 74.99999999999998579 ) ) ;
#899 = CIRCLE ( 'NONE', #333, 54.99999999999999289 ) ;
#900 = CARTESIAN_POINT ( 'NONE',  ( -22.54028855096770201, 18.57592583164755240, 50.58427176520622481 ) ) ;
#901 = ORIENTED_EDGE ( 'NONE', *, *, #775, .F. ) ;
#902 = DIRECTION ( 'NONE',  ( 0.000000000000000000, 0.000000000000000000, 1.000000000000000000 ) ) ;
#903 = EDGE_CURVE ( 'NONE', #62, #669, #652, .T. ) ;
#904 = CARTESIAN_POINT ( 'NONE',  ( -3.498227857143596520, 43.00000000000000000, 54.88863636363635834 ) ) ;
#905 = DIRECTION ( 'NONE',  ( -0.4999999999999982236, 0.000000000000000000, -0.8660254037844397068 ) ) ;
#906 = EDGE_CURVE ( 'NONE', #567, #68, #197, .T. ) ;
#907 = AXIS2_PLACEMENT_3D ( 'NONE', #110, #256, #543 ) ;
#908 = FACE_OUTER_BOUND ( 'NONE', #5, .T. ) ;
#909 = LINE ( 'NONE', #625, #590 ) ;
#910 = AXIS2_PLACEMENT_3D ( 'NONE', #642, #202, #637 ) ;
#911 = EDGE_LOOP ( 'NONE', ( #11, #548, #866, #743 ) ) ;
#912 = ADVANCED_FACE ( 'NONE', ( #428 ), #695, .F. ) ;
#913 = DIRECTION ( 'NONE',  ( 0.000000000000000000, 1.000000000000000000, 0.000000000000000000 ) ) ;
#914 = CARTESIAN_POINT ( 'NONE',  ( -8.572527594031484037E-16, 0.000000000000000000, 82.00000000000000000 ) ) ;
#915 = ORIENTED_EDGE ( 'NONE', *, *, #617, .T. ) ;
#916 = EDGE_CURVE ( 'NONE', #452, #374, #746, .T. ) ;
#917 = DIRECTION ( 'NONE',  ( -0.000000000000000000, -1.000000000000000000, -0.000000000000000000 ) ) ;
#918 = ADVANCED_FACE ( 'NONE', ( #558 ), #835, .T. ) ;
#919 = CARTESIAN_POINT ( 'NONE',  ( -8.572527594031484037E-16, 5.999999999999997335, 82.00000000000000000 ) ) ;
#920 = VERTEX_POINT ( 'NONE', #133 ) ;
#921 = CARTESIAN_POINT ( 'NONE',  ( 0.000000000000000000, 46.35410196624970780, 54.99999999999999289 ) ) ;
#922 = EDGE_CURVE ( 'NONE', #575, #68, #53, .T. ) ;
#923 = DIRECTION ( 'NONE',  ( 0.000000000000000000, 0.000000000000000000, 1.000000000000000000 ) ) ;
#924 = AXIS2_PLACEMENT_3D ( 'NONE', #309, #864, #653 ) ;
#925 = ORIENTED_EDGE ( 'NONE', *, *, #494, .F. ) ;
#926 = AXIS2_PLACEMENT_3D ( 'NONE', #165, #887, #175 ) ;
#927 = AXIS2_PLACEMENT_3D ( 'NONE', #750, #544, #687 ) ;
#928 = CARTESIAN_POINT ( 'NONE',  ( -8.572527594031484037E-16, 7.000000000000001776, 82.00000000000000000 ) ) ;
#929 = ORIENTED_EDGE ( 'NONE', *, *, #329, .F. ) ;
#930 = DIRECTION ( 'NONE',  ( 0.000000000000000000, 0.000000000000000000, 1.000000000000000000 ) ) ;
#931 = ORIENTED_EDGE ( 'NONE', *, *, #447, .F. ) ;
#932 = DIRECTION ( 'NONE',  ( 0.000000000000000000, 0.000000000000000000, 1.000000000000000000 ) ) ;
#933 = DIRECTION ( 'NONE',  ( 0.000000000000000000, 0.000000000000000000, 1.000000000000000000 ) ) ;
#934 = EDGE_LOOP ( 'NONE', ( #144, #805, #602, #436 ) ) ;
#935 = CARTESIAN_POINT ( 'NONE',  ( -8.572527594031484037E-16, 7.000000000000001776, 84.20000000000000284 ) ) ;
#936 = EDGE_CURVE ( 'NONE', #630, #23, #479, .T. ) ;
#937 = ORIENTED_EDGE ( 'NONE', *, *, #550, .F. ) ;
#938 = CARTESIAN_POINT ( 'NONE',  ( 5.991067731380073091, 43.00000000000000000, 54.67272727272727195 ) ) ;
#939 = CARTESIAN_POINT ( 'NONE',  ( 14.97917030192815702, 10.52522877417859171, 58.43847331239360443 ) ) ;
#940 = VECTOR ( 'NONE', #89, 1000.000000000000000 ) ;
#941 = DIRECTION ( 'NONE',  ( 0.000000000000000000, 0.000000000000000000, 1.000000000000000000 ) ) ;
ENDSEC;
END-ISO-10303-21;
