ISO-10303-21;
HEADER;
FILE_DESCRIPTION (( 'STEP AP214' ),
    '1' );
FILE_NAME ('ELP-0014.STEP',
    '2026-03-21T09:10:32',
    ( '' ),
    ( '' ),
    'SwSTEP 2.0',
    'SolidWorks 2024',
    '' );
FILE_SCHEMA (( 'AUTOMOTIVE_DESIGN' ));
ENDSEC;

DATA;
#1 = ORIENTED_EDGE ( 'NONE', *, *, #899, .F. ) ;
#2 = DIRECTION ( 'NONE',  ( -2.829022055911298322E-16, 1.000000000000000000, 0.000000000000000000 ) ) ;
#3 = ORIENTED_EDGE ( 'NONE', *, *, #202, .F. ) ;
#4 = DIRECTION ( 'NONE',  ( -1.000000000000000000, 0.000000000000000000, 0.000000000000000000 ) ) ;
#5 = FACE_OUTER_BOUND ( 'NONE', #441, .T. ) ;
#6 = DIRECTION ( 'NONE',  ( 1.000000000000000000, 3.552713678800500929E-15, 0.000000000000000000 ) ) ;
#7 = EDGE_LOOP ( 'NONE', ( #822, #28, #776, #352 ) ) ;
#8 = CARTESIAN_POINT ( 'NONE',  ( 6.106226635438359710E-14, 0.000000000000000000, -25.50000000000000000 ) ) ;
#9 = ORIENTED_EDGE ( 'NONE', *, *, #781, .T. ) ;
#10 = PLANE ( 'NONE',  #552 ) ;
#11 = ORIENTED_EDGE ( 'NONE', *, *, #408, .F. ) ;
#12 = AXIS2_PLACEMENT_3D ( 'NONE', #580, #854, #152 ) ;
#13 = ORIENTED_EDGE ( 'NONE', *, *, #453, .T. ) ;
#14 = AXIS2_PLACEMENT_3D ( 'NONE', #618, #192, #475 ) ;
#15 = CARTESIAN_POINT ( 'NONE',  ( -12.00000000000000000, -1.469576158976829864E-15, -15.50000000000000711 ) ) ;
#16 = CIRCLE ( 'NONE', #609, 18.49999999999993605 ) ;
#17 = AXIS2_PLACEMENT_3D ( 'NONE', #153, #79, #282 ) ;
#18 = CARTESIAN_POINT ( 'NONE',  ( 6.131883886702361508, -8.399999999999996803, -3.500000000000003109 ) ) ;
#19 = VECTOR ( 'NONE', #385, 1000.000000000000000 ) ;
#20 = DIRECTION ( 'NONE',  ( 0.000000000000000000, 0.000000000000000000, -1.000000000000000000 ) ) ;
#21 = ORIENTED_EDGE ( 'NONE', *, *, #115, .F. ) ;
#22 = CARTESIAN_POINT ( 'NONE',  ( -2.204364238465249627E-15, 12.00000000000000000, -23.50000000000000000 ) ) ;
#23 = EDGE_LOOP ( 'NONE', ( #319, #504, #32, #463, #710, #113, #528, #656 ) ) ;
#24 = DIRECTION ( 'NONE',  ( -0.000000000000000000, -0.000000000000000000, -1.000000000000000000 ) ) ;
#25 = ADVANCED_FACE ( 'NONE', ( #646 ), #294, .F. ) ;
#26 = CARTESIAN_POINT ( 'NONE',  ( -9.999999970197691823, -1.224646795497628917E-15, -15.50000000000000711 ) ) ;
#27 = AXIS2_PLACEMENT_3D ( 'NONE', #270, #248, #539 ) ;
#28 = ORIENTED_EDGE ( 'NONE', *, *, #886, .T. ) ;
#29 = LINE ( 'NONE', #233, #235 ) ;
#30 = CARTESIAN_POINT ( 'NONE',  ( -6.131883886702357955, -8.400000000000000355, -23.50000000000000000 ) ) ;
#31 = PRODUCT ( 'ELP-0014', 'ELP-0014', '', ( #80 ) ) ;
#32 = ORIENTED_EDGE ( 'NONE', *, *, #48, .F. ) ;
#33 = VECTOR ( 'NONE', #557, 1000.000000000000000 ) ;
#34 = LINE ( 'NONE', #869, #829 ) ;
#35 = DIRECTION ( 'NONE',  ( -2.829022055911300294E-16, -1.000000000000000000, 0.000000000000000000 ) ) ;
#36 = DIRECTION ( 'NONE',  ( 0.000000000000000000, 0.000000000000000000, 1.000000000000000000 ) ) ;
#37 = ADVANCED_FACE ( 'NONE', ( #785 ), #717, .F. ) ;
#38 = LINE ( 'NONE', #254, #120 ) ;
#39 = FACE_OUTER_BOUND ( 'NONE', #510, .T. ) ;
#40 = CIRCLE ( 'NONE', #751, 2.000000029802309953 ) ;
#41 = VECTOR ( 'NONE', #876, 1000.000000000000000 ) ;
#42 = DIRECTION ( 'NONE',  ( -0.000000000000000000, -0.000000000000000000, -1.000000000000000000 ) ) ;
#43 = CARTESIAN_POINT ( 'NONE',  ( 18.50000000000003197, 2.265596578422599452E-15, -3.499999999999999556 ) ) ;
#44 = CYLINDRICAL_SURFACE ( 'NONE', #794, 2.000000029802309065 ) ;
#45 = EDGE_CURVE ( 'NONE', #852, #632, #749, .T. ) ;
#46 = DIRECTION ( 'NONE',  ( -1.000000000000000000, 0.000000000000000000, 0.000000000000000000 ) ) ;
#47 = EDGE_LOOP ( 'NONE', ( #305, #21 ) ) ;
#48 = EDGE_CURVE ( 'NONE', #891, #287, #671, .T. ) ;
#49 = PLANE ( 'NONE',  #312 ) ;
#50 = AXIS2_PLACEMENT_3D ( 'NONE', #342, #277, #625 ) ;
#51 = DIRECTION ( 'NONE',  ( -1.000000000000000000, 0.000000000000000000, 0.000000000000000000 ) ) ;
#52 = CARTESIAN_POINT ( 'NONE',  ( -8.399999999999996803, -6.131883886702361508, -23.50000000000000000 ) ) ;
#53 = CARTESIAN_POINT ( 'NONE',  ( 2.000000029802305956, 12.00000000000000000, -15.50000000000000711 ) ) ;
#54 = AXIS2_PLACEMENT_3D ( 'NONE', #563, #276, #650 ) ;
#55 = DIRECTION ( 'NONE',  ( -0.000000000000000000, -0.000000000000000000, -1.000000000000000000 ) ) ;
#56 = ORIENTED_EDGE ( 'NONE', *, *, #555, .F. ) ;
#57 = EDGE_CURVE ( 'NONE', #810, #203, #38, .T. ) ;
#58 = CARTESIAN_POINT ( 'NONE',  ( 16.30000000000006466, 0.000000000000000000, -25.50000000000000000 ) ) ;
#59 = DIRECTION ( 'NONE',  ( 0.000000000000000000, 0.000000000000000000, -1.000000000000000000 ) ) ;
#60 = ORIENTED_EDGE ( 'NONE', *, *, #853, .T. ) ;
#61 = AXIS2_PLACEMENT_3D ( 'NONE', #272, #831, #199 ) ;
#62 = ORIENTED_EDGE ( 'NONE', *, *, #726, .T. ) ;
#63 = FILL_AREA_STYLE ('',( #211 ) ) ;
#64 = CIRCLE ( 'NONE', #605, 15.99999999999994138 ) ;
#65 = ORIENTED_EDGE ( 'NONE', *, *, #836, .F. ) ;
#66 = CARTESIAN_POINT ( 'NONE',  ( 18.50000000000000000, 2.265596578422597480E-15, -16.50000000000000000 ) ) ;
#67 = ORIENTED_EDGE ( 'NONE', *, *, #344, .F. ) ;
#68 = EDGE_CURVE ( 'NONE', #451, #602, #540, .T. ) ;
#69 = PRESENTATION_STYLE_ASSIGNMENT (( #495 ) ) ;
#70 = CARTESIAN_POINT ( 'NONE',  ( 0.000000000000000000, 0.000000000000000000, -3.500000000000003109 ) ) ;
#71 = ORIENTED_EDGE ( 'NONE', *, *, #879, .F. ) ;
#72 = ORIENTED_EDGE ( 'NONE', *, *, #836, .T. ) ;
#73 =( NAMED_UNIT ( * ) PLANE_ANGLE_UNIT ( ) SI_UNIT ( $, .RADIAN. ) );
#74 = CARTESIAN_POINT ( 'NONE',  ( 12.00000000000000000, 0.000000000000000000, -23.50000000000000000 ) ) ;
#75 = DIRECTION ( 'NONE',  ( 1.000000000000000000, 0.000000000000000000, -0.000000000000000000 ) ) ;
#76 = ORIENTED_EDGE ( 'NONE', *, *, #657, .T. ) ;
#77 = CIRCLE ( 'NONE', #575, 2.000000029802308177 ) ;
#78 = CARTESIAN_POINT ( 'NONE',  ( 6.106226635438359710E-14, 0.000000000000000000, -25.50000000000000000 ) ) ;
#79 = DIRECTION ( 'NONE',  ( -0.000000000000000000, -0.000000000000000000, -1.000000000000000000 ) ) ;
#80 = PRODUCT_CONTEXT ( 'NONE', #226, 'mechanical' ) ;
#81 = VERTEX_POINT ( 'NONE', #53 ) ;
#82 = AXIS2_PLACEMENT_3D ( 'NONE', #591, #738, #601 ) ;
#83 = DIRECTION ( 'NONE',  ( 0.000000000000000000, 0.000000000000000000, 1.000000000000000000 ) ) ;
#84 = ORIENTED_EDGE ( 'NONE', *, *, #168, .T. ) ;
#85 = LINE ( 'NONE', #792, #748 ) ;
#86 = SHAPE_DEFINITION_REPRESENTATION ( #766, #512 ) ;
#87 = LINE ( 'NONE', #154, #868 ) ;
#88 = CIRCLE ( 'NONE', #222, 10.40000000000000213 ) ;
#89 = ORIENTED_EDGE ( 'NONE', *, *, #599, .F. ) ;
#90 = LINE ( 'NONE', #883, #815 ) ;
#91 = ADVANCED_FACE ( 'NONE', ( #626 ), #183, .F. ) ;
#92 = ORIENTED_EDGE ( 'NONE', *, *, #45, .F. ) ;
#93 = FACE_BOUND ( 'NONE', #716, .T. ) ;
#94 = VERTEX_POINT ( 'NONE', #274 ) ;
#95 = ADVANCED_FACE ( 'NONE', ( #291 ), #431, .T. ) ;
#96 = CARTESIAN_POINT ( 'NONE',  ( 2.000000029802306845, 12.00000000000000000, -23.50000000000000000 ) ) ;
#97 = VECTOR ( 'NONE', #103, 1000.000000000000000 ) ;
#98 = ORIENTED_EDGE ( 'NONE', *, *, #631, .F. ) ;
#99 = ADVANCED_FACE ( 'NONE', ( #278 ), #200, .F. ) ;
#100 = CARTESIAN_POINT ( 'NONE',  ( 0.000000000000000000, 0.000000000000000000, -23.50000000000000000 ) ) ;
#101 = VECTOR ( 'NONE', #122, 1000.000000000000000 ) ;
#102 = VERTEX_POINT ( 'NONE', #424 ) ;
#103 = DIRECTION ( 'NONE',  ( 0.000000000000000000, 0.000000000000000000, -1.000000000000000000 ) ) ;
#104 = CARTESIAN_POINT ( 'NONE',  ( -12.00000000000000000, -1.469576158976829864E-15, -23.50000000000000000 ) ) ;
#105 = CARTESIAN_POINT ( 'NONE',  ( 8.400000000000002132, 6.131883886702354403, -3.500000000000003109 ) ) ;
#106 = DIRECTION ( 'NONE',  ( -1.000000000000000000, 0.000000000000000000, 0.000000000000000000 ) ) ;
#107 = ADVANCED_FACE ( 'NONE', ( #851 ), #570, .T. ) ;
#108 = DIRECTION ( 'NONE',  ( 0.000000000000000000, -0.000000000000000000, 1.000000000000000000 ) ) ;
#109 = ORIENTED_EDGE ( 'NONE', *, *, #899, .T. ) ;
#110 = AXIS2_PLACEMENT_3D ( 'NONE', #734, #597, #241 ) ;
#111 = FACE_OUTER_BOUND ( 'NONE', #865, .T. ) ;
#112 = PRESENTATION_LAYER_ASSIGNMENT (  '', '', ( #330 ) ) ;
#113 = ORIENTED_EDGE ( 'NONE', *, *, #142, .F. ) ;
#114 = CIRCLE ( 'NONE', #506, 2.000000029802308177 ) ;
#115 = EDGE_CURVE ( 'NONE', #425, #780, #264, .T. ) ;
#116 = PLANE ( 'NONE',  #27 ) ;
#117 = CARTESIAN_POINT ( 'NONE',  ( -2.000000029802309065, -12.00000000000000000, -23.50000000000000000 ) ) ;
#118 = LINE ( 'NONE', #894, #758 ) ;
#119 = PLANE ( 'NONE',  #547 ) ;
#120 = VECTOR ( 'NONE', #249, 1000.000000000000000 ) ;
#121 = AXIS2_PLACEMENT_3D ( 'NONE', #718, #850, #509 ) ;
#122 = DIRECTION ( 'NONE',  ( 0.000000000000000000, 0.000000000000000000, 1.000000000000000000 ) ) ;
#123 = AXIS2_PLACEMENT_3D ( 'NONE', #811, #182, #889 ) ;
#124 = ADVANCED_FACE ( 'NONE', ( #531 ), #171, .F. ) ;
#125 = CARTESIAN_POINT ( 'NONE',  ( -14.00000002980230818, -1.469576158976829864E-15, -15.50000000000000711 ) ) ;
#126 = ORIENTED_EDGE ( 'NONE', *, *, #669, .T. ) ;
#127 = CARTESIAN_POINT ( 'NONE',  ( 2.000000029802309953, -12.00000000000000000, -23.50000000000000000 ) ) ;
#128 = VECTOR ( 'NONE', #55, 1000.000000000000000 ) ;
#129 = LINE ( 'NONE', #363, #771 ) ;
#130 = VERTEX_POINT ( 'NONE', #689 ) ;
#131 = FACE_OUTER_BOUND ( 'NONE', #416, .T. ) ;
#132 = DIRECTION ( 'NONE',  ( -0.000000000000000000, -0.000000000000000000, -1.000000000000000000 ) ) ;
#133 = EDGE_CURVE ( 'NONE', #102, #810, #517, .T. ) ;
#134 = CIRCLE ( 'NONE', #123, 18.50000000000000000 ) ;
#135 = ORIENTED_EDGE ( 'NONE', *, *, #283, .T. ) ;
#136 = CARTESIAN_POINT ( 'NONE',  ( -8.399999999999996803, -6.131883886702361508, -3.500000000000003109 ) ) ;
#137 = VERTEX_POINT ( 'NONE', #844 ) ;
#138 = DIRECTION ( 'NONE',  ( -1.000000000000000000, 0.000000000000000000, 0.000000000000000000 ) ) ;
#139 = DIRECTION ( 'NONE',  ( 0.000000000000000000, 0.000000000000000000, 1.000000000000000000 ) ) ;
#140 = EDGE_LOOP ( 'NONE', ( #65, #71 ) ) ;
#141 = DIRECTION ( 'NONE',  ( -1.000000000000000000, 0.000000000000000000, -0.000000000000000000 ) ) ;
#142 = EDGE_CURVE ( 'NONE', #146, #144, #353, .T. ) ;
#143 = DIRECTION ( 'NONE',  ( -0.000000000000000000, -0.000000000000000000, -1.000000000000000000 ) ) ;
#144 = VERTEX_POINT ( 'NONE', #207 ) ;
#145 = CARTESIAN_POINT ( 'NONE',  ( -16.29999999999994031, 1.996174282610185991E-15, -25.50000000000000000 ) ) ;
#146 = VERTEX_POINT ( 'NONE', #628 ) ;
#147 = AXIS2_PLACEMENT_3D ( 'NONE', #240, #804, #393 ) ;
#148 = ADVANCED_FACE ( 'NONE', ( #131 ), #422, .F. ) ;
#149 = CIRCLE ( 'NONE', #404, 2.000000029802309953 ) ;
#150 = ORIENTED_EDGE ( 'NONE', *, *, #133, .F. ) ;
#151 = EDGE_LOOP ( 'NONE', ( #861, #882 ) ) ;
#152 = DIRECTION ( 'NONE',  ( -1.000000000000000000, 0.000000000000000000, 0.000000000000000000 ) ) ;
#153 = CARTESIAN_POINT ( 'NONE',  ( -12.00000000000000000, -1.469576158976829864E-15, -23.50000000000000000 ) ) ;
#154 = CARTESIAN_POINT ( 'NONE',  ( -2.000000029802308177, -12.00000000000000000, -23.50000000000000000 ) ) ;
#155 = DIRECTION ( 'NONE',  ( 1.000000000000000000, -2.829022055911300294E-16, 0.000000000000000000 ) ) ;
#156 = DIRECTION ( 'NONE',  ( 0.000000000000000000, 0.000000000000000000, 1.000000000000000000 ) ) ;
#157 = CARTESIAN_POINT ( 'NONE',  ( -8.399999999999996803, -6.131883886702361508, -23.50000000000000000 ) ) ;
#158 = DIRECTION ( 'NONE',  ( 1.000000000000000000, 0.000000000000000000, 0.000000000000000000 ) ) ;
#159 = AXIS2_PLACEMENT_3D ( 'NONE', #218, #655, #783 ) ;
#160 = ADVANCED_FACE ( 'NONE', ( #184 ), #116, .F. ) ;
#161 = DIRECTION ( 'NONE',  ( 0.000000000000000000, 0.000000000000000000, -1.000000000000000000 ) ) ;
#162 = ORIENTED_EDGE ( 'NONE', *, *, #57, .T. ) ;
#163 = AXIS2_PLACEMENT_3D ( 'NONE', #15, #421, #138 ) ;
#164 = CARTESIAN_POINT ( 'NONE',  ( -1.224646799147347734E-15, -12.00000000000000000, -15.50000000000000711 ) ) ;
#165 = EDGE_CURVE ( 'NONE', #360, #801, #129, .T. ) ;
#166 = LINE ( 'NONE', #325, #41 ) ;
#167 = ORIENTED_EDGE ( 'NONE', *, *, #890, .F. ) ;
#168 = EDGE_CURVE ( 'NONE', #801, #232, #665, .T. ) ;
#169 = CLOSED_SHELL ( 'NONE', ( #529, #124, #25, #695, #91, #197, #95, #677, #577, #439, #797, #107, #337, #355, #753, #827, #653, #614, #160, #372, #255, #333, #37, #148, #732, #214, #643, #427, #290, #99, #318 ) ) ;
#170 = CARTESIAN_POINT ( 'NONE',  ( 0.000000000000000000, 0.000000000000000000, -3.500000000000003109 ) ) ;
#171 = CYLINDRICAL_SURFACE ( 'NONE', #686, 2.000000029802309065 ) ;
#172 = VERTEX_POINT ( 'NONE', #331 ) ;
#173 = LINE ( 'NONE', #442, #406 ) ;
#174 = AXIS2_PLACEMENT_3D ( 'NONE', #74, #371, #569 ) ;
#175 = EDGE_CURVE ( 'NONE', #707, #130, #320, .T. ) ;
#176 = FACE_OUTER_BOUND ( 'NONE', #639, .T. ) ;
#177 = CARTESIAN_POINT ( 'NONE',  ( 14.00000002980230995, 2.449293634792011442E-16, -23.50000000000000000 ) ) ;
#178 = EDGE_LOOP ( 'NONE', ( #641, #376, #356, #150 ) ) ;
#179 = CARTESIAN_POINT ( 'NONE',  ( -9.999999970197691823, -1.224646795497628917E-15, -23.50000000000000000 ) ) ;
#180 = CARTESIAN_POINT ( 'NONE',  ( -15.99999999999987921, 0.000000000000000000, -13.99999999999999822 ) ) ;
#181 = ORIENTED_EDGE ( 'NONE', *, *, #549, .T. ) ;
#182 = DIRECTION ( 'NONE',  ( 0.000000000000000000, 0.000000000000000000, -1.000000000000000000 ) ) ;
#183 = CYLINDRICAL_SURFACE ( 'NONE', #721, 16.30000000000000071 ) ;
#184 = FACE_OUTER_BOUND ( 'NONE', #224, .T. ) ;
#185 = LINE ( 'NONE', #897, #33 ) ;
#186 = EDGE_CURVE ( 'NONE', #898, #144, #338, .T. ) ;
#187 = AXIS2_PLACEMENT_3D ( 'NONE', #765, #691, #407 ) ;
#188 = AXIS2_PLACEMENT_3D ( 'NONE', #170, #388, #611 ) ;
#189 = DIRECTION ( 'NONE',  ( -1.000000000000000000, 0.000000000000000000, 0.000000000000000000 ) ) ;
#190 = CARTESIAN_POINT ( 'NONE',  ( 9.999999970197691823, 0.000000000000000000, -15.50000000000000711 ) ) ;
#191 = EDGE_CURVE ( 'NONE', #451, #209, #772, .T. ) ;
#192 = DIRECTION ( 'NONE',  ( 0.000000000000000000, 0.000000000000000000, -1.000000000000000000 ) ) ;
#193 = CYLINDRICAL_SURFACE ( 'NONE', #267, 15.99999999999993783 ) ;
#194 = CARTESIAN_POINT ( 'NONE',  ( -12.00000000000000178, -1.469576158976829864E-15, -15.50000000000000711 ) ) ;
#195 = UNCERTAINTY_MEASURE_WITH_UNIT (LENGTH_MEASURE( 1.000000000000000082E-05 ), #472, 'distance_accuracy_value', 'NONE');
#196 = CYLINDRICAL_SURFACE ( 'NONE', #556, 2.000000029802309065 ) ;
#197 = ADVANCED_FACE ( 'NONE', ( #491 ), #354, .T. ) ;
#198 = DIRECTION ( 'NONE',  ( -1.000000000000000000, 0.000000000000000000, 0.000000000000000000 ) ) ;
#199 = DIRECTION ( 'NONE',  ( 1.000000000000000000, 0.000000000000000000, -0.000000000000000000 ) ) ;
#200 = PLANE ( 'NONE',  #830 ) ;
#201 = ORIENTED_EDGE ( 'NONE', *, *, #68, .F. ) ;
#202 = EDGE_CURVE ( 'NONE', #307, #723, #701, .T. ) ;
#203 = VERTEX_POINT ( 'NONE', #52 ) ;
#204 = AXIS2_PLACEMENT_3D ( 'NONE', #623, #379, #366 ) ;
#205 = CIRCLE ( 'NONE', #870, 16.30000000000000071 ) ;
#206 = VERTEX_POINT ( 'NONE', #685 ) ;
#207 = CARTESIAN_POINT ( 'NONE',  ( -6.131883886702351738, 8.400000000000002132, -23.50000000000000000 ) ) ;
#208 = CARTESIAN_POINT ( 'NONE',  ( 11.99999999999999822, 0.000000000000000000, -15.50000000000000711 ) ) ;
#209 = VERTEX_POINT ( 'NONE', #125 ) ;
#210 = EDGE_LOOP ( 'NONE', ( #548, #109 ) ) ;
#211 = FILL_AREA_STYLE_COLOUR ( '', #728 ) ;
#212 = LINE ( 'NONE', #647, #690 ) ;
#213 = ORIENTED_EDGE ( 'NONE', *, *, #311, .T. ) ;
#214 = ADVANCED_FACE ( 'NONE', ( #336 ), #49, .F. ) ;
#215 = VERTEX_POINT ( 'NONE', #190 ) ;
#216 = DIRECTION ( 'NONE',  ( 1.000000000000000000, -2.829022055911300294E-16, 0.000000000000000000 ) ) ;
#217 = AXIS2_PLACEMENT_3D ( 'NONE', #245, #108, #396 ) ;
#218 = CARTESIAN_POINT ( 'NONE',  ( 7.347880794884160165E-16, -12.00000000000000000, -23.50000000000000000 ) ) ;
#219 = ORIENTED_EDGE ( 'NONE', *, *, #473, .T. ) ;
#220 = CARTESIAN_POINT ( 'NONE',  ( 6.106226635438359710E-14, 0.000000000000000000, -25.50000000000000000 ) ) ;
#221 = EDGE_LOOP ( 'NONE', ( #767, #664 ) ) ;
#222 = AXIS2_PLACEMENT_3D ( 'NONE', #436, #769, #640 ) ;
#223 = CARTESIAN_POINT ( 'NONE',  ( 8.400000000000002132, 6.131883886702353514, -3.500000000000003109 ) ) ;
#224 = EDGE_LOOP ( 'NONE', ( #725, #252, #888, #735 ) ) ;
#225 = DIRECTION ( 'NONE',  ( -1.000000000000000000, 0.000000000000000000, 0.000000000000000000 ) ) ;
#226 = APPLICATION_CONTEXT ( 'automotive_design' ) ;
#227 = ORIENTED_EDGE ( 'NONE', *, *, #747, .T. ) ;
#228 = EDGE_CURVE ( 'NONE', #81, #877, #387, .T. ) ;
#229 = ORIENTED_EDGE ( 'NONE', *, *, #813, .F. ) ;
#230 = DIRECTION ( 'NONE',  ( 0.000000000000000000, 0.000000000000000000, 1.000000000000000000 ) ) ;
#231 = ORIENTED_EDGE ( 'NONE', *, *, #620, .T. ) ;
#232 = VERTEX_POINT ( 'NONE', #896 ) ;
#233 = CARTESIAN_POINT ( 'NONE',  ( -6.131883886702351738, 8.400000000000002132, -23.50000000000000000 ) ) ;
#234 = CIRCLE ( 'NONE', #885, 10.40000000000000213 ) ;
#235 = VECTOR ( 'NONE', #155, 1000.000000000000000 ) ;
#236 = EDGE_CURVE ( 'NONE', #433, #203, #247, .T. ) ;
#237 = CARTESIAN_POINT ( 'NONE',  ( 6.106226635438359710E-14, 0.000000000000000000, -13.99999999999999822 ) ) ;
#238 = FACE_OUTER_BOUND ( 'NONE', #490, .T. ) ;
#239 = DIRECTION ( 'NONE',  ( 0.000000000000000000, 0.000000000000000000, 1.000000000000000000 ) ) ;
#240 = CARTESIAN_POINT ( 'NONE',  ( 6.106226635438359710E-14, 0.000000000000000000, -3.500000000000003109 ) ) ;
#241 = DIRECTION ( 'NONE',  ( -1.000000000000000000, 0.000000000000000000, 0.000000000000000000 ) ) ;
#242 = ORIENTED_EDGE ( 'NONE', *, *, #709, .T. ) ;
#243 = EDGE_CURVE ( 'NONE', #429, #571, #471, .T. ) ;
#244 = DIRECTION ( 'NONE',  ( -0.000000000000000000, -0.000000000000000000, -1.000000000000000000 ) ) ;
#245 = CARTESIAN_POINT ( 'NONE',  ( 16.00000000000000000, 0.000000000000000000, -3.500000000000001332 ) ) ;
#246 = VERTEX_POINT ( 'NONE', #756 ) ;
#247 = CIRCLE ( 'NONE', #275, 10.40000000000000036 ) ;
#248 = DIRECTION ( 'NONE',  ( 2.829022055911300294E-16, 1.000000000000000000, -0.000000000000000000 ) ) ;
#249 = DIRECTION ( 'NONE',  ( -0.000000000000000000, -0.000000000000000000, -1.000000000000000000 ) ) ;
#250 = DIRECTION ( 'NONE',  ( -1.000000000000000000, 0.000000000000000000, 0.000000000000000000 ) ) ;
#251 = CIRCLE ( 'NONE', #204, 2.000000029802308177 ) ;
#252 = ORIENTED_EDGE ( 'NONE', *, *, #872, .T. ) ;
#253 = DIRECTION ( 'NONE',  ( 0.7071067811865465735, 8.659560562354921765E-17, -0.7071067811865484609 ) ) ;
#254 = CARTESIAN_POINT ( 'NONE',  ( -8.399999999999996803, -6.131883886702361508, -3.500000000000003109 ) ) ;
#255 = ADVANCED_FACE ( 'NONE', ( #754 ), #119, .F. ) ;
#256 = FACE_OUTER_BOUND ( 'NONE', #384, .T. ) ;
#257 = APPLICATION_CONTEXT ( 'automotive_design' ) ;
#258 = ORIENTED_EDGE ( 'NONE', *, *, #283, .F. ) ;
#259 = CARTESIAN_POINT ( 'NONE',  ( 8.400000000000002132, 6.131883886702353514, -3.500000000000003109 ) ) ;
#260 = DIRECTION ( 'NONE',  ( -1.000000000000000000, 0.000000000000000000, 0.000000000000000000 ) ) ;
#261 = EDGE_CURVE ( 'NONE', #859, #752, #444, .T. ) ;
#262 = DIRECTION ( 'NONE',  ( -0.000000000000000000, -0.000000000000000000, -1.000000000000000000 ) ) ;
#263 = ORIENTED_EDGE ( 'NONE', *, *, #165, .T. ) ;
#264 = CIRCLE ( 'NONE', #110, 2.000000029802309953 ) ;
#265 = AXIS2_PLACEMENT_3D ( 'NONE', #809, #462, #106 ) ;
#266 = CARTESIAN_POINT ( 'NONE',  ( 0.000000000000000000, 0.000000000000000000, -23.50000000000000000 ) ) ;
#267 = AXIS2_PLACEMENT_3D ( 'NONE', #895, #477, #198 ) ;
#268 = EDGE_CURVE ( 'NONE', #307, #102, #706, .T. ) ;
#269 = FACE_OUTER_BOUND ( 'NONE', #455, .T. ) ;
#270 = CARTESIAN_POINT ( 'NONE',  ( -6.131883886702351738, 8.400000000000002132, -3.500000000000003109 ) ) ;
#271 = LINE ( 'NONE', #58, #101 ) ;
#272 = CARTESIAN_POINT ( 'NONE',  ( -4.163799117101013181E-15, 12.00000000000000000, -15.50000000000000711 ) ) ;
#273 = FACE_OUTER_BOUND ( 'NONE', #712, .T. ) ;
#274 = CARTESIAN_POINT ( 'NONE',  ( 14.00000002980230818, 2.449293634792008977E-16, -15.50000000000000711 ) ) ;
#275 = AXIS2_PLACEMENT_3D ( 'NONE', #266, #564, #892 ) ;
#276 = DIRECTION ( 'NONE',  ( -0.000000000000000000, -0.000000000000000000, -1.000000000000000000 ) ) ;
#277 = DIRECTION ( 'NONE',  ( -0.000000000000000000, -0.000000000000000000, -1.000000000000000000 ) ) ;
#278 = FACE_OUTER_BOUND ( 'NONE', #221, .T. ) ;
#279 = ORIENTED_EDGE ( 'NONE', *, *, #261, .T. ) ;
#280 = CARTESIAN_POINT ( 'NONE',  ( -8.400000000000002132, 6.131883886702357955, -3.500000000000001332 ) ) ;
#281 = EDGE_LOOP ( 'NONE', ( #201, #98, #365, #135 ) ) ;
#282 = DIRECTION ( 'NONE',  ( -1.000000000000000000, 0.000000000000000000, 0.000000000000000000 ) ) ;
#283 = EDGE_CURVE ( 'NONE', #206, #602, #412, .T. ) ;
#284 = DIRECTION ( 'NONE',  ( -0.000000000000000000, -0.000000000000000000, -1.000000000000000000 ) ) ;
#285 = DIRECTION ( 'NONE',  ( 1.000000000000000000, 0.000000000000000000, 0.000000000000000000 ) ) ;
#286 = EDGE_LOOP ( 'NONE', ( #162, #791, #415, #492 ) ) ;
#287 = VERTEX_POINT ( 'NONE', #423 ) ;
#288 = FACE_OUTER_BOUND ( 'NONE', #449, .T. ) ;
#289 = FACE_OUTER_BOUND ( 'NONE', #702, .T. ) ;
#290 = ADVANCED_FACE ( 'NONE', ( #289 ), #358, .F. ) ;
#291 = FACE_OUTER_BOUND ( 'NONE', #515, .T. ) ;
#292 = ORIENTED_EDGE ( 'NONE', *, *, #631, .T. ) ;
#293 = AXIS2_PLACEMENT_3D ( 'NONE', #642, #341, #624 ) ;
#294 = CYLINDRICAL_SURFACE ( 'NONE', #12, 2.000000029802308177 ) ;
#295 = DIRECTION ( 'NONE',  ( 1.000000000000000000, 0.000000000000000000, 0.000000000000000000 ) ) ;
#296 = AXIS2_PLACEMENT_3D ( 'NONE', #328, #36, #874 ) ;
#297 = DIRECTION ( 'NONE',  ( 0.000000000000000000, 0.000000000000000000, 1.000000000000000000 ) ) ;
#298 = DIRECTION ( 'NONE',  ( -1.000000000000000000, 0.000000000000000000, 0.000000000000000000 ) ) ;
#299 = ORIENTED_EDGE ( 'NONE', *, *, #890, .T. ) ;
#300 = AXIS2_PLACEMENT_3D ( 'NONE', #340, #679, #346 ) ;
#301 = EDGE_CURVE ( 'NONE', #780, #425, #40, .T. ) ;
#302 = ORIENTED_EDGE ( 'NONE', *, *, #683, .T. ) ;
#303 = CYLINDRICAL_SURFACE ( 'NONE', #17, 2.000000029802308177 ) ;
#304 = FACE_BOUND ( 'NONE', #560, .T. ) ;
#305 = ORIENTED_EDGE ( 'NONE', *, *, #301, .F. ) ;
#306 = EDGE_CURVE ( 'NONE', #898, #467, #502, .T. ) ;
#307 = VERTEX_POINT ( 'NONE', #18 ) ;
#308 = DIRECTION ( 'NONE',  ( -0.000000000000000000, -0.000000000000000000, -1.000000000000000000 ) ) ;
#309 = ORIENTED_EDGE ( 'NONE', *, *, #813, .T. ) ;
#310 = CYLINDRICAL_SURFACE ( 'NONE', #324, 15.99999999999993783 ) ;
#311 = EDGE_CURVE ( 'NONE', #752, #501, #87, .T. ) ;
#312 = AXIS2_PLACEMENT_3D ( 'NONE', #194, #837, #616 ) ;
#313 = LINE ( 'NONE', #96, #377 ) ;
#314 = ORIENTED_EDGE ( 'NONE', *, *, #327, .T. ) ;
#315 = CARTESIAN_POINT ( 'NONE',  ( -2.000000029802310397, 12.00000000000000000, -15.50000000000000711 ) ) ;
#316 = UNCERTAINTY_MEASURE_WITH_UNIT (LENGTH_MEASURE( 1.000000000000000082E-05 ), #786, 'distance_accuracy_value', 'NONE');
#317 = CARTESIAN_POINT ( 'NONE',  ( -15.99999999999987566, 0.000000000000000000, -3.500000000000003109 ) ) ;
#318 = ADVANCED_FACE ( 'NONE', ( #5 ), #715, .F. ) ;
#319 = ORIENTED_EDGE ( 'NONE', *, *, #522, .F. ) ;
#320 = LINE ( 'NONE', #259, #807 ) ;
#321 = CARTESIAN_POINT ( 'NONE',  ( -2.204364238465249627E-15, 12.00000000000000000, -15.50000000000000711 ) ) ;
#322 = FACE_OUTER_BOUND ( 'NONE', #7, .T. ) ;
#323 = EDGE_LOOP ( 'NONE', ( #314, #713, #720, #796 ) ) ;
#324 = AXIS2_PLACEMENT_3D ( 'NONE', #526, #803, #603 ) ;
#325 = CARTESIAN_POINT ( 'NONE',  ( -6.131883886702357955, -8.400000000000000355, -3.500000000000003109 ) ) ;
#326 = CARTESIAN_POINT ( 'NONE',  ( 16.00000000000000000, 1.959434878635757637E-15, -3.499999999999999556 ) ) ;
#327 = EDGE_CURVE ( 'NONE', #467, #842, #212, .T. ) ;
#328 = CARTESIAN_POINT ( 'NONE',  ( 6.106226635438359710E-14, 0.000000000000000000, -23.50000000000000000 ) ) ;
#329 = ORIENTED_EDGE ( 'NONE', *, *, #191, .F. ) ;
#330 = STYLED_ITEM ( 'NONE', ( #69 ), #661 ) ;
#331 = CARTESIAN_POINT ( 'NONE',  ( -18.49999999999987566, 0.000000000000000000, -16.50000000000000000 ) ) ;
#332 = CARTESIAN_POINT ( 'NONE',  ( 6.106226635438359710E-14, 0.000000000000000000, -25.50000000000000000 ) ) ;
#333 = ADVANCED_FACE ( 'NONE', ( #375, #440, #304, #496, #399, #663 ), #672, .F. ) ;
#334 = CARTESIAN_POINT ( 'NONE',  ( 7.347880794884160165E-16, -12.00000000000000000, -23.50000000000000000 ) ) ;
#335 = ORIENTED_EDGE ( 'NONE', *, *, #588, .F. ) ;
#336 = FACE_OUTER_BOUND ( 'NONE', #513, .T. ) ;
#337 = ADVANCED_FACE ( 'NONE', ( #322 ), #535, .T. ) ;
#338 = LINE ( 'NONE', #759, #518 ) ;
#339 = VECTOR ( 'NONE', #681, 1000.000000000000000 ) ;
#340 = CARTESIAN_POINT ( 'NONE',  ( 6.106226635438359710E-14, 0.000000000000000000, -25.50000000000000000 ) ) ;
#341 = DIRECTION ( 'NONE',  ( -0.000000000000000000, -0.000000000000000000, -1.000000000000000000 ) ) ;
#342 = CARTESIAN_POINT ( 'NONE',  ( -2.204364238465249627E-15, 12.00000000000000000, -15.50000000000000711 ) ) ;
#343 = AXIS2_PLACEMENT_3D ( 'NONE', #368, #698, #493 ) ;
#344 = EDGE_CURVE ( 'NONE', #389, #172, #800, .T. ) ;
#345 = AXIS2_PLACEMENT_3D ( 'NONE', #736, #390, #741 ) ;
#346 = DIRECTION ( 'NONE',  ( -1.000000000000000000, 0.000000000000000000, 0.000000000000000000 ) ) ;
#347 = DIRECTION ( 'NONE',  ( 0.000000000000000000, 0.000000000000000000, -1.000000000000000000 ) ) ;
#348 = ORIENTED_EDGE ( 'NONE', *, *, #311, .F. ) ;
#349 = LINE ( 'NONE', #619, #740 ) ;
#350 = DIRECTION ( 'NONE',  ( 2.829022055911298815E-16, -1.000000000000000000, 0.000000000000000000 ) ) ;
#351 = CIRCLE ( 'NONE', #468, 2.000000029802309953 ) ;
#352 = ORIENTED_EDGE ( 'NONE', *, *, #747, .F. ) ;
#353 = CIRCLE ( 'NONE', #293, 10.40000000000000036 ) ;
#354 = CONICAL_SURFACE ( 'NONE', #187, 18.49999999999993605, 0.7853981633974469467 ) ;
#355 = ADVANCED_FACE ( 'NONE', ( #450 ), #542, .F. ) ;
#356 = ORIENTED_EDGE ( 'NONE', *, *, #57, .F. ) ;
#357 = SURFACE_SIDE_STYLE ('',( #777 ) ) ;
#358 = CYLINDRICAL_SURFACE ( 'NONE', #159, 2.000000029802309065 ) ;
#359 = DIRECTION ( 'NONE',  ( 0.000000000000000000, 0.000000000000000000, -1.000000000000000000 ) ) ;
#360 = VERTEX_POINT ( 'NONE', #743 ) ;
#361 = DIRECTION ( 'NONE',  ( 0.000000000000000000, 0.000000000000000000, -1.000000000000000000 ) ) ;
#362 = AXIS2_PLACEMENT_3D ( 'NONE', #687, #755, #51 ) ;
#363 = CARTESIAN_POINT ( 'NONE',  ( 18.50000000000000000, 2.265596578422595902E-15, -16.50000000000000000 ) ) ;
#364 = CIRCLE ( 'NONE', #840, 16.30000000000000071 ) ;
#365 = ORIENTED_EDGE ( 'NONE', *, *, #662, .T. ) ;
#366 = DIRECTION ( 'NONE',  ( -1.000000000000000000, 0.000000000000000000, 0.000000000000000000 ) ) ;
#367 = VERTEX_POINT ( 'NONE', #317 ) ;
#368 = CARTESIAN_POINT ( 'NONE',  ( 6.131883886702356179, -8.400000000000000355, -3.500000000000003109 ) ) ;
#369 = ORIENTED_EDGE ( 'NONE', *, *, #768, .T. ) ;
#370 = LINE ( 'NONE', #157, #524 ) ;
#371 = DIRECTION ( 'NONE',  ( -0.000000000000000000, -0.000000000000000000, -1.000000000000000000 ) ) ;
#372 = ADVANCED_FACE ( 'NONE', ( #256 ), #814, .F. ) ;
#373 = VERTEX_POINT ( 'NONE', #659 ) ;
#374 = ORIENTED_EDGE ( 'NONE', *, *, #719, .T. ) ;
#375 = FACE_BOUND ( 'NONE', #151, .T. ) ;
#376 = ORIENTED_EDGE ( 'NONE', *, *, #236, .T. ) ;
#377 = VECTOR ( 'NONE', #596, 1000.000000000000000 ) ;
#378 = ORIENTED_EDGE ( 'NONE', *, *, #845, .T. ) ;
#379 = DIRECTION ( 'NONE',  ( -0.000000000000000000, -0.000000000000000000, -1.000000000000000000 ) ) ;
#380 = ORIENTED_EDGE ( 'NONE', *, *, #562, .T. ) ;
#381 = ORIENTED_EDGE ( 'NONE', *, *, #228, .T. ) ;
#382 = DIRECTION ( 'NONE',  ( -0.000000000000000000, -0.000000000000000000, -1.000000000000000000 ) ) ;
#383 = FACE_OUTER_BOUND ( 'NONE', #598, .T. ) ;
#384 = EDGE_LOOP ( 'NONE', ( #60, #649, #635, #573 ) ) ;
#385 = DIRECTION ( 'NONE',  ( -0.000000000000000000, -0.000000000000000000, -1.000000000000000000 ) ) ;
#386 = AXIS2_PLACEMENT_3D ( 'NONE', #587, #239, #395 ) ;
#387 = CIRCLE ( 'NONE', #50, 2.000000029802308177 ) ;
#388 = DIRECTION ( 'NONE',  ( -0.000000000000000000, -0.000000000000000000, -1.000000000000000000 ) ) ;
#389 = VERTEX_POINT ( 'NONE', #180 ) ;
#390 = DIRECTION ( 'NONE',  ( -0.000000000000000000, -0.000000000000000000, -1.000000000000000000 ) ) ;
#391 = CARTESIAN_POINT ( 'NONE',  ( 8.400000000000002132, 6.131883886702354403, -3.500000000000003109 ) ) ;
#392 = CARTESIAN_POINT ( 'NONE',  ( 8.400000000000002132, 6.131883886702353514, -23.50000000000000000 ) ) ;
#393 = DIRECTION ( 'NONE',  ( -1.000000000000000000, 0.000000000000000000, 0.000000000000000000 ) ) ;
#394 = EDGE_LOOP ( 'NONE', ( #576, #378, #703, #761 ) ) ;
#395 = DIRECTION ( 'NONE',  ( 1.000000000000000000, 0.000000000000000000, 0.000000000000000000 ) ) ;
#396 = DIRECTION ( 'NONE',  ( 1.000000000000000000, 0.000000000000000000, 0.000000000000000000 ) ) ;
#397 = ORIENTED_EDGE ( 'NONE', *, *, #588, .T. ) ;
#398 = EDGE_CURVE ( 'NONE', #389, #360, #64, .T. ) ;
#399 = FACE_OUTER_BOUND ( 'NONE', #140, .T. ) ;
#400 = ORIENTED_EDGE ( 'NONE', *, *, #168, .F. ) ;
#401 = PRODUCT_DEFINITION ( 'NON CONOSCIUTO', '', #742, #864 ) ;
#402 = CIRCLE ( 'NONE', #893, 10.40000000000000036 ) ;
#403 = DIRECTION ( 'NONE',  ( 0.000000000000000000, 0.000000000000000000, -1.000000000000000000 ) ) ;
#404 = AXIS2_PLACEMENT_3D ( 'NONE', #334, #545, #189 ) ;
#405 = ORIENTED_EDGE ( 'NONE', *, *, #781, .F. ) ;
#406 = VECTOR ( 'NONE', #230, 1000.000000000000000 ) ;
#407 = DIRECTION ( 'NONE',  ( -1.000000000000000000, 0.000000000000000000, 0.000000000000000000 ) ) ;
#408 = EDGE_CURVE ( 'NONE', #102, #433, #166, .T. ) ;
#409 = CARTESIAN_POINT ( 'NONE',  ( 6.106226635438359710E-14, 0.000000000000000000, -16.50000000000000000 ) ) ;
#410 = CARTESIAN_POINT ( 'NONE',  ( 14.00000002980230818, 2.449293634792008977E-16, -23.50000000000000000 ) ) ;
#411 = DIRECTION ( 'NONE',  ( -1.000000000000000000, -2.829022055911298815E-16, 0.000000000000000000 ) ) ;
#412 = CIRCLE ( 'NONE', #121, 2.000000029802309953 ) ;
#413 = CYLINDRICAL_SURFACE ( 'NONE', #551, 2.000000029802308177 ) ;
#414 = CARTESIAN_POINT ( 'NONE',  ( -8.399999999999996803, -6.131883886702361508, -3.500000000000003109 ) ) ;
#415 = ORIENTED_EDGE ( 'NONE', *, *, #853, .F. ) ;
#416 = EDGE_LOOP ( 'NONE', ( #302, #381 ) ) ;
#417 = DIRECTION ( 'NONE',  ( -1.000000000000000000, 0.000000000000000000, 0.000000000000000000 ) ) ;
#418 = ORIENTED_EDGE ( 'NONE', *, *, #45, .T. ) ;
#419 = EDGE_CURVE ( 'NONE', #287, #723, #402, .T. ) ;
#420 = ORIENTED_EDGE ( 'NONE', *, *, #507, .T. ) ;
#421 = DIRECTION ( 'NONE',  ( -0.000000000000000000, -0.000000000000000000, -1.000000000000000000 ) ) ;
#422 = PLANE ( 'NONE',  #61 ) ;
#423 = CARTESIAN_POINT ( 'NONE',  ( 8.400000000000000355, -6.131883886702357067, -23.50000000000000000 ) ) ;
#424 = CARTESIAN_POINT ( 'NONE',  ( -6.131883886702357955, -8.400000000000000355, -3.500000000000003109 ) ) ;
#425 = VERTEX_POINT ( 'NONE', #604 ) ;
#426 = LINE ( 'NONE', #483, #857 ) ;
#427 = ADVANCED_FACE ( 'NONE', ( #39 ), #454, .F. ) ;
#428 = AXIS2_PLACEMENT_3D ( 'NONE', #621, #553, #478 ) ;
#429 = VERTEX_POINT ( 'NONE', #177 ) ;
#430 = FACE_OUTER_BOUND ( 'NONE', #281, .T. ) ;
#431 = CYLINDRICAL_SURFACE ( 'NONE', #443, 18.49999999999996803 ) ;
#432 = ORIENTED_EDGE ( 'NONE', *, *, #419, .T. ) ;
#433 = VERTEX_POINT ( 'NONE', #30 ) ;
#434 = DIRECTION ( 'NONE',  ( 1.000000000000000000, -2.829022055911300294E-16, 0.000000000000000000 ) ) ;
#435 = ORIENTED_EDGE ( 'NONE', *, *, #398, .F. ) ;
#436 = CARTESIAN_POINT ( 'NONE',  ( 0.000000000000000000, 0.000000000000000000, -3.500000000000003109 ) ) ;
#437 = ORIENTED_EDGE ( 'NONE', *, *, #268, .T. ) ;
#438 =( NAMED_UNIT ( * ) SI_UNIT ( $, .STERADIAN. ) SOLID_ANGLE_UNIT ( ) );
#439 = ADVANCED_FACE ( 'NONE', ( #93, #383 ), #458, .T. ) ;
#440 = FACE_BOUND ( 'NONE', #700, .T. ) ;
#441 = EDGE_LOOP ( 'NONE', ( #335, #615, #242, #543 ) ) ;
#442 = CARTESIAN_POINT ( 'NONE',  ( -16.29999999999994031, 1.996174282610185991E-15, -25.50000000000000000 ) ) ;
#443 = AXIS2_PLACEMENT_3D ( 'NONE', #838, #359, #760 ) ;
#444 = CIRCLE ( 'NONE', #579, 2.000000029802308177 ) ;
#445 = DIRECTION ( 'NONE',  ( 1.000000000000000000, 0.000000000000000000, 0.000000000000000000 ) ) ;
#446 = CIRCLE ( 'NONE', #163, 2.000000029802308177 ) ;
#447 = DIRECTION ( 'NONE',  ( -1.000000000000000000, 0.000000000000000000, 0.000000000000000000 ) ) ;
#448 = DIRECTION ( 'NONE',  ( -1.000000000000000000, 0.000000000000000000, 0.000000000000000000 ) ) ;
#449 = EDGE_LOOP ( 'NONE', ( #126, #484, #654, #536 ) ) ;
#450 = FACE_OUTER_BOUND ( 'NONE', #178, .T. ) ;
#451 = VERTEX_POINT ( 'NONE', #26 ) ;
#452 = FACE_OUTER_BOUND ( 'NONE', #833, .T. ) ;
#453 = EDGE_CURVE ( 'NONE', #81, #425, #313, .T. ) ;
#454 = PLANE ( 'NONE',  #500 ) ;
#455 = EDGE_LOOP ( 'NONE', ( #805, #673, #11, #612 ) ) ;
#456 = EDGE_CURVE ( 'NONE', #137, #367, #594, .T. ) ;
#457 = AXIS2_PLACEMENT_3D ( 'NONE', #832, #486, #417 ) ;
#458 = PLANE ( 'NONE',  #217 ) ;
#459 = ORIENTED_EDGE ( 'NONE', *, *, #191, .T. ) ;
#460 = CARTESIAN_POINT ( 'NONE',  ( -8.400000000000000355, 6.131883886702357955, -3.500000000000003109 ) ) ;
#461 = EDGE_CURVE ( 'NONE', #215, #94, #666, .T. ) ;
#462 = DIRECTION ( 'NONE',  ( -0.000000000000000000, -0.000000000000000000, -1.000000000000000000 ) ) ;
#463 = ORIENTED_EDGE ( 'NONE', *, *, #775, .F. ) ;
#464 = CIRCLE ( 'NONE', #699, 15.99999999999994138 ) ;
#465 = DIRECTION ( 'NONE',  ( -0.000000000000000000, -0.000000000000000000, -1.000000000000000000 ) ) ;
#466 = DIRECTION ( 'NONE',  ( 1.000000000000000000, 0.000000000000000000, -0.000000000000000000 ) ) ;
#467 = VERTEX_POINT ( 'NONE', #881 ) ;
#468 = AXIS2_PLACEMENT_3D ( 'NONE', #104, #790, #448 ) ;
#469 = CARTESIAN_POINT ( 'NONE',  ( 9.999999970197690047, 0.000000000000000000, -23.50000000000000000 ) ) ;
#470 = EDGE_LOOP ( 'NONE', ( #400, #227, #299, #1 ) ) ;
#471 = CIRCLE ( 'NONE', #428, 2.000000029802309953 ) ;
#472 =( LENGTH_UNIT ( ) NAMED_UNIT ( * ) SI_UNIT ( .MILLI., .METRE. ) );
#473 = EDGE_CURVE ( 'NONE', #852, #246, #271, .T. ) ;
#474 =( NAMED_UNIT ( * ) SI_UNIT ( $, .STERADIAN. ) SOLID_ANGLE_UNIT ( ) );
#475 = DIRECTION ( 'NONE',  ( -1.000000000000000000, 0.000000000000000000, 0.000000000000000000 ) ) ;
#476 = PRODUCT_RELATED_PRODUCT_CATEGORY ( 'part', '', ( #31 ) ) ;
#477 = DIRECTION ( 'NONE',  ( 0.000000000000000000, 0.000000000000000000, -1.000000000000000000 ) ) ;
#478 = DIRECTION ( 'NONE',  ( -1.000000000000000000, 0.000000000000000000, 0.000000000000000000 ) ) ;
#479 = LINE ( 'NONE', #410, #128 ) ;
#480 = VECTOR ( 'NONE', #42, 1000.000000000000000 ) ;
#481 = DIRECTION ( 'NONE',  ( 0.000000000000000000, 0.000000000000000000, 1.000000000000000000 ) ) ;
#482 = AXIS2_PLACEMENT_3D ( 'NONE', #527, #674, #250 ) ;
#483 = CARTESIAN_POINT ( 'NONE',  ( -15.99999999999987566, 0.000000000000000000, -3.499999999999999556 ) ) ;
#484 = ORIENTED_EDGE ( 'NONE', *, *, #48, .T. ) ;
#485 = EDGE_CURVE ( 'NONE', #130, #287, #349, .T. ) ;
#486 = DIRECTION ( 'NONE',  ( -0.000000000000000000, -0.000000000000000000, -1.000000000000000000 ) ) ;
#487 = VECTOR ( 'NONE', #2, 1000.000000000000000 ) ;
#488 = ORIENTED_EDGE ( 'NONE', *, *, #398, .T. ) ;
#489 = FACE_BOUND ( 'NONE', #779, .T. ) ;
#490 = EDGE_LOOP ( 'NONE', ( #739, #62, #435, #680 ) ) ;
#491 = FACE_OUTER_BOUND ( 'NONE', #583, .T. ) ;
#492 = ORIENTED_EDGE ( 'NONE', *, *, #768, .F. ) ;
#493 = DIRECTION ( 'NONE',  ( 0.000000000000000000, -0.000000000000000000, -1.000000000000000000 ) ) ;
#494 = ORIENTED_EDGE ( 'NONE', *, *, #824, .F. ) ;
#495 = SURFACE_STYLE_USAGE ( .BOTH. , #357 ) ;
#496 = FACE_BOUND ( 'NONE', #47, .T. ) ;
#497 = DIRECTION ( 'NONE',  ( -1.000000000000000000, 0.000000000000000000, 0.000000000000000000 ) ) ;
#498 = CARTESIAN_POINT ( 'NONE',  ( 0.000000000000000000, 0.000000000000000000, -23.50000000000000000 ) ) ;
#499 = EDGE_CURVE ( 'NONE', #744, #232, #692, .T. ) ;
#500 = AXIS2_PLACEMENT_3D ( 'NONE', #164, #730, #466 ) ;
#501 = VERTEX_POINT ( 'NONE', #117 ) ;
#502 = LINE ( 'NONE', #778, #880 ) ;
#503 = CARTESIAN_POINT ( 'NONE',  ( 6.106226635438359710E-14, 0.000000000000000000, -3.499999999999999556 ) ) ;
#504 = ORIENTED_EDGE ( 'NONE', *, *, #419, .F. ) ;
#505 = DIRECTION ( 'NONE',  ( 0.000000000000000000, 0.000000000000000000, -1.000000000000000000 ) ) ;
#506 = AXIS2_PLACEMENT_3D ( 'NONE', #645, #578, #630 ) ;
#507 = EDGE_CURVE ( 'NONE', #877, #780, #118, .T. ) ;
#508 = ORIENTED_EDGE ( 'NONE', *, *, #662, .F. ) ;
#509 = DIRECTION ( 'NONE',  ( -1.000000000000000000, 0.000000000000000000, 0.000000000000000000 ) ) ;
#510 = EDGE_LOOP ( 'NONE', ( #9, #279 ) ) ;
#511 = DIRECTION ( 'NONE',  ( 0.000000000000000000, 0.000000000000000000, 1.000000000000000000 ) ) ;
#512 = ADVANCED_BREP_SHAPE_REPRESENTATION ( 'ELP-0014', ( #661, #559 ), #558 ) ;
#513 = EDGE_LOOP ( 'NONE', ( #292, #459 ) ) ;
#514 = CARTESIAN_POINT ( 'NONE',  ( 0.000000000000000000, 0.000000000000000000, -3.500000000000003109 ) ) ;
#515 = EDGE_LOOP ( 'NONE', ( #629, #84, #565, #167 ) ) ;
#516 = LINE ( 'NONE', #460, #19 ) ;
#517 = CIRCLE ( 'NONE', #750, 10.40000000000000036 ) ;
#518 = VECTOR ( 'NONE', #132, 1000.000000000000000 ) ;
#519 = ORIENTED_EDGE ( 'NONE', *, *, #456, .T. ) ;
#520 = VECTOR ( 'NONE', #733, 1000.000000000000000 ) ;
#521 = CARTESIAN_POINT ( 'NONE',  ( 6.131883886702356179, -8.400000000000000355, -3.500000000000003109 ) ) ;
#522 = EDGE_CURVE ( 'NONE', #723, #433, #185, .T. ) ;
#523 = EDGE_LOOP ( 'NONE', ( #329, #676, #374, #508 ) ) ;
#524 = VECTOR ( 'NONE', #855, 1000.000000000000000 ) ;
#525 = VECTOR ( 'NONE', #403, 1000.000000000000000 ) ;
#526 = CARTESIAN_POINT ( 'NONE',  ( 6.106226635438359710E-14, 0.000000000000000000, -3.499999999999999556 ) ) ;
#527 = CARTESIAN_POINT ( 'NONE',  ( 6.106226635438359710E-14, 0.000000000000000000, -16.50000000000000000 ) ) ;
#528 = ORIENTED_EDGE ( 'NONE', *, *, #636, .F. ) ;
#529 = ADVANCED_FACE ( 'NONE', ( #546 ), #413, .F. ) ;
#530 = CARTESIAN_POINT ( 'NONE',  ( 6.106226635438359710E-14, 0.000000000000000000, -13.99999999999999822 ) ) ;
#531 = FACE_OUTER_BOUND ( 'NONE', #567, .T. ) ;
#532 = ORIENTED_EDGE ( 'NONE', *, *, #719, .F. ) ;
#533 = CARTESIAN_POINT ( 'NONE',  ( 6.106226635438359710E-14, 0.000000000000000000, -3.500000000000003109 ) ) ;
#534 = AXIS2_PLACEMENT_3D ( 'NONE', #78, #156, #445 ) ;
#535 = CONICAL_SURFACE ( 'NONE', #482, 18.49999999999993605, 0.7853981633974469467 ) ;
#536 = ORIENTED_EDGE ( 'NONE', *, *, #175, .F. ) ;
#537 = CARTESIAN_POINT ( 'NONE',  ( -6.131883886702351738, 8.400000000000002132, -3.500000000000003109 ) ) ;
#538 = AXIS2_PLACEMENT_3D ( 'NONE', #693, #816, #825 ) ;
#539 = DIRECTION ( 'NONE',  ( -1.000000000000000000, 2.829022055911300294E-16, 0.000000000000000000 ) ) ;
#540 = LINE ( 'NONE', #179, #480 ) ;
#541 = CIRCLE ( 'NONE', #884, 2.000000029802309953 ) ;
#542 = CYLINDRICAL_SURFACE ( 'NONE', #188, 10.40000000000000036 ) ;
#543 = ORIENTED_EDGE ( 'NONE', *, *, #627, .T. ) ;
#544 = LINE ( 'NONE', #326, #525 ) ;
#545 = DIRECTION ( 'NONE',  ( -0.000000000000000000, -0.000000000000000000, -1.000000000000000000 ) ) ;
#546 = FACE_OUTER_BOUND ( 'NONE', #770, .T. ) ;
#547 = AXIS2_PLACEMENT_3D ( 'NONE', #414, #411, #350 ) ;
#548 = ORIENTED_EDGE ( 'NONE', *, *, #499, .T. ) ;
#549 = EDGE_CURVE ( 'NONE', #501, #846, #149, .T. ) ;
#550 = DIRECTION ( 'NONE',  ( -1.000000000000000000, 0.000000000000000000, 0.000000000000000000 ) ) ;
#551 = AXIS2_PLACEMENT_3D ( 'NONE', #901, #821, #46 ) ;
#552 = AXIS2_PLACEMENT_3D ( 'NONE', #220, #505, #141 ) ;
#553 = DIRECTION ( 'NONE',  ( -0.000000000000000000, -0.000000000000000000, -1.000000000000000000 ) ) ;
#554 = FACE_OUTER_BOUND ( 'NONE', #210, .T. ) ;
#555 = EDGE_CURVE ( 'NONE', #172, #801, #16, .T. ) ;
#556 = AXIS2_PLACEMENT_3D ( 'NONE', #762, #143, #708 ) ;
#557 = DIRECTION ( 'NONE',  ( -1.000000000000000000, 0.000000000000000000, 0.000000000000000000 ) ) ;
#558 =( GEOMETRIC_REPRESENTATION_CONTEXT ( 3 ) GLOBAL_UNCERTAINTY_ASSIGNED_CONTEXT ( ( #195 ) ) GLOBAL_UNIT_ASSIGNED_CONTEXT ( ( #472, #617, #474 ) ) REPRESENTATION_CONTEXT ( 'NONE', 'WORKASPACE' ) );
#559 = AXIS2_PLACEMENT_3D ( 'NONE', #714, #297, #158 ) ;
#560 = EDGE_LOOP ( 'NONE', ( #258, #532 ) ) ;
#561 = AXIS2_PLACEMENT_3D ( 'NONE', #223, #216, #585 ) ;
#562 = EDGE_CURVE ( 'NONE', #763, #898, #667, .T. ) ;
#563 = CARTESIAN_POINT ( 'NONE',  ( 12.00000000000000000, 0.000000000000000000, -23.50000000000000000 ) ) ;
#564 = DIRECTION ( 'NONE',  ( -0.000000000000000000, -0.000000000000000000, -1.000000000000000000 ) ) ;
#565 = ORIENTED_EDGE ( 'NONE', *, *, #499, .F. ) ;
#566 = DIRECTION ( 'NONE',  ( -0.000000000000000000, -0.000000000000000000, -1.000000000000000000 ) ) ;
#567 = EDGE_LOOP ( 'NONE', ( #834, #309, #76, #348 ) ) ;
#568 = CARTESIAN_POINT ( 'NONE',  ( 7.347880794884160165E-16, -12.00000000000000000, -23.50000000000000000 ) ) ;
#569 = DIRECTION ( 'NONE',  ( -1.000000000000000000, 0.000000000000000000, 0.000000000000000000 ) ) ;
#570 = CYLINDRICAL_SURFACE ( 'NONE', #737, 18.49999999999996803 ) ;
#571 = VERTEX_POINT ( 'NONE', #469 ) ;
#572 = PLANE ( 'NONE',  #343 ) ;
#573 = ORIENTED_EDGE ( 'NONE', *, *, #562, .F. ) ;
#574 = DIRECTION ( 'NONE',  ( 0.000000000000000000, 0.000000000000000000, 1.000000000000000000 ) ) ;
#575 = AXIS2_PLACEMENT_3D ( 'NONE', #321, #244, #808 ) ;
#576 = ORIENTED_EDGE ( 'NONE', *, *, #620, .F. ) ;
#577 = ADVANCED_FACE ( 'NONE', ( #111 ), #193, .T. ) ;
#578 = DIRECTION ( 'NONE',  ( -0.000000000000000000, -0.000000000000000000, -1.000000000000000000 ) ) ;
#579 = AXIS2_PLACEMENT_3D ( 'NONE', #789, #651, #860 ) ;
#580 = CARTESIAN_POINT ( 'NONE',  ( -12.00000000000000000, -1.469576158976829864E-15, -23.50000000000000000 ) ) ;
#581 = CARTESIAN_POINT ( 'NONE',  ( -9.999999970197690047, -1.224646795497628719E-15, -23.50000000000000000 ) ) ;
#582 = DIRECTION ( 'NONE',  ( -0.000000000000000000, -0.000000000000000000, -1.000000000000000000 ) ) ;
#583 = EDGE_LOOP ( 'NONE', ( #488, #263, #56, #67 ) ) ;
#584 = ORIENTED_EDGE ( 'NONE', *, *, #709, .F. ) ;
#585 = DIRECTION ( 'NONE',  ( 2.829022055911300294E-16, 1.000000000000000000, 0.000000000000000000 ) ) ;
#586 = ORIENTED_EDGE ( 'NONE', *, *, #301, .T. ) ;
#587 = CARTESIAN_POINT ( 'NONE',  ( 6.106226635438359710E-14, 0.000000000000000000, -25.50000000000000000 ) ) ;
#588 = EDGE_CURVE ( 'NONE', #94, #429, #479, .T. ) ;
#589 = ORIENTED_EDGE ( 'NONE', *, *, #456, .F. ) ;
#590 = EDGE_CURVE ( 'NONE', #130, #307, #638, .T. ) ;
#591 = CARTESIAN_POINT ( 'NONE',  ( 0.000000000000000000, 0.000000000000000000, -3.500000000000003109 ) ) ;
#592 = ORIENTED_EDGE ( 'NONE', *, *, #802, .T. ) ;
#593 = DIRECTION ( 'NONE',  ( 1.000000000000000000, 0.000000000000000000, 0.000000000000000000 ) ) ;
#594 = CIRCLE ( 'NONE', #147, 15.99999999999993783 ) ;
#595 = VECTOR ( 'NONE', #24, 1000.000000000000000 ) ;
#596 = DIRECTION ( 'NONE',  ( -0.000000000000000000, -0.000000000000000000, -1.000000000000000000 ) ) ;
#597 = DIRECTION ( 'NONE',  ( -0.000000000000000000, -0.000000000000000000, -1.000000000000000000 ) ) ;
#598 = EDGE_LOOP ( 'NONE', ( #494, #589 ) ) ;
#599 = EDGE_CURVE ( 'NONE', #94, #215, #251, .T. ) ;
#600 = CYLINDRICAL_SURFACE ( 'NONE', #345, 10.40000000000000036 ) ;
#601 = DIRECTION ( 'NONE',  ( -1.000000000000000000, 0.000000000000000000, 0.000000000000000000 ) ) ;
#602 = VERTEX_POINT ( 'NONE', #581 ) ;
#603 = DIRECTION ( 'NONE',  ( -1.000000000000000000, 0.000000000000000000, 0.000000000000000000 ) ) ;
#604 = CARTESIAN_POINT ( 'NONE',  ( 2.000000029802307733, 12.00000000000000000, -23.50000000000000000 ) ) ;
#605 = AXIS2_PLACEMENT_3D ( 'NONE', #530, #795, #668 ) ;
#606 = ORIENTED_EDGE ( 'NONE', *, *, #657, .F. ) ;
#607 = CIRCLE ( 'NONE', #14, 18.49999999999993605 ) ;
#608 = DIRECTION ( 'NONE',  ( -0.000000000000000000, -0.000000000000000000, -1.000000000000000000 ) ) ;
#609 = AXIS2_PLACEMENT_3D ( 'NONE', #409, #684, #550 ) ;
#610 = AXIS2_PLACEMENT_3D ( 'NONE', #533, #20, #225 ) ;
#611 = DIRECTION ( 'NONE',  ( -1.000000000000000000, 0.000000000000000000, 0.000000000000000000 ) ) ;
#612 = ORIENTED_EDGE ( 'NONE', *, *, #268, .F. ) ;
#613 = CARTESIAN_POINT ( 'NONE',  ( -2.204364238465249627E-15, 12.00000000000000000, -23.50000000000000000 ) ) ;
#614 = ADVANCED_FACE ( 'NONE', ( #835 ), #764, .F. ) ;
#615 = ORIENTED_EDGE ( 'NONE', *, *, #461, .F. ) ;
#616 = DIRECTION ( 'NONE',  ( 1.000000000000000000, 0.000000000000000000, -0.000000000000000000 ) ) ;
#617 =( NAMED_UNIT ( * ) PLANE_ANGLE_UNIT ( ) SI_UNIT ( $, .RADIAN. ) );
#618 = CARTESIAN_POINT ( 'NONE',  ( 6.106226635438359710E-14, 0.000000000000000000, -16.50000000000000000 ) ) ;
#619 = CARTESIAN_POINT ( 'NONE',  ( 8.400000000000000355, -6.131883886702357067, -3.500000000000003109 ) ) ;
#620 = EDGE_CURVE ( 'NONE', #632, #852, #205, .T. ) ;
#621 = CARTESIAN_POINT ( 'NONE',  ( 12.00000000000000000, 0.000000000000000000, -23.50000000000000000 ) ) ;
#622 = CARTESIAN_POINT ( 'NONE',  ( -2.000000029802307289, -12.00000000000000000, -15.50000000000000711 ) ) ;
#623 = CARTESIAN_POINT ( 'NONE',  ( 12.00000000000000000, 0.000000000000000000, -15.50000000000000711 ) ) ;
#624 = DIRECTION ( 'NONE',  ( 1.000000000000000000, 0.000000000000000000, 0.000000000000000000 ) ) ;
#625 = DIRECTION ( 'NONE',  ( -1.000000000000000000, 0.000000000000000000, 0.000000000000000000 ) ) ;
#626 = FACE_OUTER_BOUND ( 'NONE', #394, .T. ) ;
#627 = EDGE_CURVE ( 'NONE', #571, #429, #856, .T. ) ;
#628 = CARTESIAN_POINT ( 'NONE',  ( -8.400000000000000355, 6.131883886702357955, -23.50000000000000000 ) ) ;
#629 = ORIENTED_EDGE ( 'NONE', *, *, #555, .T. ) ;
#630 = DIRECTION ( 'NONE',  ( -1.000000000000000000, 0.000000000000000000, 0.000000000000000000 ) ) ;
#631 = EDGE_CURVE ( 'NONE', #209, #451, #446, .T. ) ;
#632 = VERTEX_POINT ( 'NONE', #145 ) ;
#633 = DIRECTION ( 'NONE',  ( -0.000000000000000000, -0.000000000000000000, -1.000000000000000000 ) ) ;
#634 = DIRECTION ( 'NONE',  ( -2.829022055911300294E-16, -1.000000000000000000, 0.000000000000000000 ) ) ;
#635 = ORIENTED_EDGE ( 'NONE', *, *, #186, .F. ) ;
#636 = EDGE_CURVE ( 'NONE', #203, #146, #370, .T. ) ;
#637 = APPLICATION_PROTOCOL_DEFINITION ( 'draft international standard', 'automotive_design', 1998, #226 ) ;
#638 = CIRCLE ( 'NONE', #362, 10.40000000000000036 ) ;
#639 = EDGE_LOOP ( 'NONE', ( #660, #13, #652, #873 ) ) ;
#640 = DIRECTION ( 'NONE',  ( -1.000000000000000000, 0.000000000000000000, 0.000000000000000000 ) ) ;
#641 = ORIENTED_EDGE ( 'NONE', *, *, #408, .T. ) ;
#642 = CARTESIAN_POINT ( 'NONE',  ( 0.000000000000000000, 0.000000000000000000, -23.50000000000000000 ) ) ;
#643 = ADVANCED_FACE ( 'NONE', ( #430 ), #303, .F. ) ;
#644 = EDGE_LOOP ( 'NONE', ( #858, #92, #219, #72 ) ) ;
#645 = CARTESIAN_POINT ( 'NONE',  ( 7.347880794884160165E-16, -12.00000000000000000, -15.50000000000000711 ) ) ;
#646 = FACE_OUTER_BOUND ( 'NONE', #523, .T. ) ;
#647 = CARTESIAN_POINT ( 'NONE',  ( 6.131883886702358843, 8.400000000000000355, -3.500000000000003109 ) ) ;
#648 = ORIENTED_EDGE ( 'NONE', *, *, #243, .T. ) ;
#649 = ORIENTED_EDGE ( 'NONE', *, *, #142, .T. ) ;
#650 = DIRECTION ( 'NONE',  ( -1.000000000000000000, 0.000000000000000000, 0.000000000000000000 ) ) ;
#651 = DIRECTION ( 'NONE',  ( -0.000000000000000000, -0.000000000000000000, -1.000000000000000000 ) ) ;
#652 = ORIENTED_EDGE ( 'NONE', *, *, #115, .T. ) ;
#653 = ADVANCED_FACE ( 'NONE', ( #288 ), #849, .F. ) ;
#654 = ORIENTED_EDGE ( 'NONE', *, *, #485, .F. ) ;
#655 = DIRECTION ( 'NONE',  ( -0.000000000000000000, -0.000000000000000000, -1.000000000000000000 ) ) ;
#656 = ORIENTED_EDGE ( 'NONE', *, *, #236, .F. ) ;
#657 = EDGE_CURVE ( 'NONE', #846, #501, #541, .T. ) ;
#658 = ORIENTED_EDGE ( 'NONE', *, *, #306, .T. ) ;
#659 = CARTESIAN_POINT ( 'NONE',  ( -16.29999999999994031, 1.996174282610185991E-15, -23.50000000000000000 ) ) ;
#660 = ORIENTED_EDGE ( 'NONE', *, *, #228, .F. ) ;
#661 = MANIFOLD_SOLID_BREP ( 'Foro Ø4.0 (4)-1', #169 ) ;
#662 = EDGE_CURVE ( 'NONE', #209, #206, #85, .T. ) ;
#663 = FACE_BOUND ( 'NONE', #23, .T. ) ;
#664 = ORIENTED_EDGE ( 'NONE', *, *, #599, .T. ) ;
#665 = LINE ( 'NONE', #43, #97 ) ;
#666 = CIRCLE ( 'NONE', #265, 2.000000029802308177 ) ;
#667 = CIRCLE ( 'NONE', #538, 10.40000000000000036 ) ;
#668 = DIRECTION ( 'NONE',  ( -1.000000000000000000, 0.000000000000000000, 0.000000000000000000 ) ) ;
#669 = EDGE_CURVE ( 'NONE', #707, #891, #843, .T. ) ;
#670 = CARTESIAN_POINT ( 'NONE',  ( 6.131883886702361508, -8.399999999999996803, -23.50000000000000000 ) ) ;
#671 = LINE ( 'NONE', #392, #820 ) ;
#672 = PLANE ( 'NONE',  #296 ) ;
#673 = ORIENTED_EDGE ( 'NONE', *, *, #522, .T. ) ;
#674 = DIRECTION ( 'NONE',  ( 0.000000000000000000, 0.000000000000000000, -1.000000000000000000 ) ) ;
#675 = DIRECTION ( 'NONE',  ( -1.000000000000000000, 0.000000000000000000, 0.000000000000000000 ) ) ;
#676 = ORIENTED_EDGE ( 'NONE', *, *, #68, .T. ) ;
#677 = ADVANCED_FACE ( 'NONE', ( #238 ), #310, .T. ) ;
#678 = MECHANICAL_DESIGN_GEOMETRIC_PRESENTATION_REPRESENTATION (  '', ( #330 ), #817 ) ;
#679 = DIRECTION ( 'NONE',  ( 0.000000000000000000, 0.000000000000000000, -1.000000000000000000 ) ) ;
#680 = ORIENTED_EDGE ( 'NONE', *, *, #802, .F. ) ;
#681 = DIRECTION ( 'NONE',  ( -0.000000000000000000, -0.000000000000000000, -1.000000000000000000 ) ) ;
#682 = CARTESIAN_POINT ( 'NONE',  ( -18.49999999999993605, 0.000000000000000000, -25.50000000000000000 ) ) ;
#683 = EDGE_CURVE ( 'NONE', #877, #81, #77, .T. ) ;
#684 = DIRECTION ( 'NONE',  ( 0.000000000000000000, 0.000000000000000000, -1.000000000000000000 ) ) ;
#685 = CARTESIAN_POINT ( 'NONE',  ( -14.00000002980230995, -1.469576158976829864E-15, -23.50000000000000000 ) ) ;
#686 = AXIS2_PLACEMENT_3D ( 'NONE', #826, #262, #675 ) ;
#687 = CARTESIAN_POINT ( 'NONE',  ( 0.000000000000000000, 0.000000000000000000, -3.500000000000003109 ) ) ;
#688 = VECTOR ( 'NONE', #724, 1000.000000000000000 ) ;
#689 = CARTESIAN_POINT ( 'NONE',  ( 8.400000000000000355, -6.131883886702357067, -3.500000000000003109 ) ) ;
#690 = VECTOR ( 'NONE', #582, 1000.000000000000000 ) ;
#691 = DIRECTION ( 'NONE',  ( 0.000000000000000000, 0.000000000000000000, -1.000000000000000000 ) ) ;
#692 = CIRCLE ( 'NONE', #300, 18.50000000000000000 ) ;
#693 = CARTESIAN_POINT ( 'NONE',  ( 0.000000000000000000, 0.000000000000000000, -3.500000000000003109 ) ) ;
#694 = CIRCLE ( 'NONE', #812, 16.30000000000000071 ) ;
#695 = ADVANCED_FACE ( 'NONE', ( #176 ), #196, .F. ) ;
#696 = DIRECTION ( 'NONE',  ( 0.000000000000000000, 0.000000000000000000, -1.000000000000000000 ) ) ;
#697 = ORIENTED_EDGE ( 'NONE', *, *, #133, .T. ) ;
#698 = DIRECTION ( 'NONE',  ( 0.000000000000000000, -1.000000000000000000, 0.000000000000000000 ) ) ;
#699 = AXIS2_PLACEMENT_3D ( 'NONE', #237, #161, #447 ) ;
#700 = EDGE_LOOP ( 'NONE', ( #818, #606 ) ) ;
#701 = LINE ( 'NONE', #823, #339 ) ;
#702 = EDGE_LOOP ( 'NONE', ( #229, #405, #213, #181 ) ) ;
#703 = ORIENTED_EDGE ( 'NONE', *, *, #879, .T. ) ;
#704 = DIRECTION ( 'NONE',  ( -0.000000000000000000, -0.000000000000000000, -1.000000000000000000 ) ) ;
#705 = DIRECTION ( 'NONE',  ( -1.000000000000000000, 0.000000000000000000, 0.000000000000000000 ) ) ;
#706 = LINE ( 'NONE', #521, #688 ) ;
#707 = VERTEX_POINT ( 'NONE', #391 ) ;
#708 = DIRECTION ( 'NONE',  ( -1.000000000000000000, 0.000000000000000000, 0.000000000000000000 ) ) ;
#709 = EDGE_CURVE ( 'NONE', #215, #571, #34, .T. ) ;
#710 = ORIENTED_EDGE ( 'NONE', *, *, #872, .F. ) ;
#711 = DIRECTION ( 'NONE',  ( -1.000000000000000000, 0.000000000000000000, 0.000000000000000000 ) ) ;
#712 = EDGE_LOOP ( 'NONE', ( #773, #729, #420, #586 ) ) ;
#713 = ORIENTED_EDGE ( 'NONE', *, *, #775, .T. ) ;
#714 = CARTESIAN_POINT ( 'NONE',  ( 0.000000000000000000, 0.000000000000000000, 0.000000000000000000 ) ) ;
#715 = CYLINDRICAL_SURFACE ( 'NONE', #174, 2.000000029802308177 ) ;
#716 = EDGE_LOOP ( 'NONE', ( #697, #369, #380, #658, #866, #875, #839, #437 ) ) ;
#717 = CYLINDRICAL_SURFACE ( 'NONE', #534, 16.30000000000000071 ) ;
#718 = CARTESIAN_POINT ( 'NONE',  ( -12.00000000000000000, -1.469576158976829864E-15, -23.50000000000000000 ) ) ;
#719 = EDGE_CURVE ( 'NONE', #602, #206, #351, .T. ) ;
#720 = ORIENTED_EDGE ( 'NONE', *, *, #669, .F. ) ;
#721 = AXIS2_PLACEMENT_3D ( 'NONE', #332, #139, #285 ) ;
#722 = CARTESIAN_POINT ( 'NONE',  ( 6.106226635438359710E-14, 0.000000000000000000, -23.50000000000000000 ) ) ;
#723 = VERTEX_POINT ( 'NONE', #670 ) ;
#724 = DIRECTION ( 'NONE',  ( -1.000000000000000000, 0.000000000000000000, 0.000000000000000000 ) ) ;
#725 = ORIENTED_EDGE ( 'NONE', *, *, #186, .T. ) ;
#726 = EDGE_CURVE ( 'NONE', #137, #360, #544, .T. ) ;
#727 = DIRECTION ( 'NONE',  ( 1.000000000000000000, 0.000000000000000000, 0.000000000000000000 ) ) ;
#728 = COLOUR_RGB ( '',0.7921568627450980005, 0.8196078431372548767, 0.9333333333333333481 ) ;
#729 = ORIENTED_EDGE ( 'NONE', *, *, #683, .F. ) ;
#730 = DIRECTION ( 'NONE',  ( 0.000000000000000000, 0.000000000000000000, 1.000000000000000000 ) ) ;
#731 = ORIENTED_EDGE ( 'NONE', *, *, #590, .F. ) ;
#732 = ADVANCED_FACE ( 'NONE', ( #273 ), #44, .F. ) ;
#733 = DIRECTION ( 'NONE',  ( -0.7071067811865465735, 0.000000000000000000, -0.7071067811865484609 ) ) ;
#734 = CARTESIAN_POINT ( 'NONE',  ( -2.204364238465249627E-15, 12.00000000000000000, -23.50000000000000000 ) ) ;
#735 = ORIENTED_EDGE ( 'NONE', *, *, #306, .F. ) ;
#736 = CARTESIAN_POINT ( 'NONE',  ( 0.000000000000000000, 0.000000000000000000, -3.500000000000003109 ) ) ;
#737 = AXIS2_PLACEMENT_3D ( 'NONE', #503, #696, #497 ) ;
#738 = DIRECTION ( 'NONE',  ( -0.000000000000000000, -0.000000000000000000, -1.000000000000000000 ) ) ;
#739 = ORIENTED_EDGE ( 'NONE', *, *, #824, .T. ) ;
#740 = VECTOR ( 'NONE', #828, 1000.000000000000000 ) ;
#741 = DIRECTION ( 'NONE',  ( -1.000000000000000000, 0.000000000000000000, 0.000000000000000000 ) ) ;
#742 = PRODUCT_DEFINITION_FORMATION_WITH_SPECIFIED_SOURCE ( 'TUTTO', '', #31, .NOT_KNOWN. ) ;
#743 = CARTESIAN_POINT ( 'NONE',  ( 16.00000000000000355, 1.959434878635758032E-15, -13.99999999999999822 ) ) ;
#744 = VERTEX_POINT ( 'NONE', #682 ) ;
#745 = DIRECTION ( 'NONE',  ( -0.000000000000000000, -0.000000000000000000, -1.000000000000000000 ) ) ;
#746 = ORIENTED_EDGE ( 'NONE', *, *, #726, .F. ) ;
#747 = EDGE_CURVE ( 'NONE', #801, #172, #607, .T. ) ;
#748 = VECTOR ( 'NONE', #465, 1000.000000000000000 ) ;
#749 = CIRCLE ( 'NONE', #386, 16.30000000000000071 ) ;
#750 = AXIS2_PLACEMENT_3D ( 'NONE', #70, #347, #705 ) ;
#751 = AXIS2_PLACEMENT_3D ( 'NONE', #22, #308, #298 ) ;
#752 = VERTEX_POINT ( 'NONE', #622 ) ;
#753 = ADVANCED_FACE ( 'NONE', ( #269 ), #572, .F. ) ;
#754 = FACE_OUTER_BOUND ( 'NONE', #286, .T. ) ;
#755 = DIRECTION ( 'NONE',  ( 0.000000000000000000, 0.000000000000000000, -1.000000000000000000 ) ) ;
#756 = CARTESIAN_POINT ( 'NONE',  ( 16.30000000000006466, 0.000000000000000000, -23.50000000000000000 ) ) ;
#757 = LINE ( 'NONE', #127, #595 ) ;
#758 = VECTOR ( 'NONE', #633, 1000.000000000000000 ) ;
#759 = CARTESIAN_POINT ( 'NONE',  ( -6.131883886702351738, 8.400000000000002132, -3.500000000000003109 ) ) ;
#760 = DIRECTION ( 'NONE',  ( -1.000000000000000000, 0.000000000000000000, 0.000000000000000000 ) ) ;
#761 = ORIENTED_EDGE ( 'NONE', *, *, #473, .F. ) ;
#762 = CARTESIAN_POINT ( 'NONE',  ( -2.204364238465249627E-15, 12.00000000000000000, -23.50000000000000000 ) ) ;
#763 = VERTEX_POINT ( 'NONE', #280 ) ;
#764 = CYLINDRICAL_SURFACE ( 'NONE', #793, 10.40000000000000213 ) ;
#765 = CARTESIAN_POINT ( 'NONE',  ( 6.106226635438359710E-14, 0.000000000000000000, -16.50000000000000000 ) ) ;
#766 = PRODUCT_DEFINITION_SHAPE ( 'NONE', 'NONE',  #401 ) ;
#767 = ORIENTED_EDGE ( 'NONE', *, *, #461, .T. ) ;
#768 = EDGE_CURVE ( 'NONE', #810, #763, #774, .T. ) ;
#769 = DIRECTION ( 'NONE',  ( 0.000000000000000000, 0.000000000000000000, -1.000000000000000000 ) ) ;
#770 = EDGE_LOOP ( 'NONE', ( #89, #397, #648, #584 ) ) ;
#771 = VECTOR ( 'NONE', #253, 1000.000000000000000 ) ;
#772 = CIRCLE ( 'NONE', #457, 2.000000029802308177 ) ;
#773 = ORIENTED_EDGE ( 'NONE', *, *, #453, .F. ) ;
#774 = LINE ( 'NONE', #136, #487 ) ;
#775 = EDGE_CURVE ( 'NONE', #842, #891, #234, .T. ) ;
#776 = ORIENTED_EDGE ( 'NONE', *, *, #344, .T. ) ;
#777 = SURFACE_STYLE_FILL_AREA ( #63 ) ;
#778 = CARTESIAN_POINT ( 'NONE',  ( -6.131883886702351738, 8.400000000000002132, -3.500000000000003109 ) ) ;
#779 = EDGE_LOOP ( 'NONE', ( #418, #231 ) ) ;
#780 = VERTEX_POINT ( 'NONE', #841 ) ;
#781 = EDGE_CURVE ( 'NONE', #752, #859, #114, .T. ) ;
#782 = DIRECTION ( 'NONE',  ( -0.000000000000000000, -0.000000000000000000, -1.000000000000000000 ) ) ;
#783 = DIRECTION ( 'NONE',  ( -1.000000000000000000, 0.000000000000000000, 0.000000000000000000 ) ) ;
#784 = CARTESIAN_POINT ( 'NONE',  ( 2.000000029802309065, -12.00000000000000000, -15.50000000000000711 ) ) ;
#785 = FACE_OUTER_BOUND ( 'NONE', #644, .T. ) ;
#786 =( LENGTH_UNIT ( ) NAMED_UNIT ( * ) SI_UNIT ( .MILLI., .METRE. ) );
#787 = APPLICATION_PROTOCOL_DEFINITION ( 'draft international standard', 'automotive_design', 1998, #257 ) ;
#788 = EDGE_CURVE ( 'NONE', #467, #707, #88, .T. ) ;
#789 = CARTESIAN_POINT ( 'NONE',  ( 7.347880794884160165E-16, -12.00000000000000000, -15.50000000000000711 ) ) ;
#790 = DIRECTION ( 'NONE',  ( -0.000000000000000000, -0.000000000000000000, -1.000000000000000000 ) ) ;
#791 = ORIENTED_EDGE ( 'NONE', *, *, #636, .T. ) ;
#792 = CARTESIAN_POINT ( 'NONE',  ( -14.00000002980230818, -1.469576158976829864E-15, -23.50000000000000000 ) ) ;
#793 = AXIS2_PLACEMENT_3D ( 'NONE', #514, #782, #4 ) ;
#794 = AXIS2_PLACEMENT_3D ( 'NONE', #613, #608, #260 ) ;
#795 = DIRECTION ( 'NONE',  ( 0.000000000000000000, 0.000000000000000000, -1.000000000000000000 ) ) ;
#796 = ORIENTED_EDGE ( 'NONE', *, *, #788, .F. ) ;
#797 = ADVANCED_FACE ( 'NONE', ( #489, #554 ), #10, .T. ) ;
#798 = CARTESIAN_POINT ( 'NONE',  ( 2.000000029802310841, -12.00000000000000000, -23.50000000000000000 ) ) ;
#799 = CIRCLE ( 'NONE', #610, 15.99999999999993783 ) ;
#800 = LINE ( 'NONE', #887, #520 ) ;
#801 = VERTEX_POINT ( 'NONE', #66 ) ;
#802 = EDGE_CURVE ( 'NONE', #367, #389, #426, .T. ) ;
#803 = DIRECTION ( 'NONE',  ( 0.000000000000000000, 0.000000000000000000, -1.000000000000000000 ) ) ;
#804 = DIRECTION ( 'NONE',  ( 0.000000000000000000, 0.000000000000000000, -1.000000000000000000 ) ) ;
#805 = ORIENTED_EDGE ( 'NONE', *, *, #202, .T. ) ;
#806 = CARTESIAN_POINT ( 'NONE',  ( 6.131883886702358843, 8.400000000000000355, -23.50000000000000000 ) ) ;
#807 = VECTOR ( 'NONE', #634, 1000.000000000000000 ) ;
#808 = DIRECTION ( 'NONE',  ( -1.000000000000000000, 0.000000000000000000, 0.000000000000000000 ) ) ;
#809 = CARTESIAN_POINT ( 'NONE',  ( 12.00000000000000000, 0.000000000000000000, -15.50000000000000711 ) ) ;
#810 = VERTEX_POINT ( 'NONE', #847 ) ;
#811 = CARTESIAN_POINT ( 'NONE',  ( 6.106226635438359710E-14, 0.000000000000000000, -25.50000000000000000 ) ) ;
#812 = AXIS2_PLACEMENT_3D ( 'NONE', #862, #511, #727 ) ;
#813 = EDGE_CURVE ( 'NONE', #859, #846, #757, .T. ) ;
#814 = CYLINDRICAL_SURFACE ( 'NONE', #82, 10.40000000000000036 ) ;
#815 = VECTOR ( 'NONE', #59, 1000.000000000000000 ) ;
#816 = DIRECTION ( 'NONE',  ( 0.000000000000000000, 0.000000000000000000, -1.000000000000000000 ) ) ;
#817 =( GEOMETRIC_REPRESENTATION_CONTEXT ( 3 ) GLOBAL_UNCERTAINTY_ASSIGNED_CONTEXT ( ( #316 ) ) GLOBAL_UNIT_ASSIGNED_CONTEXT ( ( #786, #73, #438 ) ) REPRESENTATION_CONTEXT ( 'NONE', 'WORKASPACE' ) );
#818 = ORIENTED_EDGE ( 'NONE', *, *, #549, .F. ) ;
#819 = VECTOR ( 'NONE', #382, 1000.000000000000000 ) ;
#820 = VECTOR ( 'NONE', #35, 1000.000000000000000 ) ;
#821 = DIRECTION ( 'NONE',  ( -0.000000000000000000, -0.000000000000000000, -1.000000000000000000 ) ) ;
#822 = ORIENTED_EDGE ( 'NONE', *, *, #165, .F. ) ;
#823 = CARTESIAN_POINT ( 'NONE',  ( 6.131883886702361508, -8.399999999999996803, -3.500000000000003109 ) ) ;
#824 = EDGE_CURVE ( 'NONE', #367, #137, #799, .T. ) ;
#825 = DIRECTION ( 'NONE',  ( -1.000000000000000000, 0.000000000000000000, 0.000000000000000000 ) ) ;
#826 = CARTESIAN_POINT ( 'NONE',  ( 7.347880794884160165E-16, -12.00000000000000000, -23.50000000000000000 ) ) ;
#827 = ADVANCED_FACE ( 'NONE', ( #452 ), #600, .F. ) ;
#828 = DIRECTION ( 'NONE',  ( -0.000000000000000000, -0.000000000000000000, -1.000000000000000000 ) ) ;
#829 = VECTOR ( 'NONE', #863, 1000.000000000000000 ) ;
#830 = AXIS2_PLACEMENT_3D ( 'NONE', #208, #481, #75 ) ;
#831 = DIRECTION ( 'NONE',  ( 0.000000000000000000, 0.000000000000000000, 1.000000000000000000 ) ) ;
#832 = CARTESIAN_POINT ( 'NONE',  ( -12.00000000000000000, -1.469576158976829864E-15, -15.50000000000000711 ) ) ;
#833 = EDGE_LOOP ( 'NONE', ( #848, #432, #3, #731 ) ) ;
#834 = ORIENTED_EDGE ( 'NONE', *, *, #261, .F. ) ;
#835 = FACE_OUTER_BOUND ( 'NONE', #323, .T. ) ;
#836 = EDGE_CURVE ( 'NONE', #246, #373, #694, .T. ) ;
#837 = DIRECTION ( 'NONE',  ( 0.000000000000000000, 0.000000000000000000, 1.000000000000000000 ) ) ;
#838 = CARTESIAN_POINT ( 'NONE',  ( 6.106226635438359710E-14, 0.000000000000000000, -3.499999999999999556 ) ) ;
#839 = ORIENTED_EDGE ( 'NONE', *, *, #590, .T. ) ;
#840 = AXIS2_PLACEMENT_3D ( 'NONE', #722, #83, #593 ) ;
#841 = CARTESIAN_POINT ( 'NONE',  ( -2.000000029802312174, 12.00000000000000000, -23.50000000000000000 ) ) ;
#842 = VERTEX_POINT ( 'NONE', #806 ) ;
#843 = LINE ( 'NONE', #105, #819 ) ;
#844 = CARTESIAN_POINT ( 'NONE',  ( 16.00000000000000000, 1.959434878635757637E-15, -3.500000000000003109 ) ) ;
#845 = EDGE_CURVE ( 'NONE', #632, #373, #173, .T. ) ;
#846 = VERTEX_POINT ( 'NONE', #798 ) ;
#847 = CARTESIAN_POINT ( 'NONE',  ( -8.399999999999996803, -6.131883886702361508, -3.500000000000003109 ) ) ;
#848 = ORIENTED_EDGE ( 'NONE', *, *, #485, .T. ) ;
#849 = PLANE ( 'NONE',  #561 ) ;
#850 = DIRECTION ( 'NONE',  ( -0.000000000000000000, -0.000000000000000000, -1.000000000000000000 ) ) ;
#851 = FACE_OUTER_BOUND ( 'NONE', #470, .T. ) ;
#852 = VERTEX_POINT ( 'NONE', #867 ) ;
#853 = EDGE_CURVE ( 'NONE', #763, #146, #516, .T. ) ;
#854 = DIRECTION ( 'NONE',  ( -0.000000000000000000, -0.000000000000000000, -1.000000000000000000 ) ) ;
#855 = DIRECTION ( 'NONE',  ( -2.829022055911298815E-16, 1.000000000000000000, 0.000000000000000000 ) ) ;
#856 = CIRCLE ( 'NONE', #54, 2.000000029802309953 ) ;
#857 = VECTOR ( 'NONE', #361, 1000.000000000000000 ) ;
#858 = ORIENTED_EDGE ( 'NONE', *, *, #845, .F. ) ;
#859 = VERTEX_POINT ( 'NONE', #784 ) ;
#860 = DIRECTION ( 'NONE',  ( -1.000000000000000000, 0.000000000000000000, 0.000000000000000000 ) ) ;
#861 = ORIENTED_EDGE ( 'NONE', *, *, #627, .F. ) ;
#862 = CARTESIAN_POINT ( 'NONE',  ( 6.106226635438359710E-14, 0.000000000000000000, -23.50000000000000000 ) ) ;
#863 = DIRECTION ( 'NONE',  ( -0.000000000000000000, -0.000000000000000000, -1.000000000000000000 ) ) ;
#864 = PRODUCT_DEFINITION_CONTEXT ( 'detailed design', #257, 'design' ) ;
#865 = EDGE_LOOP ( 'NONE', ( #746, #519, #592, #900 ) ) ;
#866 = ORIENTED_EDGE ( 'NONE', *, *, #788, .T. ) ;
#867 = CARTESIAN_POINT ( 'NONE',  ( 16.30000000000006466, 0.000000000000000000, -25.50000000000000000 ) ) ;
#868 = VECTOR ( 'NONE', #284, 1000.000000000000000 ) ;
#869 = CARTESIAN_POINT ( 'NONE',  ( 9.999999970197691823, 0.000000000000000000, -23.50000000000000000 ) ) ;
#870 = AXIS2_PLACEMENT_3D ( 'NONE', #8, #574, #295 ) ;
#871 = DIRECTION ( 'NONE',  ( 1.000000000000000000, 0.000000000000000000, 0.000000000000000000 ) ) ;
#872 = EDGE_CURVE ( 'NONE', #144, #842, #29, .T. ) ;
#873 = ORIENTED_EDGE ( 'NONE', *, *, #507, .F. ) ;
#874 = DIRECTION ( 'NONE',  ( 1.000000000000000000, 0.000000000000000000, -0.000000000000000000 ) ) ;
#875 = ORIENTED_EDGE ( 'NONE', *, *, #175, .T. ) ;
#876 = DIRECTION ( 'NONE',  ( -0.000000000000000000, -0.000000000000000000, -1.000000000000000000 ) ) ;
#877 = VERTEX_POINT ( 'NONE', #315 ) ;
#878 = CARTESIAN_POINT ( 'NONE',  ( 8.400000000000002132, 6.131883886702354403, -23.50000000000000000 ) ) ;
#879 = EDGE_CURVE ( 'NONE', #373, #246, #364, .T. ) ;
#880 = VECTOR ( 'NONE', #434, 1000.000000000000000 ) ;
#881 = CARTESIAN_POINT ( 'NONE',  ( 6.131883886702358843, 8.400000000000000355, -3.500000000000003109 ) ) ;
#882 = ORIENTED_EDGE ( 'NONE', *, *, #243, .F. ) ;
#883 = CARTESIAN_POINT ( 'NONE',  ( -18.49999999999990408, 0.000000000000000000, -3.499999999999999556 ) ) ;
#884 = AXIS2_PLACEMENT_3D ( 'NONE', #568, #704, #711 ) ;
#885 = AXIS2_PLACEMENT_3D ( 'NONE', #498, #566, #6 ) ;
#886 = EDGE_CURVE ( 'NONE', #360, #389, #464, .T. ) ;
#887 = CARTESIAN_POINT ( 'NONE',  ( -18.49999999999987566, 0.000000000000000000, -16.50000000000000000 ) ) ;
#888 = ORIENTED_EDGE ( 'NONE', *, *, #327, .F. ) ;
#889 = DIRECTION ( 'NONE',  ( -1.000000000000000000, 0.000000000000000000, 0.000000000000000000 ) ) ;
#890 = EDGE_CURVE ( 'NONE', #172, #744, #90, .T. ) ;
#891 = VERTEX_POINT ( 'NONE', #878 ) ;
#892 = DIRECTION ( 'NONE',  ( 1.000000000000000000, 0.000000000000000000, 0.000000000000000000 ) ) ;
#893 = AXIS2_PLACEMENT_3D ( 'NONE', #100, #745, #871 ) ;
#894 = CARTESIAN_POINT ( 'NONE',  ( -2.000000029802311285, 12.00000000000000000, -23.50000000000000000 ) ) ;
#895 = CARTESIAN_POINT ( 'NONE',  ( 6.106226635438359710E-14, 0.000000000000000000, -3.499999999999999556 ) ) ;
#896 = CARTESIAN_POINT ( 'NONE',  ( 18.50000000000006040, 2.265596578422603396E-15, -25.50000000000000000 ) ) ;
#897 = CARTESIAN_POINT ( 'NONE',  ( 6.131883886702356179, -8.400000000000000355, -23.50000000000000000 ) ) ;
#898 = VERTEX_POINT ( 'NONE', #537 ) ;
#899 = EDGE_CURVE ( 'NONE', #232, #744, #134, .T. ) ;
#900 = ORIENTED_EDGE ( 'NONE', *, *, #886, .F. ) ;
#901 = CARTESIAN_POINT ( 'NONE',  ( 12.00000000000000000, 0.000000000000000000, -23.50000000000000000 ) ) ;
ENDSEC;
END-ISO-10303-21;
