ISO-10303-21;
HEADER;
FILE_DESCRIPTION (( 'STEP AP214' ),
    '1' );
FILE_NAME ('ELP-0013.STEP',
    '2026-03-22T03:06:43',
    ( '' ),
    ( '' ),
    'SwSTEP 2.0',
    'SolidWorks 2024',
    '' );
FILE_SCHEMA (( 'AUTOMOTIVE_DESIGN' ));
ENDSEC;

DATA;
#1 = CARTESIAN_POINT ( 'NONE',  ( 31.50000000000000000, 12.00000000000000000, 10.20000000000000107 ) ) ;
#2 = DIRECTION ( 'NONE',  ( 1.224646799147350002E-16, 1.000000000000000000, 0.000000000000000000 ) ) ;
#3 = CIRCLE ( 'NONE', #433, 2.250000000000001776 ) ;
#4 = CIRCLE ( 'NONE', #107, 3.999999999999996447 ) ;
#5 = CARTESIAN_POINT ( 'NONE',  ( 63.75000000000000000, 8.000000000000000000, 6.799999999999999822 ) ) ;
#6 = VECTOR ( 'NONE', #227, 1000.000000000000000 ) ;
#7 = DIRECTION ( 'NONE',  ( -1.000000000000000000, 1.224646799147350002E-16, 0.000000000000000000 ) ) ;
#8 = ADVANCED_FACE ( 'NONE', ( #26, #366 ), #727, .T. ) ;
#9 = ORIENTED_EDGE ( 'NONE', *, *, #698, .T. ) ;
#10 = CARTESIAN_POINT ( 'NONE',  ( 76.50000000000000000, 4.000000000000000000, 4.500000000000000000 ) ) ;
#11 = CARTESIAN_POINT ( 'NONE',  ( 76.50000000000000000, 12.00000000000000000, 12.09999999999999964 ) ) ;
#12 = EDGE_LOOP ( 'NONE', ( #683, #556, #204, #506 ) ) ;
#13 = AXIS2_PLACEMENT_3D ( 'NONE', #53, #2, #652 ) ;
#14 = FACE_OUTER_BOUND ( 'NONE', #15, .T. ) ;
#15 = EDGE_LOOP ( 'NONE', ( #9, #322, #186, #219 ) ) ;
#16 = CARTESIAN_POINT ( 'NONE',  ( 57.49999999999999289, 12.00000000000000000, 6.799999999999999822 ) ) ;
#17 = VERTEX_POINT ( 'NONE', #678 ) ;
#18 = VECTOR ( 'NONE', #605, 1000.000000000000000 ) ;
#19 = EDGE_CURVE ( 'NONE', #724, #480, #427, .T. ) ;
#20 = PLANE ( 'NONE',  #582 ) ;
#21 = ORIENTED_EDGE ( 'NONE', *, *, #229, .T. ) ;
#22 = ORIENTED_EDGE ( 'NONE', *, *, #393, .F. ) ;
#23 = AXIS2_PLACEMENT_3D ( 'NONE', #664, #295, #130 ) ;
#24 = EDGE_CURVE ( 'NONE', #691, #673, #689, .T. ) ;
#25 = DIRECTION ( 'NONE',  ( -1.224646799147350002E-16, -1.000000000000000000, 0.000000000000000000 ) ) ;
#26 = FACE_BOUND ( 'NONE', #566, .T. ) ;
#27 = VERTEX_POINT ( 'NONE', #694 ) ;
#28 = CARTESIAN_POINT ( 'NONE',  ( 61.50000000000000000, 4.000000000000000000, 6.799999999999999822 ) ) ;
#29 = VERTEX_POINT ( 'NONE', #741 ) ;
#30 = DIRECTION ( 'NONE',  ( 0.000000000000000000, 0.000000000000000000, 1.000000000000000000 ) ) ;
#31 = EDGE_LOOP ( 'NONE', ( #612, #161, #372, #679, #291, #719 ) ) ;
#32 = DIRECTION ( 'NONE',  ( -1.000000000000000000, 1.224646799147350002E-16, 0.000000000000000000 ) ) ;
#33 = EDGE_CURVE ( 'NONE', #133, #118, #507, .T. ) ;
#34 = ORIENTED_EDGE ( 'NONE', *, *, #120, .F. ) ;
#35 = DIRECTION ( 'NONE',  ( -1.000000000000000000, 1.224646799147350002E-16, 0.000000000000000000 ) ) ;
#36 = ORIENTED_EDGE ( 'NONE', *, *, #158, .T. ) ;
#37 = FACE_OUTER_BOUND ( 'NONE', #200, .T. ) ;
#38 = FACE_OUTER_BOUND ( 'NONE', #265, .T. ) ;
#39 = EDGE_LOOP ( 'NONE', ( #624, #335, #520, #485, #687, #429 ) ) ;
#40 = VECTOR ( 'NONE', #389, 1000.000000000000000 ) ;
#41 = VECTOR ( 'NONE', #218, 1000.000000000000000 ) ;
#42 = LINE ( 'NONE', #504, #532 ) ;
#43 = CIRCLE ( 'NONE', #167, 2.250000000000001776 ) ;
#44 = FACE_OUTER_BOUND ( 'NONE', #31, .T. ) ;
#45 = ADVANCED_FACE ( 'NONE', ( #340 ), #697, .F. ) ;
#46 = DIRECTION ( 'NONE',  ( -1.000000000000000000, 1.224646799147350002E-16, 0.000000000000000000 ) ) ;
#47 = CARTESIAN_POINT ( 'NONE',  ( 75.50000000000000000, 8.000000000000000000, 13.59999999999999964 ) ) ;
#48 = LINE ( 'NONE', #327, #174 ) ;
#49 = SHAPE_DEFINITION_REPRESENTATION ( #621, #362 ) ;
#50 = AXIS2_PLACEMENT_3D ( 'NONE', #179, #534, #660 ) ;
#51 = CYLINDRICAL_SURFACE ( 'NONE', #177, 2.250000000000001776 ) ;
#52 = AXIS2_PLACEMENT_3D ( 'NONE', #492, #82, #90 ) ;
#53 = CARTESIAN_POINT ( 'NONE',  ( 41.50000000000000000, 4.000000000000000000, 6.799999999999999822 ) ) ;
#54 = DIRECTION ( 'NONE',  ( -1.224646799147350002E-16, -1.000000000000000000, 0.000000000000000000 ) ) ;
#55 = EDGE_CURVE ( 'NONE', #89, #164, #42, .T. ) ;
#56 = FACE_OUTER_BOUND ( 'NONE', #279, .T. ) ;
#57 = CARTESIAN_POINT ( 'NONE',  ( 26.50000000000000000, 4.000000000000000000, 4.500000000000000000 ) ) ;
#58 = CARTESIAN_POINT ( 'NONE',  ( 40.00000000000000000, 20.50000000000000000, 13.59999999999999964 ) ) ;
#59 = CARTESIAN_POINT ( 'NONE',  ( 37.50000000000000711, 12.00000000000000000, 6.799999999999999822 ) ) ;
#60 = AXIS2_PLACEMENT_3D ( 'NONE', #350, #409, #347 ) ;
#61 = AXIS2_PLACEMENT_3D ( 'NONE', #63, #469, #540 ) ;
#62 = EDGE_CURVE ( 'NONE', #696, #724, #458, .T. ) ;
#63 = CARTESIAN_POINT ( 'NONE',  ( 41.50000000000000000, 8.000000000000000000, 6.799999999999999822 ) ) ;
#64 = VECTOR ( 'NONE', #241, 1000.000000000000114 ) ;
#65 =( NAMED_UNIT ( * ) PLANE_ANGLE_UNIT ( ) SI_UNIT ( $, .RADIAN. ) );
#66 = ORIENTED_EDGE ( 'NONE', *, *, #393, .T. ) ;
#67 = DIRECTION ( 'NONE',  ( -1.000000000000000000, 0.000000000000000000, 0.000000000000000000 ) ) ;
#68 = DIRECTION ( 'NONE',  ( 0.000000000000000000, 0.000000000000000000, 1.000000000000000000 ) ) ;
#69 = ORIENTED_EDGE ( 'NONE', *, *, #470, .T. ) ;
#70 = CARTESIAN_POINT ( 'NONE',  ( 76.50000000000000000, 4.000000000000000000, 9.099999999999999645 ) ) ;
#71 = DIRECTION ( 'NONE',  ( 1.224646799147350002E-16, 1.000000000000000000, 0.000000000000000000 ) ) ;
#72 = CARTESIAN_POINT ( 'NONE',  ( 71.50000000000000000, 12.00000000000000000, 10.20000000000000107 ) ) ;
#73 = ORIENTED_EDGE ( 'NONE', *, *, #721, .T. ) ;
#74 = VECTOR ( 'NONE', #211, 1000.000000000000000 ) ;
#75 = AXIS2_PLACEMENT_3D ( 'NONE', #169, #704, #524 ) ;
#76 = CYLINDRICAL_SURFACE ( 'NONE', #533, 2.250000000000001776 ) ;
#77 = ORIENTED_EDGE ( 'NONE', *, *, #96, .T. ) ;
#78 = FILL_AREA_STYLE_COLOUR ( '', #202 ) ;
#79 = EDGE_CURVE ( 'NONE', #359, #183, #166, .T. ) ;
#80 = VERTEX_POINT ( 'NONE', #685 ) ;
#81 = VECTOR ( 'NONE', #645, 1000.000000000000000 ) ;
#82 = DIRECTION ( 'NONE',  ( -1.000000000000000000, 1.224646799147350002E-16, 0.000000000000000000 ) ) ;
#83 = EDGE_LOOP ( 'NONE', ( #368, #21, #206, #462 ) ) ;
#84 = CARTESIAN_POINT ( 'NONE',  ( 26.50000000000000000, 6.000000000000000000, 9.099999999999999645 ) ) ;
#85 = EDGE_LOOP ( 'NONE', ( #442, #66, #192, #190 ) ) ;
#86 = DIRECTION ( 'NONE',  ( 1.000000000000000000, 0.000000000000000000, 0.000000000000000000 ) ) ;
#87 = ORIENTED_EDGE ( 'NONE', *, *, #583, .T. ) ;
#88 = LINE ( 'NONE', #152, #740 ) ;
#89 = VERTEX_POINT ( 'NONE', #111 ) ;
#90 = DIRECTION ( 'NONE',  ( 0.000000000000000000, 0.000000000000000000, 1.000000000000000000 ) ) ;
#91 = EDGE_CURVE ( 'NONE', #570, #359, #159, .T. ) ;
#92 = EDGE_LOOP ( 'NONE', ( #157, #717, #606, #675 ) ) ;
#93 = CARTESIAN_POINT ( 'NONE',  ( 61.50000000000000000, 4.000000000000000000, 6.799999999999999822 ) ) ;
#94 = ORIENTED_EDGE ( 'NONE', *, *, #692, .F. ) ;
#95 = AXIS2_PLACEMENT_3D ( 'NONE', #662, #125, #358 ) ;
#96 = EDGE_CURVE ( 'NONE', #304, #558, #500, .T. ) ;
#97 = CARTESIAN_POINT ( 'NONE',  ( 61.50000000000000000, 8.000000000000000000, 6.799999999999999822 ) ) ;
#98 = CARTESIAN_POINT ( 'NONE',  ( 38.23333333333329875, 18.73333333333329875, 5.366666666666669805 ) ) ;
#99 = ORIENTED_EDGE ( 'NONE', *, *, #523, .T. ) ;
#100 = CARTESIAN_POINT ( 'NONE',  ( 43.75000000000000711, 8.000000000000000000, 6.799999999999999822 ) ) ;
#101 = ADVANCED_FACE ( 'NONE', ( #627 ), #448, .F. ) ;
#102 = CARTESIAN_POINT ( 'NONE',  ( 76.50000000000000000, 4.000000000000000000, 9.099999999999999645 ) ) ;
#103 = ORIENTED_EDGE ( 'NONE', *, *, #738, .T. ) ;
#104 = FACE_OUTER_BOUND ( 'NONE', #661, .T. ) ;
#105 = AXIS2_PLACEMENT_3D ( 'NONE', #205, #502, #168 ) ;
#106 = CYLINDRICAL_SURFACE ( 'NONE', #371, 2.250000000000001776 ) ;
#107 = AXIS2_PLACEMENT_3D ( 'NONE', #415, #293, #716 ) ;
#108 = CARTESIAN_POINT ( 'NONE',  ( 31.50000000000000000, 12.00000000000000000, 12.09999999999999964 ) ) ;
#109 = ADVANCED_FACE ( 'NONE', ( #37 ), #106, .F. ) ;
#110 = CIRCLE ( 'NONE', #95, 4.000000000000003553 ) ;
#111 = CARTESIAN_POINT ( 'NONE',  ( 76.50000000000000000, 6.000000000000000000, 9.099999999999999645 ) ) ;
#112 = LINE ( 'NONE', #344, #512 ) ;
#113 = CARTESIAN_POINT ( 'NONE',  ( 41.50000000000000000, 12.00000000000000000, 6.799999999999999822 ) ) ;
#114 = CARTESIAN_POINT ( 'NONE',  ( 43.75000000000000711, 8.000000000000000000, 6.799999999999999822 ) ) ;
#115 = EDGE_CURVE ( 'NONE', #620, #616, #630, .T. ) ;
#116 = CIRCLE ( 'NONE', #490, 2.250000000000001776 ) ;
#117 = CARTESIAN_POINT ( 'NONE',  ( 61.50000000000000000, 8.000000000000000000, 6.799999999999999822 ) ) ;
#118 = VERTEX_POINT ( 'NONE', #277 ) ;
#119 = MECHANICAL_DESIGN_GEOMETRIC_PRESENTATION_REPRESENTATION (  '', ( #342 ), #390 ) ;
#120 = EDGE_CURVE ( 'NONE', #183, #80, #574, .T. ) ;
#121 = PLANE ( 'NONE',  #377 ) ;
#122 = PLANE ( 'NONE',  #484 ) ;
#123 = EDGE_CURVE ( 'NONE', #752, #601, #43, .T. ) ;
#124 = DIRECTION ( 'NONE',  ( 0.000000000000000000, 0.000000000000000000, -1.000000000000000000 ) ) ;
#125 = DIRECTION ( 'NONE',  ( -1.224646799147350002E-16, -1.000000000000000000, 0.000000000000000000 ) ) ;
#126 = ORIENTED_EDGE ( 'NONE', *, *, #555, .F. ) ;
#127 = PLANE ( 'NONE',  #141 ) ;
#128 = DIRECTION ( 'NONE',  ( -1.224646799147350002E-16, -1.000000000000000000, 0.000000000000000000 ) ) ;
#129 = ORIENTED_EDGE ( 'NONE', *, *, #115, .T. ) ;
#130 = DIRECTION ( 'NONE',  ( -1.000000000000000000, 0.000000000000000000, 0.000000000000000000 ) ) ;
#131 = ORIENTED_EDGE ( 'NONE', *, *, #759, .T. ) ;
#132 = CARTESIAN_POINT ( 'NONE',  ( 73.00000000000000000, 10.50000000000000000, -1.110223024625159893E-15 ) ) ;
#133 = VERTEX_POINT ( 'NONE', #474 ) ;
#134 = FACE_BOUND ( 'NONE', #435, .T. ) ;
#135 = ADVANCED_FACE ( 'NONE', ( #357, #240, #14 ), #127, .T. ) ;
#136 = DIRECTION ( 'NONE',  ( -0.7071067811865480168, -0.7071067811865470176, 0.000000000000000000 ) ) ;
#137 = PRESENTATION_STYLE_ASSIGNMENT (( #548 ) ) ;
#138 = VERTEX_POINT ( 'NONE', #655 ) ;
#139 = VECTOR ( 'NONE', #35, 1000.000000000000000 ) ;
#140 = DIRECTION ( 'NONE',  ( 1.224646799147350002E-16, 1.000000000000000000, 0.000000000000000000 ) ) ;
#141 = AXIS2_PLACEMENT_3D ( 'NONE', #10, #233, #598 ) ;
#142 = ORIENTED_EDGE ( 'NONE', *, *, #578, .F. ) ;
#143 = CARTESIAN_POINT ( 'NONE',  ( 76.50000000000000000, 6.000000000000000000, 0.000000000000000000 ) ) ;
#144 = VERTEX_POINT ( 'NONE', #471 ) ;
#145 = AXIS2_PLACEMENT_3D ( 'NONE', #573, #346, #46 ) ;
#146 = CARTESIAN_POINT ( 'NONE',  ( 76.50000000000000000, 6.000000000000000000, 13.59999999999999964 ) ) ;
#147 = VERTEX_POINT ( 'NONE', #653 ) ;
#148 = ORIENTED_EDGE ( 'NONE', *, *, #523, .F. ) ;
#149 = EDGE_CURVE ( 'NONE', #183, #696, #707, .T. ) ;
#150 = CARTESIAN_POINT ( 'NONE',  ( 76.50000000000000000, 7.000000000000000000, 13.59999999999999964 ) ) ;
#151 = ORIENTED_EDGE ( 'NONE', *, *, #659, .F. ) ;
#152 = CARTESIAN_POINT ( 'NONE',  ( 71.96666666666671119, 11.53333333333329946, 1.033333333333329884 ) ) ;
#153 = EDGE_LOOP ( 'NONE', ( #196, #94 ) ) ;
#154 = VECTOR ( 'NONE', #488, 1000.000000000000000 ) ;
#155 = CARTESIAN_POINT ( 'NONE',  ( 26.50000000000000000, 6.000000000000000000, 13.59999999999999964 ) ) ;
#156 = CARTESIAN_POINT ( 'NONE',  ( 76.50000000000000000, 12.00000000000000000, 1.500000000000000000 ) ) ;
#157 = ORIENTED_EDGE ( 'NONE', *, *, #494, .T. ) ;
#158 = EDGE_CURVE ( 'NONE', #473, #620, #237, .T. ) ;
#159 = LINE ( 'NONE', #47, #336 ) ;
#160 = DIRECTION ( 'NONE',  ( 0.000000000000000000, -1.000000000000000000, 0.000000000000000000 ) ) ;
#161 = ORIENTED_EDGE ( 'NONE', *, *, #19, .T. ) ;
#162 = CARTESIAN_POINT ( 'NONE',  ( 76.50000000000000000, 10.50000000000000000, 0.000000000000000000 ) ) ;
#163 = DIRECTION ( 'NONE',  ( 1.000000000000000000, -1.224646799147350002E-16, 0.000000000000000000 ) ) ;
#164 = VERTEX_POINT ( 'NONE', #181 ) ;
#165 = VECTOR ( 'NONE', #732, 1000.000000000000000 ) ;
#166 = LINE ( 'NONE', #511, #173 ) ;
#167 = AXIS2_PLACEMENT_3D ( 'NONE', #282, #518, #67 ) ;
#168 = DIRECTION ( 'NONE',  ( -1.000000000000000000, 0.000000000000000000, -1.224646799147351975E-16 ) ) ;
#169 = CARTESIAN_POINT ( 'NONE',  ( 41.50000000000000000, 8.000000000000000000, 6.799999999999999822 ) ) ;
#170 = EDGE_CURVE ( 'NONE', #80, #478, #592, .T. ) ;
#171 = CARTESIAN_POINT ( 'NONE',  ( 43.75000000000000711, 4.000000000000000000, 6.799999999999999822 ) ) ;
#172 = VERTEX_POINT ( 'NONE', #59 ) ;
#173 = VECTOR ( 'NONE', #403, 1000.000000000000000 ) ;
#174 = VECTOR ( 'NONE', #391, 1000.000000000000000 ) ;
#175 = CARTESIAN_POINT ( 'NONE',  ( 41.50000000000000000, 4.000000000000000000, 6.799999999999999822 ) ) ;
#176 = FACE_OUTER_BOUND ( 'NONE', #722, .T. ) ;
#177 = AXIS2_PLACEMENT_3D ( 'NONE', #461, #701, #646 ) ;
#178 = EDGE_CURVE ( 'NONE', #263, #691, #184, .T. ) ;
#179 = CARTESIAN_POINT ( 'NONE',  ( 61.50000000000000000, 12.00000000000000000, 6.799999999999999822 ) ) ;
#180 = EDGE_LOOP ( 'NONE', ( #194, #328, #663, #656 ) ) ;
#181 = CARTESIAN_POINT ( 'NONE',  ( 76.50000000000000000, 6.000000000000000000, 13.59999999999999964 ) ) ;
#182 = LINE ( 'NONE', #16, #730 ) ;
#183 = VERTEX_POINT ( 'NONE', #423 ) ;
#184 = LINE ( 'NONE', #57, #594 ) ;
#185 = PRODUCT_DEFINITION_FORMATION_WITH_SPECIFIED_SOURCE ( 'TUTTO', '', #495, .NOT_KNOWN. ) ;
#186 = ORIENTED_EDGE ( 'NONE', *, *, #178, .F. ) ;
#187 = VERTEX_POINT ( 'NONE', #301 ) ;
#188 = EDGE_CURVE ( 'NONE', #172, #758, #4, .T. ) ;
#189 = LINE ( 'NONE', #1, #261 ) ;
#190 = ORIENTED_EDGE ( 'NONE', *, *, #715, .F. ) ;
#191 = DIRECTION ( 'NONE',  ( 8.659560562354931626E-17, 0.7071067811865480168, 0.7071067811865470176 ) ) ;
#192 = ORIENTED_EDGE ( 'NONE', *, *, #692, .T. ) ;
#193 = LINE ( 'NONE', #607, #154 ) ;
#194 = ORIENTED_EDGE ( 'NONE', *, *, #170, .T. ) ;
#195 = LINE ( 'NONE', #11, #597 ) ;
#196 = ORIENTED_EDGE ( 'NONE', *, *, #33, .F. ) ;
#197 = CIRCLE ( 'NONE', #467, 2.250000000000001776 ) ;
#198 = DIRECTION ( 'NONE',  ( -1.000000000000000000, 0.000000000000000000, 0.000000000000000000 ) ) ;
#199 = ADVANCED_FACE ( 'NONE', ( #297 ), #537, .F. ) ;
#200 = EDGE_LOOP ( 'NONE', ( #254, #667, #320, #126 ) ) ;
#201 = ORIENTED_EDGE ( 'NONE', *, *, #123, .T. ) ;
#202 = COLOUR_RGB ( '',0.7921568627450980005, 0.8196078431372548767, 0.9333333333333333481 ) ;
#203 = DIRECTION ( 'NONE',  ( -1.000000000000000000, 0.000000000000000000, 0.000000000000000000 ) ) ;
#204 = ORIENTED_EDGE ( 'NONE', *, *, #399, .T. ) ;
#205 = CARTESIAN_POINT ( 'NONE',  ( 76.50000000000000000, 11.25000000000000000, 0.7500000000000000000 ) ) ;
#206 = ORIENTED_EDGE ( 'NONE', *, *, #24, .F. ) ;
#207 = DIRECTION ( 'NONE',  ( -1.224646799147350002E-16, -1.000000000000000000, 0.000000000000000000 ) ) ;
#208 = PLANE ( 'NONE',  #244 ) ;
#209 = ORIENTED_EDGE ( 'NONE', *, *, #443, .F. ) ;
#210 = AXIS2_PLACEMENT_3D ( 'NONE', #28, #253, #439 ) ;
#211 = DIRECTION ( 'NONE',  ( -1.000000000000000000, 1.224646799147350002E-16, 0.000000000000000000 ) ) ;
#212 = LINE ( 'NONE', #156, #165 ) ;
#213 = EDGE_LOOP ( 'NONE', ( #99, #456 ) ) ;
#214 = APPLICATION_CONTEXT ( 'automotive_design' ) ;
#215 = ADVANCED_FACE ( 'NONE', ( #586 ), #122, .T. ) ;
#216 = CARTESIAN_POINT ( 'NONE',  ( 26.50000000000000000, 12.00000000000000000, 0.000000000000000000 ) ) ;
#217 = DIRECTION ( 'NONE',  ( 1.224646799147350002E-16, 1.000000000000000000, 0.000000000000000000 ) ) ;
#218 = DIRECTION ( 'NONE',  ( -1.224646799147350002E-16, -1.000000000000000000, 0.000000000000000000 ) ) ;
#219 = ORIENTED_EDGE ( 'NONE', *, *, #413, .F. ) ;
#220 = VECTOR ( 'NONE', #7, 1000.000000000000000 ) ;
#221 =( NAMED_UNIT ( * ) SI_UNIT ( $, .STERADIAN. ) SOLID_ANGLE_UNIT ( ) );
#222 = CARTESIAN_POINT ( 'NONE',  ( 61.50000000000000000, 8.000000000000000000, 6.799999999999999822 ) ) ;
#223 = CARTESIAN_POINT ( 'NONE',  ( 41.50000000000000000, 8.000000000000000000, 6.799999999999999822 ) ) ;
#224 = ORIENTED_EDGE ( 'NONE', *, *, #759, .F. ) ;
#225 = CYLINDRICAL_SURFACE ( 'NONE', #313, 3.999999999999996447 ) ;
#226 = EDGE_CURVE ( 'NONE', #247, #187, #589, .T. ) ;
#227 = DIRECTION ( 'NONE',  ( -1.000000000000000000, 1.224646799147350002E-16, 0.000000000000000000 ) ) ;
#228 = DIRECTION ( 'NONE',  ( 1.224646799147350002E-16, 1.000000000000000000, 0.000000000000000000 ) ) ;
#229 = EDGE_CURVE ( 'NONE', #89, #673, #305, .T. ) ;
#230 = DIRECTION ( 'NONE',  ( -1.224646799147350002E-16, -1.000000000000000000, 0.000000000000000000 ) ) ;
#231 = ORIENTED_EDGE ( 'NONE', *, *, #91, .T. ) ;
#232 = EDGE_CURVE ( 'NONE', #752, #29, #248, .T. ) ;
#233 = DIRECTION ( 'NONE',  ( -1.224646799147350002E-16, -1.000000000000000000, 0.000000000000000000 ) ) ;
#234 = VECTOR ( 'NONE', #568, 1000.000000000000000 ) ;
#235 = AXIS2_PLACEMENT_3D ( 'NONE', #521, #463, #290 ) ;
#236 = LINE ( 'NONE', #414, #571 ) ;
#237 = CIRCLE ( 'NONE', #61, 2.250000000000001776 ) ;
#238 = CARTESIAN_POINT ( 'NONE',  ( 76.50000000000000000, 6.000000000000000000, 13.59999999999999964 ) ) ;
#239 = VECTOR ( 'NONE', #713, 1000.000000000000000 ) ;
#240 = FACE_BOUND ( 'NONE', #629, .T. ) ;
#241 = DIRECTION ( 'NONE',  ( 0.5773502691896257311, 0.5773502691896257311, 0.5773502691896257311 ) ) ;
#242 = ORIENTED_EDGE ( 'NONE', *, *, #370, .F. ) ;
#243 = CARTESIAN_POINT ( 'NONE',  ( 74.00000000000000000, 9.500000000000000000, -1.110223024625159893E-15 ) ) ;
#244 = AXIS2_PLACEMENT_3D ( 'NONE', #223, #513, #163 ) ;
#245 =( LENGTH_UNIT ( ) NAMED_UNIT ( * ) SI_UNIT ( .MILLI., .METRE. ) );
#246 = EDGE_CURVE ( 'NONE', #164, #359, #706, .T. ) ;
#247 = VERTEX_POINT ( 'NONE', #602 ) ;
#248 = LINE ( 'NONE', #5, #623 ) ;
#249 = VECTOR ( 'NONE', #230, 1000.000000000000000 ) ;
#250 = ORIENTED_EDGE ( 'NONE', *, *, #591, .F. ) ;
#251 = ORIENTED_EDGE ( 'NONE', *, *, #226, .T. ) ;
#252 = EDGE_CURVE ( 'NONE', #478, #17, #420, .T. ) ;
#253 = DIRECTION ( 'NONE',  ( 1.224646799147350002E-16, 1.000000000000000000, 0.000000000000000000 ) ) ;
#254 = ORIENTED_EDGE ( 'NONE', *, *, #115, .F. ) ;
#255 =( NAMED_UNIT ( * ) SI_UNIT ( $, .STERADIAN. ) SOLID_ANGLE_UNIT ( ) );
#256 = VERTEX_POINT ( 'NONE', #70 ) ;
#257 = CARTESIAN_POINT ( 'NONE',  ( 76.50000000000000000, 12.00000000000000000, 13.59999999999999964 ) ) ;
#258 = EDGE_CURVE ( 'NONE', #451, #27, #189, .T. ) ;
#259 = CARTESIAN_POINT ( 'NONE',  ( 61.50000000000000000, 8.000000000000000000, 6.799999999999999822 ) ) ;
#260 = ORIENTED_EDGE ( 'NONE', *, *, #609, .T. ) ;
#261 = VECTOR ( 'NONE', #426, 1000.000000000000000 ) ;
#262 = DIRECTION ( 'NONE',  ( 0.000000000000000000, 0.000000000000000000, 1.000000000000000000 ) ) ;
#263 = VERTEX_POINT ( 'NONE', #466 ) ;
#264 = CYLINDRICAL_SURFACE ( 'NONE', #541, 3.999999999999996447 ) ;
#265 = EDGE_LOOP ( 'NONE', ( #422, #419, #561, #681 ) ) ;
#266 = DIRECTION ( 'NONE',  ( -0.5773502691896257311, 0.5773502691896257311, -0.5773502691896257311 ) ) ;
#267 = DIRECTION ( 'NONE',  ( -1.000000000000000000, 0.000000000000000000, 0.000000000000000000 ) ) ;
#268 = FACE_OUTER_BOUND ( 'NONE', #460, .T. ) ;
#269 = VERTEX_POINT ( 'NONE', #705 ) ;
#270 = DIRECTION ( 'NONE',  ( -1.224646799147350002E-16, -1.000000000000000000, 0.000000000000000000 ) ) ;
#271 = PLANE ( 'NONE',  #105 ) ;
#272 = ORIENTED_EDGE ( 'NONE', *, *, #62, .T. ) ;
#273 = ADVANCED_FACE ( 'NONE', ( #176 ), #613, .T. ) ;
#274 = AXIS2_PLACEMENT_3D ( 'NONE', #330, #454, #564 ) ;
#275 = VECTOR ( 'NONE', #499, 1000.000000000000000 ) ;
#276 = CARTESIAN_POINT ( 'NONE',  ( 0.000000000000000000, 0.000000000000000000, 0.000000000000000000 ) ) ;
#277 = CARTESIAN_POINT ( 'NONE',  ( 65.50000000000000000, 8.000000000000000000, 6.799999999999998934 ) ) ;
#278 = DIRECTION ( 'NONE',  ( -1.000000000000000000, 1.224646799147350002E-16, 0.000000000000000000 ) ) ;
#279 = EDGE_LOOP ( 'NONE', ( #743, #129, #148, #250 ) ) ;
#280 =( GEOMETRIC_REPRESENTATION_CONTEXT ( 3 ) GLOBAL_UNCERTAINTY_ASSIGNED_CONTEXT ( ( #754 ) ) GLOBAL_UNIT_ASSIGNED_CONTEXT ( ( #693, #516, #221 ) ) REPRESENTATION_CONTEXT ( 'NONE', 'WORKASPACE' ) );
#281 = DIRECTION ( 'NONE',  ( -1.000000000000000000, 0.000000000000000000, 0.000000000000000000 ) ) ;
#282 = CARTESIAN_POINT ( 'NONE',  ( 61.50000000000000000, 8.000000000000000000, 6.799999999999999822 ) ) ;
#283 = CARTESIAN_POINT ( 'NONE',  ( 29.00000000000000000, 9.500000000000000000, 10.20000000000000107 ) ) ;
#284 = ADVANCED_FACE ( 'NONE', ( #680 ), #725, .T. ) ;
#285 = PRODUCT_DEFINITION_CONTEXT ( 'detailed design', #214, 'design' ) ;
#286 = CARTESIAN_POINT ( 'NONE',  ( 76.50000000000000000, 4.000000000000000000, 9.099999999999999645 ) ) ;
#287 = AXIS2_PLACEMENT_3D ( 'NONE', #283, #395, #30 ) ;
#288 = CARTESIAN_POINT ( 'NONE',  ( 41.50000000000000000, 12.00000000000000000, 6.799999999999999822 ) ) ;
#289 = DIRECTION ( 'NONE',  ( 0.7071067811865480168, 0.7071067811865470176, 0.000000000000000000 ) ) ;
#290 = DIRECTION ( 'NONE',  ( -1.000000000000000000, 0.000000000000000000, 0.000000000000000000 ) ) ;
#291 = ORIENTED_EDGE ( 'NONE', *, *, #494, .F. ) ;
#292 = ADVANCED_FACE ( 'NONE', ( #554, #134, #668 ), #618, .T. ) ;
#293 = DIRECTION ( 'NONE',  ( -1.224646799147350002E-16, -1.000000000000000000, 0.000000000000000000 ) ) ;
#294 = LINE ( 'NONE', #58, #296 ) ;
#295 = DIRECTION ( 'NONE',  ( -1.224646799147350002E-16, -1.000000000000000000, 0.000000000000000000 ) ) ;
#296 = VECTOR ( 'NONE', #289, 1000.000000000000000 ) ;
#297 = FACE_OUTER_BOUND ( 'NONE', #748, .T. ) ;
#298 = VECTOR ( 'NONE', #68, 1000.000000000000000 ) ;
#299 = DIRECTION ( 'NONE',  ( 0.000000000000000000, 0.000000000000000000, 1.000000000000000000 ) ) ;
#300 = ORIENTED_EDGE ( 'NONE', *, *, #715, .T. ) ;
#301 = CARTESIAN_POINT ( 'NONE',  ( 57.49999999999999289, 12.00000000000000000, 6.799999999999999822 ) ) ;
#302 = EDGE_CURVE ( 'NONE', #570, #542, #318, .T. ) ;
#303 = FACE_OUTER_BOUND ( 'NONE', #180, .T. ) ;
#304 = VERTEX_POINT ( 'NONE', #729 ) ;
#305 = LINE ( 'NONE', #531, #220 ) ;
#306 = EDGE_CURVE ( 'NONE', #489, #570, #483, .T. ) ;
#307 = CLOSED_SHELL ( 'NONE', ( #343, #617, #101, #416, #273, #284, #509, #135, #588, #749, #635, #457, #744, #8, #199, #109, #45, #215, #482, #345, #644, #388, #292, #464 ) ) ;
#308 = CARTESIAN_POINT ( 'NONE',  ( 59.25000000000000000, 4.000000000000000000, 6.799999999999999822 ) ) ;
#309 = AXIS2_PLACEMENT_3D ( 'NONE', #325, #369, #25 ) ;
#310 = LINE ( 'NONE', #723, #64 ) ;
#311 = ORIENTED_EDGE ( 'NONE', *, *, #123, .F. ) ;
#312 = DIRECTION ( 'NONE',  ( 1.000000000000000000, -1.224646799147350002E-16, 0.000000000000000000 ) ) ;
#313 = AXIS2_PLACEMENT_3D ( 'NONE', #113, #453, #633 ) ;
#314 = ORIENTED_EDGE ( 'NONE', *, *, #232, .T. ) ;
#315 = CARTESIAN_POINT ( 'NONE',  ( 26.50000000000000000, 6.000000000000000000, 4.500000000000000000 ) ) ;
#316 = ORIENTED_EDGE ( 'NONE', *, *, #501, .F. ) ;
#317 = EDGE_CURVE ( 'NONE', #147, #626, #193, .T. ) ;
#318 = LINE ( 'NONE', #380, #726 ) ;
#319 = ORIENTED_EDGE ( 'NONE', *, *, #708, .T. ) ;
#320 = ORIENTED_EDGE ( 'NONE', *, *, #591, .T. ) ;
#321 = DIRECTION ( 'NONE',  ( 1.224646799147350002E-16, 1.000000000000000000, 0.000000000000000000 ) ) ;
#322 = ORIENTED_EDGE ( 'NONE', *, *, #418, .T. ) ;
#323 = CARTESIAN_POINT ( 'NONE',  ( 76.50000000000000000, 6.000000000000000000, 4.500000000000000000 ) ) ;
#324 = ORIENTED_EDGE ( 'NONE', *, *, #708, .F. ) ;
#325 = CARTESIAN_POINT ( 'NONE',  ( 76.50000000000000000, 8.000000000000000000, 6.799999999999999822 ) ) ;
#326 = ORIENTED_EDGE ( 'NONE', *, *, #443, .T. ) ;
#327 = CARTESIAN_POINT ( 'NONE',  ( 65.50000000000000000, 12.00000000000000000, 6.799999999999998934 ) ) ;
#328 = ORIENTED_EDGE ( 'NONE', *, *, #452, .T. ) ;
#329 = EDGE_CURVE ( 'NONE', #187, #247, #522, .T. ) ;
#330 = CARTESIAN_POINT ( 'NONE',  ( 61.50000000000000000, 12.00000000000000000, 6.799999999999999822 ) ) ;
#331 = LINE ( 'NONE', #562, #684 ) ;
#332 = ORIENTED_EDGE ( 'NONE', *, *, #79, .F. ) ;
#333 = CARTESIAN_POINT ( 'NONE',  ( 26.50000000000000000, 4.000000000000000000, 9.099999999999999645 ) ) ;
#334 = FACE_OUTER_BOUND ( 'NONE', #351, .T. ) ;
#335 = ORIENTED_EDGE ( 'NONE', *, *, #550, .F. ) ;
#336 = VECTOR ( 'NONE', #444, 1000.000000000000000 ) ;
#337 = VECTOR ( 'NONE', #404, 1000.000000000000114 ) ;
#338 = VECTOR ( 'NONE', #590, 1000.000000000000000 ) ;
#339 = LINE ( 'NONE', #216, #642 ) ;
#340 = FACE_OUTER_BOUND ( 'NONE', #658, .T. ) ;
#341 = CARTESIAN_POINT ( 'NONE',  ( 76.50000000000000000, 12.00000000000000000, 0.000000000000000000 ) ) ;
#342 = STYLED_ITEM ( 'NONE', ( #137 ), #672 ) ;
#343 = ADVANCED_FACE ( 'NONE', ( #430 ), #76, .F. ) ;
#344 = CARTESIAN_POINT ( 'NONE',  ( 45.50000000000000000, 12.00000000000000000, 6.799999999999998934 ) ) ;
#345 = ADVANCED_FACE ( 'NONE', ( #676 ), #20, .T. ) ;
#346 = DIRECTION ( 'NONE',  ( -1.224646799147350002E-16, -1.000000000000000000, 0.000000000000000000 ) ) ;
#347 = DIRECTION ( 'NONE',  ( -1.000000000000000000, 0.000000000000000000, 0.000000000000000000 ) ) ;
#348 = AXIS2_PLACEMENT_3D ( 'NONE', #341, #575, #686 ) ;
#349 = FACE_OUTER_BOUND ( 'NONE', #12, .T. ) ;
#350 = CARTESIAN_POINT ( 'NONE',  ( 41.50000000000000000, 8.000000000000000000, 6.799999999999999822 ) ) ;
#351 = EDGE_LOOP ( 'NONE', ( #142, #425 ) ) ;
#352 = PRESENTATION_LAYER_ASSIGNMENT (  '', '', ( #342 ) ) ;
#353 = CARTESIAN_POINT ( 'NONE',  ( 74.00000000000000000, 9.500000000000000000, 10.20000000000000107 ) ) ;
#354 = EDGE_CURVE ( 'NONE', #378, #29, #608, .T. ) ;
#355 = DIRECTION ( 'NONE',  ( -1.224646799147350002E-16, -1.000000000000000000, 0.000000000000000000 ) ) ;
#356 = DIRECTION ( 'NONE',  ( 0.7071067811865480168, 0.7071067811865470176, 0.000000000000000000 ) ) ;
#357 = FACE_BOUND ( 'NONE', #213, .T. ) ;
#358 = DIRECTION ( 'NONE',  ( -1.000000000000000000, 0.000000000000000000, 0.000000000000000000 ) ) ;
#359 = VERTEX_POINT ( 'NONE', #150 ) ;
#360 = EDGE_CURVE ( 'NONE', #80, #147, #622, .T. ) ;
#361 = DIRECTION ( 'NONE',  ( 0.000000000000000000, 0.000000000000000000, 1.000000000000000000 ) ) ;
#362 = ADVANCED_BREP_SHAPE_REPRESENTATION ( 'ELP-0013', ( #672, #525 ), #280 ) ;
#363 = DIRECTION ( 'NONE',  ( -1.224646799147350002E-16, -1.000000000000000000, 0.000000000000000000 ) ) ;
#364 = ORIENTED_EDGE ( 'NONE', *, *, #671, .F. ) ;
#365 = DIRECTION ( 'NONE',  ( 1.224646799147350002E-16, 1.000000000000000000, 0.000000000000000000 ) ) ;
#366 = FACE_OUTER_BOUND ( 'NONE', #153, .T. ) ;
#367 = CARTESIAN_POINT ( 'NONE',  ( 76.50000000000000000, 4.000000000000000000, 4.500000000000000000 ) ) ;
#368 = ORIENTED_EDGE ( 'NONE', *, *, #370, .T. ) ;
#369 = DIRECTION ( 'NONE',  ( 1.000000000000000000, -1.224646799147350002E-16, 0.000000000000000000 ) ) ;
#370 = EDGE_CURVE ( 'NONE', #256, #89, #734, .T. ) ;
#371 = AXIS2_PLACEMENT_3D ( 'NONE', #746, #270, #394 ) ;
#372 = ORIENTED_EDGE ( 'NONE', *, *, #671, .T. ) ;
#373 = CIRCLE ( 'NONE', #60, 3.999999999999996447 ) ;
#374 = FACE_OUTER_BOUND ( 'NONE', #92, .T. ) ;
#375 = EDGE_LOOP ( 'NONE', ( #737, #491, #446, #437, #733, #481 ) ) ;
#376 = DIRECTION ( 'NONE',  ( -1.224646799147350002E-16, -1.000000000000000000, 0.000000000000000000 ) ) ;
#377 = AXIS2_PLACEMENT_3D ( 'NONE', #286, #468, #465 ) ;
#378 = VERTEX_POINT ( 'NONE', #308 ) ;
#379 = SURFACE_SIDE_STYLE ('',( #666 ) ) ;
#380 = CARTESIAN_POINT ( 'NONE',  ( 73.09999999999999432, 10.40000000000000036, 13.70000000000000107 ) ) ;
#381 = ORIENTED_EDGE ( 'NONE', *, *, #149, .T. ) ;
#382 = ORIENTED_EDGE ( 'NONE', *, *, #229, .F. ) ;
#383 = CARTESIAN_POINT ( 'NONE',  ( 61.50000000000000000, 12.00000000000000000, 6.799999999999999822 ) ) ;
#384 = ORIENTED_EDGE ( 'NONE', *, *, #470, .F. ) ;
#385 = DIRECTION ( 'NONE',  ( -1.000000000000000000, 0.000000000000000000, 0.000000000000000000 ) ) ;
#386 = ORIENTED_EDGE ( 'NONE', *, *, #698, .F. ) ;
#387 = VECTOR ( 'NONE', #365, 1000.000000000000000 ) ;
#388 = ADVANCED_FACE ( 'NONE', ( #44 ), #455, .T. ) ;
#389 = DIRECTION ( 'NONE',  ( 1.224646799147350002E-16, 1.000000000000000000, 0.000000000000000000 ) ) ;
#390 =( GEOMETRIC_REPRESENTATION_CONTEXT ( 3 ) GLOBAL_UNCERTAINTY_ASSIGNED_CONTEXT ( ( #517 ) ) GLOBAL_UNIT_ASSIGNED_CONTEXT ( ( #245, #65, #255 ) ) REPRESENTATION_CONTEXT ( 'NONE', 'WORKASPACE' ) );
#391 = DIRECTION ( 'NONE',  ( -1.224646799147350002E-16, -1.000000000000000000, 0.000000000000000000 ) ) ;
#392 = VERTEX_POINT ( 'NONE', #569 ) ;
#393 = EDGE_CURVE ( 'NONE', #247, #118, #48, .T. ) ;
#394 = DIRECTION ( 'NONE',  ( -1.000000000000000000, 0.000000000000000000, 0.000000000000000000 ) ) ;
#395 = DIRECTION ( 'NONE',  ( -0.7071067811865470176, 0.7071067811865480168, 0.000000000000000000 ) ) ;
#396 = ORIENTED_EDGE ( 'NONE', *, *, #583, .F. ) ;
#397 = CARTESIAN_POINT ( 'NONE',  ( 30.00000000000000000, 10.50000000000000000, -1.110223024625159893E-15 ) ) ;
#398 = DIRECTION ( 'NONE',  ( -1.224646799147350002E-16, -1.000000000000000000, 0.000000000000000000 ) ) ;
#399 = EDGE_CURVE ( 'NONE', #172, #269, #557, .T. ) ;
#400 = CARTESIAN_POINT ( 'NONE',  ( 39.25000000000000000, 8.000000000000000000, 6.799999999999999822 ) ) ;
#401 = VECTOR ( 'NONE', #140, 1000.000000000000000 ) ;
#402 = DIRECTION ( 'NONE',  ( 1.000000000000000000, 0.000000000000000000, 0.000000000000000000 ) ) ;
#403 = DIRECTION ( 'NONE',  ( 0.000000000000000000, 0.000000000000000000, -1.000000000000000000 ) ) ;
#404 = DIRECTION ( 'NONE',  ( -0.5773502691896257311, -0.5773502691896257311, 0.5773502691896257311 ) ) ;
#405 = PRODUCT_DEFINITION ( 'NON CONOSCIUTO', '', #185, #285 ) ;
#406 = CARTESIAN_POINT ( 'NONE',  ( 59.25000000000000000, 8.000000000000000000, 6.799999999999999822 ) ) ;
#407 = CARTESIAN_POINT ( 'NONE',  ( 39.25000000000000000, 8.000000000000000000, 6.799999999999999822 ) ) ;
#408 = DIRECTION ( 'NONE',  ( 0.000000000000000000, 0.000000000000000000, 1.000000000000000000 ) ) ;
#409 = DIRECTION ( 'NONE',  ( -1.224646799147350002E-16, -1.000000000000000000, 0.000000000000000000 ) ) ;
#410 = ORIENTED_EDGE ( 'NONE', *, *, #55, .T. ) ;
#411 = VECTOR ( 'NONE', #217, 1000.000000000000000 ) ;
#412 = CIRCLE ( 'NONE', #13, 2.250000000000001776 ) ;
#413 = EDGE_CURVE ( 'NONE', #17, #263, #331, .T. ) ;
#414 = CARTESIAN_POINT ( 'NONE',  ( 26.50000000000000000, 6.000000000000000000, 4.500000000000000000 ) ) ;
#415 = CARTESIAN_POINT ( 'NONE',  ( 41.50000000000000000, 12.00000000000000000, 6.799999999999999822 ) ) ;
#416 = ADVANCED_FACE ( 'NONE', ( #636 ), #264, .F. ) ;
#417 = CARTESIAN_POINT ( 'NONE',  ( 76.50000000000000000, 6.000000000000000000, 4.500000000000000000 ) ) ;
#418 = EDGE_CURVE ( 'NONE', #256, #691, #497, .T. ) ;
#419 = ORIENTED_EDGE ( 'NONE', *, *, #413, .T. ) ;
#420 = LINE ( 'NONE', #417, #447 ) ;
#421 = LINE ( 'NONE', #367, #18 ) ;
#422 = ORIENTED_EDGE ( 'NONE', *, *, #252, .T. ) ;
#423 = CARTESIAN_POINT ( 'NONE',  ( 76.50000000000000000, 7.000000000000000000, 0.000000000000000000 ) ) ;
#424 = ORIENTED_EDGE ( 'NONE', *, *, #654, .F. ) ;
#425 = ORIENTED_EDGE ( 'NONE', *, *, #544, .F. ) ;
#426 = DIRECTION ( 'NONE',  ( 0.000000000000000000, 0.000000000000000000, -1.000000000000000000 ) ) ;
#427 = LINE ( 'NONE', #665, #431 ) ;
#428 = LINE ( 'NONE', #472, #298 ) ;
#429 = ORIENTED_EDGE ( 'NONE', *, *, #91, .F. ) ;
#430 = FACE_OUTER_BOUND ( 'NONE', #496, .T. ) ;
#431 = VECTOR ( 'NONE', #136, 1000.000000000000000 ) ;
#432 = EDGE_LOOP ( 'NONE', ( #316, #319, #728, #231, #545, #381 ) ) ;
#433 = AXIS2_PLACEMENT_3D ( 'NONE', #117, #355, #755 ) ;
#434 = DIRECTION ( 'NONE',  ( -1.000000000000000000, 1.224646799147350002E-16, 0.000000000000000000 ) ) ;
#435 = EDGE_LOOP ( 'NONE', ( #503, #131 ) ) ;
#436 = DIRECTION ( 'NONE',  ( -1.224646799147350002E-16, -1.000000000000000000, 0.000000000000000000 ) ) ;
#437 = ORIENTED_EDGE ( 'NONE', *, *, #360, .T. ) ;
#438 = ORIENTED_EDGE ( 'NONE', *, *, #721, .F. ) ;
#439 = DIRECTION ( 'NONE',  ( -1.000000000000000000, 0.000000000000000000, 0.000000000000000000 ) ) ;
#440 = ORIENTED_EDGE ( 'NONE', *, *, #178, .T. ) ;
#441 = LINE ( 'NONE', #695, #139 ) ;
#442 = ORIENTED_EDGE ( 'NONE', *, *, #226, .F. ) ;
#443 = EDGE_CURVE ( 'NONE', #27, #392, #212, .T. ) ;
#444 = DIRECTION ( 'NONE',  ( 0.7071067811865470176, -0.7071067811865480168, 0.000000000000000000 ) ) ;
#445 = PLANE ( 'NONE',  #348 ) ;
#446 = ORIENTED_EDGE ( 'NONE', *, *, #120, .T. ) ;
#447 = VECTOR ( 'NONE', #479, 1000.000000000000000 ) ;
#448 = CYLINDRICAL_SURFACE ( 'NONE', #274, 4.000000000000003553 ) ;
#449 = VECTOR ( 'NONE', #299, 1000.000000000000000 ) ;
#450 = CARTESIAN_POINT ( 'NONE',  ( 76.50000000000000000, 6.000000000000000000, 4.500000000000000000 ) ) ;
#451 = VERTEX_POINT ( 'NONE', #108 ) ;
#452 = EDGE_CURVE ( 'NONE', #478, #626, #441, .T. ) ;
#453 = DIRECTION ( 'NONE',  ( -1.224646799147350002E-16, -1.000000000000000000, 0.000000000000000000 ) ) ;
#454 = DIRECTION ( 'NONE',  ( -1.224646799147350002E-16, -1.000000000000000000, 0.000000000000000000 ) ) ;
#455 = PLANE ( 'NONE',  #287 ) ;
#456 = ORIENTED_EDGE ( 'NONE', *, *, #555, .T. ) ;
#457 = ADVANCED_FACE ( 'NONE', ( #699, #334 ), #208, .T. ) ;
#458 = LINE ( 'NONE', #162, #74 ) ;
#459 = CARTESIAN_POINT ( 'NONE',  ( 41.50000000000000000, 12.00000000000000000, 6.799999999999999822 ) ) ;
#460 = EDGE_LOOP ( 'NONE', ( #581, #326, #619, #272 ) ) ;
#461 = CARTESIAN_POINT ( 'NONE',  ( 41.50000000000000000, 8.000000000000000000, 6.799999999999999822 ) ) ;
#462 = ORIENTED_EDGE ( 'NONE', *, *, #418, .F. ) ;
#463 = DIRECTION ( 'NONE',  ( -1.224646799147350002E-16, -1.000000000000000000, 0.000000000000000000 ) ) ;
#464 = ADVANCED_FACE ( 'NONE', ( #268 ), #271, .T. ) ;
#465 = DIRECTION ( 'NONE',  ( 1.000000000000000000, 0.000000000000000000, 0.000000000000000000 ) ) ;
#466 = CARTESIAN_POINT ( 'NONE',  ( 26.50000000000000000, 4.000000000000000000, 4.500000000000000000 ) ) ;
#467 = AXIS2_PLACEMENT_3D ( 'NONE', #93, #682, #385 ) ;
#468 = DIRECTION ( 'NONE',  ( 0.000000000000000000, 0.000000000000000000, 1.000000000000000000 ) ) ;
#469 = DIRECTION ( 'NONE',  ( -1.224646799147350002E-16, -1.000000000000000000, 0.000000000000000000 ) ) ;
#470 = EDGE_CURVE ( 'NONE', #29, #378, #197, .T. ) ;
#471 = CARTESIAN_POINT ( 'NONE',  ( 45.50000000000000000, 8.000000000000000000, 6.799999999999998934 ) ) ;
#472 = CARTESIAN_POINT ( 'NONE',  ( 26.50000000000000000, 6.000000000000000000, 9.099999999999999645 ) ) ;
#473 = VERTEX_POINT ( 'NONE', #400 ) ;
#474 = CARTESIAN_POINT ( 'NONE',  ( 57.49999999999999289, 8.000000000000000000, 6.799999999999999822 ) ) ;
#475 = VECTOR ( 'NONE', #32, 1000.000000000000000 ) ;
#476 = ORIENTED_EDGE ( 'NONE', *, *, #560, .T. ) ;
#477 = CARTESIAN_POINT ( 'NONE',  ( 26.50000000000000000, 7.000000000000000000, 10.20000000000000107 ) ) ;
#478 = VERTEX_POINT ( 'NONE', #323 ) ;
#479 = DIRECTION ( 'NONE',  ( -1.224646799147350002E-16, -1.000000000000000000, 0.000000000000000000 ) ) ;
#480 = VERTEX_POINT ( 'NONE', #736 ) ;
#481 = ORIENTED_EDGE ( 'NONE', *, *, #19, .F. ) ;
#482 = ADVANCED_FACE ( 'NONE', ( #625 ), #445, .T. ) ;
#483 = LINE ( 'NONE', #551, #275 ) ;
#484 = AXIS2_PLACEMENT_3D ( 'NONE', #353, #356, #124 ) ;
#485 = ORIENTED_EDGE ( 'NONE', *, *, #609, .F. ) ;
#486 = CARTESIAN_POINT ( 'NONE',  ( 26.50000000000000000, 4.000000000000000000, 9.099999999999999645 ) ) ;
#487 = ORIENTED_EDGE ( 'NONE', *, *, #399, .F. ) ;
#488 = DIRECTION ( 'NONE',  ( 0.000000000000000000, 0.000000000000000000, 1.000000000000000000 ) ) ;
#489 = VERTEX_POINT ( 'NONE', #628 ) ;
#490 = AXIS2_PLACEMENT_3D ( 'NONE', #175, #228, #580 ) ;
#491 = ORIENTED_EDGE ( 'NONE', *, *, #149, .F. ) ;
#492 = CARTESIAN_POINT ( 'NONE',  ( 26.50000000000000000, 8.000000000000000000, 6.799999999999999822 ) ) ;
#493 = CIRCLE ( 'NONE', #677, 3.999999999999996447 ) ;
#494 = EDGE_CURVE ( 'NONE', #451, #489, #742, .T. ) ;
#495 = PRODUCT ( 'ELP-0013', 'ELP-0013', '', ( #576 ) ) ;
#496 = EDGE_LOOP ( 'NONE', ( #311, #314, #596, #438 ) ) ;
#497 = LINE ( 'NONE', #102, #710 ) ;
#498 = ORIENTED_EDGE ( 'NONE', *, *, #329, .F. ) ;
#499 = DIRECTION ( 'NONE',  ( 1.000000000000000000, -1.224646799147350002E-16, 0.000000000000000000 ) ) ;
#500 = LINE ( 'NONE', #155, #40 ) ;
#501 = EDGE_CURVE ( 'NONE', #392, #696, #88, .T. ) ;
#502 = DIRECTION ( 'NONE',  ( 8.659560562354925463E-17, 0.7071067811865475727, -0.7071067811865475727 ) ) ;
#503 = ORIENTED_EDGE ( 'NONE', *, *, #188, .T. ) ;
#504 = CARTESIAN_POINT ( 'NONE',  ( 76.50000000000000000, 6.000000000000000000, 9.099999999999999645 ) ) ;
#505 = PLANE ( 'NONE',  #650 ) ;
#506 = ORIENTED_EDGE ( 'NONE', *, *, #578, .T. ) ;
#507 = CIRCLE ( 'NONE', #638, 4.000000000000003553 ) ;
#508 = AXIS2_PLACEMENT_3D ( 'NONE', #383, #376, #198 ) ;
#509 = ADVANCED_FACE ( 'NONE', ( #38 ), #505, .T. ) ;
#510 = APPLICATION_PROTOCOL_DEFINITION ( 'draft international standard', 'automotive_design', 1998, #214 ) ;
#511 = CARTESIAN_POINT ( 'NONE',  ( 76.50000000000000000, 7.000000000000000000, 10.20000000000000107 ) ) ;
#512 = VECTOR ( 'NONE', #577, 1000.000000000000000 ) ;
#513 = DIRECTION ( 'NONE',  ( 1.224646799147350002E-16, 1.000000000000000000, 0.000000000000000000 ) ) ;
#514 = EDGE_LOOP ( 'NONE', ( #332, #585, #714, #242, #386, #553, #539, #34 ) ) ;
#515 = PRODUCT_RELATED_PRODUCT_CATEGORY ( 'part', '', ( #495 ) ) ;
#516 =( NAMED_UNIT ( * ) PLANE_ANGLE_UNIT ( ) SI_UNIT ( $, .RADIAN. ) );
#517 = UNCERTAINTY_MEASURE_WITH_UNIT (LENGTH_MEASURE( 1.000000000000000082E-05 ), #245, 'distance_accuracy_value', 'NONE');
#518 = DIRECTION ( 'NONE',  ( -1.224646799147350002E-16, -1.000000000000000000, 0.000000000000000000 ) ) ;
#519 = CARTESIAN_POINT ( 'NONE',  ( 37.50000000000000711, 12.00000000000000000, 6.799999999999999822 ) ) ;
#520 = ORIENTED_EDGE ( 'NONE', *, *, #96, .F. ) ;
#521 = CARTESIAN_POINT ( 'NONE',  ( 41.50000000000000000, 8.000000000000000000, 6.799999999999999822 ) ) ;
#522 = CIRCLE ( 'NONE', #508, 4.000000000000003553 ) ;
#523 = EDGE_CURVE ( 'NONE', #138, #616, #412, .T. ) ;
#524 = DIRECTION ( 'NONE',  ( -1.000000000000000000, 0.000000000000000000, 0.000000000000000000 ) ) ;
#525 = AXIS2_PLACEMENT_3D ( 'NONE', #276, #408, #402 ) ;
#526 = FACE_OUTER_BOUND ( 'NONE', #83, .T. ) ;
#527 = ORIENTED_EDGE ( 'NONE', *, *, #329, .T. ) ;
#528 = DIRECTION ( 'NONE',  ( -1.224646799147350002E-16, -1.000000000000000000, 0.000000000000000000 ) ) ;
#529 = CARTESIAN_POINT ( 'NONE',  ( 71.50000000000000000, 12.00000000000000000, 12.09999999999999964 ) ) ;
#530 = EDGE_CURVE ( 'NONE', #620, #473, #639, .T. ) ;
#531 = CARTESIAN_POINT ( 'NONE',  ( 76.50000000000000000, 6.000000000000000000, 9.099999999999999645 ) ) ;
#532 = VECTOR ( 'NONE', #634, 1000.000000000000000 ) ;
#533 = AXIS2_PLACEMENT_3D ( 'NONE', #546, #436, #203 ) ;
#534 = DIRECTION ( 'NONE',  ( -1.224646799147350002E-16, -1.000000000000000000, 0.000000000000000000 ) ) ;
#535 = DIRECTION ( 'NONE',  ( 1.000000000000000000, 0.000000000000000000, -1.224646799147353947E-16 ) ) ;
#536 = ORIENTED_EDGE ( 'NONE', *, *, #258, .F. ) ;
#537 = CYLINDRICAL_SURFACE ( 'NONE', #50, 4.000000000000003553 ) ;
#538 = LINE ( 'NONE', #477, #239 ) ;
#539 = ORIENTED_EDGE ( 'NONE', *, *, #170, .F. ) ;
#540 = DIRECTION ( 'NONE',  ( -1.000000000000000000, 0.000000000000000000, 0.000000000000000000 ) ) ;
#541 = AXIS2_PLACEMENT_3D ( 'NONE', #459, #747, #751 ) ;
#542 = VERTEX_POINT ( 'NONE', #529 ) ;
#543 = CARTESIAN_POINT ( 'NONE',  ( 76.50000000000000000, 11.25000000000000000, 12.84999999999999964 ) ) ;
#544 = EDGE_CURVE ( 'NONE', #144, #269, #373, .T. ) ;
#545 = ORIENTED_EDGE ( 'NONE', *, *, #79, .T. ) ;
#546 = CARTESIAN_POINT ( 'NONE',  ( 61.50000000000000000, 8.000000000000000000, 6.799999999999999822 ) ) ;
#547 = ORIENTED_EDGE ( 'NONE', *, *, #232, .F. ) ;
#548 = SURFACE_STYLE_USAGE ( .BOTH. , #379 ) ;
#549 = EDGE_LOOP ( 'NONE', ( #36, #615 ) ) ;
#550 = EDGE_CURVE ( 'NONE', #558, #489, #294, .T. ) ;
#551 = CARTESIAN_POINT ( 'NONE',  ( 76.50000000000000000, 10.50000000000000000, 13.59999999999999964 ) ) ;
#552 = EDGE_LOOP ( 'NONE', ( #224, #702, #563, #487 ) ) ;
#553 = ORIENTED_EDGE ( 'NONE', *, *, #252, .F. ) ;
#554 = FACE_BOUND ( 'NONE', #610, .T. ) ;
#555 = EDGE_CURVE ( 'NONE', #616, #138, #116, .T. ) ;
#556 = ORIENTED_EDGE ( 'NONE', *, *, #188, .F. ) ;
#557 = LINE ( 'NONE', #519, #41 ) ;
#558 = VERTEX_POINT ( 'NONE', #587 ) ;
#559 = CARTESIAN_POINT ( 'NONE',  ( 76.50000000000000000, 6.000000000000000000, 0.000000000000000000 ) ) ;
#560 = EDGE_CURVE ( 'NONE', #626, #263, #236, .T. ) ;
#561 = ORIENTED_EDGE ( 'NONE', *, *, #560, .F. ) ;
#562 = CARTESIAN_POINT ( 'NONE',  ( 76.50000000000000000, 4.000000000000000000, 4.500000000000000000 ) ) ;
#563 = ORIENTED_EDGE ( 'NONE', *, *, #544, .T. ) ;
#564 = DIRECTION ( 'NONE',  ( -1.000000000000000000, 0.000000000000000000, 0.000000000000000000 ) ) ;
#565 = DIRECTION ( 'NONE',  ( 0.5773502691896257311, -0.5773502691896257311, -0.5773502691896257311 ) ) ;
#566 = EDGE_LOOP ( 'NONE', ( #87, #201 ) ) ;
#567 = CARTESIAN_POINT ( 'NONE',  ( 63.75000000000000000, 8.000000000000000000, 6.799999999999999822 ) ) ;
#568 = DIRECTION ( 'NONE',  ( -1.224646799147350002E-16, -1.000000000000000000, 0.000000000000000000 ) ) ;
#569 = CARTESIAN_POINT ( 'NONE',  ( 71.50000000000000000, 12.00000000000000000, 1.500000000000000000 ) ) ;
#570 = VERTEX_POINT ( 'NONE', #649 ) ;
#571 = VECTOR ( 'NONE', #756, 1000.000000000000000 ) ;
#572 = VECTOR ( 'NONE', #657, 1000.000000000000000 ) ;
#573 = CARTESIAN_POINT ( 'NONE',  ( 76.50000000000000000, 6.000000000000000000, 9.099999999999999645 ) ) ;
#574 = LINE ( 'NONE', #750, #651 ) ;
#575 = DIRECTION ( 'NONE',  ( 0.000000000000000000, 0.000000000000000000, -1.000000000000000000 ) ) ;
#576 = PRODUCT_CONTEXT ( 'NONE', #599, 'mechanical' ) ;
#577 = DIRECTION ( 'NONE',  ( -1.224646799147350002E-16, -1.000000000000000000, 0.000000000000000000 ) ) ;
#578 = EDGE_CURVE ( 'NONE', #269, #144, #593, .T. ) ;
#579 = CARTESIAN_POINT ( 'NONE',  ( 45.50000000000000000, 12.00000000000000000, 6.799999999999998934 ) ) ;
#580 = DIRECTION ( 'NONE',  ( -1.000000000000000000, 0.000000000000000000, 0.000000000000000000 ) ) ;
#581 = ORIENTED_EDGE ( 'NONE', *, *, #648, .T. ) ;
#582 = AXIS2_PLACEMENT_3D ( 'NONE', #146, #262, #86 ) ;
#583 = EDGE_CURVE ( 'NONE', #601, #752, #3, .T. ) ;
#584 = LINE ( 'NONE', #703, #6 ) ;
#585 = ORIENTED_EDGE ( 'NONE', *, *, #246, .F. ) ;
#586 = FACE_OUTER_BOUND ( 'NONE', #432, .T. ) ;
#587 = CARTESIAN_POINT ( 'NONE',  ( 26.50000000000000000, 7.000000000000000000, 13.59999999999999964 ) ) ;
#588 = ADVANCED_FACE ( 'NONE', ( #526 ), #121, .T. ) ;
#589 = CIRCLE ( 'NONE', #23, 4.000000000000003553 ) ;
#590 = DIRECTION ( 'NONE',  ( 0.000000000000000000, 0.000000000000000000, 1.000000000000000000 ) ) ;
#591 = EDGE_CURVE ( 'NONE', #473, #138, #757, .T. ) ;
#592 = LINE ( 'NONE', #711, #338 ) ;
#593 = CIRCLE ( 'NONE', #235, 3.999999999999996447 ) ;
#594 = VECTOR ( 'NONE', #361, 1000.000000000000000 ) ;
#595 = LINE ( 'NONE', #72, #449 ) ;
#596 = ORIENTED_EDGE ( 'NONE', *, *, #354, .F. ) ;
#597 = VECTOR ( 'NONE', #434, 1000.000000000000000 ) ;
#598 = DIRECTION ( 'NONE',  ( -1.000000000000000000, 1.224646799147350002E-16, 0.000000000000000000 ) ) ;
#599 = APPLICATION_CONTEXT ( 'automotive_design' ) ;
#600 = DIRECTION ( 'NONE',  ( -1.000000000000000000, 1.224646799147350002E-16, 0.000000000000000000 ) ) ;
#601 = VERTEX_POINT ( 'NONE', #643 ) ;
#602 = CARTESIAN_POINT ( 'NONE',  ( 65.50000000000000000, 12.00000000000000000, 6.799999999999998934 ) ) ;
#603 = EDGE_CURVE ( 'NONE', #758, #144, #112, .T. ) ;
#604 = DIRECTION ( 'NONE',  ( 1.000000000000000000, -1.224646799147350002E-16, 0.000000000000000000 ) ) ;
#605 = DIRECTION ( 'NONE',  ( 0.000000000000000000, 0.000000000000000000, 1.000000000000000000 ) ) ;
#606 = ORIENTED_EDGE ( 'NONE', *, *, #302, .T. ) ;
#607 = CARTESIAN_POINT ( 'NONE',  ( 26.50000000000000000, 6.000000000000000000, 0.000000000000000000 ) ) ;
#608 = CIRCLE ( 'NONE', #210, 2.250000000000001776 ) ;
#609 = EDGE_CURVE ( 'NONE', #164, #304, #584, .T. ) ;
#610 = EDGE_LOOP ( 'NONE', ( #527, #251 ) ) ;
#611 = FILL_AREA_STYLE ('',( #78 ) ) ;
#612 = ORIENTED_EDGE ( 'NONE', *, *, #648, .F. ) ;
#613 = PLANE ( 'NONE',  #52 ) ;
#614 = AXIS2_PLACEMENT_3D ( 'NONE', #143, #363, #600 ) ;
#615 = ORIENTED_EDGE ( 'NONE', *, *, #530, .T. ) ;
#616 = VERTEX_POINT ( 'NONE', #171 ) ;
#617 = ADVANCED_FACE ( 'NONE', ( #56 ), #51, .F. ) ;
#618 = PLANE ( 'NONE',  #670 ) ;
#619 = ORIENTED_EDGE ( 'NONE', *, *, #501, .T. ) ;
#620 = VERTEX_POINT ( 'NONE', #114 ) ;
#621 = PRODUCT_DEFINITION_SHAPE ( 'NONE', 'NONE',  #405 ) ;
#622 = LINE ( 'NONE', #559, #475 ) ;
#623 = VECTOR ( 'NONE', #528, 1000.000000000000000 ) ;
#624 = ORIENTED_EDGE ( 'NONE', *, *, #306, .F. ) ;
#625 = FACE_OUTER_BOUND ( 'NONE', #375, .T. ) ;
#626 = VERTEX_POINT ( 'NONE', #315 ) ;
#627 = FACE_OUTER_BOUND ( 'NONE', #85, .T. ) ;
#628 = CARTESIAN_POINT ( 'NONE',  ( 30.00000000000000000, 10.50000000000000000, 13.59999999999999964 ) ) ;
#629 = EDGE_LOOP ( 'NONE', ( #731, #69 ) ) ;
#630 = LINE ( 'NONE', #100, #234 ) ;
#631 = DIRECTION ( 'NONE',  ( -1.000000000000000000, 1.224646799147350002E-16, 0.000000000000000000 ) ) ;
#632 = ORIENTED_EDGE ( 'NONE', *, *, #317, .T. ) ;
#633 = DIRECTION ( 'NONE',  ( -1.000000000000000000, 0.000000000000000000, 0.000000000000000000 ) ) ;
#634 = DIRECTION ( 'NONE',  ( 0.000000000000000000, 0.000000000000000000, 1.000000000000000000 ) ) ;
#635 = ADVANCED_FACE ( 'NONE', ( #303 ), #674, .T. ) ;
#636 = FACE_OUTER_BOUND ( 'NONE', #552, .T. ) ;
#637 = ORIENTED_EDGE ( 'NONE', *, *, #24, .T. ) ;
#638 = AXIS2_PLACEMENT_3D ( 'NONE', #222, #207, #267 ) ;
#639 = CIRCLE ( 'NONE', #75, 2.250000000000001776 ) ;
#640 = DIRECTION ( 'NONE',  ( -1.224646799147350002E-16, -1.000000000000000000, 0.000000000000000000 ) ) ;
#641 = DIRECTION ( 'NONE',  ( -1.000000000000000000, 0.000000000000000000, 0.000000000000000000 ) ) ;
#642 = VECTOR ( 'NONE', #54, 1000.000000000000000 ) ;
#643 = CARTESIAN_POINT ( 'NONE',  ( 59.25000000000000000, 8.000000000000000000, 6.799999999999999822 ) ) ;
#644 = ADVANCED_FACE ( 'NONE', ( #374 ), #718, .T. ) ;
#645 = DIRECTION ( 'NONE',  ( -1.224646799147350002E-16, -1.000000000000000000, 0.000000000000000000 ) ) ;
#646 = DIRECTION ( 'NONE',  ( -1.000000000000000000, 0.000000000000000000, 0.000000000000000000 ) ) ;
#647 = EDGE_LOOP ( 'NONE', ( #209, #536, #424, #324 ) ) ;
#648 = EDGE_CURVE ( 'NONE', #724, #27, #310, .T. ) ;
#649 = CARTESIAN_POINT ( 'NONE',  ( 73.00000000000000000, 10.50000000000000000, 13.59999999999999964 ) ) ;
#650 = AXIS2_PLACEMENT_3D ( 'NONE', #450, #690, #160 ) ;
#651 = VECTOR ( 'NONE', #398, 1000.000000000000000 ) ;
#652 = DIRECTION ( 'NONE',  ( -1.000000000000000000, 0.000000000000000000, 0.000000000000000000 ) ) ;
#653 = CARTESIAN_POINT ( 'NONE',  ( 26.50000000000000000, 6.000000000000000000, 0.000000000000000000 ) ) ;
#654 = EDGE_CURVE ( 'NONE', #542, #451, #195, .T. ) ;
#655 = CARTESIAN_POINT ( 'NONE',  ( 39.25000000000000000, 4.000000000000000000, 6.799999999999999822 ) ) ;
#656 = ORIENTED_EDGE ( 'NONE', *, *, #360, .F. ) ;
#657 = DIRECTION ( 'NONE',  ( -0.7071067811865470176, 0.7071067811865480168, 0.000000000000000000 ) ) ;
#658 = EDGE_LOOP ( 'NONE', ( #547, #396, #73, #384 ) ) ;
#659 = EDGE_CURVE ( 'NONE', #673, #304, #428, .T. ) ;
#660 = DIRECTION ( 'NONE',  ( -1.000000000000000000, 0.000000000000000000, 0.000000000000000000 ) ) ;
#661 = EDGE_LOOP ( 'NONE', ( #410, #260, #151, #382 ) ) ;
#662 = CARTESIAN_POINT ( 'NONE',  ( 61.50000000000000000, 8.000000000000000000, 6.799999999999999822 ) ) ;
#663 = ORIENTED_EDGE ( 'NONE', *, *, #317, .F. ) ;
#664 = CARTESIAN_POINT ( 'NONE',  ( 61.50000000000000000, 12.00000000000000000, 6.799999999999999822 ) ) ;
#665 = CARTESIAN_POINT ( 'NONE',  ( 41.50000000000000000, 22.00000000000000000, -1.110223024625159893E-15 ) ) ;
#666 = SURFACE_STYLE_FILL_AREA ( #611 ) ;
#667 = ORIENTED_EDGE ( 'NONE', *, *, #158, .F. ) ;
#668 = FACE_OUTER_BOUND ( 'NONE', #647, .T. ) ;
#669 = AXIS2_PLACEMENT_3D ( 'NONE', #259, #71, #604 ) ;
#670 = AXIS2_PLACEMENT_3D ( 'NONE', #257, #321, #312 ) ;
#671 = EDGE_CURVE ( 'NONE', #480, #558, #538, .T. ) ;
#672 = MANIFOLD_SOLID_BREP ( 'Importato1', #307 ) ;
#673 = VERTEX_POINT ( 'NONE', #84 ) ;
#674 = PLANE ( 'NONE',  #614 ) ;
#675 = ORIENTED_EDGE ( 'NONE', *, *, #654, .T. ) ;
#676 = FACE_OUTER_BOUND ( 'NONE', #39, .T. ) ;
#677 = AXIS2_PLACEMENT_3D ( 'NONE', #288, #640, #281 ) ;
#678 = CARTESIAN_POINT ( 'NONE',  ( 76.50000000000000000, 4.000000000000000000, 4.500000000000000000 ) ) ;
#679 = ORIENTED_EDGE ( 'NONE', *, *, #550, .T. ) ;
#680 = FACE_OUTER_BOUND ( 'NONE', #514, .T. ) ;
#681 = ORIENTED_EDGE ( 'NONE', *, *, #452, .F. ) ;
#682 = DIRECTION ( 'NONE',  ( 1.224646799147350002E-16, 1.000000000000000000, 0.000000000000000000 ) ) ;
#683 = ORIENTED_EDGE ( 'NONE', *, *, #603, .F. ) ;
#684 = VECTOR ( 'NONE', #631, 1000.000000000000000 ) ;
#685 = CARTESIAN_POINT ( 'NONE',  ( 76.50000000000000000, 6.000000000000000000, 0.000000000000000000 ) ) ;
#686 = DIRECTION ( 'NONE',  ( 0.000000000000000000, -1.000000000000000000, 0.000000000000000000 ) ) ;
#687 = ORIENTED_EDGE ( 'NONE', *, *, #246, .T. ) ;
#688 = AXIS2_PLACEMENT_3D ( 'NONE', #543, #191, #535 ) ;
#689 = LINE ( 'NONE', #333, #411 ) ;
#690 = DIRECTION ( 'NONE',  ( 0.000000000000000000, 0.000000000000000000, -1.000000000000000000 ) ) ;
#691 = VERTEX_POINT ( 'NONE', #486 ) ;
#692 = EDGE_CURVE ( 'NONE', #118, #133, #110, .T. ) ;
#693 =( LENGTH_UNIT ( ) NAMED_UNIT ( * ) SI_UNIT ( .MILLI., .METRE. ) );
#694 = CARTESIAN_POINT ( 'NONE',  ( 31.50000000000000000, 12.00000000000000000, 1.500000000000000000 ) ) ;
#695 = CARTESIAN_POINT ( 'NONE',  ( 76.50000000000000000, 6.000000000000000000, 4.500000000000000000 ) ) ;
#696 = VERTEX_POINT ( 'NONE', #132 ) ;
#697 = CYLINDRICAL_SURFACE ( 'NONE', #739, 2.250000000000001776 ) ;
#698 = EDGE_CURVE ( 'NONE', #17, #256, #421, .T. ) ;
#699 = FACE_BOUND ( 'NONE', #549, .T. ) ;
#700 = APPLICATION_PROTOCOL_DEFINITION ( 'draft international standard', 'automotive_design', 1998, #599 ) ;
#701 = DIRECTION ( 'NONE',  ( -1.224646799147350002E-16, -1.000000000000000000, 0.000000000000000000 ) ) ;
#702 = ORIENTED_EDGE ( 'NONE', *, *, #603, .T. ) ;
#703 = CARTESIAN_POINT ( 'NONE',  ( 76.50000000000000000, 6.000000000000000000, 13.59999999999999964 ) ) ;
#704 = DIRECTION ( 'NONE',  ( -1.224646799147350002E-16, -1.000000000000000000, 0.000000000000000000 ) ) ;
#705 = CARTESIAN_POINT ( 'NONE',  ( 37.50000000000000711, 8.000000000000000000, 6.799999999999999822 ) ) ;
#706 = LINE ( 'NONE', #238, #387 ) ;
#707 = LINE ( 'NONE', #243, #572 ) ;
#708 = EDGE_CURVE ( 'NONE', #392, #542, #595, .T. ) ;
#709 = ORIENTED_EDGE ( 'NONE', *, *, #33, .T. ) ;
#710 = VECTOR ( 'NONE', #278, 1000.000000000000000 ) ;
#711 = CARTESIAN_POINT ( 'NONE',  ( 76.50000000000000000, 6.000000000000000000, 0.000000000000000000 ) ) ;
#712 = ORIENTED_EDGE ( 'NONE', *, *, #659, .T. ) ;
#713 = DIRECTION ( 'NONE',  ( 0.000000000000000000, 0.000000000000000000, 1.000000000000000000 ) ) ;
#714 = ORIENTED_EDGE ( 'NONE', *, *, #55, .F. ) ;
#715 = EDGE_CURVE ( 'NONE', #187, #133, #182, .T. ) ;
#716 = DIRECTION ( 'NONE',  ( -1.000000000000000000, 0.000000000000000000, 0.000000000000000000 ) ) ;
#717 = ORIENTED_EDGE ( 'NONE', *, *, #306, .T. ) ;
#718 = PLANE ( 'NONE',  #688 ) ;
#719 = ORIENTED_EDGE ( 'NONE', *, *, #258, .T. ) ;
#720 = CARTESIAN_POINT ( 'NONE',  ( 76.50000000000000000, 4.000000000000000000, 9.099999999999999645 ) ) ;
#721 = EDGE_CURVE ( 'NONE', #601, #378, #753, .T. ) ;
#722 = EDGE_LOOP ( 'NONE', ( #364, #103, #632, #476, #440, #637, #712, #77 ) ) ;
#723 = CARTESIAN_POINT ( 'NONE',  ( 39.36666666666670267, 19.86666666666669911, 9.366666666666670693 ) ) ;
#724 = VERTEX_POINT ( 'NONE', #397 ) ;
#725 = PLANE ( 'NONE',  #309 ) ;
#726 = VECTOR ( 'NONE', #266, 1000.000000000000114 ) ;
#727 = PLANE ( 'NONE',  #669 ) ;
#728 = ORIENTED_EDGE ( 'NONE', *, *, #302, .F. ) ;
#729 = CARTESIAN_POINT ( 'NONE',  ( 26.50000000000000000, 6.000000000000000000, 13.59999999999999964 ) ) ;
#730 = VECTOR ( 'NONE', #128, 1000.000000000000000 ) ;
#731 = ORIENTED_EDGE ( 'NONE', *, *, #354, .T. ) ;
#732 = DIRECTION ( 'NONE',  ( 1.000000000000000000, -1.224646799147350002E-16, 0.000000000000000000 ) ) ;
#733 = ORIENTED_EDGE ( 'NONE', *, *, #738, .F. ) ;
#734 = LINE ( 'NONE', #720, #401 ) ;
#735 = DIRECTION ( 'NONE',  ( -1.224646799147350002E-16, -1.000000000000000000, 0.000000000000000000 ) ) ;
#736 = CARTESIAN_POINT ( 'NONE',  ( 26.50000000000000000, 7.000000000000000000, 0.000000000000000000 ) ) ;
#737 = ORIENTED_EDGE ( 'NONE', *, *, #62, .F. ) ;
#738 = EDGE_CURVE ( 'NONE', #480, #147, #339, .T. ) ;
#739 = AXIS2_PLACEMENT_3D ( 'NONE', #97, #735, #641 ) ;
#740 = VECTOR ( 'NONE', #565, 1000.000000000000114 ) ;
#741 = CARTESIAN_POINT ( 'NONE',  ( 63.75000000000000000, 4.000000000000000000, 6.799999999999999822 ) ) ;
#742 = LINE ( 'NONE', #98, #337 ) ;
#743 = ORIENTED_EDGE ( 'NONE', *, *, #530, .F. ) ;
#744 = ADVANCED_FACE ( 'NONE', ( #349 ), #225, .F. ) ;
#745 = PLANE ( 'NONE',  #145 ) ;
#746 = CARTESIAN_POINT ( 'NONE',  ( 41.50000000000000000, 8.000000000000000000, 6.799999999999999822 ) ) ;
#747 = DIRECTION ( 'NONE',  ( -1.224646799147350002E-16, -1.000000000000000000, 0.000000000000000000 ) ) ;
#748 = EDGE_LOOP ( 'NONE', ( #22, #498, #300, #709 ) ) ;
#749 = ADVANCED_FACE ( 'NONE', ( #104 ), #745, .T. ) ;
#750 = CARTESIAN_POINT ( 'NONE',  ( 76.50000000000000000, 12.00000000000000000, 0.000000000000000000 ) ) ;
#751 = DIRECTION ( 'NONE',  ( -1.000000000000000000, 0.000000000000000000, 0.000000000000000000 ) ) ;
#752 = VERTEX_POINT ( 'NONE', #567 ) ;
#753 = LINE ( 'NONE', #406, #81 ) ;
#754 = UNCERTAINTY_MEASURE_WITH_UNIT (LENGTH_MEASURE( 1.000000000000000082E-05 ), #693, 'distance_accuracy_value', 'NONE');
#755 = DIRECTION ( 'NONE',  ( -1.000000000000000000, 0.000000000000000000, 0.000000000000000000 ) ) ;
#756 = DIRECTION ( 'NONE',  ( -1.224646799147350002E-16, -1.000000000000000000, 0.000000000000000000 ) ) ;
#757 = LINE ( 'NONE', #407, #249 ) ;
#758 = VERTEX_POINT ( 'NONE', #579 ) ;
#759 = EDGE_CURVE ( 'NONE', #758, #172, #493, .T. ) ;
ENDSEC;
END-ISO-10303-21;
