ISO-10303-21;
HEADER;
FILE_DESCRIPTION (( 'STEP AP214' ),
    '1' );
FILE_NAME ('ELP-0040.STEP',
    '2026-03-21T10:20:27',
    ( '' ),
    ( '' ),
    'SwSTEP 2.0',
    'SolidWorks 2024',
    '' );
FILE_SCHEMA (( 'AUTOMOTIVE_DESIGN' ));
ENDSEC;

DATA;
#1 = FACE_OUTER_BOUND ( 'NONE', #392, .T. ) ;
#2 = DIRECTION ( 'NONE',  ( -0.000000000000000000, -1.000000000000000000, -0.000000000000000000 ) ) ;
#3 = ORIENTED_EDGE ( 'NONE', *, *, #381, .F. ) ;
#4 = VECTOR ( 'NONE', #71, 1000.000000000000000 ) ;
#5 = VECTOR ( 'NONE', #99, 1000.000000000000114 ) ;
#6 = ORIENTED_EDGE ( 'NONE', *, *, #36, .F. ) ;
#7 = EDGE_CURVE ( 'NONE', #631, #655, #281, .T. ) ;
#8 = DIRECTION ( 'NONE',  ( -0.3830222215594823454, 0.9063077870366531563, -0.1786061951567276540 ) ) ;
#9 = CARTESIAN_POINT ( 'NONE',  ( -55.41760711233587244, 5.902730808570215260, 22.99769034477009910 ) ) ;
#10 = AXIS2_PLACEMENT_3D ( 'NONE', #480, #249, #407 ) ;
#11 = LINE ( 'NONE', #288, #508 ) ;
#12 = FACE_OUTER_BOUND ( 'NONE', #804, .T. ) ;
#13 = DIRECTION ( 'NONE',  ( 0.000000000000000000, -0.000000000000000000, 1.000000000000000000 ) ) ;
#14 = VERTEX_POINT ( 'NONE', #438 ) ;
#15 = DIRECTION ( 'NONE',  ( -0.000000000000000000, -1.000000000000000000, -0.000000000000000000 ) ) ;
#16 = EDGE_CURVE ( 'NONE', #449, #536, #88, .T. ) ;
#17 = DIRECTION ( 'NONE',  ( 0.000000000000000000, 0.000000000000000000, 1.000000000000000000 ) ) ;
#18 = DIRECTION ( 'NONE',  ( 0.9396926207859083169, -0.000000000000000000, 0.3420201433256689905 ) ) ;
#19 = AXIS2_PLACEMENT_3D ( 'NONE', #150, #446, #439 ) ;
#20 = VECTOR ( 'NONE', #8, 1000.000000000000227 ) ;
#21 = ORIENTED_EDGE ( 'NONE', *, *, #565, .T. ) ;
#22 =( GEOMETRIC_REPRESENTATION_CONTEXT ( 3 ) GLOBAL_UNCERTAINTY_ASSIGNED_CONTEXT ( ( #531 ) ) GLOBAL_UNIT_ASSIGNED_CONTEXT ( ( #513, #592, #503 ) ) REPRESENTATION_CONTEXT ( 'NONE', 'WORKASPACE' ) );
#23 = CARTESIAN_POINT ( 'NONE',  ( -57.06859641628742708, 3.150783985936721709, 18.52544109571927322 ) ) ;
#24 = CARTESIAN_POINT ( 'NONE',  ( -55.58103788057622552, 3.293232996069999086, 22.59996787854498734 ) ) ;
#25 = CARTESIAN_POINT ( 'NONE',  ( -55.88603523274495188, 2.570653219250685240, -21.83516002573567150 ) ) ;
#26 = CARTESIAN_POINT ( 'NONE',  ( 0.000000000000000000, 30.00000000000000711, 0.000000000000000000 ) ) ;
#27 = ORIENTED_EDGE ( 'NONE', *, *, #203, .F. ) ;
#28 = FILL_AREA_STYLE_COLOUR ( '', #436 ) ;
#29 = CARTESIAN_POINT ( 'NONE',  ( -56.79407549469156891, 2.483284667859271266, -19.35100433256523544 ) ) ;
#30 = ADVANCED_FACE ( 'NONE', ( #149 ), #699, .F. ) ;
#31 = VERTEX_POINT ( 'NONE', #637 ) ;
#32 = APPLICATION_CONTEXT ( 'automotive_design' ) ;
#33 = CARTESIAN_POINT ( 'NONE',  ( -55.47120540680936784, 6.240875984461627723, -22.86810678786315876 ) ) ;
#34 = ORIENTED_EDGE ( 'NONE', *, *, #894, .F. ) ;
#35 = CONICAL_SURFACE ( 'NONE', #229, 2.799999999999998490, 1.029744258676654978 ) ;
#36 = EDGE_CURVE ( 'NONE', #706, #544, #11, .T. ) ;
#37 = DIRECTION ( 'NONE',  ( 0.000000000000000000, 0.000000000000000000, -1.000000000000000000 ) ) ;
#38 = VECTOR ( 'NONE', #607, 1000.000000000000114 ) ;
#39 = CARTESIAN_POINT ( 'NONE',  ( -55.36953663986425056, 5.368191869343799105, -23.11310662750284450 ) ) ;
#40 = PLANE ( 'NONE',  #736 ) ;
#41 = ORIENTED_EDGE ( 'NONE', *, *, #500, .T. ) ;
#42 = AXIS2_PLACEMENT_3D ( 'NONE', #67, #275, #435 ) ;
#43 = CIRCLE ( 'NONE', #10, 2.799999999999998490 ) ;
#44 = FACE_OUTER_BOUND ( 'NONE', #199, .T. ) ;
#45 = CARTESIAN_POINT ( 'NONE',  ( -57.25113010399548585, 5.724632830090346403, -17.95297661674569412 ) ) ;
#46 = DIRECTION ( 'NONE',  ( 0.000000000000000000, 0.000000000000000000, -1.000000000000000000 ) ) ;
#47 = VERTEX_POINT ( 'NONE', #658 ) ;
#48 = EDGE_CURVE ( 'NONE', #267, #47, #182, .T. ) ;
#49 = CARTESIAN_POINT ( 'NONE',  ( -56.25515276213486260, 7.781836768809190730, -20.86600079545405606 ) ) ;
#50 = CARTESIAN_POINT ( 'NONE',  ( 0.000000000000000000, 10.24960226485169201, 0.000000000000000000 ) ) ;
#51 = ORIENTED_EDGE ( 'NONE', *, *, #61, .T. ) ;
#52 = AXIS2_PLACEMENT_3D ( 'NONE', #509, #785, #236 ) ;
#53 = DIRECTION ( 'NONE',  ( 0.9396926207859082059, -0.000000000000000000, -0.3420201433256694346 ) ) ;
#54 = CARTESIAN_POINT ( 'NONE',  ( -55.63103127400722769, 25.00000000000000355, 22.47639560495476374 ) ) ;
#55 = AXIS2_PLACEMENT_3D ( 'NONE', #562, #386, #63 ) ;
#56 = VERTEX_POINT ( 'NONE', #465 ) ;
#57 = LINE ( 'NONE', #548, #878 ) ;
#58 = CIRCLE ( 'NONE', #344, 154.6307787036652712 ) ;
#59 = CARTESIAN_POINT ( 'NONE',  ( -57.33921364846636948, 5.000000000000000000, 17.89006926133962594 ) ) ;
#60 = CARTESIAN_POINT ( 'NONE',  ( -59.33976669227438094, 30.00000000000000711, -23.97482197861841868 ) ) ;
#61 = EDGE_CURVE ( 'NONE', #31, #318, #623, .T. ) ;
#62 = ORIENTED_EDGE ( 'NONE', *, *, #773, .T. ) ;
#63 = DIRECTION ( 'NONE',  ( -0.3420201433256693790, 0.000000000000000000, -0.9396926207859082059 ) ) ;
#64 = DIRECTION ( 'NONE',  ( -0.9271838545667868692, 0.000000000000000000, -0.3746065934159131250 ) ) ;
#65 = CARTESIAN_POINT ( 'NONE',  ( -56.84620915700158861, 7.430085779507525245, -19.19718747816954618 ) ) ;
#66 = ORIENTED_EDGE ( 'NONE', *, *, #575, .T. ) ;
#67 = CARTESIAN_POINT ( 'NONE',  ( 0.000000000000000000, 0.000000000000000000, 0.000000000000000000 ) ) ;
#68 = PLANE ( 'NONE',  #539 ) ;
#69 = AXIS2_PLACEMENT_3D ( 'NONE', #183, #109, #659 ) ;
#70 = ORIENTED_EDGE ( 'NONE', *, *, #129, .T. ) ;
#71 = DIRECTION ( 'NONE',  ( 0.2329621628282970147, 0.9663993535015562575, -0.1086320405871869232 ) ) ;
#72 = ORIENTED_EDGE ( 'NONE', *, *, #681, .T. ) ;
#73 = CIRCLE ( 'NONE', #190, 156.7438700123687738 ) ;
#74 = EDGE_CURVE ( 'NONE', #273, #754, #336, .T. ) ;
#75 = CARTESIAN_POINT ( 'NONE',  ( 0.000000000000000000, -12.73028723888605462, 0.000000000000000000 ) ) ;
#76 = ORIENTED_EDGE ( 'NONE', *, *, #90, .T. ) ;
#77 = DIRECTION ( 'NONE',  ( -0.3830222215594823454, 0.9063077870366531563, 0.1786061951567276540 ) ) ;
#78 = EDGE_CURVE ( 'NONE', #696, #273, #589, .T. ) ;
#79 = ORIENTED_EDGE ( 'NONE', *, *, #16, .T. ) ;
#80 = CYLINDRICAL_SURFACE ( 'NONE', #141, 2.799999999999990052 ) ;
#81 = CARTESIAN_POINT ( 'NONE',  ( -56.98725980513616918, 7.110910776375420461, 18.77416656162408515 ) ) ;
#82 = DIRECTION ( 'NONE',  ( 0.9396926207859082059, -0.000000000000000000, -0.3420201433256694346 ) ) ;
#83 = VECTOR ( 'NONE', #788, 1000.000000000000227 ) ;
#84 = STYLED_ITEM ( 'NONE', ( #643 ), #257 ) ;
#85 = ORIENTED_EDGE ( 'NONE', *, *, #646, .F. ) ;
#86 = CARTESIAN_POINT ( 'NONE',  ( 0.000000000000000000, 30.00000000000000355, 0.000000000000000000 ) ) ;
#87 = VECTOR ( 'NONE', #746, 1000.000000000000114 ) ;
#88 = LINE ( 'NONE', #362, #774 ) ;
#89 = DIRECTION ( 'NONE',  ( 0.9063077870366494926, 0.000000000000000000, -0.4226182617407002184 ) ) ;
#90 = EDGE_CURVE ( 'NONE', #652, #807, #162, .T. ) ;
#91 = ADVANCED_FACE ( 'NONE', ( #234 ), #521, .T. ) ;
#92 = CARTESIAN_POINT ( 'NONE',  ( -56.25579408174819207, 2.199714158971875833, 20.86677905803337651 ) ) ;
#93 = CARTESIAN_POINT ( 'NONE',  ( -57.23501167710332993, 4.097509759763535264, -18.00439932963598011 ) ) ;
#94 = CARTESIAN_POINT ( 'NONE',  ( -56.06737058662184836, 7.657528048433598578, -21.36536355664868481 ) ) ;
#95 = ORIENTED_EDGE ( 'NONE', *, *, #48, .F. ) ;
#96 = CARTESIAN_POINT ( 'NONE',  ( -56.84650070709577818, 2.570480735291691854, -19.19632060235593940 ) ) ;
#97 = AXIS2_PLACEMENT_3D ( 'NONE', #760, #554, #135 ) ;
#98 = CARTESIAN_POINT ( 'NONE',  ( -55.63103127400722769, 25.00000000000000355, -22.47639560495476374 ) ) ;
#99 = DIRECTION ( 'NONE',  ( 0.1908089953765435831, 0.000000000000000000, -0.9816271834476641978 ) ) ;
#100 = CARTESIAN_POINT ( 'NONE',  ( -68.28493413327046824, 7.171420974920636127, 31.84178772295376092 ) ) ;
#101 = VECTOR ( 'NONE', #818, 1000.000000000000114 ) ;
#102 = CARTESIAN_POINT ( 'NONE',  ( -57.27252039033514563, 4.635723907053700188, 17.88462178743989384 ) ) ;
#103 = CARTESIAN_POINT ( 'NONE',  ( -56.31754980336975080, 2.200144181816379607, -20.69704793324828174 ) ) ;
#104 = CARTESIAN_POINT ( 'NONE',  ( -55.36247413295741637, 5.182663241425166767, -23.12999044266166848 ) ) ;
#105 = ADVANCED_FACE ( 'NONE', ( #522 ), #844, .F. ) ;
#106 = ORIENTED_EDGE ( 'NONE', *, *, #638, .F. ) ;
#107 = DIRECTION ( 'NONE',  ( 0.3420201433256679913, 0.000000000000000000, -0.9396926207859086499 ) ) ;
#108 = CARTESIAN_POINT ( 'NONE',  ( -56.94357612360242626, 2.774924841280856924, -18.90641440267755158 ) ) ;
#109 = DIRECTION ( 'NONE',  ( -0.000000000000000000, -1.000000000000000000, -0.000000000000000000 ) ) ;
#110 = ORIENTED_EDGE ( 'NONE', *, *, #833, .F. ) ;
#111 = VECTOR ( 'NONE', #228, 1000.000000000000114 ) ;
#112 = AXIS2_PLACEMENT_3D ( 'NONE', #26, #859, #590 ) ;
#113 = CARTESIAN_POINT ( 'NONE',  ( -55.63103127400722769, 30.00000000000000711, 22.47639560495476374 ) ) ;
#114 = CARTESIAN_POINT ( 'NONE',  ( -54.37846722219897799, 30.00000000000000711, -25.35709570444201333 ) ) ;
#115 = ORIENTED_EDGE ( 'NONE', *, *, #136, .T. ) ;
#116 = EDGE_CURVE ( 'NONE', #852, #536, #350, .T. ) ;
#117 = LINE ( 'NONE', #756, #797 ) ;
#118 = DIRECTION ( 'NONE',  ( -0.8213938048432719574, -0.4226182617406932240, 0.3830222215594910606 ) ) ;
#119 = EDGE_LOOP ( 'NONE', ( #766, #41, #128, #903 ) ) ;
#120 = ORIENTED_EDGE ( 'NONE', *, *, #285, .F. ) ;
#121 =( LENGTH_UNIT ( ) NAMED_UNIT ( * ) SI_UNIT ( .MILLI., .METRE. ) );
#122 = EDGE_LOOP ( 'NONE', ( #428, #306, #230, #507 ) ) ;
#123 = ORIENTED_EDGE ( 'NONE', *, *, #381, .T. ) ;
#124 = CONICAL_SURFACE ( 'NONE', #214, 156.3059450704642472, 0.2599635289029313956 ) ;
#125 = DIRECTION ( 'NONE',  ( 0.000000000000000000, 1.000000000000000000, 0.000000000000000000 ) ) ;
#126 = CARTESIAN_POINT ( 'NONE',  ( -56.50579225794024296, 7.782130003744564206, -20.17741389089860249 ) ) ;
#127 = EDGE_CURVE ( 'NONE', #742, #14, #535, .T. ) ;
#128 = ORIENTED_EDGE ( 'NONE', *, *, #606, .T. ) ;
#129 = EDGE_CURVE ( 'NONE', #318, #527, #279, .T. ) ;
#130 = CARTESIAN_POINT ( 'NONE',  ( -65.57401548701928107, 4.999999999999997335, -23.86698977858604209 ) ) ;
#131 = PRODUCT_DEFINITION_FORMATION_WITH_SPECIFIED_SOURCE ( 'TUTTO', '', #866, .NOT_KNOWN. ) ;
#132 = DIRECTION ( 'NONE',  ( -0.000000000000000000, -1.000000000000000000, -0.000000000000000000 ) ) ;
#133 = LINE ( 'NONE', #541, #471 ) ;
#134 = ORIENTED_EDGE ( 'NONE', *, *, #48, .T. ) ;
#135 = DIRECTION ( 'NONE',  ( 0.000000000000000000, 0.000000000000000000, 1.000000000000000000 ) ) ;
#136 = EDGE_CURVE ( 'NONE', #616, #632, #154, .T. ) ;
#137 = CARTESIAN_POINT ( 'NONE',  ( -56.84642920425459067, 7.429535294489814312, 19.19652334191142629 ) ) ;
#138 = EDGE_LOOP ( 'NONE', ( #533, #95, #85, #284 ) ) ;
#139 = CARTESIAN_POINT ( 'NONE',  ( -65.25416066663878212, 0.000000000000000000, -30.42851484533042239 ) ) ;
#140 = ADVANCED_FACE ( 'NONE', ( #1 ), #124, .T. ) ;
#141 = AXIS2_PLACEMENT_3D ( 'NONE', #900, #635, #276 ) ;
#142 = FACE_OUTER_BOUND ( 'NONE', #398, .T. ) ;
#143 = CARTESIAN_POINT ( 'NONE',  ( 0.000000000000000000, 0.000000000000000000, 0.000000000000000000 ) ) ;
#144 = ORIENTED_EDGE ( 'NONE', *, *, #472, .T. ) ;
#145 = VECTOR ( 'NONE', #783, 1000.000000000000000 ) ;
#146 = EDGE_CURVE ( 'NONE', #334, #410, #895, .T. ) ;
#147 = FACE_OUTER_BOUND ( 'NONE', #158, .T. ) ;
#148 = CARTESIAN_POINT ( 'NONE',  ( -55.39686100468366448, 5.724632830090348179, 23.04753909669741319 ) ) ;
#149 = FACE_OUTER_BOUND ( 'NONE', #385, .T. ) ;
#150 = CARTESIAN_POINT ( 'NONE',  ( -56.38155724715449679, 5.000000000000000000, 20.52120859954015941 ) ) ;
#151 = CARTESIAN_POINT ( 'NONE',  ( -57.25092685917173441, 5.727314169844260228, 17.95362524543026339 ) ) ;
#152 = VERTEX_POINT ( 'NONE', #339 ) ;
#153 = CARTESIAN_POINT ( 'NONE',  ( -55.42390084584261700, 5.000000000000000000, -23.15234793774069644 ) ) ;
#154 = LINE ( 'NONE', #625, #832 ) ;
#155 = FACE_OUTER_BOUND ( 'NONE', #256, .T. ) ;
#156 = PRODUCT_RELATED_PRODUCT_CATEGORY ( 'part', '', ( #866 ) ) ;
#157 = ADVANCED_FACE ( 'NONE', ( #566 ), #270, .T. ) ;
#158 = EDGE_LOOP ( 'NONE', ( #578, #235, #123, #749 ) ) ;
#159 = ORIENTED_EDGE ( 'NONE', *, *, #61, .F. ) ;
#160 = VECTOR ( 'NONE', #193, 1000.000000000000114 ) ;
#161 = CARTESIAN_POINT ( 'NONE',  ( -56.06599628314274497, 2.343793104460086596, -21.36896775194630749 ) ) ;
#162 = LINE ( 'NONE', #721, #5 ) ;
#163 = ADVANCED_FACE ( 'NONE', ( #147 ), #80, .F. ) ;
#164 = CARTESIAN_POINT ( 'NONE',  ( -56.44555204552804639, 2.200144181816377387, 20.34536466327878301 ) ) ;
#165 = CARTESIAN_POINT ( 'NONE',  ( -56.25454001578464158, 2.218431347557388467, -20.86764800434234957 ) ) ;
#166 = ORIENTED_EDGE ( 'NONE', *, *, #709, .T. ) ;
#167 = DIRECTION ( 'NONE',  ( 0.000000000000000000, 0.000000000000000000, -1.000000000000000000 ) ) ;
#168 = CARTESIAN_POINT ( 'NONE',  ( -55.63103127400722769, 30.00000000000000711, -22.47639560495476374 ) ) ;
#169 = ORIENTED_EDGE ( 'NONE', *, *, #606, .F. ) ;
#170 = AXIS2_PLACEMENT_3D ( 'NONE', #266, #191, #810 ) ;
#171 = CARTESIAN_POINT ( 'NONE',  ( -57.23501641145747243, 4.097840075504875834, 18.00438184680294995 ) ) ;
#172 = VECTOR ( 'NONE', #260, 1000.000000000000000 ) ;
#173 = ADVANCED_FACE ( 'NONE', ( #142 ), #769, .F. ) ;
#174 = CARTESIAN_POINT ( 'NONE',  ( -57.16655204640152022, 3.597323688939194408, -18.22074771021697259 ) ) ;
#175 = EDGE_CURVE ( 'NONE', #455, #632, #370, .T. ) ;
#176 = DIRECTION ( 'NONE',  ( 0.000000000000000000, 0.000000000000000000, -1.000000000000000000 ) ) ;
#177 = FACE_BOUND ( 'NONE', #816, .T. ) ;
#178 = APPLICATION_CONTEXT ( 'automotive_design' ) ;
#179 = ORIENTED_EDGE ( 'NONE', *, *, #501, .T. ) ;
#180 = DIRECTION ( 'NONE',  ( -0.3830222215594912827, 0.9063077870366484934, -0.1786061951567324835 ) ) ;
#181 = CARTESIAN_POINT ( 'NONE',  ( -57.25109858341581059, 4.275008379847394124, -17.95307714522583709 ) ) ;
#182 = LINE ( 'NONE', #647, #111 ) ;
#183 = CARTESIAN_POINT ( 'NONE',  ( 0.000000000000000000, 0.000000000000000000, 0.000000000000000000 ) ) ;
#184 = CARTESIAN_POINT ( 'NONE',  ( -54.37846722219897089, 0.000000000000000000, -25.35709570444201333 ) ) ;
#185 = CARTESIAN_POINT ( 'NONE',  ( -57.10448299362992941, 6.706978226209147742, -18.41435246484362764 ) ) ;
#186 = CARTESIAN_POINT ( 'NONE',  ( -63.99306747552034835, 5.000000000000000000, -23.29157176047808520 ) ) ;
#187 = ORIENTED_EDGE ( 'NONE', *, *, #402, .F. ) ;
#188 = CONICAL_SURFACE ( 'NONE', #170, 75.34408852045882554, 1.221730476396026166 ) ;
#189 = DIRECTION ( 'NONE',  ( 0.000000000000000000, 0.000000000000000000, -1.000000000000000000 ) ) ;
#190 = AXIS2_PLACEMENT_3D ( 'NONE', #75, #2, #291 ) ;
#191 = DIRECTION ( 'NONE',  ( 0.000000000000000000, 1.000000000000000000, 0.000000000000000000 ) ) ;
#192 = ORIENTED_EDGE ( 'NONE', *, *, #231, .F. ) ;
#193 = DIRECTION ( 'NONE',  ( 0.9271838545667868692, 0.000000000000000000, 0.3746065934159131250 ) ) ;
#194 = DIRECTION ( 'NONE',  ( 0.000000000000000000, -1.000000000000000000, 0.000000000000000000 ) ) ;
#195 = ORIENTED_EDGE ( 'NONE', *, *, #323, .T. ) ;
#196 = LINE ( 'NONE', #343, #675 ) ;
#197 = ORIENTED_EDGE ( 'NONE', *, *, #136, .F. ) ;
#198 = FACE_OUTER_BOUND ( 'NONE', #772, .T. ) ;
#199 = EDGE_LOOP ( 'NONE', ( #204, #66, #837 ) ) ;
#200 = VECTOR ( 'NONE', #499, 1000.000000000000227 ) ;
#201 = VECTOR ( 'NONE', #651, 1000.000000000000114 ) ;
#202 = DIRECTION ( 'NONE',  ( -0.9271838545667868692, 0.000000000000000000, -0.3746065934159131250 ) ) ;
#203 = EDGE_CURVE ( 'NONE', #544, #357, #450, .T. ) ;
#204 = ORIENTED_EDGE ( 'NONE', *, *, #146, .F. ) ;
#205 = CARTESIAN_POINT ( 'NONE',  ( 0.000000000000000000, 0.000000000000000000, 0.000000000000000000 ) ) ;
#206 = LINE ( 'NONE', #552, #408 ) ;
#207 = ORIENTED_EDGE ( 'NONE', *, *, #264, .T. ) ;
#208 = ORIENTED_EDGE ( 'NONE', *, *, #861, .T. ) ;
#209 = CARTESIAN_POINT ( 'NONE',  ( -56.94317716858285650, 2.774031012084505310, 18.90761014333837764 ) ) ;
#210 = PRODUCT_CONTEXT ( 'NONE', #32, 'mechanical' ) ;
#211 = DIRECTION ( 'NONE',  ( 0.000000000000000000, -0.000000000000000000, 1.000000000000000000 ) ) ;
#212 = CARTESIAN_POINT ( 'NONE',  ( -57.27778693558116174, 5.182663241425164991, 17.86771176626059443 ) ) ;
#213 = ORIENTED_EDGE ( 'NONE', *, *, #289, .F. ) ;
#214 = AXIS2_PLACEMENT_3D ( 'NONE', #576, #570, #697 ) ;
#215 = CARTESIAN_POINT ( 'NONE',  ( -55.94544121189291275, 7.516813758125298506, 21.68261992047289155 ) ) ;
#216 = CARTESIAN_POINT ( 'NONE',  ( -140.1430788546727513, -12.26182617406931818, 65.34979090735390628 ) ) ;
#217 = CARTESIAN_POINT ( 'NONE',  ( -59.33976669227438094, 30.00000000000000711, -23.97482197861841868 ) ) ;
#218 = CARTESIAN_POINT ( 'NONE',  ( -141.6612951774845612, -23.55985867440377390, 66.05774680541696853 ) ) ;
#219 = ORIENTED_EDGE ( 'NONE', *, *, #432, .F. ) ;
#220 = DIRECTION ( 'NONE',  ( 0.8421027400899442350, 0.4184560180524543038, 0.3402315918439847708 ) ) ;
#221 = CARTESIAN_POINT ( 'NONE',  ( -65.25416066663878212, 0.000000000000000000, -30.42851484533042239 ) ) ;
#222 = CARTESIAN_POINT ( 'NONE',  ( -57.16617183719400686, 6.404794283331227689, 18.22194008146666633 ) ) ;
#223 = EDGE_CURVE ( 'NONE', #819, #708, #244, .T. ) ;
#224 = ORIENTED_EDGE ( 'NONE', *, *, #649, .T. ) ;
#225 = CARTESIAN_POINT ( 'NONE',  ( -57.27778693558116174, 5.000000000000000000, 17.86771176626059443 ) ) ;
#226 = CARTESIAN_POINT ( 'NONE',  ( -55.39690147698023281, 4.275008379847395013, 23.04744182637578476 ) ) ;
#227 = CARTESIAN_POINT ( 'NONE',  ( -57.19274435522477518, 6.240875984461630388, 18.13821740038015662 ) ) ;
#228 = DIRECTION ( 'NONE',  ( 0.8231423218483588933, 0.4184560180524543038, 0.3838375684293771073 ) ) ;
#229 = AXIS2_PLACEMENT_3D ( 'NONE', #768, #434, #710 ) ;
#230 = ORIENTED_EDGE ( 'NONE', *, *, #730, .F. ) ;
#231 = EDGE_CURVE ( 'NONE', #56, #568, #456, .T. ) ;
#232 = CARTESIAN_POINT ( 'NONE',  ( -55.36950603042367192, 4.632763149108979128, 23.11317957221179498 ) ) ;
#233 = DIRECTION ( 'NONE',  ( 0.3420201433256693790, 0.000000000000000000, -0.9396926207859082059 ) ) ;
#234 = FACE_OUTER_BOUND ( 'NONE', #122, .T. ) ;
#235 = ORIENTED_EDGE ( 'NONE', *, *, #826, .F. ) ;
#236 = DIRECTION ( 'NONE',  ( 0.000000000000000000, 0.000000000000000000, -1.000000000000000000 ) ) ;
#237 = CARTESIAN_POINT ( 'NONE',  ( -55.77411898244837118, 2.774924841280855148, 22.11947149101821708 ) ) ;
#238 = CARTESIAN_POINT ( 'NONE',  ( -63.03541107420848277, 5.000000000000000000, 25.92271109867861867 ) ) ;
#239 = DIRECTION ( 'NONE',  ( 0.000000000000000000, 0.000000000000000000, -1.000000000000000000 ) ) ;
#240 = DIRECTION ( 'NONE',  ( -0.8516507396391447271, 0.3420201433256728762, -0.3971312619671029664 ) ) ;
#241 = ORIENTED_EDGE ( 'NONE', *, *, #289, .T. ) ;
#242 = CARTESIAN_POINT ( 'NONE',  ( -56.12909933537705598, 2.289820459078970583, -21.20274070539052857 ) ) ;
#243 = CARTESIAN_POINT ( 'NONE',  ( -68.28493413327046824, 7.171420974920636127, -31.84178772295375737 ) ) ;
#244 = CIRCLE ( 'NONE', #52, 60.00000000000000000 ) ;
#245 = ORIENTED_EDGE ( 'NONE', *, *, #833, .T. ) ;
#246 = CONICAL_SURFACE ( 'NONE', #763, 154.6307787036652996, 1.134464013796321114 ) ;
#247 = CARTESIAN_POINT ( 'NONE',  ( -54.37846722219897089, 0.000000000000000000, 25.35709570444201333 ) ) ;
#248 = EDGE_LOOP ( 'NONE', ( #349, #475, #867 ) ) ;
#249 = DIRECTION ( 'NONE',  ( 0.9396926207859083169, -0.000000000000000000, 0.3420201433256689905 ) ) ;
#250 = CARTESIAN_POINT ( 'NONE',  ( -56.94356746410426240, 7.225140749208206259, -18.90644406160408053 ) ) ;
#251 = ADVANCED_FACE ( 'NONE', ( #782 ), #35, .F. ) ;
#252 = ORIENTED_EDGE ( 'NONE', *, *, #223, .F. ) ;
#253 = LINE ( 'NONE', #59, #693 ) ;
#254 = CARTESIAN_POINT ( 'NONE',  ( -57.27778693558116174, 5.000000000000000000, -17.86771176626060509 ) ) ;
#255 = CARTESIAN_POINT ( 'NONE',  ( -68.28493413327046824, 7.171420974920636127, -31.84178772295375737 ) ) ;
#256 = EDGE_LOOP ( 'NONE', ( #733, #208, #331, #726 ) ) ;
#257 = MANIFOLD_SOLID_BREP ( 'Foro per Vite M4-1', #893 ) ;
#258 = CARTESIAN_POINT ( 'NONE',  ( -59.33976669227439515, 25.00000000000000355, 23.97482197861842224 ) ) ;
#259 = ORIENTED_EDGE ( 'NONE', *, *, #129, .F. ) ;
#260 = DIRECTION ( 'NONE',  ( 0.2329621628282970147, 0.9663993535015562575, 0.1086320405871868955 ) ) ;
#261 = CARTESIAN_POINT ( 'NONE',  ( -57.27778693558116174, 5.000000000000000000, -17.86771176626060509 ) ) ;
#262 = ORIENTED_EDGE ( 'NONE', *, *, #691, .F. ) ;
#263 = DIRECTION ( 'NONE',  ( 0.000000000000000000, 0.000000000000000000, -1.000000000000000000 ) ) ;
#264 = EDGE_CURVE ( 'NONE', #47, #616, #718, .T. ) ;
#265 = CARTESIAN_POINT ( 'NONE',  ( -59.33976669227438094, 30.00000000000000711, -23.97482197861841868 ) ) ;
#266 = CARTESIAN_POINT ( 'NONE',  ( 0.000000000000000000, 7.171420974920636127, 0.000000000000000000 ) ) ;
#267 = VERTEX_POINT ( 'NONE', #798 ) ;
#268 = LINE ( 'NONE', #601, #172 ) ;
#269 = CARTESIAN_POINT ( 'NONE',  ( -56.79496083765432957, 2.484552205477438047, 19.34841454627235180 ) ) ;
#270 = PLANE ( 'NONE',  #633 ) ;
#271 = LINE ( 'NONE', #622, #340 ) ;
#272 = VECTOR ( 'NONE', #683, 1000.000000000000114 ) ;
#273 = VERTEX_POINT ( 'NONE', #680 ) ;
#274 = AXIS2_PLACEMENT_3D ( 'NONE', #329, #873, #189 ) ;
#275 = DIRECTION ( 'NONE',  ( 0.000000000000000000, 0.000000000000000000, 1.000000000000000000 ) ) ;
#276 = DIRECTION ( 'NONE',  ( 0.3420201433256679913, 0.000000000000000000, -0.9396926207859086499 ) ) ;
#277 = CARTESIAN_POINT ( 'NONE',  ( 0.000000000000000000, -17.26182617406931996, 0.000000000000000000 ) ) ;
#278 = ORIENTED_EDGE ( 'NONE', *, *, #579, .F. ) ;
#279 = LINE ( 'NONE', #221, #20 ) ;
#280 = CARTESIAN_POINT ( 'NONE',  ( -55.88643688889715122, 7.430085779507525245, 21.83414011260517640 ) ) ;
#281 = LINE ( 'NONE', #216, #200 ) ;
#282 = LINE ( 'NONE', #153, #406 ) ;
#283 = CARTESIAN_POINT ( 'NONE',  ( -55.36946981782651278, 5.366593743914319425, 23.11326631350133809 ) ) ;
#284 = ORIENTED_EDGE ( 'NONE', *, *, #231, .T. ) ;
#285 = EDGE_CURVE ( 'NONE', #696, #655, #879, .T. ) ;
#286 = CONICAL_SURFACE ( 'NONE', #821, 2.799999999999998490, 1.029744258676654978 ) ;
#287 = FACE_OUTER_BOUND ( 'NONE', #582, .T. ) ;
#288 = CARTESIAN_POINT ( 'NONE',  ( -55.42390084584262411, 5.000000000000000000, 23.15234793774069288 ) ) ;
#289 = EDGE_CURVE ( 'NONE', #807, #706, #526, .T. ) ;
#290 = CARTESIAN_POINT ( 'NONE',  ( -55.50419039476955163, 3.597323688939193076, 22.78804881104309388 ) ) ;
#291 = DIRECTION ( 'NONE',  ( 0.000000000000000000, 0.000000000000000000, -1.000000000000000000 ) ) ;
#292 = DIRECTION ( 'NONE',  ( 0.000000000000000000, 0.000000000000000000, -1.000000000000000000 ) ) ;
#293 = CARTESIAN_POINT ( 'NONE',  ( -57.27778693558116885, 4.817390598569289750, 17.86771176626059798 ) ) ;
#294 = CARTESIAN_POINT ( 'NONE',  ( -55.50401645741882106, 3.597955722475329132, -22.78847574213260074 ) ) ;
#295 = VECTOR ( 'NONE', #904, 999.9999999999998863 ) ;
#296 = DIRECTION ( 'NONE',  ( -0.000000000000000000, -1.000000000000000000, -0.000000000000000000 ) ) ;
#297 = ADVANCED_FACE ( 'NONE', ( #889 ), #483, .F. ) ;
#298 = ORIENTED_EDGE ( 'NONE', *, *, #203, .T. ) ;
#299 = CARTESIAN_POINT ( 'NONE',  ( -55.77458197245378813, 2.774031012084510195, -22.11829905718618505 ) ) ;
#300 = ADVANCED_FACE ( 'NONE', ( #414 ), #892, .T. ) ;
#301 = CARTESIAN_POINT ( 'NONE',  ( 0.000000000000000000, -17.26182617406931996, 0.000000000000000000 ) ) ;
#302 = DIRECTION ( 'NONE',  ( -0.3746065934159132915, 0.000000000000000000, -0.9271838545667869802 ) ) ;
#303 = VERTEX_POINT ( 'NONE', #882 ) ;
#304 = CARTESIAN_POINT ( 'NONE',  ( -56.62973664420764663, 2.273801798583857448, -19.82892956037772692 ) ) ;
#305 = CARTESIAN_POINT ( 'NONE',  ( -59.33976669227438094, 30.00000000000000355, 23.97482197861841868 ) ) ;
#306 = ORIENTED_EDGE ( 'NONE', *, *, #356, .F. ) ;
#307 = CARTESIAN_POINT ( 'NONE',  ( -55.39692394148601551, 4.274326101318496107, -23.04738827204369045 ) ) ;
#308 = DIRECTION ( 'NONE',  ( -0.9271838545667868692, 0.000000000000000000, 0.3746065934159132360 ) ) ;
#309 = AXIS2_PLACEMENT_3D ( 'NONE', #641, #82, #354 ) ;
#310 = VECTOR ( 'NONE', #220, 1000.000000000000114 ) ;
#311 = ORIENTED_EDGE ( 'NONE', *, *, #78, .T. ) ;
#312 = PRODUCT_DEFINITION ( 'NON CONOSCIUTO', '', #131, #877 ) ;
#313 = MECHANICAL_DESIGN_GEOMETRIC_PRESENTATION_REPRESENTATION (  '', ( #84 ), #22 ) ;
#314 = DIRECTION ( 'NONE',  ( -0.000000000000000000, -1.000000000000000000, 0.000000000000000000 ) ) ;
#315 = CARTESIAN_POINT ( 'NONE',  ( -75.94979079002277444, 10.24960226485169201, -35.41596908065768190 ) ) ;
#316 = CARTESIAN_POINT ( 'NONE',  ( -55.39712224059755385, 5.727314169844261116, -23.04691157504352717 ) ) ;
#317 = LINE ( 'NONE', #603, #525 ) ;
#318 = VERTEX_POINT ( 'NONE', #139 ) ;
#319 = CARTESIAN_POINT ( 'NONE',  ( -63.99306747552034835, 5.000000000000000000, -23.29157176047808520 ) ) ;
#320 = DIRECTION ( 'NONE',  ( 0.000000000000000000, 0.000000000000000000, 1.000000000000000000 ) ) ;
#321 = ORIENTED_EDGE ( 'NONE', *, *, #416, .F. ) ;
#322 = ORIENTED_EDGE ( 'NONE', *, *, #500, .F. ) ;
#323 = EDGE_CURVE ( 'NONE', #440, #616, #497, .T. ) ;
#324 = DIRECTION ( 'NONE',  ( 0.3746065934159131805, 0.000000000000000000, -0.9271838545667869802 ) ) ;
#325 = ADVANCED_BREP_SHAPE_REPRESENTATION ( 'ELP-0040', ( #257, #42 ), #561 ) ;
#326 = ORIENTED_EDGE ( 'NONE', *, *, #416, .T. ) ;
#327 = CARTESIAN_POINT ( 'NONE',  ( 0.000000000000000000, 0.000000000000000000, 0.000000000000000000 ) ) ;
#328 = EDGE_CURVE ( 'NONE', #440, #708, #57, .T. ) ;
#329 = CARTESIAN_POINT ( 'NONE',  ( 0.000000000000000000, 30.00000000000000711, 0.000000000000000000 ) ) ;
#330 = DIRECTION ( 'NONE',  ( -0.9063077870366493816, -8.673617379884032514E-16, 0.4226182617407006625 ) ) ;
#331 = ORIENTED_EDGE ( 'NONE', *, *, #779, .T. ) ;
#332 = DIRECTION ( 'NONE',  ( 0.9396926207859082059, -0.000000000000000000, -0.3420201433256694346 ) ) ;
#333 = FACE_OUTER_BOUND ( 'NONE', #573, .T. ) ;
#334 = VERTEX_POINT ( 'NONE', #130 ) ;
#335 = DIRECTION ( 'NONE',  ( 0.9396926207859083169, -0.000000000000000000, 0.3420201433256689905 ) ) ;
#336 = CIRCLE ( 'NONE', #791, 154.6307787036652996 ) ;
#337 = EDGE_CURVE ( 'NONE', #14, #152, #268, .T. ) ;
#338 = EDGE_CURVE ( 'NONE', #666, #560, #420, .T. ) ;
#339 = CARTESIAN_POINT ( 'NONE',  ( -140.1430788546727513, -17.26182617406931286, -65.34979090735389207 ) ) ;
#340 = VECTOR ( 'NONE', #202, 1000.000000000000114 ) ;
#341 = CARTESIAN_POINT ( 'NONE',  ( -59.33976669227438094, 30.00000000000000711, 23.97482197861841868 ) ) ;
#342 = EDGE_LOOP ( 'NONE', ( #624, #79, #373, #3 ) ) ;
#343 = CARTESIAN_POINT ( 'NONE',  ( -140.1430788546727513, -17.26182617406931286, -65.34979090735389207 ) ) ;
#344 = AXIS2_PLACEMENT_3D ( 'NONE', #864, #15, #37 ) ;
#345 = AXIS2_PLACEMENT_3D ( 'NONE', #663, #53, #411 ) ;
#346 = DIRECTION ( 'NONE',  ( -0.000000000000000000, -1.000000000000000000, -0.000000000000000000 ) ) ;
#347 = CARTESIAN_POINT ( 'NONE',  ( -55.58108947925461507, 6.706978226209152183, 22.59984174653336453 ) ) ;
#348 = CARTESIAN_POINT ( 'NONE',  ( -57.23507090169331946, 5.901862511838258385, 18.00421051375731096 ) ) ;
#349 = ORIENTED_EDGE ( 'NONE', *, *, #575, .F. ) ;
#350 = B_SPLINE_CURVE_WITH_KNOTS ( 'NONE', 3,
 ( #586, #104, #39, #316, #382, #33, #515, #448, #597, #372, #865, #843, #713, #94, #650, #49, #815, #551, #126, #757, #809, #874, #65, #250, #886, #747, #185, #664, #469, #737, #45, #396, #671, #254 ),
 .UNSPECIFIED., .F., .F.,
 ( 4, 2, 2, 2, 2, 2, 2, 2, 2, 2, 2, 2, 2, 2, 2, 2, 4 ),
 ( 0.004378629417733661232, 0.004925851975057767354, 0.005473074532381874344, 0.006020297089705980466, 0.006567519647030086588, 0.007114742204354192710, 0.007661964761678298833, 0.008209187319002405822, 0.008756409876326511077, 0.009303632433650618067, 0.009850854990974725056, 0.01039807754829883205, 0.01094530010562293730, 0.01149252266294704256, 0.01203974522027114955, 0.01258696777759525653, 0.01313419033491936352 ),
 .UNSPECIFIED. ) ;
#351 = AXIS2_PLACEMENT_3D ( 'NONE', #186, #784, #716 ) ;
#352 = DIRECTION ( 'NONE',  ( 0.000000000000000000, 1.000000000000000000, 0.000000000000000000 ) ) ;
#353 = CARTESIAN_POINT ( 'NONE',  ( -56.79387419387482794, 7.517122670580445032, 19.35160609499063966 ) ) ;
#354 = DIRECTION ( 'NONE',  ( -0.3420201433256701562, 0.000000000000000000, -0.9396926207859078728 ) ) ;
#355 = PRODUCT_DEFINITION_SHAPE ( 'NONE', 'NONE',  #312 ) ;
#356 = EDGE_CURVE ( 'NONE', #152, #267, #196, .T. ) ;
#357 = VERTEX_POINT ( 'NONE', #750 ) ;
#358 = ADVANCED_FACE ( 'NONE', ( #405 ), #674, .T. ) ;
#359 = CIRCLE ( 'NONE', #612, 64.00000000000000000 ) ;
#360 = CONICAL_SURFACE ( 'NONE', #868, 2.799999999999998490, 1.029744258676654978 ) ;
#361 = CARTESIAN_POINT ( 'NONE',  ( -54.37846722219897089, 0.000000000000000000, 25.35709570444201333 ) ) ;
#362 = CARTESIAN_POINT ( 'NONE',  ( -57.33921364846634816, 5.000000000000000000, -17.89006926133962949 ) ) ;
#363 = FACE_OUTER_BOUND ( 'NONE', #138, .T. ) ;
#364 = SURFACE_SIDE_STYLE ('',( #777 ) ) ;
#365 = ADVANCED_FACE ( 'NONE', ( #12 ), #506, .F. ) ;
#366 = CARTESIAN_POINT ( 'NONE',  ( -57.06814768822090400, 3.149115842310020508, -18.52682464212827185 ) ) ;
#367 = EDGE_LOOP ( 'NONE', ( #159, #224, #21, #259 ) ) ;
#368 = SURFACE_STYLE_USAGE ( .BOTH. , #364 ) ;
#369 = DIRECTION ( 'NONE',  ( -0.000000000000000000, -1.000000000000000000, -0.000000000000000000 ) ) ;
#370 = CIRCLE ( 'NONE', #753, 60.00000000000000000 ) ;
#371 = ADVANCED_FACE ( 'NONE', ( #363 ), #453, .T. ) ;
#372 = CARTESIAN_POINT ( 'NONE',  ( -55.72257535030533404, 7.110910776375421349, -22.24885854400710272 ) ) ;
#373 = ORIENTED_EDGE ( 'NONE', *, *, #727, .T. ) ;
#374 = CARTESIAN_POINT ( 'NONE',  ( -59.33976669227438094, 25.00000000000000355, -23.97482197861841868 ) ) ;
#375 = CARTESIAN_POINT ( 'NONE',  ( 0.000000000000000000, 0.000000000000000000, 0.000000000000000000 ) ) ;
#376 = LINE ( 'NONE', #722, #201 ) ;
#377 = ORIENTED_EDGE ( 'NONE', *, *, #744, .F. ) ;
#378 = CARTESIAN_POINT ( 'NONE',  ( -56.98835229653515455, 2.892357741840259955, 18.77083821362417737 ) ) ;
#379 = CARTESIAN_POINT ( 'NONE',  ( -55.36247413295743058, 4.815296704762580760, 23.12999044266166493 ) ) ;
#380 = CARTESIAN_POINT ( 'NONE',  ( 0.000000000000000000, 30.00000000000000355, 0.000000000000000000 ) ) ;
#381 = EDGE_CURVE ( 'NONE', #410, #852, #282, .T. ) ;
#382 = CARTESIAN_POINT ( 'NONE',  ( -55.41749145619417050, 5.901862511838260161, -22.99796899833104646 ) ) ;
#383 = CARTESIAN_POINT ( 'NONE',  ( -63.03541107420847567, 5.000000000000000000, -25.92271109867861867 ) ) ;
#384 = EDGE_CURVE ( 'NONE', #706, #807, #523, .T. ) ;
#385 = EDGE_LOOP ( 'NONE', ( #404, #817, #298, #831 ) ) ;
#386 = DIRECTION ( 'NONE',  ( 0.9396926207859082059, -0.000000000000000000, -0.3420201433256694346 ) ) ;
#387 = CARTESIAN_POINT ( 'NONE',  ( -55.36247413295741637, 5.000000000000000000, -23.12999044266167203 ) ) ;
#388 = DIRECTION ( 'NONE',  ( 0.000000000000000000, -1.000000000000000000, -0.000000000000000000 ) ) ;
#389 = CARTESIAN_POINT ( 'NONE',  ( -59.33976669227438094, 25.00000000000000355, 23.97482197861841868 ) ) ;
#390 = AXIS2_PLACEMENT_3D ( 'NONE', #574, #642, #292 ) ;
#391 = VECTOR ( 'NONE', #388, 1000.000000000000000 ) ;
#392 = EDGE_LOOP ( 'NONE', ( #169, #881, #401, #470, #427, #425 ) ) ;
#393 = AXIS2_PLACEMENT_3D ( 'NONE', #887, #665, #320 ) ;
#394 = EDGE_CURVE ( 'NONE', #449, #410, #863, .T. ) ;
#395 = LINE ( 'NONE', #532, #457 ) ;
#396 = CARTESIAN_POINT ( 'NONE',  ( -57.27239587809388865, 5.366593743914317649, -17.88501993202499918 ) ) ;
#397 = CARTESIAN_POINT ( 'NONE',  ( -54.37846722219897089, 0.000000000000000000, 25.35709570444201333 ) ) ;
#398 = EDGE_LOOP ( 'NONE', ( #207, #115, #902, #70, #326, #890, #825, #679, #134 ) ) ;
#399 = CYLINDRICAL_SURFACE ( 'NONE', #393, 154.6307787036652712 ) ;
#400 = ORIENTED_EDGE ( 'NONE', *, *, #472, .F. ) ;
#401 = ORIENTED_EDGE ( 'NONE', *, *, #744, .T. ) ;
#402 = EDGE_CURVE ( 'NONE', #888, #303, #862, .T. ) ;
#403 = CARTESIAN_POINT ( 'NONE',  ( -59.33976669227438094, 30.00000000000000355, 23.97482197861841868 ) ) ;
#404 = ORIENTED_EDGE ( 'NONE', *, *, #384, .F. ) ;
#405 = FACE_OUTER_BOUND ( 'NONE', #717, .T. ) ;
#406 = VECTOR ( 'NONE', #18, 1000.000000000000000 ) ;
#407 = DIRECTION ( 'NONE',  ( 0.3420201433256693790, 0.000000000000000000, -0.9396926207859082059 ) ) ;
#408 = VECTOR ( 'NONE', #477, 1000.000000000000114 ) ;
#409 = DIRECTION ( 'NONE',  ( 0.000000000000000000, 0.000000000000000000, -1.000000000000000000 ) ) ;
#410 = VERTEX_POINT ( 'NONE', #383 ) ;
#411 = DIRECTION ( 'NONE',  ( -0.3420201433256693790, 0.000000000000000000, -0.9396926207859082059 ) ) ;
#412 = CARTESIAN_POINT ( 'NONE',  ( -58.00369837034558174, 30.00000000000000355, 27.04756875140481753 ) ) ;
#413 = ORIENTED_EDGE ( 'NONE', *, *, #813, .T. ) ;
#414 = FACE_OUTER_BOUND ( 'NONE', #433, .T. ) ;
#415 = ADVANCED_FACE ( 'NONE', ( #454 ), #40, .T. ) ;
#416 = EDGE_CURVE ( 'NONE', #527, #742, #855, .T. ) ;
#417 = DIRECTION ( 'NONE',  ( 0.7771459614569706797, 0.000000000000000000, -0.6293203910498376130 ) ) ;
#418 = DIRECTION ( 'NONE',  ( 0.000000000000000000, 0.000000000000000000, 1.000000000000000000 ) ) ;
#419 = VERTEX_POINT ( 'NONE', #100 ) ;
#420 = LINE ( 'NONE', #812, #4 ) ;
#421 = APPLICATION_PROTOCOL_DEFINITION ( 'draft international standard', 'automotive_design', 1998, #178 ) ;
#422 = DIRECTION ( 'NONE',  ( 0.9063077870366494926, 0.000000000000000000, 0.4226182617407002184 ) ) ;
#423 = AXIS2_PLACEMENT_3D ( 'NONE', #748, #546, #409 ) ;
#424 = DIRECTION ( 'NONE',  ( -0.000000000000000000, -1.000000000000000000, -0.000000000000000000 ) ) ;
#425 = ORIENTED_EDGE ( 'NONE', *, *, #337, .F. ) ;
#426 = CARTESIAN_POINT ( 'NONE',  ( -65.25416066663878212, 0.000000000000000000, 30.42851484533042239 ) ) ;
#427 = ORIENTED_EDGE ( 'NONE', *, *, #730, .T. ) ;
#428 = ORIENTED_EDGE ( 'NONE', *, *, #646, .T. ) ;
#429 = CARTESIAN_POINT ( 'NONE',  ( -56.84655705806133597, 2.570653219250680355, 19.19614799978545960 ) ) ;
#430 = CARTESIAN_POINT ( 'NONE',  ( -57.27234442256329316, 5.368191869343797329, 17.88518521097469005 ) ) ;
#431 = ORIENTED_EDGE ( 'NONE', *, *, #7, .T. ) ;
#432 = EDGE_CURVE ( 'NONE', #627, #696, #518, .T. ) ;
#433 = EDGE_LOOP ( 'NONE', ( #538, #496, #495, #547 ) ) ;
#434 = DIRECTION ( 'NONE',  ( 0.9396926207859082059, -0.000000000000000000, -0.3420201433256694346 ) ) ;
#435 = DIRECTION ( 'NONE',  ( 1.000000000000000000, 0.000000000000000000, 0.000000000000000000 ) ) ;
#436 = COLOUR_RGB ( '',0.7921568627450980005, 0.8196078431372548767, 0.9333333333333333481 ) ;
#437 = CARTESIAN_POINT ( 'NONE',  ( -55.36247413295742348, 5.000000000000000000, 23.12999044266166493 ) ) ;
#438 = CARTESIAN_POINT ( 'NONE',  ( -141.6612951774845612, -23.55985867440377390, -66.05774680541696853 ) ) ;
#439 = DIRECTION ( 'NONE',  ( -0.3420201433256701562, 0.000000000000000000, -0.9396926207859078728 ) ) ;
#440 = VERTEX_POINT ( 'NONE', #168 ) ;
#441 = AXIS2_PLACEMENT_3D ( 'NONE', #361, #581, #498 ) ;
#442 = CARTESIAN_POINT ( 'NONE',  ( -57.25108136816456295, 4.274326101318495219, 17.95313261013032147 ) ) ;
#443 = VECTOR ( 'NONE', #739, 1000.000000000000000 ) ;
#444 = FACE_OUTER_BOUND ( 'NONE', #248, .T. ) ;
#445 = DIRECTION ( 'NONE',  ( 0.000000000000000000, 1.000000000000000000, 0.000000000000000000 ) ) ;
#446 = DIRECTION ( 'NONE',  ( 0.9396926207859082059, -0.000000000000000000, -0.3420201433256694346 ) ) ;
#447 = CARTESIAN_POINT ( 'NONE',  ( -55.58141793363132166, 3.291785498772421104, -22.59903648481922644 ) ) ;
#448 = CARTESIAN_POINT ( 'NONE',  ( -55.58144556232074507, 6.708139842476398940, -22.59896484476508860 ) ) ;
#449 = VERTEX_POINT ( 'NONE', #466 ) ;
#450 = B_SPLINE_CURVE_WITH_KNOTS ( 'NONE', 3,
 ( #829, #379, #232, #226, #520, #517, #290, #24, #458, #711, #237, #786, #580, #841, #92, #164, #734, #473, #667, #269, #429, #209, #378, #23, #588, #845, #853, #171, #442, #102, #293, #225 ),
 .UNSPECIFIED., .F., .F.,
 ( 4, 2, 2, 2, 2, 2, 2, 2, 2, 2, 2, 2, 2, 2, 2, 4 ),
 ( 0.01313419033491935138, 0.01368125159838257283, 0.01422831286184579602, 0.01477537412530901401, 0.01532243538877223372, 0.01586949665223545344, 0.01641655791569867490, 0.01751068044262511086, 0.01805774170608833579, 0.01860480296955156071, 0.01915186423301478563, 0.01969892549647800709, 0.02024598675994122854, 0.02079304802340445346, 0.02134010928686767838, 0.02188717055033090331 ),
 .UNSPECIFIED. ) ;
#451 = CARTESIAN_POINT ( 'NONE',  ( -145.3303855777835167, -12.73028723888605462, -58.71728718416010651 ) ) ;
#452 = CARTESIAN_POINT ( 'NONE',  ( -140.1430788546727513, -17.26182617406931996, 65.34979090735390628 ) ) ;
#453 = CONICAL_SURFACE ( 'NONE', #390, 156.7438700123687738, 1.139051650624601120 ) ;
#454 = FACE_OUTER_BOUND ( 'NONE', #595, .T. ) ;
#455 = VERTEX_POINT ( 'NONE', #247 ) ;
#456 = LINE ( 'NONE', #451, #310 ) ;
#457 = VECTOR ( 'NONE', #808, 1000.000000000000227 ) ;
#458 = CARTESIAN_POINT ( 'NONE',  ( -55.62555074245005926, 3.149115842310018287, 22.49032717600788800 ) ) ;
#459 = CARTESIAN_POINT ( 'NONE',  ( -55.62500516160277186, 3.150783985936723930, -22.49167547088756436 ) ) ;
#460 = DIRECTION ( 'NONE',  ( 0.9396926207859082059, -0.000000000000000000, -0.3420201433256694346 ) ) ;
#461 = EDGE_CURVE ( 'NONE', #419, #860, #376, .T. ) ;
#462 = ORIENTED_EDGE ( 'NONE', *, *, #384, .T. ) ;
#463 = UNCERTAINTY_MEASURE_WITH_UNIT (LENGTH_MEASURE( 1.000000000000000082E-05 ), #121, 'distance_accuracy_value', 'NONE');
#464 = CARTESIAN_POINT ( 'NONE',  ( -55.36930927733085639, 4.635723907053700188, -23.11365134487424555 ) ) ;
#465 = CARTESIAN_POINT ( 'NONE',  ( -145.3303855777835167, -12.73028723888605462, -58.71728718416010651 ) ) ;
#466 = CARTESIAN_POINT ( 'NONE',  ( -64.95072387683221393, 5.000000000000000000, -20.66043242227755172 ) ) ;
#467 = VERTEX_POINT ( 'NONE', #389 ) ;
#468 = DIRECTION ( 'NONE',  ( 0.000000000000000000, 0.000000000000000000, -1.000000000000000000 ) ) ;
#469 = CARTESIAN_POINT ( 'NONE',  ( -57.19264496634656325, 6.241528092380098869, -18.13853083919926945 ) ) ;
#470 = ORIENTED_EDGE ( 'NONE', *, *, #74, .T. ) ;
#471 = VECTOR ( 'NONE', #194, 1000.000000000000000 ) ;
#472 = EDGE_CURVE ( 'NONE', #888, #627, #599, .T. ) ;
#473 = CARTESIAN_POINT ( 'NONE',  ( -56.62624365996014575, 2.289820459078968806, 19.83684789938843451 ) ) ;
#474 = CARTESIAN_POINT ( 'NONE',  ( -143.3711614331282362, -17.26182617406931286, -57.92570924742990002 ) ) ;
#475 = ORIENTED_EDGE ( 'NONE', *, *, #146, .T. ) ;
#476 = CARTESIAN_POINT ( 'NONE',  ( -63.03541107420848277, 5.000000000000000000, 25.92271109867862577 ) ) ;
#477 = DIRECTION ( 'NONE',  ( 0.1908089953765440272, 1.049727191138619065E-16, 0.9816271834476641978 ) ) ;
#478 = ORIENTED_EDGE ( 'NONE', *, *, #461, .F. ) ;
#479 = ORIENTED_EDGE ( 'NONE', *, *, #883, .F. ) ;
#480 = CARTESIAN_POINT ( 'NONE',  ( -63.99306747552034835, 5.000000000000000000, -23.29157176047808520 ) ) ;
#481 = LINE ( 'NONE', #806, #897 ) ;
#482 = ORIENTED_EDGE ( 'NONE', *, *, #432, .T. ) ;
#483 = CYLINDRICAL_SURFACE ( 'NONE', #569, 2.799999999999990052 ) ;
#484 = VECTOR ( 'NONE', #240, 1000.000000000000114 ) ;
#485 = AXIS2_PLACEMENT_3D ( 'NONE', #858, #445, #17 ) ;
#486 =( NAMED_UNIT ( * ) PLANE_ANGLE_UNIT ( ) SI_UNIT ( $, .RADIAN. ) );
#487 = ADVANCED_FACE ( 'NONE', ( #795, #177, #529 ), #800, .F. ) ;
#488 = DIRECTION ( 'NONE',  ( -0.000000000000000000, -1.000000000000000000, -0.000000000000000000 ) ) ;
#489 = CONICAL_SURFACE ( 'NONE', #556, 72.00000000000001421, 0.4363323129985745563 ) ;
#490 = ORIENTED_EDGE ( 'NONE', *, *, #285, .T. ) ;
#491 = CONICAL_SURFACE ( 'NONE', #345, 2.799999999999998490, 1.029744258676654978 ) ;
#492 = CARTESIAN_POINT ( 'NONE',  ( 0.000000000000000000, 30.00000000000000711, 0.000000000000000000 ) ) ;
#493 = ORIENTED_EDGE ( 'NONE', *, *, #78, .F. ) ;
#494 = CARTESIAN_POINT ( 'NONE',  ( -56.68348864883618887, 7.657528048433602130, 19.67259309299667080 ) ) ;
#495 = ORIENTED_EDGE ( 'NONE', *, *, #579, .T. ) ;
#496 = ORIENTED_EDGE ( 'NONE', *, *, #223, .T. ) ;
#497 = CIRCLE ( 'NONE', #793, 60.00000000000000711 ) ;
#498 = DIRECTION ( 'NONE',  ( 0.000000000000000000, 0.000000000000000000, -1.000000000000000000 ) ) ;
#499 = DIRECTION ( 'NONE',  ( -0.8213938048432718464, -0.4226182617406932795, 0.3830222215594909496 ) ) ;
#500 = EDGE_CURVE ( 'NONE', #860, #666, #317, .T. ) ;
#501 = EDGE_CURVE ( 'NONE', #303, #631, #481, .T. ) ;
#502 = FACE_OUTER_BOUND ( 'NONE', #604, .T. ) ;
#503 =( NAMED_UNIT ( * ) SI_UNIT ( $, .STERADIAN. ) SOLID_ANGLE_UNIT ( ) );
#504 = CARTESIAN_POINT ( 'NONE',  ( -56.31865572235065542, 7.799925021186840723, 20.69401888816420865 ) ) ;
#505 = ORIENTED_EDGE ( 'NONE', *, *, #880, .F. ) ;
#506 = CYLINDRICAL_SURFACE ( 'NONE', #19, 2.799999999999992273 ) ;
#507 = ORIENTED_EDGE ( 'NONE', *, *, #894, .T. ) ;
#508 = VECTOR ( 'NONE', #460, 1000.000000000000000 ) ;
#509 = CARTESIAN_POINT ( 'NONE',  ( 0.000000000000000000, 25.00000000000000000, 0.000000000000000000 ) ) ;
#510 = DIRECTION ( 'NONE',  ( -0.000000000000000000, -1.000000000000000000, -0.000000000000000000 ) ) ;
#511 = ADVANCED_FACE ( 'NONE', ( #333 ), #399, .T. ) ;
#512 = DIRECTION ( 'NONE',  ( -0.000000000000000000, -1.000000000000000000, -0.000000000000000000 ) ) ;
#513 =( LENGTH_UNIT ( ) NAMED_UNIT ( * ) SI_UNIT ( .MILLI., .METRE. ) );
#514 = CARTESIAN_POINT ( 'NONE',  ( -57.10452454284331480, 3.293232996070000418, -18.41422267512586686 ) ) ;
#515 = CARTESIAN_POINT ( 'NONE',  ( -55.50466557908436727, 6.404794283331226801, -22.78689100790546362 ) ) ;
#516 = EDGE_LOOP ( 'NONE', ( #195, #687, #505, #700 ) ) ;
#517 = CARTESIAN_POINT ( 'NONE',  ( -55.47138693389155861, 3.758127083397722945, 22.86766687989034708 ) ) ;
#518 = LINE ( 'NONE', #871, #83 ) ;
#519 = ORIENTED_EDGE ( 'NONE', *, *, #7, .F. ) ;
#520 = CARTESIAN_POINT ( 'NONE',  ( -55.41756745603342438, 4.097509759763538817, 22.99778628814378933 ) ) ;
#521 = CONICAL_SURFACE ( 'NONE', #485, 154.6307787036652712, 0.4363323129985856585 ) ;
#522 = FACE_OUTER_BOUND ( 'NONE', #119, .T. ) ;
#523 = CIRCLE ( 'NONE', #634, 2.799999999999998490 ) ;
#524 = DIRECTION ( 'NONE',  ( -0.9271838545667868692, -8.673617379884032514E-16, 0.3746065934159131250 ) ) ;
#525 = VECTOR ( 'NONE', #118, 999.9999999999998863 ) ;
#526 = CIRCLE ( 'NONE', #55, 2.799999999999998490 ) ;
#527 = VERTEX_POINT ( 'NONE', #255 ) ;
#528 = ADVANCED_FACE ( 'NONE', ( #617 ), #188, .T. ) ;
#529 = FACE_OUTER_BOUND ( 'NONE', #660, .T. ) ;
#530 = ORIENTED_EDGE ( 'NONE', *, *, #461, .T. ) ;
#531 = UNCERTAINTY_MEASURE_WITH_UNIT (LENGTH_MEASURE( 1.000000000000000082E-05 ), #513, 'distance_accuracy_value', 'NONE');
#532 = CARTESIAN_POINT ( 'NONE',  ( -59.33976669227438094, 25.00000000000000355, -23.97482197861841868 ) ) ;
#533 = ORIENTED_EDGE ( 'NONE', *, *, #880, .T. ) ;
#534 = DIRECTION ( 'NONE',  ( 0.9396926207859083169, -0.000000000000000000, 0.3420201433256689905 ) ) ;
#535 = LINE ( 'NONE', #740, #295 ) ;
#536 = VERTEX_POINT ( 'NONE', #261 ) ;
#537 = VECTOR ( 'NONE', #543, 1000.000000000000114 ) ;
#538 = ORIENTED_EDGE ( 'NONE', *, *, #644, .T. ) ;
#539 = AXIS2_PLACEMENT_3D ( 'NONE', #341, #838, #13 ) ;
#540 = APPLICATION_PROTOCOL_DEFINITION ( 'draft international standard', 'automotive_design', 1998, #32 ) ;
#541 = CARTESIAN_POINT ( 'NONE',  ( -54.37846722219897089, 25.00000000000000000, 25.35709570444201333 ) ) ;
#542 = ORIENTED_EDGE ( 'NONE', *, *, #620, .T. ) ;
#543 = DIRECTION ( 'NONE',  ( 0.9063077870366493816, 0.000000000000000000, 0.4226182617407006625 ) ) ;
#544 = VERTEX_POINT ( 'NONE', #677 ) ;
#545 =( NAMED_UNIT ( * ) SI_UNIT ( $, .STERADIAN. ) SOLID_ANGLE_UNIT ( ) );
#546 = DIRECTION ( 'NONE',  ( -0.000000000000000000, -1.000000000000000000, -0.000000000000000000 ) ) ;
#547 = ORIENTED_EDGE ( 'NONE', *, *, #861, .F. ) ;
#548 = CARTESIAN_POINT ( 'NONE',  ( -55.63103127400722769, 25.00000000000000355, -22.47639560495476374 ) ) ;
#549 = EDGE_CURVE ( 'NONE', #273, #467, #741, .T. ) ;
#550 = PLANE ( 'NONE',  #851 ) ;
#551 = CARTESIAN_POINT ( 'NONE',  ( -56.44445219596868668, 7.799925021186840723, -20.34839591745162934 ) ) ;
#552 = CARTESIAN_POINT ( 'NONE',  ( -64.95072387683221393, 5.000000000000000000, -20.66043242227754106 ) ) ;
#553 = EDGE_LOOP ( 'NONE', ( #608, #530, #743, #321 ) ) ;
#554 = DIRECTION ( 'NONE',  ( 0.000000000000000000, 1.000000000000000000, 0.000000000000000000 ) ) ;
#555 = CIRCLE ( 'NONE', #846, 156.3059450704642472 ) ;
#556 = AXIS2_PLACEMENT_3D ( 'NONE', #143, #630, #418 ) ;
#557 = DIRECTION ( 'NONE',  ( 0.000000000000000000, -1.000000000000000000, 0.000000000000000000 ) ) ;
#558 = CARTESIAN_POINT ( 'NONE',  ( 0.000000000000000000, -23.55985867440377390, 0.000000000000000000 ) ) ;
#559 = CIRCLE ( 'NONE', #707, 64.00000000000000000 ) ;
#560 = VERTEX_POINT ( 'NONE', #752 ) ;
#561 =( GEOMETRIC_REPRESENTATION_CONTEXT ( 3 ) GLOBAL_UNCERTAINTY_ASSIGNED_CONTEXT ( ( #463 ) ) GLOBAL_UNIT_ASSIGNED_CONTEXT ( ( #121, #486, #545 ) ) REPRESENTATION_CONTEXT ( 'NONE', 'WORKASPACE' ) );
#562 = CARTESIAN_POINT ( 'NONE',  ( -63.99306747552036256, 5.000000000000000000, 23.29157176047808520 ) ) ;
#563 = SHAPE_DEFINITION_REPRESENTATION ( #355, #325 ) ;
#564 = FACE_OUTER_BOUND ( 'NONE', #367, .T. ) ;
#565 = EDGE_CURVE ( 'NONE', #419, #527, #689, .T. ) ;
#566 = FACE_OUTER_BOUND ( 'NONE', #516, .T. ) ;
#567 = CARTESIAN_POINT ( 'NONE',  ( -55.50411288752510330, 6.402362564464813666, 22.78823835310948809 ) ) ;
#568 = VERTEX_POINT ( 'NONE', #60 ) ;
#569 = AXIS2_PLACEMENT_3D ( 'NONE', #688, #335, #107 ) ;
#570 = DIRECTION ( 'NONE',  ( -0.000000000000000000, -1.000000000000000000, -0.000000000000000000 ) ) ;
#571 = AXIS2_PLACEMENT_3D ( 'NONE', #728, #685, #656 ) ;
#572 = CARTESIAN_POINT ( 'NONE',  ( -55.47133074510082196, 6.241528092380100645, 22.86780279385805414 ) ) ;
#573 = EDGE_LOOP ( 'NONE', ( #120, #311, #377, #587 ) ) ;
#574 = CARTESIAN_POINT ( 'NONE',  ( 0.000000000000000000, -12.73028723888605462, 0.000000000000000000 ) ) ;
#575 = EDGE_CURVE ( 'NONE', #334, #449, #206, .T. ) ;
#576 = CARTESIAN_POINT ( 'NONE',  ( 0.000000000000000000, -23.55985867440377390, 0.000000000000000000 ) ) ;
#577 = CARTESIAN_POINT ( 'NONE',  ( -57.10419210749245877, 6.708139842476398940, 18.41525309635331098 ) ) ;
#578 = ORIENTED_EDGE ( 'NONE', *, *, #16, .F. ) ;
#579 = EDGE_CURVE ( 'NONE', #708, #714, #271, .T. ) ;
#580 = CARTESIAN_POINT ( 'NONE',  ( -55.94537175475163338, 2.483284667859270378, 21.68279869385684933 ) ) ;
#581 = DIRECTION ( 'NONE',  ( 0.000000000000000000, -1.000000000000000000, -0.000000000000000000 ) ) ;
#582 = EDGE_LOOP ( 'NONE', ( #144, #684, #828, #187 ) ) ;
#583 = ORIENTED_EDGE ( 'NONE', *, *, #727, .F. ) ;
#584 = CARTESIAN_POINT ( 'NONE',  ( -63.99306747552034835, 5.000000000000000000, -23.29157176047808520 ) ) ;
#585 = VECTOR ( 'NONE', #615, 1000.000000000000341 ) ;
#586 = CARTESIAN_POINT ( 'NONE',  ( -55.36247413295741637, 5.000000000000000000, -23.12999044266167203 ) ) ;
#587 = ORIENTED_EDGE ( 'NONE', *, *, #709, .F. ) ;
#588 = CARTESIAN_POINT ( 'NONE',  ( -57.10421699202760237, 3.291785498772414886, 18.41518045750870414 ) ) ;
#589 = LINE ( 'NONE', #780, #391 ) ;
#590 = DIRECTION ( 'NONE',  ( 0.000000000000000000, 0.000000000000000000, 1.000000000000000000 ) ) ;
#591 = ORIENTED_EDGE ( 'NONE', *, *, #116, .F. ) ;
#592 =( NAMED_UNIT ( * ) PLANE_ANGLE_UNIT ( ) SI_UNIT ( $, .RADIAN. ) );
#593 = CARTESIAN_POINT ( 'NONE',  ( -56.50734548213907260, 2.199714158971874944, -20.17564726562723365 ) ) ;
#594 = DIRECTION ( 'NONE',  ( -0.000000000000000000, -1.000000000000000000, -0.000000000000000000 ) ) ;
#595 = EDGE_LOOP ( 'NONE', ( #776, #801, #611, #493, #219, #400 ) ) ;
#596 = EDGE_CURVE ( 'NONE', #860, #742, #600, .T. ) ;
#597 = CARTESIAN_POINT ( 'NONE',  ( -55.62503674041862212, 6.849525735610048294, -22.49160727490975020 ) ) ;
#598 = PRESENTATION_LAYER_ASSIGNMENT (  '', '', ( #84 ) ) ;
#599 = LINE ( 'NONE', #305, #701 ) ;
#600 = CIRCLE ( 'NONE', #820, 83.80132210753198763 ) ;
#601 = CARTESIAN_POINT ( 'NONE',  ( -141.6612951774845612, -23.55985867440377390, -66.05774680541696853 ) ) ;
#602 = CARTESIAN_POINT ( 'NONE',  ( -56.98778338016025202, 2.890751404075639464, -18.77256661462932641 ) ) ;
#603 = CARTESIAN_POINT ( 'NONE',  ( -75.94979079002277444, 10.24960226485169201, 35.41596908065769611 ) ) ;
#604 = EDGE_LOOP ( 'NONE', ( #872, #789, #51, #648 ) ) ;
#605 = CARTESIAN_POINT ( 'NONE',  ( -1.039742162966853381E-14, 0.000000000000000000, 2.573452158501873745E-14 ) ) ;
#606 = EDGE_CURVE ( 'NONE', #666, #14, #555, .T. ) ;
#607 = DIRECTION ( 'NONE',  ( -0.9063077870366494926, 0.000000000000000000, 0.4226182617407002184 ) ) ;
#608 = ORIENTED_EDGE ( 'NONE', *, *, #565, .F. ) ;
#609 = B_SPLINE_CURVE_WITH_KNOTS ( 'NONE', 3,
 ( #792, #712, #799, #181, #93, #857, #174, #514, #366, #602, #108, #96, #29, #304, #593, #103, #165, #242, #161, #645, #25, #299, #657, #459, #447, #294, #653, #787, #307, #464, #854, #387 ),
 .UNSPECIFIED., .F., .F.,
 ( 4, 2, 2, 2, 2, 2, 2, 2, 2, 2, 2, 2, 2, 2, 2, 4 ),
 ( 0.01313419033491936179, 0.01368125159838257977, 0.01422831286184579776, 0.01477537412530901574, 0.01532243538877223372, 0.01586949665223544997, 0.01641655791569866796, 0.01751068044262510046, 0.01805774170608832538, 0.01860480296955155030, 0.01915186423301477522, 0.01969892549647800015, 0.02024598675994122507, 0.02079304802340444999, 0.02134010928686767145, 0.02188717055033089984 ),
 .UNSPECIFIED. ) ;
#610 = AXIS2_PLACEMENT_3D ( 'NONE', #375, #512, #239 ) ;
#611 = ORIENTED_EDGE ( 'NONE', *, *, #549, .F. ) ;
#612 = AXIS2_PLACEMENT_3D ( 'NONE', #86, #771, #640 ) ;
#613 = CARTESIAN_POINT ( 'NONE',  ( -55.36247413295741637, 5.000000000000000000, -23.12999044266167203 ) ) ;
#614 = CIRCLE ( 'NONE', #274, 64.00000000000000000 ) ;
#615 = DIRECTION ( 'NONE',  ( 0.8403139474085384863, 0.4226182617406933906, -0.3395088726881149710 ) ) ;
#616 = VERTEX_POINT ( 'NONE', #114 ) ;
#617 = FACE_OUTER_BOUND ( 'NONE', #553, .T. ) ;
#618 = ORIENTED_EDGE ( 'NONE', *, *, #649, .F. ) ;
#619 = CARTESIAN_POINT ( 'NONE',  ( -58.00369837034558174, 30.00000000000000711, -27.04756875140481753 ) ) ;
#620 = EDGE_CURVE ( 'NONE', #303, #455, #133, .T. ) ;
#621 = LINE ( 'NONE', #265, #160 ) ;
#622 = CARTESIAN_POINT ( 'NONE',  ( -55.63103127400722769, 25.00000000000000355, -22.47639560495476374 ) ) ;
#623 = CIRCLE ( 'NONE', #610, 72.00000000000001421 ) ;
#624 = ORIENTED_EDGE ( 'NONE', *, *, #394, .F. ) ;
#625 = CARTESIAN_POINT ( 'NONE',  ( -54.37846722219897089, 25.00000000000000000, -25.35709570444201333 ) ) ;
#626 = CARTESIAN_POINT ( 'NONE',  ( -55.62558751238842092, 6.850983841494285187, 22.49023571805559385 ) ) ;
#627 = VERTEX_POINT ( 'NONE', #403 ) ;
#628 = DIRECTION ( 'NONE',  ( 0.000000000000000000, 0.000000000000000000, -1.000000000000000000 ) ) ;
#629 = CARTESIAN_POINT ( 'NONE',  ( -65.57401548701929528, 4.999999999999997335, 23.86698977858604209 ) ) ;
#630 = DIRECTION ( 'NONE',  ( 0.000000000000000000, 1.000000000000000000, 0.000000000000000000 ) ) ;
#631 = VERTEX_POINT ( 'NONE', #412 ) ;
#632 = VERTEX_POINT ( 'NONE', #824 ) ;
#633 = AXIS2_PLACEMENT_3D ( 'NONE', #217, #352, #211 ) ;
#634 = AXIS2_PLACEMENT_3D ( 'NONE', #850, #803, #732 ) ;
#635 = DIRECTION ( 'NONE',  ( 0.9396926207859083169, -0.000000000000000000, 0.3420201433256689905 ) ) ;
#636 = CARTESIAN_POINT ( 'NONE',  ( -56.06635613773913462, 7.656477940727906883, 21.36801601565421294 ) ) ;
#637 = CARTESIAN_POINT ( 'NONE',  ( -65.25416066663878212, 0.000000000000000000, 30.42851484533042239 ) ) ;
#638 = EDGE_CURVE ( 'NONE', #455, #31, #672, .T. ) ;
#639 = ORIENTED_EDGE ( 'NONE', *, *, #402, .T. ) ;
#640 = DIRECTION ( 'NONE',  ( 0.000000000000000000, 0.000000000000000000, 1.000000000000000000 ) ) ;
#641 = CARTESIAN_POINT ( 'NONE',  ( -56.38155724715449679, 5.000000000000000000, 20.52120859954015941 ) ) ;
#642 = DIRECTION ( 'NONE',  ( -0.000000000000000000, -1.000000000000000000, -0.000000000000000000 ) ) ;
#643 = PRESENTATION_STYLE_ASSIGNMENT (( #368 ) ) ;
#644 = EDGE_CURVE ( 'NONE', #467, #819, #875, .T. ) ;
#645 = CARTESIAN_POINT ( 'NONE',  ( -55.94438528426776003, 2.484552205477442932, -21.68535167274219688 ) ) ;
#646 = EDGE_CURVE ( 'NONE', #56, #267, #73, .T. ) ;
#647 = CARTESIAN_POINT ( 'NONE',  ( -142.0581899624702089, -12.73028723888605462, -66.24282188313755171 ) ) ;
#648 = ORIENTED_EDGE ( 'NONE', *, *, #839, .F. ) ;
#649 = EDGE_CURVE ( 'NONE', #31, #419, #901, .T. ) ;
#650 = CARTESIAN_POINT ( 'NONE',  ( -56.12933561785357028, 7.710394070322203142, -21.20211981348503727 ) ) ;
#651 = DIRECTION ( 'NONE',  ( -0.8516507396391447271, 0.3420201433256728762, 0.3971312619671029664 ) ) ;
#652 = VERTEX_POINT ( 'NONE', #629 ) ;
#653 = CARTESIAN_POINT ( 'NONE',  ( -55.47090306062819565, 3.760898628026243973, -22.86883868812946474 ) ) ;
#654 = CARTESIAN_POINT ( 'NONE',  ( -1.299677703708567278E-14, 0.000000000000000000, -3.216815198127342812E-14 ) ) ;
#655 = VERTEX_POINT ( 'NONE', #695 ) ;
#656 = DIRECTION ( 'NONE',  ( 0.000000000000000000, -0.000000000000000000, 1.000000000000000000 ) ) ;
#657 = CARTESIAN_POINT ( 'NONE',  ( -55.72127282641561408, 2.892357741840263508, -22.25211044643214819 ) ) ;
#658 = CARTESIAN_POINT ( 'NONE',  ( -58.00369837034558174, 30.00000000000000711, -27.04756875140481753 ) ) ;
#659 = DIRECTION ( 'NONE',  ( 0.000000000000000000, 0.000000000000000000, -1.000000000000000000 ) ) ;
#660 = EDGE_LOOP ( 'NONE', ( #252, #62, #639, #542, #723, #197, #840, #856 ) ) ;
#661 = ADVANCED_FACE ( 'NONE', ( #502 ), #834, .T. ) ;
#662 = ADVANCED_FACE ( 'NONE', ( #155 ), #246, .T. ) ;
#663 = CARTESIAN_POINT ( 'NONE',  ( -63.99306747552036256, 5.000000000000000000, 23.29157176047808520 ) ) ;
#664 = CARTESIAN_POINT ( 'NONE',  ( -57.16661450769940700, 6.402362564464810113, -18.22055269187387339 ) ) ;
#665 = DIRECTION ( 'NONE',  ( 0.000000000000000000, 1.000000000000000000, 0.000000000000000000 ) ) ;
#666 = VERTEX_POINT ( 'NONE', #218 ) ;
#667 = CARTESIAN_POINT ( 'NONE',  ( -56.68475260337304178, 2.343793104460082599, 19.66894873396867993 ) ) ;
#668 = LINE ( 'NONE', #476, #101 ) ;
#669 = ORIENTED_EDGE ( 'NONE', *, *, #779, .F. ) ;
#670 = CARTESIAN_POINT ( 'NONE',  ( -55.63103127400722059, 25.00000000000000000, 22.47639560495476374 ) ) ;
#671 = CARTESIAN_POINT ( 'NONE',  ( -57.27778693558116174, 5.184757752589082891, -17.86771176626061575 ) ) ;
#672 = LINE ( 'NONE', #397, #38 ) ;
#673 = ORIENTED_EDGE ( 'NONE', *, *, #338, .F. ) ;
#674 = PLANE ( 'NONE',  #790 ) ;
#675 = VECTOR ( 'NONE', #180, 1000.000000000000114 ) ;
#676 = LINE ( 'NONE', #184, #87 ) ;
#677 = CARTESIAN_POINT ( 'NONE',  ( -55.36247413295742348, 5.000000000000000000, 23.12999044266166493 ) ) ;
#678 = ADVANCED_FACE ( 'NONE', ( #564 ), #489, .T. ) ;
#679 = ORIENTED_EDGE ( 'NONE', *, *, #356, .T. ) ;
#680 = CARTESIAN_POINT ( 'NONE',  ( -143.3711614331282647, -17.26182617406931996, 57.92570924742992844 ) ) ;
#681 = EDGE_CURVE ( 'NONE', #357, #544, #847, .T. ) ;
#682 = DIRECTION ( 'NONE',  ( 0.3420201433256693790, 0.000000000000000000, -0.9396926207859082059 ) ) ;
#683 = DIRECTION ( 'NONE',  ( 0.9271838545667868692, 0.000000000000000000, -0.3746065934159132360 ) ) ;
#684 = ORIENTED_EDGE ( 'NONE', *, *, #691, .T. ) ;
#685 = DIRECTION ( 'NONE',  ( 0.000000000000000000, 1.000000000000000000, 0.000000000000000000 ) ) ;
#686 = CARTESIAN_POINT ( 'NONE',  ( -56.44367541966848023, 7.800074510463611333, 20.35055048974031777 ) ) ;
#687 = ORIENTED_EDGE ( 'NONE', *, *, #264, .F. ) ;
#688 = CARTESIAN_POINT ( 'NONE',  ( -56.38155724715448258, 5.000000000000000000, -20.52120859954016296 ) ) ;
#689 = CIRCLE ( 'NONE', #423, 75.34408852045882554 ) ;
#690 = ADVANCED_FACE ( 'NONE', ( #287 ), #68, .T. ) ;
#691 = EDGE_CURVE ( 'NONE', #627, #631, #359, .T. ) ;
#692 = CARTESIAN_POINT ( 'NONE',  ( -56.62602556121449027, 7.710394070322203142, 19.83747540963071287 ) ) ;
#693 = VECTOR ( 'NONE', #332, 1000.000000000000000 ) ;
#694 = EDGE_LOOP ( 'NONE', ( #738, #27 ) ) ;
#695 = CARTESIAN_POINT ( 'NONE',  ( -140.1430788546727513, -12.26182617406931818, 65.34979090735390628 ) ) ;
#696 = VERTEX_POINT ( 'NONE', #725 ) ;
#697 = DIRECTION ( 'NONE',  ( 0.000000000000000000, 0.000000000000000000, -1.000000000000000000 ) ) ;
#698 = CARTESIAN_POINT ( 'NONE',  ( -56.94279051133730007, 7.226863050479209960, 18.90877125761571165 ) ) ;
#699 = CYLINDRICAL_SURFACE ( 'NONE', #309, 2.799999999999992273 ) ;
#700 = ORIENTED_EDGE ( 'NONE', *, *, #883, .T. ) ;
#701 = VECTOR ( 'NONE', #524, 1000.000000000000114 ) ;
#702 = AXIS2_PLACEMENT_3D ( 'NONE', #704, #822, #422 ) ;
#703 = FILL_AREA_STYLE ('',( #28 ) ) ;
#704 = CARTESIAN_POINT ( 'NONE',  ( 0.000000000000000000, 0.000000000000000000, 0.000000000000000000 ) ) ;
#705 = CARTESIAN_POINT ( 'NONE',  ( -55.36247413295743769, 5.184757752589084667, 23.12999044266167203 ) ) ;
#706 = VERTEX_POINT ( 'NONE', #238 ) ;
#707 = AXIS2_PLACEMENT_3D ( 'NONE', #885, #132, #468 ) ;
#708 = VERTEX_POINT ( 'NONE', #98 ) ;
#709 = EDGE_CURVE ( 'NONE', #655, #560, #729, .T. ) ;
#710 = DIRECTION ( 'NONE',  ( -0.3420201433256693790, 0.000000000000000000, -0.9396926207859082059 ) ) ;
#711 = CARTESIAN_POINT ( 'NONE',  ( -55.72194800593868536, 2.890751404075635911, 22.25042072204993104 ) ) ;
#712 = CARTESIAN_POINT ( 'NONE',  ( -57.27778693558113332, 4.815296704762578095, -17.86771176626060154 ) ) ;
#713 = CARTESIAN_POINT ( 'NONE',  ( -55.94560435481060523, 7.517122670580443256, -21.68220832342398197 ) ) ;
#714 = VERTEX_POINT ( 'NONE', #374 ) ;
#715 = FACE_OUTER_BOUND ( 'NONE', #876, .T. ) ;
#716 = DIRECTION ( 'NONE',  ( 0.3420201433256693790, 0.000000000000000000, -0.9396926207859082059 ) ) ;
#717 = EDGE_LOOP ( 'NONE', ( #796, #179, #431, #166, #673, #322, #478, #618, #106 ) ) ;
#718 = LINE ( 'NONE', #619, #537 ) ;
#719 = AXIS2_PLACEMENT_3D ( 'NONE', #794, #296, #176 ) ;
#720 = ADVANCED_FACE ( 'NONE', ( #715 ), #899, .T. ) ;
#721 = CARTESIAN_POINT ( 'NONE',  ( -64.95072387683222814, 5.000000000000000000, 20.66043242227754106 ) ) ;
#722 = CARTESIAN_POINT ( 'NONE',  ( -68.28493413327046824, 7.171420974920636127, 31.84178772295376092 ) ) ;
#723 = ORIENTED_EDGE ( 'NONE', *, *, #175, .T. ) ;
#724 = AXIS2_PLACEMENT_3D ( 'NONE', #380, #369, #167 ) ;
#725 = CARTESIAN_POINT ( 'NONE',  ( -143.3711614331282362, -12.26182617406931818, 57.92570924742991423 ) ) ;
#726 = ORIENTED_EDGE ( 'NONE', *, *, #74, .F. ) ;
#727 = EDGE_CURVE ( 'NONE', #536, #852, #609, .T. ) ;
#728 = CARTESIAN_POINT ( 'NONE',  ( -54.37846722219897089, 25.00000000000000000, 25.35709570444201333 ) ) ;
#729 = LINE ( 'NONE', #452, #145 ) ;
#730 = EDGE_CURVE ( 'NONE', #754, #152, #58, .T. ) ;
#731 = DIRECTION ( 'NONE',  ( 0.000000000000000000, 0.000000000000000000, -1.000000000000000000 ) ) ;
#732 = DIRECTION ( 'NONE',  ( -0.3420201433256693790, 0.000000000000000000, -0.9396926207859082059 ) ) ;
#733 = ORIENTED_EDGE ( 'NONE', *, *, #549, .T. ) ;
#734 = CARTESIAN_POINT ( 'NONE',  ( -56.50694335979728322, 2.218431347557386246, 20.17417551607278980 ) ) ;
#735 = FACE_OUTER_BOUND ( 'NONE', #759, .T. ) ;
#736 = AXIS2_PLACEMENT_3D ( 'NONE', #654, #302, #308 ) ;
#737 = CARTESIAN_POINT ( 'NONE',  ( -57.23498038438159341, 5.902730808570211707, -18.00449831710409754 ) ) ;
#738 = ORIENTED_EDGE ( 'NONE', *, *, #681, .F. ) ;
#739 = DIRECTION ( 'NONE',  ( -0.3918448289310595412, 0.9063077870366486044, -0.1583155873460396490 ) ) ;
#740 = CARTESIAN_POINT ( 'NONE',  ( -75.94979079002277444, 10.24960226485169201, -35.41596908065768190 ) ) ;
#741 = LINE ( 'NONE', #258, #585 ) ;
#742 = VERTEX_POINT ( 'NONE', #315 ) ;
#743 = ORIENTED_EDGE ( 'NONE', *, *, #596, .T. ) ;
#744 = EDGE_CURVE ( 'NONE', #560, #273, #849, .T. ) ;
#745 = ADVANCED_FACE ( 'NONE', ( #444 ), #360, .F. ) ;
#746 = DIRECTION ( 'NONE',  ( -0.9063077870366494926, 0.000000000000000000, -0.4226182617407002184 ) ) ;
#747 = CARTESIAN_POINT ( 'NONE',  ( -57.06811706758934832, 6.850983841494285187, -18.52691833824520273 ) ) ;
#748 = CARTESIAN_POINT ( 'NONE',  ( 0.000000000000000000, 7.171420974920636127, 0.000000000000000000 ) ) ;
#749 = ORIENTED_EDGE ( 'NONE', *, *, #116, .T. ) ;
#750 = CARTESIAN_POINT ( 'NONE',  ( -57.27778693558116174, 5.000000000000000000, 17.86771176626059443 ) ) ;
#751 = LINE ( 'NONE', #474, #443 ) ;
#752 = CARTESIAN_POINT ( 'NONE',  ( -140.1430788546727513, -17.26182617406931996, 65.34979090735392049 ) ) ;
#753 = AXIS2_PLACEMENT_3D ( 'NONE', #205, #346, #628 ) ;
#754 = VERTEX_POINT ( 'NONE', #814 ) ;
#755 = DIRECTION ( 'NONE',  ( -0.000000000000000000, -1.000000000000000000, -0.000000000000000000 ) ) ;
#756 = CARTESIAN_POINT ( 'NONE',  ( -55.63103127400722769, 30.00000000000000711, 22.47639560495476374 ) ) ;
#757 = CARTESIAN_POINT ( 'NONE',  ( -56.62618707727640555, 7.710339593771972311, -19.83702414959008919 ) ) ;
#758 = DIRECTION ( 'NONE',  ( -0.000000000000000000, -1.000000000000000000, -0.000000000000000000 ) ) ;
#759 = EDGE_LOOP ( 'NONE', ( #278, #811, #479, #192, #34, #669 ) ) ;
#760 = CARTESIAN_POINT ( 'NONE',  ( 0.000000000000000000, -12.26182617406931818, 0.000000000000000000 ) ) ;
#761 = CARTESIAN_POINT ( 'NONE',  ( -56.50635394526995725, 7.781836768809193394, 20.17583121705011706 ) ) ;
#762 = CARTESIAN_POINT ( 'NONE',  ( -56.12916928197244459, 7.710339593771969646, 21.20256931925493404 ) ) ;
#763 = AXIS2_PLACEMENT_3D ( 'NONE', #277, #424, #842 ) ;
#764 = CARTESIAN_POINT ( 'NONE',  ( -63.03541107420847567, 5.000000000000000000, -25.92271109867862577 ) ) ;
#765 = CARTESIAN_POINT ( 'NONE',  ( -55.77413141327843960, 7.225140749208204483, 22.11944320474425041 ) ) ;
#766 = ORIENTED_EDGE ( 'NONE', *, *, #596, .F. ) ;
#767 = CARTESIAN_POINT ( 'NONE',  ( -57.27778693558116174, 5.000000000000000000, 17.86771176626059443 ) ) ;
#768 = CARTESIAN_POINT ( 'NONE',  ( -63.99306747552036256, 5.000000000000000000, 23.29157176047808520 ) ) ;
#769 = PLANE ( 'NONE',  #702 ) ;
#770 = ADVANCED_FACE ( 'NONE', ( #198 ), #491, .F. ) ;
#771 = DIRECTION ( 'NONE',  ( 0.000000000000000000, 1.000000000000000000, 0.000000000000000000 ) ) ;
#772 = EDGE_LOOP ( 'NONE', ( #110, #76, #241 ) ) ;
#773 = EDGE_CURVE ( 'NONE', #819, #888, #117, .T. ) ;
#774 = VECTOR ( 'NONE', #836, 1000.000000000000000 ) ;
#775 = VECTOR ( 'NONE', #417, 1000.000000000000227 ) ;
#776 = ORIENTED_EDGE ( 'NONE', *, *, #773, .F. ) ;
#777 = SURFACE_STYLE_FILL_AREA ( #703 ) ;
#778 = DIRECTION ( 'NONE',  ( 0.000000000000000000, 0.000000000000000000, -1.000000000000000000 ) ) ;
#779 = EDGE_CURVE ( 'NONE', #714, #754, #395, .T. ) ;
#780 = CARTESIAN_POINT ( 'NONE',  ( -143.3711614331282362, -17.26182617406931996, 57.92570924742991423 ) ) ;
#781 = DIRECTION ( 'NONE',  ( 0.4226182617407002740, 0.000000000000000000, 0.9063077870366496036 ) ) ;
#782 = FACE_OUTER_BOUND ( 'NONE', #891, .T. ) ;
#783 = DIRECTION ( 'NONE',  ( -0.000000000000000000, -1.000000000000000000, -0.000000000000000000 ) ) ;
#784 = DIRECTION ( 'NONE',  ( 0.9396926207859083169, -0.000000000000000000, 0.3420201433256689905 ) ) ;
#785 = DIRECTION ( 'NONE',  ( -0.000000000000000000, -1.000000000000000000, -0.000000000000000000 ) ) ;
#786 = CARTESIAN_POINT ( 'NONE',  ( -55.88610301219458165, 2.570480735291689189, 21.83499158279319730 ) ) ;
#787 = CARTESIAN_POINT ( 'NONE',  ( -55.41755984501070742, 4.097840075504880275, -22.99780272395508618 ) ) ;
#788 = DIRECTION ( 'NONE',  ( -0.8403139474085385974, -0.4226182617406932795, 0.3395088726881150265 ) ) ;
#789 = ORIENTED_EDGE ( 'NONE', *, *, #638, .T. ) ;
#790 = AXIS2_PLACEMENT_3D ( 'NONE', #327, #781, #89 ) ;
#791 = AXIS2_PLACEMENT_3D ( 'NONE', #301, #594, #731 ) ;
#792 = CARTESIAN_POINT ( 'NONE',  ( -57.27778693558116174, 5.000000000000000000, -17.86771176626060509 ) ) ;
#793 = AXIS2_PLACEMENT_3D ( 'NONE', #492, #755, #263 ) ;
#794 = CARTESIAN_POINT ( 'NONE',  ( 0.000000000000000000, 10.24960226485169201, 0.000000000000000000 ) ) ;
#795 = FACE_BOUND ( 'NONE', #694, .T. ) ;
#796 = ORIENTED_EDGE ( 'NONE', *, *, #620, .F. ) ;
#797 = VECTOR ( 'NONE', #125, 1000.000000000000000 ) ;
#798 = CARTESIAN_POINT ( 'NONE',  ( -142.0581899624702089, -12.73028723888605462, -66.24282188313755171 ) ) ;
#799 = CARTESIAN_POINT ( 'NONE',  ( -57.27236786232652577, 4.632763149108976464, -17.88510965671660102 ) ) ;
#800 = CYLINDRICAL_SURFACE ( 'NONE', #69, 60.00000000000000000 ) ;
#801 = ORIENTED_EDGE ( 'NONE', *, *, #644, .F. ) ;
#802 = CARTESIAN_POINT ( 'NONE',  ( -64.95072387683222814, 5.000000000000000000, 20.66043242227754817 ) ) ;
#803 = DIRECTION ( 'NONE',  ( 0.9396926207859082059, -0.000000000000000000, -0.3420201433256694346 ) ) ;
#804 = EDGE_LOOP ( 'NONE', ( #6, #213, #413, #72 ) ) ;
#805 = CARTESIAN_POINT ( 'NONE',  ( -75.94979079002277444, 10.24960226485169201, 35.41596908065769611 ) ) ;
#806 = CARTESIAN_POINT ( 'NONE',  ( -58.00369837034558174, 30.00000000000000355, 27.04756875140481753 ) ) ;
#807 = VERTEX_POINT ( 'NONE', #802 ) ;
#808 = DIRECTION ( 'NONE',  ( -0.8403139474085385974, -0.4226182617406932795, -0.3395088726881148600 ) ) ;
#809 = CARTESIAN_POINT ( 'NONE',  ( -56.68441650369069862, 7.656477940727906883, -19.66990911634241357 ) ) ;
#810 = DIRECTION ( 'NONE',  ( 0.000000000000000000, 0.000000000000000000, 1.000000000000000000 ) ) ;
#811 = ORIENTED_EDGE ( 'NONE', *, *, #328, .F. ) ;
#812 = CARTESIAN_POINT ( 'NONE',  ( -141.6612951774845612, -23.55985867440377390, 66.05774680541696853 ) ) ;
#813 = EDGE_CURVE ( 'NONE', #807, #357, #253, .T. ) ;
#814 = CARTESIAN_POINT ( 'NONE',  ( -143.3711614331282362, -17.26182617406931286, -57.92570924742990002 ) ) ;
#815 = CARTESIAN_POINT ( 'NONE',  ( -56.31944560955367507, 7.800074510463610444, -20.69186908785389178 ) ) ;
#816 = EDGE_LOOP ( 'NONE', ( #591, #583 ) ) ;
#817 = ORIENTED_EDGE ( 'NONE', *, *, #36, .T. ) ;
#818 = DIRECTION ( 'NONE',  ( 0.7771459614569709018, 1.049727191138619065E-16, 0.6293203910498373910 ) ) ;
#819 = VERTEX_POINT ( 'NONE', #670 ) ;
#820 = AXIS2_PLACEMENT_3D ( 'NONE', #50, #488, #46 ) ;
#821 = AXIS2_PLACEMENT_3D ( 'NONE', #319, #534, #682 ) ;
#822 = DIRECTION ( 'NONE',  ( -0.4226182617407002740, 0.000000000000000000, 0.9063077870366496036 ) ) ;
#823 = ADVANCED_FACE ( 'NONE', ( #44 ), #286, .F. ) ;
#824 = CARTESIAN_POINT ( 'NONE',  ( -54.37846722219897089, 0.000000000000000000, -25.35709570444201333 ) ) ;
#825 = ORIENTED_EDGE ( 'NONE', *, *, #337, .T. ) ;
#826 = EDGE_CURVE ( 'NONE', #410, #449, #43, .T. ) ;
#827 = CARTESIAN_POINT ( 'NONE',  ( -57.06857677153426067, 6.849525735610047406, 18.52551363534069040 ) ) ;
#828 = ORIENTED_EDGE ( 'NONE', *, *, #501, .F. ) ;
#829 = CARTESIAN_POINT ( 'NONE',  ( -55.36247413295742348, 5.000000000000000000, 23.12999044266166493 ) ) ;
#830 = CARTESIAN_POINT ( 'NONE',  ( -55.72191799973325743, 7.109167040232097889, 22.25049534691506281 ) ) ;
#831 = ORIENTED_EDGE ( 'NONE', *, *, #813, .F. ) ;
#832 = VECTOR ( 'NONE', #557, 1000.000000000000000 ) ;
#833 = EDGE_CURVE ( 'NONE', #652, #706, #668, .T. ) ;
#834 = PLANE ( 'NONE',  #441 ) ;
#835 = AXIS2_PLACEMENT_3D ( 'NONE', #869, #510, #778 ) ;
#836 = DIRECTION ( 'NONE',  ( 0.9396926207859083169, -0.000000000000000000, 0.3420201433256689905 ) ) ;
#837 = ORIENTED_EDGE ( 'NONE', *, *, #394, .T. ) ;
#838 = DIRECTION ( 'NONE',  ( 0.000000000000000000, 1.000000000000000000, 0.000000000000000000 ) ) ;
#839 = EDGE_CURVE ( 'NONE', #632, #318, #676, .T. ) ;
#840 = ORIENTED_EDGE ( 'NONE', *, *, #323, .F. ) ;
#841 = CARTESIAN_POINT ( 'NONE',  ( -56.12668530634435626, 2.273801798583855671, 21.21105175198353265 ) ) ;
#842 = DIRECTION ( 'NONE',  ( 0.000000000000000000, 0.000000000000000000, -1.000000000000000000 ) ) ;
#843 = CARTESIAN_POINT ( 'NONE',  ( -55.88617855631469666, 7.429535294489812536, -21.83479031414297111 ) ) ;
#844 = CONICAL_SURFACE ( 'NONE', #719, 83.80132210753198763, 1.134464013796321114 ) ;
#845 = CARTESIAN_POINT ( 'NONE',  ( -57.16669322867504377, 3.597955722475320250, 18.22030885725434857 ) ) ;
#846 = AXIS2_PLACEMENT_3D ( 'NONE', #558, #758, #896 ) ;
#847 = B_SPLINE_CURVE_WITH_KNOTS ( 'NONE', 3,
 ( #767, #212, #430, #151, #348, #227, #222, #577, #827, #81, #698, #137, #353, #494, #692, #761, #686, #504, #905, #762, #636, #215, #280, #765, #830, #626, #347, #567, #572, #9, #148, #283, #705, #437 ),
 .UNSPECIFIED., .F., .F.,
 ( 4, 2, 2, 2, 2, 2, 2, 2, 2, 2, 2, 2, 2, 2, 2, 2, 4 ),
 ( 0.004378629417733641283, 0.004925851975057748272, 0.005473074532381855262, 0.006020297089705962251, 0.006567519647030069241, 0.007114742204354176230, 0.007661964761678282353, 0.008209187319002390210, 0.008756409876326497199, 0.009303632433650604189, 0.009850854990974711178, 0.01039807754829881817, 0.01094530010562292342, 0.01149252266294703041, 0.01203974522027113740, 0.01258696777759524439, 0.01313419033491935138 ),
 .UNSPECIFIED. ) ;
#848 = DIRECTION ( 'NONE',  ( 0.9396926207859083169, -0.000000000000000000, 0.3420201433256689905 ) ) ;
#849 = CIRCLE ( 'NONE', #835, 154.6307787036652996 ) ;
#850 = CARTESIAN_POINT ( 'NONE',  ( -63.99306747552036256, 5.000000000000000000, 23.29157176047808520 ) ) ;
#851 = AXIS2_PLACEMENT_3D ( 'NONE', #605, #324, #64 ) ;
#852 = VERTEX_POINT ( 'NONE', #613 ) ;
#853 = CARTESIAN_POINT ( 'NONE',  ( -57.19298320103551703, 3.760898628026241752, 18.13746238786913167 ) ) ;
#854 = CARTESIAN_POINT ( 'NONE',  ( -55.36247413295739506, 4.817390598569288862, -23.12999044266166848 ) ) ;
#855 = LINE ( 'NONE', #243, #484 ) ;
#856 = ORIENTED_EDGE ( 'NONE', *, *, #328, .T. ) ;
#857 = CARTESIAN_POINT ( 'NONE',  ( -57.19260064564305424, 3.758127083397722501, -18.13867107279746094 ) ) ;
#858 = CARTESIAN_POINT ( 'NONE',  ( 0.000000000000000000, -17.26182617406931286, 0.000000000000000000 ) ) ;
#859 = DIRECTION ( 'NONE',  ( 0.000000000000000000, 1.000000000000000000, 0.000000000000000000 ) ) ;
#860 = VERTEX_POINT ( 'NONE', #805 ) ;
#861 = EDGE_CURVE ( 'NONE', #467, #714, #559, .T. ) ;
#862 = CIRCLE ( 'NONE', #112, 60.00000000000000711 ) ;
#863 = CIRCLE ( 'NONE', #351, 2.799999999999998490 ) ;
#864 = CARTESIAN_POINT ( 'NONE',  ( 0.000000000000000000, -17.26182617406931286, 0.000000000000000000 ) ) ;
#865 = CARTESIAN_POINT ( 'NONE',  ( -55.77503212569033053, 7.226863050479208184, -22.11716105355956330 ) ) ;
#866 = PRODUCT ( 'ELP-0040', 'ELP-0040', '', ( #210 ) ) ;
#867 = ORIENTED_EDGE ( 'NONE', *, *, #826, .T. ) ;
#868 = AXIS2_PLACEMENT_3D ( 'NONE', #584, #848, #233 ) ;
#869 = CARTESIAN_POINT ( 'NONE',  ( 0.000000000000000000, -17.26182617406931996, 0.000000000000000000 ) ) ;
#870 = ADVANCED_FACE ( 'NONE', ( #735 ), #550, .F. ) ;
#871 = CARTESIAN_POINT ( 'NONE',  ( -143.3711614331282362, -12.26182617406931818, 57.92570924742991423 ) ) ;
#872 = ORIENTED_EDGE ( 'NONE', *, *, #175, .F. ) ;
#873 = DIRECTION ( 'NONE',  ( -0.000000000000000000, -1.000000000000000000, -0.000000000000000000 ) ) ;
#874 = CARTESIAN_POINT ( 'NONE',  ( -56.79401378863252603, 7.516813758125299394, -19.35118592711241803 ) ) ;
#875 = LINE ( 'NONE', #54, #272 ) ;
#876 = EDGE_LOOP ( 'NONE', ( #262, #482, #490, #519 ) ) ;
#877 = PRODUCT_DEFINITION_CONTEXT ( 'detailed design', #178, 'design' ) ;
#878 = VECTOR ( 'NONE', #314, 1000.000000000000000 ) ;
#879 = CIRCLE ( 'NONE', #97, 154.6307787036652712 ) ;
#880 = EDGE_CURVE ( 'NONE', #568, #47, #614, .T. ) ;
#881 = ORIENTED_EDGE ( 'NONE', *, *, #338, .T. ) ;
#882 = CARTESIAN_POINT ( 'NONE',  ( -54.37846722219897799, 30.00000000000000711, 25.35709570444201333 ) ) ;
#883 = EDGE_CURVE ( 'NONE', #568, #440, #621, .T. ) ;
#884 = VECTOR ( 'NONE', #77, 1000.000000000000227 ) ;
#885 = CARTESIAN_POINT ( 'NONE',  ( 0.000000000000000000, 25.00000000000000355, 0.000000000000000000 ) ) ;
#886 = CARTESIAN_POINT ( 'NONE',  ( -56.98780836201199662, 7.109167040232098778, -18.77249016104901003 ) ) ;
#887 = CARTESIAN_POINT ( 'NONE',  ( 0.000000000000000000, 0.000000000000000000, 0.000000000000000000 ) ) ;
#888 = VERTEX_POINT ( 'NONE', #113 ) ;
#889 = FACE_OUTER_BOUND ( 'NONE', #342, .T. ) ;
#890 = ORIENTED_EDGE ( 'NONE', *, *, #127, .T. ) ;
#891 = EDGE_LOOP ( 'NONE', ( #898, #245, #462 ) ) ;
#892 = PLANE ( 'NONE',  #571 ) ;
#893 = CLOSED_SHELL ( 'NONE', ( #251, #30, #823, #297, #300, #662, #140, #105, #528, #678, #661, #487, #358, #173, #91, #371, #157, #870, #511, #720, #690, #415, #163, #745, #365, #770 ) ) ;
#894 = EDGE_CURVE ( 'NONE', #754, #56, #751, .T. ) ;
#895 = LINE ( 'NONE', #764, #775 ) ;
#896 = DIRECTION ( 'NONE',  ( 0.000000000000000000, 0.000000000000000000, -1.000000000000000000 ) ) ;
#897 = VECTOR ( 'NONE', #330, 1000.000000000000114 ) ;
#898 = ORIENTED_EDGE ( 'NONE', *, *, #90, .F. ) ;
#899 = CONICAL_SURFACE ( 'NONE', #724, 64.00000000000000000, 1.134464013796321114 ) ;
#900 = CARTESIAN_POINT ( 'NONE',  ( -56.38155724715448258, 5.000000000000000000, -20.52120859954016296 ) ) ;
#901 = LINE ( 'NONE', #426, #884 ) ;
#902 = ORIENTED_EDGE ( 'NONE', *, *, #839, .T. ) ;
#903 = ORIENTED_EDGE ( 'NONE', *, *, #127, .F. ) ;
#904 = DIRECTION ( 'NONE',  ( -0.8213938048432719574, -0.4226182617406932240, -0.3830222215594909496 ) ) ;
#905 = CARTESIAN_POINT ( 'NONE',  ( -56.25573980781715022, 7.782130003744564206, 20.86442735129110204 ) ) ;
ENDSEC;
END-ISO-10303-21;
