ISO-10303-21;
HEADER;
FILE_DESCRIPTION (( 'STEP AP214' ),
    '1' );
FILE_NAME ('ELP-0038.STEP',
    '2026-04-12T10:03:13',
    ( '' ),
    ( '' ),
    'SwSTEP 2.0',
    'SolidWorks 2024',
    '' );
FILE_SCHEMA (( 'AUTOMOTIVE_DESIGN' ));
ENDSEC;

DATA;
#1 = DIRECTION ( 'NONE',  ( -0.6427876096865352551, 0.000000000000000000, -0.7660444431189816772 ) ) ;
#2 = VERTEX_POINT ( 'NONE', #317 ) ;
#3 = DIRECTION ( 'NONE',  ( -0.7660444431189815662, 0.000000000000000000, 0.6427876096865350330 ) ) ;
#4 = UNCERTAINTY_MEASURE_WITH_UNIT (LENGTH_MEASURE( 1.000000000000000082E-05 ), #39, 'distance_accuracy_value', 'NONE');
#5 = ORIENTED_EDGE ( 'NONE', *, *, #158, .T. ) ;
#6 = ADVANCED_FACE ( 'NONE', ( #237 ), #447, .T. ) ;
#7 = COLOUR_RGB ( '',0.7921568627450980005, 0.8196078431372548767, 0.9333333333333333481 ) ;
#8 = DIRECTION ( 'NONE',  ( -0.6427876096865351441, 0.000000000000000000, -0.7660444431189816772 ) ) ;
#9 = VECTOR ( 'NONE', #167, 1000.000000000000114 ) ;
#10 = ORIENTED_EDGE ( 'NONE', *, *, #509, .F. ) ;
#11 = FACE_BOUND ( 'NONE', #479, .T. ) ;
#12 = VERTEX_POINT ( 'NONE', #149 ) ;
#13 = CARTESIAN_POINT ( 'NONE',  ( 0.000000000000000000, 20.00000000000000000, 0.000000000000000000 ) ) ;
#14 = ORIENTED_EDGE ( 'NONE', *, *, #175, .T. ) ;
#15 = CARTESIAN_POINT ( 'NONE',  ( 0.000000000000000000, 30.00000000000000000, 100.0000000000000000 ) ) ;
#16 = EDGE_LOOP ( 'NONE', ( #251, #263, #327, #217 ) ) ;
#17 = EDGE_CURVE ( 'NONE', #407, #347, #102, .T. ) ;
#18 = EDGE_LOOP ( 'NONE', ( #345, #89, #477, #34, #419, #350, #184, #66 ) ) ;
#19 = DIRECTION ( 'NONE',  ( 0.000000000000000000, 0.000000000000000000, 1.000000000000000000 ) ) ;
#20 = DIRECTION ( 'NONE',  ( -0.000000000000000000, -1.000000000000000000, -0.000000000000000000 ) ) ;
#21 = DIRECTION ( 'NONE',  ( -0.7660444431189815662, -0.000000000000000000, 0.6427876096865351441 ) ) ;
#22 = CARTESIAN_POINT ( 'NONE',  ( 110.0030260114636889, 9.999999999999998224, 19.39650144539576360 ) ) ;
#23 = CIRCLE ( 'NONE', #329, 2.800000000000003819 ) ;
#24 = AXIS2_PLACEMENT_3D ( 'NONE', #325, #459, #208 ) ;
#25 = DIRECTION ( 'NONE',  ( -0.000000000000000000, -1.000000000000000000, -0.000000000000000000 ) ) ;
#26 = VERTEX_POINT ( 'NONE', #355 ) ;
#27 = DIRECTION ( 'NONE',  ( -0.6427876096865352551, -0.000000000000000000, -0.7660444431189815662 ) ) ;
#28 = DIRECTION ( 'NONE',  ( 0.000000000000000000, 0.000000000000000000, 1.000000000000000000 ) ) ;
#29 = EDGE_CURVE ( 'NONE', #26, #353, #286, .T. ) ;
#30 = FACE_OUTER_BOUND ( 'NONE', #333, .T. ) ;
#31 = DIRECTION ( 'NONE',  ( -1.224646799147353947E-16, 0.000000000000000000, -1.000000000000000000 ) ) ;
#32 = ORIENTED_EDGE ( 'NONE', *, *, #64, .T. ) ;
#33 = DIRECTION ( 'NONE',  ( 1.468401437826563117E-16, 0.000000000000000000, 1.000000000000000000 ) ) ;
#34 = ORIENTED_EDGE ( 'NONE', *, *, #528, .T. ) ;
#35 = DIRECTION ( 'NONE',  ( 1.000000000000000000, 0.000000000000000000, 0.000000000000000000 ) ) ;
#36 = CARTESIAN_POINT ( 'NONE',  ( 110.0030260114636889, 30.00000000000000000, 19.39650144539576004 ) ) ;
#37 = AXIS2_PLACEMENT_3D ( 'NONE', #176, #51, #224 ) ;
#38 = VECTOR ( 'NONE', #360, 1000.000000000000000 ) ;
#39 =( LENGTH_UNIT ( ) NAMED_UNIT ( * ) SI_UNIT ( .MILLI., .METRE. ) );
#40 = DIRECTION ( 'NONE',  ( 0.000000000000000000, 0.000000000000000000, 1.000000000000000000 ) ) ;
#41 = ORIENTED_EDGE ( 'NONE', *, *, #284, .T. ) ;
#42 = DIRECTION ( 'NONE',  ( -0.000000000000000000, -1.000000000000000000, -0.000000000000000000 ) ) ;
#43 = ORIENTED_EDGE ( 'NONE', *, *, #383, .T. ) ;
#44 = EDGE_CURVE ( 'NONE', #494, #297, #48, .T. ) ;
#45 = CARTESIAN_POINT ( 'NONE',  ( 90.30687095121953689, 20.00000000000000000, 15.92353789205721704 ) ) ;
#46 = ORIENTED_EDGE ( 'NONE', *, *, #201, .F. ) ;
#47 = EDGE_CURVE ( 'NONE', #467, #2, #534, .T. ) ;
#48 = CIRCLE ( 'NONE', #128, 3.299999999999983391 ) ;
#49 = LINE ( 'NONE', #222, #236 ) ;
#50 = ORIENTED_EDGE ( 'NONE', *, *, #175, .F. ) ;
#51 = DIRECTION ( 'NONE',  ( -0.000000000000000000, -1.000000000000000000, -0.000000000000000000 ) ) ;
#52 = ORIENTED_EDGE ( 'NONE', *, *, #400, .T. ) ;
#53 = DIRECTION ( 'NONE',  ( -0.6427876096865352551, -0.000000000000000000, -0.7660444431189815662 ) ) ;
#54 = EDGE_LOOP ( 'NONE', ( #465, #142, #5, #393 ) ) ;
#55 = DIRECTION ( 'NONE',  ( -0.000000000000000000, 1.000000000000000000, -0.000000000000000000 ) ) ;
#56 = VECTOR ( 'NONE', #489, 1000.000000000000000 ) ;
#57 = VERTEX_POINT ( 'NONE', #443 ) ;
#58 = AXIS2_PLACEMENT_3D ( 'NONE', #488, #148, #188 ) ;
#59 = LINE ( 'NONE', #274, #252 ) ;
#60 = CYLINDRICAL_SURFACE ( 'NONE', #364, 3.299999999999997158 ) ;
#61 = EDGE_CURVE ( 'NONE', #297, #494, #112, .T. ) ;
#62 = CYLINDRICAL_SURFACE ( 'NONE', #386, 2.799999999999998490 ) ;
#63 = CARTESIAN_POINT ( 'NONE',  ( 139.5472586018299523, 9.999999999999998224, 24.60594677540357367 ) ) ;
#64 = EDGE_CURVE ( 'NONE', #127, #210, #145, .T. ) ;
#65 = CARTESIAN_POINT ( 'NONE',  ( 0.000000000000000000, 9.999999999999998224, 0.000000000000000000 ) ) ;
#66 = ORIENTED_EDGE ( 'NONE', *, *, #183, .F. ) ;
#67 = VECTOR ( 'NONE', #519, 1000.000000000000000 ) ;
#68 = DIRECTION ( 'NONE',  ( -0.000000000000000000, -1.000000000000000000, -0.000000000000000000 ) ) ;
#69 = CARTESIAN_POINT ( 'NONE',  ( 80.34845121081687580, 9.999999999999991118, 95.75555538987271120 ) ) ;
#70 = CARTESIAN_POINT ( 'NONE',  ( 98.48077530122087353, 30.00000000000000000, 17.36481776669271326 ) ) ;
#71 = LINE ( 'NONE', #63, #86 ) ;
#72 = EDGE_CURVE ( 'NONE', #160, #127, #71, .T. ) ;
#73 = LINE ( 'NONE', #213, #221 ) ;
#74 = CARTESIAN_POINT ( 'NONE',  ( 0.000000000000000000, 0.000000000000000000, 0.000000000000000000 ) ) ;
#75 = VERTEX_POINT ( 'NONE', #530 ) ;
#76 = AXIS2_PLACEMENT_3D ( 'NONE', #485, #68, #269 ) ;
#77 = CYLINDRICAL_SURFACE ( 'NONE', #395, 141.6999999999999886 ) ;
#78 = PLANE ( 'NONE',  #356 ) ;
#79 = ORIENTED_EDGE ( 'NONE', *, *, #449, .T. ) ;
#80 = PRODUCT_CONTEXT ( 'NONE', #396, 'mechanical' ) ;
#81 = CARTESIAN_POINT ( 'NONE',  ( 0.000000000000000000, 20.00000000000000000, 100.0000000000000000 ) ) ;
#82 = ORIENTED_EDGE ( 'NONE', *, *, #475, .T. ) ;
#83 = PRODUCT_DEFINITION ( 'NON CONOSCIUTO', '', #512, #324 ) ;
#84 = DIRECTION ( 'NONE',  ( -0.000000000000000000, 1.000000000000000000, -0.000000000000000000 ) ) ;
#85 = EDGE_LOOP ( 'NONE', ( #189, #43, #544, #170 ) ) ;
#86 = VECTOR ( 'NONE', #487, 1000.000000000000114 ) ;
#87 = CIRCLE ( 'NONE', #129, 2.800000000000003819 ) ;
#88 = DIRECTION ( 'NONE',  ( -0.000000000000000000, -1.000000000000000000, -0.000000000000000000 ) ) ;
#89 = ORIENTED_EDGE ( 'NONE', *, *, #64, .F. ) ;
#90 = DIRECTION ( 'NONE',  ( 0.000000000000000000, 1.000000000000000000, 0.000000000000000000 ) ) ;
#91 = EDGE_CURVE ( 'NONE', #302, #26, #310, .T. ) ;
#92 = ORIENTED_EDGE ( 'NONE', *, *, #542, .T. ) ;
#93 = DIRECTION ( 'NONE',  ( 0.000000000000000000, -0.000000000000000000, 1.000000000000000000 ) ) ;
#94 = ORIENTED_EDGE ( 'NONE', *, *, #370, .F. ) ;
#95 = PLANE ( 'NONE',  #234 ) ;
#96 = EDGE_LOOP ( 'NONE', ( #524, #164, #546, #390 ) ) ;
#97 = DIRECTION ( 'NONE',  ( -0.000000000000000000, 1.000000000000000000, -0.000000000000000000 ) ) ;
#98 = ORIENTED_EDGE ( 'NONE', *, *, #198, .T. ) ;
#99 = CARTESIAN_POINT ( 'NONE',  ( 0.000000000000000000, 0.000000000000000000, 91.70000000000001705 ) ) ;
#100 = ORIENTED_EDGE ( 'NONE', *, *, #254, .F. ) ;
#101 = FACE_OUTER_BOUND ( 'NONE', #499, .T. ) ;
#102 = CIRCLE ( 'NONE', #403, 3.299999999999997158 ) ;
#103 = CARTESIAN_POINT ( 'NONE',  ( 0.000000000000000000, 0.000000000000000000, 0.000000000000000000 ) ) ;
#104 = CIRCLE ( 'NONE', #331, 91.70000000000000284 ) ;
#105 = CARTESIAN_POINT ( 'NONE',  ( 80.34845121081687580, 9.999999999999992895, 92.45555538987272826 ) ) ;
#106 = EDGE_LOOP ( 'NONE', ( #414, #381, #361, #219 ) ) ;
#107 = ADVANCED_FACE ( 'NONE', ( #440 ), #60, .F. ) ;
#108 = CARTESIAN_POINT ( 'NONE',  ( 80.34845121081687580, -6.938893903907228378E-15, 99.05555538987270836 ) ) ;
#109 = DIRECTION ( 'NONE',  ( -0.000000000000000000, 1.000000000000000000, -0.000000000000000000 ) ) ;
#110 = DIRECTION ( 'NONE',  ( -0.9848077530122085754, -0.000000000000000000, -0.1736481776669272781 ) ) ;
#111 = ORIENTED_EDGE ( 'NONE', *, *, #517, .F. ) ;
#112 = CIRCLE ( 'NONE', #203, 3.299999999999983391 ) ;
#113 = VECTOR ( 'NONE', #21, 1000.000000000000000 ) ;
#114 = LINE ( 'NONE', #401, #113 ) ;
#115 = SURFACE_STYLE_USAGE ( .BOTH. , #323 ) ;
#116 = CARTESIAN_POINT ( 'NONE',  ( 0.000000000000000000, 20.00000000000000000, 91.70000000000001705 ) ) ;
#117 = LINE ( 'NONE', #451, #9 ) ;
#118 = LINE ( 'NONE', #287, #193 ) ;
#119 = EDGE_LOOP ( 'NONE', ( #337, #100, #508, #549 ) ) ;
#120 = AXIS2_PLACEMENT_3D ( 'NONE', #246, #42, #463 ) ;
#121 =( NAMED_UNIT ( * ) SI_UNIT ( $, .STERADIAN. ) SOLID_ANGLE_UNIT ( ) );
#122 = FACE_OUTER_BOUND ( 'NONE', #231, .T. ) ;
#123 =( NAMED_UNIT ( * ) PLANE_ANGLE_UNIT ( ) SI_UNIT ( $, .RADIAN. ) );
#124 = ORIENTED_EDGE ( 'NONE', *, *, #475, .F. ) ;
#125 = DIRECTION ( 'NONE',  ( 0.000000000000000000, 0.000000000000000000, 1.000000000000000000 ) ) ;
#126 = CARTESIAN_POINT ( 'NONE',  ( 90.30687095121953689, 20.00000000000000000, 15.92353789205721704 ) ) ;
#127 = VERTEX_POINT ( 'NONE', #22 ) ;
#128 = AXIS2_PLACEMENT_3D ( 'NONE', #272, #192, #280 ) ;
#129 = AXIS2_PLACEMENT_3D ( 'NONE', #398, #196, #313 ) ;
#130 = LINE ( 'NONE', #264, #136 ) ;
#131 = CARTESIAN_POINT ( 'NONE',  ( 0.000000000000000000, 9.999999999999998224, 111.6999999999999886 ) ) ;
#132 = ORIENTED_EDGE ( 'NONE', *, *, #140, .F. ) ;
#133 = MANIFOLD_SOLID_BREP ( 'Foro per Vite M6-1', #437 ) ;
#134 = DIRECTION ( 'NONE',  ( -0.000000000000000000, -1.000000000000000000, -0.000000000000000000 ) ) ;
#135 = ORIENTED_EDGE ( 'NONE', *, *, #422, .T. ) ;
#136 = VECTOR ( 'NONE', #262, 1000.000000000000000 ) ;
#137 =( GEOMETRIC_REPRESENTATION_CONTEXT ( 3 ) GLOBAL_UNCERTAINTY_ASSIGNED_CONTEXT ( ( #4 ) ) GLOBAL_UNIT_ASSIGNED_CONTEXT ( ( #39, #367, #121 ) ) REPRESENTATION_CONTEXT ( 'NONE', 'WORKASPACE' ) );
#138 = LINE ( 'NONE', #45, #445 ) ;
#139 = VERTEX_POINT ( 'NONE', #502 ) ;
#140 = EDGE_CURVE ( 'NONE', #397, #405, #165, .T. ) ;
#141 = PLANE ( 'NONE',  #473 ) ;
#142 = ORIENTED_EDGE ( 'NONE', *, *, #72, .T. ) ;
#143 = ADVANCED_FACE ( 'NONE', ( #507 ), #169, .F. ) ;
#144 = DIRECTION ( 'NONE',  ( -0.000000000000000000, -1.000000000000000000, -0.000000000000000000 ) ) ;
#145 = LINE ( 'NONE', #270, #261 ) ;
#146 = CARTESIAN_POINT ( 'NONE',  ( 60.39189689406320838, 10.00000000000000000, 71.97226008707973222 ) ) ;
#147 = DIRECTION ( 'NONE',  ( -0.000000000000000000, -1.000000000000000000, -0.000000000000000000 ) ) ;
#148 = DIRECTION ( 'NONE',  ( -0.000000000000000000, -1.000000000000000000, -0.000000000000000000 ) ) ;
#149 = CARTESIAN_POINT ( 'NONE',  ( 62.53682133479635041, 10.00000000000000000, 70.17245477995743386 ) ) ;
#150 = CARTESIAN_POINT ( 'NONE',  ( 6.123233995736766085E-15, 9.999999999999998224, 141.6999999999999886 ) ) ;
#151 = CARTESIAN_POINT ( 'NONE',  ( 80.34845121081687580, -6.938893903907228378E-15, 95.75555538987271120 ) ) ;
#152 = CARTESIAN_POINT ( 'NONE',  ( 60.39189689406320838, 10.00000000000000000, 71.97226008707973222 ) ) ;
#153 = SURFACE_STYLE_FILL_AREA ( #539 ) ;
#154 = AXIS2_PLACEMENT_3D ( 'NONE', #444, #368, #496 ) ;
#155 = VECTOR ( 'NONE', #110, 1000.000000000000114 ) ;
#156 = PRODUCT_RELATED_PRODUCT_CATEGORY ( 'part', '', ( #305 ) ) ;
#157 = LINE ( 'NONE', #283, #438 ) ;
#158 = EDGE_CURVE ( 'NONE', #127, #308, #303, .T. ) ;
#159 = DIRECTION ( 'NONE',  ( 0.000000000000000000, 0.000000000000000000, 1.000000000000000000 ) ) ;
#160 = VERTEX_POINT ( 'NONE', #416 ) ;
#161 = APPLICATION_PROTOCOL_DEFINITION ( 'draft international standard', 'automotive_design', 1998, #181 ) ;
#162 = LINE ( 'NONE', #460, #483 ) ;
#163 = EDGE_CURVE ( 'NONE', #139, #195, #394, .T. ) ;
#164 = ORIENTED_EDGE ( 'NONE', *, *, #422, .F. ) ;
#165 = CIRCLE ( 'NONE', #154, 2.800000000000003819 ) ;
#166 = CIRCLE ( 'NONE', #295, 100.0000000000000000 ) ;
#167 = DIRECTION ( 'NONE',  ( -0.9848077530122085754, -0.000000000000000000, -0.1736481776669272781 ) ) ;
#168 = CARTESIAN_POINT ( 'NONE',  ( 58.24697245333005924, 10.00000000000000000, 73.77206539420203057 ) ) ;
#169 = CYLINDRICAL_SURFACE ( 'NONE', #510, 3.299999999999997158 ) ;
#170 = ORIENTED_EDGE ( 'NONE', *, *, #241, .F. ) ;
#171 = EDGE_CURVE ( 'NONE', #2, #458, #532, .T. ) ;
#172 = CARTESIAN_POINT ( 'NONE',  ( 0.000000000000000000, 9.999999999999998224, 111.6999999999999886 ) ) ;
#173 = ORIENTED_EDGE ( 'NONE', *, *, #370, .T. ) ;
#174 = AXIS2_PLACEMENT_3D ( 'NONE', #216, #214, #243 ) ;
#175 = EDGE_CURVE ( 'NONE', #57, #177, #162, .T. ) ;
#176 = CARTESIAN_POINT ( 'NONE',  ( 0.000000000000000000, 30.00000000000000000, 0.000000000000000000 ) ) ;
#177 = VERTEX_POINT ( 'NONE', #81 ) ;
#178 = DIRECTION ( 'NONE',  ( 0.000000000000000000, 1.000000000000000000, 0.000000000000000000 ) ) ;
#179 = ADVANCED_FACE ( 'NONE', ( #122 ), #78, .F. ) ;
#180 = VERTEX_POINT ( 'NONE', #505 ) ;
#181 = APPLICATION_CONTEXT ( 'automotive_design' ) ;
#182 = DIRECTION ( 'NONE',  ( -0.000000000000000000, -1.000000000000000000, -0.000000000000000000 ) ) ;
#183 = EDGE_CURVE ( 'NONE', #536, #180, #545, .T. ) ;
#184 = ORIENTED_EDGE ( 'NONE', *, *, #525, .F. ) ;
#185 = AXIS2_PLACEMENT_3D ( 'NONE', #248, #413, #326 ) ;
#186 = DIRECTION ( 'NONE',  ( 0.000000000000000000, 0.000000000000000000, 1.000000000000000000 ) ) ;
#187 = EDGE_LOOP ( 'NONE', ( #249, #111, #229, #340, #225, #291 ) ) ;
#188 = DIRECTION ( 'NONE',  ( 0.000000000000000000, 0.000000000000000000, -1.000000000000000000 ) ) ;
#189 = ORIENTED_EDGE ( 'NONE', *, *, #481, .F. ) ;
#190 = EDGE_CURVE ( 'NONE', #210, #536, #206, .T. ) ;
#191 = DIRECTION ( 'NONE',  ( -0.000000000000000000, 1.000000000000000000, -0.000000000000000000 ) ) ;
#192 = DIRECTION ( 'NONE',  ( -0.000000000000000000, 1.000000000000000000, -0.000000000000000000 ) ) ;
#193 = VECTOR ( 'NONE', #33, 1000.000000000000000 ) ;
#194 = CARTESIAN_POINT ( 'NONE',  ( 0.000000000000000000, 30.00000000000000000, 111.6999999999999886 ) ) ;
#195 = VERTEX_POINT ( 'NONE', #253 ) ;
#196 = DIRECTION ( 'NONE',  ( -0.6427876096865352551, 0.000000000000000000, -0.7660444431189816772 ) ) ;
#197 = ORIENTED_EDGE ( 'NONE', *, *, #17, .T. ) ;
#198 = EDGE_CURVE ( 'NONE', #347, #407, #471, .T. ) ;
#199 = DIRECTION ( 'NONE',  ( 0.000000000000000000, 0.000000000000000000, 1.000000000000000000 ) ) ;
#200 = DIRECTION ( 'NONE',  ( -0.000000000000000000, 1.000000000000000000, -0.000000000000000000 ) ) ;
#201 = EDGE_CURVE ( 'NONE', #369, #385, #118, .T. ) ;
#202 = DIRECTION ( 'NONE',  ( 1.224646799147353947E-16, 0.000000000000000000, 1.000000000000000000 ) ) ;
#203 = AXIS2_PLACEMENT_3D ( 'NONE', #240, #109, #28 ) ;
#204 = AXIS2_PLACEMENT_3D ( 'NONE', #218, #298, #259 ) ;
#205 = PLANE ( 'NONE',  #24 ) ;
#206 = LINE ( 'NONE', #543, #427 ) ;
#207 = ORIENTED_EDGE ( 'NONE', *, *, #400, .F. ) ;
#208 = DIRECTION ( 'NONE',  ( 0.7660444431189815662, 0.000000000000000000, -0.6427876096865350330 ) ) ;
#209 = LINE ( 'NONE', #378, #288 ) ;
#210 = VERTEX_POINT ( 'NONE', #36 ) ;
#211 = DIRECTION ( 'NONE',  ( -0.6427876096865351441, -0.000000000000000000, -0.7660444431189814551 ) ) ;
#212 = CIRCLE ( 'NONE', #37, 111.6999999999999886 ) ;
#213 = CARTESIAN_POINT ( 'NONE',  ( 139.5472586018299523, 20.00000000000000000, 24.60594677540358077 ) ) ;
#214 = DIRECTION ( 'NONE',  ( 0.000000000000000000, 1.000000000000000000, 0.000000000000000000 ) ) ;
#215 = ORIENTED_EDGE ( 'NONE', *, *, #47, .T. ) ;
#216 = CARTESIAN_POINT ( 'NONE',  ( 0.000000000000000000, 0.000000000000000000, 0.000000000000000000 ) ) ;
#217 = ORIENTED_EDGE ( 'NONE', *, *, #61, .T. ) ;
#218 = CARTESIAN_POINT ( 'NONE',  ( 0.000000000000000000, 9.999999999999998224, 0.000000000000000000 ) ) ;
#219 = ORIENTED_EDGE ( 'NONE', *, *, #254, .T. ) ;
#220 =( GEOMETRIC_REPRESENTATION_CONTEXT ( 3 ) GLOBAL_UNCERTAINTY_ASSIGNED_CONTEXT ( ( #540 ) ) GLOBAL_UNIT_ASSIGNED_CONTEXT ( ( #366, #123, #417 ) ) REPRESENTATION_CONTEXT ( 'NONE', 'WORKASPACE' ) );
#221 = VECTOR ( 'NONE', #328, 1000.000000000000000 ) ;
#222 = CARTESIAN_POINT ( 'NONE',  ( 62.53682133479635041, 10.00000000000000000, 70.17245477995743386 ) ) ;
#223 = ORIENTED_EDGE ( 'NONE', *, *, #47, .F. ) ;
#224 = DIRECTION ( 'NONE',  ( 0.000000000000000000, 0.000000000000000000, 1.000000000000000000 ) ) ;
#225 = ORIENTED_EDGE ( 'NONE', *, *, #171, .F. ) ;
#226 = CARTESIAN_POINT ( 'NONE',  ( 0.000000000000000000, 0.000000000000000000, 0.000000000000000000 ) ) ;
#227 = ORIENTED_EDGE ( 'NONE', *, *, #61, .F. ) ;
#228 = CYLINDRICAL_SURFACE ( 'NONE', #58, 91.70000000000000284 ) ;
#229 = ORIENTED_EDGE ( 'NONE', *, *, #163, .F. ) ;
#230 = DIRECTION ( 'NONE',  ( -0.000000000000000000, -1.000000000000000000, -0.000000000000000000 ) ) ;
#231 = EDGE_LOOP ( 'NONE', ( #275, #245, #46, #52, #50, #506, #92, #223 ) ) ;
#232 = DIRECTION ( 'NONE',  ( 0.000000000000000000, 0.000000000000000000, 1.000000000000000000 ) ) ;
#233 = DIRECTION ( 'NONE',  ( 0.000000000000000000, 0.000000000000000000, 1.000000000000000000 ) ) ;
#234 = AXIS2_PLACEMENT_3D ( 'NONE', #468, #178, #93 ) ;
#235 = CARTESIAN_POINT ( 'NONE',  ( 0.000000000000000000, 20.00000000000000000, 0.000000000000000000 ) ) ;
#236 = VECTOR ( 'NONE', #448, 1000.000000000000114 ) ;
#237 = FACE_OUTER_BOUND ( 'NONE', #513, .T. ) ;
#238 = LINE ( 'NONE', #490, #155 ) ;
#239 = DIRECTION ( 'NONE',  ( 0.000000000000000000, -0.000000000000000000, 1.000000000000000000 ) ) ;
#240 = CARTESIAN_POINT ( 'NONE',  ( 80.34845121081687580, 9.999999999999992895, 95.75555538987271120 ) ) ;
#241 = EDGE_CURVE ( 'NONE', #257, #397, #209, .T. ) ;
#242 = DIRECTION ( 'NONE',  ( 0.000000000000000000, 0.000000000000000000, -1.000000000000000000 ) ) ;
#243 = DIRECTION ( 'NONE',  ( 0.000000000000000000, 0.000000000000000000, 1.000000000000000000 ) ) ;
#244 = VECTOR ( 'NONE', #374, 1000.000000000000000 ) ;
#245 = ORIENTED_EDGE ( 'NONE', *, *, #375, .T. ) ;
#246 = CARTESIAN_POINT ( 'NONE',  ( 0.000000000000000000, 9.999999999999998224, 0.000000000000000000 ) ) ;
#247 = CARTESIAN_POINT ( 'NONE',  ( 0.000000000000000000, 0.000000000000000000, 0.000000000000000000 ) ) ;
#248 = CARTESIAN_POINT ( 'NONE',  ( 80.34845121081687580, -6.938893903907228378E-15, 95.75555538987271120 ) ) ;
#249 = ORIENTED_EDGE ( 'NONE', *, *, #29, .F. ) ;
#250 = LINE ( 'NONE', #371, #500 ) ;
#251 = ORIENTED_EDGE ( 'NONE', *, *, #284, .F. ) ;
#252 = VECTOR ( 'NONE', #230, 1000.000000000000000 ) ;
#253 = CARTESIAN_POINT ( 'NONE',  ( 66.25253601813071214, 0.000000000000000000, 63.39945954948117190 ) ) ;
#254 = EDGE_CURVE ( 'NONE', #75, #195, #250, .T. ) ;
#255 = ORIENTED_EDGE ( 'NONE', *, *, #338, .T. ) ;
#256 = DIRECTION ( 'NONE',  ( 0.000000000000000000, -0.000000000000000000, 1.000000000000000000 ) ) ;
#257 = VERTEX_POINT ( 'NONE', #168 ) ;
#258 = EDGE_CURVE ( 'NONE', #405, #397, #23, .T. ) ;
#259 = DIRECTION ( 'NONE',  ( 0.000000000000000000, -0.000000000000000000, 1.000000000000000000 ) ) ;
#260 = VERTEX_POINT ( 'NONE', #126 ) ;
#261 = VECTOR ( 'NONE', #491, 1000.000000000000000 ) ;
#262 = DIRECTION ( 'NONE',  ( -0.000000000000000000, -1.000000000000000000, -0.000000000000000000 ) ) ;
#263 = ORIENTED_EDGE ( 'NONE', *, *, #17, .F. ) ;
#264 = CARTESIAN_POINT ( 'NONE',  ( 0.000000000000000000, 20.00000000000000000, 91.70000000000001705 ) ) ;
#265 = ORIENTED_EDGE ( 'NONE', *, *, #338, .F. ) ;
#266 = DIRECTION ( 'NONE',  ( 0.000000000000000000, 0.000000000000000000, -1.000000000000000000 ) ) ;
#267 = ORIENTED_EDGE ( 'NONE', *, *, #198, .F. ) ;
#268 = AXIS2_PLACEMENT_3D ( 'NONE', #74, #88, #159 ) ;
#269 = DIRECTION ( 'NONE',  ( 0.000000000000000000, 0.000000000000000000, 1.000000000000000000 ) ) ;
#270 = CARTESIAN_POINT ( 'NONE',  ( 110.0030260114636889, 9.999999999999998224, 19.39650144539576360 ) ) ;
#271 = DIRECTION ( 'NONE',  ( -0.7660444431189803449, 0.000000000000000000, 0.6427876096865365874 ) ) ;
#272 = CARTESIAN_POINT ( 'NONE',  ( 80.34845121081687580, 9.999999999999992895, 95.75555538987271120 ) ) ;
#273 = ADVANCED_FACE ( 'NONE', ( #293 ), #421, .T. ) ;
#274 = CARTESIAN_POINT ( 'NONE',  ( 0.000000000000000000, 30.00000000000000000, 100.0000000000000000 ) ) ;
#275 = ORIENTED_EDGE ( 'NONE', *, *, #455, .F. ) ;
#276 = ADVANCED_FACE ( 'NONE', ( #389 ), #95, .T. ) ;
#277 = MECHANICAL_DESIGN_GEOMETRIC_PRESENTATION_REPRESENTATION (  '', ( #311 ), #220 ) ;
#278 = FACE_OUTER_BOUND ( 'NONE', #85, .T. ) ;
#279 = VECTOR ( 'NONE', #191, 1000.000000000000000 ) ;
#280 = DIRECTION ( 'NONE',  ( 0.000000000000000000, 0.000000000000000000, 1.000000000000000000 ) ) ;
#281 = DIRECTION ( 'NONE',  ( 0.000000000000000000, 0.000000000000000000, -1.000000000000000000 ) ) ;
#282 = DIRECTION ( 'NONE',  ( 0.000000000000000000, 0.000000000000000000, 1.000000000000000000 ) ) ;
#283 = CARTESIAN_POINT ( 'NONE',  ( 0.000000000000000000, 0.000000000000000000, 91.70000000000001705 ) ) ;
#284 = EDGE_CURVE ( 'NONE', #347, #494, #342, .T. ) ;
#285 = SHAPE_DEFINITION_REPRESENTATION ( #486, #420 ) ;
#286 = CIRCLE ( 'NONE', #531, 91.70000000000003126 ) ;
#287 = CARTESIAN_POINT ( 'NONE',  ( 0.000000000000000000, 30.00000000000000000, 100.0000000000000000 ) ) ;
#288 = VECTOR ( 'NONE', #211, 1000.000000000000114 ) ;
#289 = AXIS2_PLACEMENT_3D ( 'NONE', #247, #125, #35 ) ;
#290 = CARTESIAN_POINT ( 'NONE',  ( 98.48077530122087353, 30.00000000000000000, 17.36481776669271326 ) ) ;
#291 = ORIENTED_EDGE ( 'NONE', *, *, #542, .F. ) ;
#292 = EDGE_CURVE ( 'NONE', #75, #302, #514, .T. ) ;
#293 = FACE_OUTER_BOUND ( 'NONE', #343, .T. ) ;
#294 = AXIS2_PLACEMENT_3D ( 'NONE', #359, #402, #239 ) ;
#295 = AXIS2_PLACEMENT_3D ( 'NONE', #446, #493, #232 ) ;
#296 = DIRECTION ( 'NONE',  ( 0.9848077530122085754, 0.000000000000000000, 0.1736481776669272781 ) ) ;
#297 = VERTEX_POINT ( 'NONE', #339 ) ;
#298 = DIRECTION ( 'NONE',  ( 0.000000000000000000, 1.000000000000000000, 0.000000000000000000 ) ) ;
#299 = ADVANCED_FACE ( 'NONE', ( #346 ), #523, .F. ) ;
#300 = ORIENTED_EDGE ( 'NONE', *, *, #44, .F. ) ;
#301 = FACE_OUTER_BOUND ( 'NONE', #521, .T. ) ;
#302 = VERTEX_POINT ( 'NONE', #511 ) ;
#303 = CIRCLE ( 'NONE', #120, 111.6999999999999886 ) ;
#304 = CARTESIAN_POINT ( 'NONE',  ( 80.34845121081687580, -6.938893903907228378E-15, 92.45555538987271404 ) ) ;
#305 = PRODUCT ( 'ELP-0038', 'ELP-0038', '', ( #80 ) ) ;
#306 = ORIENTED_EDGE ( 'NONE', *, *, #91, .T. ) ;
#307 = CYLINDRICAL_SURFACE ( 'NONE', #320, 2.799999999999998490 ) ;
#308 = VERTEX_POINT ( 'NONE', #172 ) ;
#309 = CARTESIAN_POINT ( 'NONE',  ( 6.123233995736766085E-15, 9.999999999999998224, 141.6999999999999886 ) ) ;
#310 = LINE ( 'NONE', #482, #520 ) ;
#311 = STYLED_ITEM ( 'NONE', ( #408 ), #133 ) ;
#312 = CIRCLE ( 'NONE', #322, 100.0000000000000000 ) ;
#313 = DIRECTION ( 'NONE',  ( -0.7660444431189814551, 0.000000000000000000, 0.6427876096865353661 ) ) ;
#314 = CARTESIAN_POINT ( 'NONE',  ( 6.123233995736766085E-15, 20.00000000000000000, 141.6999999999999886 ) ) ;
#315 = EDGE_CURVE ( 'NONE', #57, #353, #130, .T. ) ;
#316 = LINE ( 'NONE', #150, #38 ) ;
#317 = CARTESIAN_POINT ( 'NONE',  ( 6.123233995736766085E-15, 0.000000000000000000, 141.6999999999999886 ) ) ;
#318 = DIRECTION ( 'NONE',  ( -0.7660444431189814551, 0.000000000000000000, 0.6427876096865353661 ) ) ;
#319 = DIRECTION ( 'NONE',  ( -0.000000000000000000, 1.000000000000000000, -0.000000000000000000 ) ) ;
#320 = AXIS2_PLACEMENT_3D ( 'NONE', #426, #53, #349 ) ;
#321 = DIRECTION ( 'NONE',  ( 0.000000000000000000, 1.000000000000000000, 0.000000000000000000 ) ) ;
#322 = AXIS2_PLACEMENT_3D ( 'NONE', #476, #470, #186 ) ;
#323 = SURFACE_SIDE_STYLE ('',( #153 ) ) ;
#324 = PRODUCT_DEFINITION_CONTEXT ( 'detailed design', #181, 'design' ) ;
#325 = CARTESIAN_POINT ( 'NONE',  ( 50.93164715575105106, 20.00000000000000000, 76.25521174321190188 ) ) ;
#326 = DIRECTION ( 'NONE',  ( 0.000000000000000000, 0.000000000000000000, 1.000000000000000000 ) ) ;
#327 = ORIENTED_EDGE ( 'NONE', *, *, #392, .T. ) ;
#328 = DIRECTION ( 'NONE',  ( -0.000000000000000000, -1.000000000000000000, -0.000000000000000000 ) ) ;
#329 = AXIS2_PLACEMENT_3D ( 'NONE', #334, #1, #336 ) ;
#330 = DIRECTION ( 'NONE',  ( 1.224646799147353947E-16, 0.000000000000000000, 1.000000000000000000 ) ) ;
#331 = AXIS2_PLACEMENT_3D ( 'NONE', #235, #144, #439 ) ;
#332 = EDGE_CURVE ( 'NONE', #260, #139, #138, .T. ) ;
#333 = EDGE_LOOP ( 'NONE', ( #377, #215, #412, #388 ) ) ;
#334 = CARTESIAN_POINT ( 'NONE',  ( 58.59209158694090291, 10.00000000000000000, 69.82733564634658308 ) ) ;
#335 = ORIENTED_EDGE ( 'NONE', *, *, #158, .F. ) ;
#336 = DIRECTION ( 'NONE',  ( -0.7660444431189814551, 0.000000000000000000, 0.6427876096865353661 ) ) ;
#337 = ORIENTED_EDGE ( 'NONE', *, *, #163, .T. ) ;
#338 = EDGE_CURVE ( 'NONE', #210, #385, #212, .T. ) ;
#339 = CARTESIAN_POINT ( 'NONE',  ( 80.34845121081687580, 9.999999999999992895, 99.05555538987269415 ) ) ;
#340 = ORIENTED_EDGE ( 'NONE', *, *, #495, .F. ) ;
#341 = ADVANCED_FACE ( 'NONE', ( #430 ), #307, .F. ) ;
#342 = LINE ( 'NONE', #516, #348 ) ;
#343 = EDGE_LOOP ( 'NONE', ( #135, #503 ) ) ;
#344 = CARTESIAN_POINT ( 'NONE',  ( 50.93164715575105106, 20.00000000000000000, 76.25521174321190188 ) ) ;
#345 = ORIENTED_EDGE ( 'NONE', *, *, #190, .F. ) ;
#346 = FACE_OUTER_BOUND ( 'NONE', #18, .T. ) ;
#347 = VERTEX_POINT ( 'NONE', #304 ) ;
#348 = VECTOR ( 'NONE', #97, 1000.000000000000000 ) ;
#349 = DIRECTION ( 'NONE',  ( -0.7660444431189803449, 0.000000000000000000, 0.6427876096865365874 ) ) ;
#350 = ORIENTED_EDGE ( 'NONE', *, *, #332, .F. ) ;
#351 = ADVANCED_FACE ( 'NONE', ( #301 ), #466, .F. ) ;
#352 = FACE_OUTER_BOUND ( 'NONE', #119, .T. ) ;
#353 = VERTEX_POINT ( 'NONE', #99 ) ;
#354 = CARTESIAN_POINT ( 'NONE',  ( 80.34845121081687580, 9.999999999999991118, 99.05555538987270836 ) ) ;
#355 = CARTESIAN_POINT ( 'NONE',  ( 50.93164715575105106, 0.000000000000000000, 76.25521174321190188 ) ) ;
#356 = AXIS2_PLACEMENT_3D ( 'NONE', #116, #411, #31 ) ;
#357 = CARTESIAN_POINT ( 'NONE',  ( 56.44716714620776088, 10.00000000000000000, 71.62714095346888143 ) ) ;
#358 = ADVANCED_FACE ( 'NONE', ( #384, #387 ), #141, .F. ) ;
#359 = CARTESIAN_POINT ( 'NONE',  ( 0.000000000000000000, 20.00000000000000000, 0.000000000000000000 ) ) ;
#360 = DIRECTION ( 'NONE',  ( 2.041077998578922341E-16, -0.000000000000000000, 1.000000000000000000 ) ) ;
#361 = ORIENTED_EDGE ( 'NONE', *, *, #292, .F. ) ;
#362 = DIRECTION ( 'NONE',  ( -0.000000000000000000, 1.000000000000000000, -0.000000000000000000 ) ) ;
#363 = FILL_AREA_STYLE_COLOUR ( '', #7 ) ;
#364 = AXIS2_PLACEMENT_3D ( 'NONE', #69, #200, #233 ) ;
#365 = AXIS2_PLACEMENT_3D ( 'NONE', #526, #321, #19 ) ;
#366 =( LENGTH_UNIT ( ) NAMED_UNIT ( * ) SI_UNIT ( .MILLI., .METRE. ) );
#367 =( NAMED_UNIT ( * ) PLANE_ANGLE_UNIT ( ) SI_UNIT ( $, .RADIAN. ) );
#368 = DIRECTION ( 'NONE',  ( -0.6427876096865352551, 0.000000000000000000, -0.7660444431189816772 ) ) ;
#369 = VERTEX_POINT ( 'NONE', #15 ) ;
#370 = EDGE_CURVE ( 'NONE', #180, #177, #312, .T. ) ;
#371 = CARTESIAN_POINT ( 'NONE',  ( 66.25253601813071214, 20.00000000000000000, 63.39945954948117190 ) ) ;
#372 = EDGE_LOOP ( 'NONE', ( #132, #515 ) ) ;
#373 = AXIS2_PLACEMENT_3D ( 'NONE', #434, #432, #296 ) ;
#374 = DIRECTION ( 'NONE',  ( -0.000000000000000000, -1.000000000000000000, -0.000000000000000000 ) ) ;
#375 = EDGE_CURVE ( 'NONE', #308, #385, #478, .T. ) ;
#376 = CIRCLE ( 'NONE', #76, 91.70000000000003126 ) ;
#377 = ORIENTED_EDGE ( 'NONE', *, *, #436, .F. ) ;
#378 = CARTESIAN_POINT ( 'NONE',  ( 58.24697245333005924, 10.00000000000000000, 73.77206539420203057 ) ) ;
#379 = ORIENTED_EDGE ( 'NONE', *, *, #509, .T. ) ;
#380 = FACE_OUTER_BOUND ( 'NONE', #54, .T. ) ;
#381 = ORIENTED_EDGE ( 'NONE', *, *, #91, .F. ) ;
#382 = ADVANCED_FACE ( 'NONE', ( #11, #380 ), #424, .T. ) ;
#383 = EDGE_CURVE ( 'NONE', #12, #405, #49, .T. ) ;
#384 = FACE_BOUND ( 'NONE', #423, .T. ) ;
#385 = VERTEX_POINT ( 'NONE', #194 ) ;
#386 = AXIS2_PLACEMENT_3D ( 'NONE', #152, #27, #271 ) ;
#387 = FACE_OUTER_BOUND ( 'NONE', #187, .T. ) ;
#388 = ORIENTED_EDGE ( 'NONE', *, *, #528, .F. ) ;
#389 = FACE_OUTER_BOUND ( 'NONE', #452, .T. ) ;
#390 = ORIENTED_EDGE ( 'NONE', *, *, #140, .T. ) ;
#391 = CARTESIAN_POINT ( 'NONE',  ( 60.39189689406320838, 10.00000000000000000, 71.97226008707973222 ) ) ;
#392 = EDGE_CURVE ( 'NONE', #407, #297, #533, .T. ) ;
#393 = ORIENTED_EDGE ( 'NONE', *, *, #455, .T. ) ;
#394 = CIRCLE ( 'NONE', #268, 91.70000000000000284 ) ;
#395 = AXIS2_PLACEMENT_3D ( 'NONE', #415, #456, #242 ) ;
#396 = APPLICATION_CONTEXT ( 'automotive_design' ) ;
#397 = VERTEX_POINT ( 'NONE', #357 ) ;
#398 = CARTESIAN_POINT ( 'NONE',  ( 60.39189689406320838, 10.00000000000000000, 71.97226008707973222 ) ) ;
#399 = DIRECTION ( 'NONE',  ( 0.000000000000000000, 0.000000000000000000, 1.000000000000000000 ) ) ;
#400 = EDGE_CURVE ( 'NONE', #369, #177, #59, .T. ) ;
#401 = CARTESIAN_POINT ( 'NONE',  ( 50.93164715575105106, 0.000000000000000000, 76.25521174321190188 ) ) ;
#402 = DIRECTION ( 'NONE',  ( 0.000000000000000000, 1.000000000000000000, 0.000000000000000000 ) ) ;
#403 = AXIS2_PLACEMENT_3D ( 'NONE', #151, #319, #399 ) ;
#404 = CARTESIAN_POINT ( 'NONE',  ( 0.000000000000000000, 30.00000000000000000, 0.000000000000000000 ) ) ;
#405 = VERTEX_POINT ( 'NONE', #529 ) ;
#406 = CARTESIAN_POINT ( 'NONE',  ( 139.5472586018299523, 0.000000000000000000, 24.60594677540358077 ) ) ;
#407 = VERTEX_POINT ( 'NONE', #108 ) ;
#408 = PRESENTATION_STYLE_ASSIGNMENT (( #115 ) ) ;
#409 = FACE_OUTER_BOUND ( 'NONE', #106, .T. ) ;
#410 = AXIS2_PLACEMENT_3D ( 'NONE', #146, #535, #318 ) ;
#411 = DIRECTION ( 'NONE',  ( 1.000000000000000000, 0.000000000000000000, -1.224646799147353947E-16 ) ) ;
#412 = ORIENTED_EDGE ( 'NONE', *, *, #171, .T. ) ;
#413 = DIRECTION ( 'NONE',  ( -0.000000000000000000, 1.000000000000000000, -0.000000000000000000 ) ) ;
#414 = ORIENTED_EDGE ( 'NONE', *, *, #517, .T. ) ;
#415 = CARTESIAN_POINT ( 'NONE',  ( 0.000000000000000000, 20.00000000000000000, 0.000000000000000000 ) ) ;
#416 = CARTESIAN_POINT ( 'NONE',  ( 139.5472586018299523, 9.999999999999998224, 24.60594677540357367 ) ) ;
#417 =( NAMED_UNIT ( * ) SI_UNIT ( $, .STERADIAN. ) SOLID_ANGLE_UNIT ( ) );
#418 = CIRCLE ( 'NONE', #410, 2.800000000000003819 ) ;
#419 = ORIENTED_EDGE ( 'NONE', *, *, #495, .T. ) ;
#420 = ADVANCED_BREP_SHAPE_REPRESENTATION ( 'ELP-0038', ( #133, #289 ), #137 ) ;
#421 = PLANE ( 'NONE',  #492 ) ;
#422 = EDGE_CURVE ( 'NONE', #257, #12, #87, .T. ) ;
#423 = EDGE_LOOP ( 'NONE', ( #197, #98 ) ) ;
#424 = PLANE ( 'NONE',  #204 ) ;
#425 = ORIENTED_EDGE ( 'NONE', *, *, #183, .T. ) ;
#426 = CARTESIAN_POINT ( 'NONE',  ( 60.39189689406320838, 10.00000000000000000, 71.97226008707973222 ) ) ;
#427 = VECTOR ( 'NONE', #457, 1000.000000000000114 ) ;
#428 = ORIENTED_EDGE ( 'NONE', *, *, #525, .T. ) ;
#429 = ADVANCED_FACE ( 'NONE', ( #442 ), #480, .T. ) ;
#430 = FACE_OUTER_BOUND ( 'NONE', #96, .T. ) ;
#431 = ORIENTED_EDGE ( 'NONE', *, *, #190, .T. ) ;
#432 = DIRECTION ( 'NONE',  ( -0.1736481776669272781, 0.000000000000000000, 0.9848077530122085754 ) ) ;
#433 = ORIENTED_EDGE ( 'NONE', *, *, #392, .F. ) ;
#434 = CARTESIAN_POINT ( 'NONE',  ( 90.30687095121953689, 20.00000000000000000, 15.92353789205721704 ) ) ;
#435 = ORIENTED_EDGE ( 'NONE', *, *, #315, .F. ) ;
#436 = EDGE_CURVE ( 'NONE', #467, #160, #464, .T. ) ;
#437 = CLOSED_SHELL ( 'NONE', ( #143, #498, #537, #6, #351, #179, #299, #441, #541, #358, #474, #276, #341, #273, #429, #382, #107 ) ) ;
#438 = VECTOR ( 'NONE', #202, 1000.000000000000000 ) ;
#439 = DIRECTION ( 'NONE',  ( 0.000000000000000000, 0.000000000000000000, 1.000000000000000000 ) ) ;
#440 = FACE_OUTER_BOUND ( 'NONE', #16, .T. ) ;
#441 = ADVANCED_FACE ( 'NONE', ( #352 ), #228, .F. ) ;
#442 = FACE_OUTER_BOUND ( 'NONE', #454, .T. ) ;
#443 = CARTESIAN_POINT ( 'NONE',  ( 0.000000000000000000, 20.00000000000000000, 91.70000000000001705 ) ) ;
#444 = CARTESIAN_POINT ( 'NONE',  ( 58.59209158694090291, 10.00000000000000000, 69.82733564634658308 ) ) ;
#445 = VECTOR ( 'NONE', #134, 1000.000000000000000 ) ;
#446 = CARTESIAN_POINT ( 'NONE',  ( 0.000000000000000000, 30.00000000000000000, 0.000000000000000000 ) ) ;
#447 = PLANE ( 'NONE',  #294 ) ;
#448 = DIRECTION ( 'NONE',  ( -0.6427876096865351441, -0.000000000000000000, -0.7660444431189814551 ) ) ;
#449 = EDGE_CURVE ( 'NONE', #260, #75, #104, .T. ) ;
#450 = ORIENTED_EDGE ( 'NONE', *, *, #44, .T. ) ;
#451 = CARTESIAN_POINT ( 'NONE',  ( 90.30687095121953689, 20.00000000000000000, 15.92353789205721704 ) ) ;
#452 = EDGE_LOOP ( 'NONE', ( #265, #431, #379, #518 ) ) ;
#453 = AXIS2_PLACEMENT_3D ( 'NONE', #65, #362, #199 ) ;
#454 = EDGE_LOOP ( 'NONE', ( #255, #527, #335, #32 ) ) ;
#455 = EDGE_CURVE ( 'NONE', #308, #467, #316, .T. ) ;
#456 = DIRECTION ( 'NONE',  ( -0.000000000000000000, -1.000000000000000000, -0.000000000000000000 ) ) ;
#457 = DIRECTION ( 'NONE',  ( -0.9848077530122086864, -0.000000000000000000, -0.1736481776669271948 ) ) ;
#458 = VERTEX_POINT ( 'NONE', #406 ) ;
#459 = DIRECTION ( 'NONE',  ( 0.6427876096865351441, -0.000000000000000000, 0.7660444431189816772 ) ) ;
#460 = CARTESIAN_POINT ( 'NONE',  ( 0.000000000000000000, 20.00000000000000000, 91.70000000000001705 ) ) ;
#461 = ORIENTED_EDGE ( 'NONE', *, *, #292, .T. ) ;
#462 = PRESENTATION_LAYER_ASSIGNMENT (  '', '', ( #311 ) ) ;
#463 = DIRECTION ( 'NONE',  ( 0.000000000000000000, 0.000000000000000000, 1.000000000000000000 ) ) ;
#464 = CIRCLE ( 'NONE', #365, 141.6999999999999886 ) ;
#465 = ORIENTED_EDGE ( 'NONE', *, *, #436, .T. ) ;
#466 = CYLINDRICAL_SURFACE ( 'NONE', #547, 91.70000000000003126 ) ;
#467 = VERTEX_POINT ( 'NONE', #309 ) ;
#468 = CARTESIAN_POINT ( 'NONE',  ( 0.000000000000000000, 30.00000000000000000, 0.000000000000000000 ) ) ;
#469 = ORIENTED_EDGE ( 'NONE', *, *, #29, .T. ) ;
#470 = DIRECTION ( 'NONE',  ( -0.000000000000000000, -1.000000000000000000, -0.000000000000000000 ) ) ;
#471 = CIRCLE ( 'NONE', #185, 3.299999999999997158 ) ;
#472 = EDGE_LOOP ( 'NONE', ( #267, #41, #450, #433 ) ) ;
#473 = AXIS2_PLACEMENT_3D ( 'NONE', #226, #90, #256 ) ;
#474 = ADVANCED_FACE ( 'NONE', ( #101 ), #538, .F. ) ;
#475 = EDGE_CURVE ( 'NONE', #302, #57, #376, .T. ) ;
#476 = CARTESIAN_POINT ( 'NONE',  ( 0.000000000000000000, 20.00000000000000000, 0.000000000000000000 ) ) ;
#477 = ORIENTED_EDGE ( 'NONE', *, *, #72, .F. ) ;
#478 = LINE ( 'NONE', #131, #522 ) ;
#479 = EDGE_LOOP ( 'NONE', ( #227, #300 ) ) ;
#480 = CYLINDRICAL_SURFACE ( 'NONE', #453, 111.6999999999999886 ) ;
#481 = EDGE_CURVE ( 'NONE', #12, #257, #418, .T. ) ;
#482 = CARTESIAN_POINT ( 'NONE',  ( 50.93164715575105106, 20.00000000000000000, 76.25521174321190188 ) ) ;
#483 = VECTOR ( 'NONE', #330, 1000.000000000000000 ) ;
#484 = AXIS2_PLACEMENT_3D ( 'NONE', #404, #25, #281 ) ;
#485 = CARTESIAN_POINT ( 'NONE',  ( 0.000000000000000000, 20.00000000000000000, 0.000000000000000000 ) ) ;
#486 = PRODUCT_DEFINITION_SHAPE ( 'NONE', 'NONE',  #83 ) ;
#487 = DIRECTION ( 'NONE',  ( -0.9848077530122085754, 0.000000000000000000, -0.1736481776669274169 ) ) ;
#488 = CARTESIAN_POINT ( 'NONE',  ( 0.000000000000000000, 20.00000000000000000, 0.000000000000000000 ) ) ;
#489 = DIRECTION ( 'NONE',  ( -0.000000000000000000, -1.000000000000000000, -0.000000000000000000 ) ) ;
#490 = CARTESIAN_POINT ( 'NONE',  ( 90.30687095121953689, 0.000000000000000000, 15.92353789205721704 ) ) ;
#491 = DIRECTION ( 'NONE',  ( -0.000000000000000000, 1.000000000000000000, -0.000000000000000000 ) ) ;
#492 = AXIS2_PLACEMENT_3D ( 'NONE', #391, #8, #3 ) ;
#493 = DIRECTION ( 'NONE',  ( -0.000000000000000000, -1.000000000000000000, -0.000000000000000000 ) ) ;
#494 = VERTEX_POINT ( 'NONE', #105 ) ;
#495 = EDGE_CURVE ( 'NONE', #458, #139, #238, .T. ) ;
#496 = DIRECTION ( 'NONE',  ( -0.7660444431189814551, 0.000000000000000000, 0.6427876096865353661 ) ) ;
#497 = CARTESIAN_POINT ( 'NONE',  ( 80.34845121081687580, 9.999999999999991118, 95.75555538987271120 ) ) ;
#498 = ADVANCED_FACE ( 'NONE', ( #278 ), #62, .F. ) ;
#499 = EDGE_LOOP ( 'NONE', ( #173, #207, #10, #425 ) ) ;
#500 = VECTOR ( 'NONE', #548, 1000.000000000000000 ) ;
#501 = FACE_BOUND ( 'NONE', #372, .T. ) ;
#502 = CARTESIAN_POINT ( 'NONE',  ( 90.30687095121953689, 0.000000000000000000, 15.92353789205721704 ) ) ;
#503 = ORIENTED_EDGE ( 'NONE', *, *, #481, .T. ) ;
#504 = APPLICATION_PROTOCOL_DEFINITION ( 'draft international standard', 'automotive_design', 1998, #396 ) ;
#505 = CARTESIAN_POINT ( 'NONE',  ( 98.48077530122087353, 20.00000000000000000, 17.36481776669271682 ) ) ;
#506 = ORIENTED_EDGE ( 'NONE', *, *, #315, .T. ) ;
#507 = FACE_OUTER_BOUND ( 'NONE', #472, .T. ) ;
#508 = ORIENTED_EDGE ( 'NONE', *, *, #449, .F. ) ;
#509 = EDGE_CURVE ( 'NONE', #536, #369, #166, .T. ) ;
#510 = AXIS2_PLACEMENT_3D ( 'NONE', #497, #84, #40 ) ;
#511 = CARTESIAN_POINT ( 'NONE',  ( 50.93164715575105106, 20.00000000000000000, 76.25521174321190188 ) ) ;
#512 = PRODUCT_DEFINITION_FORMATION_WITH_SPECIFIED_SOURCE ( 'TUTTO', '', #305, .NOT_KNOWN. ) ;
#513 = EDGE_LOOP ( 'NONE', ( #94, #428, #79, #461, #82, #14 ) ) ;
#514 = LINE ( 'NONE', #344, #67 ) ;
#515 = ORIENTED_EDGE ( 'NONE', *, *, #258, .F. ) ;
#516 = CARTESIAN_POINT ( 'NONE',  ( 80.34845121081687580, 9.999999999999991118, 92.45555538987271404 ) ) ;
#517 = EDGE_CURVE ( 'NONE', #195, #26, #114, .T. ) ;
#518 = ORIENTED_EDGE ( 'NONE', *, *, #201, .T. ) ;
#519 = DIRECTION ( 'NONE',  ( -0.7660444431189815662, -0.000000000000000000, 0.6427876096865351441 ) ) ;
#520 = VECTOR ( 'NONE', #147, 1000.000000000000000 ) ;
#521 = EDGE_LOOP ( 'NONE', ( #469, #435, #124, #306 ) ) ;
#522 = VECTOR ( 'NONE', #55, 1000.000000000000000 ) ;
#523 = PLANE ( 'NONE',  #373 ) ;
#524 = ORIENTED_EDGE ( 'NONE', *, *, #383, .F. ) ;
#525 = EDGE_CURVE ( 'NONE', #180, #260, #117, .T. ) ;
#526 = CARTESIAN_POINT ( 'NONE',  ( 0.000000000000000000, 9.999999999999998224, 0.000000000000000000 ) ) ;
#527 = ORIENTED_EDGE ( 'NONE', *, *, #375, .F. ) ;
#528 = EDGE_CURVE ( 'NONE', #160, #458, #73, .T. ) ;
#529 = CARTESIAN_POINT ( 'NONE',  ( 60.73701602767404495, 10.00000000000000000, 68.02753033922427051 ) ) ;
#530 = CARTESIAN_POINT ( 'NONE',  ( 66.25253601813071214, 20.00000000000000000, 63.39945954948117190 ) ) ;
#531 = AXIS2_PLACEMENT_3D ( 'NONE', #103, #20, #282 ) ;
#532 = CIRCLE ( 'NONE', #174, 141.6999999999999886 ) ;
#533 = LINE ( 'NONE', #354, #279 ) ;
#534 = LINE ( 'NONE', #314, #56 ) ;
#535 = DIRECTION ( 'NONE',  ( -0.6427876096865352551, 0.000000000000000000, -0.7660444431189816772 ) ) ;
#536 = VERTEX_POINT ( 'NONE', #70 ) ;
#537 = ADVANCED_FACE ( 'NONE', ( #30 ), #77, .T. ) ;
#538 = CYLINDRICAL_SURFACE ( 'NONE', #484, 100.0000000000000000 ) ;
#539 = FILL_AREA_STYLE ('',( #363 ) ) ;
#540 = UNCERTAINTY_MEASURE_WITH_UNIT (LENGTH_MEASURE( 1.000000000000000082E-05 ), #366, 'distance_accuracy_value', 'NONE');
#541 = ADVANCED_FACE ( 'NONE', ( #501, #409 ), #205, .F. ) ;
#542 = EDGE_CURVE ( 'NONE', #353, #2, #157, .T. ) ;
#543 = CARTESIAN_POINT ( 'NONE',  ( 98.48077530122087353, 30.00000000000000000, 17.36481776669271326 ) ) ;
#544 = ORIENTED_EDGE ( 'NONE', *, *, #258, .T. ) ;
#545 = LINE ( 'NONE', #290, #244 ) ;
#546 = ORIENTED_EDGE ( 'NONE', *, *, #241, .T. ) ;
#547 = AXIS2_PLACEMENT_3D ( 'NONE', #13, #182, #266 ) ;
#548 = DIRECTION ( 'NONE',  ( -0.000000000000000000, -1.000000000000000000, -0.000000000000000000 ) ) ;
#549 = ORIENTED_EDGE ( 'NONE', *, *, #332, .T. ) ;
ENDSEC;
END-ISO-10303-21;
