ISO-10303-21;
HEADER;
FILE_DESCRIPTION (( 'STEP AP214' ),
    '1' );
FILE_NAME ('ELP-0062.STEP',
    '2026-04-27T14:14:23',
    ( '' ),
    ( '' ),
    'SwSTEP 2.0',
    'SolidWorks 2024',
    '' );
FILE_SCHEMA (( 'AUTOMOTIVE_DESIGN' ));
ENDSEC;

DATA;
#1 = FACE_OUTER_BOUND ( 'NONE', #687, .T. ) ;
#2 = ADVANCED_FACE ( 'NONE', ( #37 ), #477, .F. ) ;
#3 = EDGE_LOOP ( 'NONE', ( #984, #611 ) ) ;
#4 = DIRECTION ( 'NONE',  ( 1.049727191138617340E-16, 0.5150380749100558209, -0.8571673007021113344 ) ) ;
#5 = ORIENTED_EDGE ( 'NONE', *, *, #24, .F. ) ;
#6 = VECTOR ( 'NONE', #817, 1000.000000000000000 ) ;
#7 = DIRECTION ( 'NONE',  ( 0.000000000000000000, 0.000000000000000000, 1.000000000000000000 ) ) ;
#8 = ORIENTED_EDGE ( 'NONE', *, *, #909, .F. ) ;
#9 = DIRECTION ( 'NONE',  ( -0.000000000000000000, 1.000000000000000000, -1.949684284958172601E-16 ) ) ;
#10 = DIRECTION ( 'NONE',  ( 0.000000000000000000, 0.000000000000000000, 1.000000000000000000 ) ) ;
#11 = EDGE_CURVE ( 'NONE', #592, #423, #268, .T. ) ;
#12 = ORIENTED_EDGE ( 'NONE', *, *, #884, .T. ) ;
#13 = CARTESIAN_POINT ( 'NONE',  ( -36.64999999999999858, 5.649999999999994138, 6.000000000000000000 ) ) ;
#14 = CYLINDRICAL_SURFACE ( 'NONE', #727, 1.699999999999993072 ) ;
#15 = ORIENTED_EDGE ( 'NONE', *, *, #322, .F. ) ;
#16 = EDGE_CURVE ( 'NONE', #1042, #651, #191, .T. ) ;
#17 = CARTESIAN_POINT ( 'NONE',  ( -6.000000000000019540, 53.04999999999998295, 23.71016652059597263 ) ) ;
#18 = EDGE_LOOP ( 'NONE', ( #97, #376, #710 ) ) ;
#19 = CARTESIAN_POINT ( 'NONE',  ( -7.349999999999996980, 36.64999999999999858, 0.000000000000000000 ) ) ;
#20 = DIRECTION ( 'NONE',  ( -0.000000000000000000, -0.000000000000000000, 1.000000000000000000 ) ) ;
#21 = ORIENTED_EDGE ( 'NONE', *, *, #617, .T. ) ;
#22 = CARTESIAN_POINT ( 'NONE',  ( -6.000000000000019540, 57.04999999999998295, 44.46566988549968613 ) ) ;
#23 = CLOSED_SHELL ( 'NONE', ( #422, #200, #458, #2, #71, #264, #179, #771, #584, #257, #352, #1028, #820, #145, #300, #294, #529, #716, #222, #105, #480, #967, #92, #516, #544, #953, #631, #117, #54, #61, #280, #666, #775, #184, #759, #684, #849, #438 ) ) ;
#24 = EDGE_CURVE ( 'NONE', #807, #118, #615, .T. ) ;
#25 = AXIS2_PLACEMENT_3D ( 'NONE', #192, #943, #120 ) ;
#26 = CONICAL_SURFACE ( 'NONE', #779, 1.700000000000000178, 1.029744258676652979 ) ;
#27 = DIRECTION ( 'NONE',  ( -0.000000000000000000, -0.000000000000000000, -1.000000000000000000 ) ) ;
#28 = DIRECTION ( 'NONE',  ( -0.000000000000000000, 1.000000000000000000, -1.949684284958172601E-16 ) ) ;
#29 = DIRECTION ( 'NONE',  ( -1.000000000000000000, 0.000000000000000000, 0.000000000000000000 ) ) ;
#30 = EDGE_CURVE ( 'NONE', #148, #689, #852, .T. ) ;
#31 = ORIENTED_EDGE ( 'NONE', *, *, #1035, .F. ) ;
#32 = DIRECTION ( 'NONE',  ( 1.000000000000000000, 0.000000000000000000, 0.000000000000000000 ) ) ;
#33 = DIRECTION ( 'NONE',  ( 0.000000000000000000, 0.000000000000000000, 1.000000000000000000 ) ) ;
#34 = ORIENTED_EDGE ( 'NONE', *, *, #833, .T. ) ;
#35 = EDGE_LOOP ( 'NONE', ( #45, #167, #129 ) ) ;
#36 = DIRECTION ( 'NONE',  ( 1.000000000000000000, 0.000000000000000000, 0.000000000000000000 ) ) ;
#37 = FACE_OUTER_BOUND ( 'NONE', #286, .T. ) ;
#38 = CARTESIAN_POINT ( 'NONE',  ( -6.000000000000019540, 53.04999999999998295, 44.46566988549968613 ) ) ;
#39 = ORIENTED_EDGE ( 'NONE', *, *, #501, .F. ) ;
#40 = CONICAL_SURFACE ( 'NONE', #981, 1.700000000000000178, 1.029744258676652313 ) ;
#41 = ORIENTED_EDGE ( 'NONE', *, *, #767, .T. ) ;
#42 = PLANE ( 'NONE',  #536 ) ;
#43 = EDGE_CURVE ( 'NONE', #276, #95, #127, .T. ) ;
#44 = DIRECTION ( 'NONE',  ( 1.000000000000000000, 0.000000000000000000, 0.000000000000000000 ) ) ;
#45 = ORIENTED_EDGE ( 'NONE', *, *, #509, .F. ) ;
#46 = ORIENTED_EDGE ( 'NONE', *, *, #703, .F. ) ;
#47 = CARTESIAN_POINT ( 'NONE',  ( -3.950000000000019273, 36.64999999999999858, 6.000000000000001776 ) ) ;
#48 = EDGE_CURVE ( 'NONE', #778, #705, #430, .T. ) ;
#49 = LINE ( 'NONE', #600, #565 ) ;
#50 = DIRECTION ( 'NONE',  ( 1.000000000000000000, 0.000000000000000000, 0.000000000000000000 ) ) ;
#51 = CARTESIAN_POINT ( 'NONE',  ( 0.000000000000000000, 42.29999999999999005, 6.000000000000000000 ) ) ;
#52 = DIRECTION ( 'NONE',  ( -0.000000000000000000, 0.000000000000000000, -1.000000000000000000 ) ) ;
#53 = ORIENTED_EDGE ( 'NONE', *, *, #732, .F. ) ;
#54 = ADVANCED_FACE ( 'NONE', ( #1006 ), #139, .T. ) ;
#55 = AXIS2_PLACEMENT_3D ( 'NONE', #210, #557, #387 ) ;
#56 = PRESENTATION_LAYER_ASSIGNMENT (  '', '', ( #478 ) ) ;
#57 = CARTESIAN_POINT ( 'NONE',  ( -6.000000000000019540, 57.04999999999998295, 42.76566988549969039 ) ) ;
#58 = DIRECTION ( 'NONE',  ( 1.000000000000000000, 0.000000000000000000, 0.000000000000000000 ) ) ;
#59 = AXIS2_PLACEMENT_3D ( 'NONE', #190, #20, #941 ) ;
#60 = PLANE ( 'NONE',  #876 ) ;
#61 = ADVANCED_FACE ( 'NONE', ( #1050 ), #380, .T. ) ;
#62 = DIRECTION ( 'NONE',  ( -0.000000000000000000, -0.000000000000000000, 1.000000000000000000 ) ) ;
#63 = CYLINDRICAL_SURFACE ( 'NONE', #273, 1.699999999999987965 ) ;
#64 = PLANE ( 'NONE',  #929 ) ;
#65 = ORIENTED_EDGE ( 'NONE', *, *, #925, .F. ) ;
#66 = DIRECTION ( 'NONE',  ( -0.000000000000000000, 1.000000000000000000, -1.949684284958172601E-16 ) ) ;
#67 = CARTESIAN_POINT ( 'NONE',  ( -6.000000000000019540, 53.04999999999998295, 46.16566988549968897 ) ) ;
#68 = AXIS2_PLACEMENT_3D ( 'NONE', #745, #579, #496 ) ;
#69 = CARTESIAN_POINT ( 'NONE',  ( -36.29999999999997584, 53.04999999999998295, 42.76566988549968329 ) ) ;
#70 = VECTOR ( 'NONE', #473, 1000.000000000000000 ) ;
#71 = ADVANCED_FACE ( 'NONE', ( #548 ), #1037, .F. ) ;
#72 = FILL_AREA_STYLE ('',( #459 ) ) ;
#73 = FACE_OUTER_BOUND ( 'NONE', #758, .T. ) ;
#74 = CARTESIAN_POINT ( 'NONE',  ( -42.29999999999999716, 0.000000000000000000, 0.000000000000000000 ) ) ;
#75 = ORIENTED_EDGE ( 'NONE', *, *, #470, .T. ) ;
#76 = EDGE_CURVE ( 'NONE', #437, #566, #875, .T. ) ;
#77 = CARTESIAN_POINT ( 'NONE',  ( -36.29999999999997584, 53.04999999999998295, 44.46566988549968613 ) ) ;
#78 = CARTESIAN_POINT ( 'NONE',  ( -41.39297174663732193, 0.000000000000000000, 2.651034291629754236 ) ) ;
#79 = ORIENTED_EDGE ( 'NONE', *, *, #991, .T. ) ;
#80 = CARTESIAN_POINT ( 'NONE',  ( -6.000000000000019540, 57.04999999999998295, 44.46566988549968613 ) ) ;
#81 = ORIENTED_EDGE ( 'NONE', *, *, #194, .F. ) ;
#82 = FACE_OUTER_BOUND ( 'NONE', #607, .T. ) ;
#83 = EDGE_CURVE ( 'NONE', #320, #656, #512, .T. ) ;
#84 = LINE ( 'NONE', #658, #972 ) ;
#85 = DIRECTION ( 'NONE',  ( -0.000000000000000000, -0.000000000000000000, 1.000000000000000000 ) ) ;
#86 = ORIENTED_EDGE ( 'NONE', *, *, #790, .F. ) ;
#87 = VECTOR ( 'NONE', #151, 1000.000000000000114 ) ;
#88 = LINE ( 'NONE', #74, #515 ) ;
#89 = ORIENTED_EDGE ( 'NONE', *, *, #973, .T. ) ;
#90 = CIRCLE ( 'NONE', #795, 1.700000000000000178 ) ;
#91 = PRODUCT_DEFINITION_CONTEXT ( 'detailed design', #378, 'design' ) ;
#92 = ADVANCED_FACE ( 'NONE', ( #399 ), #641, .T. ) ;
#93 = CARTESIAN_POINT ( 'NONE',  ( -5.650000000000009237, 36.64999999999999858, 6.000000000000000000 ) ) ;
#94 = CARTESIAN_POINT ( 'NONE',  ( -6.000000000000019540, 57.04999999999998295, 25.41016652059597547 ) ) ;
#95 = VERTEX_POINT ( 'NONE', #69 ) ;
#96 = CARTESIAN_POINT ( 'NONE',  ( -6.000000000000020428, 52.02853694765313008, 25.41016652059597547 ) ) ;
#97 = ORIENTED_EDGE ( 'NONE', *, *, #405, .F. ) ;
#98 = FACE_OUTER_BOUND ( 'NONE', #683, .T. ) ;
#99 = EDGE_LOOP ( 'NONE', ( #75, #581 ) ) ;
#100 = CARTESIAN_POINT ( 'NONE',  ( -36.64999999999999858, 5.649999999999994138, 6.000000000000001776 ) ) ;
#101 = ORIENTED_EDGE ( 'NONE', *, *, #157, .F. ) ;
#102 = ORIENTED_EDGE ( 'NONE', *, *, #725, .F. ) ;
#103 = DIRECTION ( 'NONE',  ( 1.000000000000000000, 0.000000000000000000, 0.000000000000000000 ) ) ;
#104 = DIRECTION ( 'NONE',  ( 1.049727191138617710E-16, 0.5150380749100552658, -0.8571673007021116675 ) ) ;
#105 = ADVANCED_FACE ( 'NONE', ( #224 ), #63, .F. ) ;
#106 = CARTESIAN_POINT ( 'NONE',  ( -36.65000000000000568, 36.64999999999999858, 0.000000000000000000 ) ) ;
#107 = VECTOR ( 'NONE', #964, 1000.000000000000000 ) ;
#108 =( GEOMETRIC_REPRESENTATION_CONTEXT ( 3 ) GLOBAL_UNCERTAINTY_ASSIGNED_CONTEXT ( ( #665 ) ) GLOBAL_UNIT_ASSIGNED_CONTEXT ( ( #464, #636, #307 ) ) REPRESENTATION_CONTEXT ( 'NONE', 'WORKASPACE' ) );
#109 = AXIS2_PLACEMENT_3D ( 'NONE', #130, #471, #783 ) ;
#110 = VERTEX_POINT ( 'NONE', #391 ) ;
#111 = DIRECTION ( 'NONE',  ( 1.049727191138617710E-16, 0.5150380749100552658, -0.8571673007021116675 ) ) ;
#112 = CARTESIAN_POINT ( 'NONE',  ( -36.29999999999997584, 57.04999999999998295, 25.41016652059597547 ) ) ;
#113 = EDGE_LOOP ( 'NONE', ( #493, #175 ) ) ;
#114 = DIRECTION ( 'NONE',  ( -1.000000000000000000, 0.000000000000000000, 0.000000000000000000 ) ) ;
#115 = CARTESIAN_POINT ( 'NONE',  ( -36.29999999999997584, 57.04999999999998295, 27.11016652059596765 ) ) ;
#116 = ORIENTED_EDGE ( 'NONE', *, *, #494, .F. ) ;
#117 = ADVANCED_FACE ( 'NONE', ( #713 ), #866, .T. ) ;
#118 = VERTEX_POINT ( 'NONE', #635 ) ;
#119 = CARTESIAN_POINT ( 'NONE',  ( -6.000000000000019540, 57.04999999999998295, 46.16566988549968187 ) ) ;
#120 = DIRECTION ( 'NONE',  ( 0.000000000000000000, 0.000000000000000000, 1.000000000000000000 ) ) ;
#121 = ORIENTED_EDGE ( 'NONE', *, *, #405, .T. ) ;
#122 = CIRCLE ( 'NONE', #808, 1.699999999999993072 ) ;
#123 = AXIS2_PLACEMENT_3D ( 'NONE', #147, #956, #545 ) ;
#124 = AXIS2_PLACEMENT_3D ( 'NONE', #1021, #368, #32 ) ;
#125 = EDGE_CURVE ( 'NONE', #679, #778, #792, .T. ) ;
#126 = CARTESIAN_POINT ( 'NONE',  ( -36.29999999999997584, 57.04999999999998295, 23.71016652059597973 ) ) ;
#127 = LINE ( 'NONE', #453, #873 ) ;
#128 = CARTESIAN_POINT ( 'NONE',  ( -34.95000000000000995, 5.649999999999994138, 6.000000000000000000 ) ) ;
#129 = ORIENTED_EDGE ( 'NONE', *, *, #348, .T. ) ;
#130 = CARTESIAN_POINT ( 'NONE',  ( -5.650000000000005684, 5.649999999999994138, 6.000000000000001776 ) ) ;
#131 = EDGE_CURVE ( 'NONE', #663, #95, #962, .T. ) ;
#132 = FACE_BOUND ( 'NONE', #99, .T. ) ;
#133 = LINE ( 'NONE', #723, #845 ) ;
#134 = DIRECTION ( 'NONE',  ( 1.640400450096271510E-16, -1.000000000000000000, 0.000000000000000000 ) ) ;
#135 = PRESENTATION_STYLE_ASSIGNMENT (( #381 ) ) ;
#136 = VECTOR ( 'NONE', #197, 1000.000000000000000 ) ;
#137 = AXIS2_PLACEMENT_3D ( 'NONE', #938, #198, #642 ) ;
#138 = DIRECTION ( 'NONE',  ( -0.000000000000000000, -0.000000000000000000, 1.000000000000000000 ) ) ;
#139 = PLANE ( 'NONE',  #292 ) ;
#140 = CARTESIAN_POINT ( 'NONE',  ( -36.29999999999997584, 53.04999999999998295, 27.11016652059597476 ) ) ;
#141 = PLANE ( 'NONE',  #441 ) ;
#142 = CARTESIAN_POINT ( 'NONE',  ( -4.999999999999990230, 1.057125778796012662E-32, 8.000000000000000000 ) ) ;
#143 = FACE_BOUND ( 'NONE', #524, .T. ) ;
#144 = ORIENTED_EDGE ( 'NONE', *, *, #383, .T. ) ;
#145 = ADVANCED_FACE ( 'NONE', ( #457 ), #787, .F. ) ;
#146 = CIRCLE ( 'NONE', #755, 1.699999999999987965 ) ;
#147 = CARTESIAN_POINT ( 'NONE',  ( -36.29999999999997584, 53.04999999999998295, 25.41016652059597547 ) ) ;
#148 = VERTEX_POINT ( 'NONE', #220 ) ;
#149 = EDGE_LOOP ( 'NONE', ( #228, #917 ) ) ;
#150 = AXIS2_PLACEMENT_3D ( 'NONE', #720, #1032, #955 ) ;
#151 = DIRECTION ( 'NONE',  ( -0.6076923720196060197, 0.000000000000000000, -0.7941725133679613524 ) ) ;
#152 = EDGE_CURVE ( 'NONE', #663, #751, #718, .T. ) ;
#153 = VECTOR ( 'NONE', #734, 1000.000000000000000 ) ;
#154 = FACE_BOUND ( 'NONE', #897, .T. ) ;
#155 = ORIENTED_EDGE ( 'NONE', *, *, #395, .T. ) ;
#156 = FACE_OUTER_BOUND ( 'NONE', #327, .T. ) ;
#157 = EDGE_CURVE ( 'NONE', #588, #919, #216, .T. ) ;
#158 = DIRECTION ( 'NONE',  ( 0.000000000000000000, 0.000000000000000000, 1.000000000000000000 ) ) ;
#159 = CARTESIAN_POINT ( 'NONE',  ( -36.64999999999999858, 5.649999999999994138, 6.000000000000000000 ) ) ;
#160 = ORIENTED_EDGE ( 'NONE', *, *, #644, .T. ) ;
#161 = AXIS2_PLACEMENT_3D ( 'NONE', #93, #407, #560 ) ;
#162 = CARTESIAN_POINT ( 'NONE',  ( -6.000000000000019540, 57.04999999999998295, 27.11016652059596765 ) ) ;
#163 = ORIENTED_EDGE ( 'NONE', *, *, #559, .F. ) ;
#164 = DIRECTION ( 'NONE',  ( 0.000000000000000000, 0.000000000000000000, 1.000000000000000000 ) ) ;
#165 = ORIENTED_EDGE ( 'NONE', *, *, #711, .F. ) ;
#166 = DIRECTION ( 'NONE',  ( -1.000000000000000000, -1.640400450096271510E-16, 0.000000000000000000 ) ) ;
#167 = ORIENTED_EDGE ( 'NONE', *, *, #814, .T. ) ;
#168 = CONICAL_SURFACE ( 'NONE', #978, 1.700000000000000178, 1.029744258676652979 ) ;
#169 = CARTESIAN_POINT ( 'NONE',  ( -36.29999999999997584, 57.04999999999998295, 23.71016652059598684 ) ) ;
#170 = ORIENTED_EDGE ( 'NONE', *, *, #597, .T. ) ;
#171 = APPLICATION_CONTEXT ( 'automotive_design' ) ;
#172 = AXIS2_PLACEMENT_3D ( 'NONE', #94, #652, #896 ) ;
#173 = CARTESIAN_POINT ( 'NONE',  ( -6.000000000000019540, 53.04999999999998295, 25.41016652059597547 ) ) ;
#174 = CARTESIAN_POINT ( 'NONE',  ( -6.000000000000019540, 53.04999999999998295, 27.11016652059597476 ) ) ;
#175 = ORIENTED_EDGE ( 'NONE', *, *, #269, .F. ) ;
#176 = CARTESIAN_POINT ( 'NONE',  ( -36.65000000000000568, 36.64999999999999858, 6.000000000000000000 ) ) ;
#177 = ORIENTED_EDGE ( 'NONE', *, *, #425, .F. ) ;
#178 = DIRECTION ( 'NONE',  ( 0.000000000000000000, -0.000000000000000000, 1.000000000000000000 ) ) ;
#179 = ADVANCED_FACE ( 'NONE', ( #724 ), #1045, .F. ) ;
#180 = CARTESIAN_POINT ( 'NONE',  ( -3.950000000000017941, 5.649999999999994138, 6.000000000000000000 ) ) ;
#181 = ORIENTED_EDGE ( 'NONE', *, *, #880, .F. ) ;
#182 = CYLINDRICAL_SURFACE ( 'NONE', #1046, 1.699999999999993072 ) ;
#183 = AXIS2_PLACEMENT_3D ( 'NONE', #744, #9, #750 ) ;
#184 = ADVANCED_FACE ( 'NONE', ( #650 ), #14, .F. ) ;
#185 = LINE ( 'NONE', #936, #218 ) ;
#186 = CARTESIAN_POINT ( 'NONE',  ( -6.000000000000019540, 57.04999999999998295, 27.11016652059596410 ) ) ;
#187 = ORIENTED_EDGE ( 'NONE', *, *, #799, .F. ) ;
#188 = VECTOR ( 'NONE', #420, 1000.000000000000000 ) ;
#189 = AXIS2_PLACEMENT_3D ( 'NONE', #106, #266, #357 ) ;
#190 = CARTESIAN_POINT ( 'NONE',  ( -5.650000000000009237, 36.64999999999999858, 6.000000000000000000 ) ) ;
#191 = LINE ( 'NONE', #609, #136 ) ;
#192 = CARTESIAN_POINT ( 'NONE',  ( -36.29999999999997584, 57.04999999999998295, 25.41016652059597547 ) ) ;
#193 = ORIENTED_EDGE ( 'NONE', *, *, #945, .F. ) ;
#194 = EDGE_CURVE ( 'NONE', #118, #592, #903, .T. ) ;
#195 = VERTEX_POINT ( 'NONE', #488 ) ;
#196 = LINE ( 'NONE', #426, #385 ) ;
#197 = DIRECTION ( 'NONE',  ( -0.000000000000000000, -0.000000000000000000, 1.000000000000000000 ) ) ;
#198 = DIRECTION ( 'NONE',  ( -0.000000000000000000, 1.000000000000000000, -1.949684284958172601E-16 ) ) ;
#199 = ORIENTED_EDGE ( 'NONE', *, *, #1035, .T. ) ;
#200 = ADVANCED_FACE ( 'NONE', ( #974 ), #168, .F. ) ;
#201 = DIRECTION ( 'NONE',  ( -0.000000000000000000, -0.000000000000000000, 1.000000000000000000 ) ) ;
#202 = EDGE_LOOP ( 'NONE', ( #406, #693 ) ) ;
#203 = LINE ( 'NONE', #128, #217 ) ;
#204 = CONICAL_SURFACE ( 'NONE', #432, 1.700000000000000178, 1.029744258676652979 ) ;
#205 = DIRECTION ( 'NONE',  ( 0.000000000000000000, 0.7651893786180983259, 0.6438052615892856378 ) ) ;
#206 = ORIENTED_EDGE ( 'NONE', *, *, #725, .T. ) ;
#207 = DIRECTION ( 'NONE',  ( 0.000000000000000000, 0.000000000000000000, 1.000000000000000000 ) ) ;
#208 = ORIENTED_EDGE ( 'NONE', *, *, #306, .F. ) ;
#209 = DIRECTION ( 'NONE',  ( -0.000000000000000000, 1.000000000000000000, -1.949684284958172601E-16 ) ) ;
#210 = CARTESIAN_POINT ( 'NONE',  ( -36.29999999999997584, 53.04999999999998295, 44.46566988549968613 ) ) ;
#211 = EDGE_CURVE ( 'NONE', #562, #583, #659, .T. ) ;
#212 = CARTESIAN_POINT ( 'NONE',  ( -3.950000000000017941, 5.649999999999994138, 0.000000000000000000 ) ) ;
#213 = ORIENTED_EDGE ( 'NONE', *, *, #925, .T. ) ;
#214 = DIRECTION ( 'NONE',  ( 0.000000000000000000, -0.000000000000000000, 1.000000000000000000 ) ) ;
#215 = DIRECTION ( 'NONE',  ( 0.000000000000000000, -0.7651893786180984369, -0.6438052615892854158 ) ) ;
#216 = CIRCLE ( 'NONE', #550, 1.699999999999989742 ) ;
#217 = VECTOR ( 'NONE', #769, 1000.000000000000000 ) ;
#218 = VECTOR ( 'NONE', #111, 1000.000000000000000 ) ;
#219 = CARTESIAN_POINT ( 'NONE',  ( 0.000000000000000000, 42.29999999999999005, 6.000000000000000000 ) ) ;
#220 = CARTESIAN_POINT ( 'NONE',  ( -42.29999999999999716, 0.000000000000000000, 0.000000000000000000 ) ) ;
#221 = FACE_BOUND ( 'NONE', #3, .T. ) ;
#222 = ADVANCED_FACE ( 'NONE', ( #73 ), #733, .F. ) ;
#223 = LINE ( 'NONE', #379, #287 ) ;
#224 = FACE_OUTER_BOUND ( 'NONE', #369, .T. ) ;
#225 = DIRECTION ( 'NONE',  ( -0.000000000000000000, 0.000000000000000000, -1.000000000000000000 ) ) ;
#226 = EDGE_CURVE ( 'NONE', #751, #238, #655, .T. ) ;
#227 = DIRECTION ( 'NONE',  ( -0.000000000000000000, -1.000000000000000000, -0.000000000000000000 ) ) ;
#228 = ORIENTED_EDGE ( 'NONE', *, *, #83, .T. ) ;
#229 = CARTESIAN_POINT ( 'NONE',  ( 0.000000000000000000, 57.04999999999999005, 49.46566988549971455 ) ) ;
#230 = EDGE_CURVE ( 'NONE', #689, #562, #672, .T. ) ;
#231 = CIRCLE ( 'NONE', #189, 1.699999999999986189 ) ;
#232 = ORIENTED_EDGE ( 'NONE', *, *, #30, .T. ) ;
#233 = AXIS2_PLACEMENT_3D ( 'NONE', #777, #344, #931 ) ;
#234 = DIRECTION ( 'NONE',  ( 0.000000000000000000, 0.000000000000000000, 1.000000000000000000 ) ) ;
#235 = VERTEX_POINT ( 'NONE', #174 ) ;
#236 = FACE_OUTER_BOUND ( 'NONE', #358, .T. ) ;
#237 = CARTESIAN_POINT ( 'NONE',  ( -36.29999999999997584, 57.04999999999998295, 44.46566988549968613 ) ) ;
#238 = VERTEX_POINT ( 'NONE', #334 ) ;
#239 = EDGE_CURVE ( 'NONE', #282, #256, #1043, .T. ) ;
#240 = LINE ( 'NONE', #317, #431 ) ;
#241 = ORIENTED_EDGE ( 'NONE', *, *, #688, .T. ) ;
#242 = DIRECTION ( 'NONE',  ( -0.000000000000000000, 1.000000000000000000, -1.949684284958172601E-16 ) ) ;
#243 = ORIENTED_EDGE ( 'NONE', *, *, #501, .T. ) ;
#244 = ORIENTED_EDGE ( 'NONE', *, *, #194, .T. ) ;
#245 = CARTESIAN_POINT ( 'NONE',  ( -36.29999999999997584, 57.04999999999998295, 44.46566988549968613 ) ) ;
#246 = ORIENTED_EDGE ( 'NONE', *, *, #48, .F. ) ;
#247 = DIRECTION ( 'NONE',  ( -0.000000000000000000, -0.000000000000000000, 1.000000000000000000 ) ) ;
#248 = ORIENTED_EDGE ( 'NONE', *, *, #737, .T. ) ;
#249 = ORIENTED_EDGE ( 'NONE', *, *, #612, .F. ) ;
#250 = CONICAL_SURFACE ( 'NONE', #532, 1.700000000000000178, 1.029744258676652979 ) ;
#251 = CARTESIAN_POINT ( 'NONE',  ( 0.000000000000000000, 0.000000000000000000, 0.000000000000000000 ) ) ;
#252 = ORIENTED_EDGE ( 'NONE', *, *, #703, .T. ) ;
#253 = CIRCLE ( 'NONE', #879, 1.700000000000000178 ) ;
#254 = CIRCLE ( 'NONE', #1017, 1.699999999999986189 ) ;
#255 = DIRECTION ( 'NONE',  ( 1.000000000000000000, 0.000000000000000000, 0.000000000000000000 ) ) ;
#256 = VERTEX_POINT ( 'NONE', #19 ) ;
#257 = ADVANCED_FACE ( 'NONE', ( #339 ), #741, .F. ) ;
#258 =( NAMED_UNIT ( * ) PLANE_ANGLE_UNIT ( ) SI_UNIT ( $, .RADIAN. ) );
#259 = ORIENTED_EDGE ( 'NONE', *, *, #269, .T. ) ;
#260 = DIRECTION ( 'NONE',  ( -1.000000000000000000, 0.000000000000000000, 0.000000000000000000 ) ) ;
#261 = ORIENTED_EDGE ( 'NONE', *, *, #315, .T. ) ;
#262 = DIRECTION ( 'NONE',  ( 0.000000000000000000, 0.5150380749100557098, 0.8571673007021114454 ) ) ;
#263 = ORIENTED_EDGE ( 'NONE', *, *, #884, .F. ) ;
#264 = ADVANCED_FACE ( 'NONE', ( #505 ), #250, .F. ) ;
#265 = LINE ( 'NONE', #526, #715 ) ;
#266 = DIRECTION ( 'NONE',  ( 0.000000000000000000, -0.000000000000000000, 1.000000000000000000 ) ) ;
#267 = CARTESIAN_POINT ( 'NONE',  ( 0.000000000000000000, 42.29999999999999005, 8.000000000000000000 ) ) ;
#268 = LINE ( 'NONE', #604, #270 ) ;
#269 = EDGE_CURVE ( 'NONE', #419, #331, #122, .T. ) ;
#270 = VECTOR ( 'NONE', #279, 1000.000000000000227 ) ;
#271 = CYLINDRICAL_SURFACE ( 'NONE', #25, 1.699999999999993072 ) ;
#272 = ORIENTED_EDGE ( 'NONE', *, *, #348, .F. ) ;
#273 = AXIS2_PLACEMENT_3D ( 'NONE', #731, #305, #58 ) ;
#274 = VECTOR ( 'NONE', #262, 1000.000000000000000 ) ;
#275 = SHAPE_DEFINITION_REPRESENTATION ( #341, #570 ) ;
#276 = VERTEX_POINT ( 'NONE', #664 ) ;
#277 = ORIENTED_EDGE ( 'NONE', *, *, #76, .F. ) ;
#278 = DIRECTION ( 'NONE',  ( -0.000000000000000000, -0.000000000000000000, 1.000000000000000000 ) ) ;
#279 = DIRECTION ( 'NONE',  ( 0.000000000000000000, 0.7651893786180983259, 0.6438052615892855268 ) ) ;
#280 = ADVANCED_FACE ( 'NONE', ( #669 ), #891, .F. ) ;
#281 = DIRECTION ( 'NONE',  ( 0.000000000000000000, 0.000000000000000000, 1.000000000000000000 ) ) ;
#282 = VERTEX_POINT ( 'NONE', #347 ) ;
#283 = VERTEX_POINT ( 'NONE', #902 ) ;
#284 = LINE ( 'NONE', #690, #699 ) ;
#285 = CARTESIAN_POINT ( 'NONE',  ( -36.29999999999997584, 53.04999999999998295, 46.16566988549968897 ) ) ;
#286 = EDGE_LOOP ( 'NONE', ( #829, #460, #835 ) ) ;
#287 = VECTOR ( 'NONE', #66, 1000.000000000000000 ) ;
#288 = ORIENTED_EDGE ( 'NONE', *, *, #30, .F. ) ;
#289 = CARTESIAN_POINT ( 'NONE',  ( -5.650000000000009237, 36.64999999999999858, 0.000000000000000000 ) ) ;
#290 = DIRECTION ( 'NONE',  ( 0.000000000000000000, 0.000000000000000000, 1.000000000000000000 ) ) ;
#291 = ORIENTED_EDGE ( 'NONE', *, *, #576, .T. ) ;
#292 = AXIS2_PLACEMENT_3D ( 'NONE', #142, #539, #885 ) ;
#293 = AXIS2_PLACEMENT_3D ( 'NONE', #303, #52, #709 ) ;
#294 = ADVANCED_FACE ( 'NONE', ( #82 ), #898, .F. ) ;
#295 = VECTOR ( 'NONE', #114, 1000.000000000000000 ) ;
#296 = DIRECTION ( 'NONE',  ( -2.763043524480544482E-33, -0.7651893786180983259, -0.6438052615892855268 ) ) ;
#297 = DIRECTION ( 'NONE',  ( -0.000000000000000000, 1.000000000000000000, -1.949684284958172601E-16 ) ) ;
#298 = FACE_OUTER_BOUND ( 'NONE', #202, .T. ) ;
#299 = ORIENTED_EDGE ( 'NONE', *, *, #551, .T. ) ;
#300 = ADVANCED_FACE ( 'NONE', ( #1 ), #914, .F. ) ;
#301 = FACE_OUTER_BOUND ( 'NONE', #961, .T. ) ;
#302 = CARTESIAN_POINT ( 'NONE',  ( -36.29999999999997584, 57.04999999999998295, 46.16566988549968187 ) ) ;
#303 = CARTESIAN_POINT ( 'NONE',  ( 0.000000000000000000, 42.29999999999999005, 6.000000000000000000 ) ) ;
#304 = DIRECTION ( 'NONE',  ( -0.000000000000000000, 1.000000000000000000, -1.949684284958172601E-16 ) ) ;
#305 = DIRECTION ( 'NONE',  ( -0.000000000000000000, -0.000000000000000000, 1.000000000000000000 ) ) ;
#306 = EDGE_CURVE ( 'NONE', #656, #320, #564, .T. ) ;
#307 =( NAMED_UNIT ( * ) SI_UNIT ( $, .STERADIAN. ) SOLID_ANGLE_UNIT ( ) );
#308 = VECTOR ( 'NONE', #910, 1000.000000000000000 ) ;
#309 = ORIENTED_EDGE ( 'NONE', *, *, #567, .T. ) ;
#310 = CIRCLE ( 'NONE', #123, 1.700000000000000178 ) ;
#311 = CONICAL_SURFACE ( 'NONE', #233, 1.700000000000000178, 1.029744258676652313 ) ;
#312 = LINE ( 'NONE', #467, #966 ) ;
#313 = CARTESIAN_POINT ( 'NONE',  ( -6.000000000000019540, 57.04999999999998295, 25.41016652059597547 ) ) ;
#314 = LINE ( 'NONE', #140, #417 ) ;
#315 = EDGE_CURVE ( 'NONE', #592, #148, #682, .T. ) ;
#316 = DIRECTION ( 'NONE',  ( -1.000000000000000000, 0.000000000000000000, 0.000000000000000000 ) ) ;
#317 = CARTESIAN_POINT ( 'NONE',  ( 0.000000000000000000, 57.04999999999999005, 56.00000000000000000 ) ) ;
#318 = VERTEX_POINT ( 'NONE', #229 ) ;
#319 = FACE_OUTER_BOUND ( 'NONE', #901, .T. ) ;
#320 = VERTEX_POINT ( 'NONE', #760 ) ;
#321 = DIRECTION ( 'NONE',  ( 0.000000000000000000, 0.000000000000000000, 1.000000000000000000 ) ) ;
#322 = EDGE_CURVE ( 'NONE', #937, #705, #793, .T. ) ;
#323 = DIRECTION ( 'NONE',  ( 0.000000000000000000, 0.000000000000000000, 1.000000000000000000 ) ) ;
#324 = EDGE_LOOP ( 'NONE', ( #878, #922, #199, #691 ) ) ;
#325 = AXIS2_PLACEMENT_3D ( 'NONE', #112, #596, #533 ) ;
#326 = FACE_BOUND ( 'NONE', #990, .T. ) ;
#327 = EDGE_LOOP ( 'NONE', ( #753, #249, #1013, #309 ) ) ;
#328 = FACE_OUTER_BOUND ( 'NONE', #673, .T. ) ;
#329 = ORIENTED_EDGE ( 'NONE', *, *, #867, .F. ) ;
#330 = DIRECTION ( 'NONE',  ( -0.000000000000000000, 1.000000000000000000, -1.949684284958172601E-16 ) ) ;
#331 = VERTEX_POINT ( 'NONE', #992 ) ;
#332 = DIRECTION ( 'NONE',  ( 0.000000000000000000, -1.949684284958172601E-16, -1.000000000000000000 ) ) ;
#333 = EDGE_LOOP ( 'NONE', ( #482, #39 ) ) ;
#334 = CARTESIAN_POINT ( 'NONE',  ( -36.29999999999997584, 57.04999999999998295, 42.76566988549969750 ) ) ;
#335 = CARTESIAN_POINT ( 'NONE',  ( -42.29999999999999716, 57.04999999999998295, 20.41016652059597192 ) ) ;
#336 = DIRECTION ( 'NONE',  ( 0.000000000000000000, 0.000000000000000000, 1.000000000000000000 ) ) ;
#337 = VERTEX_POINT ( 'NONE', #815 ) ;
#338 = EDGE_CURVE ( 'NONE', #95, #663, #947, .T. ) ;
#339 = FACE_OUTER_BOUND ( 'NONE', #832, .T. ) ;
#340 = ORIENTED_EDGE ( 'NONE', *, *, #494, .T. ) ;
#341 = PRODUCT_DEFINITION_SHAPE ( 'NONE', 'NONE',  #1011 ) ;
#342 = VERTEX_POINT ( 'NONE', #487 ) ;
#343 = AXIS2_PLACEMENT_3D ( 'NONE', #159, #85, #415 ) ;
#344 = DIRECTION ( 'NONE',  ( -0.000000000000000000, 1.000000000000000000, -1.949684284958172601E-16 ) ) ;
#345 = EDGE_LOOP ( 'NONE', ( #177, #241, #738 ) ) ;
#346 = VECTOR ( 'NONE', #4, 1000.000000000000000 ) ;
#347 = CARTESIAN_POINT ( 'NONE',  ( -3.950000000000021050, 36.64999999999999858, 0.000000000000000000 ) ) ;
#348 = EDGE_CURVE ( 'NONE', #443, #593, #605, .T. ) ;
#349 = DIRECTION ( 'NONE',  ( 1.049727191138617340E-16, 0.5150380749100558209, -0.8571673007021113344 ) ) ;
#350 = CARTESIAN_POINT ( 'NONE',  ( -38.34999999999999432, 5.649999999999994138, 6.000000000000001776 ) ) ;
#351 = ORIENTED_EDGE ( 'NONE', *, *, #814, .F. ) ;
#352 = ADVANCED_FACE ( 'NONE', ( #328 ), #577, .F. ) ;
#353 = VERTEX_POINT ( 'NONE', #831 ) ;
#354 = FACE_OUTER_BOUND ( 'NONE', #696, .T. ) ;
#355 = ORIENTED_EDGE ( 'NONE', *, *, #838, .T. ) ;
#356 = AXIS2_PLACEMENT_3D ( 'NONE', #969, #963, #50 ) ;
#357 = DIRECTION ( 'NONE',  ( 1.000000000000000000, 0.000000000000000000, 0.000000000000000000 ) ) ;
#358 = EDGE_LOOP ( 'NONE', ( #785, #21, #895, #619 ) ) ;
#359 = ORIENTED_EDGE ( 'NONE', *, *, #425, .T. ) ;
#360 = ORIENTED_EDGE ( 'NONE', *, *, #43, .F. ) ;
#361 = CARTESIAN_POINT ( 'NONE',  ( -36.29999999999997584, 53.04999999999998295, 44.46566988549968613 ) ) ;
#362 = VECTOR ( 'NONE', #862, 1000.000000000000000 ) ;
#363 = CARTESIAN_POINT ( 'NONE',  ( -6.000000000000019540, 57.04999999999998295, 44.46566988549968613 ) ) ;
#364 = ORIENTED_EDGE ( 'NONE', *, *, #486, .F. ) ;
#365 = MECHANICAL_DESIGN_GEOMETRIC_PRESENTATION_REPRESENTATION (  '', ( #478 ), #108 ) ;
#366 = VECTOR ( 'NONE', #296, 1000.000000000000227 ) ;
#367 = EDGE_LOOP ( 'NONE', ( #549, #288, #569, #660 ) ) ;
#368 = DIRECTION ( 'NONE',  ( -0.000000000000000000, -0.000000000000000000, 1.000000000000000000 ) ) ;
#369 = EDGE_LOOP ( 'NONE', ( #1024, #187, #248, #982 ) ) ;
#370 = DIRECTION ( 'NONE',  ( -0.000000000000000000, -0.000000000000000000, 1.000000000000000000 ) ) ;
#371 = VERTEX_POINT ( 'NONE', #96 ) ;
#372 = PRODUCT ( 'ELP-0062', 'ELP-0062', '', ( #921 ) ) ;
#373 = CARTESIAN_POINT ( 'NONE',  ( -38.34999999999999432, 36.64999999999999858, 6.000000000000000000 ) ) ;
#374 = ORIENTED_EDGE ( 'NONE', *, *, #389, .F. ) ;
#375 = CARTESIAN_POINT ( 'NONE',  ( -36.29999999999997584, 53.04999999999998295, 23.71016652059597263 ) ) ;
#376 = ORIENTED_EDGE ( 'NONE', *, *, #43, .T. ) ;
#377 = EDGE_CURVE ( 'NONE', #337, #813, #908, .T. ) ;
#378 = APPLICATION_CONTEXT ( 'automotive_design' ) ;
#379 = CARTESIAN_POINT ( 'NONE',  ( -6.000000000000019540, 57.04999999999998295, 42.76566988549969039 ) ) ;
#380 = PLANE ( 'NONE',  #997 ) ;
#381 = SURFACE_STYLE_USAGE ( .BOTH. , #469 ) ;
#382 = AXIS2_PLACEMENT_3D ( 'NONE', #500, #178, #836 ) ;
#383 = EDGE_CURVE ( 'NONE', #320, #331, #203, .T. ) ;
#384 = AXIS2_PLACEMENT_3D ( 'NONE', #1038, #1041, #207 ) ;
#385 = VECTOR ( 'NONE', #27, 1000.000000000000000 ) ;
#386 = CARTESIAN_POINT ( 'NONE',  ( -6.000000000000019540, 57.04999999999998295, 23.71016652059597973 ) ) ;
#387 = DIRECTION ( 'NONE',  ( 0.000000000000000000, 0.000000000000000000, 1.000000000000000000 ) ) ;
#388 = CARTESIAN_POINT ( 'NONE',  ( 1.527422417919623873E-31, 42.29999999999999716, 0.000000000000000000 ) ) ;
#389 = EDGE_CURVE ( 'NONE', #566, #195, #436, .T. ) ;
#390 = DIRECTION ( 'NONE',  ( -0.000000000000000000, -0.000000000000000000, 1.000000000000000000 ) ) ;
#391 = CARTESIAN_POINT ( 'NONE',  ( -34.95000000000002416, 36.64999999999999858, 0.000000000000000000 ) ) ;
#392 = FACE_OUTER_BOUND ( 'NONE', #946, .T. ) ;
#393 = LINE ( 'NONE', #712, #940 ) ;
#394 = DIRECTION ( 'NONE',  ( 1.000000000000000000, 0.000000000000000000, 0.000000000000000000 ) ) ;
#395 = EDGE_CURVE ( 'NONE', #195, #807, #49, .T. ) ;
#396 = CARTESIAN_POINT ( 'NONE',  ( -42.29999999999999716, 42.29999999999999005, 0.000000000000000000 ) ) ;
#397 = AXIS2_PLACEMENT_3D ( 'NONE', #872, #1026, #290 ) ;
#398 = AXIS2_PLACEMENT_3D ( 'NONE', #681, #1001, #103 ) ;
#399 = FACE_OUTER_BOUND ( 'NONE', #113, .T. ) ;
#400 = CARTESIAN_POINT ( 'NONE',  ( -6.000000000000019540, 53.04999999999998295, 44.46566988549968613 ) ) ;
#401 = ORIENTED_EDGE ( 'NONE', *, *, #617, .F. ) ;
#402 = CARTESIAN_POINT ( 'NONE',  ( 0.000000000000000000, 57.04999999999999005, 56.00000000000000000 ) ) ;
#403 = VERTEX_POINT ( 'NONE', #186 ) ;
#404 = DIRECTION ( 'NONE',  ( -0.000000000000000000, -0.000000000000000000, 1.000000000000000000 ) ) ;
#405 = EDGE_CURVE ( 'NONE', #276, #663, #1007, .T. ) ;
#406 = ORIENTED_EDGE ( 'NONE', *, *, #377, .F. ) ;
#407 = DIRECTION ( 'NONE',  ( -0.000000000000000000, -0.000000000000000000, 1.000000000000000000 ) ) ;
#408 = DIRECTION ( 'NONE',  ( -0.000000000000000000, 1.000000000000000000, -1.949684284958172601E-16 ) ) ;
#409 = VECTOR ( 'NONE', #138, 1000.000000000000000 ) ;
#410 = EDGE_LOOP ( 'NONE', ( #519, #1055, #935, #857, #65, #181 ) ) ;
#411 = PLANE ( 'NONE',  #979 ) ;
#412 = DIRECTION ( 'NONE',  ( -0.000000000000000000, 1.000000000000000000, -1.949684284958172601E-16 ) ) ;
#413 = VECTOR ( 'NONE', #28, 1000.000000000000000 ) ;
#414 = CARTESIAN_POINT ( 'NONE',  ( -7.349999999999993427, 5.649999999999994138, 0.000000000000000000 ) ) ;
#415 = DIRECTION ( 'NONE',  ( 1.000000000000000000, 0.000000000000000000, 0.000000000000000000 ) ) ;
#416 = EDGE_LOOP ( 'NONE', ( #163, #996, #968, #927 ) ) ;
#417 = VECTOR ( 'NONE', #960, 1000.000000000000000 ) ;
#418 = DIRECTION ( 'NONE',  ( 0.000000000000000000, 0.000000000000000000, 1.000000000000000000 ) ) ;
#419 = VERTEX_POINT ( 'NONE', #350 ) ;
#420 = DIRECTION ( 'NONE',  ( -0.000000000000000000, -0.000000000000000000, -1.000000000000000000 ) ) ;
#421 = ORIENTED_EDGE ( 'NONE', *, *, #998, .T. ) ;
#422 = ADVANCED_FACE ( 'NONE', ( #780 ), #518, .F. ) ;
#423 = VERTEX_POINT ( 'NONE', #773 ) ;
#424 = CARTESIAN_POINT ( 'NONE',  ( -42.29999999999999716, 0.000000000000000000, 6.000000000000000000 ) ) ;
#425 = EDGE_CURVE ( 'NONE', #371, #235, #616, .T. ) ;
#426 = CARTESIAN_POINT ( 'NONE',  ( 0.000000000000000000, 0.000000000000000000, 6.000000000000000000 ) ) ;
#427 = DIRECTION ( 'NONE',  ( 0.000000000000000000, -0.000000000000000000, 1.000000000000000000 ) ) ;
#428 = AXIS2_PLACEMENT_3D ( 'NONE', #173, #591, #321 ) ;
#429 = CARTESIAN_POINT ( 'NONE',  ( -37.29999999999996163, 57.04999999999999005, 56.00000000000000000 ) ) ;
#430 = LINE ( 'NONE', #765, #413 ) ;
#431 = VECTOR ( 'NONE', #332, 1000.000000000000000 ) ;
#432 = AXIS2_PLACEMENT_3D ( 'NONE', #620, #304, #452 ) ;
#433 = DIRECTION ( 'NONE',  ( -0.000000000000000000, 1.000000000000000000, -1.949684284958172601E-16 ) ) ;
#434 = EDGE_CURVE ( 'NONE', #342, #110, #450, .T. ) ;
#435 = DIRECTION ( 'NONE',  ( -1.000000000000000000, 3.610927701937645169E-33, 0.000000000000000000 ) ) ;
#436 = LINE ( 'NONE', #449, #1016 ) ;
#437 = VERTEX_POINT ( 'NONE', #527 ) ;
#438 = ADVANCED_FACE ( 'NONE', ( #858 ), #271, .F. ) ;
#439 = ORIENTED_EDGE ( 'NONE', *, *, #315, .F. ) ;
#440 = CARTESIAN_POINT ( 'NONE',  ( -38.34999999999999432, 36.64999999999999858, 6.000000000000001776 ) ) ;
#441 = AXIS2_PLACEMENT_3D ( 'NONE', #462, #786, #205 ) ;
#442 = DIRECTION ( 'NONE',  ( -0.000000000000000000, 1.000000000000000000, -1.949684284958172601E-16 ) ) ;
#443 = VERTEX_POINT ( 'NONE', #375 ) ;
#444 = APPLICATION_PROTOCOL_DEFINITION ( 'draft international standard', 'automotive_design', 1998, #378 ) ;
#445 = ORIENTED_EDGE ( 'NONE', *, *, #933, .T. ) ;
#446 = LINE ( 'NONE', #530, #295 ) ;
#447 = ORIENTED_EDGE ( 'NONE', *, *, #11, .T. ) ;
#448 = AXIS2_PLACEMENT_3D ( 'NONE', #313, #330, #323 ) ;
#449 = CARTESIAN_POINT ( 'NONE',  ( -4.999999999999996447, 57.04999999999999005, 56.00000000000000000 ) ) ;
#450 = CIRCLE ( 'NONE', #714, 1.699999999999986189 ) ;
#451 = CIRCLE ( 'NONE', #398, 1.699999999999987965 ) ;
#452 = DIRECTION ( 'NONE',  ( 0.000000000000000000, 0.000000000000000000, 1.000000000000000000 ) ) ;
#453 = CARTESIAN_POINT ( 'NONE',  ( -36.29999999999997584, 53.04999999999998295, 42.76566988549968329 ) ) ;
#454 = EDGE_CURVE ( 'NONE', #485, #778, #253, .T. ) ;
#455 = DIRECTION ( 'NONE',  ( 0.000000000000000000, -0.000000000000000000, 1.000000000000000000 ) ) ;
#456 = CARTESIAN_POINT ( 'NONE',  ( -42.29999999999999716, 57.04999999999999005, 56.00000000000000000 ) ) ;
#457 = FACE_OUTER_BOUND ( 'NONE', #670, .T. ) ;
#458 = ADVANCED_FACE ( 'NONE', ( #766 ), #182, .F. ) ;
#459 = FILL_AREA_STYLE_COLOUR ( '', #624 ) ;
#460 = ORIENTED_EDGE ( 'NONE', *, *, #805, .T. ) ;
#461 = CIRCLE ( 'NONE', #183, 1.699999999999989742 ) ;
#462 = CARTESIAN_POINT ( 'NONE',  ( 0.000000000000000000, 42.29999999999999005, 8.000000000000000000 ) ) ;
#463 = DIRECTION ( 'NONE',  ( 1.000000000000000000, 1.640400450096271510E-16, 0.000000000000000000 ) ) ;
#464 =( LENGTH_UNIT ( ) NAMED_UNIT ( * ) SI_UNIT ( .MILLI., .METRE. ) );
#465 = VECTOR ( 'NONE', #521, 1000.000000000000227 ) ;
#466 = EDGE_CURVE ( 'NONE', #1042, #504, #552, .T. ) ;
#467 = CARTESIAN_POINT ( 'NONE',  ( -42.29999999999999716, 42.29999999999999005, 8.000000000000000000 ) ) ;
#468 = CARTESIAN_POINT ( 'NONE',  ( -36.64999999999999858, 5.649999999999994138, 0.000000000000000000 ) ) ;
#469 = SURFACE_SIDE_STYLE ('',( #632 ) ) ;
#470 = EDGE_CURVE ( 'NONE', #110, #342, #231, .T. ) ;
#471 = DIRECTION ( 'NONE',  ( -0.000000000000000000, -0.000000000000000000, 1.000000000000000000 ) ) ;
#472 = CARTESIAN_POINT ( 'NONE',  ( 1.527422417919623873E-31, 42.29999999999999716, 6.000000000000000000 ) ) ;
#473 = DIRECTION ( 'NONE',  ( -1.000000000000000000, 0.000000000000000000, 0.000000000000000000 ) ) ;
#474 = UNCERTAINTY_MEASURE_WITH_UNIT (LENGTH_MEASURE( 1.000000000000000082E-05 ), #671, 'distance_accuracy_value', 'NONE');
#475 = CARTESIAN_POINT ( 'NONE',  ( -42.29999999999999716, 2.233760411813301427, 3.345082677209399336 ) ) ;
#476 = ORIENTED_EDGE ( 'NONE', *, *, #322, .T. ) ;
#477 = CONICAL_SURFACE ( 'NONE', #621, 1.700000000000000178, 1.029744258676652313 ) ;
#478 = STYLED_ITEM ( 'NONE', ( #135 ), #522 ) ;
#479 = VECTOR ( 'NONE', #278, 1000.000000000000000 ) ;
#480 = ADVANCED_FACE ( 'NONE', ( #926 ), #847, .F. ) ;
#481 = FACE_OUTER_BOUND ( 'NONE', #949, .T. ) ;
#482 = ORIENTED_EDGE ( 'NONE', *, *, #649, .F. ) ;
#483 = DIRECTION ( 'NONE',  ( -0.000000000000000000, 1.000000000000000000, -1.949684284958172601E-16 ) ) ;
#484 = CYLINDRICAL_SURFACE ( 'NONE', #657, 1.699999999999993072 ) ;
#485 = VERTEX_POINT ( 'NONE', #523 ) ;
#486 = EDGE_CURVE ( 'NONE', #593, #913, #853, .T. ) ;
#487 = CARTESIAN_POINT ( 'NONE',  ( -38.34999999999999432, 36.64999999999999858, 0.000000000000000000 ) ) ;
#488 = CARTESIAN_POINT ( 'NONE',  ( -4.999999999999996447, 57.04999999999999005, 56.00000000000000000 ) ) ;
#489 = VERTEX_POINT ( 'NONE', #610 ) ;
#490 = CARTESIAN_POINT ( 'NONE',  ( -36.29999999999997584, 53.04999999999998295, 27.11016652059597476 ) ) ;
#491 = ORIENTED_EDGE ( 'NONE', *, *, #131, .T. ) ;
#492 = DIRECTION ( 'NONE',  ( 0.000000000000000000, 0.000000000000000000, -1.000000000000000000 ) ) ;
#493 = ORIENTED_EDGE ( 'NONE', *, *, #661, .F. ) ;
#494 = EDGE_CURVE ( 'NONE', #235, #675, #90, .T. ) ;
#495 = VECTOR ( 'NONE', #555, 1000.000000000000000 ) ;
#496 = DIRECTION ( 'NONE',  ( 0.000000000000000000, 0.000000000000000000, 1.000000000000000000 ) ) ;
#497 = VECTOR ( 'NONE', #209, 1000.000000000000000 ) ;
#498 = CARTESIAN_POINT ( 'NONE',  ( -6.000000000000020428, 52.02853694765313008, 44.46566988549968613 ) ) ;
#499 = ORIENTED_EDGE ( 'NONE', *, *, #434, .F. ) ;
#500 = CARTESIAN_POINT ( 'NONE',  ( -36.64999999999999858, 5.649999999999994138, 0.000000000000000000 ) ) ;
#501 = EDGE_CURVE ( 'NONE', #601, #913, #843, .T. ) ;
#502 = DIRECTION ( 'NONE',  ( -0.000000000000000000, 1.000000000000000000, -1.949684284958172601E-16 ) ) ;
#503 = ORIENTED_EDGE ( 'NONE', *, *, #454, .F. ) ;
#504 = VERTEX_POINT ( 'NONE', #212 ) ;
#505 = FACE_OUTER_BOUND ( 'NONE', #18, .T. ) ;
#506 = ORIENTED_EDGE ( 'NONE', *, *, #871, .T. ) ;
#507 = CARTESIAN_POINT ( 'NONE',  ( -36.29999999999997584, 57.04999999999998295, 46.16566988549967476 ) ) ;
#508 = ORIENTED_EDGE ( 'NONE', *, *, #612, .T. ) ;
#509 = EDGE_CURVE ( 'NONE', #353, #593, #314, .T. ) ;
#510 = DIRECTION ( 'NONE',  ( 1.000000000000000000, 0.000000000000000000, 0.000000000000000000 ) ) ;
#511 = DIRECTION ( 'NONE',  ( 1.000000000000000000, 0.000000000000000000, 0.000000000000000000 ) ) ;
#512 = CIRCLE ( 'NONE', #694, 1.699999999999993072 ) ;
#513 = FACE_OUTER_BOUND ( 'NONE', #541, .T. ) ;
#514 = CARTESIAN_POINT ( 'NONE',  ( -6.000000000000019540, 53.04999999999998295, 44.46566988549968613 ) ) ;
#515 = VECTOR ( 'NONE', #227, 1000.000000000000000 ) ;
#516 = ADVANCED_FACE ( 'NONE', ( #392 ), #721, .T. ) ;
#517 = AXIS2_PLACEMENT_3D ( 'NONE', #976, #889, #904 ) ;
#518 = CYLINDRICAL_SURFACE ( 'NONE', #325, 1.699999999999993072 ) ;
#519 = ORIENTED_EDGE ( 'NONE', *, *, #626, .F. ) ;
#520 = DIRECTION ( 'NONE',  ( -0.000000000000000000, 1.000000000000000000, -1.949684284958172601E-16 ) ) ;
#521 = DIRECTION ( 'NONE',  ( 0.000000000000000000, -0.7651893786180984369, -0.6438052615892854158 ) ) ;
#522 = MANIFOLD_SOLID_BREP ( 'Foro per Vite M3-2', #23 ) ;
#523 = CARTESIAN_POINT ( 'NONE',  ( -6.000000000000019540, 53.04999999999998295, 42.76566988549968329 ) ) ;
#524 = EDGE_LOOP ( 'NONE', ( #1019, #89 ) ) ;
#525 = APPLICATION_PROTOCOL_DEFINITION ( 'draft international standard', 'automotive_design', 1998, #171 ) ;
#526 = CARTESIAN_POINT ( 'NONE',  ( -23.52548229089657283, 57.04999999999999716, 74.00144917586229099 ) ) ;
#527 = CARTESIAN_POINT ( 'NONE',  ( 0.000000000000000000, 0.000000000000000000, 1.465669885499705005 ) ) ;
#528 = ORIENTED_EDGE ( 'NONE', *, *, #76, .T. ) ;
#529 = ADVANCED_FACE ( 'NONE', ( #132, #221, #883, #143, #886 ), #60, .F. ) ;
#530 = CARTESIAN_POINT ( 'NONE',  ( 0.000000000000000000, 57.04999999999998295, 20.41016652059597192 ) ) ;
#531 = ORIENTED_EDGE ( 'NONE', *, *, #24, .T. ) ;
#532 = AXIS2_PLACEMENT_3D ( 'NONE', #893, #242, #234 ) ;
#533 = DIRECTION ( 'NONE',  ( 0.000000000000000000, 0.000000000000000000, 1.000000000000000000 ) ) ;
#534 = VERTEX_POINT ( 'NONE', #794 ) ;
#535 = AXIS2_PLACEMENT_3D ( 'NONE', #934, #370, #44 ) ;
#536 = AXIS2_PLACEMENT_3D ( 'NONE', #1005, #435, #768 ) ;
#537 = EDGE_CURVE ( 'NONE', #403, #816, #860, .T. ) ;
#538 = DIRECTION ( 'NONE',  ( -0.000000000000000000, -0.000000000000000000, -1.000000000000000000 ) ) ;
#539 = DIRECTION ( 'NONE',  ( 0.7071067811865487940, -0.4552390662333619664, 0.5410705985127770568 ) ) ;
#540 = FACE_OUTER_BOUND ( 'NONE', #977, .T. ) ;
#541 = EDGE_LOOP ( 'NONE', ( #401, #854, #826, #546 ) ) ;
#542 = LINE ( 'NONE', #126, #729 ) ;
#543 = DIRECTION ( 'NONE',  ( 0.000000000000000000, -0.000000000000000000, 1.000000000000000000 ) ) ;
#544 = ADVANCED_FACE ( 'NONE', ( #298 ), #64, .T. ) ;
#545 = DIRECTION ( 'NONE',  ( 0.000000000000000000, 0.000000000000000000, 1.000000000000000000 ) ) ;
#546 = ORIENTED_EDGE ( 'NONE', *, *, #959, .T. ) ;
#547 = DIRECTION ( 'NONE',  ( 0.6076923720196031331, -1.548385668859252593E-16, -0.7941725133679635729 ) ) ;
#548 = FACE_OUTER_BOUND ( 'NONE', #645, .T. ) ;
#549 = ORIENTED_EDGE ( 'NONE', *, *, #230, .F. ) ;
#550 = AXIS2_PLACEMENT_3D ( 'NONE', #882, #801, #394 ) ;
#551 = EDGE_CURVE ( 'NONE', #593, #443, #310, .T. ) ;
#552 = CIRCLE ( 'NONE', #828, 1.699999999999987965 ) ;
#553 = CIRCLE ( 'NONE', #763, 1.699999999999986189 ) ;
#554 = LINE ( 'NONE', #865, #366 ) ;
#555 = DIRECTION ( 'NONE',  ( -0.000000000000000000, 1.000000000000000000, -1.949684284958172601E-16 ) ) ;
#556 = LINE ( 'NONE', #1047, #70 ) ;
#557 = DIRECTION ( 'NONE',  ( -0.000000000000000000, 1.000000000000000000, -1.949684284958172601E-16 ) ) ;
#558 = DIRECTION ( 'NONE',  ( 1.000000000000000000, 0.000000000000000000, -0.000000000000000000 ) ) ;
#559 = EDGE_CURVE ( 'NONE', #675, #235, #728, .T. ) ;
#560 = DIRECTION ( 'NONE',  ( 1.000000000000000000, 0.000000000000000000, 0.000000000000000000 ) ) ;
#561 = CARTESIAN_POINT ( 'NONE',  ( -38.34999999999999432, 5.649999999999994138, 0.000000000000000000 ) ) ;
#562 = VERTEX_POINT ( 'NONE', #388 ) ;
#563 = CARTESIAN_POINT ( 'NONE',  ( -5.650000000000009237, 36.64999999999999858, 0.000000000000000000 ) ) ;
#564 = CIRCLE ( 'NONE', #382, 1.699999999999993072 ) ;
#565 = VECTOR ( 'NONE', #29, 1000.000000000000000 ) ;
#566 = VERTEX_POINT ( 'NONE', #951 ) ;
#567 = EDGE_CURVE ( 'NONE', #705, #937, #999, .T. ) ;
#568 = CARTESIAN_POINT ( 'NONE',  ( -42.29999999999999716, 0.000000000000000000, 1.465669885499683245 ) ) ;
#569 = ORIENTED_EDGE ( 'NONE', *, *, #644, .F. ) ;
#570 = ADVANCED_BREP_SHAPE_REPRESENTATION ( 'ELP-0062', ( #522, #1008 ), #1009 ) ;
#571 = DIRECTION ( 'NONE',  ( -0.000000000000000000, 1.000000000000000000, -1.949684284958172601E-16 ) ) ;
#572 = ORIENTED_EDGE ( 'NONE', *, *, #83, .F. ) ;
#573 = ORIENTED_EDGE ( 'NONE', *, *, #466, .F. ) ;
#574 = CARTESIAN_POINT ( 'NONE',  ( -7.349999999999995204, 5.649999999999994138, 6.000000000000001776 ) ) ;
#575 = ORIENTED_EDGE ( 'NONE', *, *, #152, .T. ) ;
#576 = EDGE_CURVE ( 'NONE', #566, #118, #556, .T. ) ;
#577 = CYLINDRICAL_SURFACE ( 'NONE', #965, 1.699999999999993072 ) ;
#578 = CIRCLE ( 'NONE', #356, 1.699999999999989742 ) ;
#579 = DIRECTION ( 'NONE',  ( -0.000000000000000000, 1.000000000000000000, -1.949684284958172601E-16 ) ) ;
#580 = LINE ( 'NONE', #162, #153 ) ;
#581 = ORIENTED_EDGE ( 'NONE', *, *, #434, .T. ) ;
#582 = DIRECTION ( 'NONE',  ( 1.000000000000000000, 0.000000000000000000, 0.000000000000000000 ) ) ;
#583 = VERTEX_POINT ( 'NONE', #396 ) ;
#584 = ADVANCED_FACE ( 'NONE', ( #540 ), #726, .F. ) ;
#585 = AXIS2_PLACEMENT_3D ( 'NONE', #563, #427, #987 ) ;
#586 = VECTOR ( 'NONE', #442, 1000.000000000000000 ) ;
#587 = CARTESIAN_POINT ( 'NONE',  ( 0.000000000000000000, 0.000000000000000000, 0.000000000000000000 ) ) ;
#588 = VERTEX_POINT ( 'NONE', #1051 ) ;
#589 = DIRECTION ( 'NONE',  ( 0.000000000000000000, 0.000000000000000000, 1.000000000000000000 ) ) ;
#590 = ORIENTED_EDGE ( 'NONE', *, *, #567, .F. ) ;
#591 = DIRECTION ( 'NONE',  ( -0.000000000000000000, 1.000000000000000000, -1.949684284958172601E-16 ) ) ;
#592 = VERTEX_POINT ( 'NONE', #568 ) ;
#593 = VERTEX_POINT ( 'NONE', #490 ) ;
#594 = LINE ( 'NONE', #918, #1000 ) ;
#595 = EDGE_LOOP ( 'NONE', ( #272, #506, #243, #364 ) ) ;
#596 = DIRECTION ( 'NONE',  ( -0.000000000000000000, 1.000000000000000000, -1.949684284958172601E-16 ) ) ;
#597 = EDGE_CURVE ( 'NONE', #235, #403, #580, .T. ) ;
#598 = EDGE_LOOP ( 'NONE', ( #277, #329, #789, #374 ) ) ;
#599 = CARTESIAN_POINT ( 'NONE',  ( -6.000000000000019540, 53.04999999999998295, 42.76566988549968329 ) ) ;
#600 = CARTESIAN_POINT ( 'NONE',  ( 0.000000000000000000, 57.04999999999999005, 56.00000000000000000 ) ) ;
#601 = VERTEX_POINT ( 'NONE', #169 ) ;
#602 = AXIS2_PLACEMENT_3D ( 'NONE', #958, #297, #628 ) ;
#603 = DIRECTION ( 'NONE',  ( -0.000000000000000000, -0.000000000000000000, -1.000000000000000000 ) ) ;
#604 = CARTESIAN_POINT ( 'NONE',  ( -42.29999999999999716, 60.26902630794642590, 52.17405310690948994 ) ) ;
#605 = CIRCLE ( 'NONE', #809, 1.700000000000000178 ) ;
#606 = CARTESIAN_POINT ( 'NONE',  ( -5.650000000000005684, 5.649999999999994138, 0.000000000000000000 ) ) ;
#607 = EDGE_LOOP ( 'NONE', ( #165, #528, #291, #244, #261, #232 ) ) ;
#608 = CARTESIAN_POINT ( 'NONE',  ( -6.000000000000019540, 53.04999999999998295, 46.16566988549968897 ) ) ;
#609 = CARTESIAN_POINT ( 'NONE',  ( -7.349999999999993427, 5.649999999999994138, 6.000000000000000000 ) ) ;
#610 = CARTESIAN_POINT ( 'NONE',  ( 0.000000000000000000, 57.04999999999998295, 20.41016652059597192 ) ) ;
#611 = ORIENTED_EDGE ( 'NONE', *, *, #466, .T. ) ;
#612 = EDGE_CURVE ( 'NONE', #778, #485, #762, .T. ) ;
#613 = EDGE_LOOP ( 'NONE', ( #263, #86, #890, #252 ) ) ;
#614 = DIRECTION ( 'NONE',  ( -0.000000000000000000, 1.000000000000000000, -1.949684284958172601E-16 ) ) ;
#615 = LINE ( 'NONE', #942, #465 ) ;
#616 = LINE ( 'NONE', #864, #638 ) ;
#617 = EDGE_CURVE ( 'NONE', #256, #588, #662, .T. ) ;
#618 = ORIENTED_EDGE ( 'NONE', *, *, #383, .F. ) ;
#619 = ORIENTED_EDGE ( 'NONE', *, *, #1004, .F. ) ;
#620 = CARTESIAN_POINT ( 'NONE',  ( -36.29999999999997584, 53.04999999999998295, 25.41016652059597547 ) ) ;
#621 = AXIS2_PLACEMENT_3D ( 'NONE', #514, #932, #1022 ) ;
#622 = DIRECTION ( 'NONE',  ( -0.000000000000000000, 1.000000000000000000, -1.949684284958172601E-16 ) ) ;
#623 = ORIENTED_EDGE ( 'NONE', *, *, #838, .F. ) ;
#624 = COLOUR_RGB ( '',0.7921568627450980005, 0.8196078431372548767, 0.9333333333333333481 ) ;
#625 = CIRCLE ( 'NONE', #109, 1.699999999999989742 ) ;
#626 = EDGE_CURVE ( 'NONE', #318, #489, #240, .T. ) ;
#627 = DIRECTION ( 'NONE',  ( -0.000000000000000000, 1.000000000000000000, -1.949684284958172601E-16 ) ) ;
#628 = DIRECTION ( 'NONE',  ( 0.000000000000000000, 0.000000000000000000, 1.000000000000000000 ) ) ;
#629 = CARTESIAN_POINT ( 'NONE',  ( 0.000000000000000000, 42.29999999999999005, 6.000000000000000000 ) ) ;
#630 = LINE ( 'NONE', #717, #863 ) ;
#631 = ADVANCED_FACE ( 'NONE', ( #648, #912, #154, #326, #481 ), #411, .T. ) ;
#632 = SURFACE_STYLE_FILL_AREA ( #72 ) ;
#633 = VECTOR ( 'NONE', #634, 1000.000000000000000 ) ;
#634 = DIRECTION ( 'NONE',  ( 0.000000000000000000, -1.949684284958172601E-16, -1.000000000000000000 ) ) ;
#635 = CARTESIAN_POINT ( 'NONE',  ( -37.29999999999996163, 0.000000000000000000, 8.000000000000000000 ) ) ;
#636 =( NAMED_UNIT ( * ) PLANE_ANGLE_UNIT ( ) SI_UNIT ( $, .RADIAN. ) );
#637 = ORIENTED_EDGE ( 'NONE', *, *, #537, .T. ) ;
#638 = VECTOR ( 'NONE', #1014, 1000.000000000000000 ) ;
#639 = VECTOR ( 'NONE', #62, 1000.000000000000000 ) ;
#640 = LINE ( 'NONE', #456, #633 ) ;
#641 = PLANE ( 'NONE',  #742 ) ;
#642 = DIRECTION ( 'NONE',  ( 0.000000000000000000, 0.000000000000000000, 1.000000000000000000 ) ) ;
#643 = ORIENTED_EDGE ( 'NONE', *, *, #871, .F. ) ;
#644 = EDGE_CURVE ( 'NONE', #583, #148, #88, .T. ) ;
#645 = EDGE_LOOP ( 'NONE', ( #848, #355, #735, #988 ) ) ;
#646 = CYLINDRICAL_SURFACE ( 'NONE', #161, 1.699999999999987965 ) ;
#647 = CARTESIAN_POINT ( 'NONE',  ( -4.999999999999990230, 0.000000000000000000, 8.000000000000000000 ) ) ;
#648 = FACE_BOUND ( 'NONE', #333, .T. ) ;
#649 = EDGE_CURVE ( 'NONE', #913, #601, #254, .T. ) ;
#650 = FACE_OUTER_BOUND ( 'NONE', #722, .T. ) ;
#651 = VERTEX_POINT ( 'NONE', #574 ) ;
#652 = DIRECTION ( 'NONE',  ( -0.000000000000000000, 1.000000000000000000, -1.949684284958172601E-16 ) ) ;
#653 = ORIENTED_EDGE ( 'NONE', *, *, #211, .T. ) ;
#654 = DIRECTION ( 'NONE',  ( 1.000000000000000000, 0.000000000000000000, 0.000000000000000000 ) ) ;
#655 = CIRCLE ( 'NONE', #68, 1.699999999999986189 ) ;
#656 = VERTEX_POINT ( 'NONE', #561 ) ;
#657 = AXIS2_PLACEMENT_3D ( 'NONE', #80, #667, #336 ) ;
#658 = CARTESIAN_POINT ( 'NONE',  ( -34.95000000000002416, 36.64999999999999858, 6.000000000000000000 ) ) ;
#659 = LINE ( 'NONE', #899, #774 ) ;
#660 = ORIENTED_EDGE ( 'NONE', *, *, #211, .F. ) ;
#661 = EDGE_CURVE ( 'NONE', #331, #419, #810, .T. ) ;
#662 = LINE ( 'NONE', #985, #6 ) ;
#663 = VERTEX_POINT ( 'NONE', #900 ) ;
#664 = CARTESIAN_POINT ( 'NONE',  ( -36.29999999999997584, 52.02853694765313008, 44.46566988549968613 ) ) ;
#665 = UNCERTAINTY_MEASURE_WITH_UNIT (LENGTH_MEASURE( 1.000000000000000082E-05 ), #464, 'distance_accuracy_value', 'NONE');
#666 = ADVANCED_FACE ( 'NONE', ( #319 ), #747, .F. ) ;
#667 = DIRECTION ( 'NONE',  ( -0.000000000000000000, 1.000000000000000000, -1.949684284958172601E-16 ) ) ;
#668 = ORIENTED_EDGE ( 'NONE', *, *, #661, .T. ) ;
#669 = FACE_OUTER_BOUND ( 'NONE', #701, .T. ) ;
#670 = EDGE_LOOP ( 'NONE', ( #653, #102, #46, #213 ) ) ;
#671 =( LENGTH_UNIT ( ) NAMED_UNIT ( * ) SI_UNIT ( .MILLI., .METRE. ) );
#672 = LINE ( 'NONE', #587, #308 ) ;
#673 = EDGE_LOOP ( 'NONE', ( #208, #706, #259, #618 ) ) ;
#674 = CARTESIAN_POINT ( 'NONE',  ( -6.000000000000019540, 53.04999999999998295, 23.71016652059597263 ) ) ;
#675 = VERTEX_POINT ( 'NONE', #17 ) ;
#676 = CARTESIAN_POINT ( 'NONE',  ( -5.650000000000005684, 5.649999999999994138, 6.000000000000000000 ) ) ;
#677 = AXIS2_PLACEMENT_3D ( 'NONE', #676, #825, #736 ) ;
#678 = AXIS2_PLACEMENT_3D ( 'NONE', #176, #823, #834 ) ;
#679 = VERTEX_POINT ( 'NONE', #498 ) ;
#680 = CIRCLE ( 'NONE', #124, 1.699999999999989742 ) ;
#681 = CARTESIAN_POINT ( 'NONE',  ( -5.650000000000005684, 5.649999999999994138, 0.000000000000000000 ) ) ;
#682 = LINE ( 'NONE', #980, #188 ) ;
#683 = EDGE_LOOP ( 'NONE', ( #907, #911, #508 ) ) ;
#684 = ADVANCED_FACE ( 'NONE', ( #156 ), #484, .F. ) ;
#685 = LINE ( 'NONE', #180, #479 ) ;
#686 = DIRECTION ( 'NONE',  ( 1.000000000000000000, 0.000000000000000000, 0.000000000000000000 ) ) ;
#687 = EDGE_LOOP ( 'NONE', ( #439, #447, #822, #12, #206, #160 ) ) ;
#688 = EDGE_CURVE ( 'NONE', #371, #675, #739, .T. ) ;
#689 = VERTEX_POINT ( 'NONE', #251 ) ;
#690 = CARTESIAN_POINT ( 'NONE',  ( -36.29999999999997584, 57.04999999999998295, 42.76566988549969039 ) ) ;
#691 = ORIENTED_EDGE ( 'NONE', *, *, #377, .T. ) ;
#692 = DIRECTION ( 'NONE',  ( 2.763043524480544824E-33, 0.7651893786180984369, 0.6438052615892854158 ) ) ;
#693 = ORIENTED_EDGE ( 'NONE', *, *, #767, .F. ) ;
#694 = AXIS2_PLACEMENT_3D ( 'NONE', #468, #543, #804 ) ;
#695 = AXIS2_PLACEMENT_3D ( 'NONE', #754, #1023, #784 ) ;
#696 = EDGE_LOOP ( 'NONE', ( #360, #121, #491 ) ) ;
#697 = DIRECTION ( 'NONE',  ( 0.000000000000000000, 0.000000000000000000, 1.000000000000000000 ) ) ;
#698 = EDGE_CURVE ( 'NONE', #238, #751, #1049, .T. ) ;
#699 = VECTOR ( 'NONE', #1031, 1000.000000000000000 ) ;
#700 = CARTESIAN_POINT ( 'NONE',  ( -6.000000000000019540, 53.04999999999998295, 25.41016652059597547 ) ) ;
#701 = EDGE_LOOP ( 'NONE', ( #824, #359, #340 ) ) ;
#702 = DIRECTION ( 'NONE',  ( 0.6076923720196059087, 1.832209989969254342E-16, 0.7941725133679614634 ) ) ;
#703 = EDGE_CURVE ( 'NONE', #534, #283, #1018, .T. ) ;
#704 = CARTESIAN_POINT ( 'NONE',  ( -36.65000000000000568, 36.64999999999999858, 0.000000000000000000 ) ) ;
#705 = VERTEX_POINT ( 'NONE', #119 ) ;
#706 = ORIENTED_EDGE ( 'NONE', *, *, #915, .T. ) ;
#707 = FACE_OUTER_BOUND ( 'NONE', #975, .T. ) ;
#708 = EDGE_LOOP ( 'NONE', ( #850, #782, #155, #531 ) ) ;
#709 = DIRECTION ( 'NONE',  ( -1.000000000000000000, 0.000000000000000000, 0.000000000000000000 ) ) ;
#710 = ORIENTED_EDGE ( 'NONE', *, *, #338, .T. ) ;
#711 = EDGE_CURVE ( 'NONE', #437, #689, #196, .T. ) ;
#712 = CARTESIAN_POINT ( 'NONE',  ( -3.153549904945936788, 57.04999999999999005, 53.58693710779326835 ) ) ;
#713 = FACE_OUTER_BOUND ( 'NONE', #708, .T. ) ;
#714 = AXIS2_PLACEMENT_3D ( 'NONE', #704, #455, #510 ) ;
#715 = VECTOR ( 'NONE', #702, 1000.000000000000000 ) ;
#716 = ADVANCED_FACE ( 'NONE', ( #513 ), #923, .F. ) ;
#717 = CARTESIAN_POINT ( 'NONE',  ( 0.000000000000000000, 42.29999999999999005, 8.000000000000000000 ) ) ;
#718 = LINE ( 'NONE', #302, #495 ) ;
#719 = PLANE ( 'NONE',  #887 ) ;
#720 = CARTESIAN_POINT ( 'NONE',  ( 0.000000000000000000, 0.000000000000000000, 8.000000000000000000 ) ) ;
#721 = PLANE ( 'NONE',  #293 ) ;
#722 = EDGE_LOOP ( 'NONE', ( #623, #818, #575, #781 ) ) ;
#723 = CARTESIAN_POINT ( 'NONE',  ( 1.527422417919623873E-31, 42.29999999999999716, 6.000000000000000000 ) ) ;
#724 = FACE_OUTER_BOUND ( 'NONE', #416, .T. ) ;
#725 = EDGE_CURVE ( 'NONE', #283, #583, #594, .T. ) ;
#726 = CYLINDRICAL_SURFACE ( 'NONE', #678, 1.699999999999986189 ) ;
#727 = AXIS2_PLACEMENT_3D ( 'NONE', #237, #502, #10 ) ;
#728 = CIRCLE ( 'NONE', #397, 1.700000000000000178 ) ;
#729 = VECTOR ( 'NONE', #627, 1000.000000000000000 ) ;
#730 = ORIENTED_EDGE ( 'NONE', *, *, #551, .F. ) ;
#731 = CARTESIAN_POINT ( 'NONE',  ( -5.650000000000005684, 5.649999999999994138, 6.000000000000000000 ) ) ;
#732 = EDGE_CURVE ( 'NONE', #423, #807, #265, .T. ) ;
#733 = CYLINDRICAL_SURFACE ( 'NONE', #343, 1.699999999999993072 ) ;
#734 = DIRECTION ( 'NONE',  ( -0.000000000000000000, 1.000000000000000000, -1.949684284958172601E-16 ) ) ;
#735 = ORIENTED_EDGE ( 'NONE', *, *, #698, .T. ) ;
#736 = DIRECTION ( 'NONE',  ( 1.000000000000000000, 0.000000000000000000, 0.000000000000000000 ) ) ;
#737 = EDGE_CURVE ( 'NONE', #504, #944, #685, .T. ) ;
#738 = ORIENTED_EDGE ( 'NONE', *, *, #559, .T. ) ;
#739 = LINE ( 'NONE', #674, #346 ) ;
#740 = EDGE_LOOP ( 'NONE', ( #503, #79, #476, #246 ) ) ;
#741 = CYLINDRICAL_SURFACE ( 'NONE', #677, 1.699999999999987965 ) ;
#742 = AXIS2_PLACEMENT_3D ( 'NONE', #51, #1040, #316 ) ;
#743 = PRODUCT_RELATED_PRODUCT_CATEGORY ( 'part', '', ( #372 ) ) ;
#744 = CARTESIAN_POINT ( 'NONE',  ( -6.000000000000019540, 57.04999999999998295, 25.41016652059597547 ) ) ;
#745 = CARTESIAN_POINT ( 'NONE',  ( -36.29999999999997584, 57.04999999999998295, 44.46566988549968613 ) ) ;
#746 = ORIENTED_EDGE ( 'NONE', *, *, #732, .T. ) ;
#747 = CYLINDRICAL_SURFACE ( 'NONE', #172, 1.699999999999993072 ) ;
#748 = ORIENTED_EDGE ( 'NONE', *, *, #395, .F. ) ;
#749 = DIRECTION ( 'NONE',  ( 0.000000000000000000, 0.000000000000000000, 1.000000000000000000 ) ) ;
#750 = DIRECTION ( 'NONE',  ( 0.000000000000000000, 0.000000000000000000, 1.000000000000000000 ) ) ;
#751 = VERTEX_POINT ( 'NONE', #507 ) ;
#752 = CARTESIAN_POINT ( 'NONE',  ( -36.29999999999997584, 57.04999999999998295, 25.41016652059597547 ) ) ;
#753 = ORIENTED_EDGE ( 'NONE', *, *, #991, .F. ) ;
#754 = CARTESIAN_POINT ( 'NONE',  ( -36.65000000000000568, 36.64999999999999858, 6.000000000000001776 ) ) ;
#755 = AXIS2_PLACEMENT_3D ( 'NONE', #289, #214, #800 ) ;
#756 =( NAMED_UNIT ( * ) SI_UNIT ( $, .STERADIAN. ) SOLID_ANGLE_UNIT ( ) );
#757 = CARTESIAN_POINT ( 'NONE',  ( -6.000000000000019540, 53.04999999999998295, 44.46566988549968613 ) ) ;
#758 = EDGE_LOOP ( 'NONE', ( #939, #572, #144, #668 ) ) ;
#759 = ADVANCED_FACE ( 'NONE', ( #98 ), #40, .F. ) ;
#760 = CARTESIAN_POINT ( 'NONE',  ( -34.95000000000000995, 5.649999999999994138, 0.000000000000000000 ) ) ;
#761 = AXIS2_PLACEMENT_3D ( 'NONE', #906, #995, #164 ) ;
#762 = CIRCLE ( 'NONE', #892, 1.700000000000000178 ) ;
#763 = AXIS2_PLACEMENT_3D ( 'NONE', #851, #201, #36 ) ;
#764 = FACE_OUTER_BOUND ( 'NONE', #410, .T. ) ;
#765 = CARTESIAN_POINT ( 'NONE',  ( -6.000000000000019540, 57.04999999999998295, 46.16566988549968187 ) ) ;
#766 = FACE_OUTER_BOUND ( 'NONE', #740, .T. ) ;
#767 = EDGE_CURVE ( 'NONE', #813, #337, #553, .T. ) ;
#768 = DIRECTION ( 'NONE',  ( -3.610927701937645169E-33, -1.000000000000000000, 0.000000000000000000 ) ) ;
#769 = DIRECTION ( 'NONE',  ( -0.000000000000000000, -0.000000000000000000, 1.000000000000000000 ) ) ;
#770 = ORIENTED_EDGE ( 'NONE', *, *, #833, .F. ) ;
#771 = ADVANCED_FACE ( 'NONE', ( #846 ), #311, .F. ) ;
#772 = CARTESIAN_POINT ( 'NONE',  ( -6.000000000000019540, 57.04999999999998295, 23.71016652059598329 ) ) ;
#773 = CARTESIAN_POINT ( 'NONE',  ( -42.29999999999999716, 57.04999999999999005, 49.46566988549969324 ) ) ;
#774 = VECTOR ( 'NONE', #166, 1000.000000000000000 ) ;
#775 = ADVANCED_FACE ( 'NONE', ( #354 ), #26, .F. ) ;
#776 = AXIS2_PLACEMENT_3D ( 'NONE', #798, #622, #806 ) ;
#777 = CARTESIAN_POINT ( 'NONE',  ( -6.000000000000019540, 53.04999999999998295, 25.41016652059597547 ) ) ;
#778 = VERTEX_POINT ( 'NONE', #608 ) ;
#779 = AXIS2_PLACEMENT_3D ( 'NONE', #361, #614, #1012 ) ;
#780 = FACE_OUTER_BOUND ( 'NONE', #595, .T. ) ;
#781 = ORIENTED_EDGE ( 'NONE', *, *, #226, .T. ) ;
#782 = ORIENTED_EDGE ( 'NONE', *, *, #389, .T. ) ;
#783 = DIRECTION ( 'NONE',  ( 1.000000000000000000, 0.000000000000000000, 0.000000000000000000 ) ) ;
#784 = DIRECTION ( 'NONE',  ( 1.000000000000000000, 0.000000000000000000, 0.000000000000000000 ) ) ;
#785 = ORIENTED_EDGE ( 'NONE', *, *, #973, .F. ) ;
#786 = DIRECTION ( 'NONE',  ( 0.000000000000000000, 0.6438052615892856378, -0.7651893786180983259 ) ) ;
#787 = PLANE ( 'NONE',  #1015 ) ;
#788 = PRODUCT_DEFINITION_FORMATION_WITH_SPECIFIED_SOURCE ( 'TUTTO', '', #372, .NOT_KNOWN. ) ;
#789 = ORIENTED_EDGE ( 'NONE', *, *, #998, .F. ) ;
#790 = EDGE_CURVE ( 'NONE', #489, #1048, #446, .T. ) ;
#791 = CARTESIAN_POINT ( 'NONE',  ( -38.34999999999999432, 5.649999999999994138, 6.000000000000000000 ) ) ;
#792 = LINE ( 'NONE', #67, #107 ) ;
#793 = CIRCLE ( 'NONE', #928, 1.699999999999993072 ) ;
#794 = CARTESIAN_POINT ( 'NONE',  ( 0.000000000000000000, 42.29999999999999005, 8.000000000000000000 ) ) ;
#795 = AXIS2_PLACEMENT_3D ( 'NONE', #700, #1020, #281 ) ;
#796 = LINE ( 'NONE', #791, #639 ) ;
#797 = DIRECTION ( 'NONE',  ( -0.7071067811865464625, -0.4552390662333636318, 0.5410705985127789441 ) ) ;
#798 = CARTESIAN_POINT ( 'NONE',  ( -6.000000000000019540, 57.04999999999998295, 25.41016652059597547 ) ) ;
#799 = EDGE_CURVE ( 'NONE', #504, #1042, #451, .T. ) ;
#800 = DIRECTION ( 'NONE',  ( 1.000000000000000000, 0.000000000000000000, 0.000000000000000000 ) ) ;
#801 = DIRECTION ( 'NONE',  ( -0.000000000000000000, -0.000000000000000000, 1.000000000000000000 ) ) ;
#802 = DIRECTION ( 'NONE',  ( -1.000000000000000000, 0.000000000000000000, 0.000000000000000000 ) ) ;
#803 = ORIENTED_EDGE ( 'NONE', *, *, #11, .F. ) ;
#804 = DIRECTION ( 'NONE',  ( 1.000000000000000000, 0.000000000000000000, 0.000000000000000000 ) ) ;
#805 = EDGE_CURVE ( 'NONE', #679, #485, #839, .T. ) ;
#806 = DIRECTION ( 'NONE',  ( 0.000000000000000000, 0.000000000000000000, 1.000000000000000000 ) ) ;
#807 = VERTEX_POINT ( 'NONE', #429 ) ;
#808 = AXIS2_PLACEMENT_3D ( 'NONE', #100, #404, #255 ) ;
#809 = AXIS2_PLACEMENT_3D ( 'NONE', #819, #412, #7 ) ;
#810 = CIRCLE ( 'NONE', #517, 1.699999999999993072 ) ;
#811 = CARTESIAN_POINT ( 'NONE',  ( -36.29999999999997584, 53.04999999999998295, 25.41016652059597547 ) ) ;
#812 = DIRECTION ( 'NONE',  ( 0.000000000000000000, 1.000000000000000000, -1.949684284958172601E-16 ) ) ;
#813 = VERTEX_POINT ( 'NONE', #440 ) ;
#814 = EDGE_CURVE ( 'NONE', #353, #443, #185, .T. ) ;
#815 = CARTESIAN_POINT ( 'NONE',  ( -34.95000000000002416, 36.64999999999999858, 6.000000000000001776 ) ) ;
#816 = VERTEX_POINT ( 'NONE', #772 ) ;
#817 = DIRECTION ( 'NONE',  ( -0.000000000000000000, -0.000000000000000000, 1.000000000000000000 ) ) ;
#818 = ORIENTED_EDGE ( 'NONE', *, *, #131, .F. ) ;
#819 = CARTESIAN_POINT ( 'NONE',  ( -36.29999999999997584, 53.04999999999998295, 25.41016652059597547 ) ) ;
#820 = ADVANCED_FACE ( 'NONE', ( #764 ), #42, .F. ) ;
#821 = DIRECTION ( 'NONE',  ( 0.000000000000000000, 0.000000000000000000, 1.000000000000000000 ) ) ;
#822 = ORIENTED_EDGE ( 'NONE', *, *, #945, .T. ) ;
#823 = DIRECTION ( 'NONE',  ( -0.000000000000000000, -0.000000000000000000, 1.000000000000000000 ) ) ;
#824 = ORIENTED_EDGE ( 'NONE', *, *, #688, .F. ) ;
#825 = DIRECTION ( 'NONE',  ( -0.000000000000000000, -0.000000000000000000, 1.000000000000000000 ) ) ;
#826 = ORIENTED_EDGE ( 'NONE', *, *, #1004, .T. ) ;
#827 = VECTOR ( 'NONE', #970, 1000.000000000000000 ) ;
#828 = AXIS2_PLACEMENT_3D ( 'NONE', #606, #841, #686 ) ;
#829 = ORIENTED_EDGE ( 'NONE', *, *, #125, .F. ) ;
#830 = DIRECTION ( 'NONE',  ( -0.000000000000000000, 1.000000000000000000, -1.949684284958172601E-16 ) ) ;
#831 = CARTESIAN_POINT ( 'NONE',  ( -36.29999999999997584, 52.02853694765313008, 25.41016652059597547 ) ) ;
#832 = EDGE_LOOP ( 'NONE', ( #573, #930, #34, #842 ) ) ;
#833 = EDGE_CURVE ( 'NONE', #651, #944, #680, .T. ) ;
#834 = DIRECTION ( 'NONE',  ( 1.000000000000000000, 0.000000000000000000, 0.000000000000000000 ) ) ;
#835 = ORIENTED_EDGE ( 'NONE', *, *, #454, .T. ) ;
#836 = DIRECTION ( 'NONE',  ( 1.000000000000000000, 0.000000000000000000, 0.000000000000000000 ) ) ;
#837 = ORIENTED_EDGE ( 'NONE', *, *, #698, .F. ) ;
#838 = EDGE_CURVE ( 'NONE', #95, #238, #284, .T. ) ;
#839 = LINE ( 'NONE', #599, #894 ) ;
#840 = CARTESIAN_POINT ( 'NONE',  ( 0.000000000000000000, 0.000000000000000000, 0.000000000000000000 ) ) ;
#841 = DIRECTION ( 'NONE',  ( 0.000000000000000000, -0.000000000000000000, 1.000000000000000000 ) ) ;
#842 = ORIENTED_EDGE ( 'NONE', *, *, #737, .F. ) ;
#843 = CIRCLE ( 'NONE', #137, 1.699999999999986189 ) ;
#844 = ORIENTED_EDGE ( 'NONE', *, *, #537, .F. ) ;
#845 = VECTOR ( 'NONE', #538, 1000.000000000000000 ) ;
#846 = FACE_OUTER_BOUND ( 'NONE', #345, .T. ) ;
#847 = CYLINDRICAL_SURFACE ( 'NONE', #535, 1.699999999999986189 ) ;
#848 = ORIENTED_EDGE ( 'NONE', *, *, #338, .F. ) ;
#849 = ADVANCED_FACE ( 'NONE', ( #707 ), #204, .F. ) ;
#850 = ORIENTED_EDGE ( 'NONE', *, *, #576, .F. ) ;
#851 = CARTESIAN_POINT ( 'NONE',  ( -36.65000000000000568, 36.64999999999999858, 6.000000000000001776 ) ) ;
#852 = LINE ( 'NONE', #840, #362 ) ;
#853 = LINE ( 'NONE', #115, #586 ) ;
#854 = ORIENTED_EDGE ( 'NONE', *, *, #239, .F. ) ;
#855 = CARTESIAN_POINT ( 'NONE',  ( 0.000000000000000000, 0.000000000000000000, 0.000000000000000000 ) ) ;
#856 = DIRECTION ( 'NONE',  ( 0.000000000000000000, 0.000000000000000000, 1.000000000000000000 ) ) ;
#857 = ORIENTED_EDGE ( 'NONE', *, *, #230, .T. ) ;
#858 = FACE_OUTER_BOUND ( 'NONE', #994, .T. ) ;
#859 = ORIENTED_EDGE ( 'NONE', *, *, #509, .T. ) ;
#860 = CIRCLE ( 'NONE', #776, 1.699999999999989742 ) ;
#861 = LINE ( 'NONE', #874, #409 ) ;
#862 = DIRECTION ( 'NONE',  ( 1.000000000000000000, -0.000000000000000000, -0.000000000000000000 ) ) ;
#863 = VECTOR ( 'NONE', #954, 1000.000000000000114 ) ;
#864 = CARTESIAN_POINT ( 'NONE',  ( -6.000000000000019540, 53.04999999999998295, 27.11016652059597476 ) ) ;
#865 = CARTESIAN_POINT ( 'NONE',  ( 1.162367126862983545E-32, 3.219026307946432741, 4.174053106909500599 ) ) ;
#866 = PLANE ( 'NONE',  #150 ) ;
#867 = EDGE_CURVE ( 'NONE', #318, #437, #554, .T. ) ;
#868 = EDGE_LOOP ( 'NONE', ( #590, #15 ) ) ;
#869 = CARTESIAN_POINT ( 'NONE',  ( -36.29999999999997584, 57.04999999999998295, 27.11016652059596055 ) ) ;
#870 = VECTOR ( 'NONE', #390, 1000.000000000000000 ) ;
#871 = EDGE_CURVE ( 'NONE', #443, #601, #542, .T. ) ;
#872 = CARTESIAN_POINT ( 'NONE',  ( -6.000000000000019540, 53.04999999999998295, 25.41016652059597547 ) ) ;
#873 = VECTOR ( 'NONE', #104, 1000.000000000000000 ) ;
#874 = CARTESIAN_POINT ( 'NONE',  ( -3.950000000000021050, 36.64999999999999858, 6.000000000000000000 ) ) ;
#875 = LINE ( 'NONE', #647, #827 ) ;
#876 = AXIS2_PLACEMENT_3D ( 'NONE', #877, #1034, #558 ) ;
#877 = CARTESIAN_POINT ( 'NONE',  ( 0.000000000000000000, 0.000000000000000000, 0.000000000000000000 ) ) ;
#878 = ORIENTED_EDGE ( 'NONE', *, *, #933, .F. ) ;
#879 = AXIS2_PLACEMENT_3D ( 'NONE', #38, #920, #1003 ) ;
#880 = EDGE_CURVE ( 'NONE', #489, #534, #630, .T. ) ;
#881 = DIRECTION ( 'NONE',  ( -0.000000000000000000, 0.000000000000000000, -1.000000000000000000 ) ) ;
#882 = CARTESIAN_POINT ( 'NONE',  ( -5.650000000000009237, 36.64999999999999858, 6.000000000000001776 ) ) ;
#883 = FACE_BOUND ( 'NONE', #149, .T. ) ;
#884 = EDGE_CURVE ( 'NONE', #1048, #283, #312, .T. ) ;
#885 = DIRECTION ( 'NONE',  ( -2.763043524480544824E-33, -0.7651893786180984369, -0.6438052615892854158 ) ) ;
#886 = FACE_OUTER_BOUND ( 'NONE', #367, .T. ) ;
#887 = AXIS2_PLACEMENT_3D ( 'NONE', #219, #881, #957 ) ;
#888 = EDGE_CURVE ( 'NONE', #944, #651, #625, .T. ) ;
#889 = DIRECTION ( 'NONE',  ( -0.000000000000000000, -0.000000000000000000, 1.000000000000000000 ) ) ;
#890 = ORIENTED_EDGE ( 'NONE', *, *, #880, .T. ) ;
#891 = CONICAL_SURFACE ( 'NONE', #428, 1.700000000000000178, 1.029744258676652313 ) ;
#892 = AXIS2_PLACEMENT_3D ( 'NONE', #400, #989, #589 ) ;
#893 = CARTESIAN_POINT ( 'NONE',  ( -36.29999999999997584, 53.04999999999998295, 44.46566988549968613 ) ) ;
#894 = VECTOR ( 'NONE', #349, 1000.000000000000000 ) ;
#895 = ORIENTED_EDGE ( 'NONE', *, *, #157, .T. ) ;
#896 = DIRECTION ( 'NONE',  ( 0.000000000000000000, 0.000000000000000000, 1.000000000000000000 ) ) ;
#897 = EDGE_LOOP ( 'NONE', ( #1053, #837 ) ) ;
#898 = PLANE ( 'NONE',  #761 ) ;
#899 = CARTESIAN_POINT ( 'NONE',  ( 1.527422417919623873E-31, 42.29999999999999716, 0.000000000000000000 ) ) ;
#900 = CARTESIAN_POINT ( 'NONE',  ( -36.29999999999997584, 53.04999999999998295, 46.16566988549968897 ) ) ;
#901 = EDGE_LOOP ( 'NONE', ( #8, #116, #170, #637 ) ) ;
#902 = CARTESIAN_POINT ( 'NONE',  ( -42.29999999999999716, 42.29999999999999005, 8.000000000000000000 ) ) ;
#903 = LINE ( 'NONE', #78, #87 ) ;
#904 = DIRECTION ( 'NONE',  ( 1.000000000000000000, 0.000000000000000000, 0.000000000000000000 ) ) ;
#905 = ORIENTED_EDGE ( 'NONE', *, *, #626, .T. ) ;
#906 = CARTESIAN_POINT ( 'NONE',  ( 0.000000000000000000, 0.000000000000000000, 6.000000000000000000 ) ) ;
#907 = ORIENTED_EDGE ( 'NONE', *, *, #805, .F. ) ;
#908 = CIRCLE ( 'NONE', #695, 1.699999999999986189 ) ;
#909 = EDGE_CURVE ( 'NONE', #675, #816, #1044, .T. ) ;
#910 = DIRECTION ( 'NONE',  ( 3.610927701937645169E-33, 1.000000000000000000, 0.000000000000000000 ) ) ;
#911 = ORIENTED_EDGE ( 'NONE', *, *, #125, .T. ) ;
#912 = FACE_BOUND ( 'NONE', #868, .T. ) ;
#913 = VERTEX_POINT ( 'NONE', #869 ) ;
#914 = PLANE ( 'NONE',  #1029 ) ;
#915 = EDGE_CURVE ( 'NONE', #656, #419, #796, .T. ) ;
#916 = DIRECTION ( 'NONE',  ( 0.000000000000000000, 0.000000000000000000, 1.000000000000000000 ) ) ;
#917 = ORIENTED_EDGE ( 'NONE', *, *, #306, .T. ) ;
#918 = CARTESIAN_POINT ( 'NONE',  ( -42.29999999999999716, 42.29999999999999005, 6.000000000000000000 ) ) ;
#919 = VERTEX_POINT ( 'NONE', #47 ) ;
#920 = DIRECTION ( 'NONE',  ( -0.000000000000000000, 1.000000000000000000, -1.949684284958172601E-16 ) ) ;
#921 = PRODUCT_CONTEXT ( 'NONE', #171, 'mechanical' ) ;
#922 = ORIENTED_EDGE ( 'NONE', *, *, #470, .F. ) ;
#923 = CYLINDRICAL_SURFACE ( 'NONE', #59, 1.699999999999987965 ) ;
#924 = ORIENTED_EDGE ( 'NONE', *, *, #959, .F. ) ;
#925 = EDGE_CURVE ( 'NONE', #534, #562, #133, .T. ) ;
#926 = FACE_OUTER_BOUND ( 'NONE', #324, .T. ) ;
#927 = ORIENTED_EDGE ( 'NONE', *, *, #597, .F. ) ;
#928 = AXIS2_PLACEMENT_3D ( 'NONE', #22, #483, #749 ) ;
#929 = AXIS2_PLACEMENT_3D ( 'NONE', #629, #225, #802 ) ;
#930 = ORIENTED_EDGE ( 'NONE', *, *, #16, .T. ) ;
#931 = DIRECTION ( 'NONE',  ( 0.000000000000000000, 0.000000000000000000, 1.000000000000000000 ) ) ;
#932 = DIRECTION ( 'NONE',  ( -0.000000000000000000, 1.000000000000000000, -1.949684284958172601E-16 ) ) ;
#933 = EDGE_CURVE ( 'NONE', #342, #813, #1036, .T. ) ;
#934 = CARTESIAN_POINT ( 'NONE',  ( -36.65000000000000568, 36.64999999999999858, 6.000000000000000000 ) ) ;
#935 = ORIENTED_EDGE ( 'NONE', *, *, #711, .T. ) ;
#936 = CARTESIAN_POINT ( 'NONE',  ( -36.29999999999997584, 53.04999999999998295, 23.71016652059597263 ) ) ;
#937 = VERTEX_POINT ( 'NONE', #57 ) ;
#938 = CARTESIAN_POINT ( 'NONE',  ( -36.29999999999997584, 57.04999999999998295, 25.41016652059597547 ) ) ;
#939 = ORIENTED_EDGE ( 'NONE', *, *, #915, .F. ) ;
#940 = VECTOR ( 'NONE', #547, 1000.000000000000114 ) ;
#941 = DIRECTION ( 'NONE',  ( 1.000000000000000000, 0.000000000000000000, 0.000000000000000000 ) ) ;
#942 = CARTESIAN_POINT ( 'NONE',  ( -37.29999999999996163, -2.634988330343845883E-16, 8.000000000000000000 ) ) ;
#943 = DIRECTION ( 'NONE',  ( -0.000000000000000000, 1.000000000000000000, -1.949684284958172601E-16 ) ) ;
#944 = VERTEX_POINT ( 'NONE', #948 ) ;
#945 = EDGE_CURVE ( 'NONE', #423, #1048, #640, .T. ) ;
#946 = EDGE_LOOP ( 'NONE', ( #986, #770 ) ) ;
#947 = CIRCLE ( 'NONE', #1030, 1.700000000000000178 ) ;
#948 = CARTESIAN_POINT ( 'NONE',  ( -3.950000000000016165, 5.649999999999994138, 6.000000000000001776 ) ) ;
#949 = EDGE_LOOP ( 'NONE', ( #748, #421, #905, #993, #193, #746 ) ) ;
#950 = VECTOR ( 'NONE', #260, 1000.000000000000000 ) ;
#951 = CARTESIAN_POINT ( 'NONE',  ( -4.999999999999996447, 0.000000000000000000, 8.000000000000000000 ) ) ;
#952 = EDGE_LOOP ( 'NONE', ( #81, #5, #53, #803 ) ) ;
#953 = ADVANCED_FACE ( 'NONE', ( #1039 ), #141, .T. ) ;
#954 = DIRECTION ( 'NONE',  ( -0.000000000000000000, -0.7651893786180983259, -0.6438052615892856378 ) ) ;
#955 = DIRECTION ( 'NONE',  ( 0.000000000000000000, -0.7651893786180984369, -0.6438052615892854158 ) ) ;
#956 = DIRECTION ( 'NONE',  ( -0.000000000000000000, 1.000000000000000000, -1.949684284958172601E-16 ) ) ;
#957 = DIRECTION ( 'NONE',  ( -1.000000000000000000, 0.000000000000000000, 0.000000000000000000 ) ) ;
#958 = CARTESIAN_POINT ( 'NONE',  ( -36.29999999999997584, 57.04999999999998295, 44.46566988549968613 ) ) ;
#959 = EDGE_CURVE ( 'NONE', #919, #588, #578, .T. ) ;
#960 = DIRECTION ( 'NONE',  ( 0.000000000000000000, 0.5150380749100557098, 0.8571673007021114454 ) ) ;
#961 = EDGE_LOOP ( 'NONE', ( #924, #101 ) ) ;
#962 = CIRCLE ( 'NONE', #55, 1.700000000000000178 ) ;
#963 = DIRECTION ( 'NONE',  ( -0.000000000000000000, -0.000000000000000000, 1.000000000000000000 ) ) ;
#964 = DIRECTION ( 'NONE',  ( 0.000000000000000000, 0.5150380749100562650, 0.8571673007021111124 ) ) ;
#965 = AXIS2_PLACEMENT_3D ( 'NONE', #13, #247, #582 ) ;
#966 = VECTOR ( 'NONE', #1025, 1000.000000000000114 ) ;
#967 = ADVANCED_FACE ( 'NONE', ( #301 ), #719, .T. ) ;
#968 = ORIENTED_EDGE ( 'NONE', *, *, #1052, .T. ) ;
#969 = CARTESIAN_POINT ( 'NONE',  ( -5.650000000000009237, 36.64999999999999858, 6.000000000000001776 ) ) ;
#970 = DIRECTION ( 'NONE',  ( -0.6076923720196032441, 0.000000000000000000, 0.7941725133679634618 ) ) ;
#971 = DIRECTION ( 'NONE',  ( 0.000000000000000000, 1.949684284958172601E-16, 1.000000000000000000 ) ) ;
#972 = VECTOR ( 'NONE', #983, 1000.000000000000000 ) ;
#973 = EDGE_CURVE ( 'NONE', #256, #282, #146, .T. ) ;
#974 = FACE_OUTER_BOUND ( 'NONE', #35, .T. ) ;
#975 = EDGE_LOOP ( 'NONE', ( #351, #859, #299 ) ) ;
#976 = CARTESIAN_POINT ( 'NONE',  ( -36.64999999999999858, 5.649999999999994138, 6.000000000000001776 ) ) ;
#977 = EDGE_LOOP ( 'NONE', ( #499, #445, #41, #31 ) ) ;
#978 = AXIS2_PLACEMENT_3D ( 'NONE', #811, #408, #821 ) ;
#979 = AXIS2_PLACEMENT_3D ( 'NONE', #402, #812, #971 ) ;
#980 = CARTESIAN_POINT ( 'NONE',  ( -42.29999999999999716, 0.000000000000000000, 6.000000000000000000 ) ) ;
#981 = AXIS2_PLACEMENT_3D ( 'NONE', #757, #520, #697 ) ;
#982 = ORIENTED_EDGE ( 'NONE', *, *, #888, .T. ) ;
#983 = DIRECTION ( 'NONE',  ( -0.000000000000000000, -0.000000000000000000, 1.000000000000000000 ) ) ;
#984 = ORIENTED_EDGE ( 'NONE', *, *, #799, .T. ) ;
#985 = CARTESIAN_POINT ( 'NONE',  ( -7.349999999999996980, 36.64999999999999858, 6.000000000000000000 ) ) ;
#986 = ORIENTED_EDGE ( 'NONE', *, *, #888, .F. ) ;
#987 = DIRECTION ( 'NONE',  ( 1.000000000000000000, 0.000000000000000000, 0.000000000000000000 ) ) ;
#988 = ORIENTED_EDGE ( 'NONE', *, *, #152, .F. ) ;
#989 = DIRECTION ( 'NONE',  ( -0.000000000000000000, 1.000000000000000000, -1.949684284958172601E-16 ) ) ;
#990 = EDGE_LOOP ( 'NONE', ( #844, #1010 ) ) ;
#991 = EDGE_CURVE ( 'NONE', #485, #937, #223, .T. ) ;
#992 = CARTESIAN_POINT ( 'NONE',  ( -34.95000000000000995, 5.649999999999994138, 6.000000000000001776 ) ) ;
#993 = ORIENTED_EDGE ( 'NONE', *, *, #790, .T. ) ;
#994 = EDGE_LOOP ( 'NONE', ( #643, #730, #1002, #1027 ) ) ;
#995 = DIRECTION ( 'NONE',  ( 0.000000000000000000, 1.000000000000000000, -0.000000000000000000 ) ) ;
#996 = ORIENTED_EDGE ( 'NONE', *, *, #909, .T. ) ;
#997 = AXIS2_PLACEMENT_3D ( 'NONE', #475, #797, #215 ) ;
#998 = EDGE_CURVE ( 'NONE', #195, #318, #393, .T. ) ;
#999 = CIRCLE ( 'NONE', #384, 1.699999999999993072 ) ;
#1000 = VECTOR ( 'NONE', #603, 1000.000000000000000 ) ;
#1001 = DIRECTION ( 'NONE',  ( 0.000000000000000000, -0.000000000000000000, 1.000000000000000000 ) ) ;
#1002 = ORIENTED_EDGE ( 'NONE', *, *, #486, .T. ) ;
#1003 = DIRECTION ( 'NONE',  ( 0.000000000000000000, 0.000000000000000000, 1.000000000000000000 ) ) ;
#1004 = EDGE_CURVE ( 'NONE', #282, #919, #861, .T. ) ;
#1005 = CARTESIAN_POINT ( 'NONE',  ( 0.000000000000000000, 0.000000000000000000, 6.000000000000000000 ) ) ;
#1006 = FACE_OUTER_BOUND ( 'NONE', #598, .T. ) ;
#1007 = LINE ( 'NONE', #285, #274 ) ;
#1008 = AXIS2_PLACEMENT_3D ( 'NONE', #855, #916, #511 ) ;
#1009 =( GEOMETRIC_REPRESENTATION_CONTEXT ( 3 ) GLOBAL_UNCERTAINTY_ASSIGNED_CONTEXT ( ( #474 ) ) GLOBAL_UNIT_ASSIGNED_CONTEXT ( ( #671, #258, #756 ) ) REPRESENTATION_CONTEXT ( 'NONE', 'WORKASPACE' ) );
#1010 = ORIENTED_EDGE ( 'NONE', *, *, #1052, .F. ) ;
#1011 = PRODUCT_DEFINITION ( 'NON CONOSCIUTO', '', #788, #91 ) ;
#1012 = DIRECTION ( 'NONE',  ( 0.000000000000000000, 0.000000000000000000, 1.000000000000000000 ) ) ;
#1013 = ORIENTED_EDGE ( 'NONE', *, *, #48, .T. ) ;
#1014 = DIRECTION ( 'NONE',  ( 0.000000000000000000, 0.5150380749100562650, 0.8571673007021111124 ) ) ;
#1015 = AXIS2_PLACEMENT_3D ( 'NONE', #472, #134, #463 ) ;
#1016 = VECTOR ( 'NONE', #692, 1000.000000000000227 ) ;
#1017 = AXIS2_PLACEMENT_3D ( 'NONE', #752, #1054, #418 ) ;
#1018 = LINE ( 'NONE', #267, #950 ) ;
#1019 = ORIENTED_EDGE ( 'NONE', *, *, #239, .T. ) ;
#1020 = DIRECTION ( 'NONE',  ( -0.000000000000000000, 1.000000000000000000, -1.949684284958172601E-16 ) ) ;
#1021 = CARTESIAN_POINT ( 'NONE',  ( -5.650000000000005684, 5.649999999999994138, 6.000000000000001776 ) ) ;
#1022 = DIRECTION ( 'NONE',  ( 0.000000000000000000, 0.000000000000000000, 1.000000000000000000 ) ) ;
#1023 = DIRECTION ( 'NONE',  ( -0.000000000000000000, -0.000000000000000000, 1.000000000000000000 ) ) ;
#1024 = ORIENTED_EDGE ( 'NONE', *, *, #16, .F. ) ;
#1025 = DIRECTION ( 'NONE',  ( -0.000000000000000000, -0.7651893786180983259, -0.6438052615892856378 ) ) ;
#1026 = DIRECTION ( 'NONE',  ( -0.000000000000000000, 1.000000000000000000, -1.949684284958172601E-16 ) ) ;
#1027 = ORIENTED_EDGE ( 'NONE', *, *, #649, .T. ) ;
#1028 = ADVANCED_FACE ( 'NONE', ( #236 ), #646, .F. ) ;
#1029 = AXIS2_PLACEMENT_3D ( 'NONE', #424, #654, #492 ) ;
#1030 = AXIS2_PLACEMENT_3D ( 'NONE', #77, #571, #158 ) ;
#1031 = DIRECTION ( 'NONE',  ( -0.000000000000000000, 1.000000000000000000, -1.949684284958172601E-16 ) ) ;
#1032 = DIRECTION ( 'NONE',  ( 0.000000000000000000, -0.6438052615892855268, 0.7651893786180985479 ) ) ;
#1033 = AXIS2_PLACEMENT_3D ( 'NONE', #245, #830, #856 ) ;
#1034 = DIRECTION ( 'NONE',  ( 0.000000000000000000, -0.000000000000000000, 1.000000000000000000 ) ) ;
#1035 = EDGE_CURVE ( 'NONE', #110, #337, #84, .T. ) ;
#1036 = LINE ( 'NONE', #373, #870 ) ;
#1037 = CYLINDRICAL_SURFACE ( 'NONE', #602, 1.699999999999993072 ) ;
#1038 = CARTESIAN_POINT ( 'NONE',  ( -6.000000000000019540, 57.04999999999998295, 44.46566988549968613 ) ) ;
#1039 = FACE_OUTER_BOUND ( 'NONE', #613, .T. ) ;
#1040 = DIRECTION ( 'NONE',  ( -0.000000000000000000, 0.000000000000000000, -1.000000000000000000 ) ) ;
#1041 = DIRECTION ( 'NONE',  ( -0.000000000000000000, 1.000000000000000000, -1.949684284958172601E-16 ) ) ;
#1042 = VERTEX_POINT ( 'NONE', #414 ) ;
#1043 = CIRCLE ( 'NONE', #585, 1.699999999999987965 ) ;
#1044 = LINE ( 'NONE', #386, #497 ) ;
#1045 = CYLINDRICAL_SURFACE ( 'NONE', #448, 1.699999999999993072 ) ;
#1046 = AXIS2_PLACEMENT_3D ( 'NONE', #363, #433, #33 ) ;
#1047 = CARTESIAN_POINT ( 'NONE',  ( 0.000000000000000000, 0.000000000000000000, 8.000000000000000000 ) ) ;
#1048 = VERTEX_POINT ( 'NONE', #335 ) ;
#1049 = CIRCLE ( 'NONE', #1033, 1.699999999999986189 ) ;
#1050 = FACE_OUTER_BOUND ( 'NONE', #952, .T. ) ;
#1051 = CARTESIAN_POINT ( 'NONE',  ( -7.349999999999998757, 36.64999999999999858, 6.000000000000001776 ) ) ;
#1052 = EDGE_CURVE ( 'NONE', #816, #403, #461, .T. ) ;
#1053 = ORIENTED_EDGE ( 'NONE', *, *, #226, .F. ) ;
#1054 = DIRECTION ( 'NONE',  ( -0.000000000000000000, 1.000000000000000000, -1.949684284958172601E-16 ) ) ;
#1055 = ORIENTED_EDGE ( 'NONE', *, *, #867, .T. ) ;
ENDSEC;
END-ISO-10303-21;
