ISO-10303-21;
HEADER;
FILE_DESCRIPTION (( 'STEP AP214' ),
    '1' );
FILE_NAME ('ELP-0034.STEP',
    '2026-04-27T14:05:08',
    ( '' ),
    ( '' ),
    'SwSTEP 2.0',
    'SolidWorks 2024',
    '' );
FILE_SCHEMA (( 'AUTOMOTIVE_DESIGN' ));
ENDSEC;

DATA;
#1 = VERTEX_POINT ( 'NONE', #489 ) ;
#2 = LINE ( 'NONE', #431, #590 ) ;
#3 = ADVANCED_BREP_SHAPE_REPRESENTATION ( 'ELP-0034', ( #147, #281 ), #304 ) ;
#4 = CARTESIAN_POINT ( 'NONE',  ( -47.63139720814417899, 0.000000000000000000, -27.49999999999989697 ) ) ;
#5 = DIRECTION ( 'NONE',  ( 1.776356839400250780E-14, 0.000000000000000000, 1.000000000000000000 ) ) ;
#6 = CIRCLE ( 'NONE', #219, 51.00000000000000711 ) ;
#7 = CARTESIAN_POINT ( 'NONE',  ( -40.00000000000000000, 0.000000000000000000, 74.99999999999998579 ) ) ;
#8 = DIRECTION ( 'NONE',  ( 0.000000000000000000, 1.000000000000000000, 0.000000000000000000 ) ) ;
#9 = CARTESIAN_POINT ( 'NONE',  ( -17.99649713485380786, 13.71278635739173879, 54.58178568199702596 ) ) ;
#10 = CARTESIAN_POINT ( 'NONE',  ( -9.999999999999998224, 7.000000000000000000, 86.08326913195982399 ) ) ;
#11 = CARTESIAN_POINT ( 'NONE',  ( 0.000000000000000000, 0.000000000000000000, 0.000000000000000000 ) ) ;
#12 = CARTESIAN_POINT ( 'NONE',  ( -10.56641786858246768, 6.999999999999999112, 69.19791047008935436 ) ) ;
#13 = CARTESIAN_POINT ( 'NONE',  ( 10.00000000000000711, 7.000000000000000000, 1.084202172485505815E-15 ) ) ;
#14 = ORIENTED_EDGE ( 'NONE', *, *, #141, .T. ) ;
#15 = CIRCLE ( 'NONE', #523, 5.000000000000004441 ) ;
#16 = CYLINDRICAL_SURFACE ( 'NONE', #382, 5.000000000000004441 ) ;
#17 = CARTESIAN_POINT ( 'NONE',  ( -17.29511677566574690, 12.95874990291842543, 55.36189302951124347 ) ) ;
#18 = CARTESIAN_POINT ( 'NONE',  ( -5.000000000000005329, 0.000000000000000000, 86.08326913195982399 ) ) ;
#19 = VERTEX_POINT ( 'NONE', #4 ) ;
#20 = EDGE_CURVE ( 'NONE', #315, #495, #377, .T. ) ;
#21 = DIRECTION ( 'NONE',  ( -0.000000000000000000, -1.000000000000000000, 0.000000000000000000 ) ) ;
#22 = ORIENTED_EDGE ( 'NONE', *, *, #681, .F. ) ;
#23 =( NAMED_UNIT ( * ) PLANE_ANGLE_UNIT ( ) SI_UNIT ( $, .RADIAN. ) );
#24 = AXIS2_PLACEMENT_3D ( 'NONE', #692, #402, #198 ) ;
#25 = CARTESIAN_POINT ( 'NONE',  ( 10.00000000000000000, 7.000000000000000000, 69.28203230275509839 ) ) ;
#26 = AXIS2_PLACEMENT_3D ( 'NONE', #18, #132, #452 ) ;
#27 = VERTEX_POINT ( 'NONE', #56 ) ;
#28 = ADVANCED_FACE ( 'NONE', ( #272 ), #99, .F. ) ;
#29 = DIRECTION ( 'NONE',  ( 0.000000000000000000, 0.000000000000000000, 1.000000000000000000 ) ) ;
#30 = CARTESIAN_POINT ( 'NONE',  ( 9.986696458292131595, 19.22838246728646538, 54.33173273446607254 ) ) ;
#31 = EDGE_LOOP ( 'NONE', ( #88, #464, #54, #487, #240, #594 ) ) ;
#32 = APPLICATION_PROTOCOL_DEFINITION ( 'draft international standard', 'automotive_design', 1998, #95 ) ;
#33 = CYLINDRICAL_SURFACE ( 'NONE', #24, 1.199999999999992628 ) ;
#34 = CARTESIAN_POINT ( 'NONE',  ( 0.000000000000000000, 0.000000000000000000, 0.000000000000000000 ) ) ;
#35 = ADVANCED_FACE ( 'NONE', ( #166 ), #127, .F. ) ;
#36 = CARTESIAN_POINT ( 'NONE',  ( 5.000000000000005329, 7.000000000000000000, 91.08326913195983821 ) ) ;
#37 = ORIENTED_EDGE ( 'NONE', *, *, #418, .T. ) ;
#38 = CIRCLE ( 'NONE', #161, 70.00000000000000000 ) ;
#39 = DIRECTION ( 'NONE',  ( 0.4999999999999995004, 0.000000000000000000, -0.8660254037844390407 ) ) ;
#40 = ADVANCED_FACE ( 'NONE', ( #70 ), #672, .F. ) ;
#41 = LINE ( 'NONE', #256, #310 ) ;
#42 = ORIENTED_EDGE ( 'NONE', *, *, #585, .T. ) ;
#43 = EDGE_CURVE ( 'NONE', #334, #474, #666, .T. ) ;
#44 = VERTEX_POINT ( 'NONE', #611 ) ;
#45 = CARTESIAN_POINT ( 'NONE',  ( -8.572527594031484037E-16, 5.999999999999997335, 82.00000000000000000 ) ) ;
#46 = DIRECTION ( 'NONE',  ( -0.8660254037844389297, 0.000000000000000000, -0.4999999999999994449 ) ) ;
#47 = ORIENTED_EDGE ( 'NONE', *, *, #663, .F. ) ;
#48 = CARTESIAN_POINT ( 'NONE',  ( 9.957629625155998809, 22.00000000000000000, 54.09108625502187095 ) ) ;
#49 = CARTESIAN_POINT ( 'NONE',  ( 10.00000000000000000, 17.09272120416876461, 54.91651814170635504 ) ) ;
#50 = ORIENTED_EDGE ( 'NONE', *, *, #586, .F. ) ;
#51 = DIRECTION ( 'NONE',  ( -1.084202172485505050E-16, 0.000000000000000000, -1.000000000000000000 ) ) ;
#52 = CARTESIAN_POINT ( 'NONE',  ( 0.000000000000000000, 6.999999999999999112, 0.000000000000000000 ) ) ;
#53 = VERTEX_POINT ( 'NONE', #513 ) ;
#54 = ORIENTED_EDGE ( 'NONE', *, *, #149, .F. ) ;
#55 = DIRECTION ( 'NONE',  ( 0.000000000000000000, 0.000000000000000000, 1.000000000000000000 ) ) ;
#56 = CARTESIAN_POINT ( 'NONE',  ( -5.000000000000005329, 0.000000000000000000, 91.08326913195983821 ) ) ;
#57 = CARTESIAN_POINT ( 'NONE',  ( 0.000000000000000000, 50.00000000000000000, 0.000000000000000000 ) ) ;
#58 = CIRCLE ( 'NONE', #114, 5.000000000000004441 ) ;
#59 = B_SPLINE_CURVE_WITH_KNOTS ( 'NONE', 3,
 ( #135, #182, #30, #295, #301, #459 ),
 .UNSPECIFIED., .F., .F.,
 ( 4, 2, 4 ),
 ( 1.506415328614596547E-16, 0.002083696996293094364, 0.004167393992586038674 ),
 .UNSPECIFIED. ) ;
#60 = EDGE_CURVE ( 'NONE', #629, #698, #283, .T. ) ;
#61 = CARTESIAN_POINT ( 'NONE',  ( 0.000000000000000000, 22.00000000000000000, 0.000000000000000000 ) ) ;
#62 = CARTESIAN_POINT ( 'NONE',  ( -9.999999999999998224, 7.000000000000000000, 74.99999999999998579 ) ) ;
#63 = DIRECTION ( 'NONE',  ( -0.000000000000000000, -1.000000000000000000, -0.000000000000000000 ) ) ;
#64 = CARTESIAN_POINT ( 'NONE',  ( -13.48999503560788860, 9.037547987125192250, 60.90461664880120196 ) ) ;
#65 = LINE ( 'NONE', #159, #581 ) ;
#66 = ORIENTED_EDGE ( 'NONE', *, *, #170, .T. ) ;
#67 = EDGE_LOOP ( 'NONE', ( #520, #449, #538, #651 ) ) ;
#68 = CARTESIAN_POINT ( 'NONE',  ( 10.00000000000000178, 50.00000000000000000, 54.08326913195983821 ) ) ;
#69 = CARTESIAN_POINT ( 'NONE',  ( -40.00000000000000000, 6.999999999999999112, 74.99999999999998579 ) ) ;
#70 = FACE_OUTER_BOUND ( 'NONE', #494, .T. ) ;
#71 = AXIS2_PLACEMENT_3D ( 'NONE', #7, #224, #437 ) ;
#72 = DIRECTION ( 'NONE',  ( 0.000000000000000000, 0.000000000000000000, 1.000000000000000000 ) ) ;
#73 = EDGE_CURVE ( 'NONE', #263, #490, #226, .T. ) ;
#74 = CARTESIAN_POINT ( 'NONE',  ( 6.000000000000001776, 0.000000000000000000, 50.67174773134658494 ) ) ;
#75 = CARTESIAN_POINT ( 'NONE',  ( 5.563636363636367044, 50.00000000000000000, 50.69562062361230659 ) ) ;
#76 = DIRECTION ( 'NONE',  ( 1.000000000000000000, -0.000000000000000000, 0.000000000000000000 ) ) ;
#77 = CARTESIAN_POINT ( 'NONE',  ( -8.572527594031484037E-16, 0.000000000000000000, 82.00000000000000000 ) ) ;
#78 = ORIENTED_EDGE ( 'NONE', *, *, #585, .F. ) ;
#79 = EDGE_CURVE ( 'NONE', #19, #674, #567, .T. ) ;
#80 = CARTESIAN_POINT ( 'NONE',  ( -9.999999999999998224, 0.000000000000000000, 86.08326913195982399 ) ) ;
#81 = AXIS2_PLACEMENT_3D ( 'NONE', #503, #332, #557 ) ;
#82 = LINE ( 'NONE', #526, #591 ) ;
#83 = ORIENTED_EDGE ( 'NONE', *, *, #367, .F. ) ;
#84 = AXIS2_PLACEMENT_3D ( 'NONE', #68, #620, #502 ) ;
#85 = DIRECTION ( 'NONE',  ( -0.000000000000000000, -1.000000000000000000, -0.000000000000000000 ) ) ;
#86 = FACE_OUTER_BOUND ( 'NONE', #416, .T. ) ;
#87 = VERTEX_POINT ( 'NONE', #74 ) ;
#88 = ORIENTED_EDGE ( 'NONE', *, *, #250, .F. ) ;
#89 = LINE ( 'NONE', #686, #90 ) ;
#90 = VECTOR ( 'NONE', #578, 1000.000000000000000 ) ;
#91 = AXIS2_PLACEMENT_3D ( 'NONE', #443, #670, #355 ) ;
#92 = ORIENTED_EDGE ( 'NONE', *, *, #93, .T. ) ;
#93 = EDGE_CURVE ( 'NONE', #580, #490, #559, .T. ) ;
#94 = FACE_BOUND ( 'NONE', #661, .T. ) ;
#95 = APPLICATION_CONTEXT ( 'automotive_design' ) ;
#96 = CARTESIAN_POINT ( 'NONE',  ( -44.16729559300644326, 50.00000000000000000, -25.49999999999988631 ) ) ;
#97 = VERTEX_POINT ( 'NONE', #175 ) ;
#98 = DIRECTION ( 'NONE',  ( 0.000000000000000000, 1.000000000000000000, 0.000000000000000000 ) ) ;
#99 = PLANE ( 'NONE',  #174 ) ;
#100 = MECHANICAL_DESIGN_GEOMETRIC_PRESENTATION_REPRESENTATION (  '', ( #259 ), #280 ) ;
#101 = PRODUCT_DEFINITION_FORMATION_WITH_SPECIFIED_SOURCE ( 'TUTTO', '', #635, .NOT_KNOWN. ) ;
#102 = ORIENTED_EDGE ( 'NONE', *, *, #701, .F. ) ;
#103 = ORIENTED_EDGE ( 'NONE', *, *, #117, .T. ) ;
#104 = ORIENTED_EDGE ( 'NONE', *, *, #667, .T. ) ;
#105 = DIRECTION ( 'NONE',  ( 0.000000000000000000, 0.000000000000000000, 1.000000000000000000 ) ) ;
#106 = CARTESIAN_POINT ( 'NONE',  ( 10.00000000000000178, 11.03040896947384120, 58.89474638226026570 ) ) ;
#107 = CARTESIAN_POINT ( 'NONE',  ( -47.63139720814419320, 50.00000000000000000, -27.49999999999988276 ) ) ;
#108 = CARTESIAN_POINT ( 'NONE',  ( -40.00000000000000000, 50.00000000000000000, 74.99999999999998579 ) ) ;
#109 = CARTESIAN_POINT ( 'NONE',  ( -10.00000000000000711, 0.000000000000000000, 1.084202172485505815E-15 ) ) ;
#110 = DIRECTION ( 'NONE',  ( 1.084202172485504927E-16, 0.000000000000000000, -1.000000000000000000 ) ) ;
#111 = EDGE_LOOP ( 'NONE', ( #399, #575, #566, #380, #316, #587, #184, #410, #14, #277, #291 ) ) ;
#112 = ORIENTED_EDGE ( 'NONE', *, *, #254, .T. ) ;
#113 = DIRECTION ( 'NONE',  ( 0.000000000000000000, 0.000000000000000000, -1.000000000000000000 ) ) ;
#114 = AXIS2_PLACEMENT_3D ( 'NONE', #665, #165, #444 ) ;
#115 = VECTOR ( 'NONE', #76, 1000.000000000000000 ) ;
#116 = CARTESIAN_POINT ( 'NONE',  ( -15.29618110031444012, 10.85186267224886869, 57.96962477448373363 ) ) ;
#117 = EDGE_CURVE ( 'NONE', #477, #1, #424, .T. ) ;
#118 = DIRECTION ( 'NONE',  ( 0.8660254037844389297, 0.000000000000000000, 0.4999999999999994449 ) ) ;
#119 = VERTEX_POINT ( 'NONE', #342 ) ;
#120 = DIRECTION ( 'NONE',  ( 0.000000000000000000, 0.000000000000000000, 1.000000000000000000 ) ) ;
#121 = CARTESIAN_POINT ( 'NONE',  ( -5.878304635907306044E-16, 7.000000000000001776, 79.80000000000001137 ) ) ;
#122 = ADVANCED_FACE ( 'NONE', ( #563 ), #16, .T. ) ;
#123 = DIRECTION ( 'NONE',  ( 0.000000000000000000, 1.000000000000000000, -0.000000000000000000 ) ) ;
#124 = DIRECTION ( 'NONE',  ( -0.000000000000000000, -1.000000000000000000, -0.000000000000000000 ) ) ;
#125 = ORIENTED_EDGE ( 'NONE', *, *, #696, .T. ) ;
#126 = CARTESIAN_POINT ( 'NONE',  ( -9.999999999999998224, 0.000000000000000000, 74.99999999999998579 ) ) ;
#127 = TOROIDAL_SURFACE ( 'NONE', #641, 70.00000000000000000, 15.00000000000000000 ) ;
#128 = AXIS2_PLACEMENT_3D ( 'NONE', #218, #168, #496 ) ;
#129 = CARTESIAN_POINT ( 'NONE',  ( -21.74088601883614658, 17.72956256416903642, 51.17554387822887207 ) ) ;
#130 = CYLINDRICAL_SURFACE ( 'NONE', #472, 4.000000000000003553 ) ;
#131 = FACE_OUTER_BOUND ( 'NONE', #298, .T. ) ;
#132 = DIRECTION ( 'NONE',  ( -0.000000000000000000, -1.000000000000000000, 0.000000000000000000 ) ) ;
#133 = DIRECTION ( 'NONE',  ( 0.000000000000000000, 0.000000000000000000, -1.000000000000000000 ) ) ;
#134 = SURFACE_STYLE_USAGE ( .BOTH. , #627 ) ;
#135 = CARTESIAN_POINT ( 'NONE',  ( 10.00000000000000178, 17.87347486489138504, 54.67174773135155874 ) ) ;
#136 = LINE ( 'NONE', #196, #648 ) ;
#137 = APPLICATION_CONTEXT ( 'automotive_design' ) ;
#138 =( NAMED_UNIT ( * ) PLANE_ANGLE_UNIT ( ) SI_UNIT ( $, .RADIAN. ) );
#139 = AXIS2_PLACEMENT_3D ( 'NONE', #249, #403, #239 ) ;
#140 = CIRCLE ( 'NONE', #623, 55.00000000000000000 ) ;
#141 = EDGE_CURVE ( 'NONE', #629, #580, #512, .T. ) ;
#142 = VECTOR ( 'NONE', #338, 1000.000000000000227 ) ;
#143 =( LENGTH_UNIT ( ) NAMED_UNIT ( * ) SI_UNIT ( .MILLI., .METRE. ) );
#144 = ORIENTED_EDGE ( 'NONE', *, *, #549, .T. ) ;
#145 = EDGE_CURVE ( 'NONE', #474, #53, #473, .T. ) ;
#146 = CARTESIAN_POINT ( 'NONE',  ( 0.000000000000000000, 0.000000000000000000, 0.000000000000000000 ) ) ;
#147 = MANIFOLD_SOLID_BREP ( 'Raccordo3', #702 ) ;
#148 = ORIENTED_EDGE ( 'NONE', *, *, #145, .T. ) ;
#149 = EDGE_CURVE ( 'NONE', #275, #252, #89, .T. ) ;
#150 = FACE_OUTER_BOUND ( 'NONE', #510, .T. ) ;
#151 = CONICAL_SURFACE ( 'NONE', #422, 2.199999999999993516, 0.7853981633974472798 ) ;
#152 = CARTESIAN_POINT ( 'NONE',  ( 10.00000000000000355, 15.95625302878248419, 55.36973759190016153 ) ) ;
#153 = CIRCLE ( 'NONE', #571, 30.00000000000000000 ) ;
#154 = CARTESIAN_POINT ( 'NONE',  ( -8.572527594031484037E-16, 7.000000000000001776, 82.00000000000000000 ) ) ;
#155 = CARTESIAN_POINT ( 'NONE',  ( 10.00000000000000000, 7.065501885653828751, 67.64883784513990861 ) ) ;
#156 = EDGE_LOOP ( 'NONE', ( #212, #542, #365, #42, #597, #47, #442, #354 ) ) ;
#157 = CARTESIAN_POINT ( 'NONE',  ( 9.999999999999998224, 8.030950680358921900, 63.69630009970238405 ) ) ;
#158 = ORIENTED_EDGE ( 'NONE', *, *, #401, .F. ) ;
#159 = CARTESIAN_POINT ( 'NONE',  ( 9.999999999999998224, 7.000000000000000000, 86.08326913195982399 ) ) ;
#160 = EDGE_CURVE ( 'NONE', #688, #340, #469, .T. ) ;
#161 = AXIS2_PLACEMENT_3D ( 'NONE', #215, #279, #5 ) ;
#162 = AXIS2_PLACEMENT_3D ( 'NONE', #236, #357, #297 ) ;
#163 = CARTESIAN_POINT ( 'NONE',  ( 10.00000000000000178, 17.87347486489138504, 54.67174773135155874 ) ) ;
#164 = CARTESIAN_POINT ( 'NONE',  ( 0.000000000000000000, 50.00000000000000000, 0.000000000000000000 ) ) ;
#165 = DIRECTION ( 'NONE',  ( -0.000000000000000000, -1.000000000000000000, 0.000000000000000000 ) ) ;
#166 = FACE_OUTER_BOUND ( 'NONE', #214, .T. ) ;
#167 = EDGE_CURVE ( 'NONE', #252, #477, #292, .T. ) ;
#168 = DIRECTION ( 'NONE',  ( 0.000000000000000000, 1.000000000000000000, 0.000000000000000000 ) ) ;
#169 = ORIENTED_EDGE ( 'NONE', *, *, #325, .T. ) ;
#170 = EDGE_CURVE ( 'NONE', #270, #474, #15, .T. ) ;
#171 = CARTESIAN_POINT ( 'NONE',  ( -24.81438966726034323, 20.92537633584195689, 49.12612888243642573 ) ) ;
#172 = VECTOR ( 'NONE', #8, 1000.000000000000000 ) ;
#173 = CIRCLE ( 'NONE', #91, 5.000000000000004441 ) ;
#174 = AXIS2_PLACEMENT_3D ( 'NONE', #320, #545, #51 ) ;
#175 = CARTESIAN_POINT ( 'NONE',  ( -7.102951435054669359E-16, 0.000000000000000000, 80.80000000000001137 ) ) ;
#176 = DIRECTION ( 'NONE',  ( 0.000000000000000000, -0.000000000000000000, 1.000000000000000000 ) ) ;
#177 = ORIENTED_EDGE ( 'NONE', *, *, #278, .T. ) ;
#178 = CARTESIAN_POINT ( 'NONE',  ( -12.45402782850097623, 8.107230097103029109, 63.09983103932141546 ) ) ;
#179 = DIRECTION ( 'NONE',  ( -0.000000000000000000, 1.000000000000000000, -0.000000000000000000 ) ) ;
#180 = EDGE_LOOP ( 'NONE', ( #345, #634, #217, #404 ) ) ;
#181 = CARTESIAN_POINT ( 'NONE',  ( -14.06099240286109975, 9.594876380610646294, 59.88470196678280644 ) ) ;
#182 = CARTESIAN_POINT ( 'NONE',  ( 10.00000000000000000, 18.54733671070378520, 54.47572829166480801 ) ) ;
#183 = ORIENTED_EDGE ( 'NONE', *, *, #141, .F. ) ;
#184 = ORIENTED_EDGE ( 'NONE', *, *, #493, .T. ) ;
#185 = VECTOR ( 'NONE', #110, 1000.000000000000000 ) ;
#186 = VECTOR ( 'NONE', #633, 999.9999999999998863 ) ;
#187 = DIRECTION ( 'NONE',  ( 0.000000000000000000, 0.000000000000000000, 1.000000000000000000 ) ) ;
#188 = CARTESIAN_POINT ( 'NONE',  ( -44.16729559300644326, 0.000000000000000000, -25.49999999999988631 ) ) ;
#189 = ADVANCED_FACE ( 'NONE', ( #131 ), #471, .F. ) ;
#190 = CARTESIAN_POINT ( 'NONE',  ( -8.572527594031484037E-16, 7.000000000000001776, 82.00000000000000000 ) ) ;
#191 = CARTESIAN_POINT ( 'NONE',  ( -8.572527594031484037E-16, 5.999999999999997335, 82.00000000000000000 ) ) ;
#192 = ORIENTED_EDGE ( 'NONE', *, *, #20, .T. ) ;
#193 = EDGE_CURVE ( 'NONE', #334, #27, #408, .T. ) ;
#194 = CARTESIAN_POINT ( 'NONE',  ( -8.572527594031484037E-16, 7.000000000000000000, 83.20000000000000284 ) ) ;
#195 = DIRECTION ( 'NONE',  ( 0.000000000000000000, 0.000000000000000000, -1.000000000000000000 ) ) ;
#196 = CARTESIAN_POINT ( 'NONE',  ( -44.16729559300644326, 50.00000000000000000, -25.49999999999988631 ) ) ;
#197 = ORIENTED_EDGE ( 'NONE', *, *, #386, .F. ) ;
#198 = DIRECTION ( 'NONE',  ( 0.000000000000000000, 0.000000000000000000, 1.000000000000000000 ) ) ;
#199 = AXIS2_PLACEMENT_3D ( 'NONE', #52, #326, #577 ) ;
#200 = CIRCLE ( 'NONE', #234, 1.199999999999992628 ) ;
#201 = VERTEX_POINT ( 'NONE', #414 ) ;
#202 = DIRECTION ( 'NONE',  ( 0.000000000000000000, 0.000000000000000000, 1.000000000000000000 ) ) ;
#203 = ORIENTED_EDGE ( 'NONE', *, *, #681, .T. ) ;
#204 = ADVANCED_FACE ( 'NONE', ( #86 ), #33, .F. ) ;
#205 = DIRECTION ( 'NONE',  ( -1.000000000000000000, 0.000000000000000000, -0.000000000000000000 ) ) ;
#206 = CARTESIAN_POINT ( 'NONE',  ( 6.000000000000001776, 50.00000000000000000, 50.67174773134658494 ) ) ;
#207 = CARTESIAN_POINT ( 'NONE',  ( -8.572527594031484037E-16, 7.000000000000001776, 82.00000000000000000 ) ) ;
#208 = ORIENTED_EDGE ( 'NONE', *, *, #278, .F. ) ;
#209 = AXIS2_PLACEMENT_3D ( 'NONE', #34, #470, #358 ) ;
#210 = ORIENTED_EDGE ( 'NONE', *, *, #586, .T. ) ;
#211 = CARTESIAN_POINT ( 'NONE',  ( 10.00000000000000355, 14.86026163272788914, 55.89600967591303515 ) ) ;
#212 = ORIENTED_EDGE ( 'NONE', *, *, #390, .T. ) ;
#213 = EDGE_CURVE ( 'NONE', #457, #275, #447, .T. ) ;
#214 = EDGE_LOOP ( 'NONE', ( #197, #265, #363, #448 ) ) ;
#215 = CARTESIAN_POINT ( 'NONE',  ( 0.000000000000000000, 6.999999999999999112, 0.000000000000000000 ) ) ;
#216 = ORIENTED_EDGE ( 'NONE', *, *, #317, .T. ) ;
#217 = ORIENTED_EDGE ( 'NONE', *, *, #663, .T. ) ;
#218 = CARTESIAN_POINT ( 'NONE',  ( -8.572527594031484037E-16, 0.000000000000000000, 82.00000000000000000 ) ) ;
#219 = AXIS2_PLACEMENT_3D ( 'NONE', #695, #98, #596 ) ;
#220 = ADVANCED_FACE ( 'NONE', ( #150 ), #488, .T. ) ;
#221 = AXIS2_PLACEMENT_3D ( 'NONE', #57, #438, #176 ) ;
#222 = CIRCLE ( 'NONE', #544, 2.199999999999993516 ) ;
#223 = VECTOR ( 'NONE', #351, 1000.000000000000000 ) ;
#224 = DIRECTION ( 'NONE',  ( 0.000000000000000000, 1.000000000000000000, 0.000000000000000000 ) ) ;
#225 = FACE_OUTER_BOUND ( 'NONE', #324, .T. ) ;
#226 = B_SPLINE_CURVE_WITH_KNOTS ( 'NONE', 3,
 ( #12, #679, #331, #556, #675, #178, #346, #64, #181, #391, #116, #285, #228, #17, #9, #440, #504, #129, #668, #289, #618, #171, #387, #614, #508, #231 ),
 .UNSPECIFIED., .F., .F.,
 ( 4, 2, 2, 2, 2, 2, 2, 2, 2, 2, 2, 2, 4 ),
 ( 0.000000000000000000, 0.003886758454958950861, 0.005830137682438426075, 0.007773516909917901722, 0.01166027536487683827, 0.01360365459235630611, 0.01554703381983577222, 0.01943379227479471311, 0.02332055072975364879, 0.02720730918471258794, 0.02915068841219204884, 0.03012237802593178970, 0.03109406763967152362 ),
 .UNSPECIFIED. ) ;
#227 = CARTESIAN_POINT ( 'NONE',  ( -5.000000000000005329, 7.000000000000000000, 91.08326913195983821 ) ) ;
#228 = CARTESIAN_POINT ( 'NONE',  ( -16.27987716412026487, 11.88122193735689791, 56.62481253008474624 ) ) ;
#229 = DIRECTION ( 'NONE',  ( 0.000000000000000000, -0.000000000000000000, 1.000000000000000000 ) ) ;
#230 = ADVANCED_FACE ( 'NONE', ( #313 ), #151, .F. ) ;
#231 = CARTESIAN_POINT ( 'NONE',  ( -25.88235294117647811, 22.00000000000000000, 48.52941176470588402 ) ) ;
#232 = DIRECTION ( 'NONE',  ( 0.000000000000000000, 1.000000000000000000, 0.000000000000000000 ) ) ;
#233 = VECTOR ( 'NONE', #420, 1000.000000000000000 ) ;
#234 = AXIS2_PLACEMENT_3D ( 'NONE', #191, #179, #690 ) ;
#235 = DIRECTION ( 'NONE',  ( 1.000000000000000000, -0.000000000000000000, 0.000000000000000000 ) ) ;
#236 = CARTESIAN_POINT ( 'NONE',  ( 0.000000000000000000, 50.00000000000000000, 0.000000000000000000 ) ) ;
#237 = CARTESIAN_POINT ( 'NONE',  ( 6.000000000000001776, 50.00000000000000000, 54.67174773134658494 ) ) ;
#238 = EDGE_CURVE ( 'NONE', #119, #19, #264, .T. ) ;
#239 = DIRECTION ( 'NONE',  ( 0.000000000000000000, 0.000000000000000000, 1.000000000000000000 ) ) ;
#240 = ORIENTED_EDGE ( 'NONE', *, *, #415, .F. ) ;
#241 = DIRECTION ( 'NONE',  ( 0.000000000000000000, 0.000000000000000000, 1.000000000000000000 ) ) ;
#242 = LINE ( 'NONE', #305, #186 ) ;
#243 = EDGE_CURVE ( 'NONE', #269, #1, #6, .T. ) ;
#244 = ORIENTED_EDGE ( 'NONE', *, *, #60, .T. ) ;
#245 = DIRECTION ( 'NONE',  ( 0.000000000000000000, 0.000000000000000000, 1.000000000000000000 ) ) ;
#246 = AXIS2_PLACEMENT_3D ( 'NONE', #592, #543, #484 ) ;
#247 = AXIS2_PLACEMENT_3D ( 'NONE', #516, #528, #245 ) ;
#248 =( LENGTH_UNIT ( ) NAMED_UNIT ( * ) SI_UNIT ( .MILLI., .METRE. ) );
#249 = CARTESIAN_POINT ( 'NONE',  ( 6.000000000000001776, 0.000000000000000000, 54.67174773134658494 ) ) ;
#250 = EDGE_CURVE ( 'NONE', #477, #87, #481, .T. ) ;
#251 = CYLINDRICAL_SURFACE ( 'NONE', #378, 5.000000000000004441 ) ;
#252 = VERTEX_POINT ( 'NONE', #480 ) ;
#253 = SHAPE_DEFINITION_REPRESENTATION ( #525, #3 ) ;
#254 = EDGE_CURVE ( 'NONE', #388, #348, #683, .T. ) ;
#255 = CARTESIAN_POINT ( 'NONE',  ( 6.000000000000001776, 50.00000000000000000, 54.67174773134658494 ) ) ;
#256 = CARTESIAN_POINT ( 'NONE',  ( -5.878304635907306044E-16, 7.000000000000001776, 79.80000000000001137 ) ) ;
#257 = VECTOR ( 'NONE', #436, 1000.000000000000000 ) ;
#258 = ORIENTED_EDGE ( 'NONE', *, *, #418, .F. ) ;
#259 = STYLED_ITEM ( 'NONE', ( #521 ), #147 ) ;
#260 = DIRECTION ( 'NONE',  ( 0.000000000000000000, 0.000000000000000000, 1.000000000000000000 ) ) ;
#261 = DIRECTION ( 'NONE',  ( 0.000000000000000000, 0.000000000000000000, -1.000000000000000000 ) ) ;
#262 = ORIENTED_EDGE ( 'NONE', *, *, #238, .T. ) ;
#263 = VERTEX_POINT ( 'NONE', #318 ) ;
#264 = LINE ( 'NONE', #548, #535 ) ;
#265 = ORIENTED_EDGE ( 'NONE', *, *, #435, .F. ) ;
#266 = DIRECTION ( 'NONE',  ( 0.000000000000000000, 0.000000000000000000, -1.000000000000000000 ) ) ;
#267 = AXIS2_PLACEMENT_3D ( 'NONE', #446, #381, #105 ) ;
#268 = ORIENTED_EDGE ( 'NONE', *, *, #478, .T. ) ;
#269 = VERTEX_POINT ( 'NONE', #96 ) ;
#270 = VERTEX_POINT ( 'NONE', #492 ) ;
#271 = DIRECTION ( 'NONE',  ( 0.000000000000000000, 1.000000000000000000, -0.000000000000000000 ) ) ;
#272 = FACE_OUTER_BOUND ( 'NONE', #287, .T. ) ;
#273 = ORIENTED_EDGE ( 'NONE', *, *, #213, .F. ) ;
#274 = DIRECTION ( 'NONE',  ( 0.000000000000000000, 0.000000000000000000, 1.000000000000000000 ) ) ;
#275 = VERTEX_POINT ( 'NONE', #48 ) ;
#276 = EDGE_CURVE ( 'NONE', #353, #570, #2, .T. ) ;
#277 = ORIENTED_EDGE ( 'NONE', *, *, #626, .F. ) ;
#278 = EDGE_CURVE ( 'NONE', #393, #388, #41, .T. ) ;
#279 = DIRECTION ( 'NONE',  ( -0.000000000000000000, -1.000000000000000000, 0.000000000000000000 ) ) ;
#280 =( GEOMETRIC_REPRESENTATION_CONTEXT ( 3 ) GLOBAL_UNCERTAINTY_ASSIGNED_CONTEXT ( ( #356 ) ) GLOBAL_UNIT_ASSIGNED_CONTEXT ( ( #248, #138, #369 ) ) REPRESENTATION_CONTEXT ( 'NONE', 'WORKASPACE' ) );
#281 = AXIS2_PLACEMENT_3D ( 'NONE', #146, #29, #582 ) ;
#282 = COLOUR_RGB ( '',0.7921568627450980005, 0.8196078431372548767, 0.9333333333333333481 ) ;
#283 = LINE ( 'NONE', #109, #223 ) ;
#284 = LINE ( 'NONE', #669, #172 ) ;
#285 = CARTESIAN_POINT ( 'NONE',  ( -15.94763292336648419, 11.53101598373405956, 57.06132706800147503 ) ) ;
#286 = DIRECTION ( 'NONE',  ( -0.000000000000000000, -1.000000000000000000, -0.000000000000000000 ) ) ;
#287 = EDGE_LOOP ( 'NONE', ( #624, #565, #244, #158 ) ) ;
#288 = CARTESIAN_POINT ( 'NONE',  ( 0.000000000000000000, 0.000000000000000000, 0.000000000000000000 ) ) ;
#289 = CARTESIAN_POINT ( 'NONE',  ( -23.76907848142444735, 19.85423443335529115, 49.76511315782184397 ) ) ;
#290 = FACE_OUTER_BOUND ( 'NONE', #31, .T. ) ;
#291 = ORIENTED_EDGE ( 'NONE', *, *, #79, .T. ) ;
#292 = CIRCLE ( 'NONE', #569, 4.000000000000003553 ) ;
#293 = ADVANCED_FACE ( 'NONE', ( #530 ), #368, .F. ) ;
#294 = CARTESIAN_POINT ( 'NONE',  ( -25.88235294117647811, 50.00000000000000000, 48.52941176470588402 ) ) ;
#295 = CARTESIAN_POINT ( 'NONE',  ( 9.965598218500197447, 20.60399164828509200, 54.13940421622621102 ) ) ;
#296 = DIRECTION ( 'NONE',  ( -0.000000000000000000, -1.000000000000000000, -0.000000000000000000 ) ) ;
#297 = DIRECTION ( 'NONE',  ( 0.000000000000000000, 0.000000000000000000, -1.000000000000000000 ) ) ;
#298 = EDGE_LOOP ( 'NONE', ( #208, #541, #210, #421 ) ) ;
#299 = FACE_OUTER_BOUND ( 'NONE', #67, .T. ) ;
#300 = FILL_AREA_STYLE ('',( #308 ) ) ;
#301 = CARTESIAN_POINT ( 'NONE',  ( 9.957629625155998809, 21.29855539787065766, 54.09108625502187806 ) ) ;
#302 = ADVANCED_FACE ( 'NONE', ( #94, #419 ), #322, .T. ) ;
#303 = VECTOR ( 'NONE', #118, 1000.000000000000227 ) ;
#304 =( GEOMETRIC_REPRESENTATION_CONTEXT ( 3 ) GLOBAL_UNCERTAINTY_ASSIGNED_CONTEXT ( ( #599 ) ) GLOBAL_UNIT_ASSIGNED_CONTEXT ( ( #143, #23, #461 ) ) REPRESENTATION_CONTEXT ( 'NONE', 'WORKASPACE' ) );
#305 = CARTESIAN_POINT ( 'NONE',  ( -8.572527594031484037E-16, 7.000000000000001776, 84.20000000000000284 ) ) ;
#306 = ORIENTED_EDGE ( 'NONE', *, *, #243, .T. ) ;
#307 = CARTESIAN_POINT ( 'NONE',  ( 6.000000000000001776, 50.00000000000000000, 54.67174773134658494 ) ) ;
#308 = FILL_AREA_STYLE_COLOUR ( '', #282 ) ;
#309 = ORIENTED_EDGE ( 'NONE', *, *, #79, .F. ) ;
#310 = VECTOR ( 'NONE', #637, 999.9999999999998863 ) ;
#311 = ORIENTED_EDGE ( 'NONE', *, *, #160, .T. ) ;
#312 = VECTOR ( 'NONE', #465, 1000.000000000000000 ) ;
#313 = FACE_OUTER_BOUND ( 'NONE', #394, .T. ) ;
#314 = CARTESIAN_POINT ( 'NONE',  ( 10.00000000000000355, 13.16125260442274403, 57.00350089029546297 ) ) ;
#315 = VERTEX_POINT ( 'NONE', #539 ) ;
#316 = ORIENTED_EDGE ( 'NONE', *, *, #327, .T. ) ;
#317 = EDGE_CURVE ( 'NONE', #393, #340, #319, .T. ) ;
#318 = CARTESIAN_POINT ( 'NONE',  ( -10.56641786858246768, 6.999999999999999112, 69.19791047008935436 ) ) ;
#319 = CIRCLE ( 'NONE', #647, 1.199999999999992628 ) ;
#320 = CARTESIAN_POINT ( 'NONE',  ( -10.00000000000000711, 7.000000000000000000, 1.084202172485505815E-15 ) ) ;
#321 = VECTOR ( 'NONE', #445, 1000.000000000000000 ) ;
#322 = PLANE ( 'NONE',  #246 ) ;
#323 = CARTESIAN_POINT ( 'NONE',  ( 0.000000000000000000, 22.00000000000000000, 0.000000000000000000 ) ) ;
#324 = EDGE_LOOP ( 'NONE', ( #104, #398, #103, #417, #600 ) ) ;
#325 = EDGE_CURVE ( 'NONE', #97, #393, #595, .T. ) ;
#326 = DIRECTION ( 'NONE',  ( -0.000000000000000000, -1.000000000000000000, 0.000000000000000000 ) ) ;
#327 = EDGE_CURVE ( 'NONE', #44, #53, #58, .T. ) ;
#328 = CARTESIAN_POINT ( 'NONE',  ( 10.00000000000000355, 9.529093449221948120, 60.80923583201905558 ) ) ;
#329 = CYLINDRICAL_SURFACE ( 'NONE', #81, 1.199999999999992628 ) ;
#330 = DIRECTION ( 'NONE',  ( -0.000000000000000000, -1.000000000000000000, -0.000000000000000000 ) ) ;
#331 = CARTESIAN_POINT ( 'NONE',  ( -11.15450889005957080, 7.151380302483018703, 66.66036146230415227 ) ) ;
#332 = DIRECTION ( 'NONE',  ( -0.000000000000000000, 1.000000000000000000, -0.000000000000000000 ) ) ;
#333 = AXIS2_PLACEMENT_3D ( 'NONE', #323, #271, #375 ) ;
#334 = VERTEX_POINT ( 'NONE', #227 ) ;
#335 = AXIS2_PLACEMENT_3D ( 'NONE', #576, #630, #202 ) ;
#336 = ORIENTED_EDGE ( 'NONE', *, *, #607, .F. ) ;
#337 = DIRECTION ( 'NONE',  ( 0.000000000000000000, 1.000000000000000000, 0.000000000000000000 ) ) ;
#338 = DIRECTION ( 'NONE',  ( 0.8660254037844389297, 0.000000000000000000, 0.4999999999999994449 ) ) ;
#339 = DIRECTION ( 'NONE',  ( -1.000000000000000000, 0.000000000000000000, 0.000000000000000000 ) ) ;
#340 = VERTEX_POINT ( 'NONE', #608 ) ;
#341 = DIRECTION ( 'NONE',  ( 0.000000000000000000, 0.000000000000000000, -1.000000000000000000 ) ) ;
#342 = CARTESIAN_POINT ( 'NONE',  ( -47.63139720814417899, 50.00000000000000000, -27.49999999999989697 ) ) ;
#343 = LINE ( 'NONE', #75, #700 ) ;
#344 = ORIENTED_EDGE ( 'NONE', *, *, #667, .F. ) ;
#345 = ORIENTED_EDGE ( 'NONE', *, *, #493, .F. ) ;
#346 = CARTESIAN_POINT ( 'NONE',  ( -12.70415361028489620, 8.324369882029325041, 62.53798496925904971 ) ) ;
#347 = FACE_OUTER_BOUND ( 'NONE', #593, .T. ) ;
#348 = VERTEX_POINT ( 'NONE', #500 ) ;
#349 = FACE_OUTER_BOUND ( 'NONE', #657, .T. ) ;
#350 = AXIS2_PLACEMENT_3D ( 'NONE', #307, #405, #133 ) ;
#351 = DIRECTION ( 'NONE',  ( 1.084202172485504927E-16, 0.000000000000000000, 1.000000000000000000 ) ) ;
#352 = CARTESIAN_POINT ( 'NONE',  ( 6.000000000000001776, 50.00000000000000000, 54.67174773134658494 ) ) ;
#353 = VERTEX_POINT ( 'NONE', #62 ) ;
#354 = ORIENTED_EDGE ( 'NONE', *, *, #170, .F. ) ;
#355 = DIRECTION ( 'NONE',  ( 0.000000000000000000, 0.000000000000000000, 1.000000000000000000 ) ) ;
#356 = UNCERTAINTY_MEASURE_WITH_UNIT (LENGTH_MEASURE( 1.000000000000000082E-05 ), #248, 'distance_accuracy_value', 'NONE');
#357 = DIRECTION ( 'NONE',  ( -0.000000000000000000, -1.000000000000000000, -0.000000000000000000 ) ) ;
#358 = DIRECTION ( 'NONE',  ( 0.000000000000000000, 0.000000000000000000, 1.000000000000000000 ) ) ;
#359 = DIRECTION ( 'NONE',  ( 0.000000000000000000, 1.000000000000000000, 0.000000000000000000 ) ) ;
#360 = EDGE_CURVE ( 'NONE', #495, #589, #38, .T. ) ;
#361 = DIRECTION ( 'NONE',  ( 0.000000000000000000, 1.000000000000000000, 0.000000000000000000 ) ) ;
#362 = CARTESIAN_POINT ( 'NONE',  ( 0.000000000000000000, 0.000000000000000000, 91.08326913195983821 ) ) ;
#363 = ORIENTED_EDGE ( 'NONE', *, *, #73, .F. ) ;
#364 = DIRECTION ( 'NONE',  ( -0.000000000000000000, 1.000000000000000000, -0.000000000000000000 ) ) ;
#365 = ORIENTED_EDGE ( 'NONE', *, *, #450, .T. ) ;
#366 = ORIENTED_EDGE ( 'NONE', *, *, #390, .F. ) ;
#367 = EDGE_CURVE ( 'NONE', #97, #688, #498, .T. ) ;
#368 = PLANE ( 'NONE',  #659 ) ;
#369 =( NAMED_UNIT ( * ) SI_UNIT ( $, .STERADIAN. ) SOLID_ANGLE_UNIT ( ) );
#370 = VECTOR ( 'NONE', #632, 1000.000000000000000 ) ;
#371 = CARTESIAN_POINT ( 'NONE',  ( -47.63139720814419320, 50.00000000000000000, -27.49999999999988276 ) ) ;
#372 = ORIENTED_EDGE ( 'NONE', *, *, #193, .T. ) ;
#373 = EDGE_CURVE ( 'NONE', #119, #269, #658, .T. ) ;
#374 = CARTESIAN_POINT ( 'NONE',  ( 10.00000000000000178, 7.000000000000000888, 68.46162541527145606 ) ) ;
#375 = DIRECTION ( 'NONE',  ( 0.000000000000000000, 0.000000000000000000, 1.000000000000000000 ) ) ;
#376 = CARTESIAN_POINT ( 'NONE',  ( 10.00000000000000000, 7.000000000000000000, 69.28203230275509839 ) ) ;
#377 = B_SPLINE_CURVE_WITH_KNOTS ( 'NONE', 3,
 ( #163, #379, #49, #383, #152, #211, #606, #314, #540, #428, #656, #106, #704, #328, #605, #654, #157, #425, #550, #155, #374, #376 ),
 .UNSPECIFIED., .F., .F.,
 ( 4, 2, 2, 2, 2, 2, 2, 2, 2, 2, 4 ),
 ( 0.004166672954133512387, 0.005380114009504142342, 0.006593555064874771429, 0.009020437175616026135, 0.01023387823098666216, 0.01144731928635729645, 0.01387420139709856504, 0.01630108350783983709, 0.01872796561858112649, 0.02115484772932241589, 0.02358172984006370529 ),
 .UNSPECIFIED. ) ;
#378 = AXIS2_PLACEMENT_3D ( 'NONE', #466, #124, #195 ) ;
#379 = CARTESIAN_POINT ( 'NONE',  ( 10.00000000000000178, 17.48256876692792261, 54.78545827123012657 ) ) ;
#380 = ORIENTED_EDGE ( 'NONE', *, *, #588, .F. ) ;
#381 = DIRECTION ( 'NONE',  ( 0.000000000000000000, 1.000000000000000000, -0.000000000000000000 ) ) ;
#382 = AXIS2_PLACEMENT_3D ( 'NONE', #453, #296, #397 ) ;
#383 = CARTESIAN_POINT ( 'NONE',  ( 10.00000000000000000, 16.32958831423540857, 55.20876069139242048 ) ) ;
#384 = FACE_BOUND ( 'NONE', #697, .T. ) ;
#385 = EDGE_LOOP ( 'NONE', ( #83, #169, #216, #531 ) ) ;
#386 = EDGE_CURVE ( 'NONE', #457, #589, #460, .T. ) ;
#387 = CARTESIAN_POINT ( 'NONE',  ( -25.02596081986307652, 21.14008157270841082, 49.00311509935774268 ) ) ;
#388 = VERTEX_POINT ( 'NONE', #121 ) ;
#389 = CARTESIAN_POINT ( 'NONE',  ( -47.63139720814419320, 0.000000000000000000, -27.49999999999988276 ) ) ;
#390 = EDGE_CURVE ( 'NONE', #270, #495, #616, .T. ) ;
#391 = CARTESIAN_POINT ( 'NONE',  ( -14.97919588341814645, 10.52525497469966709, 58.43843459092730797 ) ) ;
#392 = CARTESIAN_POINT ( 'NONE',  ( -9.999999999999998224, 7.000000000000000000, 86.08326913195982399 ) ) ;
#393 = VERTEX_POINT ( 'NONE', #612 ) ;
#394 = EDGE_LOOP ( 'NONE', ( #427, #177, #112, #50 ) ) ;
#395 = LINE ( 'NONE', #126, #257 ) ;
#396 = ADVANCED_FACE ( 'NONE', ( #491 ), #329, .F. ) ;
#397 = DIRECTION ( 'NONE',  ( 0.000000000000000000, 0.000000000000000000, -1.000000000000000000 ) ) ;
#398 = ORIENTED_EDGE ( 'NONE', *, *, #167, .T. ) ;
#399 = ORIENTED_EDGE ( 'NONE', *, *, #701, .T. ) ;
#400 = LINE ( 'NONE', #362, #115 ) ;
#401 = EDGE_CURVE ( 'NONE', #570, #698, #430, .T. ) ;
#402 = DIRECTION ( 'NONE',  ( -0.000000000000000000, 1.000000000000000000, -0.000000000000000000 ) ) ;
#403 = DIRECTION ( 'NONE',  ( -0.000000000000000000, -1.000000000000000000, -0.000000000000000000 ) ) ;
#404 = ORIENTED_EDGE ( 'NONE', *, *, #401, .T. ) ;
#405 = DIRECTION ( 'NONE',  ( -0.000000000000000000, -1.000000000000000000, -0.000000000000000000 ) ) ;
#406 = SURFACE_STYLE_FILL_AREA ( #300 ) ;
#407 = DIRECTION ( 'NONE',  ( 0.000000000000000000, 0.000000000000000000, 1.000000000000000000 ) ) ;
#408 = LINE ( 'NONE', #584, #621 ) ;
#409 = CARTESIAN_POINT ( 'NONE',  ( 6.000000000000001776, 50.00000000000000000, 50.67174773134658494 ) ) ;
#410 = ORIENTED_EDGE ( 'NONE', *, *, #60, .F. ) ;
#411 = APPLICATION_PROTOCOL_DEFINITION ( 'draft international standard', 'automotive_design', 1998, #137 ) ;
#412 = AXIS2_PLACEMENT_3D ( 'NONE', #190, #364, #529 ) ;
#413 = VECTOR ( 'NONE', #235, 1000.000000000000000 ) ;
#414 = CARTESIAN_POINT ( 'NONE',  ( 5.563636363636365267, 0.000000000000000000, 50.69562062361229238 ) ) ;
#415 = EDGE_CURVE ( 'NONE', #467, #315, #284, .T. ) ;
#416 = EDGE_LOOP ( 'NONE', ( #527, #682, #311, #144 ) ) ;
#417 = ORIENTED_EDGE ( 'NONE', *, *, #243, .F. ) ;
#418 = EDGE_CURVE ( 'NONE', #270, #44, #65, .T. ) ;
#419 = FACE_OUTER_BOUND ( 'NONE', #156, .T. ) ;
#420 = DIRECTION ( 'NONE',  ( -0.000000000000000000, -1.000000000000000000, -0.000000000000000000 ) ) ;
#421 = ORIENTED_EDGE ( 'NONE', *, *, #501, .T. ) ;
#422 = AXIS2_PLACEMENT_3D ( 'NONE', #207, #601, #260 ) ;
#423 = AXIS2_PLACEMENT_3D ( 'NONE', #108, #330, #113 ) ;
#424 = CIRCLE ( 'NONE', #583, 4.000000000000003553 ) ;
#425 = CARTESIAN_POINT ( 'NONE',  ( 10.00000000000000178, 7.521145072465218462, 65.23719935777612022 ) ) ;
#426 = ORIENTED_EDGE ( 'NONE', *, *, #462, .T. ) ;
#427 = ORIENTED_EDGE ( 'NONE', *, *, #317, .F. ) ;
#428 = CARTESIAN_POINT ( 'NONE',  ( 10.00000000000000178, 12.20440290709680653, 57.77383189712265477 ) ) ;
#429 = ORIENTED_EDGE ( 'NONE', *, *, #547, .T. ) ;
#430 = LINE ( 'NONE', #10, #483 ) ;
#431 = CARTESIAN_POINT ( 'NONE',  ( -10.00000000000000711, 7.000000000000000000, 1.084202172485505815E-15 ) ) ;
#432 = VECTOR ( 'NONE', #653, 1000.000000000000000 ) ;
#433 = ORIENTED_EDGE ( 'NONE', *, *, #20, .F. ) ;
#434 = TOROIDAL_SURFACE ( 'NONE', #604, 70.00000000000000000, 15.00000000000000000 ) ;
#435 = EDGE_CURVE ( 'NONE', #490, #457, #536, .T. ) ;
#436 = DIRECTION ( 'NONE',  ( -0.000000000000000000, -1.000000000000000000, -0.000000000000000000 ) ) ;
#437 = DIRECTION ( 'NONE',  ( 0.000000000000000000, 0.000000000000000000, 1.000000000000000000 ) ) ;
#438 = DIRECTION ( 'NONE',  ( 0.000000000000000000, 1.000000000000000000, 0.000000000000000000 ) ) ;
#439 = ORIENTED_EDGE ( 'NONE', *, *, #327, .F. ) ;
#440 = CARTESIAN_POINT ( 'NONE',  ( -19.44638502954758863, 15.27289106873922364, 53.12292236337786022 ) ) ;
#441 = ADVANCED_FACE ( 'NONE', ( #225 ), #673, .T. ) ;
#442 = ORIENTED_EDGE ( 'NONE', *, *, #43, .T. ) ;
#443 = CARTESIAN_POINT ( 'NONE',  ( -5.000000000000005329, 7.000000000000000000, 86.08326913195982399 ) ) ;
#444 = DIRECTION ( 'NONE',  ( 0.000000000000000000, 0.000000000000000000, 1.000000000000000000 ) ) ;
#445 = DIRECTION ( 'NONE',  ( 0.000000000000000000, 1.000000000000000000, 0.000000000000000000 ) ) ;
#446 = CARTESIAN_POINT ( 'NONE',  ( 0.000000000000000000, 22.00000000000000000, 0.000000000000000000 ) ) ;
#447 = CIRCLE ( 'NONE', #333, 55.00000000000000000 ) ;
#448 = ORIENTED_EDGE ( 'NONE', *, *, #450, .F. ) ;
#449 = ORIENTED_EDGE ( 'NONE', *, *, #250, .T. ) ;
#450 = EDGE_CURVE ( 'NONE', #589, #263, #509, .T. ) ;
#451 = CARTESIAN_POINT ( 'NONE',  ( 0.000000000000000000, 7.000000000000000000, 91.08326913195983821 ) ) ;
#452 = DIRECTION ( 'NONE',  ( 0.000000000000000000, 0.000000000000000000, 1.000000000000000000 ) ) ;
#453 = CARTESIAN_POINT ( 'NONE',  ( -5.000000000000005329, 7.000000000000000000, 86.08326913195982399 ) ) ;
#454 = FACE_OUTER_BOUND ( 'NONE', #643, .T. ) ;
#455 = ORIENTED_EDGE ( 'NONE', *, *, #145, .F. ) ;
#456 = EDGE_CURVE ( 'NONE', #87, #467, #671, .T. ) ;
#457 = VERTEX_POINT ( 'NONE', #619 ) ;
#458 = DIRECTION ( 'NONE',  ( -0.000000000000000000, -1.000000000000000000, -0.000000000000000000 ) ) ;
#459 = CARTESIAN_POINT ( 'NONE',  ( 9.957629625155998809, 22.00000000000000000, 54.09108625502187095 ) ) ;
#460 = CIRCLE ( 'NONE', #699, 15.00000000000000000 ) ;
#461 =( NAMED_UNIT ( * ) SI_UNIT ( $, .STERADIAN. ) SOLID_ANGLE_UNIT ( ) );
#462 = EDGE_CURVE ( 'NONE', #315, #275, #59, .T. ) ;
#463 = DIRECTION ( 'NONE',  ( -0.000000000000000000, -1.000000000000000000, -0.000000000000000000 ) ) ;
#464 = ORIENTED_EDGE ( 'NONE', *, *, #167, .F. ) ;
#465 = DIRECTION ( 'NONE',  ( -0.000000000000000000, -1.000000000000000000, -0.000000000000000000 ) ) ;
#466 = CARTESIAN_POINT ( 'NONE',  ( 5.000000000000005329, 7.000000000000000000, 86.08326913195982399 ) ) ;
#467 = VERTEX_POINT ( 'NONE', #684 ) ;
#468 = ADVANCED_FACE ( 'NONE', ( #454 ), #251, .T. ) ;
#469 = LINE ( 'NONE', #194, #370 ) ;
#470 = DIRECTION ( 'NONE',  ( 0.000000000000000000, 1.000000000000000000, 0.000000000000000000 ) ) ;
#471 = CONICAL_SURFACE ( 'NONE', #412, 2.199999999999993516, 0.7853981633974472798 ) ;
#472 = AXIS2_PLACEMENT_3D ( 'NONE', #352, #463, #638 ) ;
#473 = LINE ( 'NONE', #36, #312 ) ;
#474 = VERTEX_POINT ( 'NONE', #680 ) ;
#475 = CARTESIAN_POINT ( 'NONE',  ( 0.000000000000000000, 7.000000000000000000, 91.08326913195983821 ) ) ;
#476 = DIRECTION ( 'NONE',  ( -0.000000000000000000, -1.000000000000000000, -0.000000000000000000 ) ) ;
#477 = VERTEX_POINT ( 'NONE', #409 ) ;
#478 = EDGE_CURVE ( 'NONE', #688, #97, #640, .T. ) ;
#479 = DIRECTION ( 'NONE',  ( -0.000000000000000000, 1.000000000000000000, -0.000000000000000000 ) ) ;
#480 = CARTESIAN_POINT ( 'NONE',  ( 9.957629625155970388, 50.00000000000000000, 54.09108625502187095 ) ) ;
#481 = LINE ( 'NONE', #206, #233 ) ;
#482 = ADVANCED_FACE ( 'NONE', ( #347 ), #434, .F. ) ;
#483 = VECTOR ( 'NONE', #551, 1000.000000000000000 ) ;
#484 = DIRECTION ( 'NONE',  ( 0.000000000000000000, 0.000000000000000000, 1.000000000000000000 ) ) ;
#485 = ORIENTED_EDGE ( 'NONE', *, *, #367, .T. ) ;
#486 = PRODUCT_DEFINITION_CONTEXT ( 'detailed design', #95, 'design' ) ;
#487 = ORIENTED_EDGE ( 'NONE', *, *, #462, .F. ) ;
#488 = PLANE ( 'NONE',  #554 ) ;
#489 = CARTESIAN_POINT ( 'NONE',  ( 5.563636363636365267, 50.00000000000000000, 50.69562062361229238 ) ) ;
#490 = VERTEX_POINT ( 'NONE', #514 ) ;
#491 = FACE_OUTER_BOUND ( 'NONE', #385, .T. ) ;
#492 = CARTESIAN_POINT ( 'NONE',  ( 9.999999999999998224, 7.000000000000000000, 86.08326913195982399 ) ) ;
#493 = EDGE_CURVE ( 'NONE', #27, #698, #537, .T. ) ;
#494 = EDGE_LOOP ( 'NONE', ( #694, #505, #192, #366, #37 ) ) ;
#495 = VERTEX_POINT ( 'NONE', #25 ) ;
#496 = DIRECTION ( 'NONE',  ( 0.000000000000000000, 0.000000000000000000, 1.000000000000000000 ) ) ;
#497 = CARTESIAN_POINT ( 'NONE',  ( -9.999999999999998224, 0.000000000000000000, 74.99999999999998579 ) ) ;
#498 = CIRCLE ( 'NONE', #128, 1.199999999999992628 ) ;
#499 = CIRCLE ( 'NONE', #247, 4.000000000000003553 ) ;
#500 = CARTESIAN_POINT ( 'NONE',  ( -8.572527594031484037E-16, 7.000000000000001776, 84.20000000000000284 ) ) ;
#501 = EDGE_CURVE ( 'NONE', #348, #388, #222, .T. ) ;
#502 = DIRECTION ( 'NONE',  ( 0.000000000000000000, 0.000000000000000000, 1.000000000000000000 ) ) ;
#503 = CARTESIAN_POINT ( 'NONE',  ( -8.572527594031484037E-16, 7.000000000000000000, 82.00000000000000000 ) ) ;
#504 = CARTESIAN_POINT ( 'NONE',  ( -20.19491792658170937, 16.07908185692193470, 52.44432051698517228 ) ) ;
#505 = ORIENTED_EDGE ( 'NONE', *, *, #415, .T. ) ;
#506 = ORIENTED_EDGE ( 'NONE', *, *, #149, .T. ) ;
#507 = FACE_OUTER_BOUND ( 'NONE', #111, .T. ) ;
#508 = CARTESIAN_POINT ( 'NONE',  ( -25.66770450471006271, 21.78615532805200772, 48.64389093082130699 ) ) ;
#509 = CIRCLE ( 'NONE', #199, 70.00000000000000000 ) ;
#510 = EDGE_LOOP ( 'NONE', ( #309, #533, #646, #203 ) ) ;
#511 = CARTESIAN_POINT ( 'NONE',  ( 0.000000000000000000, 6.999999999999999112, 70.00000000000000000 ) ) ;
#512 = CIRCLE ( 'NONE', #71, 30.00000000000000000 ) ;
#513 = CARTESIAN_POINT ( 'NONE',  ( 5.000000000000005329, 0.000000000000000000, 91.08326913195983821 ) ) ;
#514 = CARTESIAN_POINT ( 'NONE',  ( -25.88235294117647811, 22.00000000000000000, 48.52941176470588402 ) ) ;
#515 = ORIENTED_EDGE ( 'NONE', *, *, #73, .T. ) ;
#516 = CARTESIAN_POINT ( 'NONE',  ( 6.000000000000001776, 0.000000000000000000, 54.67174773134658494 ) ) ;
#517 = CARTESIAN_POINT ( 'NONE',  ( 5.000000000000005329, 7.000000000000000000, 86.08326913195982399 ) ) ;
#518 = ADVANCED_FACE ( 'NONE', ( #290 ), #130, .T. ) ;
#519 = CARTESIAN_POINT ( 'NONE',  ( -25.88235294117647456, 0.000000000000000000, 48.52941176470587692 ) ) ;
#520 = ORIENTED_EDGE ( 'NONE', *, *, #117, .F. ) ;
#521 = PRESENTATION_STYLE_ASSIGNMENT (( #134 ) ) ;
#522 = DIRECTION ( 'NONE',  ( 0.000000000000000000, 1.000000000000000000, -0.000000000000000000 ) ) ;
#523 = AXIS2_PLACEMENT_3D ( 'NONE', #517, #21, #241 ) ;
#524 = CIRCLE ( 'NONE', #209, 51.00000000000000711 ) ;
#525 = PRODUCT_DEFINITION_SHAPE ( 'NONE', 'NONE',  #534 ) ;
#526 = CARTESIAN_POINT ( 'NONE',  ( 10.00000000000000178, 0.000000000000000000, 54.08326913195983821 ) ) ;
#527 = ORIENTED_EDGE ( 'NONE', *, *, #325, .F. ) ;
#528 = DIRECTION ( 'NONE',  ( -0.000000000000000000, -1.000000000000000000, -0.000000000000000000 ) ) ;
#529 = DIRECTION ( 'NONE',  ( 0.000000000000000000, 0.000000000000000000, 1.000000000000000000 ) ) ;
#530 = FACE_OUTER_BOUND ( 'NONE', #617, .T. ) ;
#531 = ORIENTED_EDGE ( 'NONE', *, *, #160, .F. ) ;
#532 = CYLINDRICAL_SURFACE ( 'NONE', #350, 4.000000000000003553 ) ;
#533 = ORIENTED_EDGE ( 'NONE', *, *, #238, .F. ) ;
#534 = PRODUCT_DEFINITION ( 'NON CONOSCIUTO', '', #101, #486 ) ;
#535 = VECTOR ( 'NONE', #476, 1000.000000000000000 ) ;
#536 = CIRCLE ( 'NONE', #267, 55.00000000000000000 ) ;
#537 = CIRCLE ( 'NONE', #26, 5.000000000000004441 ) ;
#538 = ORIENTED_EDGE ( 'NONE', *, *, #676, .F. ) ;
#539 = CARTESIAN_POINT ( 'NONE',  ( 10.00000000000000178, 17.87347486489138504, 54.67174773135155874 ) ) ;
#540 = CARTESIAN_POINT ( 'NONE',  ( 10.00000000000000178, 12.83458943526085250, 57.25214710750261560 ) ) ;
#541 = ORIENTED_EDGE ( 'NONE', *, *, #549, .F. ) ;
#542 = ORIENTED_EDGE ( 'NONE', *, *, #360, .T. ) ;
#543 = DIRECTION ( 'NONE',  ( 0.000000000000000000, 1.000000000000000000, -0.000000000000000000 ) ) ;
#544 = AXIS2_PLACEMENT_3D ( 'NONE', #687, #622, #187 ) ;
#545 = DIRECTION ( 'NONE',  ( 1.000000000000000000, 0.000000000000000000, -1.084202172485505050E-16 ) ) ;
#546 = ORIENTED_EDGE ( 'NONE', *, *, #360, .F. ) ;
#547 = EDGE_CURVE ( 'NONE', #1, #201, #343, .T. ) ;
#548 = CARTESIAN_POINT ( 'NONE',  ( -47.63139720814417899, 50.00000000000000000, -27.49999999999989697 ) ) ;
#549 = EDGE_CURVE ( 'NONE', #340, #393, #200, .T. ) ;
#550 = CARTESIAN_POINT ( 'NONE',  ( 10.00000000000000178, 7.325081745269365285, 66.03821894637918888 ) ) ;
#551 = DIRECTION ( 'NONE',  ( -0.000000000000000000, -1.000000000000000000, -0.000000000000000000 ) ) ;
#552 = ADVANCED_FACE ( 'NONE', ( #628 ), #564, .F. ) ;
#553 = FACE_OUTER_BOUND ( 'NONE', #655, .T. ) ;
#554 = AXIS2_PLACEMENT_3D ( 'NONE', #371, #39, #46 ) ;
#555 = AXIS2_PLACEMENT_3D ( 'NONE', #77, #361, #574 ) ;
#556 = CARTESIAN_POINT ( 'NONE',  ( -11.76032613041010144, 7.556462404643097486, 64.85486314446816891 ) ) ;
#557 = DIRECTION ( 'NONE',  ( 0.000000000000000000, 0.000000000000000000, 1.000000000000000000 ) ) ;
#558 = ORIENTED_EDGE ( 'NONE', *, *, #435, .T. ) ;
#559 = LINE ( 'NONE', #294, #321 ) ;
#560 = DIRECTION ( 'NONE',  ( 0.000000000000000000, 0.000000000000000000, 1.000000000000000000 ) ) ;
#561 = ORIENTED_EDGE ( 'NONE', *, *, #43, .F. ) ;
#562 = PLANE ( 'NONE',  #660 ) ;
#563 = FACE_OUTER_BOUND ( 'NONE', #180, .T. ) ;
#564 = CYLINDRICAL_SURFACE ( 'NONE', #162, 51.00000000000000711 ) ;
#565 = ORIENTED_EDGE ( 'NONE', *, *, #607, .T. ) ;
#566 = ORIENTED_EDGE ( 'NONE', *, *, #456, .T. ) ;
#567 = LINE ( 'NONE', #389, #142 ) ;
#568 = CARTESIAN_POINT ( 'NONE',  ( 0.000000000000000000, 22.00000000000000000, 0.000000000000000000 ) ) ;
#569 = AXIS2_PLACEMENT_3D ( 'NONE', #255, #359, #689 ) ;
#570 = VERTEX_POINT ( 'NONE', #392 ) ;
#571 = AXIS2_PLACEMENT_3D ( 'NONE', #69, #677, #407 ) ;
#572 = PRODUCT_CONTEXT ( 'NONE', #137, 'mechanical' ) ;
#573 = DIRECTION ( 'NONE',  ( 0.000000000000000000, 0.000000000000000000, 1.000000000000000000 ) ) ;
#574 = DIRECTION ( 'NONE',  ( 0.000000000000000000, 0.000000000000000000, 1.000000000000000000 ) ) ;
#575 = ORIENTED_EDGE ( 'NONE', *, *, #676, .T. ) ;
#576 = CARTESIAN_POINT ( 'NONE',  ( 0.000000000000000000, 50.00000000000000000, 0.000000000000000000 ) ) ;
#577 = DIRECTION ( 'NONE',  ( 0.000000000000000000, 0.000000000000000000, 1.000000000000000000 ) ) ;
#578 = DIRECTION ( 'NONE',  ( 0.000000000000000000, 1.000000000000000000, 0.000000000000000000 ) ) ;
#579 = DIRECTION ( 'NONE',  ( -0.000000000000000000, -1.000000000000000000, -0.000000000000000000 ) ) ;
#580 = VERTEX_POINT ( 'NONE', #519 ) ;
#581 = VECTOR ( 'NONE', #286, 1000.000000000000000 ) ;
#582 = DIRECTION ( 'NONE',  ( 1.000000000000000000, 0.000000000000000000, 0.000000000000000000 ) ) ;
#583 = AXIS2_PLACEMENT_3D ( 'NONE', #237, #615, #120 ) ;
#584 = CARTESIAN_POINT ( 'NONE',  ( -5.000000000000005329, 7.000000000000000000, 91.08326913195983821 ) ) ;
#585 = EDGE_CURVE ( 'NONE', #263, #353, #153, .T. ) ;
#586 = EDGE_CURVE ( 'NONE', #340, #348, #242, .T. ) ;
#587 = ORIENTED_EDGE ( 'NONE', *, *, #696, .F. ) ;
#588 = EDGE_CURVE ( 'NONE', #44, #467, #82, .T. ) ;
#589 = VERTEX_POINT ( 'NONE', #511 ) ;
#590 = VECTOR ( 'NONE', #642, 1000.000000000000000 ) ;
#591 = VECTOR ( 'NONE', #261, 1000.000000000000000 ) ;
#592 = CARTESIAN_POINT ( 'NONE',  ( 0.000000000000000000, 7.000000000000000000, 0.000000000000000000 ) ) ;
#593 = EDGE_LOOP ( 'NONE', ( #273, #678, #546, #433, #426 ) ) ;
#594 = ORIENTED_EDGE ( 'NONE', *, *, #456, .F. ) ;
#595 = LINE ( 'NONE', #703, #432 ) ;
#596 = DIRECTION ( 'NONE',  ( 0.000000000000000000, 0.000000000000000000, 1.000000000000000000 ) ) ;
#597 = ORIENTED_EDGE ( 'NONE', *, *, #276, .T. ) ;
#598 = ORIENTED_EDGE ( 'NONE', *, *, #501, .F. ) ;
#599 = UNCERTAINTY_MEASURE_WITH_UNIT (LENGTH_MEASURE( 1.000000000000000082E-05 ), #143, 'distance_accuracy_value', 'NONE');
#600 = ORIENTED_EDGE ( 'NONE', *, *, #373, .F. ) ;
#601 = DIRECTION ( 'NONE',  ( -0.000000000000000000, 1.000000000000000000, -0.000000000000000000 ) ) ;
#602 = ORIENTED_EDGE ( 'NONE', *, *, #93, .F. ) ;
#603 = PRESENTATION_LAYER_ASSIGNMENT (  '', '', ( #259 ) ) ;
#604 = AXIS2_PLACEMENT_3D ( 'NONE', #568, #522, #72 ) ;
#605 = CARTESIAN_POINT ( 'NONE',  ( 10.00000000000000178, 9.091886249165378686, 61.50967752931327936 ) ) ;
#606 = CARTESIAN_POINT ( 'NONE',  ( 10.00000000000000178, 14.16146677603484427, 56.30436973446584403 ) ) ;
#607 = EDGE_CURVE ( 'NONE', #353, #629, #395, .T. ) ;
#608 = CARTESIAN_POINT ( 'NONE',  ( -8.572527594031484037E-16, 5.999999999999997335, 83.20000000000000284 ) ) ;
#609 = CYLINDRICAL_SURFACE ( 'NONE', #423, 30.00000000000000000 ) ;
#610 = ADVANCED_FACE ( 'NONE', ( #349 ), #609, .F. ) ;
#611 = CARTESIAN_POINT ( 'NONE',  ( 9.999999999999998224, 0.000000000000000000, 86.08326913195982399 ) ) ;
#612 = CARTESIAN_POINT ( 'NONE',  ( -7.102951435054662456E-16, 5.999999999999997335, 80.80000000000001137 ) ) ;
#613 = AXIS2_PLACEMENT_3D ( 'NONE', #164, #63, #341 ) ;
#614 = CARTESIAN_POINT ( 'NONE',  ( -25.45200584935887989, 21.56986116907177831, 48.76232212831271795 ) ) ;
#615 = DIRECTION ( 'NONE',  ( 0.000000000000000000, 1.000000000000000000, 0.000000000000000000 ) ) ;
#616 = LINE ( 'NONE', #13, #185 ) ;
#617 = EDGE_LOOP ( 'NONE', ( #125, #455, #561, #372 ) ) ;
#618 = CARTESIAN_POINT ( 'NONE',  ( -24.18385951237938869, 20.28205599817446014, 49.50314585639559795 ) ) ;
#619 = CARTESIAN_POINT ( 'NONE',  ( 0.000000000000000000, 22.00000000000000000, 55.00000000000000000 ) ) ;
#620 = DIRECTION ( 'NONE',  ( -1.000000000000000000, 0.000000000000000000, 0.000000000000000000 ) ) ;
#621 = VECTOR ( 'NONE', #458, 1000.000000000000000 ) ;
#622 = DIRECTION ( 'NONE',  ( -0.000000000000000000, 1.000000000000000000, -0.000000000000000000 ) ) ;
#623 = AXIS2_PLACEMENT_3D ( 'NONE', #288, #337, #55 ) ;
#624 = ORIENTED_EDGE ( 'NONE', *, *, #276, .F. ) ;
#625 = CIRCLE ( 'NONE', #335, 55.00000000000000000 ) ;
#626 = EDGE_CURVE ( 'NONE', #19, #580, #140, .T. ) ;
#627 = SURFACE_SIDE_STYLE ('',( #406 ) ) ;
#628 = FACE_OUTER_BOUND ( 'NONE', #691, .T. ) ;
#629 = VERTEX_POINT ( 'NONE', #497 ) ;
#630 = DIRECTION ( 'NONE',  ( 0.000000000000000000, 1.000000000000000000, 0.000000000000000000 ) ) ;
#631 = ADVANCED_FACE ( 'NONE', ( #553 ), #664, .T. ) ;
#632 = DIRECTION ( 'NONE',  ( -0.000000000000000000, 1.000000000000000000, -0.000000000000000000 ) ) ;
#633 = DIRECTION ( 'NONE',  ( 0.000000000000000000, 0.7071067811865483499, 0.7071067811865467956 ) ) ;
#634 = ORIENTED_EDGE ( 'NONE', *, *, #193, .F. ) ;
#635 = PRODUCT ( 'ELP-0034', 'ELP-0034', '', ( #572 ) ) ;
#636 = ADVANCED_FACE ( 'NONE', ( #384, #507 ), #562, .F. ) ;
#637 = DIRECTION ( 'NONE',  ( 8.659560562354925463E-17, 0.7071067811865483499, -0.7071067811865467956 ) ) ;
#638 = DIRECTION ( 'NONE',  ( 0.000000000000000000, 0.000000000000000000, -1.000000000000000000 ) ) ;
#639 = ORIENTED_EDGE ( 'NONE', *, *, #213, .T. ) ;
#640 = CIRCLE ( 'NONE', #555, 1.199999999999992628 ) ;
#641 = AXIS2_PLACEMENT_3D ( 'NONE', #61, #123, #573 ) ;
#642 = DIRECTION ( 'NONE',  ( 1.084202172485504927E-16, 0.000000000000000000, 1.000000000000000000 ) ) ;
#643 = EDGE_LOOP ( 'NONE', ( #439, #258, #66, #148 ) ) ;
#644 = DIRECTION ( 'NONE',  ( -0.000000000000000000, 1.000000000000000000, -0.000000000000000000 ) ) ;
#645 = ORIENTED_EDGE ( 'NONE', *, *, #254, .F. ) ;
#646 = ORIENTED_EDGE ( 'NONE', *, *, #373, .T. ) ;
#647 = AXIS2_PLACEMENT_3D ( 'NONE', #45, #479, #649 ) ;
#648 = VECTOR ( 'NONE', #85, 1000.000000000000000 ) ;
#649 = DIRECTION ( 'NONE',  ( 0.000000000000000000, 0.000000000000000000, 1.000000000000000000 ) ) ;
#650 = ORIENTED_EDGE ( 'NONE', *, *, #626, .T. ) ;
#651 = ORIENTED_EDGE ( 'NONE', *, *, #547, .F. ) ;
#652 = PRODUCT_RELATED_PRODUCT_CATEGORY ( 'part', '', ( #635 ) ) ;
#653 = DIRECTION ( 'NONE',  ( -0.000000000000000000, 1.000000000000000000, -0.000000000000000000 ) ) ;
#654 = CARTESIAN_POINT ( 'NONE',  ( 10.00000000000000355, 8.345042414966142630, 62.95077194440065682 ) ) ;
#655 = EDGE_LOOP ( 'NONE', ( #558, #639, #506, #344, #262, #650, #92 ) ) ;
#656 = CARTESIAN_POINT ( 'NONE',  ( 10.00000000000000355, 11.90180633939817767, 58.04589291930010830 ) ) ;
#657 = EDGE_LOOP ( 'NONE', ( #78, #515, #602, #183, #336 ) ) ;
#658 = LINE ( 'NONE', #107, #303 ) ;
#659 = AXIS2_PLACEMENT_3D ( 'NONE', #475, #266, #205 ) ;
#660 = AXIS2_PLACEMENT_3D ( 'NONE', #11, #232, #229 ) ;
#661 = EDGE_LOOP ( 'NONE', ( #598, #645 ) ) ;
#662 = CARTESIAN_POINT ( 'NONE',  ( 0.000000000000000000, 22.00000000000000000, 70.00000000000000000 ) ) ;
#663 = EDGE_CURVE ( 'NONE', #334, #570, #173, .T. ) ;
#664 = CYLINDRICAL_SURFACE ( 'NONE', #613, 55.00000000000000000 ) ;
#665 = CARTESIAN_POINT ( 'NONE',  ( 5.000000000000005329, 0.000000000000000000, 86.08326913195982399 ) ) ;
#666 = LINE ( 'NONE', #451, #413 ) ;
#667 = EDGE_CURVE ( 'NONE', #119, #252, #625, .T. ) ;
#668 = CARTESIAN_POINT ( 'NONE',  ( -22.54028855096768069, 18.57592583164759503, 50.58427176520622481 ) ) ;
#669 = CARTESIAN_POINT ( 'NONE',  ( 10.00000000000000178, 50.00000000000000000, 54.67174773134658494 ) ) ;
#670 = DIRECTION ( 'NONE',  ( -0.000000000000000000, -1.000000000000000000, 0.000000000000000000 ) ) ;
#671 = CIRCLE ( 'NONE', #139, 4.000000000000003553 ) ;
#672 = PLANE ( 'NONE',  #84 ) ;
#673 = PLANE ( 'NONE',  #221 ) ;
#674 = VERTEX_POINT ( 'NONE', #188 ) ;
#675 = CARTESIAN_POINT ( 'NONE',  ( -11.98003120976047065, 7.721566354268657228, 64.26333603209545231 ) ) ;
#676 = EDGE_CURVE ( 'NONE', #201, #87, #499, .T. ) ;
#677 = DIRECTION ( 'NONE',  ( -0.000000000000000000, -1.000000000000000000, 0.000000000000000000 ) ) ;
#678 = ORIENTED_EDGE ( 'NONE', *, *, #386, .T. ) ;
#679 = CARTESIAN_POINT ( 'NONE',  ( -10.82130948174370744, 6.999999999999999112, 67.90486368204602741 ) ) ;
#680 = CARTESIAN_POINT ( 'NONE',  ( 5.000000000000005329, 7.000000000000000000, 91.08326913195983821 ) ) ;
#681 = EDGE_CURVE ( 'NONE', #269, #674, #136, .T. ) ;
#682 = ORIENTED_EDGE ( 'NONE', *, *, #478, .F. ) ;
#683 = CIRCLE ( 'NONE', #693, 2.199999999999993516 ) ;
#684 = CARTESIAN_POINT ( 'NONE',  ( 10.00000000000000178, 0.000000000000000000, 54.67174773134658494 ) ) ;
#685 = CARTESIAN_POINT ( 'NONE',  ( -8.572527594031484037E-16, 0.000000000000000000, 83.20000000000000284 ) ) ;
#686 = CARTESIAN_POINT ( 'NONE',  ( 9.957629625155998809, 22.00000000000000000, 54.09108625502187095 ) ) ;
#687 = CARTESIAN_POINT ( 'NONE',  ( -8.572527594031484037E-16, 7.000000000000001776, 82.00000000000000000 ) ) ;
#688 = VERTEX_POINT ( 'NONE', #685 ) ;
#689 = DIRECTION ( 'NONE',  ( 0.000000000000000000, 0.000000000000000000, 1.000000000000000000 ) ) ;
#690 = DIRECTION ( 'NONE',  ( 0.000000000000000000, 0.000000000000000000, 1.000000000000000000 ) ) ;
#691 = EDGE_LOOP ( 'NONE', ( #306, #429, #102, #22 ) ) ;
#692 = CARTESIAN_POINT ( 'NONE',  ( -8.572527594031484037E-16, 7.000000000000000000, 82.00000000000000000 ) ) ;
#693 = AXIS2_PLACEMENT_3D ( 'NONE', #154, #644, #274 ) ;
#694 = ORIENTED_EDGE ( 'NONE', *, *, #588, .T. ) ;
#695 = CARTESIAN_POINT ( 'NONE',  ( 0.000000000000000000, 50.00000000000000000, 0.000000000000000000 ) ) ;
#696 = EDGE_CURVE ( 'NONE', #27, #53, #400, .T. ) ;
#697 = EDGE_LOOP ( 'NONE', ( #268, #485 ) ) ;
#698 = VERTEX_POINT ( 'NONE', #80 ) ;
#699 = AXIS2_PLACEMENT_3D ( 'NONE', #662, #339, #560 ) ;
#700 = VECTOR ( 'NONE', #579, 1000.000000000000000 ) ;
#701 = EDGE_CURVE ( 'NONE', #674, #201, #524, .T. ) ;
#702 = CLOSED_SHELL ( 'NONE', ( #705, #482, #230, #396, #631, #40, #552, #220, #441, #636, #122, #293, #468, #28, #302, #204, #189, #610, #35, #518 ) ) ;
#703 = CARTESIAN_POINT ( 'NONE',  ( -7.102951435054669359E-16, 7.000000000000000000, 80.80000000000001137 ) ) ;
#704 = CARTESIAN_POINT ( 'NONE',  ( 10.00000000000000178, 10.49776999060066984, 59.50400228447892204 ) ) ;
#705 = ADVANCED_FACE ( 'NONE', ( #299 ), #532, .T. ) ;
ENDSEC;
END-ISO-10303-21;
