ISO-10303-21;
HEADER;
FILE_DESCRIPTION (( 'STEP AP214' ),
    '1' );
FILE_NAME ('ARP-0084.STEP',
    '2026-09-03T08:59:03',
    ( '' ),
    ( '' ),
    'SwSTEP 2.0',
    'SolidWorks 2024',
    '' );
FILE_SCHEMA (( 'AUTOMOTIVE_DESIGN' ));
ENDSEC;

DATA;
#1 = CARTESIAN_POINT ( 'NONE',  ( -45.89934640057531112, 0.000000000000000000, -26.49999999999990052 ) ) ;
#2 = CARTESIAN_POINT ( 'NONE',  ( 5.000000000000007994, 20.26429508080013875, 52.83928304430929757 ) ) ;
#3 = DIRECTION ( 'NONE',  ( 0.000000000000000000, 0.000000000000000000, 1.000000000000000000 ) ) ;
#4 = DIRECTION ( 'NONE',  ( 0.000000000000000000, 0.000000000000000000, 1.000000000000000000 ) ) ;
#5 = AXIS2_PLACEMENT_3D ( 'NONE', #461, #155, #402 ) ;
#6 = ORIENTED_EDGE ( 'NONE', *, *, #64, .F. ) ;
#7 = CARTESIAN_POINT ( 'NONE',  ( -17.44912449472269245, 9.034881263716068034, 57.80929022059304145 ) ) ;
#8 = ORIENTED_EDGE ( 'NONE', *, *, #301, .T. ) ;
#9 = LINE ( 'NONE', #79, #322 ) ;
#10 = APPLICATION_CONTEXT ( 'automotive_design' ) ;
#11 = DIRECTION ( 'NONE',  ( -0.000000000000000000, -1.000000000000000000, -0.000000000000000000 ) ) ;
#12 = ADVANCED_FACE ( 'NONE', ( #727 ), #747, .F. ) ;
#13 = LINE ( 'NONE', #121, #570 ) ;
#14 = FACE_OUTER_BOUND ( 'NONE', #188, .T. ) ;
#15 = CARTESIAN_POINT ( 'NONE',  ( -9.999999999999994671, 7.000000000000000000, 88.07487199999999916 ) ) ;
#16 = CARTESIAN_POINT ( 'NONE',  ( 4.993591454816402653, 22.00000000000000000, 52.76423072861372532 ) ) ;
#17 = EDGE_CURVE ( 'NONE', #177, #362, #77, .T. ) ;
#18 =( GEOMETRIC_REPRESENTATION_CONTEXT ( 3 ) GLOBAL_UNCERTAINTY_ASSIGNED_CONTEXT ( ( #415 ) ) GLOBAL_UNIT_ASSIGNED_CONTEXT ( ( #171, #717, #61 ) ) REPRESENTATION_CONTEXT ( 'NONE', 'WORKASPACE' ) );
#19 = AXIS2_PLACEMENT_3D ( 'NONE', #338, #460, #458 ) ;
#20 = DIRECTION ( 'NONE',  ( 0.4999999999999967248, 0.000000000000000000, -0.8660254037844404840 ) ) ;
#21 = AXIS2_PLACEMENT_3D ( 'NONE', #687, #69, #682 ) ;
#22 = FACE_OUTER_BOUND ( 'NONE', #172, .T. ) ;
#23 = LINE ( 'NONE', #504, #117 ) ;
#24 = ORIENTED_EDGE ( 'NONE', *, *, #683, .F. ) ;
#25 = FACE_BOUND ( 'NONE', #374, .T. ) ;
#26 = CARTESIAN_POINT ( 'NONE',  ( -5.000000000000000000, 3.000000000000000000, 87.19999999999998863 ) ) ;
#27 = EDGE_LOOP ( 'NONE', ( #239, #183, #723, #711 ) ) ;
#28 = CARTESIAN_POINT ( 'NONE',  ( 0.000000000000000000, 22.00000000000000000, 68.00000000000000000 ) ) ;
#29 = CARTESIAN_POINT ( 'NONE',  ( 4.993591454816422193, 50.00000000000000000, 52.76423072861372532 ) ) ;
#30 = ORIENTED_EDGE ( 'NONE', *, *, #319, .T. ) ;
#31 = CIRCLE ( 'NONE', #187, 3.999999999999996447 ) ;
#32 = FACE_OUTER_BOUND ( 'NONE', #27, .T. ) ;
#33 = VECTOR ( 'NONE', #583, 1000.000000000000000 ) ;
#34 = CARTESIAN_POINT ( 'NONE',  ( -28.73493975903615194, 22.00000000000000000, 44.53429282075290985 ) ) ;
#35 = ORIENTED_EDGE ( 'NONE', *, *, #612, .F. ) ;
#36 = DIRECTION ( 'NONE',  ( -0.000000000000000000, -1.000000000000000000, -0.000000000000000000 ) ) ;
#37 = EDGE_CURVE ( 'NONE', #486, #112, #286, .T. ) ;
#38 = EDGE_CURVE ( 'NONE', #478, #234, #199, .T. ) ;
#39 = DIRECTION ( 'NONE',  ( 1.000000000000000000, 0.000000000000000000, -1.387778780781445676E-15 ) ) ;
#40 = ORIENTED_EDGE ( 'NONE', *, *, #257, .F. ) ;
#41 = DIRECTION ( 'NONE',  ( 0.000000000000000000, 0.000000000000000000, -1.000000000000000000 ) ) ;
#42 = PRESENTATION_STYLE_ASSIGNMENT (( #231 ) ) ;
#43 = ORIENTED_EDGE ( 'NONE', *, *, #685, .T. ) ;
#44 = DIRECTION ( 'NONE',  ( 0.000000000000000000, 0.000000000000000000, -1.000000000000000000 ) ) ;
#45 = PLANE ( 'NONE',  #729 ) ;
#46 = CARTESIAN_POINT ( 'NONE',  ( -28.32793624791045062, 21.56969918767345362, 44.80042199989056684 ) ) ;
#47 = MECHANICAL_DESIGN_GEOMETRIC_PRESENTATION_REPRESENTATION (  '', ( #621 ), #18 ) ;
#48 = EDGE_CURVE ( 'NONE', #296, #611, #408, .T. ) ;
#49 = VERTEX_POINT ( 'NONE', #739 ) ;
#50 = ORIENTED_EDGE ( 'NONE', *, *, #179, .T. ) ;
#51 = ORIENTED_EDGE ( 'NONE', *, *, #421, .T. ) ;
#52 = SURFACE_SIDE_STYLE ('',( #289 ) ) ;
#53 = ORIENTED_EDGE ( 'NONE', *, *, #547, .F. ) ;
#54 = PRESENTATION_LAYER_ASSIGNMENT (  '', '', ( #621 ) ) ;
#55 = CARTESIAN_POINT ( 'NONE',  ( -15.20055493904564869, 6.999999999999999112, 66.27928129924957545 ) ) ;
#56 = VERTEX_POINT ( 'NONE', #246 ) ;
#57 = ORIENTED_EDGE ( 'NONE', *, *, #383, .T. ) ;
#58 = ORIENTED_EDGE ( 'NONE', *, *, #614, .T. ) ;
#59 = VERTEX_POINT ( 'NONE', #194 ) ;
#60 = CARTESIAN_POINT ( 'NONE',  ( 6.938896527422384211E-15, 0.000000000000000000, 93.07487199999999916 ) ) ;
#61 =( NAMED_UNIT ( * ) SI_UNIT ( $, .STERADIAN. ) SOLID_ANGLE_UNIT ( ) );
#62 = CIRCLE ( 'NONE', #325, 2.899999999999999911 ) ;
#63 = DIRECTION ( 'NONE',  ( -0.000000000000000000, 1.000000000000000000, -0.000000000000000000 ) ) ;
#64 = EDGE_CURVE ( 'NONE', #66, #594, #610, .T. ) ;
#65 = EDGE_CURVE ( 'NONE', #120, #634, #546, .T. ) ;
#66 = VERTEX_POINT ( 'NONE', #55 ) ;
#67 = CARTESIAN_POINT ( 'NONE',  ( -5.000000000000000000, 5.999999999999997335, 84.79999999999999716 ) ) ;
#68 = CIRCLE ( 'NONE', #468, 68.00000000000000000 ) ;
#69 = DIRECTION ( 'NONE',  ( 0.000000000000000000, 1.000000000000000000, 0.000000000000000000 ) ) ;
#70 = DIRECTION ( 'NONE',  ( -0.000000000000000000, -1.000000000000000000, -0.000000000000000000 ) ) ;
#71 = DIRECTION ( 'NONE',  ( 0.000000000000000000, 0.000000000000000000, 1.000000000000000000 ) ) ;
#72 = DIRECTION ( 'NONE',  ( 0.000000000000000000, 0.000000000000000000, 1.000000000000000000 ) ) ;
#73 = CARTESIAN_POINT ( 'NONE',  ( -15.00000000000000533, 7.000000000000000000, 1.397399901782422741E-15 ) ) ;
#74 = CARTESIAN_POINT ( 'NONE',  ( -5.000000000000000000, 7.000000000000001776, 88.20000000000000284 ) ) ;
#75 = CIRCLE ( 'NONE', #140, 53.00000000000000711 ) ;
#76 = CIRCLE ( 'NONE', #630, 1.199999999999992628 ) ;
#77 = CIRCLE ( 'NONE', #295, 2.200000000000007283 ) ;
#78 = DIRECTION ( 'NONE',  ( 0.000000000000000000, 0.000000000000000000, 1.000000000000000000 ) ) ;
#79 = CARTESIAN_POINT ( 'NONE',  ( 5.000000000000007994, 0.000000000000000000, 52.76362383309167114 ) ) ;
#80 = CARTESIAN_POINT ( 'NONE',  ( 1.000000000000007772, 0.000000000000000000, 52.99056519796708642 ) ) ;
#81 = VERTEX_POINT ( 'NONE', #306 ) ;
#82 = DIRECTION ( 'NONE',  ( -0.000000000000000000, 1.000000000000000000, -0.000000000000000000 ) ) ;
#83 = CARTESIAN_POINT ( 'NONE',  ( -5.000000000000000000, 3.000000000000000000, 86.00000000000000000 ) ) ;
#84 = PLANE ( 'NONE',  #757 ) ;
#85 = DIRECTION ( 'NONE',  ( -0.000000000000000000, -1.000000000000000000, -0.000000000000000000 ) ) ;
#86 = VERTEX_POINT ( 'NONE', #1 ) ;
#87 = CYLINDRICAL_SURFACE ( 'NONE', #19, 1.199999999999992628 ) ;
#88 = CARTESIAN_POINT ( 'NONE',  ( 0.000000000000000000, 7.000000000000000000, 0.000000000000000000 ) ) ;
#89 = CARTESIAN_POINT ( 'NONE',  ( 1.000000000000007772, 50.00000000000000000, 52.99056519796708642 ) ) ;
#90 = ORIENTED_EDGE ( 'NONE', *, *, #786, .T. ) ;
#91 = ADVANCED_FACE ( 'NONE', ( #259 ), #197, .T. ) ;
#92 = CARTESIAN_POINT ( 'NONE',  ( 5.000000000000007994, 8.207084535085067856, 61.83925504377881310 ) ) ;
#93 = CARTESIAN_POINT ( 'NONE',  ( 0.000000000000000000, 22.00000000000000000, 53.00000000000000711 ) ) ;
#94 = ORIENTED_EDGE ( 'NONE', *, *, #301, .F. ) ;
#95 = CARTESIAN_POINT ( 'NONE',  ( 5.000000000000008882, 7.076835563818087316, 66.05991595151400020 ) ) ;
#96 = FILL_AREA_STYLE_COLOUR ( '', #129 ) ;
#97 = PRODUCT ( 'ARP-0084', 'ARP-0084', '', ( #326 ) ) ;
#98 = ORIENTED_EDGE ( 'NONE', *, *, #17, .F. ) ;
#99 = DIRECTION ( 'NONE',  ( -0.000000000000000000, -1.000000000000000000, -0.000000000000000000 ) ) ;
#100 = CARTESIAN_POINT ( 'NONE',  ( -5.000000000000000000, 3.000000000000000000, 86.00000000000000000 ) ) ;
#101 = EDGE_CURVE ( 'NONE', #411, #344, #320, .T. ) ;
#102 = PRODUCT_DEFINITION_CONTEXT ( 'detailed design', #258, 'design' ) ;
#103 = ORIENTED_EDGE ( 'NONE', *, *, #685, .F. ) ;
#104 = DIRECTION ( 'NONE',  ( -0.000000000000000000, -1.000000000000000000, -0.000000000000000000 ) ) ;
#105 = DIRECTION ( 'NONE',  ( 1.000000000000000000, 0.000000000000000000, -9.315999345216148072E-17 ) ) ;
#106 = CARTESIAN_POINT ( 'NONE',  ( 0.000000000000000000, 6.999999999999999112, 68.00000000000000000 ) ) ;
#107 = AXIS2_PLACEMENT_3D ( 'NONE', #166, #413, #293 ) ;
#108 = VECTOR ( 'NONE', #99, 1000.000000000000000 ) ;
#109 = CLOSED_SHELL ( 'NONE', ( #554, #744, #552, #751, #534, #221, #363, #420, #463, #271, #91, #722, #202, #628, #426, #378, #664, #12, #581, #357, #779, #438, #522 ) ) ;
#110 = ORIENTED_EDGE ( 'NONE', *, *, #614, .F. ) ;
#111 = CARTESIAN_POINT ( 'NONE',  ( -5.000000000000000000, 3.000000000000000000, 86.00000000000000000 ) ) ;
#112 = VERTEX_POINT ( 'NONE', #16 ) ;
#113 = EDGE_LOOP ( 'NONE', ( #750, #540, #459, #427 ) ) ;
#114 = EDGE_CURVE ( 'NONE', #399, #785, #201, .T. ) ;
#115 = VERTEX_POINT ( 'NONE', #445 ) ;
#116 = CARTESIAN_POINT ( 'NONE',  ( 5.000000000000007994, 19.40636164796102037, 52.99056519796708642 ) ) ;
#117 = VECTOR ( 'NONE', #748, 1000.000000000000000 ) ;
#118 = DIRECTION ( 'NONE',  ( -0.000000000000000000, -1.000000000000000000, 0.000000000000000000 ) ) ;
#119 = DIRECTION ( 'NONE',  ( 0.000000000000000000, 0.000000000000000000, 1.000000000000000000 ) ) ;
#120 = VERTEX_POINT ( 'NONE', #627 ) ;
#121 = CARTESIAN_POINT ( 'NONE',  ( -45.89934640057532533, 0.000000000000000000, -26.49999999999987921 ) ) ;
#122 = CARTESIAN_POINT ( 'NONE',  ( 0.000000000000000000, 22.00000000000000000, 0.000000000000000000 ) ) ;
#123 = EDGE_CURVE ( 'NONE', #541, #112, #212, .T. ) ;
#124 = ORIENTED_EDGE ( 'NONE', *, *, #38, .T. ) ;
#125 = PRODUCT_RELATED_PRODUCT_CATEGORY ( 'part', '', ( #97 ) ) ;
#126 = ORIENTED_EDGE ( 'NONE', *, *, #318, .F. ) ;
#127 = FACE_OUTER_BOUND ( 'NONE', #128, .T. ) ;
#128 = EDGE_LOOP ( 'NONE', ( #491, #492, #591, #416 ) ) ;
#129 = COLOUR_RGB ( '',0.7921568627450980005, 0.8196078431372548767, 0.9333333333333333481 ) ;
#130 = CYLINDRICAL_SURFACE ( 'NONE', #601, 5.000000000000004441 ) ;
#131 = EDGE_CURVE ( 'NONE', #619, #513, #743, .T. ) ;
#132 = DIRECTION ( 'NONE',  ( -0.000000000000000000, -1.000000000000000000, -0.000000000000000000 ) ) ;
#133 = DIRECTION ( 'NONE',  ( 0.000000000000000000, 0.000000000000000000, -1.000000000000000000 ) ) ;
#134 = CARTESIAN_POINT ( 'NONE',  ( -45.89934640057531112, 50.00000000000000000, -26.49999999999990052 ) ) ;
#135 = CARTESIAN_POINT ( 'NONE',  ( 0.000000000000000000, 6.999999999999999112, 0.000000000000000000 ) ) ;
#136 = CARTESIAN_POINT ( 'NONE',  ( -5.000000000000000000, 0.000000000000000000, 86.00000000000000000 ) ) ;
#137 = CARTESIAN_POINT ( 'NONE',  ( -15.58516910567397673, 7.150942694578096059, 63.71172963392358923 ) ) ;
#138 = DIRECTION ( 'NONE',  ( -1.000000000000000000, 0.000000000000000000, 0.000000000000000000 ) ) ;
#139 = CARTESIAN_POINT ( 'NONE',  ( -45.00000000000000000, 50.00000000000000000, 69.74238309665076940 ) ) ;
#140 = AXIS2_PLACEMENT_3D ( 'NONE', #343, #706, #573 ) ;
#141 = ORIENTED_EDGE ( 'NONE', *, *, #547, .T. ) ;
#142 =( LENGTH_UNIT ( ) NAMED_UNIT ( * ) SI_UNIT ( .MILLI., .METRE. ) );
#143 = AXIS2_PLACEMENT_3D ( 'NONE', #544, #782, #507 ) ;
#144 = DIRECTION ( 'NONE',  ( 0.000000000000000000, 1.000000000000000000, 0.000000000000000000 ) ) ;
#145 = CARTESIAN_POINT ( 'NONE',  ( 1.291673323855491356E-13, 0.000000000000000000, 93.07487199999999916 ) ) ;
#146 = EDGE_LOOP ( 'NONE', ( #665, #110, #126, #168, #240, #422 ) ) ;
#147 = DIRECTION ( 'NONE',  ( 0.000000000000000000, 0.000000000000000000, 1.000000000000000000 ) ) ;
#148 = CARTESIAN_POINT ( 'NONE',  ( 5.000000000000008882, 10.23511674567986063, 58.47124771733038529 ) ) ;
#149 = CYLINDRICAL_SURFACE ( 'NONE', #553, 3.999999999999996447 ) ;
#150 = CARTESIAN_POINT ( 'NONE',  ( 1.000000000000007772, 0.000000000000000000, 52.99056519796708642 ) ) ;
#151 = EDGE_CURVE ( 'NONE', #785, #287, #68, .T. ) ;
#152 = PLANE ( 'NONE',  #175 ) ;
#153 = ORIENTED_EDGE ( 'NONE', *, *, #243, .T. ) ;
#154 = CARTESIAN_POINT ( 'NONE',  ( 5.000000000000008882, 9.468056659934971364, 59.53564018184466278 ) ) ;
#155 = DIRECTION ( 'NONE',  ( -0.000000000000000000, -1.000000000000000000, 0.000000000000000000 ) ) ;
#156 = ORIENTED_EDGE ( 'NONE', *, *, #485, .F. ) ;
#157 = B_SPLINE_CURVE_WITH_KNOTS ( 'NONE', 3,
 ( #204, #689, #137, #441, #385, #371, #557, #7, #561, #741, #167, #709, #783, #780, #479, #713, #414, #162, #223, #352, #719, #233, #419, #46, #768, #174 ),
 .UNSPECIFIED., .F., .F.,
 ( 4, 2, 2, 2, 2, 2, 2, 2, 2, 2, 2, 2, 4 ),
 ( 0.000000000000000000, 0.003873896453309463254, 0.005810844679964195965, 0.007747792906618929977, 0.01162168935992839193, 0.01355863758658312247, 0.01549558581323785302, 0.01936948226654731584, 0.02324337871985677692, 0.02711727517316624148, 0.02905422339982097896, 0.03002269751314834770, 0.03099117162647571297 ),
 .UNSPECIFIED. ) ;
#158 = LINE ( 'NONE', #712, #787 ) ;
#159 = AXIS2_PLACEMENT_3D ( 'NONE', #294, #466, #663 ) ;
#160 = EDGE_CURVE ( 'NONE', #653, #229, #23, .T. ) ;
#161 = AXIS2_PLACEMENT_3D ( 'NONE', #753, #207, #691 ) ;
#162 = CARTESIAN_POINT ( 'NONE',  ( -24.84977919345495323, 17.72796448999909202, 47.49475404745886209 ) ) ;
#163 = AXIS2_PLACEMENT_3D ( 'NONE', #674, #625, #4 ) ;
#164 = ORIENTED_EDGE ( 'NONE', *, *, #241, .F. ) ;
#165 = CARTESIAN_POINT ( 'NONE',  ( -14.99999999999999822, 0.000000000000000000, 69.74238309665076940 ) ) ;
#166 = CARTESIAN_POINT ( 'NONE',  ( -5.000000000000000000, 7.000000000000001776, 86.00000000000000000 ) ) ;
#167 = CARTESIAN_POINT ( 'NONE',  ( -19.00796899177146315, 10.84874271465613660, 54.75159146960169210 ) ) ;
#168 = ORIENTED_EDGE ( 'NONE', *, *, #37, .F. ) ;
#169 = CYLINDRICAL_SURFACE ( 'NONE', #488, 2.899999999999999911 ) ;
#170 = FACE_OUTER_BOUND ( 'NONE', #310, .T. ) ;
#171 =( LENGTH_UNIT ( ) NAMED_UNIT ( * ) SI_UNIT ( .MILLI., .METRE. ) );
#172 = EDGE_LOOP ( 'NONE', ( #370, #30, #358, #615, #331 ) ) ;
#173 = VECTOR ( 'NONE', #457, 1000.000000000000000 ) ;
#174 = CARTESIAN_POINT ( 'NONE',  ( -28.73493975903615194, 22.00000000000000000, 44.53429282075290985 ) ) ;
#175 = AXIS2_PLACEMENT_3D ( 'NONE', #403, #274, #761 ) ;
#176 = AXIS2_PLACEMENT_3D ( 'NONE', #501, #317, #676 ) ;
#177 = VERTEX_POINT ( 'NONE', #74 ) ;
#178 = ORIENTED_EDGE ( 'NONE', *, *, #17, .T. ) ;
#179 = EDGE_CURVE ( 'NONE', #360, #115, #443, .T. ) ;
#180 = CARTESIAN_POINT ( 'NONE',  ( 4.993591454816402653, 22.00000000000000000, 52.76423072861372532 ) ) ;
#181 = EDGE_CURVE ( 'NONE', #86, #472, #13, .T. ) ;
#182 = ORIENTED_EDGE ( 'NONE', *, *, #616, .F. ) ;
#183 = ORIENTED_EDGE ( 'NONE', *, *, #160, .T. ) ;
#184 = AXIS2_PLACEMENT_3D ( 'NONE', #515, #758, #214 ) ;
#185 = AXIS2_PLACEMENT_3D ( 'NONE', #764, #763, #401 ) ;
#186 = ORIENTED_EDGE ( 'NONE', *, *, #473, .T. ) ;
#187 = AXIS2_PLACEMENT_3D ( 'NONE', #631, #333, #391 ) ;
#188 = EDGE_LOOP ( 'NONE', ( #35, #755, #57, #718 ) ) ;
#189 = EDGE_CURVE ( 'NONE', #209, #472, #256, .T. ) ;
#190 = DIRECTION ( 'NONE',  ( 0.000000000000000000, 0.000000000000000000, -1.000000000000000000 ) ) ;
#191 = ORIENTED_EDGE ( 'NONE', *, *, #462, .F. ) ;
#192 = ORIENTED_EDGE ( 'NONE', *, *, #359, .T. ) ;
#193 = CARTESIAN_POINT ( 'NONE',  ( -5.000000000000000000, 5.999999999999997335, 86.00000000000000000 ) ) ;
#194 = CARTESIAN_POINT ( 'NONE',  ( -14.99999999999999822, 0.000000000000000000, 69.74238309665076940 ) ) ;
#195 = DIRECTION ( 'NONE',  ( -0.000000000000000000, 1.000000000000000000, -0.000000000000000000 ) ) ;
#196 = DIRECTION ( 'NONE',  ( -0.000000000000000000, 1.000000000000000000, -0.000000000000000000 ) ) ;
#197 = PLANE ( 'NONE',  #21 ) ;
#198 = DIRECTION ( 'NONE',  ( 0.000000000000000000, -1.000000000000000000, 0.000000000000000000 ) ) ;
#199 = CIRCLE ( 'NONE', #163, 5.000000000000004441 ) ;
#200 = DIRECTION ( 'NONE',  ( 0.000000000000000000, 0.000000000000000000, 1.000000000000000000 ) ) ;
#201 = LINE ( 'NONE', #380, #490 ) ;
#202 = ADVANCED_FACE ( 'NONE', ( #261 ), #130, .T. ) ;
#203 = CARTESIAN_POINT ( 'NONE',  ( 1.000000000000007772, 50.00000000000000000, 52.99056519796708642 ) ) ;
#204 = CARTESIAN_POINT ( 'NONE',  ( -15.20055493904564869, 6.999999999999999112, 66.27928129924957545 ) ) ;
#205 = ORIENTED_EDGE ( 'NONE', *, *, #668, .T. ) ;
#206 = DIRECTION ( 'NONE',  ( -0.000000000000000000, -1.000000000000000000, -0.000000000000000000 ) ) ;
#207 = DIRECTION ( 'NONE',  ( 0.000000000000000000, 1.000000000000000000, -0.000000000000000000 ) ) ;
#208 = CARTESIAN_POINT ( 'NONE',  ( 6.938893903907228378E-15, 7.000000000000000000, 88.07487199999999916 ) ) ;
#209 = VERTEX_POINT ( 'NONE', #375 ) ;
#210 = AXIS2_PLACEMENT_3D ( 'NONE', #100, #351, #538 ) ;
#211 = CIRCLE ( 'NONE', #649, 49.00000000000000000 ) ;
#212 = CIRCLE ( 'NONE', #662, 53.00000000000000711 ) ;
#213 = EDGE_CURVE ( 'NONE', #59, #216, #390, .T. ) ;
#214 = DIRECTION ( 'NONE',  ( 0.000000000000000000, 0.000000000000000000, 1.000000000000000000 ) ) ;
#215 = LINE ( 'NONE', #702, #672 ) ;
#216 = VERTEX_POINT ( 'NONE', #253 ) ;
#217 = CARTESIAN_POINT ( 'NONE',  ( 1.291673323855491356E-13, 7.000000000000000000, 93.07487199999999916 ) ) ;
#218 = DIRECTION ( 'NONE',  ( -1.387778780781445873E-15, 0.000000000000000000, -1.000000000000000000 ) ) ;
#219 = FACE_BOUND ( 'NONE', #314, .T. ) ;
#220 = EDGE_LOOP ( 'NONE', ( #264, #551, #656, #268, #313 ) ) ;
#221 = ADVANCED_FACE ( 'NONE', ( #681 ), #379, .F. ) ;
#222 = CARTESIAN_POINT ( 'NONE',  ( 5.000000000000007105, 7.305809196551561691, 64.76218515408872634 ) ) ;
#223 = CARTESIAN_POINT ( 'NONE',  ( -25.59343953809568362, 18.57461277537481337, 46.84384785873935186 ) ) ;
#224 = ORIENTED_EDGE ( 'NONE', *, *, #646, .F. ) ;
#225 = CIRCLE ( 'NONE', #568, 2.899999999999999911 ) ;
#226 = AXIS2_PLACEMENT_3D ( 'NONE', #506, #250, #315 ) ;
#227 = CARTESIAN_POINT ( 'NONE',  ( 5.000000000000008882, 7.401709634232488177, 64.33018378690017869 ) ) ;
#228 = CARTESIAN_POINT ( 'NONE',  ( -5.000000000000000000, 0.000000000000000000, 83.09999999999999432 ) ) ;
#229 = VERTEX_POINT ( 'NONE', #67 ) ;
#230 = CARTESIAN_POINT ( 'NONE',  ( 5.000000000000009770, 7.629050540823413051, 63.48286215002843846 ) ) ;
#231 = SURFACE_STYLE_USAGE ( .BOTH. , #52 ) ;
#232 = ORIENTED_EDGE ( 'NONE', *, *, #270, .T. ) ;
#233 = CARTESIAN_POINT ( 'NONE',  ( -27.72638100016251883, 20.92496606932752456, 45.21318996582209593 ) ) ;
#234 = VERTEX_POINT ( 'NONE', #60 ) ;
#235 = CARTESIAN_POINT ( 'NONE',  ( -45.89934640057532533, 50.00000000000000000, -26.49999999999987921 ) ) ;
#236 = CIRCLE ( 'NONE', #671, 68.00000000000000000 ) ;
#237 = EDGE_CURVE ( 'NONE', #513, #229, #520, .T. ) ;
#238 = CIRCLE ( 'NONE', #661, 3.999999999999996447 ) ;
#239 = ORIENTED_EDGE ( 'NONE', *, *, #406, .F. ) ;
#240 = ORIENTED_EDGE ( 'NONE', *, *, #319, .F. ) ;
#241 = EDGE_CURVE ( 'NONE', #59, #56, #626, .T. ) ;
#242 = EDGE_LOOP ( 'NONE', ( #435, #454, #290, #639 ) ) ;
#243 = EDGE_CURVE ( 'NONE', #594, #622, #679, .T. ) ;
#244 = EDGE_CURVE ( 'NONE', #399, #49, #304, .T. ) ;
#245 = AXIS2_PLACEMENT_3D ( 'NONE', #269, #82, #147 ) ;
#246 = CARTESIAN_POINT ( 'NONE',  ( -14.99999999999999645, 0.000000000000000000, 88.07487199999999916 ) ) ;
#247 = PRODUCT_DEFINITION_FORMATION_WITH_SPECIFIED_SOURCE ( 'TUTTO', '', #97, .NOT_KNOWN. ) ;
#248 = AXIS2_PLACEMENT_3D ( 'NONE', #444, #746, #493 ) ;
#249 = ORIENTED_EDGE ( 'NONE', *, *, #606, .T. ) ;
#250 = DIRECTION ( 'NONE',  ( -0.000000000000000000, -1.000000000000000000, 0.000000000000000000 ) ) ;
#251 = DIRECTION ( 'NONE',  ( 0.000000000000000000, 1.000000000000000000, 0.000000000000000000 ) ) ;
#252 = CARTESIAN_POINT ( 'NONE',  ( -5.000000000000000000, 5.999999999999997335, 86.00000000000000000 ) ) ;
#253 = CARTESIAN_POINT ( 'NONE',  ( -28.73493975903615549, 0.000000000000000000, 44.53429282075290985 ) ) ;
#254 = CARTESIAN_POINT ( 'NONE',  ( 0.000000000000000000, 22.00000000000000000, 0.000000000000000000 ) ) ;
#255 = CARTESIAN_POINT ( 'NONE',  ( 0.000000000000000000, 0.000000000000000000, 0.000000000000000000 ) ) ;
#256 = LINE ( 'NONE', #623, #760 ) ;
#257 = EDGE_CURVE ( 'NONE', #622, #56, #321, .T. ) ;
#258 = APPLICATION_CONTEXT ( 'automotive_design' ) ;
#259 = FACE_OUTER_BOUND ( 'NONE', #449, .T. ) ;
#260 = LINE ( 'NONE', #332, #275 ) ;
#261 = FACE_OUTER_BOUND ( 'NONE', #736, .T. ) ;
#262 = DIRECTION ( 'NONE',  ( -1.000000000000000000, 0.000000000000000000, 0.000000000000000000 ) ) ;
#263 = CARTESIAN_POINT ( 'NONE',  ( -9.999999999999994671, 7.000000000000000000, 93.07487200000001337 ) ) ;
#264 = ORIENTED_EDGE ( 'NONE', *, *, #123, .F. ) ;
#265 = DIRECTION ( 'NONE',  ( -0.000000000000000000, -1.000000000000000000, -0.000000000000000000 ) ) ;
#266 = LINE ( 'NONE', #386, #600 ) ;
#267 = DIRECTION ( 'NONE',  ( 7.372574772901436462E-14, 0.000000000000000000, 1.000000000000000000 ) ) ;
#268 = ORIENTED_EDGE ( 'NONE', *, *, #495, .F. ) ;
#269 = CARTESIAN_POINT ( 'NONE',  ( -5.000000000000000000, 7.000000000000001776, 86.00000000000000000 ) ) ;
#270 = EDGE_CURVE ( 'NONE', #296, #86, #686, .T. ) ;
#271 = ADVANCED_FACE ( 'NONE', ( #127 ), #618, .T. ) ;
#272 = DIRECTION ( 'NONE',  ( 0.000000000000000000, -0.000000000000000000, 1.000000000000000000 ) ) ;
#273 = DIRECTION ( 'NONE',  ( -0.000000000000000000, -1.000000000000000000, -0.000000000000000000 ) ) ;
#274 = DIRECTION ( 'NONE',  ( 0.000000000000000000, -1.000000000000000000, 0.000000000000000000 ) ) ;
#275 = VECTOR ( 'NONE', #575, 1000.000000000000000 ) ;
#276 = ORIENTED_EDGE ( 'NONE', *, *, #606, .F. ) ;
#277 = AXIS2_PLACEMENT_3D ( 'NONE', #566, #20, #446 ) ;
#278 = CARTESIAN_POINT ( 'NONE',  ( -5.000000000000000000, 3.000000000000000000, 86.00000000000000000 ) ) ;
#279 = VECTOR ( 'NONE', #498, 1000.000000000000000 ) ;
#280 = DIRECTION ( 'NONE',  ( 0.000000000000000000, 0.000000000000000000, 1.000000000000000000 ) ) ;
#281 = EDGE_CURVE ( 'NONE', #66, #643, #157, .T. ) ;
#282 = EDGE_LOOP ( 'NONE', ( #436, #404, #781, #467, #153, #224, #186, #660 ) ) ;
#283 = LINE ( 'NONE', #217, #33 ) ;
#284 = CYLINDRICAL_SURFACE ( 'NONE', #185, 49.00000000000000000 ) ;
#285 = FACE_OUTER_BOUND ( 'NONE', #220, .T. ) ;
#286 = B_SPLINE_CURVE_WITH_KNOTS ( 'NONE', 3,
 ( #116, #2, #364, #180 ),
 .UNSPECIFIED., .F., .F.,
 ( 4, 4 ),
 ( 0.000000000000000000, 0.002603503075211609577 ),
 .UNSPECIFIED. ) ;
#287 = VERTEX_POINT ( 'NONE', #106 ) ;
#288 = CARTESIAN_POINT ( 'NONE',  ( 5.000000000000008882, 11.07301736025469552, 57.47006264513510843 ) ) ;
#289 = SURFACE_STYLE_FILL_AREA ( #347 ) ;
#290 = ORIENTED_EDGE ( 'NONE', *, *, #475, .T. ) ;
#291 =( GEOMETRIC_REPRESENTATION_CONTEXT ( 3 ) GLOBAL_UNCERTAINTY_ASSIGNED_CONTEXT ( ( #477 ) ) GLOBAL_UNIT_ASSIGNED_CONTEXT ( ( #142, #455, #519 ) ) REPRESENTATION_CONTEXT ( 'NONE', 'WORKASPACE' ) );
#292 = CARTESIAN_POINT ( 'NONE',  ( 5.000000000000007994, 19.40636164796102037, 52.99056519796708642 ) ) ;
#293 = DIRECTION ( 'NONE',  ( 0.000000000000000000, 0.000000000000000000, 1.000000000000000000 ) ) ;
#294 = CARTESIAN_POINT ( 'NONE',  ( 0.000000000000000000, 50.00000000000000000, 0.000000000000000000 ) ) ;
#295 = AXIS2_PLACEMENT_3D ( 'NONE', #431, #309, #119 ) ;
#296 = VERTEX_POINT ( 'NONE', #356 ) ;
#297 = B_SPLINE_CURVE_WITH_KNOTS ( 'NONE', 3,
 ( #530, #474, #412, #342, #589, #521, #771, #708, #345, #715, #654, #767, #288, #148, #417, #154, #350, #396, #92, #651, #230, #227, #222, #95, #592, #537 ),
 .UNSPECIFIED., .F., .F.,
 ( 4, 2, 2, 2, 2, 2, 2, 2, 2, 2, 2, 2, 4 ),
 ( 0.002594886819500537983, 0.003899680426060543170, 0.005204474032620548356, 0.007814061245740551789, 0.009118854852300555675, 0.01042364845886056129, 0.01303323567198055519, 0.01433802927854055387, 0.01564282288510054908, 0.01825241009822054991, 0.01955720370478057635, 0.02086199731134060278, 0.02347158452446070076 ),
 .UNSPECIFIED. ) ;
#298 = ORIENTED_EDGE ( 'NONE', *, *, #742, .T. ) ;
#299 = DIRECTION ( 'NONE',  ( -9.315999345216148072E-17, 0.000000000000000000, -1.000000000000000000 ) ) ;
#300 = EDGE_LOOP ( 'NONE', ( #24, #425, #599, #178 ) ) ;
#301 = EDGE_CURVE ( 'NONE', #209, #120, #502, .T. ) ;
#302 = VERTEX_POINT ( 'NONE', #593 ) ;
#303 = CARTESIAN_POINT ( 'NONE',  ( -45.00000000000000000, 6.999999999999999112, 69.74238309665076940 ) ) ;
#304 = CIRCLE ( 'NONE', #226, 5.000000000000004441 ) ;
#305 = VECTOR ( 'NONE', #316, 1000.000000000000000 ) ;
#306 = CARTESIAN_POINT ( 'NONE',  ( 1.000000000000007772, 0.000000000000000000, 48.99056519796708642 ) ) ;
#307 = ORIENTED_EDGE ( 'NONE', *, *, #330, .T. ) ;
#308 = CARTESIAN_POINT ( 'NONE',  ( -9.999999999999994671, 7.000000000000000000, 93.07487200000001337 ) ) ;
#309 = DIRECTION ( 'NONE',  ( -0.000000000000000000, 1.000000000000000000, -0.000000000000000000 ) ) ;
#310 = EDGE_LOOP ( 'NONE', ( #464, #678, #508, #40 ) ) ;
#311 = DIRECTION ( 'NONE',  ( 9.315999345216148072E-17, 0.000000000000000000, 1.000000000000000000 ) ) ;
#312 = AXIS2_PLACEMENT_3D ( 'NONE', #398, #578, #497 ) ;
#313 = ORIENTED_EDGE ( 'NONE', *, *, #37, .T. ) ;
#314 = EDGE_LOOP ( 'NONE', ( #766, #373 ) ) ;
#315 = DIRECTION ( 'NONE',  ( 0.000000000000000000, 0.000000000000000000, 1.000000000000000000 ) ) ;
#316 = DIRECTION ( 'NONE',  ( -0.000000000000000000, -1.000000000000000000, -0.000000000000000000 ) ) ;
#317 = DIRECTION ( 'NONE',  ( -0.000000000000000000, 1.000000000000000000, -0.000000000000000000 ) ) ;
#318 = EDGE_CURVE ( 'NONE', #112, #611, #545, .T. ) ;
#319 = EDGE_CURVE ( 'NONE', #693, #486, #773, .T. ) ;
#320 = LINE ( 'NONE', #629, #456 ) ;
#321 = LINE ( 'NONE', #563, #745 ) ;
#322 = VECTOR ( 'NONE', #392, 1000.000000000000000 ) ;
#323 = AXIS2_PLACEMENT_3D ( 'NONE', #122, #558, #3 ) ;
#324 = DIRECTION ( 'NONE',  ( 0.000000000000000000, 0.000000000000000000, -1.000000000000000000 ) ) ;
#325 = AXIS2_PLACEMENT_3D ( 'NONE', #136, #198, #400 ) ;
#326 = PRODUCT_CONTEXT ( 'NONE', #10, 'mechanical' ) ;
#327 = CARTESIAN_POINT ( 'NONE',  ( 5.000000000000007994, 0.000000000000000000, 52.99056519796708642 ) ) ;
#328 = DIRECTION ( 'NONE',  ( 0.000000000000000000, 1.000000000000000000, 0.000000000000000000 ) ) ;
#329 = EDGE_CURVE ( 'NONE', #287, #66, #236, .T. ) ;
#330 = EDGE_CURVE ( 'NONE', #411, #609, #710, .T. ) ;
#331 = ORIENTED_EDGE ( 'NONE', *, *, #638, .T. ) ;
#332 = CARTESIAN_POINT ( 'NONE',  ( -5.000000000000000000, 7.000000000000001776, 88.20000000000000284 ) ) ;
#333 = DIRECTION ( 'NONE',  ( 0.000000000000000000, 1.000000000000000000, 0.000000000000000000 ) ) ;
#334 = CARTESIAN_POINT ( 'NONE',  ( 1.291673323855491356E-13, 7.000000000000000000, 93.07487199999999916 ) ) ;
#335 = DIRECTION ( 'NONE',  ( 0.000000000000000000, 0.000000000000000000, 1.000000000000000000 ) ) ;
#336 = EDGE_LOOP ( 'NONE', ( #6, #714, #724, #677, #762 ) ) ;
#337 = CARTESIAN_POINT ( 'NONE',  ( 1.000000000000007772, 50.00000000000000000, 52.99056519796708642 ) ) ;
#338 = CARTESIAN_POINT ( 'NONE',  ( -5.000000000000000000, 7.000000000000000000, 86.00000000000000000 ) ) ;
#339 = FACE_BOUND ( 'NONE', #770, .T. ) ;
#340 = FACE_OUTER_BOUND ( 'NONE', #336, .T. ) ;
#341 = ORIENTED_EDGE ( 'NONE', *, *, #160, .F. ) ;
#342 = CARTESIAN_POINT ( 'NONE',  ( 5.000000000000007105, 17.70905014569173375, 53.38657780515883644 ) ) ;
#343 = CARTESIAN_POINT ( 'NONE',  ( 0.000000000000000000, 0.000000000000000000, 0.000000000000000000 ) ) ;
#344 = VERTEX_POINT ( 'NONE', #542 ) ;
#345 = CARTESIAN_POINT ( 'NONE',  ( 5.000000000000007105, 13.76213757966481133, 55.23108074955013791 ) ) ;
#346 = EDGE_CURVE ( 'NONE', #296, #209, #539, .T. ) ;
#347 = FILL_AREA_STYLE ('',( #96 ) ) ;
#348 = MANIFOLD_SOLID_BREP ( 'Taglio-Estrusione1', #109 ) ;
#349 = EDGE_LOOP ( 'NONE', ( #423, #487, #90, #394 ) ) ;
#350 = CARTESIAN_POINT ( 'NONE',  ( 5.000000000000009770, 9.230574100644165725, 59.90926106679406615 ) ) ;
#351 = DIRECTION ( 'NONE',  ( -0.000000000000000000, 1.000000000000000000, -0.000000000000000000 ) ) ;
#352 = CARTESIAN_POINT ( 'NONE',  ( -26.74352161882899281, 19.85340575145528419, 45.93187337155899996 ) ) ;
#353 = ORIENTED_EDGE ( 'NONE', *, *, #786, .F. ) ;
#354 = AXIS2_PLACEMENT_3D ( 'NONE', #734, #372, #190 ) ;
#355 = AXIS2_PLACEMENT_3D ( 'NONE', #692, #262, #335 ) ;
#356 = CARTESIAN_POINT ( 'NONE',  ( -45.89934640057531112, 50.00000000000000000, -26.49999999999990052 ) ) ;
#357 = ADVANCED_FACE ( 'NONE', ( #738 ), #784, .F. ) ;
#358 = ORIENTED_EDGE ( 'NONE', *, *, #495, .T. ) ;
#359 = EDGE_CURVE ( 'NONE', #115, #56, #567, .T. ) ;
#360 = VERTEX_POINT ( 'NONE', #308 ) ;
#361 = DIRECTION ( 'NONE',  ( 0.000000000000000000, 1.000000000000000000, 0.000000000000000000 ) ) ;
#362 = VERTEX_POINT ( 'NONE', #434 ) ;
#363 = ADVANCED_FACE ( 'NONE', ( #613 ), #489, .T. ) ;
#364 = CARTESIAN_POINT ( 'NONE',  ( 4.993591454816420416, 21.12886489394230694, 52.76423072861373242 ) ) ;
#365 = AXIS2_PLACEMENT_3D ( 'NONE', #80, #85, #754 ) ;
#366 = AXIS2_PLACEMENT_3D ( 'NONE', #303, #439, #670 ) ;
#367 = ORIENTED_EDGE ( 'NONE', *, *, #244, .T. ) ;
#368 = DIRECTION ( 'NONE',  ( 0.000000000000000000, 0.000000000000000000, 1.000000000000000000 ) ) ;
#369 = CARTESIAN_POINT ( 'NONE',  ( 0.000000000000000000, 50.00000000000000000, 0.000000000000000000 ) ) ;
#370 = ORIENTED_EDGE ( 'NONE', *, *, #607, .T. ) ;
#371 = CARTESIAN_POINT ( 'NONE',  ( -16.59452621852741672, 8.105365289684504759, 60.07176139752303357 ) ) ;
#372 = DIRECTION ( 'NONE',  ( -0.000000000000000000, -1.000000000000000000, -0.000000000000000000 ) ) ;
#373 = ORIENTED_EDGE ( 'NONE', *, *, #406, .T. ) ;
#374 = EDGE_LOOP ( 'NONE', ( #191, #353 ) ) ;
#375 = CARTESIAN_POINT ( 'NONE',  ( -42.43524478543756828, 50.00000000000000000, -24.49999999999989342 ) ) ;
#376 = VECTOR ( 'NONE', #382, 1000.000000000000000 ) ;
#377 = VERTEX_POINT ( 'NONE', #228 ) ;
#378 = ADVANCED_FACE ( 'NONE', ( #170 ), #45, .F. ) ;
#379 = CYLINDRICAL_SURFACE ( 'NONE', #176, 1.199999999999992628 ) ;
#380 = CARTESIAN_POINT ( 'NONE',  ( 5.000000000000007994, 7.000000000000000000, 0.000000000000000000 ) ) ;
#381 = APPLICATION_PROTOCOL_DEFINITION ( 'draft international standard', 'automotive_design', 1998, #258 ) ;
#382 = DIRECTION ( 'NONE',  ( -0.000000000000000000, -1.000000000000000000, -0.000000000000000000 ) ) ;
#383 = EDGE_CURVE ( 'NONE', #362, #177, #451, .T. ) ;
#384 = DIRECTION ( 'NONE',  ( -0.000000000000000000, -1.000000000000000000, 0.000000000000000000 ) ) ;
#385 = CARTESIAN_POINT ( 'NONE',  ( -16.21584537733228260, 7.720168339143529401, 61.26510125304528032 ) ) ;
#386 = CARTESIAN_POINT ( 'NONE',  ( 1.000000000000007772, 50.00000000000000000, 48.99056519796708642 ) ) ;
#387 = CARTESIAN_POINT ( 'NONE',  ( -5.000000000000000000, 3.000000000000000000, 83.09999999999999432 ) ) ;
#388 = CIRCLE ( 'NONE', #772, 3.999999999999996447 ) ;
#389 = ORIENTED_EDGE ( 'NONE', *, *, #48, .F. ) ;
#390 = CIRCLE ( 'NONE', #248, 30.00000000000000000 ) ;
#391 = DIRECTION ( 'NONE',  ( 0.000000000000000000, 0.000000000000000000, 1.000000000000000000 ) ) ;
#392 = DIRECTION ( 'NONE',  ( 0.000000000000000000, 0.000000000000000000, -1.000000000000000000 ) ) ;
#393 = DIRECTION ( 'NONE',  ( 0.000000000000000000, 0.000000000000000000, -1.000000000000000000 ) ) ;
#394 = ORIENTED_EDGE ( 'NONE', *, *, #475, .F. ) ;
#395 = SHAPE_DEFINITION_REPRESENTATION ( #647, #577 ) ;
#396 = CARTESIAN_POINT ( 'NONE',  ( 5.000000000000008882, 8.573985494674849051, 61.04967547662932503 ) ) ;
#397 = DIRECTION ( 'NONE',  ( 0.000000000000000000, -1.000000000000000000, 0.000000000000000000 ) ) ;
#398 = CARTESIAN_POINT ( 'NONE',  ( -5.000000000000000000, 3.000000000000000000, 86.00000000000000000 ) ) ;
#399 = VERTEX_POINT ( 'NONE', #658 ) ;
#400 = DIRECTION ( 'NONE',  ( 0.000000000000000000, 0.000000000000000000, -1.000000000000000000 ) ) ;
#401 = DIRECTION ( 'NONE',  ( 0.000000000000000000, 0.000000000000000000, -1.000000000000000000 ) ) ;
#402 = DIRECTION ( 'NONE',  ( 0.000000000000000000, 0.000000000000000000, 1.000000000000000000 ) ) ;
#403 = CARTESIAN_POINT ( 'NONE',  ( -5.000000000000000000, 3.000000000000000000, 86.00000000000000000 ) ) ;
#404 = ORIENTED_EDGE ( 'NONE', *, *, #151, .T. ) ;
#405 = VECTOR ( 'NONE', #361, 1000.000000000000000 ) ;
#406 = EDGE_CURVE ( 'NONE', #653, #619, #555, .T. ) ;
#407 = EDGE_CURVE ( 'NONE', #216, #643, #776, .T. ) ;
#408 = CIRCLE ( 'NONE', #505, 53.00000000000000711 ) ;
#409 = DIRECTION ( 'NONE',  ( 0.000000000000000000, 1.000000000000000000, 0.000000000000000000 ) ) ;
#410 = CARTESIAN_POINT ( 'NONE',  ( 5.000000000000007994, 50.00000000000000000, 52.99056519796708642 ) ) ;
#411 = VERTEX_POINT ( 'NONE', #418 ) ;
#412 = CARTESIAN_POINT ( 'NONE',  ( 5.000000000000007994, 18.55288743159202625, 53.16030930452002679 ) ) ;
#413 = DIRECTION ( 'NONE',  ( -0.000000000000000000, 1.000000000000000000, -0.000000000000000000 ) ) ;
#414 = CARTESIAN_POINT ( 'NONE',  ( -23.42106151742468967, 16.07687993642279523, 48.87763265893408970 ) ) ;
#415 = UNCERTAINTY_MEASURE_WITH_UNIT (LENGTH_MEASURE( 1.000000000000000082E-05 ), #171, 'distance_accuracy_value', 'NONE');
#416 = ORIENTED_EDGE ( 'NONE', *, *, #189, .T. ) ;
#417 = CARTESIAN_POINT ( 'NONE',  ( 5.000000000000009770, 9.969877518949997963, 58.81752196866312943 ) ) ;
#418 = CARTESIAN_POINT ( 'NONE',  ( -5.000000000000000000, 3.000000000000000000, 88.89999999999999147 ) ) ;
#419 = CARTESIAN_POINT ( 'NONE',  ( -27.92580606624922979, 21.13975473656254422, 45.07396128619221543 ) ) ;
#420 = ADVANCED_FACE ( 'NONE', ( #22 ), #448, .F. ) ;
#421 = EDGE_CURVE ( 'NONE', #81, #693, #696, .T. ) ;
#422 = ORIENTED_EDGE ( 'NONE', *, *, #421, .F. ) ;
#423 = ORIENTED_EDGE ( 'NONE', *, *, #330, .F. ) ;
#424 = DIRECTION ( 'NONE',  ( 0.000000000000000000, 1.000000000000000000, 0.000000000000000000 ) ) ;
#425 = ORIENTED_EDGE ( 'NONE', *, *, #237, .F. ) ;
#426 = ADVANCED_FACE ( 'NONE', ( #512 ), #579, .T. ) ;
#427 = ORIENTED_EDGE ( 'NONE', *, *, #329, .F. ) ;
#428 = EDGE_LOOP ( 'NONE', ( #580, #141, #51, #574, #124, #276, #192, #164, #588, #182, #603 ) ) ;
#429 = DIRECTION ( 'NONE',  ( 0.000000000000000000, 0.000000000000000000, 1.000000000000000000 ) ) ;
#430 = VECTOR ( 'NONE', #39, 1000.000000000000000 ) ;
#431 = CARTESIAN_POINT ( 'NONE',  ( -5.000000000000000000, 7.000000000000001776, 86.00000000000000000 ) ) ;
#432 = ORIENTED_EDGE ( 'NONE', *, *, #131, .T. ) ;
#433 = DIRECTION ( 'NONE',  ( 0.000000000000000000, 0.000000000000000000, -1.000000000000000000 ) ) ;
#434 = CARTESIAN_POINT ( 'NONE',  ( -5.000000000000000000, 7.000000000000001776, 83.79999999999998295 ) ) ;
#435 = ORIENTED_EDGE ( 'NONE', *, *, #101, .F. ) ;
#436 = ORIENTED_EDGE ( 'NONE', *, *, #114, .T. ) ;
#437 = DIRECTION ( 'NONE',  ( 0.8660254037844404840, 0.000000000000000000, 0.4999999999999967248 ) ) ;
#438 = ADVANCED_FACE ( 'NONE', ( #637, #219 ), #152, .T. ) ;
#439 = DIRECTION ( 'NONE',  ( -0.000000000000000000, -1.000000000000000000, 0.000000000000000000 ) ) ;
#440 = DIRECTION ( 'NONE',  ( 0.000000000000000000, 0.000000000000000000, -1.000000000000000000 ) ) ;
#441 = CARTESIAN_POINT ( 'NONE',  ( -16.04438165772546299, 7.555314657465122430, 61.87012606014217653 ) ) ;
#442 = AXIS2_PLACEMENT_3D ( 'NONE', #673, #118, #368 ) ;
#443 = LINE ( 'NONE', #263, #305 ) ;
#444 = CARTESIAN_POINT ( 'NONE',  ( -45.00000000000000000, 0.000000000000000000, 69.74238309665076940 ) ) ;
#445 = CARTESIAN_POINT ( 'NONE',  ( -9.999999999999994671, 0.000000000000000000, 93.07487200000001337 ) ) ;
#446 = DIRECTION ( 'NONE',  ( -0.8660254037844404840, 0.000000000000000000, -0.4999999999999967248 ) ) ;
#447 = DIRECTION ( 'NONE',  ( 0.000000000000000000, 0.000000000000000000, -1.000000000000000000 ) ) ;
#448 = PLANE ( 'NONE',  #355 ) ;
#449 = EDGE_LOOP ( 'NONE', ( #703, #58, #43, #94, #518 ) ) ;
#450 = PLANE ( 'NONE',  #453 ) ;
#451 = CIRCLE ( 'NONE', #107, 2.200000000000007283 ) ;
#452 = CIRCLE ( 'NONE', #730, 1.199999999999992628 ) ;
#453 = AXIS2_PLACEMENT_3D ( 'NONE', #697, #144, #272 ) ;
#454 = ORIENTED_EDGE ( 'NONE', *, *, #695, .F. ) ;
#455 =( NAMED_UNIT ( * ) PLANE_ANGLE_UNIT ( ) SI_UNIT ( $, .RADIAN. ) );
#456 = VECTOR ( 'NONE', #132, 1000.000000000000000 ) ;
#457 = DIRECTION ( 'NONE',  ( 8.659560562354925463E-17, 0.7071067811865482389, -0.7071067811865469066 ) ) ;
#458 = DIRECTION ( 'NONE',  ( 0.000000000000000000, 0.000000000000000000, 1.000000000000000000 ) ) ;
#459 = ORIENTED_EDGE ( 'NONE', *, *, #281, .F. ) ;
#460 = DIRECTION ( 'NONE',  ( -0.000000000000000000, 1.000000000000000000, -0.000000000000000000 ) ) ;
#461 = CARTESIAN_POINT ( 'NONE',  ( -9.999999999999994671, 7.000000000000000000, 88.07487199999999916 ) ) ;
#462 = EDGE_CURVE ( 'NONE', #377, #344, #587, .T. ) ;
#463 = ADVANCED_FACE ( 'NONE', ( #527 ), #284, .F. ) ;
#464 = ORIENTED_EDGE ( 'NONE', *, *, #243, .F. ) ;
#465 = CARTESIAN_POINT ( 'NONE',  ( 0.000000000000000000, 0.000000000000000000, 0.000000000000000000 ) ) ;
#466 = DIRECTION ( 'NONE',  ( 0.000000000000000000, 1.000000000000000000, 0.000000000000000000 ) ) ;
#467 = ORIENTED_EDGE ( 'NONE', *, *, #64, .T. ) ;
#468 = AXIS2_PLACEMENT_3D ( 'NONE', #135, #384, #569 ) ;
#469 = LINE ( 'NONE', #165, #108 ) ;
#470 = CARTESIAN_POINT ( 'NONE',  ( -15.00000000000000533, 7.000000000000000000, 1.397399901782422741E-15 ) ) ;
#471 = CARTESIAN_POINT ( 'NONE',  ( 0.000000000000000000, 6.999999999999999112, 0.000000000000000000 ) ) ;
#472 = VERTEX_POINT ( 'NONE', #645 ) ;
#473 = EDGE_CURVE ( 'NONE', #360, #49, #283, .T. ) ;
#474 = CARTESIAN_POINT ( 'NONE',  ( 5.000000000000007994, 18.97803159621934910, 53.06609400967149526 ) ) ;
#475 = EDGE_CURVE ( 'NONE', #609, #377, #158, .T. ) ;
#476 = CARTESIAN_POINT ( 'NONE',  ( -28.73493975903615194, 50.00000000000000000, 44.53429282075290985 ) ) ;
#477 = UNCERTAINTY_MEASURE_WITH_UNIT (LENGTH_MEASURE( 1.000000000000000082E-05 ), #142, 'distance_accuracy_value', 'NONE');
#478 = VERTEX_POINT ( 'NONE', #525 ) ;
#479 = CARTESIAN_POINT ( 'NONE',  ( -21.41461609251956943, 13.70983572280939811, 51.17423759878911937 ) ) ;
#480 = ORIENTED_EDGE ( 'NONE', *, *, #359, .F. ) ;
#481 = CIRCLE ( 'NONE', #620, 15.00000000000000000 ) ;
#482 = VECTOR ( 'NONE', #777, 1000.000000000000227 ) ;
#483 = ORIENTED_EDGE ( 'NONE', *, *, #179, .F. ) ;
#484 = ORIENTED_EDGE ( 'NONE', *, *, #383, .F. ) ;
#485 = EDGE_CURVE ( 'NONE', #619, #653, #452, .T. ) ;
#486 = VERTEX_POINT ( 'NONE', #292 ) ;
#487 = ORIENTED_EDGE ( 'NONE', *, *, #101, .T. ) ;
#488 = AXIS2_PLACEMENT_3D ( 'NONE', #657, #104, #41 ) ;
#489 = CYLINDRICAL_SURFACE ( 'NONE', #354, 53.00000000000000711 ) ;
#490 = VECTOR ( 'NONE', #324, 1000.000000000000000 ) ;
#491 = ORIENTED_EDGE ( 'NONE', *, *, #181, .F. ) ;
#492 = ORIENTED_EDGE ( 'NONE', *, *, #270, .F. ) ;
#493 = DIRECTION ( 'NONE',  ( 0.000000000000000000, 0.000000000000000000, 1.000000000000000000 ) ) ;
#494 = EDGE_CURVE ( 'NONE', #594, #59, #469, .T. ) ;
#495 = EDGE_CURVE ( 'NONE', #486, #785, #297, .T. ) ;
#496 = DIRECTION ( 'NONE',  ( 0.000000000000000000, 0.000000000000000000, 1.000000000000000000 ) ) ;
#497 = DIRECTION ( 'NONE',  ( 0.000000000000000000, 0.000000000000000000, -1.000000000000000000 ) ) ;
#498 = DIRECTION ( 'NONE',  ( 9.315999345216148072E-17, 0.000000000000000000, 1.000000000000000000 ) ) ;
#499 = DIRECTION ( 'NONE',  ( 0.000000000000000000, 1.000000000000000000, -0.000000000000000000 ) ) ;
#500 = EDGE_CURVE ( 'NONE', #472, #634, #211, .T. ) ;
#501 = CARTESIAN_POINT ( 'NONE',  ( -5.000000000000000000, 7.000000000000000000, 86.00000000000000000 ) ) ;
#502 = CIRCLE ( 'NONE', #159, 49.00000000000000000 ) ;
#503 = TOROIDAL_SURFACE ( 'NONE', #161, 68.00000000000000000, 15.00000000000000000 ) ;
#504 = CARTESIAN_POINT ( 'NONE',  ( -5.000000000000000000, 7.000000000000000000, 84.79999999999999716 ) ) ;
#505 = AXIS2_PLACEMENT_3D ( 'NONE', #369, #251, #496 ) ;
#506 = CARTESIAN_POINT ( 'NONE',  ( 6.938893903907228378E-15, 7.000000000000000000, 88.07487199999999916 ) ) ;
#507 = DIRECTION ( 'NONE',  ( 0.000000000000000000, 0.000000000000000000, -1.000000000000000000 ) ) ;
#508 = ORIENTED_EDGE ( 'NONE', *, *, #241, .T. ) ;
#509 = FACE_OUTER_BOUND ( 'NONE', #146, .T. ) ;
#510 = FACE_OUTER_BOUND ( 'NONE', #282, .T. ) ;
#511 = DIRECTION ( 'NONE',  ( -0.000000000000000000, -1.000000000000000000, -0.000000000000000000 ) ) ;
#512 = FACE_OUTER_BOUND ( 'NONE', #617, .T. ) ;
#513 = VERTEX_POINT ( 'NONE', #595 ) ;
#514 = AXIS2_PLACEMENT_3D ( 'NONE', #139, #273, #440 ) ;
#515 = CARTESIAN_POINT ( 'NONE',  ( 0.000000000000000000, 22.00000000000000000, 0.000000000000000000 ) ) ;
#516 = DIRECTION ( 'NONE',  ( 0.000000000000000000, 0.000000000000000000, 1.000000000000000000 ) ) ;
#517 = AXIS2_PLACEMENT_3D ( 'NONE', #111, #604, #596 ) ;
#518 = ORIENTED_EDGE ( 'NONE', *, *, #346, .F. ) ;
#519 =( NAMED_UNIT ( * ) SI_UNIT ( $, .STERADIAN. ) SOLID_ANGLE_UNIT ( ) );
#520 = CIRCLE ( 'NONE', #624, 1.199999999999992628 ) ;
#521 = CARTESIAN_POINT ( 'NONE',  ( 5.000000000000006217, 16.04817217712356836, 53.97214676875891826 ) ) ;
#522 = ADVANCED_FACE ( 'NONE', ( #775 ), #169, .F. ) ;
#523 = DIRECTION ( 'NONE',  ( -1.000000000000000000, 0.000000000000000000, 1.387778780781445873E-15 ) ) ;
#524 = ORIENTED_EDGE ( 'NONE', *, *, #638, .F. ) ;
#525 = CARTESIAN_POINT ( 'NONE',  ( 5.000000000000007994, 0.000000000000000000, 88.07487199999999916 ) ) ;
#526 = CARTESIAN_POINT ( 'NONE',  ( 4.993591454816403541, 22.00000000000000000, 52.76423072861373242 ) ) ;
#527 = FACE_OUTER_BOUND ( 'NONE', #680, .T. ) ;
#528 = LINE ( 'NONE', #632, #669 ) ;
#529 = ORIENTED_EDGE ( 'NONE', *, *, #257, .T. ) ;
#530 = CARTESIAN_POINT ( 'NONE',  ( 5.000000000000007994, 19.40636164796102037, 52.99056519796708642 ) ) ;
#531 = CONICAL_SURFACE ( 'NONE', #245, 2.200000000000007283, 0.7853981633974473908 ) ;
#532 = ORIENTED_EDGE ( 'NONE', *, *, #582, .F. ) ;
#533 = AXIS2_PLACEMENT_3D ( 'NONE', #208, #699, #393 ) ;
#534 = ADVANCED_FACE ( 'NONE', ( #32 ), #87, .F. ) ;
#535 = CIRCLE ( 'NONE', #5, 5.000000000000004441 ) ;
#536 = VECTOR ( 'NONE', #549, 1000.000000000000000 ) ;
#537 = CARTESIAN_POINT ( 'NONE',  ( 5.000000000000007994, 7.000000000000000000, 67.81592733274389673 ) ) ;
#538 = DIRECTION ( 'NONE',  ( 0.000000000000000000, 0.000000000000000000, -1.000000000000000000 ) ) ;
#539 = LINE ( 'NONE', #235, #482 ) ;
#540 = ORIENTED_EDGE ( 'NONE', *, *, #742, .F. ) ;
#541 = VERTEX_POINT ( 'NONE', #93 ) ;
#542 = CARTESIAN_POINT ( 'NONE',  ( -5.000000000000000000, 0.000000000000000000, 88.89999999999999147 ) ) ;
#543 = EDGE_LOOP ( 'NONE', ( #249, #532, #571, #50 ) ) ;
#544 = CARTESIAN_POINT ( 'NONE',  ( -5.000000000000000000, 0.000000000000000000, 86.00000000000000000 ) ) ;
#545 = LINE ( 'NONE', #526, #598 ) ;
#546 = LINE ( 'NONE', #725, #536 ) ;
#547 = EDGE_CURVE ( 'NONE', #634, #81, #238, .T. ) ;
#548 = PRODUCT_DEFINITION ( 'NON CONOSCIUTO', '', #247, #102 ) ;
#549 = DIRECTION ( 'NONE',  ( -0.000000000000000000, -1.000000000000000000, -0.000000000000000000 ) ) ;
#550 = CARTESIAN_POINT ( 'NONE',  ( -5.000000000000000000, 7.000000000000001776, 86.00000000000000000 ) ) ;
#551 = ORIENTED_EDGE ( 'NONE', *, *, #720, .T. ) ;
#552 = ADVANCED_FACE ( 'NONE', ( #285 ), #503, .F. ) ;
#553 = AXIS2_PLACEMENT_3D ( 'NONE', #337, #265, #684 ) ;
#554 = ADVANCED_FACE ( 'NONE', ( #560 ), #765, .F. ) ;
#555 = CIRCLE ( 'NONE', #210, 1.199999999999992628 ) ;
#556 = ORIENTED_EDGE ( 'NONE', *, *, #189, .F. ) ;
#557 = CARTESIAN_POINT ( 'NONE',  ( -16.79839812322161663, 8.322282687585781602, 59.49387036271386364 ) ) ;
#558 = DIRECTION ( 'NONE',  ( 0.000000000000000000, 1.000000000000000000, -0.000000000000000000 ) ) ;
#559 = ORIENTED_EDGE ( 'NONE', *, *, #38, .F. ) ;
#560 = FACE_OUTER_BOUND ( 'NONE', #349, .T. ) ;
#561 = CARTESIAN_POINT ( 'NONE',  ( -17.93485884816381315, 9.591938505904524348, 56.75116939197339150 ) ) ;
#562 = CARTESIAN_POINT ( 'NONE',  ( -5.000000000000000000, 7.000000000000000000, 87.19999999999998863 ) ) ;
#563 = CARTESIAN_POINT ( 'NONE',  ( -14.99999999999999645, 7.000000000000000000, 88.07487199999999916 ) ) ;
#564 = DIRECTION ( 'NONE',  ( -0.000000000000000000, 1.000000000000000000, -0.000000000000000000 ) ) ;
#565 = CARTESIAN_POINT ( 'NONE',  ( 5.000000000000007994, 7.000000000000000000, 67.81592733274389673 ) ) ;
#566 = CARTESIAN_POINT ( 'NONE',  ( -45.89934640057532533, 50.00000000000000000, -26.49999999999987921 ) ) ;
#567 = CIRCLE ( 'NONE', #442, 5.000000000000004441 ) ;
#568 = AXIS2_PLACEMENT_3D ( 'NONE', #83, #397, #447 ) ;
#569 = DIRECTION ( 'NONE',  ( -2.575717417130363489E-14, 0.000000000000000000, 1.000000000000000000 ) ) ;
#570 = VECTOR ( 'NONE', #437, 1000.000000000000227 ) ;
#571 = ORIENTED_EDGE ( 'NONE', *, *, #473, .F. ) ;
#572 = DIRECTION ( 'NONE',  ( 0.000000000000000000, 0.000000000000000000, 1.000000000000000000 ) ) ;
#573 = DIRECTION ( 'NONE',  ( 0.000000000000000000, 0.000000000000000000, 1.000000000000000000 ) ) ;
#574 = ORIENTED_EDGE ( 'NONE', *, *, #607, .F. ) ;
#575 = DIRECTION ( 'NONE',  ( 0.000000000000000000, 0.7071067811865482389, 0.7071067811865469066 ) ) ;
#576 = DIRECTION ( 'NONE',  ( 0.000000000000000000, 1.000000000000000000, -0.000000000000000000 ) ) ;
#577 = ADVANCED_BREP_SHAPE_REPRESENTATION ( 'ARP-0084', ( #348, #721 ), #291 ) ;
#578 = DIRECTION ( 'NONE',  ( -0.000000000000000000, -1.000000000000000000, -0.000000000000000000 ) ) ;
#579 = CYLINDRICAL_SURFACE ( 'NONE', #533, 5.000000000000004441 ) ;
#580 = ORIENTED_EDGE ( 'NONE', *, *, #500, .T. ) ;
#581 = ADVANCED_FACE ( 'NONE', ( #340 ), #642, .F. ) ;
#582 = EDGE_CURVE ( 'NONE', #49, #234, #528, .T. ) ;
#583 = DIRECTION ( 'NONE',  ( 1.000000000000000000, 0.000000000000000000, -1.387778780781445676E-15 ) ) ;
#584 = AXIS2_PLACEMENT_3D ( 'NONE', #88, #576, #78 ) ;
#585 = LINE ( 'NONE', #635, #173 ) ;
#586 = DIRECTION ( 'NONE',  ( -0.000000000000000000, -1.000000000000000000, -0.000000000000000000 ) ) ;
#587 = CIRCLE ( 'NONE', #143, 2.899999999999999911 ) ;
#588 = ORIENTED_EDGE ( 'NONE', *, *, #213, .T. ) ;
#589 = CARTESIAN_POINT ( 'NONE',  ( 5.000000000000007994, 17.28897580370284359, 53.51914385255904705 ) ) ;
#590 = CARTESIAN_POINT ( 'NONE',  ( -14.99999999999999645, 7.000000000000000000, 88.07487199999999916 ) ) ;
#591 = ORIENTED_EDGE ( 'NONE', *, *, #346, .T. ) ;
#592 = CARTESIAN_POINT ( 'NONE',  ( 5.000000000000008882, 7.000000000000000888, 66.93359937137584836 ) ) ;
#593 = CARTESIAN_POINT ( 'NONE',  ( 1.000000000000007772, 50.00000000000000000, 48.99056519796708642 ) ) ;
#594 = VERTEX_POINT ( 'NONE', #698 ) ;
#595 = CARTESIAN_POINT ( 'NONE',  ( -5.000000000000000000, 5.999999999999997335, 87.19999999999998863 ) ) ;
#596 = DIRECTION ( 'NONE',  ( 0.000000000000000000, 0.000000000000000000, -1.000000000000000000 ) ) ;
#597 = CIRCLE ( 'NONE', #184, 53.00000000000000711 ) ;
#598 = VECTOR ( 'NONE', #424, 1000.000000000000000 ) ;
#599 = ORIENTED_EDGE ( 'NONE', *, *, #769, .T. ) ;
#600 = VECTOR ( 'NONE', #206, 1000.000000000000000 ) ;
#601 = AXIS2_PLACEMENT_3D ( 'NONE', #15, #70, #433 ) ;
#602 = ORIENTED_EDGE ( 'NONE', *, *, #237, .T. ) ;
#603 = ORIENTED_EDGE ( 'NONE', *, *, #181, .T. ) ;
#604 = DIRECTION ( 'NONE',  ( 0.000000000000000000, -1.000000000000000000, 0.000000000000000000 ) ) ;
#605 = ORIENTED_EDGE ( 'NONE', *, *, #582, .T. ) ;
#606 = EDGE_CURVE ( 'NONE', #115, #234, #740, .T. ) ;
#607 = EDGE_CURVE ( 'NONE', #478, #693, #9, .T. ) ;
#608 = EDGE_LOOP ( 'NONE', ( #298, #650, #735, #389, #232, #732, #675 ) ) ;
#609 = VERTEX_POINT ( 'NONE', #387 ) ;
#610 = CIRCLE ( 'NONE', #366, 30.00000000000000000 ) ;
#611 = VERTEX_POINT ( 'NONE', #29 ) ;
#612 = EDGE_CURVE ( 'NONE', #229, #513, #76, .T. ) ;
#613 = FACE_OUTER_BOUND ( 'NONE', #608, .T. ) ;
#614 = EDGE_CURVE ( 'NONE', #611, #302, #388, .T. ) ;
#615 = ORIENTED_EDGE ( 'NONE', *, *, #114, .F. ) ;
#616 = EDGE_CURVE ( 'NONE', #86, #216, #75, .T. ) ;
#617 = EDGE_LOOP ( 'NONE', ( #559, #524, #367, #605 ) ) ;
#618 = PLANE ( 'NONE',  #277 ) ;
#619 = VERTEX_POINT ( 'NONE', #26 ) ;
#620 = AXIS2_PLACEMENT_3D ( 'NONE', #28, #138, #572 ) ;
#621 = STYLED_ITEM ( 'NONE', ( #42 ), #348 ) ;
#622 = VERTEX_POINT ( 'NONE', #590 ) ;
#623 = CARTESIAN_POINT ( 'NONE',  ( -42.43524478543756828, 50.00000000000000000, -24.49999999999989342 ) ) ;
#624 = AXIS2_PLACEMENT_3D ( 'NONE', #193, #196, #200 ) ;
#625 = DIRECTION ( 'NONE',  ( -0.000000000000000000, -1.000000000000000000, 0.000000000000000000 ) ) ;
#626 = LINE ( 'NONE', #737, #279 ) ;
#627 = CARTESIAN_POINT ( 'NONE',  ( 0.9245283018867996860, 50.00000000000000000, 48.99127725849786685 ) ) ;
#628 = ADVANCED_FACE ( 'NONE', ( #636 ), #84, .F. ) ;
#629 = CARTESIAN_POINT ( 'NONE',  ( -5.000000000000000000, 3.000000000000000000, 88.89999999999999147 ) ) ;
#630 = AXIS2_PLACEMENT_3D ( 'NONE', #252, #195, #516 ) ;
#631 = CARTESIAN_POINT ( 'NONE',  ( 1.000000000000007772, 50.00000000000000000, 52.99056519796708642 ) ) ;
#632 = CARTESIAN_POINT ( 'NONE',  ( 6.938896527422384211E-15, 7.000000000000000000, 93.07487199999999916 ) ) ;
#633 = AXIS2_PLACEMENT_3D ( 'NONE', #550, #63, #429 ) ;
#634 = VERTEX_POINT ( 'NONE', #759 ) ;
#635 = CARTESIAN_POINT ( 'NONE',  ( -5.000000000000000000, 7.000000000000001776, 83.79999999999998295 ) ) ;
#636 = FACE_OUTER_BOUND ( 'NONE', #543, .T. ) ;
#637 = FACE_OUTER_BOUND ( 'NONE', #666, .T. ) ;
#638 = EDGE_CURVE ( 'NONE', #399, #478, #215, .T. ) ;
#639 = ORIENTED_EDGE ( 'NONE', *, *, #462, .T. ) ;
#640 = DIRECTION ( 'NONE',  ( 0.000000000000000000, 0.000000000000000000, 1.000000000000000000 ) ) ;
#641 = PLANE ( 'NONE',  #584 ) ;
#642 = CYLINDRICAL_SURFACE ( 'NONE', #514, 30.00000000000000000 ) ;
#643 = VERTEX_POINT ( 'NONE', #34 ) ;
#644 = APPLICATION_PROTOCOL_DEFINITION ( 'draft international standard', 'automotive_design', 1998, #10 ) ;
#645 = CARTESIAN_POINT ( 'NONE',  ( -42.43524478543756828, 0.000000000000000000, -24.49999999999989342 ) ) ;
#646 = EDGE_CURVE ( 'NONE', #360, #622, #535, .T. ) ;
#647 = PRODUCT_DEFINITION_SHAPE ( 'NONE', 'NONE',  #548 ) ;
#648 = DIRECTION ( 'NONE',  ( -0.000000000000000000, -1.000000000000000000, -0.000000000000000000 ) ) ;
#649 = AXIS2_PLACEMENT_3D ( 'NONE', #465, #409, #640 ) ;
#650 = ORIENTED_EDGE ( 'NONE', *, *, #123, .T. ) ;
#651 = CARTESIAN_POINT ( 'NONE',  ( 5.000000000000007994, 7.760512598116256378, 63.06656249273011383 ) ) ;
#652 = DIRECTION ( 'NONE',  ( 0.000000000000000000, 0.000000000000000000, 1.000000000000000000 ) ) ;
#653 = VERTEX_POINT ( 'NONE', #690 ) ;
#654 = CARTESIAN_POINT ( 'NONE',  ( 5.000000000000007994, 12.69582645485656336, 56.00334401175764754 ) ) ;
#655 = DIRECTION ( 'NONE',  ( -0.000000000000000000, -1.000000000000000000, 0.000000000000000000 ) ) ;
#656 = ORIENTED_EDGE ( 'NONE', *, *, #151, .F. ) ;
#657 = CARTESIAN_POINT ( 'NONE',  ( -5.000000000000000000, 3.000000000000000000, 86.00000000000000000 ) ) ;
#658 = CARTESIAN_POINT ( 'NONE',  ( 5.000000000000007994, 7.000000000000000000, 88.07487199999999916 ) ) ;
#659 = VECTOR ( 'NONE', #716, 1000.000000000000000 ) ;
#660 = ORIENTED_EDGE ( 'NONE', *, *, #244, .F. ) ;
#661 = AXIS2_PLACEMENT_3D ( 'NONE', #150, #648, #267 ) ;
#662 = AXIS2_PLACEMENT_3D ( 'NONE', #254, #499, #71 ) ;
#663 = DIRECTION ( 'NONE',  ( 0.000000000000000000, 0.000000000000000000, 1.000000000000000000 ) ) ;
#664 = ADVANCED_FACE ( 'NONE', ( #339, #510 ), #641, .T. ) ;
#665 = ORIENTED_EDGE ( 'NONE', *, *, #668, .F. ) ;
#666 = EDGE_LOOP ( 'NONE', ( #667, #307 ) ) ;
#667 = ORIENTED_EDGE ( 'NONE', *, *, #695, .T. ) ;
#668 = EDGE_CURVE ( 'NONE', #302, #81, #266, .T. ) ;
#669 = VECTOR ( 'NONE', #511, 1000.000000000000000 ) ;
#670 = DIRECTION ( 'NONE',  ( 8.789265611615823138E-15, 0.000000000000000000, 1.000000000000000000 ) ) ;
#671 = AXIS2_PLACEMENT_3D ( 'NONE', #471, #655, #652 ) ;
#672 = VECTOR ( 'NONE', #586, 1000.000000000000000 ) ;
#673 = CARTESIAN_POINT ( 'NONE',  ( -9.999999999999994671, 0.000000000000000000, 88.07487199999999916 ) ) ;
#674 = CARTESIAN_POINT ( 'NONE',  ( 6.938893903907228378E-15, 0.000000000000000000, 88.07487199999999916 ) ) ;
#675 = ORIENTED_EDGE ( 'NONE', *, *, #407, .T. ) ;
#676 = DIRECTION ( 'NONE',  ( 0.000000000000000000, 0.000000000000000000, 1.000000000000000000 ) ) ;
#677 = ORIENTED_EDGE ( 'NONE', *, *, #213, .F. ) ;
#678 = ORIENTED_EDGE ( 'NONE', *, *, #494, .T. ) ;
#679 = LINE ( 'NONE', #73, #694 ) ;
#680 = EDGE_LOOP ( 'NONE', ( #8, #728, #700, #556 ) ) ;
#681 = FACE_OUTER_BOUND ( 'NONE', #726, .T. ) ;
#682 = DIRECTION ( 'NONE',  ( 0.000000000000000000, -0.000000000000000000, 1.000000000000000000 ) ) ;
#683 = EDGE_CURVE ( 'NONE', #229, #362, #585, .T. ) ;
#684 = DIRECTION ( 'NONE',  ( 0.000000000000000000, 0.000000000000000000, -1.000000000000000000 ) ) ;
#685 = EDGE_CURVE ( 'NONE', #302, #120, #31, .T. ) ;
#686 = LINE ( 'NONE', #134, #376 ) ;
#687 = CARTESIAN_POINT ( 'NONE',  ( 0.000000000000000000, 50.00000000000000000, 0.000000000000000000 ) ) ;
#688 = DIRECTION ( 'NONE',  ( -0.000000000000000000, -1.000000000000000000, -0.000000000000000000 ) ) ;
#689 = CARTESIAN_POINT ( 'NONE',  ( -15.35218981577688524, 7.000000000000000888, 64.97448708792497030 ) ) ;
#690 = CARTESIAN_POINT ( 'NONE',  ( -5.000000000000000000, 3.000000000000000000, 84.79999999999999716 ) ) ;
#691 = DIRECTION ( 'NONE',  ( 0.000000000000000000, 0.000000000000000000, 1.000000000000000000 ) ) ;
#692 = CARTESIAN_POINT ( 'NONE',  ( 5.000000000000007994, 50.00000000000000000, 52.76362383309167114 ) ) ;
#693 = VERTEX_POINT ( 'NONE', #327 ) ;
#694 = VECTOR ( 'NONE', #311, 1000.000000000000000 ) ;
#695 = EDGE_CURVE ( 'NONE', #609, #411, #225, .T. ) ;
#696 = CIRCLE ( 'NONE', #365, 3.999999999999996447 ) ;
#697 = CARTESIAN_POINT ( 'NONE',  ( 0.000000000000000000, 0.000000000000000000, 0.000000000000000000 ) ) ;
#698 = CARTESIAN_POINT ( 'NONE',  ( -14.99999999999999822, 7.000000000000000000, 69.74238309665076940 ) ) ;
#699 = DIRECTION ( 'NONE',  ( -0.000000000000000000, -1.000000000000000000, -0.000000000000000000 ) ) ;
#700 = ORIENTED_EDGE ( 'NONE', *, *, #500, .F. ) ;
#701 = FACE_OUTER_BOUND ( 'NONE', #778, .T. ) ;
#702 = CARTESIAN_POINT ( 'NONE',  ( 5.000000000000007994, 7.000000000000000000, 88.07487199999999916 ) ) ;
#703 = ORIENTED_EDGE ( 'NONE', *, *, #48, .T. ) ;
#704 = DIRECTION ( 'NONE',  ( 1.000000000000000000, 0.000000000000000000, 0.000000000000000000 ) ) ;
#705 = DIRECTION ( 'NONE',  ( -0.000000000000000000, 1.000000000000000000, -0.000000000000000000 ) ) ;
#706 = DIRECTION ( 'NONE',  ( 0.000000000000000000, 1.000000000000000000, 0.000000000000000000 ) ) ;
#707 = ORIENTED_EDGE ( 'NONE', *, *, #65, .F. ) ;
#708 = CARTESIAN_POINT ( 'NONE',  ( 5.000000000000007994, 14.12943603420439942, 54.99652236354355495 ) ) ;
#709 = CARTESIAN_POINT ( 'NONE',  ( -19.58164328223532991, 11.52783035453088800, 53.79821013889638692 ) ) ;
#710 = CIRCLE ( 'NONE', #517, 2.899999999999999911 ) ;
#711 = ORIENTED_EDGE ( 'NONE', *, *, #131, .F. ) ;
#712 = CARTESIAN_POINT ( 'NONE',  ( -5.000000000000000000, 3.000000000000000000, 83.09999999999999432 ) ) ;
#713 = CARTESIAN_POINT ( 'NONE',  ( -22.73416985112164923, 15.27039547127802344, 49.61083648258514955 ) ) ;
#714 = ORIENTED_EDGE ( 'NONE', *, *, #281, .T. ) ;
#715 = CARTESIAN_POINT ( 'NONE',  ( 5.000000000000007994, 13.04614757291139782, 55.73377532190372108 ) ) ;
#716 = DIRECTION ( 'NONE',  ( 0.000000000000000000, 1.000000000000000000, 0.000000000000000000 ) ) ;
#717 =( NAMED_UNIT ( * ) PLANE_ANGLE_UNIT ( ) SI_UNIT ( $, .RADIAN. ) );
#718 = ORIENTED_EDGE ( 'NONE', *, *, #769, .F. ) ;
#719 = CARTESIAN_POINT ( 'NONE',  ( -27.13286319457520790, 20.28139501582613846, 45.63839300412904976 ) ) ;
#720 = EDGE_CURVE ( 'NONE', #541, #287, #481, .T. ) ;
#721 = AXIS2_PLACEMENT_3D ( 'NONE', #255, #72, #704 ) ;
#722 = ADVANCED_FACE ( 'NONE', ( #25, #752 ), #450, .F. ) ;
#723 = ORIENTED_EDGE ( 'NONE', *, *, #612, .T. ) ;
#724 = ORIENTED_EDGE ( 'NONE', *, *, #407, .F. ) ;
#725 = CARTESIAN_POINT ( 'NONE',  ( 0.9245283018867996860, 50.00000000000000000, 48.99127725849786685 ) ) ;
#726 = EDGE_LOOP ( 'NONE', ( #341, #156, #432, #602 ) ) ;
#727 = FACE_OUTER_BOUND ( 'NONE', #300, .T. ) ;
#728 = ORIENTED_EDGE ( 'NONE', *, *, #65, .T. ) ;
#729 = AXIS2_PLACEMENT_3D ( 'NONE', #470, #105, #299 ) ;
#730 = AXIS2_PLACEMENT_3D ( 'NONE', #278, #705, #44 ) ;
#731 = AXIS2_PLACEMENT_3D ( 'NONE', #203, #688, #133 ) ;
#732 = ORIENTED_EDGE ( 'NONE', *, *, #616, .T. ) ;
#733 = VECTOR ( 'NONE', #564, 1000.000000000000000 ) ;
#734 = CARTESIAN_POINT ( 'NONE',  ( 0.000000000000000000, 50.00000000000000000, 0.000000000000000000 ) ) ;
#735 = ORIENTED_EDGE ( 'NONE', *, *, #318, .T. ) ;
#736 = EDGE_LOOP ( 'NONE', ( #480, #483, #774, #529 ) ) ;
#737 = CARTESIAN_POINT ( 'NONE',  ( -15.00000000000000533, 0.000000000000000000, 1.397399901782422741E-15 ) ) ;
#738 = FACE_OUTER_BOUND ( 'NONE', #113, .T. ) ;
#739 = CARTESIAN_POINT ( 'NONE',  ( 6.938896527422384211E-15, 7.000000000000000000, 93.07487199999999916 ) ) ;
#740 = LINE ( 'NONE', #145, #430 ) ;
#741 = CARTESIAN_POINT ( 'NONE',  ( -18.73082178307789647, 10.52213233583500163, 55.24225721513033704 ) ) ;
#742 = EDGE_CURVE ( 'NONE', #643, #541, #597, .T. ) ;
#743 = LINE ( 'NONE', #562, #733 ) ;
#744 = ADVANCED_FACE ( 'NONE', ( #701 ), #149, .T. ) ;
#745 = VECTOR ( 'NONE', #749, 1000.000000000000000 ) ;
#746 = DIRECTION ( 'NONE',  ( 0.000000000000000000, 1.000000000000000000, 0.000000000000000000 ) ) ;
#747 = CONICAL_SURFACE ( 'NONE', #633, 2.200000000000007283, 0.7853981633974473908 ) ;
#748 = DIRECTION ( 'NONE',  ( -0.000000000000000000, 1.000000000000000000, -0.000000000000000000 ) ) ;
#749 = DIRECTION ( 'NONE',  ( -0.000000000000000000, -1.000000000000000000, -0.000000000000000000 ) ) ;
#750 = ORIENTED_EDGE ( 'NONE', *, *, #720, .F. ) ;
#751 = ADVANCED_FACE ( 'NONE', ( #14 ), #531, .F. ) ;
#752 = FACE_OUTER_BOUND ( 'NONE', #428, .T. ) ;
#753 = CARTESIAN_POINT ( 'NONE',  ( 0.000000000000000000, 22.00000000000000000, 0.000000000000000000 ) ) ;
#754 = DIRECTION ( 'NONE',  ( 0.000000000000000000, 0.000000000000000000, 1.000000000000000000 ) ) ;
#755 = ORIENTED_EDGE ( 'NONE', *, *, #683, .T. ) ;
#756 = CYLINDRICAL_SURFACE ( 'NONE', #731, 3.999999999999996447 ) ;
#757 = AXIS2_PLACEMENT_3D ( 'NONE', #334, #218, #523 ) ;
#758 = DIRECTION ( 'NONE',  ( 0.000000000000000000, 1.000000000000000000, -0.000000000000000000 ) ) ;
#759 = CARTESIAN_POINT ( 'NONE',  ( 0.9245283018867996860, 0.000000000000000000, 48.99127725849786685 ) ) ;
#760 = VECTOR ( 'NONE', #11, 1000.000000000000000 ) ;
#761 = DIRECTION ( 'NONE',  ( 0.000000000000000000, -0.000000000000000000, -1.000000000000000000 ) ) ;
#762 = ORIENTED_EDGE ( 'NONE', *, *, #494, .F. ) ;
#763 = DIRECTION ( 'NONE',  ( -0.000000000000000000, -1.000000000000000000, -0.000000000000000000 ) ) ;
#764 = CARTESIAN_POINT ( 'NONE',  ( 0.000000000000000000, 50.00000000000000000, 0.000000000000000000 ) ) ;
#765 = CYLINDRICAL_SURFACE ( 'NONE', #312, 2.899999999999999911 ) ;
#766 = ORIENTED_EDGE ( 'NONE', *, *, #485, .T. ) ;
#767 = CARTESIAN_POINT ( 'NONE',  ( 5.000000000000008882, 11.68753661309334824, 56.85249946322998227 ) ) ;
#768 = CARTESIAN_POINT ( 'NONE',  ( -28.53179410659470250, 21.78606843079068511, 44.66536884588953882 ) ) ;
#769 = EDGE_CURVE ( 'NONE', #513, #177, #260, .T. ) ;
#770 = EDGE_LOOP ( 'NONE', ( #98, #484 ) ) ;
#771 = CARTESIAN_POINT ( 'NONE',  ( 5.000000000000007994, 15.25881785920553924, 54.34244895525110053 ) ) ;
#772 = AXIS2_PLACEMENT_3D ( 'NONE', #89, #328, #280 ) ;
#773 = LINE ( 'NONE', #410, #405 ) ;
#774 = ORIENTED_EDGE ( 'NONE', *, *, #646, .T. ) ;
#775 = FACE_OUTER_BOUND ( 'NONE', #242, .T. ) ;
#776 = LINE ( 'NONE', #476, #659 ) ;
#777 = DIRECTION ( 'NONE',  ( 0.8660254037844404840, 0.000000000000000000, 0.4999999999999967248 ) ) ;
#778 = EDGE_LOOP ( 'NONE', ( #103, #205, #53, #707 ) ) ;
#779 = ADVANCED_FACE ( 'NONE', ( #509 ), #756, .T. ) ;
#780 = CARTESIAN_POINT ( 'NONE',  ( -20.78191667571120860, 12.95563829002412959, 52.00428349128969074 ) ) ;
#781 = ORIENTED_EDGE ( 'NONE', *, *, #329, .T. ) ;
#782 = DIRECTION ( 'NONE',  ( 0.000000000000000000, -1.000000000000000000, 0.000000000000000000 ) ) ;
#783 = CARTESIAN_POINT ( 'NONE',  ( -19.87625999082272799, 11.87803431595317072, 53.33852311403566659 ) ) ;
#784 = TOROIDAL_SURFACE ( 'NONE', #323, 68.00000000000000000, 15.00000000000000000 ) ;
#785 = VERTEX_POINT ( 'NONE', #565 ) ;
#786 = EDGE_CURVE ( 'NONE', #344, #377, #62, .T. ) ;
#787 = VECTOR ( 'NONE', #36, 1000.000000000000000 ) ;
ENDSEC;
END-ISO-10303-21;
