ISO-10303-21;
HEADER;
FILE_DESCRIPTION (( 'STEP AP214' ),
    '1' );
FILE_NAME ('ARP-0085.STEP',
    '2026-09-03T08:52:51',
    ( '' ),
    ( '' ),
    'SwSTEP 2.0',
    'SolidWorks 2024',
    '' );
FILE_SCHEMA (( 'AUTOMOTIVE_DESIGN' ));
ENDSEC;

DATA;
#1 = ORIENTED_EDGE ( 'NONE', *, *, #119, .T. ) ;
#2 = VECTOR ( 'NONE', #159, 1000.000000000000000 ) ;
#3 = ORIENTED_EDGE ( 'NONE', *, *, #119, .F. ) ;
#4 = PRODUCT ( 'ARP-0085', 'ARP-0085', '', ( #245 ) ) ;
#5 = LINE ( 'NONE', #82, #2 ) ;
#6 = VERTEX_POINT ( 'NONE', #169 ) ;
#7 = DIRECTION ( 'NONE',  ( -0.000000000000000000, -1.000000000000000000, -0.000000000000000000 ) ) ;
#8 = PRESENTATION_STYLE_ASSIGNMENT (( #206 ) ) ;
#9 = EDGE_CURVE ( 'NONE', #122, #196, #265, .T. ) ;
#10 = ORIENTED_EDGE ( 'NONE', *, *, #24, .T. ) ;
#11 = CARTESIAN_POINT ( 'NONE',  ( -109.3136605843551052, 6.000000000000000000, -19.27494772102926746 ) ) ;
#12 = FACE_OUTER_BOUND ( 'NONE', #36, .T. ) ;
#13 = CIRCLE ( 'NONE', #238, 2.249999999999995115 ) ;
#14 = AXIS2_PLACEMENT_3D ( 'NONE', #197, #160, #115 ) ;
#15 = VECTOR ( 'NONE', #7, 1000.000000000000000 ) ;
#16 = DIRECTION ( 'NONE',  ( 0.000000000000000000, 0.000000000000000000, -1.000000000000000000 ) ) ;
#17 = SHAPE_DEFINITION_REPRESENTATION ( #72, #239 ) ;
#18 = ADVANCED_FACE ( 'NONE', ( #131 ), #92, .F. ) ;
#19 = DIRECTION ( 'NONE',  ( -0.000000000000000000, -1.000000000000000000, -0.000000000000000000 ) ) ;
#20 = CIRCLE ( 'NONE', #58, 2.249999999999995115 ) ;
#21 = DIRECTION ( 'NONE',  ( 0.000000000000000000, -0.000000000000000000, 1.000000000000000000 ) ) ;
#22 = CARTESIAN_POINT ( 'NONE',  ( -109.3136605843551052, 6.000000000000000000, -19.27494772102926746 ) ) ;
#23 = ORIENTED_EDGE ( 'NONE', *, *, #48, .F. ) ;
#24 = EDGE_CURVE ( 'NONE', #89, #179, #132, .T. ) ;
#25 = ORIENTED_EDGE ( 'NONE', *, *, #216, .F. ) ;
#26 = AXIS2_PLACEMENT_3D ( 'NONE', #60, #19, #37 ) ;
#27 = CARTESIAN_POINT ( 'NONE',  ( -118.0490717238718474, 0.000000000000000000, -10.32795551559750180 ) ) ;
#28 = DIRECTION ( 'NONE',  ( 0.000000000000000000, 0.000000000000000000, 1.000000000000000000 ) ) ;
#29 =( NAMED_UNIT ( * ) SI_UNIT ( $, .STERADIAN. ) SOLID_ANGLE_UNIT ( ) );
#30 = AXIS2_PLACEMENT_3D ( 'NONE', #184, #67, #109 ) ;
#31 = CARTESIAN_POINT ( 'NONE',  ( -123.1009691265260102, 0.000000000000000000, -21.70602220836632767 ) ) ;
#32 = LINE ( 'NONE', #185, #51 ) ;
#33 = CYLINDRICAL_SURFACE ( 'NONE', #104, 125.0000000000000000 ) ;
#34 = DIRECTION ( 'NONE',  ( -0.000000000000000000, -1.000000000000000000, -0.000000000000000000 ) ) ;
#35 = DIRECTION ( 'NONE',  ( -0.000000000000000000, -1.000000000000000000, -0.000000000000000000 ) ) ;
#36 = EDGE_LOOP ( 'NONE', ( #201, #225, #139, #44 ) ) ;
#37 = DIRECTION ( 'NONE',  ( 0.000000000000000000, 0.000000000000000000, -1.000000000000000000 ) ) ;
#38 = EDGE_LOOP ( 'NONE', ( #105, #242, #66, #207 ) ) ;
#39 = DIRECTION ( 'NONE',  ( 0.000000000000000000, 1.000000000000000000, 0.000000000000000000 ) ) ;
#40 = AXIS2_PLACEMENT_3D ( 'NONE', #231, #16, #94 ) ;
#41 = EDGE_LOOP ( 'NONE', ( #3, #59 ) ) ;
#42 = CARTESIAN_POINT ( 'NONE',  ( -109.3136605843551052, 0.000000000000000000, -19.27494772102926746 ) ) ;
#43 = VERTEX_POINT ( 'NONE', #215 ) ;
#44 = ORIENTED_EDGE ( 'NONE', *, *, #167, .T. ) ;
#45 = CARTESIAN_POINT ( 'NONE',  ( -118.0490717238718474, 6.000000000000000000, -10.32795551559750180 ) ) ;
#46 = AXIS2_PLACEMENT_3D ( 'NONE', #56, #128, #28 ) ;
#47 = CARTESIAN_POINT ( 'NONE',  ( -123.1009691265260102, 6.000000000000000000, -21.70602220836632767 ) ) ;
#48 = EDGE_CURVE ( 'NONE', #204, #43, #260, .T. ) ;
#49 = FACE_OUTER_BOUND ( 'NONE', #101, .T. ) ;
#50 = EDGE_CURVE ( 'NONE', #43, #87, #54, .T. ) ;
#51 = VECTOR ( 'NONE', #262, 1000.000000000000000 ) ;
#52 = CARTESIAN_POINT ( 'NONE',  ( -125.0000000000000284, 0.000000000000000000, 0.000000000000000000 ) ) ;
#53 = VERTEX_POINT ( 'NONE', #31 ) ;
#54 = CIRCLE ( 'NONE', #210, 125.0000000000000000 ) ;
#55 =( NAMED_UNIT ( * ) PLANE_ANGLE_UNIT ( ) SI_UNIT ( $, .RADIAN. ) );
#56 = CARTESIAN_POINT ( 'NONE',  ( 0.000000000000000000, 0.000000000000000000, 0.000000000000000000 ) ) ;
#57 = DIRECTION ( 'NONE',  ( 0.000000000000000000, 0.000000000000000000, 1.000000000000000000 ) ) ;
#58 = AXIS2_PLACEMENT_3D ( 'NONE', #97, #220, #57 ) ;
#59 = ORIENTED_EDGE ( 'NONE', *, *, #213, .F. ) ;
#60 = CARTESIAN_POINT ( 'NONE',  ( 0.000000000000000000, 6.000000000000000000, 0.000000000000000000 ) ) ;
#61 = CARTESIAN_POINT ( 'NONE',  ( 0.000000000000000000, 0.000000000000000000, 0.000000000000000000 ) ) ;
#62 = ORIENTED_EDGE ( 'NONE', *, *, #68, .F. ) ;
#63 = SURFACE_STYLE_FILL_AREA ( #65 ) ;
#64 = ADVANCED_FACE ( 'NONE', ( #12 ), #113, .F. ) ;
#65 = FILL_AREA_STYLE ('',( #249 ) ) ;
#66 = ORIENTED_EDGE ( 'NONE', *, *, #218, .T. ) ;
#67 = DIRECTION ( 'NONE',  ( -0.000000000000000000, -1.000000000000000000, -0.000000000000000000 ) ) ;
#68 = EDGE_CURVE ( 'NONE', #196, #53, #32, .T. ) ;
#69 =( GEOMETRIC_REPRESENTATION_CONTEXT ( 3 ) GLOBAL_UNCERTAINTY_ASSIGNED_CONTEXT ( ( #107 ) ) GLOBAL_UNIT_ASSIGNED_CONTEXT ( ( #250, #171, #29 ) ) REPRESENTATION_CONTEXT ( 'NONE', 'WORKASPACE' ) );
#70 = CARTESIAN_POINT ( 'NONE',  ( -118.0490717238718474, 0.000000000000000000, -8.077955515597507130 ) ) ;
#71 = UNCERTAINTY_MEASURE_WITH_UNIT (LENGTH_MEASURE( 1.000000000000000082E-05 ), #255, 'distance_accuracy_value', 'NONE');
#72 = PRODUCT_DEFINITION_SHAPE ( 'NONE', 'NONE',  #176 ) ;
#73 = AXIS2_PLACEMENT_3D ( 'NONE', #253, #148, #114 ) ;
#74 = DIRECTION ( 'NONE',  ( 0.000000000000000000, 1.000000000000000000, 0.000000000000000000 ) ) ;
#75 = CARTESIAN_POINT ( 'NONE',  ( -125.0000000000000284, 6.000000000000000000, 0.000000000000000000 ) ) ;
#76 = FACE_OUTER_BOUND ( 'NONE', #85, .T. ) ;
#77 = EDGE_CURVE ( 'NONE', #43, #53, #157, .T. ) ;
#78 = FACE_OUTER_BOUND ( 'NONE', #95, .T. ) ;
#79 = EDGE_LOOP ( 'NONE', ( #248, #158, #23, #223 ) ) ;
#80 = VECTOR ( 'NONE', #214, 1000.000000000000000 ) ;
#81 = ORIENTED_EDGE ( 'NONE', *, *, #9, .T. ) ;
#82 = CARTESIAN_POINT ( 'NONE',  ( -125.0000000000000284, 0.000000000000000000, 0.000000000000000000 ) ) ;
#83 = ORIENTED_EDGE ( 'NONE', *, *, #152, .F. ) ;
#84 = LINE ( 'NONE', #154, #80 ) ;
#85 = EDGE_LOOP ( 'NONE', ( #251, #144, #264, #209 ) ) ;
#86 = MECHANICAL_DESIGN_GEOMETRIC_PRESENTATION_REPRESENTATION (  '', ( #226 ), #69 ) ;
#87 = VERTEX_POINT ( 'NONE', #106 ) ;
#88 = DIRECTION ( 'NONE',  ( -0.000000000000000000, -1.000000000000000000, -0.000000000000000000 ) ) ;
#89 = VERTEX_POINT ( 'NONE', #70 ) ;
#90 = CYLINDRICAL_SURFACE ( 'NONE', #30, 2.249999999999995115 ) ;
#91 = COLOUR_RGB ( '',0.7921568627450980005, 0.8196078431372548767, 0.9333333333333333481 ) ;
#92 = PLANE ( 'NONE',  #183 ) ;
#93 = ADVANCED_FACE ( 'NONE', ( #49, #127 ), #212, .F. ) ;
#94 = DIRECTION ( 'NONE',  ( -1.000000000000000000, 0.000000000000000000, -0.000000000000000000 ) ) ;
#95 = EDGE_LOOP ( 'NONE', ( #123, #143, #150, #140 ) ) ;
#96 = AXIS2_PLACEMENT_3D ( 'NONE', #233, #211, #254 ) ;
#97 = CARTESIAN_POINT ( 'NONE',  ( -118.0490717238718474, 6.000000000000000000, -10.32795551559750180 ) ) ;
#98 = PLANE ( 'NONE',  #147 ) ;
#99 = DIRECTION ( 'NONE',  ( 0.000000000000000000, 0.000000000000000000, -1.000000000000000000 ) ) ;
#100 = DIRECTION ( 'NONE',  ( 0.000000000000000000, 0.000000000000000000, 1.000000000000000000 ) ) ;
#101 = EDGE_LOOP ( 'NONE', ( #25, #62, #137, #83 ) ) ;
#102 = DIRECTION ( 'NONE',  ( 0.000000000000000000, 1.000000000000000000, 0.000000000000000000 ) ) ;
#103 = ADVANCED_FACE ( 'NONE', ( #175 ), #241, .F. ) ;
#104 = AXIS2_PLACEMENT_3D ( 'NONE', #240, #35, #99 ) ;
#105 = ORIENTED_EDGE ( 'NONE', *, *, #224, .F. ) ;
#106 = CARTESIAN_POINT ( 'NONE',  ( -125.0000000000000284, 6.000000000000000000, 0.000000000000000000 ) ) ;
#107 = UNCERTAINTY_MEASURE_WITH_UNIT (LENGTH_MEASURE( 1.000000000000000082E-05 ), #250, 'distance_accuracy_value', 'NONE');
#108 = LINE ( 'NONE', #186, #15 ) ;
#109 = DIRECTION ( 'NONE',  ( 0.000000000000000000, 0.000000000000000000, -1.000000000000000000 ) ) ;
#110 = ORIENTED_EDGE ( 'NONE', *, *, #199, .F. ) ;
#111 = ADVANCED_FACE ( 'NONE', ( #78, #174 ), #98, .T. ) ;
#112 = VECTOR ( 'NONE', #259, 1000.000000000000000 ) ;
#113 = PLANE ( 'NONE',  #40 ) ;
#114 = DIRECTION ( 'NONE',  ( 0.000000000000000000, 0.000000000000000000, 1.000000000000000000 ) ) ;
#115 = DIRECTION ( 'NONE',  ( 1.000000000000000000, 0.000000000000000000, 0.000000000000000000 ) ) ;
#116 = DIRECTION ( 'NONE',  ( 0.000000000000000000, 0.000000000000000000, -1.000000000000000000 ) ) ;
#117 = ORIENTED_EDGE ( 'NONE', *, *, #224, .T. ) ;
#118 = CARTESIAN_POINT ( 'NONE',  ( -111.0000000000000000, 6.000000000000000000, 0.000000000000000000 ) ) ;
#119 = EDGE_CURVE ( 'NONE', #6, #165, #20, .T. ) ;
#120 = ORIENTED_EDGE ( 'NONE', *, *, #149, .F. ) ;
#121 = DIRECTION ( 'NONE',  ( 0.000000000000000000, -0.000000000000000000, 1.000000000000000000 ) ) ;
#122 = VERTEX_POINT ( 'NONE', #222 ) ;
#123 = ORIENTED_EDGE ( 'NONE', *, *, #50, .T. ) ;
#124 = LINE ( 'NONE', #227, #244 ) ;
#125 = CIRCLE ( 'NONE', #198, 2.249999999999995115 ) ;
#126 = DIRECTION ( 'NONE',  ( -0.000000000000000000, -1.000000000000000000, -0.000000000000000000 ) ) ;
#127 = FACE_BOUND ( 'NONE', #228, .T. ) ;
#128 = DIRECTION ( 'NONE',  ( -0.000000000000000000, -1.000000000000000000, -0.000000000000000000 ) ) ;
#129 = VECTOR ( 'NONE', #234, 1000.000000000000000 ) ;
#130 = ADVANCED_FACE ( 'NONE', ( #76 ), #33, .T. ) ;
#131 = FACE_OUTER_BOUND ( 'NONE', #79, .T. ) ;
#132 = CIRCLE ( 'NONE', #73, 2.249999999999995115 ) ;
#133 = DIRECTION ( 'NONE',  ( 0.000000000000000000, 0.000000000000000000, 1.000000000000000000 ) ) ;
#134 = APPLICATION_PROTOCOL_DEFINITION ( 'draft international standard', 'automotive_design', 1998, #187 ) ;
#135 = FACE_OUTER_BOUND ( 'NONE', #229, .T. ) ;
#136 = VECTOR ( 'NONE', #178, 1000.000000000000000 ) ;
#137 = ORIENTED_EDGE ( 'NONE', *, *, #9, .F. ) ;
#138 = ADVANCED_FACE ( 'NONE', ( #135 ), #177, .F. ) ;
#139 = ORIENTED_EDGE ( 'NONE', *, *, #236, .F. ) ;
#140 = ORIENTED_EDGE ( 'NONE', *, *, #48, .T. ) ;
#141 =( GEOMETRIC_REPRESENTATION_CONTEXT ( 3 ) GLOBAL_UNCERTAINTY_ASSIGNED_CONTEXT ( ( #71 ) ) GLOBAL_UNIT_ASSIGNED_CONTEXT ( ( #255, #55, #189 ) ) REPRESENTATION_CONTEXT ( 'NONE', 'WORKASPACE' ) );
#142 = CARTESIAN_POINT ( 'NONE',  ( -118.0490717238718474, 6.000000000000000000, -8.077955515597507130 ) ) ;
#143 = ORIENTED_EDGE ( 'NONE', *, *, #236, .T. ) ;
#144 = ORIENTED_EDGE ( 'NONE', *, *, #167, .F. ) ;
#145 = VERTEX_POINT ( 'NONE', #118 ) ;
#146 = DIRECTION ( 'NONE',  ( 0.000000000000000000, 0.000000000000000000, 1.000000000000000000 ) ) ;
#147 = AXIS2_PLACEMENT_3D ( 'NONE', #243, #39, #121 ) ;
#148 = DIRECTION ( 'NONE',  ( 0.000000000000000000, 1.000000000000000000, 0.000000000000000000 ) ) ;
#149 = EDGE_CURVE ( 'NONE', #204, #196, #180, .T. ) ;
#150 = ORIENTED_EDGE ( 'NONE', *, *, #230, .T. ) ;
#151 = CLOSED_SHELL ( 'NONE', ( #138, #111, #93, #130, #64, #103, #18, #205 ) ) ;
#152 = EDGE_CURVE ( 'NONE', #235, #122, #5, .T. ) ;
#153 = PRODUCT_DEFINITION_CONTEXT ( 'detailed design', #187, 'design' ) ;
#154 = CARTESIAN_POINT ( 'NONE',  ( -118.0490717238718474, 6.000000000000000000, -8.077955515597507130 ) ) ;
#155 = DIRECTION ( 'NONE',  ( -0.000000000000000000, -1.000000000000000000, -0.000000000000000000 ) ) ;
#156 = DIRECTION ( 'NONE',  ( 0.000000000000000000, 0.000000000000000000, 1.000000000000000000 ) ) ;
#157 = LINE ( 'NONE', #47, #173 ) ;
#158 = ORIENTED_EDGE ( 'NONE', *, *, #77, .F. ) ;
#159 = DIRECTION ( 'NONE',  ( 1.000000000000000000, 0.000000000000000000, 0.000000000000000000 ) ) ;
#160 = DIRECTION ( 'NONE',  ( 0.000000000000000000, 0.000000000000000000, 1.000000000000000000 ) ) ;
#161 = PRESENTATION_LAYER_ASSIGNMENT (  '', '', ( #226 ) ) ;
#162 = ORIENTED_EDGE ( 'NONE', *, *, #256, .T. ) ;
#163 = ORIENTED_EDGE ( 'NONE', *, *, #218, .F. ) ;
#164 = VECTOR ( 'NONE', #237, 1000.000000000000000 ) ;
#165 = VERTEX_POINT ( 'NONE', #142 ) ;
#166 = DIRECTION ( 'NONE',  ( 0.9848077530122080203, 0.000000000000000000, 0.1736481776669309141 ) ) ;
#167 = EDGE_CURVE ( 'NONE', #87, #235, #124, .T. ) ;
#168 = FACE_OUTER_BOUND ( 'NONE', #38, .T. ) ;
#169 = CARTESIAN_POINT ( 'NONE',  ( -118.0490717238718474, 6.000000000000000000, -12.57795551559749647 ) ) ;
#170 = PRODUCT_RELATED_PRODUCT_CATEGORY ( 'part', '', ( #4 ) ) ;
#171 =( NAMED_UNIT ( * ) PLANE_ANGLE_UNIT ( ) SI_UNIT ( $, .RADIAN. ) );
#172 = AXIS2_PLACEMENT_3D ( 'NONE', #203, #34, #116 ) ;
#173 = VECTOR ( 'NONE', #126, 1000.000000000000000 ) ;
#174 = FACE_BOUND ( 'NONE', #41, .T. ) ;
#175 = FACE_OUTER_BOUND ( 'NONE', #246, .T. ) ;
#176 = PRODUCT_DEFINITION ( 'NON CONOSCIUTO', '', #191, #153 ) ;
#177 = CYLINDRICAL_SURFACE ( 'NONE', #172, 2.249999999999995115 ) ;
#178 = DIRECTION ( 'NONE',  ( -0.000000000000000000, -1.000000000000000000, -0.000000000000000000 ) ) ;
#179 = VERTEX_POINT ( 'NONE', #208 ) ;
#180 = LINE ( 'NONE', #22, #136 ) ;
#181 = ORIENTED_EDGE ( 'NONE', *, *, #230, .F. ) ;
#182 = SURFACE_SIDE_STYLE ('',( #63 ) ) ;
#183 = AXIS2_PLACEMENT_3D ( 'NONE', #195, #192, #166 ) ;
#184 = CARTESIAN_POINT ( 'NONE',  ( -118.0490717238718474, 6.000000000000000000, -10.32795551559750180 ) ) ;
#185 = CARTESIAN_POINT ( 'NONE',  ( -123.1009691265260102, 0.000000000000000000, -21.70602220836632767 ) ) ;
#186 = CARTESIAN_POINT ( 'NONE',  ( -118.0490717238718474, 6.000000000000000000, -12.57795551559749647 ) ) ;
#187 = APPLICATION_CONTEXT ( 'automotive_design' ) ;
#188 = CARTESIAN_POINT ( 'NONE',  ( 0.000000000000000000, 6.000000000000000000, 0.000000000000000000 ) ) ;
#189 =( NAMED_UNIT ( * ) SI_UNIT ( $, .STERADIAN. ) SOLID_ANGLE_UNIT ( ) );
#190 = CIRCLE ( 'NONE', #96, 125.0000000000000000 ) ;
#191 = PRODUCT_DEFINITION_FORMATION_WITH_SPECIFIED_SOURCE ( 'TUTTO', '', #4, .NOT_KNOWN. ) ;
#192 = DIRECTION ( 'NONE',  ( -0.1736481776669309141, 0.000000000000000000, 0.9848077530122080203 ) ) ;
#193 = LINE ( 'NONE', #258, #164 ) ;
#194 = CARTESIAN_POINT ( 'NONE',  ( 0.000000000000000000, 6.000000000000000000, 0.000000000000000000 ) ) ;
#195 = CARTESIAN_POINT ( 'NONE',  ( -123.1009691265260102, 6.000000000000000000, -21.70602220836632767 ) ) ;
#196 = VERTEX_POINT ( 'NONE', #42 ) ;
#197 = CARTESIAN_POINT ( 'NONE',  ( 0.000000000000000000, 0.000000000000000000, 0.000000000000000000 ) ) ;
#198 = AXIS2_PLACEMENT_3D ( 'NONE', #27, #102, #100 ) ;
#199 = EDGE_CURVE ( 'NONE', #179, #89, #125, .T. ) ;
#200 = ORIENTED_EDGE ( 'NONE', *, *, #199, .T. ) ;
#201 = ORIENTED_EDGE ( 'NONE', *, *, #152, .T. ) ;
#202 = AXIS2_PLACEMENT_3D ( 'NONE', #194, #155, #133 ) ;
#203 = CARTESIAN_POINT ( 'NONE',  ( -118.0490717238718474, 6.000000000000000000, -10.32795551559750180 ) ) ;
#204 = VERTEX_POINT ( 'NONE', #11 ) ;
#205 = ADVANCED_FACE ( 'NONE', ( #168 ), #90, .F. ) ;
#206 = SURFACE_STYLE_USAGE ( .BOTH. , #182 ) ;
#207 = ORIENTED_EDGE ( 'NONE', *, *, #24, .F. ) ;
#208 = CARTESIAN_POINT ( 'NONE',  ( -118.0490717238718474, 0.000000000000000000, -12.57795551559749647 ) ) ;
#209 = ORIENTED_EDGE ( 'NONE', *, *, #77, .T. ) ;
#210 = AXIS2_PLACEMENT_3D ( 'NONE', #188, #74, #156 ) ;
#211 = DIRECTION ( 'NONE',  ( 0.000000000000000000, 1.000000000000000000, 0.000000000000000000 ) ) ;
#212 = PLANE ( 'NONE',  #221 ) ;
#213 = EDGE_CURVE ( 'NONE', #165, #6, #13, .T. ) ;
#214 = DIRECTION ( 'NONE',  ( -0.000000000000000000, -1.000000000000000000, -0.000000000000000000 ) ) ;
#215 = CARTESIAN_POINT ( 'NONE',  ( -123.1009691265260102, 6.000000000000000000, -21.70602220836632767 ) ) ;
#216 = EDGE_CURVE ( 'NONE', #53, #235, #190, .T. ) ;
#217 = CARTESIAN_POINT ( 'NONE',  ( -123.1009691265260102, 6.000000000000000000, -21.70602220836632767 ) ) ;
#218 = EDGE_CURVE ( 'NONE', #6, #179, #108, .T. ) ;
#219 = MANIFOLD_SOLID_BREP ( 'Estrusione-Estrusione1', #151 ) ;
#220 = DIRECTION ( 'NONE',  ( 0.000000000000000000, 1.000000000000000000, 0.000000000000000000 ) ) ;
#221 = AXIS2_PLACEMENT_3D ( 'NONE', #61, #247, #21 ) ;
#222 = CARTESIAN_POINT ( 'NONE',  ( -111.0000000000000000, 0.000000000000000000, 0.000000000000000000 ) ) ;
#223 = ORIENTED_EDGE ( 'NONE', *, *, #149, .T. ) ;
#224 = EDGE_CURVE ( 'NONE', #165, #89, #84, .T. ) ;
#225 = ORIENTED_EDGE ( 'NONE', *, *, #256, .F. ) ;
#226 = STYLED_ITEM ( 'NONE', ( #8 ), #219 ) ;
#227 = CARTESIAN_POINT ( 'NONE',  ( -125.0000000000000284, 6.000000000000000000, 0.000000000000000000 ) ) ;
#228 = EDGE_LOOP ( 'NONE', ( #200, #10 ) ) ;
#229 = EDGE_LOOP ( 'NONE', ( #1, #117, #110, #163 ) ) ;
#230 = EDGE_CURVE ( 'NONE', #145, #204, #232, .T. ) ;
#231 = CARTESIAN_POINT ( 'NONE',  ( -125.0000000000000284, 6.000000000000000000, 0.000000000000000000 ) ) ;
#232 = CIRCLE ( 'NONE', #202, 111.0000000000000142 ) ;
#233 = CARTESIAN_POINT ( 'NONE',  ( 0.000000000000000000, 0.000000000000000000, 0.000000000000000000 ) ) ;
#234 = DIRECTION ( 'NONE',  ( -0.9848077530122080203, -0.000000000000000000, -0.1736481776669309141 ) ) ;
#235 = VERTEX_POINT ( 'NONE', #52 ) ;
#236 = EDGE_CURVE ( 'NONE', #87, #145, #261, .T. ) ;
#237 = DIRECTION ( 'NONE',  ( -0.000000000000000000, -1.000000000000000000, -0.000000000000000000 ) ) ;
#238 = AXIS2_PLACEMENT_3D ( 'NONE', #45, #252, #146 ) ;
#239 = ADVANCED_BREP_SHAPE_REPRESENTATION ( 'ARP-0085', ( #219, #14 ), #141 ) ;
#240 = CARTESIAN_POINT ( 'NONE',  ( 0.000000000000000000, 6.000000000000000000, 0.000000000000000000 ) ) ;
#241 = CYLINDRICAL_SURFACE ( 'NONE', #26, 111.0000000000000142 ) ;
#242 = ORIENTED_EDGE ( 'NONE', *, *, #213, .T. ) ;
#243 = CARTESIAN_POINT ( 'NONE',  ( 0.000000000000000000, 6.000000000000000000, 0.000000000000000000 ) ) ;
#244 = VECTOR ( 'NONE', #88, 1000.000000000000000 ) ;
#245 = PRODUCT_CONTEXT ( 'NONE', #257, 'mechanical' ) ;
#246 = EDGE_LOOP ( 'NONE', ( #81, #120, #181, #162 ) ) ;
#247 = DIRECTION ( 'NONE',  ( 0.000000000000000000, 1.000000000000000000, 0.000000000000000000 ) ) ;
#248 = ORIENTED_EDGE ( 'NONE', *, *, #68, .T. ) ;
#249 = FILL_AREA_STYLE_COLOUR ( '', #91 ) ;
#250 =( LENGTH_UNIT ( ) NAMED_UNIT ( * ) SI_UNIT ( .MILLI., .METRE. ) );
#251 = ORIENTED_EDGE ( 'NONE', *, *, #216, .T. ) ;
#252 = DIRECTION ( 'NONE',  ( 0.000000000000000000, 1.000000000000000000, 0.000000000000000000 ) ) ;
#253 = CARTESIAN_POINT ( 'NONE',  ( -118.0490717238718474, 0.000000000000000000, -10.32795551559750180 ) ) ;
#254 = DIRECTION ( 'NONE',  ( 0.000000000000000000, 0.000000000000000000, 1.000000000000000000 ) ) ;
#255 =( LENGTH_UNIT ( ) NAMED_UNIT ( * ) SI_UNIT ( .MILLI., .METRE. ) );
#256 = EDGE_CURVE ( 'NONE', #145, #122, #193, .T. ) ;
#257 = APPLICATION_CONTEXT ( 'automotive_design' ) ;
#258 = CARTESIAN_POINT ( 'NONE',  ( -111.0000000000000000, 6.000000000000000000, 0.000000000000000000 ) ) ;
#259 = DIRECTION ( 'NONE',  ( 1.000000000000000000, 0.000000000000000000, 0.000000000000000000 ) ) ;
#260 = LINE ( 'NONE', #217, #129 ) ;
#261 = LINE ( 'NONE', #75, #112 ) ;
#262 = DIRECTION ( 'NONE',  ( -0.9848077530122080203, -0.000000000000000000, -0.1736481776669309141 ) ) ;
#263 = APPLICATION_PROTOCOL_DEFINITION ( 'draft international standard', 'automotive_design', 1998, #257 ) ;
#264 = ORIENTED_EDGE ( 'NONE', *, *, #50, .F. ) ;
#265 = CIRCLE ( 'NONE', #46, 111.0000000000000142 ) ;
ENDSEC;
END-ISO-10303-21;
