ISO-10303-21;
HEADER;
FILE_DESCRIPTION (( 'STEP AP214' ),
    '1' );
FILE_NAME ('ARP-0090.STEP',
    '2026-09-03T08:56:12',
    ( '' ),
    ( '' ),
    'SwSTEP 2.0',
    'SolidWorks 2024',
    '' );
FILE_SCHEMA (( 'AUTOMOTIVE_DESIGN' ));
ENDSEC;

DATA;
#1 = VERTEX_POINT ( 'NONE', #1039 ) ;
#2 = DIRECTION ( 'NONE',  ( -0.000000000000000000, -0.000000000000000000, 1.000000000000000000 ) ) ;
#3 = CARTESIAN_POINT ( 'NONE',  ( 51.65000000000001279, 9.249999999999994671, 27.00000000000000000 ) ) ;
#4 = ORIENTED_EDGE ( 'NONE', *, *, #148, .F. ) ;
#5 = EDGE_CURVE ( 'NONE', #670, #175, #11, .T. ) ;
#6 = ORIENTED_EDGE ( 'NONE', *, *, #1262, .T. ) ;
#7 = PRESENTATION_STYLE_ASSIGNMENT (( #1021 ) ) ;
#8 = ORIENTED_EDGE ( 'NONE', *, *, #956, .T. ) ;
#9 = VECTOR ( 'NONE', #796, 1000.000000000000000 ) ;
#10 = ADVANCED_FACE ( 'NONE', ( #935 ), #743, .F. ) ;
#11 = LINE ( 'NONE', #634, #618 ) ;
#12 = DIRECTION ( 'NONE',  ( 0.9284766908852593037, -0.000000000000000000, 0.3713906763541036660 ) ) ;
#13 = EDGE_LOOP ( 'NONE', ( #1166, #608, #1102, #354, #1211, #879, #596, #137, #1086, #714, #427, #1186 ) ) ;
#14 = CARTESIAN_POINT ( 'NONE',  ( 72.29999999999999716, 0.000000000000000000, 0.000000000000000000 ) ) ;
#15 = ADVANCED_FACE ( 'NONE', ( #512 ), #1020, .F. ) ;
#16 = ORIENTED_EDGE ( 'NONE', *, *, #417, .T. ) ;
#17 = CARTESIAN_POINT ( 'NONE',  ( 10.00000000000000178, 3.599999999999999201, 12.77032961426900926 ) ) ;
#18 = CARTESIAN_POINT ( 'NONE',  ( 72.29999999999999716, 3.600000000000000089, 0.000000000000000000 ) ) ;
#19 = CARTESIAN_POINT ( 'NONE',  ( 10.00000000000000178, 3.600000000000000089, 14.22967038573099074 ) ) ;
#20 = CARTESIAN_POINT ( 'NONE',  ( 64.80000000000001137, 0.6000000000000007550, 13.50000000000000000 ) ) ;
#21 = DIRECTION ( 'NONE',  ( 0.000000000000000000, 0.000000000000000000, 1.000000000000000000 ) ) ;
#22 = ADVANCED_FACE ( 'NONE', ( #122 ), #519, .F. ) ;
#23 = ORIENTED_EDGE ( 'NONE', *, *, #5, .T. ) ;
#24 = DIRECTION ( 'NONE',  ( 0.000000000000000000, 0.000000000000000000, 1.000000000000000000 ) ) ;
#25 = DIRECTION ( 'NONE',  ( -0.9284766908852593037, 0.000000000000000000, 0.3713906763541036660 ) ) ;
#26 = CARTESIAN_POINT ( 'NONE',  ( 2.068965517241378116, 0.000000000000000000, 5.172413793103449287 ) ) ;
#27 = FACE_OUTER_BOUND ( 'NONE', #365, .T. ) ;
#28 = EDGE_LOOP ( 'NONE', ( #320, #915, #986, #703 ) ) ;
#29 = DIRECTION ( 'NONE',  ( 0.000000000000000000, 0.000000000000000000, 1.000000000000000000 ) ) ;
#30 = ORIENTED_EDGE ( 'NONE', *, *, #1113, .F. ) ;
#31 = FACE_OUTER_BOUND ( 'NONE', #1152, .T. ) ;
#32 = ADVANCED_FACE ( 'NONE', ( #912 ), #1228, .F. ) ;
#33 = PRODUCT_DEFINITION_FORMATION_WITH_SPECIFIED_SOURCE ( 'TUTTO', '', #443, .NOT_KNOWN. ) ;
#34 = CARTESIAN_POINT ( 'NONE',  ( 64.80000000000001137, 0.000000000000000000, 13.50000000000000000 ) ) ;
#35 = EDGE_LOOP ( 'NONE', ( #581, #668, #621, #975, #700 ) ) ;
#36 = ORIENTED_EDGE ( 'NONE', *, *, #169, .T. ) ;
#37 = CARTESIAN_POINT ( 'NONE',  ( 0.000000000000000000, 3.600000000000000089, 0.000000000000000000 ) ) ;
#38 = DIRECTION ( 'NONE',  ( 0.000000000000000000, 0.000000000000000000, 1.000000000000000000 ) ) ;
#39 = EDGE_LOOP ( 'NONE', ( #954, #900, #719, #89 ) ) ;
#40 = EDGE_CURVE ( 'NONE', #793, #736, #1203, .T. ) ;
#41 = CARTESIAN_POINT ( 'NONE',  ( 7.500000000000007105, 0.000000000000000000, 11.25000000000000178 ) ) ;
#42 = CARTESIAN_POINT ( 'NONE',  ( 15.00000000000001421, 7.600000000000030731, 27.00000000000000711 ) ) ;
#43 = EDGE_LOOP ( 'NONE', ( #1281, #764 ) ) ;
#44 = AXIS2_PLACEMENT_3D ( 'NONE', #79, #382, #291 ) ;
#45 = EDGE_CURVE ( 'NONE', #1240, #566, #842, .T. ) ;
#46 = VECTOR ( 'NONE', #666, 1000.000000000000000 ) ;
#47 = DIRECTION ( 'NONE',  ( 1.000000000000000000, 0.000000000000000000, -1.201342045718669925E-16 ) ) ;
#48 = DIRECTION ( 'NONE',  ( 0.000000000000000000, 0.000000000000000000, 1.000000000000000000 ) ) ;
#49 = VECTOR ( 'NONE', #1300, 1000.000000000000000 ) ;
#50 = AXIS2_PLACEMENT_3D ( 'NONE', #973, #672, #1064 ) ;
#51 = VERTEX_POINT ( 'NONE', #563 ) ;
#52 = VERTEX_POINT ( 'NONE', #850 ) ;
#53 = DIRECTION ( 'NONE',  ( 1.000000000000000000, 0.000000000000000000, -8.202002250481360014E-17 ) ) ;
#54 = CARTESIAN_POINT ( 'NONE',  ( 15.00000000000001421, -38.69999999999999574, 27.00000000000000711 ) ) ;
#55 = DIRECTION ( 'NONE',  ( 1.000000000000000000, 0.000000000000000000, 0.000000000000000000 ) ) ;
#56 = ADVANCED_FACE ( 'NONE', ( #1154 ), #361, .F. ) ;
#57 = CARTESIAN_POINT ( 'NONE',  ( 57.30000000000000426, 0.000000000000000000, 27.00000000000000000 ) ) ;
#58 = ORIENTED_EDGE ( 'NONE', *, *, #1246, .F. ) ;
#59 = PRODUCT_CONTEXT ( 'NONE', #544, 'mechanical' ) ;
#60 = VERTEX_POINT ( 'NONE', #356 ) ;
#61 = CYLINDRICAL_SURFACE ( 'NONE', #643, 1.749999999999998002 ) ;
#62 = PLANE ( 'NONE',  #111 ) ;
#63 = ADVANCED_FACE ( 'NONE', ( #680 ), #450, .F. ) ;
#64 = ORIENTED_EDGE ( 'NONE', *, *, #1030, .T. ) ;
#65 = LINE ( 'NONE', #869, #224 ) ;
#66 = DIRECTION ( 'NONE',  ( 1.000000000000000000, 0.000000000000000000, 0.000000000000000000 ) ) ;
#67 = EDGE_LOOP ( 'NONE', ( #216, #798, #394, #329 ) ) ;
#68 = PLANE ( 'NONE',  #1227 ) ;
#69 = VECTOR ( 'NONE', #1195, 1000.000000000000000 ) ;
#70 = DIRECTION ( 'NONE',  ( 0.000000000000000000, 1.000000000000000000, 0.000000000000000000 ) ) ;
#71 = ORIENTED_EDGE ( 'NONE', *, *, #859, .F. ) ;
#72 = EDGE_CURVE ( 'NONE', #919, #1209, #776, .T. ) ;
#73 = AXIS2_PLACEMENT_3D ( 'NONE', #832, #1147, #651 ) ;
#74 = ORIENTED_EDGE ( 'NONE', *, *, #245, .T. ) ;
#75 = EDGE_CURVE ( 'NONE', #919, #439, #158, .T. ) ;
#76 = CARTESIAN_POINT ( 'NONE',  ( 0.000000000000000000, 3.600000000000000089, 0.000000000000000000 ) ) ;
#77 = CARTESIAN_POINT ( 'NONE',  ( 15.00000000000001421, 41.89999999999997726, 27.00000000000000711 ) ) ;
#78 = DIRECTION ( 'NONE',  ( 0.000000000000000000, 0.000000000000000000, 1.000000000000000000 ) ) ;
#79 = CARTESIAN_POINT ( 'NONE',  ( 0.000000000000000000, 0.000000000000000000, 0.000000000000000000 ) ) ;
#80 = ORIENTED_EDGE ( 'NONE', *, *, #271, .T. ) ;
#81 = DIRECTION ( 'NONE',  ( -0.000000000000000000, -0.000000000000000000, 1.000000000000000000 ) ) ;
#82 = DIRECTION ( 'NONE',  ( 1.000000000000000000, 0.000000000000000000, 0.000000000000000000 ) ) ;
#83 = ADVANCED_FACE ( 'NONE', ( #375 ), #752, .F. ) ;
#84 = CARTESIAN_POINT ( 'NONE',  ( 64.80000000000001137, 3.600000000000000089, 18.50000000000000355 ) ) ;
#85 = FACE_OUTER_BOUND ( 'NONE', #848, .T. ) ;
#86 = ORIENTED_EDGE ( 'NONE', *, *, #1284, .F. ) ;
#87 = DIRECTION ( 'NONE',  ( 1.000000000000000000, 0.000000000000000000, 0.000000000000000000 ) ) ;
#88 = CARTESIAN_POINT ( 'NONE',  ( 0.000000000000000000, 3.600000000000000089, 0.000000000000000000 ) ) ;
#89 = ORIENTED_EDGE ( 'NONE', *, *, #627, .T. ) ;
#90 = FACE_OUTER_BOUND ( 'NONE', #260, .T. ) ;
#91 = FACE_BOUND ( 'NONE', #1001, .T. ) ;
#92 = EDGE_CURVE ( 'NONE', #439, #470, #907, .T. ) ;
#93 = CARTESIAN_POINT ( 'NONE',  ( 0.000000000000000000, 45.89999999999999858, 0.000000000000000000 ) ) ;
#94 = FACE_OUTER_BOUND ( 'NONE', #1130, .T. ) ;
#95 = AXIS2_PLACEMENT_3D ( 'NONE', #1058, #171, #55 ) ;
#96 = ORIENTED_EDGE ( 'NONE', *, *, #1014, .T. ) ;
#97 = CARTESIAN_POINT ( 'NONE',  ( 19.00000000000001066, 45.89999999999999858, 23.00000000000000000 ) ) ;
#98 = VECTOR ( 'NONE', #845, 1000.000000000000000 ) ;
#99 = CARTESIAN_POINT ( 'NONE',  ( 64.80000000000001137, 3.600000000000000089, 18.50000000000000355 ) ) ;
#100 = EDGE_LOOP ( 'NONE', ( #659, #849, #457, #933 ) ) ;
#101 = VECTOR ( 'NONE', #882, 1000.000000000000000 ) ;
#102 = CIRCLE ( 'NONE', #266, 1.750000000000001554 ) ;
#103 = FACE_OUTER_BOUND ( 'NONE', #112, .T. ) ;
#104 = CARTESIAN_POINT ( 'NONE',  ( 18.99999999999999289, 45.89999999999999858, -1.647987302177963269E-14 ) ) ;
#105 = ORIENTED_EDGE ( 'NONE', *, *, #325, .T. ) ;
#106 =( LENGTH_UNIT ( ) NAMED_UNIT ( * ) SI_UNIT ( .MILLI., .METRE. ) );
#107 = EDGE_LOOP ( 'NONE', ( #739, #36, #684, #254 ) ) ;
#108 = ORIENTED_EDGE ( 'NONE', *, *, #733, .T. ) ;
#109 = DIRECTION ( 'NONE',  ( -0.000000000000000000, -0.000000000000000000, 1.000000000000000000 ) ) ;
#110 = VERTEX_POINT ( 'NONE', #441 ) ;
#111 = AXIS2_PLACEMENT_3D ( 'NONE', #952, #1255, #1164 ) ;
#112 = EDGE_LOOP ( 'NONE', ( #1178, #1216, #1282, #1151 ) ) ;
#113 = CARTESIAN_POINT ( 'NONE',  ( 51.65000000000001279, 40.24999999999999289, -15.29999999999999716 ) ) ;
#114 = CARTESIAN_POINT ( 'NONE',  ( 61.29999999999999005, 3.600000000000000089, 25.40000000000000568 ) ) ;
#115 = AXIS2_PLACEMENT_3D ( 'NONE', #707, #202, #1085 ) ;
#116 = EDGE_LOOP ( 'NONE', ( #897, #949, #1196, #1070, #654 ) ) ;
#117 = EDGE_CURVE ( 'NONE', #708, #1043, #641, .T. ) ;
#118 = AXIS2_PLACEMENT_3D ( 'NONE', #631, #737, #1012 ) ;
#119 = VECTOR ( 'NONE', #1187, 1000.000000000000000 ) ;
#120 = LINE ( 'NONE', #1029, #186 ) ;
#121 = VECTOR ( 'NONE', #594, 1000.000000000000000 ) ;
#122 = FACE_OUTER_BOUND ( 'NONE', #67, .T. ) ;
#123 =( NAMED_UNIT ( * ) PLANE_ANGLE_UNIT ( ) SI_UNIT ( $, .RADIAN. ) );
#124 = ORIENTED_EDGE ( 'NONE', *, *, #253, .F. ) ;
#125 = DIRECTION ( 'NONE',  ( -0.3713906763541037215, 0.000000000000000000, 0.9284766908852594147 ) ) ;
#126 = EDGE_CURVE ( 'NONE', #967, #307, #1048, .T. ) ;
#127 = FACE_OUTER_BOUND ( 'NONE', #480, .T. ) ;
#128 = ORIENTED_EDGE ( 'NONE', *, *, #357, .T. ) ;
#129 = CARTESIAN_POINT ( 'NONE',  ( 18.90000000000001634, 9.249999999999994671, 23.00000000000000355 ) ) ;
#130 = CARTESIAN_POINT ( 'NONE',  ( 15.00000000000001421, 41.89999999999997726, 27.00000000000000711 ) ) ;
#131 = CYLINDRICAL_SURFACE ( 'NONE', #1082, 10.00000000000000000 ) ;
#132 = CARTESIAN_POINT ( 'NONE',  ( 11.00000000000002132, 3.600000000000000089, 23.00000000000000000 ) ) ;
#133 = DIRECTION ( 'NONE',  ( 0.000000000000000000, 0.000000000000000000, 1.000000000000000000 ) ) ;
#134 = FACE_BOUND ( 'NONE', #232, .T. ) ;
#135 = DIRECTION ( 'NONE',  ( 0.000000000000000000, 1.000000000000000000, 0.000000000000000000 ) ) ;
#136 = AXIS2_PLACEMENT_3D ( 'NONE', #636, #1033, #242 ) ;
#137 = ORIENTED_EDGE ( 'NONE', *, *, #979, .T. ) ;
#138 = CIRCLE ( 'NONE', #332, 10.00000000000000000 ) ;
#139 = LINE ( 'NONE', #340, #428 ) ;
#140 = VECTOR ( 'NONE', #913, 1000.000000000000000 ) ;
#141 = VERTEX_POINT ( 'NONE', #944 ) ;
#142 = AXIS2_PLACEMENT_3D ( 'NONE', #1232, #834, #861 ) ;
#143 = ADVANCED_FACE ( 'NONE', ( #846 ), #62, .F. ) ;
#144 = EDGE_LOOP ( 'NONE', ( #1046, #868, #772, #294 ) ) ;
#145 = FACE_OUTER_BOUND ( 'NONE', #615, .T. ) ;
#146 = CARTESIAN_POINT ( 'NONE',  ( 57.30000000000000426, 45.89999999999999858, 27.00000000000000355 ) ) ;
#147 = DIRECTION ( 'NONE',  ( 0.000000000000000000, 1.000000000000000000, 0.000000000000000000 ) ) ;
#148 = EDGE_CURVE ( 'NONE', #189, #282, #220, .T. ) ;
#149 = VERTEX_POINT ( 'NONE', #958 ) ;
#150 = CARTESIAN_POINT ( 'NONE',  ( 62.30000000000001137, 3.600000000000000089, 12.77032961426900926 ) ) ;
#151 = EDGE_LOOP ( 'NONE', ( #971, #833 ) ) ;
#152 = EDGE_CURVE ( 'NONE', #777, #237, #348, .T. ) ;
#153 = ORIENTED_EDGE ( 'NONE', *, *, #453, .T. ) ;
#154 = AXIS2_PLACEMENT_3D ( 'NONE', #42, #653, #1054 ) ;
#155 = VECTOR ( 'NONE', #529, 1000.000000000000000 ) ;
#156 = CIRCLE ( 'NONE', #945, 4.999999999999999112 ) ;
#157 = PLANE ( 'NONE',  #511 ) ;
#158 = LINE ( 'NONE', #250, #465 ) ;
#159 = VECTOR ( 'NONE', #981, 999.9999999999998863 ) ;
#160 = ORIENTED_EDGE ( 'NONE', *, *, #251, .T. ) ;
#161 = ORIENTED_EDGE ( 'NONE', *, *, #655, .F. ) ;
#162 = EDGE_CURVE ( 'NONE', #246, #1, #840, .T. ) ;
#163 = CARTESIAN_POINT ( 'NONE',  ( 7.500000000000007994, 0.6000000000000003109, 8.500000000000000000 ) ) ;
#164 = DIRECTION ( 'NONE',  ( -0.000000000000000000, 1.000000000000000000, -0.000000000000000000 ) ) ;
#165 = ORIENTED_EDGE ( 'NONE', *, *, #526, .F. ) ;
#166 = DIRECTION ( 'NONE',  ( 1.000000000000000000, 0.000000000000000000, 0.000000000000000000 ) ) ;
#167 = ORIENTED_EDGE ( 'NONE', *, *, #1120, .F. ) ;
#168 = DIRECTION ( 'NONE',  ( 0.000000000000000000, 0.000000000000000000, 1.000000000000000000 ) ) ;
#169 = EDGE_CURVE ( 'NONE', #810, #149, #770, .T. ) ;
#170 = DIRECTION ( 'NONE',  ( -0.000000000000000000, 1.000000000000000000, -0.000000000000000000 ) ) ;
#171 = DIRECTION ( 'NONE',  ( 0.000000000000000000, 0.000000000000000000, 1.000000000000000000 ) ) ;
#172 = ORIENTED_EDGE ( 'NONE', *, *, #773, .T. ) ;
#173 = CARTESIAN_POINT ( 'NONE',  ( 64.80000000000001137, 0.000000000000000000, 15.75000000000000000 ) ) ;
#174 = APPLICATION_PROTOCOL_DEFINITION ( 'draft international standard', 'automotive_design', 1998, #723 ) ;
#175 = VERTEX_POINT ( 'NONE', #274 ) ;
#176 = LINE ( 'NONE', #1276, #315 ) ;
#177 = VECTOR ( 'NONE', #1249, 1000.000000000000114 ) ;
#178 = CARTESIAN_POINT ( 'NONE',  ( 57.30000000000000426, 7.600000000000030731, 27.00000000000000355 ) ) ;
#179 = CIRCLE ( 'NONE', #115, 1.749999999999998002 ) ;
#180 = DIRECTION ( 'NONE',  ( 8.673617379884020681E-16, 0.000000000000000000, 1.000000000000000000 ) ) ;
#181 = EDGE_LOOP ( 'NONE', ( #546, #4, #401, #295 ) ) ;
#182 = VECTOR ( 'NONE', #82, 1000.000000000000000 ) ;
#183 = ADVANCED_FACE ( 'NONE', ( #1268, #368 ), #1171, .F. ) ;
#184 = CARTESIAN_POINT ( 'NONE',  ( 20.65000000000001634, 9.249999999999994671, 27.00000000000000000 ) ) ;
#185 = DIRECTION ( 'NONE',  ( -0.000000000000000000, 1.000000000000000000, -0.000000000000000000 ) ) ;
#186 = VECTOR ( 'NONE', #628, 1000.000000000000000 ) ;
#187 = DIRECTION ( 'NONE',  ( -0.000000000000000000, 1.000000000000000000, -0.000000000000000000 ) ) ;
#188 = DIRECTION ( 'NONE',  ( -0.000000000000000000, 1.000000000000000000, -0.000000000000000000 ) ) ;
#189 = VERTEX_POINT ( 'NONE', #781 ) ;
#190 = DIRECTION ( 'NONE',  ( 0.000000000000000000, 0.000000000000000000, 1.000000000000000000 ) ) ;
#191 = ORIENTED_EDGE ( 'NONE', *, *, #799, .F. ) ;
#192 = EDGE_CURVE ( 'NONE', #333, #515, #875, .T. ) ;
#193 = CARTESIAN_POINT ( 'NONE',  ( 18.90000000000001634, 9.249999999999994671, -15.29999999999999716 ) ) ;
#194 = DIRECTION ( 'NONE',  ( 0.000000000000000000, 1.000000000000000000, 0.000000000000000000 ) ) ;
#195 = LINE ( 'NONE', #104, #860 ) ;
#196 = ORIENTED_EDGE ( 'NONE', *, *, #162, .F. ) ;
#197 = DIRECTION ( 'NONE',  ( 0.000000000000000000, 0.000000000000000000, 1.000000000000000000 ) ) ;
#198 = ORIENTED_EDGE ( 'NONE', *, *, #921, .F. ) ;
#199 = FACE_BOUND ( 'NONE', #802, .T. ) ;
#200 = ADVANCED_FACE ( 'NONE', ( #476, #579, #974 ), #1185, .F. ) ;
#201 = CARTESIAN_POINT ( 'NONE',  ( 7.500000000000007105, 0.000000000000000000, 13.50000000000000000 ) ) ;
#202 = DIRECTION ( 'NONE',  ( -8.202002250481360014E-17, 0.000000000000000000, 1.000000000000000000 ) ) ;
#203 = ORIENTED_EDGE ( 'NONE', *, *, #859, .T. ) ;
#204 = DIRECTION ( 'NONE',  ( 1.000000000000000000, 0.000000000000000000, 0.000000000000000000 ) ) ;
#205 = AXIS2_PLACEMENT_3D ( 'NONE', #500, #605, #228 ) ;
#206 = EDGE_LOOP ( 'NONE', ( #722, #499 ) ) ;
#207 = CIRCLE ( 'NONE', #496, 1.750000000000001554 ) ;
#208 = CARTESIAN_POINT ( 'NONE',  ( 62.30000000000001137, 0.000000000000000000, 12.77032961426900926 ) ) ;
#209 = AXIS2_PLACEMENT_3D ( 'NONE', #1069, #29, #66 ) ;
#210 = ADVANCED_FACE ( 'NONE', ( #1287, #436, #818 ), #936, .T. ) ;
#211 = ORIENTED_EDGE ( 'NONE', *, *, #364, .T. ) ;
#212 = CARTESIAN_POINT ( 'NONE',  ( 22.40000000000001279, 9.249999999999994671, -15.29999999999999716 ) ) ;
#213 = ORIENTED_EDGE ( 'NONE', *, *, #425, .T. ) ;
#214 = DIRECTION ( 'NONE',  ( 1.000000000000000000, 0.000000000000000000, 0.000000000000000000 ) ) ;
#215 = ADVANCED_FACE ( 'NONE', ( #744 ), #1040, .F. ) ;
#216 = ORIENTED_EDGE ( 'NONE', *, *, #461, .F. ) ;
#217 = DIRECTION ( 'NONE',  ( 0.000000000000000000, 0.000000000000000000, 1.000000000000000000 ) ) ;
#218 = ORIENTED_EDGE ( 'NONE', *, *, #564, .T. ) ;
#219 = DIRECTION ( 'NONE',  ( -8.202002250481360014E-17, 0.000000000000000000, 1.000000000000000000 ) ) ;
#220 = CIRCLE ( 'NONE', #758, 4.999999999999999112 ) ;
#221 = ORIENTED_EDGE ( 'NONE', *, *, #338, .F. ) ;
#222 = LINE ( 'NONE', #630, #494 ) ;
#223 = AXIS2_PLACEMENT_3D ( 'NONE', #34, #1137, #376 ) ;
#224 = VECTOR ( 'NONE', #363, 1000.000000000000000 ) ;
#225 = EDGE_CURVE ( 'NONE', #60, #1234, #1241, .T. ) ;
#226 = VECTOR ( 'NONE', #414, 1000.000000000000114 ) ;
#227 = DIRECTION ( 'NONE',  ( -1.000000000000000000, -0.000000000000000000, -8.202002250481360014E-17 ) ) ;
#228 = DIRECTION ( 'NONE',  ( -1.000000000000000000, 0.000000000000000000, -0.000000000000000000 ) ) ;
#229 = VECTOR ( 'NONE', #963, 1000.000000000000000 ) ;
#230 = DIRECTION ( 'NONE',  ( 1.000000000000000000, 0.000000000000000000, 0.000000000000000000 ) ) ;
#231 = AXIS2_PLACEMENT_3D ( 'NONE', #518, #408, #1008 ) ;
#232 = EDGE_LOOP ( 'NONE', ( #1181, #876 ) ) ;
#233 = LINE ( 'NONE', #1110, #644 ) ;
#234 = ADVANCED_FACE ( 'NONE', ( #731 ), #918, .T. ) ;
#235 = VERTEX_POINT ( 'NONE', #828 ) ;
#236 = CARTESIAN_POINT ( 'NONE',  ( 6.286093236458961009, 3.600000000000000089, 23.51443729458358334 ) ) ;
#237 = VERTEX_POINT ( 'NONE', #1222 ) ;
#238 = CYLINDRICAL_SURFACE ( 'NONE', #136, 10.00000000000000000 ) ;
#239 = ORIENTED_EDGE ( 'NONE', *, *, #773, .F. ) ;
#240 = EDGE_CURVE ( 'NONE', #819, #141, #1128, .T. ) ;
#241 = EDGE_LOOP ( 'NONE', ( #487, #677, #573, #717 ) ) ;
#242 = DIRECTION ( 'NONE',  ( 0.000000000000000000, 0.000000000000000000, 1.000000000000000000 ) ) ;
#243 = AXIS2_PLACEMENT_3D ( 'NONE', #300, #1208, #1009 ) ;
#244 = CIRCLE ( 'NONE', #577, 2.250000000000000444 ) ;
#245 = EDGE_CURVE ( 'NONE', #946, #755, #1267, .T. ) ;
#246 = VERTEX_POINT ( 'NONE', #431 ) ;
#247 = LINE ( 'NONE', #26, #710 ) ;
#248 = LINE ( 'NONE', #1138, #788 ) ;
#249 = ORIENTED_EDGE ( 'NONE', *, *, #979, .F. ) ;
#250 = CARTESIAN_POINT ( 'NONE',  ( 72.29999999999999716, 3.600000000000000089, 0.000000000000000000 ) ) ;
#251 = EDGE_CURVE ( 'NONE', #1109, #503, #1027, .T. ) ;
#252 = ORIENTED_EDGE ( 'NONE', *, *, #1262, .F. ) ;
#253 = EDGE_CURVE ( 'NONE', #565, #175, #247, .T. ) ;
#254 = ORIENTED_EDGE ( 'NONE', *, *, #240, .T. ) ;
#255 = PLANE ( 'NONE',  #1270 ) ;
#256 = DIRECTION ( 'NONE',  ( -0.000000000000000000, -1.000000000000000000, -0.000000000000000000 ) ) ;
#257 = DIRECTION ( 'NONE',  ( 0.000000000000000000, 1.000000000000000000, 0.000000000000000000 ) ) ;
#258 = ORIENTED_EDGE ( 'NONE', *, *, #851, .T. ) ;
#259 = DIRECTION ( 'NONE',  ( -5.551115123125782702E-15, 0.000000000000000000, 1.000000000000000000 ) ) ;
#260 = EDGE_LOOP ( 'NONE', ( #252, #662, #527, #1062 ) ) ;
#261 = ADVANCED_FACE ( 'NONE', ( #1132 ), #238, .T. ) ;
#262 = VECTOR ( 'NONE', #857, 1000.000000000000000 ) ;
#263 = DIRECTION ( 'NONE',  ( 0.000000000000000000, 0.000000000000000000, 1.000000000000000000 ) ) ;
#264 = DIRECTION ( 'NONE',  ( -0.000000000000000000, 1.000000000000000000, -0.000000000000000000 ) ) ;
#265 = AXIS2_PLACEMENT_3D ( 'NONE', #1291, #387, #510 ) ;
#266 = AXIS2_PLACEMENT_3D ( 'NONE', #1238, #561, #166 ) ;
#267 = EDGE_LOOP ( 'NONE', ( #165, #58, #477, #959 ) ) ;
#268 = CARTESIAN_POINT ( 'NONE',  ( 7.500000000000007105, 0.6000000000000003109, 13.50000000000000000 ) ) ;
#269 = ORIENTED_EDGE ( 'NONE', *, *, #407, .T. ) ;
#270 = CARTESIAN_POINT ( 'NONE',  ( 53.29999999999998295, 45.89999999999999858, 27.00000000000000355 ) ) ;
#271 = EDGE_CURVE ( 'NONE', #1043, #708, #889, .T. ) ;
#272 = LINE ( 'NONE', #490, #229 ) ;
#273 = DIRECTION ( 'NONE',  ( 0.7071067811865462405, 0.7071067811865489050, 5.799691410622685009E-17 ) ) ;
#274 = CARTESIAN_POINT ( 'NONE',  ( 15.00000000000001421, 0.000000000000000000, 0.000000000000000000 ) ) ;
#275 = ORIENTED_EDGE ( 'NONE', *, *, #633, .T. ) ;
#276 = EDGE_LOOP ( 'NONE', ( #1173, #983 ) ) ;
#277 = DIRECTION ( 'NONE',  ( 0.7071067811865437980, -0.7071067811865513475, 5.799691410622664055E-17 ) ) ;
#278 = LINE ( 'NONE', #84, #624 ) ;
#279 = CARTESIAN_POINT ( 'NONE',  ( 7.500000000000007105, 3.600000000000000089, 13.50000000000000000 ) ) ;
#280 = DIRECTION ( 'NONE',  ( 1.000000000000000000, 0.000000000000000000, 0.000000000000000000 ) ) ;
#281 = EDGE_CURVE ( 'NONE', #729, #1115, #195, .T. ) ;
#282 = VERTEX_POINT ( 'NONE', #163 ) ;
#283 = CARTESIAN_POINT ( 'NONE',  ( 6.286093236458964562, 3.600000000000000089, 3.485562705416416662 ) ) ;
#284 = FACE_OUTER_BOUND ( 'NONE', #116, .T. ) ;
#285 = ORIENTED_EDGE ( 'NONE', *, *, #407, .F. ) ;
#286 = AXIS2_PLACEMENT_3D ( 'NONE', #454, #164, #940 ) ;
#287 = DIRECTION ( 'NONE',  ( 0.000000000000000000, 0.000000000000000000, 1.000000000000000000 ) ) ;
#288 = CIRCLE ( 'NONE', #969, 10.00000000000000000 ) ;
#289 = LINE ( 'NONE', #367, #49 ) ;
#290 = AXIS2_PLACEMENT_3D ( 'NONE', #327, #125, #934 ) ;
#291 = DIRECTION ( 'NONE',  ( 0.000000000000000000, -0.000000000000000000, 1.000000000000000000 ) ) ;
#292 = VECTOR ( 'NONE', #601, 1000.000000000000000 ) ;
#293 = EDGE_CURVE ( 'NONE', #992, #1299, #466, .T. ) ;
#294 = ORIENTED_EDGE ( 'NONE', *, *, #281, .F. ) ;
#295 = ORIENTED_EDGE ( 'NONE', *, *, #516, .T. ) ;
#296 = FACE_OUTER_BOUND ( 'NONE', #398, .T. ) ;
#297 = CIRCLE ( 'NONE', #393, 2.250000000000000444 ) ;
#298 = DIRECTION ( 'NONE',  ( 0.000000000000000000, 0.000000000000000000, 1.000000000000000000 ) ) ;
#299 = FACE_OUTER_BOUND ( 'NONE', #463, .T. ) ;
#300 = CARTESIAN_POINT ( 'NONE',  ( 64.80000000000001137, 3.600000000000000089, 13.50000000000000000 ) ) ;
#301 = ORIENTED_EDGE ( 'NONE', *, *, #1183, .T. ) ;
#302 = LINE ( 'NONE', #701, #1247 ) ;
#303 = ORIENTED_EDGE ( 'NONE', *, *, #571, .F. ) ;
#304 = LINE ( 'NONE', #178, #558 ) ;
#305 = DIRECTION ( 'NONE',  ( 0.000000000000000000, 0.000000000000000000, 1.000000000000000000 ) ) ;
#306 = VERTEX_POINT ( 'NONE', #1254 ) ;
#307 = VERTEX_POINT ( 'NONE', #741 ) ;
#308 = ADVANCED_FACE ( 'NONE', ( #652 ), #157, .F. ) ;
#309 = CARTESIAN_POINT ( 'NONE',  ( 6.286093236458962785, -38.69999999999999574, 23.51443729458358689 ) ) ;
#310 = LINE ( 'NONE', #1292, #292 ) ;
#311 = VECTOR ( 'NONE', #1248, 1000.000000000000000 ) ;
#312 = ORIENTED_EDGE ( 'NONE', *, *, #389, .T. ) ;
#313 =( NAMED_UNIT ( * ) SI_UNIT ( $, .STERADIAN. ) SOLID_ANGLE_UNIT ( ) );
#314 = CIRCLE ( 'NONE', #243, 5.000000000000002665 ) ;
#315 = VECTOR ( 'NONE', #277, 1000.000000000000000 ) ;
#316 = ORIENTED_EDGE ( 'NONE', *, *, #1067, .T. ) ;
#317 = EDGE_CURVE ( 'NONE', #852, #1139, #569, .T. ) ;
#318 = LINE ( 'NONE', #1112, #1126 ) ;
#319 = PLANE ( 'NONE',  #1225 ) ;
#320 = ORIENTED_EDGE ( 'NONE', *, *, #483, .F. ) ;
#321 = DIRECTION ( 'NONE',  ( 1.000000000000000000, 0.000000000000000000, 0.000000000000000000 ) ) ;
#322 = DIRECTION ( 'NONE',  ( -0.000000000000000000, -1.000000000000000000, -0.000000000000000000 ) ) ;
#323 = ORIENTED_EDGE ( 'NONE', *, *, #482, .T. ) ;
#324 = DIRECTION ( 'NONE',  ( -0.000000000000000000, -1.000000000000000000, -0.000000000000000000 ) ) ;
#325 = EDGE_CURVE ( 'NONE', #810, #141, #951, .T. ) ;
#326 = EDGE_LOOP ( 'NONE', ( #560, #554 ) ) ;
#327 = CARTESIAN_POINT ( 'NONE',  ( 72.29999999999999716, -38.69999999999999574, 6.000000000000000000 ) ) ;
#328 = DIRECTION ( 'NONE',  ( 0.000000000000000000, 0.000000000000000000, 1.000000000000000000 ) ) ;
#329 = ORIENTED_EDGE ( 'NONE', *, *, #1030, .F. ) ;
#330 = EDGE_CURVE ( 'NONE', #967, #852, #957, .T. ) ;
#331 = AXIS2_PLACEMENT_3D ( 'NONE', #689, #374, #78 ) ;
#332 = AXIS2_PLACEMENT_3D ( 'NONE', #419, #1304, #901 ) ;
#333 = VERTEX_POINT ( 'NONE', #1266 ) ;
#334 = CIRCLE ( 'NONE', #811, 5.000000000000002665 ) ;
#335 = LINE ( 'NONE', #1024, #728 ) ;
#336 = DIRECTION ( 'NONE',  ( -0.000000000000000000, 1.000000000000000000, -0.000000000000000000 ) ) ;
#337 = PLANE ( 'NONE',  #1298 ) ;
#338 = EDGE_CURVE ( 'NONE', #1109, #515, #1057, .T. ) ;
#339 = PLANE ( 'NONE',  #290 ) ;
#340 = CARTESIAN_POINT ( 'NONE',  ( 49.90000000000001279, 9.249999999999994671, -15.29999999999999716 ) ) ;
#341 = ORIENTED_EDGE ( 'NONE', *, *, #1221, .F. ) ;
#342 = DIRECTION ( 'NONE',  ( -0.9284766908852593037, 0.000000000000000000, -0.3713906763541039435 ) ) ;
#343 = ORIENTED_EDGE ( 'NONE', *, *, #871, .T. ) ;
#344 = ADVANCED_FACE ( 'NONE', ( #145 ), #61, .F. ) ;
#345 = CARTESIAN_POINT ( 'NONE',  ( 72.30000000000001137, -38.69999999999999574, 20.99999999999999645 ) ) ;
#346 = CARTESIAN_POINT ( 'NONE',  ( 20.65000000000001634, 40.24999999999999289, 27.00000000000000000 ) ) ;
#347 = ORIENTED_EDGE ( 'NONE', *, *, #694, .T. ) ;
#348 = CIRCLE ( 'NONE', #95, 1.750000000000001554 ) ;
#349 = AXIS2_PLACEMENT_3D ( 'NONE', #346, #287, #872 ) ;
#350 = EDGE_CURVE ( 'NONE', #1010, #515, #835, .T. ) ;
#351 = CARTESIAN_POINT ( 'NONE',  ( 57.29999999999999716, 45.89999999999999858, 23.00000000000000355 ) ) ;
#352 = CARTESIAN_POINT ( 'NONE',  ( 64.80000000000001137, 3.600000000000000089, 13.50000000000000000 ) ) ;
#353 =( GEOMETRIC_REPRESENTATION_CONTEXT ( 3 ) GLOBAL_UNCERTAINTY_ASSIGNED_CONTEXT ( ( #1097 ) ) GLOBAL_UNIT_ASSIGNED_CONTEXT ( ( #1273, #1158, #961 ) ) REPRESENTATION_CONTEXT ( 'NONE', 'WORKASPACE' ) );
#354 = ORIENTED_EDGE ( 'NONE', *, *, #655, .T. ) ;
#355 = DIRECTION ( 'NONE',  ( -1.734723475976807094E-15, 0.000000000000000000, -1.000000000000000000 ) ) ;
#356 = CARTESIAN_POINT ( 'NONE',  ( 11.00000000000001954, 3.600000000000000089, 25.40000000000000924 ) ) ;
#357 = EDGE_CURVE ( 'NONE', #1303, #110, #1162, .T. ) ;
#358 = ORIENTED_EDGE ( 'NONE', *, *, #1014, .F. ) ;
#359 = VERTEX_POINT ( 'NONE', #856 ) ;
#360 = DIRECTION ( 'NONE',  ( -8.202002250481360014E-17, 0.000000000000000000, 1.000000000000000000 ) ) ;
#361 = CYLINDRICAL_SURFACE ( 'NONE', #1293, 2.250000000000000444 ) ;
#362 = EDGE_LOOP ( 'NONE', ( #495, #597 ) ) ;
#363 = DIRECTION ( 'NONE',  ( -0.000000000000000000, 1.000000000000000000, -0.000000000000000000 ) ) ;
#364 = EDGE_CURVE ( 'NONE', #503, #729, #547, .T. ) ;
#365 = EDGE_LOOP ( 'NONE', ( #610, #1306, #221, #160 ) ) ;
#366 = AXIS2_PLACEMENT_3D ( 'NONE', #1157, #761, #259 ) ;
#367 = CARTESIAN_POINT ( 'NONE',  ( 0.000000000000000000, 0.000000000000000000, 0.000000000000000000 ) ) ;
#368 = FACE_OUTER_BOUND ( 'NONE', #206, .T. ) ;
#369 = AXIS2_PLACEMENT_3D ( 'NONE', #201, #1278, #298 ) ;
#370 = VERTEX_POINT ( 'NONE', #41 ) ;
#371 = DIRECTION ( 'NONE',  ( 0.000000000000000000, 0.000000000000000000, 1.000000000000000000 ) ) ;
#372 = ORIENTED_EDGE ( 'NONE', *, *, #1246, .T. ) ;
#373 = LINE ( 'NONE', #193, #121 ) ;
#374 = DIRECTION ( 'NONE',  ( -0.000000000000000000, 1.000000000000000000, -0.000000000000000000 ) ) ;
#375 = FACE_OUTER_BOUND ( 'NONE', #1125, .T. ) ;
#376 = DIRECTION ( 'NONE',  ( 0.000000000000000000, 0.000000000000000000, 1.000000000000000000 ) ) ;
#377 = ORIENTED_EDGE ( 'NONE', *, *, #1236, .F. ) ;
#378 = ORIENTED_EDGE ( 'NONE', *, *, #379, .T. ) ;
#379 = EDGE_CURVE ( 'NONE', #306, #1114, #806, .T. ) ;
#380 = DIRECTION ( 'NONE',  ( -8.202002250481360014E-17, 0.000000000000000000, 1.000000000000000000 ) ) ;
#381 = CYLINDRICAL_SURFACE ( 'NONE', #808, 4.999999999999999112 ) ;
#382 = DIRECTION ( 'NONE',  ( 0.000000000000000000, 1.000000000000000000, 0.000000000000000000 ) ) ;
#383 = DIRECTION ( 'NONE',  ( 8.673617379884020681E-16, 0.000000000000000000, 1.000000000000000000 ) ) ;
#384 = EDGE_LOOP ( 'NONE', ( #167, #108, #456, #30 ) ) ;
#385 = DIRECTION ( 'NONE',  ( 0.000000000000000000, 1.000000000000000000, 0.000000000000000000 ) ) ;
#386 = ORIENTED_EDGE ( 'NONE', *, *, #721, .T. ) ;
#387 = DIRECTION ( 'NONE',  ( -8.202002250481360014E-17, 0.000000000000000000, 1.000000000000000000 ) ) ;
#388 =( GEOMETRIC_REPRESENTATION_CONTEXT ( 3 ) GLOBAL_UNCERTAINTY_ASSIGNED_CONTEXT ( ( #1199 ) ) GLOBAL_UNIT_ASSIGNED_CONTEXT ( ( #106, #123, #313 ) ) REPRESENTATION_CONTEXT ( 'NONE', 'WORKASPACE' ) );
#389 = EDGE_CURVE ( 'NONE', #1299, #556, #440, .T. ) ;
#390 = ORIENTED_EDGE ( 'NONE', *, *, #930, .F. ) ;
#391 = AXIS2_PLACEMENT_3D ( 'NONE', #1098, #787, #864 ) ;
#392 = DIRECTION ( 'NONE',  ( -0.000000000000000000, -1.000000000000000000, -0.000000000000000000 ) ) ;
#393 = AXIS2_PLACEMENT_3D ( 'NONE', #20, #807, #815 ) ;
#394 = ORIENTED_EDGE ( 'NONE', *, *, #584, .T. ) ;
#395 = CARTESIAN_POINT ( 'NONE',  ( 7.500000000000007994, 3.600000000000000089, 8.500000000000000000 ) ) ;
#396 = PLANE ( 'NONE',  #664 ) ;
#397 = CARTESIAN_POINT ( 'NONE',  ( 7.500000000000007105, 3.600000000000000089, 13.50000000000000000 ) ) ;
#398 = EDGE_LOOP ( 'NONE', ( #1237, #6, #406, #508 ) ) ;
#399 = ADVANCED_FACE ( 'NONE', ( #299 ), #1099, .F. ) ;
#400 = LINE ( 'NONE', #88, #625 ) ;
#401 = ORIENTED_EDGE ( 'NONE', *, *, #1134, .T. ) ;
#402 = FACE_OUTER_BOUND ( 'NONE', #978, .T. ) ;
#403 = CYLINDRICAL_SURFACE ( 'NONE', #580, 2.250000000000000444 ) ;
#404 = LINE ( 'NONE', #893, #9 ) ;
#405 = EDGE_LOOP ( 'NONE', ( #887, #347 ) ) ;
#406 = ORIENTED_EDGE ( 'NONE', *, *, #746, .T. ) ;
#407 = EDGE_CURVE ( 'NONE', #836, #1050, #1103, .T. ) ;
#408 = DIRECTION ( 'NONE',  ( 0.000000000000000000, -1.000000000000000000, 0.000000000000000000 ) ) ;
#409 = EDGE_LOOP ( 'NONE', ( #124, #16, #1167, #1003 ) ) ;
#410 = CYLINDRICAL_SURFACE ( 'NONE', #514, 1.750000000000001554 ) ;
#411 = ORIENTED_EDGE ( 'NONE', *, *, #472, .F. ) ;
#412 = CARTESIAN_POINT ( 'NONE',  ( 20.65000000000001634, 9.249999999999994671, -15.29999999999999716 ) ) ;
#413 = ORIENTED_EDGE ( 'NONE', *, *, #950, .T. ) ;
#414 = DIRECTION ( 'NONE',  ( 0.9284766908852593037, -0.000000000000000000, 0.3713906763541036660 ) ) ;
#415 = ORIENTED_EDGE ( 'NONE', *, *, #493, .F. ) ;
#416 = CARTESIAN_POINT ( 'NONE',  ( 72.30000000000001137, 0.000000000000000000, 14.22967038573098897 ) ) ;
#417 = EDGE_CURVE ( 'NONE', #565, #506, #1301, .T. ) ;
#418 = DIRECTION ( 'NONE',  ( 0.7071067811865489050, -0.7071067811865462405, -6.133173666733497538E-16 ) ) ;
#419 = CARTESIAN_POINT ( 'NONE',  ( 10.00000000000000178, 0.000000000000000000, 12.77032961426900926 ) ) ;
#420 = LINE ( 'NONE', #623, #1017 ) ;
#421 = CARTESIAN_POINT ( 'NONE',  ( 1.709470133109644451E-15, 3.600000000000000089, 14.22967038573099252 ) ) ;
#422 = ORIENTED_EDGE ( 'NONE', *, *, #937, .T. ) ;
#423 = ORIENTED_EDGE ( 'NONE', *, *, #293, .F. ) ;
#424 = SURFACE_STYLE_FILL_AREA ( #718 ) ;
#425 = EDGE_CURVE ( 'NONE', #612, #919, #288, .T. ) ;
#426 = AXIS2_PLACEMENT_3D ( 'NONE', #525, #839, #21 ) ;
#427 = ORIENTED_EDGE ( 'NONE', *, *, #253, .T. ) ;
#428 = VECTOR ( 'NONE', #830, 1000.000000000000000 ) ;
#429 = DIRECTION ( 'NONE',  ( -1.000000000000000000, 0.000000000000000000, 1.734723475976807094E-15 ) ) ;
#430 = ORIENTED_EDGE ( 'NONE', *, *, #509, .T. ) ;
#431 = CARTESIAN_POINT ( 'NONE',  ( 7.500000000000007105, 0.6000000000000007550, 11.25000000000000000 ) ) ;
#432 = ADVANCED_FACE ( 'NONE', ( #85 ), #866, .F. ) ;
#433 = ORIENTED_EDGE ( 'NONE', *, *, #92, .T. ) ;
#434 = DIRECTION ( 'NONE',  ( -0.000000000000000000, 1.000000000000000000, -0.000000000000000000 ) ) ;
#435 = VERTEX_POINT ( 'NONE', #801 ) ;
#436 = FACE_BOUND ( 'NONE', #870, .T. ) ;
#437 = PLANE ( 'NONE',  #73 ) ;
#438 = EDGE_CURVE ( 'NONE', #708, #736, #404, .T. ) ;
#439 = VERTEX_POINT ( 'NONE', #475 ) ;
#440 = LINE ( 'NONE', #1148, #660 ) ;
#441 = CARTESIAN_POINT ( 'NONE',  ( 57.29999999999999716, 7.600000000000030731, 23.00000000000000355 ) ) ;
#442 = AXIS2_PLACEMENT_3D ( 'NONE', #150, #257, #459 ) ;
#443 = PRODUCT ( 'ARP-0090', 'ARP-0090', '', ( #59 ) ) ;
#444 = VECTOR ( 'NONE', #1309, 1000.000000000000114 ) ;
#445 = CIRCLE ( 'NONE', #766, 1.750000000000001554 ) ;
#446 = AXIS2_PLACEMENT_3D ( 'NONE', #18, #905, #727 ) ;
#447 = ADVANCED_FACE ( 'NONE', ( #94 ), #1279, .F. ) ;
#448 = AXIS2_PLACEMENT_3D ( 'NONE', #1297, #392, #792 ) ;
#449 = DIRECTION ( 'NONE',  ( 1.000000000000000000, 0.000000000000000000, 0.000000000000000000 ) ) ;
#450 = CYLINDRICAL_SURFACE ( 'NONE', #1223, 1.749999999999998002 ) ;
#451 = ORIENTED_EDGE ( 'NONE', *, *, #694, .F. ) ;
#452 = ORIENTED_EDGE ( 'NONE', *, *, #245, .F. ) ;
#453 = EDGE_CURVE ( 'NONE', #755, #946, #179, .T. ) ;
#454 = CARTESIAN_POINT ( 'NONE',  ( 7.500000000000007105, 0.6000000000000007550, 13.50000000000000000 ) ) ;
#455 = CARTESIAN_POINT ( 'NONE',  ( -6.435185185185200218, -13.83518518518539864, 18.42592592592591672 ) ) ;
#456 = ORIENTED_EDGE ( 'NONE', *, *, #614, .T. ) ;
#457 = ORIENTED_EDGE ( 'NONE', *, *, #564, .F. ) ;
#458 = DIRECTION ( 'NONE',  ( 1.000000000000000000, 0.000000000000000000, -0.000000000000000000 ) ) ;
#459 = DIRECTION ( 'NONE',  ( 0.000000000000000000, 0.000000000000000000, 1.000000000000000000 ) ) ;
#460 = ORIENTED_EDGE ( 'NONE', *, *, #1096, .T. ) ;
#461 = EDGE_CURVE ( 'NONE', #749, #52, #841, .T. ) ;
#462 = DIRECTION ( 'NONE',  ( 0.000000000000000000, 0.000000000000000000, 1.000000000000000000 ) ) ;
#463 = EDGE_LOOP ( 'NONE', ( #451, #858, #269, #902 ) ) ;
#464 = CARTESIAN_POINT ( 'NONE',  ( 1.709470133109644451E-15, 0.000000000000000000, 14.22967038573099252 ) ) ;
#465 = VECTOR ( 'NONE', #1177, 1000.000000000000000 ) ;
#466 = CIRCLE ( 'NONE', #1205, 1.750000000000001554 ) ;
#467 = CIRCLE ( 'NONE', #1078, 4.999999999999999112 ) ;
#468 = CARTESIAN_POINT ( 'NONE',  ( 7.500000000000007105, 3.600000000000000089, 13.50000000000000000 ) ) ;
#469 = CARTESIAN_POINT ( 'NONE',  ( 67.05000000000001137, 0.6000000000000005329, 13.50000000000000000 ) ) ;
#470 = VERTEX_POINT ( 'NONE', #775 ) ;
#471 = ORIENTED_EDGE ( 'NONE', *, *, #851, .F. ) ;
#472 = EDGE_CURVE ( 'NONE', #506, #533, #1286, .T. ) ;
#473 = CARTESIAN_POINT ( 'NONE',  ( 7.500000000000007105, 0.000000000000000000, 15.75000000000000000 ) ) ;
#474 = CARTESIAN_POINT ( 'NONE',  ( 19.00000000000001776, 45.89999999999999858, 27.00000000000000711 ) ) ;
#475 = CARTESIAN_POINT ( 'NONE',  ( 72.29999999999999716, 3.600000000000000089, 12.77032961426900393 ) ) ;
#476 = FACE_BOUND ( 'NONE', #276, .T. ) ;
#477 = ORIENTED_EDGE ( 'NONE', *, *, #838, .F. ) ;
#478 = CARTESIAN_POINT ( 'NONE',  ( 7.500000000000007105, 3.600000000000000089, 13.50000000000000000 ) ) ;
#479 = CARTESIAN_POINT ( 'NONE',  ( 53.29999999999997584, 45.90000000000001990, 23.00000000000000355 ) ) ;
#480 = EDGE_LOOP ( 'NONE', ( #646, #96, #8, #191 ) ) ;
#481 = FACE_OUTER_BOUND ( 'NONE', #100, .T. ) ;
#482 = EDGE_CURVE ( 'NONE', #370, #246, #310, .T. ) ;
#483 = EDGE_CURVE ( 'NONE', #1043, #793, #1176, .T. ) ;
#484 = CARTESIAN_POINT ( 'NONE',  ( 7.500000000000007105, 3.600000000000000089, 18.50000000000000000 ) ) ;
#485 = ORIENTED_EDGE ( 'NONE', *, *, #483, .T. ) ;
#486 = CARTESIAN_POINT ( 'NONE',  ( 22.40000000000001279, 9.249999999999994671, 23.00000000000000355 ) ) ;
#487 = ORIENTED_EDGE ( 'NONE', *, *, #1129, .T. ) ;
#488 = CARTESIAN_POINT ( 'NONE',  ( 51.65000000000001279, 9.249999999999994671, -15.29999999999999716 ) ) ;
#489 = VECTOR ( 'NONE', #751, 999.9999999999998863 ) ;
#490 = CARTESIAN_POINT ( 'NONE',  ( -7.241379310344830067, 0.000000000000000000, 18.10344827586206407 ) ) ;
#491 = DIRECTION ( 'NONE',  ( -0.000000000000000000, 1.000000000000000000, -0.000000000000000000 ) ) ;
#492 = AXIS2_PLACEMENT_3D ( 'NONE', #17, #896, #24 ) ;
#493 = EDGE_CURVE ( 'NONE', #1139, #729, #578, .T. ) ;
#494 = VECTOR ( 'NONE', #507, 1000.000000000000000 ) ;
#495 = ORIENTED_EDGE ( 'NONE', *, *, #1005, .T. ) ;
#496 = AXIS2_PLACEMENT_3D ( 'NONE', #1175, #380, #568 ) ;
#497 = CYLINDRICAL_SURFACE ( 'NONE', #690, 2.250000000000000444 ) ;
#498 = VECTOR ( 'NONE', #324, 1000.000000000000000 ) ;
#499 = ORIENTED_EDGE ( 'NONE', *, *, #461, .T. ) ;
#500 = CARTESIAN_POINT ( 'NONE',  ( 3.243623523440408378E-15, 3.600000000000000089, 27.00000000000000000 ) ) ;
#501 = LINE ( 'NONE', #1169, #101 ) ;
#502 = ADVANCED_FACE ( 'NONE', ( #1023 ), #381, .F. ) ;
#503 = VERTEX_POINT ( 'NONE', #968 ) ;
#504 = EDGE_LOOP ( 'NONE', ( #1059, #485, #1118, #791 ) ) ;
#505 = DIRECTION ( 'NONE',  ( -0.000000000000000000, 1.000000000000000000, -0.000000000000000000 ) ) ;
#506 = VERTEX_POINT ( 'NONE', #283 ) ;
#507 = DIRECTION ( 'NONE',  ( -0.000000000000000000, -1.000000000000000000, -0.000000000000000000 ) ) ;
#508 = ORIENTED_EDGE ( 'NONE', *, *, #532, .F. ) ;
#509 = EDGE_CURVE ( 'NONE', #566, #307, #65, .T. ) ;
#510 = DIRECTION ( 'NONE',  ( 1.000000000000000000, 0.000000000000000000, 0.000000000000000000 ) ) ;
#511 = AXIS2_PLACEMENT_3D ( 'NONE', #964, #263, #458 ) ;
#512 = FACE_OUTER_BOUND ( 'NONE', #144, .T. ) ;
#513 = CARTESIAN_POINT ( 'NONE',  ( 15.00000000000001421, -38.69999999999999574, 0.000000000000000000 ) ) ;
#514 = AXIS2_PLACEMENT_3D ( 'NONE', #113, #2, #321 ) ;
#515 = VERTEX_POINT ( 'NONE', #1296 ) ;
#516 = EDGE_CURVE ( 'NONE', #1050, #836, #156, .T. ) ;
#517 = CIRCLE ( 'NONE', #691, 1.749999999999998002 ) ;
#518 = CARTESIAN_POINT ( 'NONE',  ( 9.750000000000007105, 0.6000000000000005329, 13.50000000000000000 ) ) ;
#519 = CYLINDRICAL_SURFACE ( 'NONE', #686, 5.000000000000002665 ) ;
#520 = CARTESIAN_POINT ( 'NONE',  ( 53.40000000000001990, 40.24999999999999289, 27.00000000000000000 ) ) ;
#521 = CARTESIAN_POINT ( 'NONE',  ( 64.80000000000001137, 0.6000000000000007550, 15.75000000000000000 ) ) ;
#522 = DIRECTION ( 'NONE',  ( 0.000000000000000000, 0.000000000000000000, 1.000000000000000000 ) ) ;
#523 = VERTEX_POINT ( 'NONE', #1179 ) ;
#524 = DIRECTION ( 'NONE',  ( -8.673617379884020681E-16, 0.000000000000000000, -1.000000000000000000 ) ) ;
#525 = CARTESIAN_POINT ( 'NONE',  ( 62.30000000000001137, 3.600000000000000089, 12.77032961426900926 ) ) ;
#526 = EDGE_CURVE ( 'NONE', #778, #307, #582, .T. ) ;
#527 = ORIENTED_EDGE ( 'NONE', *, *, #532, .T. ) ;
#528 = LINE ( 'NONE', #1127, #226 ) ;
#529 = DIRECTION ( 'NONE',  ( -8.673617379884020681E-16, 0.000000000000000000, -1.000000000000000000 ) ) ;
#530 = CARTESIAN_POINT ( 'NONE',  ( 10.00000000000000178, -38.69999999999999574, 12.77032961426900926 ) ) ;
#531 = ORIENTED_EDGE ( 'NONE', *, *, #681, .T. ) ;
#532 = EDGE_CURVE ( 'NONE', #523, #777, #1076, .T. ) ;
#533 = VERTEX_POINT ( 'NONE', #877 ) ;
#534 = CARTESIAN_POINT ( 'NONE',  ( 15.00000000000001066, 45.89999999999999858, 23.00000000000000000 ) ) ;
#535 = VECTOR ( 'NONE', #931, 1000.000000000000000 ) ;
#536 = DIRECTION ( 'NONE',  ( 0.000000000000000000, 1.000000000000000000, 0.000000000000000000 ) ) ;
#537 = AXIS2_PLACEMENT_3D ( 'NONE', #960, #885, #371 ) ;
#538 = COLOUR_RGB ( '',0.7921568627450980005, 0.8196078431372548767, 0.9333333333333333481 ) ;
#539 = ORIENTED_EDGE ( 'NONE', *, *, #117, .T. ) ;
#540 = VECTOR ( 'NONE', #1265, 1000.000000000000000 ) ;
#541 = CARTESIAN_POINT ( 'NONE',  ( 18.90000000000001634, 40.24999999999999289, 23.00000000000000355 ) ) ;
#542 = CARTESIAN_POINT ( 'NONE',  ( 57.30000000000000426, 7.600000000000030731, 27.00000000000000355 ) ) ;
#543 = PRODUCT_RELATED_PRODUCT_CATEGORY ( 'part', '', ( #443 ) ) ;
#544 = APPLICATION_CONTEXT ( 'automotive_design' ) ;
#545 = EDGE_CURVE ( 'NONE', #670, #1271, #1002, .T. ) ;
#546 = ORIENTED_EDGE ( 'NONE', *, *, #847, .F. ) ;
#547 = LINE ( 'NONE', #1170, #1294 ) ;
#548 = DIRECTION ( 'NONE',  ( -0.000000000000000000, 1.000000000000000000, -0.000000000000000000 ) ) ;
#549 = CARTESIAN_POINT ( 'NONE',  ( 64.80000000000001137, 0.6000000000000003109, 13.50000000000000000 ) ) ;
#550 = ORIENTED_EDGE ( 'NONE', *, *, #425, .F. ) ;
#551 = EDGE_CURVE ( 'NONE', #149, #565, #138, .T. ) ;
#552 = DIRECTION ( 'NONE',  ( -0.000000000000000000, -1.000000000000000000, -0.000000000000000000 ) ) ;
#553 = VECTOR ( 'NONE', #342, 1000.000000000000114 ) ;
#554 = ORIENTED_EDGE ( 'NONE', *, *, #716, .T. ) ;
#555 = VECTOR ( 'NONE', #1060, 1000.000000000000227 ) ;
#556 = VERTEX_POINT ( 'NONE', #520 ) ;
#557 = ADVANCED_FACE ( 'NONE', ( #726 ), #410, .F. ) ;
#558 = VECTOR ( 'NONE', #600, 1000.000000000000000 ) ;
#559 = DIRECTION ( 'NONE',  ( 0.000000000000000000, 0.000000000000000000, 1.000000000000000000 ) ) ;
#560 = ORIENTED_EDGE ( 'NONE', *, *, #1022, .T. ) ;
#561 = DIRECTION ( 'NONE',  ( 0.000000000000000000, 0.000000000000000000, 1.000000000000000000 ) ) ;
#562 = ORIENTED_EDGE ( 'NONE', *, *, #704, .F. ) ;
#563 = CARTESIAN_POINT ( 'NONE',  ( 72.29999999999999716, 0.000000000000000000, 12.77032961426900393 ) ) ;
#564 = EDGE_CURVE ( 'NONE', #506, #810, #1165, .T. ) ;
#565 = VERTEX_POINT ( 'NONE', #953 ) ;
#566 = VERTEX_POINT ( 'NONE', #57 ) ;
#567 = DIRECTION ( 'NONE',  ( -1.000000000000000000, -0.000000000000000000, -8.202002250481360014E-17 ) ) ;
#568 = DIRECTION ( 'NONE',  ( 1.000000000000000000, 0.000000000000000000, 0.000000000000000000 ) ) ;
#569 = LINE ( 'NONE', #756, #995 ) ;
#570 = DIRECTION ( 'NONE',  ( -0.000000000000000000, -0.000000000000000000, 1.000000000000000000 ) ) ;
#571 = EDGE_CURVE ( 'NONE', #515, #60, #1269, .T. ) ;
#572 = ORIENTED_EDGE ( 'NONE', *, *, #162, .T. ) ;
#573 = ORIENTED_EDGE ( 'NONE', *, *, #75, .F. ) ;
#574 = AXIS2_PLACEMENT_3D ( 'NONE', #397, #698, #990 ) ;
#575 = FACE_OUTER_BOUND ( 'NONE', #107, .T. ) ;
#576 = CARTESIAN_POINT ( 'NONE',  ( 15.00000000000001421, 0.000000000000000000, 27.00000000000000711 ) ) ;
#577 = AXIS2_PLACEMENT_3D ( 'NONE', #587, #1283, #685 ) ;
#578 = LINE ( 'NONE', #1107, #996 ) ;
#579 = FACE_BOUND ( 'NONE', #1079, .T. ) ;
#580 = AXIS2_PLACEMENT_3D ( 'NONE', #1217, #505, #903 ) ;
#581 = ORIENTED_EDGE ( 'NONE', *, *, #350, .T. ) ;
#582 = LINE ( 'NONE', #669, #555 ) ;
#583 = CARTESIAN_POINT ( 'NONE',  ( 6.286093236458967226, 0.000000000000000000, 23.51443729458358689 ) ) ;
#584 = EDGE_CURVE ( 'NONE', #813, #962, #314, .T. ) ;
#585 = DIRECTION ( 'NONE',  ( 0.000000000000000000, 0.000000000000000000, 1.000000000000000000 ) ) ;
#586 = ORIENTED_EDGE ( 'NONE', *, *, #941, .F. ) ;
#587 = CARTESIAN_POINT ( 'NONE',  ( 7.500000000000007105, 0.6000000000000007550, 13.50000000000000000 ) ) ;
#588 = LINE ( 'NONE', #1071, #98 ) ;
#589 = CARTESIAN_POINT ( 'NONE',  ( 18.90000000000001634, 9.249999999999994671, 27.00000000000000000 ) ) ;
#590 = EDGE_LOOP ( 'NONE', ( #423, #649, #301, #786 ) ) ;
#591 = CARTESIAN_POINT ( 'NONE',  ( 51.65000000000001279, 9.249999999999994671, 23.00000000000000355 ) ) ;
#592 = ORIENTED_EDGE ( 'NONE', *, *, #733, .F. ) ;
#593 = ADVANCED_FACE ( 'NONE', ( #699 ), #319, .F. ) ;
#594 = DIRECTION ( 'NONE',  ( -0.000000000000000000, -0.000000000000000000, 1.000000000000000000 ) ) ;
#595 = DIRECTION ( 'NONE',  ( 0.000000000000000000, 0.000000000000000000, 1.000000000000000000 ) ) ;
#596 = ORIENTED_EDGE ( 'NONE', *, *, #1051, .T. ) ;
#597 = ORIENTED_EDGE ( 'NONE', *, *, #293, .T. ) ;
#598 = CYLINDRICAL_SURFACE ( 'NONE', #809, 1.750000000000001554 ) ;
#599 = PRODUCT_DEFINITION ( 'NON CONOSCIUTO', '', #33, #732 ) ;
#600 = DIRECTION ( 'NONE',  ( -1.734723475976807094E-15, 0.000000000000000000, -1.000000000000000000 ) ) ;
#601 = DIRECTION ( 'NONE',  ( -0.000000000000000000, 1.000000000000000000, -0.000000000000000000 ) ) ;
#602 = ORIENTED_EDGE ( 'NONE', *, *, #350, .F. ) ;
#603 = CIRCLE ( 'NONE', #865, 5.000000000000002665 ) ;
#604 = ORIENTED_EDGE ( 'NONE', *, *, #1074, .F. ) ;
#605 = DIRECTION ( 'NONE',  ( 0.000000000000000000, 0.000000000000000000, -1.000000000000000000 ) ) ;
#606 = DIRECTION ( 'NONE',  ( 0.000000000000000000, 0.000000000000000000, 1.000000000000000000 ) ) ;
#607 = ADVANCED_FACE ( 'NONE', ( #820 ), #648, .T. ) ;
#608 = ORIENTED_EDGE ( 'NONE', *, *, #1142, .T. ) ;
#609 = CARTESIAN_POINT ( 'NONE',  ( 64.80000000000001137, 0.6000000000000003109, 8.499999999999994671 ) ) ;
#610 = ORIENTED_EDGE ( 'NONE', *, *, #790, .T. ) ;
#611 = DIRECTION ( 'NONE',  ( -0.000000000000000000, -0.000000000000000000, 1.000000000000000000 ) ) ;
#612 = VERTEX_POINT ( 'NONE', #1036 ) ;
#613 = CARTESIAN_POINT ( 'NONE',  ( 53.40000000000001990, 9.249999999999994671, 27.00000000000000000 ) ) ;
#614 = EDGE_CURVE ( 'NONE', #1068, #435, #1037, .T. ) ;
#615 = EDGE_LOOP ( 'NONE', ( #592, #823, #734, #1264 ) ) ;
#616 = FACE_OUTER_BOUND ( 'NONE', #1256, .T. ) ;
#617 = DIRECTION ( 'NONE',  ( 1.000000000000000000, 0.000000000000000000, 0.000000000000000000 ) ) ;
#618 = VECTOR ( 'NONE', #1136, 1000.000000000000000 ) ;
#619 = VECTOR ( 'NONE', #256, 1000.000000000000000 ) ;
#620 = VECTOR ( 'NONE', #491, 1000.000000000000000 ) ;
#621 = ORIENTED_EDGE ( 'NONE', *, *, #225, .T. ) ;
#622 = CARTESIAN_POINT ( 'NONE',  ( 7.903448275862070105, 0.000000000000000000, -19.75862068965517437 ) ) ;
#623 = CARTESIAN_POINT ( 'NONE',  ( 72.30000000000001137, 3.600000000000000089, 20.99999999999999645 ) ) ;
#624 = VECTOR ( 'NONE', #187, 1000.000000000000000 ) ;
#625 = VECTOR ( 'NONE', #702, 1000.000000000000000 ) ;
#626 = DIRECTION ( 'NONE',  ( 1.000000000000000000, 0.000000000000000000, 0.000000000000000000 ) ) ;
#627 = EDGE_CURVE ( 'NONE', #1303, #967, #588, .T. ) ;
#628 = DIRECTION ( 'NONE',  ( -0.000000000000000000, 1.000000000000000000, -0.000000000000000000 ) ) ;
#629 = CARTESIAN_POINT ( 'NONE',  ( 64.80000000000001137, 0.6000000000000007550, 13.50000000000000000 ) ) ;
#630 = CARTESIAN_POINT ( 'NONE',  ( 15.00000000000001066, 45.89999999999999858, 23.00000000000000000 ) ) ;
#631 = CARTESIAN_POINT ( 'NONE',  ( 20.65000000000001634, 9.249999999999994671, 23.00000000000000355 ) ) ;
#632 = ORIENTED_EDGE ( 'NONE', *, *, #152, .F. ) ;
#633 = EDGE_CURVE ( 'NONE', #1115, #852, #855, .T. ) ;
#634 = CARTESIAN_POINT ( 'NONE',  ( 0.000000000000000000, 0.000000000000000000, 0.000000000000000000 ) ) ;
#635 = CARTESIAN_POINT ( 'NONE',  ( 1.534153390330764715E-15, 3.600000000000000089, 12.77032961426901103 ) ) ;
#636 = CARTESIAN_POINT ( 'NONE',  ( 62.30000000000001137, -38.69999999999999574, 14.22967038573099430 ) ) ;
#637 = ORIENTED_EDGE ( 'NONE', *, *, #894, .F. ) ;
#638 = CARTESIAN_POINT ( 'NONE',  ( 57.30000000000000426, 0.000000000000000000, 0.000000000000000000 ) ) ;
#639 = CARTESIAN_POINT ( 'NONE',  ( 57.29999999999999716, 41.89999999999997726, 23.00000000000000355 ) ) ;
#640 = ADVANCED_FACE ( 'NONE', ( #575 ), #255, .F. ) ;
#641 = CIRCLE ( 'NONE', #742, 2.250000000000000444 ) ;
#642 = EDGE_LOOP ( 'NONE', ( #275, #1006, #750, #955 ) ) ;
#643 = AXIS2_PLACEMENT_3D ( 'NONE', #657, #769, #1053 ) ;
#644 = VECTOR ( 'NONE', #109, 1000.000000000000000 ) ;
#645 = VECTOR ( 'NONE', #185, 1000.000000000000000 ) ;
#646 = ORIENTED_EDGE ( 'NONE', *, *, #453, .F. ) ;
#647 = CIRCLE ( 'NONE', #914, 10.00000000000000000 ) ;
#648 = CYLINDRICAL_SURFACE ( 'NONE', #426, 10.00000000000000000 ) ;
#649 = ORIENTED_EDGE ( 'NONE', *, *, #1000, .T. ) ;
#650 = ADVANCED_FACE ( 'NONE', ( #91, #199, #1116, #909, #402 ), #880, .F. ) ;
#651 = DIRECTION ( 'NONE',  ( -8.673617379884020681E-16, 0.000000000000000000, -1.000000000000000000 ) ) ;
#652 = FACE_OUTER_BOUND ( 'NONE', #696, .T. ) ;
#653 = DIRECTION ( 'NONE',  ( 0.7071067811865512365, -0.7071067811865439090, -6.133173666733518246E-16 ) ) ;
#654 = ORIENTED_EDGE ( 'NONE', *, *, #509, .F. ) ;
#655 = EDGE_CURVE ( 'NONE', #1209, #1240, #927, .T. ) ;
#656 = ORIENTED_EDGE ( 'NONE', *, *, #1000, .F. ) ;
#657 = CARTESIAN_POINT ( 'NONE',  ( 20.65000000000001634, 40.24999999999999289, -15.29999999999999716 ) ) ;
#658 = CARTESIAN_POINT ( 'NONE',  ( 17.21379310344827829, 0.000000000000000000, 43.03448275862069750 ) ) ;
#659 = ORIENTED_EDGE ( 'NONE', *, *, #551, .F. ) ;
#660 = VECTOR ( 'NONE', #999, 1000.000000000000000 ) ;
#661 = FACE_OUTER_BOUND ( 'NONE', #35, .T. ) ;
#662 = ORIENTED_EDGE ( 'NONE', *, *, #1022, .F. ) ;
#663 = ADVANCED_FACE ( 'NONE', ( #616 ), #339, .F. ) ;
#664 = AXIS2_PLACEMENT_3D ( 'NONE', #795, #1194, #997 ) ;
#665 = AXIS2_PLACEMENT_3D ( 'NONE', #412, #611, #230 ) ;
#666 = DIRECTION ( 'NONE',  ( 1.201342045718669925E-16, 0.000000000000000000, 1.000000000000000000 ) ) ;
#667 = CARTESIAN_POINT ( 'NONE',  ( 7.500000000000007105, 0.6000000000000003109, 13.50000000000000000 ) ) ;
#668 = ORIENTED_EDGE ( 'NONE', *, *, #571, .T. ) ;
#669 = CARTESIAN_POINT ( 'NONE',  ( 86.79074074074070211, -21.89074074074099840, 15.20370370370372548 ) ) ;
#670 = VERTEX_POINT ( 'NONE', #638 ) ;
#671 = LINE ( 'NONE', #1063, #745 ) ;
#672 = DIRECTION ( 'NONE',  ( -8.202002250481360014E-17, 0.000000000000000000, 1.000000000000000000 ) ) ;
#673 = CARTESIAN_POINT ( 'NONE',  ( 51.65000000000001279, 40.24999999999999289, 23.00000000000000355 ) ) ;
#674 = CARTESIAN_POINT ( 'NONE',  ( 20.65000000000001634, 40.24999999999999289, -15.29999999999999716 ) ) ;
#675 = DIRECTION ( 'NONE',  ( -0.6804138174397685868, -0.6804138174397753591, -0.2721655269759076234 ) ) ;
#676 = ORIENTED_EDGE ( 'NONE', *, *, #1221, .T. ) ;
#677 = ORIENTED_EDGE ( 'NONE', *, *, #894, .T. ) ;
#678 = CARTESIAN_POINT ( 'NONE',  ( 57.30000000000000426, -38.69999999999999574, 0.000000000000000000 ) ) ;
#679 = DIRECTION ( 'NONE',  ( -0.000000000000000000, 1.000000000000000000, -0.000000000000000000 ) ) ;
#680 = FACE_OUTER_BOUND ( 'NONE', #384, .T. ) ;
#681 = EDGE_CURVE ( 'NONE', #816, #1, #824, .T. ) ;
#682 = EDGE_LOOP ( 'NONE', ( #562, #323, #572, #1189 ) ) ;
#683 = DIRECTION ( 'NONE',  ( -0.3713906763541037215, 0.000000000000000000, -0.9284766908852594147 ) ) ;
#684 = ORIENTED_EDGE ( 'NONE', *, *, #1038, .T. ) ;
#685 = DIRECTION ( 'NONE',  ( 0.000000000000000000, 0.000000000000000000, 1.000000000000000000 ) ) ;
#686 = AXIS2_PLACEMENT_3D ( 'NONE', #1044, #336, #133 ) ;
#687 = DIRECTION ( 'NONE',  ( 0.000000000000000000, -1.000000000000000000, 0.000000000000000000 ) ) ;
#688 = PRESENTATION_LAYER_ASSIGNMENT (  '', '', ( #1081 ) ) ;
#689 = CARTESIAN_POINT ( 'NONE',  ( 7.500000000000007105, 3.600000000000000089, 13.50000000000000000 ) ) ;
#690 = AXIS2_PLACEMENT_3D ( 'NONE', #695, #1088, #168 ) ;
#691 = AXIS2_PLACEMENT_3D ( 'NONE', #800, #606, #617 ) ;
#692 = EDGE_LOOP ( 'NONE', ( #358, #452, #1111, #378 ) ) ;
#693 = DIRECTION ( 'NONE',  ( -0.000000000000000000, 1.000000000000000000, -0.000000000000000000 ) ) ;
#694 = EDGE_CURVE ( 'NONE', #282, #189, #467, .T. ) ;
#695 = CARTESIAN_POINT ( 'NONE',  ( 7.500000000000007105, 3.600000000000000089, 13.50000000000000000 ) ) ;
#696 = EDGE_LOOP ( 'NONE', ( #1133, #604, #23, #928 ) ) ;
#697 = CARTESIAN_POINT ( 'NONE',  ( 19.00000000000000355, 45.89999999999998437, 27.00000000000000000 ) ) ;
#698 = DIRECTION ( 'NONE',  ( -0.000000000000000000, 1.000000000000000000, -0.000000000000000000 ) ) ;
#699 = FACE_OUTER_BOUND ( 'NONE', #39, .T. ) ;
#700 = ORIENTED_EDGE ( 'NONE', *, *, #1051, .F. ) ;
#701 = CARTESIAN_POINT ( 'NONE',  ( 34.14999999999999147, 26.75000000000020961, 23.00000000000000000 ) ) ;
#702 = DIRECTION ( 'NONE',  ( -1.000000000000000000, -0.000000000000000000, -0.000000000000000000 ) ) ;
#703 = ORIENTED_EDGE ( 'NONE', *, *, #1231, .T. ) ;
#704 = EDGE_CURVE ( 'NONE', #370, #816, #1206, .T. ) ;
#705 = CARTESIAN_POINT ( 'NONE',  ( 51.65000000000001279, 9.249999999999994671, -15.29999999999999716 ) ) ;
#706 = DIRECTION ( 'NONE',  ( 0.000000000000000000, 0.000000000000000000, -1.000000000000000000 ) ) ;
#707 = CARTESIAN_POINT ( 'NONE',  ( 20.65000000000001634, 9.249999999999994671, 23.00000000000000355 ) ) ;
#708 = VERTEX_POINT ( 'NONE', #173 ) ;
#709 = ORIENTED_EDGE ( 'NONE', *, *, #956, .F. ) ;
#710 = VECTOR ( 'NONE', #1230, 999.9999999999998863 ) ;
#711 = FACE_BOUND ( 'NONE', #994, .T. ) ;
#712 = CARTESIAN_POINT ( 'NONE',  ( 64.80000000000001137, 3.600000000000000089, 11.24999999999999822 ) ) ;
#713 = CIRCLE ( 'NONE', #1019, 1.750000000000001554 ) ;
#714 = ORIENTED_EDGE ( 'NONE', *, *, #551, .T. ) ;
#715 = VERTEX_POINT ( 'NONE', #583 ) ;
#716 = EDGE_CURVE ( 'NONE', #1049, #523, #713, .T. ) ;
#717 = ORIENTED_EDGE ( 'NONE', *, *, #72, .T. ) ;
#718 = FILL_AREA_STYLE ('',( #1026 ) ) ;
#719 = ORIENTED_EDGE ( 'NONE', *, *, #357, .F. ) ;
#720 = FACE_OUTER_BOUND ( 'NONE', #405, .T. ) ;
#721 = EDGE_CURVE ( 'NONE', #1198, #333, #302, .T. ) ;
#722 = ORIENTED_EDGE ( 'NONE', *, *, #921, .T. ) ;
#723 = APPLICATION_CONTEXT ( 'automotive_design' ) ;
#724 = DIRECTION ( 'NONE',  ( 1.000000000000000000, 0.000000000000000000, 0.000000000000000000 ) ) ;
#725 = DIRECTION ( 'NONE',  ( 1.000000000000000000, 0.000000000000000000, 0.000000000000000000 ) ) ;
#726 = FACE_OUTER_BOUND ( 'NONE', #590, .T. ) ;
#727 = DIRECTION ( 'NONE',  ( 5.139921410301650796E-16, 0.000000000000000000, 1.000000000000000000 ) ) ;
#728 = VECTOR ( 'NONE', #524, 1000.000000000000000 ) ;
#729 = VERTEX_POINT ( 'NONE', #97 ) ;
#730 = DIRECTION ( 'NONE',  ( -8.202002250481360014E-17, 0.000000000000000000, 1.000000000000000000 ) ) ;
#731 = FACE_OUTER_BOUND ( 'NONE', #803, .T. ) ;
#732 = PRODUCT_DEFINITION_CONTEXT ( 'detailed design', #723, 'design' ) ;
#733 = EDGE_CURVE ( 'NONE', #1251, #1068, #233, .T. ) ;
#734 = ORIENTED_EDGE ( 'NONE', *, *, #1113, .T. ) ;
#735 = PLANE ( 'NONE',  #1042 ) ;
#736 = VERTEX_POINT ( 'NONE', #521 ) ;
#737 = DIRECTION ( 'NONE',  ( -8.202002250481360014E-17, 0.000000000000000000, 1.000000000000000000 ) ) ;
#738 = DIRECTION ( 'NONE',  ( -0.000000000000000000, 1.000000000000000000, 0.000000000000000000 ) ) ;
#739 = ORIENTED_EDGE ( 'NONE', *, *, #325, .F. ) ;
#740 = EDGE_CURVE ( 'NONE', #612, #778, #420, .T. ) ;
#741 = CARTESIAN_POINT ( 'NONE',  ( 57.30000000000000426, 7.600000000000030731, 27.00000000000000355 ) ) ;
#742 = AXIS2_PLACEMENT_3D ( 'NONE', #757, #70, #965 ) ;
#743 = PLANE ( 'NONE',  #1161 ) ;
#744 = FACE_OUTER_BOUND ( 'NONE', #1089, .T. ) ;
#745 = VECTOR ( 'NONE', #567, 1000.000000000000000 ) ;
#746 = EDGE_CURVE ( 'NONE', #237, #777, #445, .T. ) ;
#747 = DIRECTION ( 'NONE',  ( 0.000000000000000000, 0.000000000000000000, 1.000000000000000000 ) ) ;
#748 = DIRECTION ( 'NONE',  ( 0.000000000000000000, 0.000000000000000000, 1.000000000000000000 ) ) ;
#749 = VERTEX_POINT ( 'NONE', #609 ) ;
#750 = ORIENTED_EDGE ( 'NONE', *, *, #493, .T. ) ;
#751 = DIRECTION ( 'NONE',  ( -0.7071067811865464625, 0.7071067811865486830, -0.000000000000000000 ) ) ;
#752 = PLANE ( 'NONE',  #154 ) ;
#753 = ORIENTED_EDGE ( 'NONE', *, *, #782, .T. ) ;
#754 = DIRECTION ( 'NONE',  ( 0.000000000000000000, 0.000000000000000000, 1.000000000000000000 ) ) ;
#755 = VERTEX_POINT ( 'NONE', #129 ) ;
#756 = CARTESIAN_POINT ( 'NONE',  ( 53.29999999999995453, 45.89999999999999858, -9.246076126956374240E-14 ) ) ;
#757 = CARTESIAN_POINT ( 'NONE',  ( 64.80000000000001137, 0.000000000000000000, 13.50000000000000000 ) ) ;
#758 = AXIS2_PLACEMENT_3D ( 'NONE', #667, #548, #559 ) ;
#759 = VERTEX_POINT ( 'NONE', #1119 ) ;
#760 = DIRECTION ( 'NONE',  ( -0.000000000000000000, 1.000000000000000000, -0.000000000000000000 ) ) ;
#761 = DIRECTION ( 'NONE',  ( -0.000000000000000000, -1.000000000000000000, -0.000000000000000000 ) ) ;
#762 = DIRECTION ( 'NONE',  ( -0.9284766908852593037, 0.000000000000000000, 0.3713906763541036660 ) ) ;
#763 = VECTOR ( 'NONE', #53, 1000.000000000000000 ) ;
#764 = ORIENTED_EDGE ( 'NONE', *, *, #40, .F. ) ;
#765 = ADVANCED_FACE ( 'NONE', ( #1220 ), #1210, .F. ) ;
#766 = AXIS2_PLACEMENT_3D ( 'NONE', #3, #217, #204 ) ;
#767 = VECTOR ( 'NONE', #878, 1000.000000000000000 ) ;
#768 = FACE_OUTER_BOUND ( 'NONE', #642, .T. ) ;
#769 = DIRECTION ( 'NONE',  ( -0.000000000000000000, -0.000000000000000000, 1.000000000000000000 ) ) ;
#770 = LINE ( 'NONE', #1260, #262 ) ;
#771 = ORIENTED_EDGE ( 'NONE', *, *, #1275, .F. ) ;
#772 = ORIENTED_EDGE ( 'NONE', *, *, #1096, .F. ) ;
#773 = EDGE_CURVE ( 'NONE', #470, #1271, #822, .T. ) ;
#774 = LINE ( 'NONE', #1091, #540 ) ;
#775 = CARTESIAN_POINT ( 'NONE',  ( 66.01390676354104414, 3.600000000000000089, 3.485562705416417550 ) ) ;
#776 = LINE ( 'NONE', #1149, #805 ) ;
#777 = VERTEX_POINT ( 'NONE', #613 ) ;
#778 = VERTEX_POINT ( 'NONE', #114 ) ;
#779 = DIRECTION ( 'NONE',  ( -0.000000000000000000, -0.000000000000000000, 1.000000000000000000 ) ) ;
#780 = CARTESIAN_POINT ( 'NONE',  ( 49.90000000000001279, 40.24999999999999289, 23.00000000000000355 ) ) ;
#781 = CARTESIAN_POINT ( 'NONE',  ( 7.500000000000007105, 0.6000000000000003109, 18.50000000000000000 ) ) ;
#782 = EDGE_CURVE ( 'NONE', #359, #470, #528, .T. ) ;
#783 = ORIENTED_EDGE ( 'NONE', *, *, #379, .F. ) ;
#784 = AXIS2_PLACEMENT_3D ( 'NONE', #37, #536, #1121 ) ;
#785 = DIRECTION ( 'NONE',  ( 1.000000000000000000, 0.000000000000000000, 0.000000000000000000 ) ) ;
#786 = ORIENTED_EDGE ( 'NONE', *, *, #389, .F. ) ;
#787 = DIRECTION ( 'NONE',  ( 0.000000000000000000, 1.000000000000000000, 0.000000000000000000 ) ) ;
#788 = VECTOR ( 'NONE', #147, 1000.000000000000000 ) ;
#789 = DIRECTION ( 'NONE',  ( -0.000000000000000000, 1.000000000000000000, -0.000000000000000000 ) ) ;
#790 = EDGE_CURVE ( 'NONE', #503, #333, #222, .T. ) ;
#791 = ORIENTED_EDGE ( 'NONE', *, *, #438, .F. ) ;
#792 = DIRECTION ( 'NONE',  ( 0.000000000000000000, 0.000000000000000000, 1.000000000000000000 ) ) ;
#793 = VERTEX_POINT ( 'NONE', #817 ) ;
#794 = MANIFOLD_SOLID_BREP ( 'Smusso2', #966 ) ;
#795 = CARTESIAN_POINT ( 'NONE',  ( 53.29999999999995453, 45.89999999999999858, -9.246076126956374240E-14 ) ) ;
#796 = DIRECTION ( 'NONE',  ( -0.000000000000000000, 1.000000000000000000, -0.000000000000000000 ) ) ;
#797 = ORIENTED_EDGE ( 'NONE', *, *, #92, .F. ) ;
#798 = ORIENTED_EDGE ( 'NONE', *, *, #930, .T. ) ;
#799 = EDGE_CURVE ( 'NONE', #946, #306, #1011, .T. ) ;
#800 = CARTESIAN_POINT ( 'NONE',  ( 20.65000000000001634, 40.24999999999999289, 27.00000000000000000 ) ) ;
#801 = CARTESIAN_POINT ( 'NONE',  ( 22.40000000000001279, 40.24999999999999289, 27.00000000000000000 ) ) ;
#802 = EDGE_LOOP ( 'NONE', ( #632, #1172 ) ) ;
#803 = EDGE_LOOP ( 'NONE', ( #249, #377, #917, #1242 ) ) ;
#804 = EDGE_CURVE ( 'NONE', #175, #533, #812, .T. ) ;
#805 = VECTOR ( 'NONE', #1066, 1000.000000000000000 ) ;
#806 = CIRCLE ( 'NONE', #1122, 1.749999999999998002 ) ;
#807 = DIRECTION ( 'NONE',  ( -0.000000000000000000, 1.000000000000000000, -0.000000000000000000 ) ) ;
#808 = AXIS2_PLACEMENT_3D ( 'NONE', #468, #188, #197 ) ;
#809 = AXIS2_PLACEMENT_3D ( 'NONE', #488, #779, #1308 ) ;
#810 = VERTEX_POINT ( 'NONE', #635 ) ;
#811 = AXIS2_PLACEMENT_3D ( 'NONE', #549, #1257, #754 ) ;
#812 = LINE ( 'NONE', #513, #1124 ) ;
#813 = VERTEX_POINT ( 'NONE', #826 ) ;
#814 = ADVANCED_FACE ( 'NONE', ( #1032, #1229, #929, #134, #31 ), #337, .F. ) ;
#815 = DIRECTION ( 'NONE',  ( 0.000000000000000000, 0.000000000000000000, 1.000000000000000000 ) ) ;
#816 = VERTEX_POINT ( 'NONE', #473 ) ;
#817 = CARTESIAN_POINT ( 'NONE',  ( 64.80000000000001137, 0.6000000000000007550, 11.24999999999999822 ) ) ;
#818 = FACE_BOUND ( 'NONE', #1193, .T. ) ;
#819 = VERTEX_POINT ( 'NONE', #464 ) ;
#820 = FACE_OUTER_BOUND ( 'NONE', #1191, .T. ) ;
#821 = CARTESIAN_POINT ( 'NONE',  ( 20.65000000000001634, 9.249999999999994671, -15.29999999999999716 ) ) ;
#822 = LINE ( 'NONE', #923, #947 ) ;
#823 = ORIENTED_EDGE ( 'NONE', *, *, #1150, .F. ) ;
#824 = LINE ( 'NONE', #1224, #119 ) ;
#825 = DIRECTION ( 'NONE',  ( -1.734723475976807094E-15, 0.000000000000000000, -1.000000000000000000 ) ) ;
#826 = CARTESIAN_POINT ( 'NONE',  ( 64.80000000000001137, 3.600000000000000089, 8.499999999999994671 ) ) ;
#827 = ADVANCED_FACE ( 'NONE', ( #296 ), #863, .F. ) ;
#828 = CARTESIAN_POINT ( 'NONE',  ( 49.90000000000001279, 40.24999999999999289, 27.00000000000000000 ) ) ;
#829 = CIRCLE ( 'NONE', #265, 1.749999999999998002 ) ;
#830 = DIRECTION ( 'NONE',  ( -0.000000000000000000, -0.000000000000000000, 1.000000000000000000 ) ) ;
#831 = DIRECTION ( 'NONE',  ( -0.7071067811865513475, -0.7071067811865437980, 1.226634733346705819E-15 ) ) ;
#832 = CARTESIAN_POINT ( 'NONE',  ( 15.00000000000001421, 45.89999999999999858, 27.00000000000000711 ) ) ;
#833 = ORIENTED_EDGE ( 'NONE', *, *, #614, .F. ) ;
#834 = DIRECTION ( 'NONE',  ( 0.3713906763541039990, 0.000000000000000000, -0.9284766908852593037 ) ) ;
#835 = LINE ( 'NONE', #54, #910 ) ;
#836 = VERTEX_POINT ( 'NONE', #395 ) ;
#837 = DIRECTION ( 'NONE',  ( -0.000000000000000000, 1.000000000000000000, -0.000000000000000000 ) ) ;
#838 = EDGE_CURVE ( 'NONE', #110, #1100, #176, .T. ) ;
#839 = DIRECTION ( 'NONE',  ( 0.000000000000000000, 1.000000000000000000, 0.000000000000000000 ) ) ;
#840 = CIRCLE ( 'NONE', #286, 2.250000000000000444 ) ;
#841 = CIRCLE ( 'NONE', #1016, 5.000000000000002665 ) ;
#842 = LINE ( 'NONE', #658, #177 ) ;
#843 = AXIS2_PLACEMENT_3D ( 'NONE', #1226, #911, #214 ) ;
#844 = ADVANCED_FACE ( 'NONE', ( #90 ), #598, .F. ) ;
#845 = DIRECTION ( 'NONE',  ( 1.734723475976807094E-15, 0.000000000000000000, 1.000000000000000000 ) ) ;
#846 = FACE_OUTER_BOUND ( 'NONE', #409, .T. ) ;
#847 = EDGE_CURVE ( 'NONE', #282, #836, #888, .T. ) ;
#848 = EDGE_LOOP ( 'NONE', ( #1055, #938, #531, #258 ) ) ;
#849 = ORIENTED_EDGE ( 'NONE', *, *, #169, .F. ) ;
#850 = CARTESIAN_POINT ( 'NONE',  ( 64.80000000000001137, 0.6000000000000003109, 18.50000000000000355 ) ) ;
#851 = EDGE_CURVE ( 'NONE', #1, #246, #244, .T. ) ;
#852 = VERTEX_POINT ( 'NONE', #270 ) ;
#853 = APPLICATION_PROTOCOL_DEFINITION ( 'draft international standard', 'automotive_design', 1998, #544 ) ;
#854 = EDGE_LOOP ( 'NONE', ( #74, #153 ) ) ;
#855 = LINE ( 'NONE', #1259, #763 ) ;
#856 = CARTESIAN_POINT ( 'NONE',  ( 57.30000000000000426, 3.600000000000000089, 0.000000000000000000 ) ) ;
#857 = DIRECTION ( 'NONE',  ( -0.000000000000000000, -1.000000000000000000, -0.000000000000000000 ) ) ;
#858 = ORIENTED_EDGE ( 'NONE', *, *, #847, .T. ) ;
#859 = EDGE_CURVE ( 'NONE', #1100, #1198, #671, .T. ) ;
#860 = VECTOR ( 'NONE', #383, 1000.000000000000000 ) ;
#861 = DIRECTION ( 'NONE',  ( -0.9284766908852591927, 0.000000000000000000, -0.3713906763541039435 ) ) ;
#862 = ORIENTED_EDGE ( 'NONE', *, *, #740, .F. ) ;
#863 = CYLINDRICAL_SURFACE ( 'NONE', #1144, 1.750000000000001554 ) ;
#864 = DIRECTION ( 'NONE',  ( 0.000000000000000000, 0.000000000000000000, 1.000000000000000000 ) ) ;
#865 = AXIS2_PLACEMENT_3D ( 'NONE', #925, #434, #462 ) ;
#866 = CYLINDRICAL_SURFACE ( 'NONE', #574, 2.250000000000000444 ) ;
#867 = DIRECTION ( 'NONE',  ( 0.000000000000000000, -1.000000000000000000, 0.000000000000000000 ) ) ;
#868 = ORIENTED_EDGE ( 'NONE', *, *, #251, .F. ) ;
#869 = CARTESIAN_POINT ( 'NONE',  ( 57.30000000000000426, -38.69999999999999574, 27.00000000000000355 ) ) ;
#870 = EDGE_LOOP ( 'NONE', ( #906, #285 ) ) ;
#871 = EDGE_CURVE ( 'NONE', #1010, #566, #1080, .T. ) ;
#872 = DIRECTION ( 'NONE',  ( 1.000000000000000000, 0.000000000000000000, 0.000000000000000000 ) ) ;
#873 = LINE ( 'NONE', #678, #1106 ) ;
#874 = DIRECTION ( 'NONE',  ( 0.000000000000000000, 0.000000000000000000, 1.000000000000000000 ) ) ;
#875 = LINE ( 'NONE', #1073, #926 ) ;
#876 = ORIENTED_EDGE ( 'NONE', *, *, #1120, .T. ) ;
#877 = CARTESIAN_POINT ( 'NONE',  ( 15.00000000000001421, 3.600000000000000089, 0.000000000000000000 ) ) ;
#878 = DIRECTION ( 'NONE',  ( -0.000000000000000000, 1.000000000000000000, -0.000000000000000000 ) ) ;
#879 = ORIENTED_EDGE ( 'NONE', *, *, #871, .F. ) ;
#880 = PLANE ( 'NONE',  #205 ) ;
#881 = ADVANCED_FACE ( 'NONE', ( #481 ), #131, .T. ) ;
#882 = DIRECTION ( 'NONE',  ( -0.000000000000000000, -0.000000000000000000, 1.000000000000000000 ) ) ;
#883 = CARTESIAN_POINT ( 'NONE',  ( 6.286093236458968114, -38.69999999999999574, 3.485562705416415330 ) ) ;
#884 = ORIENTED_EDGE ( 'NONE', *, *, #1183, .F. ) ;
#885 = DIRECTION ( 'NONE',  ( 0.000000000000000000, 1.000000000000000000, 0.000000000000000000 ) ) ;
#886 = CARTESIAN_POINT ( 'NONE',  ( 57.30000000000000426, 41.89999999999997726, 27.00000000000000355 ) ) ;
#887 = ORIENTED_EDGE ( 'NONE', *, *, #148, .T. ) ;
#888 = LINE ( 'NONE', #1168, #645 ) ;
#889 = CIRCLE ( 'NONE', #223, 2.250000000000000444 ) ;
#890 = VECTOR ( 'NONE', #81, 1000.000000000000000 ) ;
#891 = CARTESIAN_POINT ( 'NONE',  ( 61.29999999999998295, 3.600000000000000089, 23.00000000000000355 ) ) ;
#892 = AXIS2_PLACEMENT_3D ( 'NONE', #184, #585, #785 ) ;
#893 = CARTESIAN_POINT ( 'NONE',  ( 64.80000000000001137, 3.600000000000000089, 15.75000000000000000 ) ) ;
#894 = EDGE_CURVE ( 'NONE', #51, #439, #248, .T. ) ;
#895 = EDGE_LOOP ( 'NONE', ( #161, #1258, #550, #586 ) ) ;
#896 = DIRECTION ( 'NONE',  ( 0.000000000000000000, 1.000000000000000000, 0.000000000000000000 ) ) ;
#897 = ORIENTED_EDGE ( 'NONE', *, *, #45, .F. ) ;
#898 = DIRECTION ( 'NONE',  ( 1.000000000000000000, 0.000000000000000000, 0.000000000000000000 ) ) ;
#899 = DIRECTION ( 'NONE',  ( -5.139921410301650796E-16, -0.000000000000000000, -1.000000000000000000 ) ) ;
#900 = ORIENTED_EDGE ( 'NONE', *, *, #1090, .T. ) ;
#901 = DIRECTION ( 'NONE',  ( 0.000000000000000000, 0.000000000000000000, 1.000000000000000000 ) ) ;
#902 = ORIENTED_EDGE ( 'NONE', *, *, #1134, .F. ) ;
#903 = DIRECTION ( 'NONE',  ( 0.000000000000000000, 0.000000000000000000, 1.000000000000000000 ) ) ;
#904 = EDGE_LOOP ( 'NONE', ( #71, #372, #862, #213, #1295, #433, #1288, #413, #411, #218, #105, #316, #942, #676 ) ) ;
#905 = DIRECTION ( 'NONE',  ( -1.000000000000000000, 0.000000000000000000, 5.139921410301650796E-16 ) ) ;
#906 = ORIENTED_EDGE ( 'NONE', *, *, #516, .F. ) ;
#907 = CIRCLE ( 'NONE', #442, 10.00000000000000000 ) ;
#908 = ADVANCED_FACE ( 'NONE', ( #27 ), #437, .F. ) ;
#909 = FACE_BOUND ( 'NONE', #151, .T. ) ;
#910 = VECTOR ( 'NONE', #170, 1000.000000000000000 ) ;
#911 = DIRECTION ( 'NONE',  ( 0.000000000000000000, 0.000000000000000000, 1.000000000000000000 ) ) ;
#912 = FACE_OUTER_BOUND ( 'NONE', #692, .T. ) ;
#913 = DIRECTION ( 'NONE',  ( -0.000000000000000000, -0.000000000000000000, 1.000000000000000000 ) ) ;
#914 = AXIS2_PLACEMENT_3D ( 'NONE', #208, #920, #328 ) ;
#915 = ORIENTED_EDGE ( 'NONE', *, *, #117, .F. ) ;
#916 = CYLINDRICAL_SURFACE ( 'NONE', #665, 1.749999999999998002 ) ;
#917 = ORIENTED_EDGE ( 'NONE', *, *, #1067, .F. ) ;
#918 = CYLINDRICAL_SURFACE ( 'NONE', #1163, 10.00000000000000000 ) ;
#919 = VERTEX_POINT ( 'NONE', #1045 ) ;
#920 = DIRECTION ( 'NONE',  ( -0.000000000000000000, -1.000000000000000000, -0.000000000000000000 ) ) ;
#921 = EDGE_CURVE ( 'NONE', #52, #749, #334, .T. ) ;
#922 = ORIENTED_EDGE ( 'NONE', *, *, #1005, .F. ) ;
#923 = CARTESIAN_POINT ( 'NONE',  ( 66.01390676354104414, -38.69999999999999574, 3.485562705416417550 ) ) ;
#924 = DIRECTION ( 'NONE',  ( 0.000000000000000000, 0.000000000000000000, 1.000000000000000000 ) ) ;
#925 = CARTESIAN_POINT ( 'NONE',  ( 64.80000000000001137, 3.600000000000000089, 13.50000000000000000 ) ) ;
#926 = VECTOR ( 'NONE', #180, 1000.000000000000000 ) ;
#927 = CIRCLE ( 'NONE', #366, 10.00000000000000000 ) ;
#928 = ORIENTED_EDGE ( 'NONE', *, *, #804, .T. ) ;
#929 = FACE_BOUND ( 'NONE', #362, .T. ) ;
#930 = EDGE_CURVE ( 'NONE', #749, #813, #1156, .T. ) ;
#931 = DIRECTION ( 'NONE',  ( 0.000000000000000000, 1.000000000000000000, 0.000000000000000000 ) ) ;
#932 = CIRCLE ( 'NONE', #50, 1.750000000000001554 ) ;
#933 = ORIENTED_EDGE ( 'NONE', *, *, #417, .F. ) ;
#934 = DIRECTION ( 'NONE',  ( 0.9284766908852593037, 0.000000000000000000, 0.3713906763541036660 ) ) ;
#935 = FACE_OUTER_BOUND ( 'NONE', #267, .T. ) ;
#936 = PLANE ( 'NONE',  #784 ) ;
#937 = EDGE_CURVE ( 'NONE', #1139, #1303, #1289, .T. ) ;
#938 = ORIENTED_EDGE ( 'NONE', *, *, #1087, .F. ) ;
#939 = DIRECTION ( 'NONE',  ( 1.000000000000000000, 0.000000000000000000, 0.000000000000000000 ) ) ;
#940 = DIRECTION ( 'NONE',  ( 0.000000000000000000, 0.000000000000000000, 1.000000000000000000 ) ) ;
#941 = EDGE_CURVE ( 'NONE', #1240, #612, #977, .T. ) ;
#942 = ORIENTED_EDGE ( 'NONE', *, *, #225, .F. ) ;
#943 = PRODUCT_DEFINITION_SHAPE ( 'NONE', 'NONE',  #599 ) ;
#944 = CARTESIAN_POINT ( 'NONE',  ( 1.709470133109644451E-15, 3.600000000000000089, 14.22967038573099252 ) ) ;
#945 = AXIS2_PLACEMENT_3D ( 'NONE', #478, #760, #984 ) ;
#946 = VERTEX_POINT ( 'NONE', #486 ) ;
#947 = VECTOR ( 'NONE', #322, 1000.000000000000000 ) ;
#948 = CIRCLE ( 'NONE', #391, 10.00000000000000000 ) ;
#949 = ORIENTED_EDGE ( 'NONE', *, *, #941, .T. ) ;
#950 = EDGE_CURVE ( 'NONE', #359, #533, #400, .T. ) ;
#951 = LINE ( 'NONE', #1065, #46 ) ;
#952 = CARTESIAN_POINT ( 'NONE',  ( 15.00000000000001421, -38.69999999999999574, 0.000000000000000000 ) ) ;
#953 = CARTESIAN_POINT ( 'NONE',  ( 6.286093236458967226, 0.000000000000000000, 3.485562705416414886 ) ) ;
#954 = ORIENTED_EDGE ( 'NONE', *, *, #126, .T. ) ;
#955 = ORIENTED_EDGE ( 'NONE', *, *, #281, .T. ) ;
#956 = EDGE_CURVE ( 'NONE', #1114, #306, #1250, .T. ) ;
#957 = LINE ( 'NONE', #1047, #489 ) ;
#958 = CARTESIAN_POINT ( 'NONE',  ( 1.534153390330764715E-15, 0.000000000000000000, 12.77032961426901103 ) ) ;
#959 = ORIENTED_EDGE ( 'NONE', *, *, #1090, .F. ) ;
#960 = CARTESIAN_POINT ( 'NONE',  ( 7.500000000000007105, 0.000000000000000000, 13.50000000000000000 ) ) ;
#961 =( NAMED_UNIT ( * ) SI_UNIT ( $, .STERADIAN. ) SOLID_ANGLE_UNIT ( ) );
#962 = VERTEX_POINT ( 'NONE', #99 ) ;
#963 = DIRECTION ( 'NONE',  ( -0.9284766908852591927, 0.000000000000000000, -0.3713906763541039435 ) ) ;
#964 = CARTESIAN_POINT ( 'NONE',  ( 0.000000000000000000, 3.600000000000000089, 0.000000000000000000 ) ) ;
#965 = DIRECTION ( 'NONE',  ( 0.000000000000000000, 0.000000000000000000, 1.000000000000000000 ) ) ;
#966 = CLOSED_SHELL ( 'NONE', ( #399, #988, #22, #56, #1218, #827, #557, #63, #640, #650, #765, #308, #210, #200, #908, #593, #814, #1056, #344, #447, #844, #32, #1140, #183, #215, #432, #1174, #502, #1253, #143, #663, #1302, #1104, #15, #607, #261, #881, #234, #10, #83 ) ) ;
#967 = VERTEX_POINT ( 'NONE', #886 ) ;
#968 = CARTESIAN_POINT ( 'NONE',  ( 15.00000000000001066, 41.89999999999997726, 23.00000000000000000 ) ) ;
#969 = AXIS2_PLACEMENT_3D ( 'NONE', #1184, #194, #595 ) ;
#970 = VECTOR ( 'NONE', #675, 1000.000000000000000 ) ;
#971 = ORIENTED_EDGE ( 'NONE', *, *, #1213, .F. ) ;
#972 = VECTOR ( 'NONE', #385, 1000.000000000000000 ) ;
#973 = CARTESIAN_POINT ( 'NONE',  ( 51.65000000000001279, 9.249999999999994671, 23.00000000000000355 ) ) ;
#974 = FACE_OUTER_BOUND ( 'NONE', #13, .T. ) ;
#975 = ORIENTED_EDGE ( 'NONE', *, *, #1236, .T. ) ;
#976 = CARTESIAN_POINT ( 'NONE',  ( 53.40000000000001990, 9.249999999999994671, -15.29999999999999716 ) ) ;
#977 = LINE ( 'NONE', #993, #972 ) ;
#978 = EDGE_LOOP ( 'NONE', ( #1028, #1095, #1261, #460, #1007, #602, #343, #430 ) ) ;
#979 = EDGE_CURVE ( 'NONE', #715, #819, #1146, .T. ) ;
#980 = CARTESIAN_POINT ( 'NONE',  ( 3.243623523440408378E-15, 0.000000000000000000, 27.00000000000000000 ) ) ;
#981 = DIRECTION ( 'NONE',  ( -0.7071067811865462405, -0.7071067811865489050, -0.000000000000000000 ) ) ;
#982 = CARTESIAN_POINT ( 'NONE',  ( 15.00000000000001421, 3.600000000000000089, 0.000000000000000000 ) ) ;
#983 = ORIENTED_EDGE ( 'NONE', *, *, #704, .T. ) ;
#984 = DIRECTION ( 'NONE',  ( 0.000000000000000000, 0.000000000000000000, 1.000000000000000000 ) ) ;
#985 = CARTESIAN_POINT ( 'NONE',  ( 64.80000000000001137, 3.600000000000000089, 8.499999999999994671 ) ) ;
#986 = ORIENTED_EDGE ( 'NONE', *, *, #438, .T. ) ;
#987 = DIRECTION ( 'NONE',  ( -0.000000000000000000, -0.000000000000000000, 1.000000000000000000 ) ) ;
#988 = ADVANCED_FACE ( 'NONE', ( #1188 ), #497, .F. ) ;
#989 = CARTESIAN_POINT ( 'NONE',  ( 49.90000000000001279, 9.249999999999994671, 23.00000000000000355 ) ) ;
#990 = DIRECTION ( 'NONE',  ( 0.000000000000000000, 0.000000000000000000, 1.000000000000000000 ) ) ;
#991 = CARTESIAN_POINT ( 'NONE',  ( 57.30000000000000426, 45.89999999999999858, 27.00000000000000355 ) ) ;
#992 = VERTEX_POINT ( 'NONE', #780 ) ;
#993 = CARTESIAN_POINT ( 'NONE',  ( 66.01390676354104414, -38.69999999999999574, 23.51443729458358689 ) ) ;
#994 = EDGE_LOOP ( 'NONE', ( #471, #196 ) ) ;
#995 = VECTOR ( 'NONE', #355, 1000.000000000000000 ) ;
#996 = VECTOR ( 'NONE', #227, 1000.000000000000000 ) ;
#997 = DIRECTION ( 'NONE',  ( -1.734723475976807094E-15, 0.000000000000000000, -1.000000000000000000 ) ) ;
#998 = VECTOR ( 'NONE', #899, 1000.000000000000000 ) ;
#999 = DIRECTION ( 'NONE',  ( -0.000000000000000000, -0.000000000000000000, 1.000000000000000000 ) ) ;
#1000 = EDGE_CURVE ( 'NONE', #992, #235, #774, .T. ) ;
#1001 = EDGE_LOOP ( 'NONE', ( #783, #709 ) ) ;
#1002 = LINE ( 'NONE', #622, #1141 ) ;
#1003 = ORIENTED_EDGE ( 'NONE', *, *, #804, .F. ) ;
#1004 = FACE_OUTER_BOUND ( 'NONE', #28, .T. ) ;
#1005 = EDGE_CURVE ( 'NONE', #1299, #992, #207, .T. ) ;
#1006 = ORIENTED_EDGE ( 'NONE', *, *, #317, .T. ) ;
#1007 = ORIENTED_EDGE ( 'NONE', *, *, #338, .T. ) ;
#1008 = DIRECTION ( 'NONE',  ( 0.000000000000000000, -0.000000000000000000, -1.000000000000000000 ) ) ;
#1009 = DIRECTION ( 'NONE',  ( 0.000000000000000000, 0.000000000000000000, 1.000000000000000000 ) ) ;
#1010 = VERTEX_POINT ( 'NONE', #576 ) ;
#1011 = LINE ( 'NONE', #212, #140 ) ;
#1012 = DIRECTION ( 'NONE',  ( 1.000000000000000000, 0.000000000000000000, 0.000000000000000000 ) ) ;
#1013 = ORIENTED_EDGE ( 'NONE', *, *, #721, .F. ) ;
#1014 = EDGE_CURVE ( 'NONE', #755, #1114, #373, .T. ) ;
#1015 = AXIS2_PLACEMENT_3D ( 'NONE', #469, #867, #1280 ) ;
#1016 = AXIS2_PLACEMENT_3D ( 'NONE', #1201, #679, #874 ) ;
#1017 = VECTOR ( 'NONE', #25, 1000.000000000000114 ) ;
#1018 = LINE ( 'NONE', #14, #998 ) ;
#1019 = AXIS2_PLACEMENT_3D ( 'NONE', #591, #1192, #87 ) ;
#1020 = PLANE ( 'NONE',  #1244 ) ;
#1021 = SURFACE_STYLE_USAGE ( .BOTH. , #1197 ) ;
#1022 = EDGE_CURVE ( 'NONE', #523, #1049, #932, .T. ) ;
#1023 = FACE_OUTER_BOUND ( 'NONE', #181, .T. ) ;
#1024 = CARTESIAN_POINT ( 'NONE',  ( 11.00000000000000178, 3.600000000000000089, -9.540979117872423242E-15 ) ) ;
#1025 = DIRECTION ( 'NONE',  ( -0.000000000000000000, 1.000000000000000000, -0.000000000000000000 ) ) ;
#1026 = FILL_AREA_STYLE_COLOUR ( '', #538 ) ;
#1027 = LINE ( 'NONE', #130, #155 ) ;
#1028 = ORIENTED_EDGE ( 'NONE', *, *, #126, .F. ) ;
#1029 = CARTESIAN_POINT ( 'NONE',  ( 7.500000000000007105, 3.600000000000000089, 18.50000000000000000 ) ) ;
#1030 = EDGE_CURVE ( 'NONE', #52, #962, #278, .T. ) ;
#1031 = CARTESIAN_POINT ( 'NONE',  ( 18.99999999999999289, 45.89999999999999858, -1.647987302177963269E-14 ) ) ;
#1032 = FACE_BOUND ( 'NONE', #854, .T. ) ;
#1033 = DIRECTION ( 'NONE',  ( 0.000000000000000000, 1.000000000000000000, 0.000000000000000000 ) ) ;
#1034 = ORIENTED_EDGE ( 'NONE', *, *, #584, .F. ) ;
#1035 = AXIS2_PLACEMENT_3D ( 'NONE', #629, #1025, #48 ) ;
#1036 = CARTESIAN_POINT ( 'NONE',  ( 66.01390676354104414, 3.600000000000000089, 23.51443729458358689 ) ) ;
#1037 = CIRCLE ( 'NONE', #349, 1.749999999999998002 ) ;
#1038 = EDGE_CURVE ( 'NONE', #149, #819, #289, .T. ) ;
#1039 = CARTESIAN_POINT ( 'NONE',  ( 7.500000000000007105, 0.6000000000000007550, 15.75000000000000000 ) ) ;
#1040 = CYLINDRICAL_SURFACE ( 'NONE', #1101, 5.000000000000002665 ) ;
#1041 = VECTOR ( 'NONE', #1305, 999.9999999999998863 ) ;
#1042 = AXIS2_PLACEMENT_3D ( 'NONE', #345, #683, #762 ) ;
#1043 = VERTEX_POINT ( 'NONE', #1285 ) ;
#1044 = CARTESIAN_POINT ( 'NONE',  ( 64.80000000000001137, 3.600000000000000089, 13.50000000000000000 ) ) ;
#1045 = CARTESIAN_POINT ( 'NONE',  ( 72.30000000000001137, 3.600000000000000089, 14.22967038573098897 ) ) ;
#1046 = ORIENTED_EDGE ( 'NONE', *, *, #364, .F. ) ;
#1047 = CARTESIAN_POINT ( 'NONE',  ( 53.29999999999997584, 45.90000000000001990, 27.00000000000000000 ) ) ;
#1048 = LINE ( 'NONE', #146, #1052 ) ;
#1049 = VERTEX_POINT ( 'NONE', #989 ) ;
#1050 = VERTEX_POINT ( 'NONE', #484 ) ;
#1051 = EDGE_CURVE ( 'NONE', #1010, #715, #272, .T. ) ;
#1052 = VECTOR ( 'NONE', #552, 1000.000000000000000 ) ;
#1053 = DIRECTION ( 'NONE',  ( 1.000000000000000000, 0.000000000000000000, 0.000000000000000000 ) ) ;
#1054 = DIRECTION ( 'NONE',  ( 8.673617379884020681E-16, -0.000000000000000000, 1.000000000000000000 ) ) ;
#1055 = ORIENTED_EDGE ( 'NONE', *, *, #482, .F. ) ;
#1056 = ADVANCED_FACE ( 'NONE', ( #768 ), #68, .F. ) ;
#1057 = LINE ( 'NONE', #1153, #619 ) ;
#1058 = CARTESIAN_POINT ( 'NONE',  ( 51.65000000000001279, 9.249999999999994671, 27.00000000000000000 ) ) ;
#1059 = ORIENTED_EDGE ( 'NONE', *, *, #271, .F. ) ;
#1060 = DIRECTION ( 'NONE',  ( -0.6804138174397680316, 0.6804138174397758032, 0.2721655269759072349 ) ) ;
#1061 = CARTESIAN_POINT ( 'NONE',  ( 53.40000000000001990, 40.24999999999999289, 23.00000000000000355 ) ) ;
#1062 = ORIENTED_EDGE ( 'NONE', *, *, #152, .T. ) ;
#1063 = CARTESIAN_POINT ( 'NONE',  ( 15.00000000000001066, 3.600000000000000089, 23.00000000000000000 ) ) ;
#1064 = DIRECTION ( 'NONE',  ( 1.000000000000000000, 0.000000000000000000, 0.000000000000000000 ) ) ;
#1065 = CARTESIAN_POINT ( 'NONE',  ( 0.000000000000000000, 3.600000000000000089, 0.000000000000000000 ) ) ;
#1066 = DIRECTION ( 'NONE',  ( -0.000000000000000000, -1.000000000000000000, -0.000000000000000000 ) ) ;
#1067 = EDGE_CURVE ( 'NONE', #141, #1234, #948, .T. ) ;
#1068 = VERTEX_POINT ( 'NONE', #1190 ) ;
#1069 = CARTESIAN_POINT ( 'NONE',  ( 0.000000000000000000, 0.000000000000000000, 0.000000000000000000 ) ) ;
#1070 = ORIENTED_EDGE ( 'NONE', *, *, #526, .T. ) ;
#1071 = CARTESIAN_POINT ( 'NONE',  ( 57.30000000000000426, 41.89999999999997726, 27.00000000000000355 ) ) ;
#1072 = CARTESIAN_POINT ( 'NONE',  ( 51.65000000000001279, 40.24999999999999289, -15.29999999999999716 ) ) ;
#1073 = CARTESIAN_POINT ( 'NONE',  ( 15.00000000000001421, 7.600000000000030731, 27.00000000000000711 ) ) ;
#1074 = EDGE_CURVE ( 'NONE', #670, #359, #873, .T. ) ;
#1075 = ORIENTED_EDGE ( 'NONE', *, *, #838, .T. ) ;
#1076 = LINE ( 'NONE', #976, #890 ) ;
#1077 = AXIS2_PLACEMENT_3D ( 'NONE', #279, #789, #305 ) ;
#1078 = AXIS2_PLACEMENT_3D ( 'NONE', #268, #693, #190 ) ;
#1079 = EDGE_LOOP ( 'NONE', ( #539, #80 ) ) ;
#1080 = LINE ( 'NONE', #980, #182 ) ;
#1081 = STYLED_ITEM ( 'NONE', ( #7 ), #794 ) ;
#1082 = AXIS2_PLACEMENT_3D ( 'NONE', #530, #738, #38 ) ;
#1083 = LINE ( 'NONE', #697, #159 ) ;
#1084 = AXIS2_PLACEMENT_3D ( 'NONE', #1105, #219, #724 ) ;
#1085 = DIRECTION ( 'NONE',  ( 1.000000000000000000, 0.000000000000000000, 0.000000000000000000 ) ) ;
#1086 = ORIENTED_EDGE ( 'NONE', *, *, #1038, .F. ) ;
#1087 = EDGE_CURVE ( 'NONE', #816, #370, #1274, .T. ) ;
#1088 = DIRECTION ( 'NONE',  ( -0.000000000000000000, 1.000000000000000000, -0.000000000000000000 ) ) ;
#1089 = EDGE_LOOP ( 'NONE', ( #390, #198, #64, #1202 ) ) ;
#1090 = EDGE_CURVE ( 'NONE', #307, #110, #304, .T. ) ;
#1091 = CARTESIAN_POINT ( 'NONE',  ( 49.90000000000001279, 40.24999999999999289, -15.29999999999999716 ) ) ;
#1092 = DIRECTION ( 'NONE',  ( -0.000000000000000000, -0.000000000000000000, 1.000000000000000000 ) ) ;
#1093 = ORIENTED_EDGE ( 'NONE', *, *, #192, .F. ) ;
#1094 = DIRECTION ( 'NONE',  ( 0.7071067811865439090, 0.7071067811865512365, 5.799691410622664055E-17 ) ) ;
#1095 = ORIENTED_EDGE ( 'NONE', *, *, #330, .T. ) ;
#1096 = EDGE_CURVE ( 'NONE', #1115, #1109, #1083, .T. ) ;
#1097 = UNCERTAINTY_MEASURE_WITH_UNIT (LENGTH_MEASURE( 1.000000000000000082E-05 ), #1273, 'distance_accuracy_value', 'NONE');
#1098 = CARTESIAN_POINT ( 'NONE',  ( 10.00000000000000178, 3.600000000000000089, 14.22967038573099074 ) ) ;
#1099 = CYLINDRICAL_SURFACE ( 'NONE', #331, 4.999999999999999112 ) ;
#1100 = VERTEX_POINT ( 'NONE', #891 ) ;
#1101 = AXIS2_PLACEMENT_3D ( 'NONE', #1235, #837, #522 ) ;
#1102 = ORIENTED_EDGE ( 'NONE', *, *, #1129, .F. ) ;
#1103 = CIRCLE ( 'NONE', #1077, 4.999999999999999112 ) ;
#1104 = ADVANCED_FACE ( 'NONE', ( #103 ), #396, .F. ) ;
#1105 = CARTESIAN_POINT ( 'NONE',  ( 20.65000000000001634, 40.24999999999999289, 23.00000000000000355 ) ) ;
#1106 = VECTOR ( 'NONE', #1182, 1000.000000000000000 ) ;
#1107 = CARTESIAN_POINT ( 'NONE',  ( 15.00000000000001066, 45.89999999999999858, 23.00000000000000000 ) ) ;
#1108 = CIRCLE ( 'NONE', #1084, 1.749999999999998002 ) ;
#1109 = VERTEX_POINT ( 'NONE', #77 ) ;
#1110 = CARTESIAN_POINT ( 'NONE',  ( 18.90000000000001634, 40.24999999999999289, -15.29999999999999716 ) ) ;
#1111 = ORIENTED_EDGE ( 'NONE', *, *, #799, .T. ) ;
#1112 = CARTESIAN_POINT ( 'NONE',  ( 61.29999999999994742, 3.600000000000000089, -1.063385490773781865E-13 ) ) ;
#1113 = EDGE_CURVE ( 'NONE', #759, #435, #501, .T. ) ;
#1114 = VERTEX_POINT ( 'NONE', #589 ) ;
#1115 = VERTEX_POINT ( 'NONE', #474 ) ;
#1116 = FACE_BOUND ( 'NONE', #1155, .T. ) ;
#1117 = DIRECTION ( 'NONE',  ( 1.734723475976807094E-15, 0.000000000000000000, 1.000000000000000000 ) ) ;
#1118 = ORIENTED_EDGE ( 'NONE', *, *, #40, .T. ) ;
#1119 = CARTESIAN_POINT ( 'NONE',  ( 22.40000000000001279, 40.24999999999999289, 23.00000000000000355 ) ) ;
#1120 = EDGE_CURVE ( 'NONE', #1251, #759, #829, .T. ) ;
#1121 = DIRECTION ( 'NONE',  ( 0.000000000000000000, -0.000000000000000000, 1.000000000000000000 ) ) ;
#1122 = AXIS2_PLACEMENT_3D ( 'NONE', #1239, #747, #939 ) ;
#1123 = PLANE ( 'NONE',  #231 ) ;
#1124 = VECTOR ( 'NONE', #1215, 1000.000000000000000 ) ;
#1125 = EDGE_LOOP ( 'NONE', ( #1013, #341, #303, #1093 ) ) ;
#1126 = VECTOR ( 'NONE', #1117, 1000.000000000000000 ) ;
#1127 = CARTESIAN_POINT ( 'NONE',  ( 72.29999999999999716, 3.600000000000000089, 6.000000000000000000 ) ) ;
#1128 = LINE ( 'NONE', #421, #535 ) ;
#1129 = EDGE_CURVE ( 'NONE', #1209, #51, #1018, .T. ) ;
#1130 = EDGE_LOOP ( 'NONE', ( #656, #922, #312, #1252 ) ) ;
#1131 = DIRECTION ( 'NONE',  ( 1.000000000000000000, 0.000000000000000000, 8.202002250481360014E-17 ) ) ;
#1132 = FACE_OUTER_BOUND ( 'NONE', #895, .T. ) ;
#1133 = ORIENTED_EDGE ( 'NONE', *, *, #950, .F. ) ;
#1134 = EDGE_CURVE ( 'NONE', #189, #1050, #120, .T. ) ;
#1135 = SHAPE_DEFINITION_REPRESENTATION ( #943, #1307 ) ;
#1136 = DIRECTION ( 'NONE',  ( -1.000000000000000000, -0.000000000000000000, -0.000000000000000000 ) ) ;
#1137 = DIRECTION ( 'NONE',  ( 0.000000000000000000, 1.000000000000000000, 0.000000000000000000 ) ) ;
#1138 = CARTESIAN_POINT ( 'NONE',  ( 72.29999999999999716, 3.600000000000000089, 12.77032961426900393 ) ) ;
#1139 = VERTEX_POINT ( 'NONE', #1212 ) ;
#1140 = ADVANCED_FACE ( 'NONE', ( #1004 ), #403, .F. ) ;
#1141 = VECTOR ( 'NONE', #12, 1000.000000000000114 ) ;
#1142 = EDGE_CURVE ( 'NONE', #1271, #51, #647, .T. ) ;
#1143 = DIRECTION ( 'NONE',  ( 8.673617379884020681E-16, 0.000000000000000000, 1.000000000000000000 ) ) ;
#1144 = AXIS2_PLACEMENT_3D ( 'NONE', #705, #987, #898 ) ;
#1145 = CARTESIAN_POINT ( 'NONE',  ( 15.00000000000001421, 3.600000000000000089, 27.00000000000000711 ) ) ;
#1146 = CIRCLE ( 'NONE', #448, 10.00000000000000000 ) ;
#1147 = DIRECTION ( 'NONE',  ( 1.000000000000000000, 0.000000000000000000, -8.673617379884020681E-16 ) ) ;
#1148 = CARTESIAN_POINT ( 'NONE',  ( 53.40000000000001990, 40.24999999999999289, -15.29999999999999716 ) ) ;
#1149 = CARTESIAN_POINT ( 'NONE',  ( 72.30000000000001137, 3.600000000000000089, 14.22967038573098897 ) ) ;
#1150 = EDGE_CURVE ( 'NONE', #759, #1251, #1108, .T. ) ;
#1151 = ORIENTED_EDGE ( 'NONE', *, *, #317, .F. ) ;
#1152 = EDGE_LOOP ( 'NONE', ( #415, #422, #128, #1075, #203, #386, #1214, #211 ) ) ;
#1153 = CARTESIAN_POINT ( 'NONE',  ( 15.00000000000001421, 45.89999999999999858, 27.00000000000000711 ) ) ;
#1154 = FACE_OUTER_BOUND ( 'NONE', #504, .T. ) ;
#1155 = EDGE_LOOP ( 'NONE', ( #771, #884 ) ) ;
#1156 = LINE ( 'NONE', #985, #767 ) ;
#1157 = CARTESIAN_POINT ( 'NONE',  ( 62.30000000000001137, 0.000000000000000000, 14.22967038573099430 ) ) ;
#1158 =( NAMED_UNIT ( * ) PLANE_ANGLE_UNIT ( ) SI_UNIT ( $, .RADIAN. ) );
#1159 = ORIENTED_EDGE ( 'NONE', *, *, #545, .F. ) ;
#1160 = DIRECTION ( 'NONE',  ( -1.201342045718669925E-16, 0.000000000000000000, -1.000000000000000000 ) ) ;
#1161 = AXIS2_PLACEMENT_3D ( 'NONE', #542, #831, #825 ) ;
#1162 = LINE ( 'NONE', #351, #311 ) ;
#1163 = AXIS2_PLACEMENT_3D ( 'NONE', #19, #135, #924 ) ;
#1164 = DIRECTION ( 'NONE',  ( 0.9284766908852594147, 0.000000000000000000, -0.3713906763541034994 ) ) ;
#1165 = CIRCLE ( 'NONE', #492, 10.00000000000000000 ) ;
#1166 = ORIENTED_EDGE ( 'NONE', *, *, #545, .T. ) ;
#1167 = ORIENTED_EDGE ( 'NONE', *, *, #472, .T. ) ;
#1168 = CARTESIAN_POINT ( 'NONE',  ( 7.500000000000007994, 3.600000000000000089, 8.500000000000000000 ) ) ;
#1169 = CARTESIAN_POINT ( 'NONE',  ( 22.40000000000001279, 40.24999999999999289, -15.29999999999999716 ) ) ;
#1170 = CARTESIAN_POINT ( 'NONE',  ( 19.00000000000000355, 45.89999999999998437, 23.00000000000000000 ) ) ;
#1171 = PLANE ( 'NONE',  #1015 ) ;
#1172 = ORIENTED_EDGE ( 'NONE', *, *, #746, .F. ) ;
#1173 = ORIENTED_EDGE ( 'NONE', *, *, #1087, .T. ) ;
#1174 = ADVANCED_FACE ( 'NONE', ( #711, #720 ), #1123, .F. ) ;
#1175 = CARTESIAN_POINT ( 'NONE',  ( 51.65000000000001279, 40.24999999999999289, 23.00000000000000355 ) ) ;
#1176 = LINE ( 'NONE', #712, #620 ) ;
#1177 = DIRECTION ( 'NONE',  ( -5.139921410301650796E-16, -0.000000000000000000, -1.000000000000000000 ) ) ;
#1178 = ORIENTED_EDGE ( 'NONE', *, *, #330, .F. ) ;
#1179 = CARTESIAN_POINT ( 'NONE',  ( 53.40000000000001990, 9.249999999999994671, 23.00000000000000355 ) ) ;
#1180 = PLANE ( 'NONE',  #142 ) ;
#1181 = ORIENTED_EDGE ( 'NONE', *, *, #1150, .T. ) ;
#1182 = DIRECTION ( 'NONE',  ( -0.000000000000000000, 1.000000000000000000, -0.000000000000000000 ) ) ;
#1183 = EDGE_CURVE ( 'NONE', #235, #556, #1277, .T. ) ;
#1184 = CARTESIAN_POINT ( 'NONE',  ( 62.30000000000001137, 3.599999999999999201, 14.22967038573099430 ) ) ;
#1185 = PLANE ( 'NONE',  #44 ) ;
#1186 = ORIENTED_EDGE ( 'NONE', *, *, #5, .F. ) ;
#1187 = DIRECTION ( 'NONE',  ( -0.000000000000000000, 1.000000000000000000, -0.000000000000000000 ) ) ;
#1188 = FACE_OUTER_BOUND ( 'NONE', #682, .T. ) ;
#1189 = ORIENTED_EDGE ( 'NONE', *, *, #681, .F. ) ;
#1190 = CARTESIAN_POINT ( 'NONE',  ( 18.90000000000001634, 40.24999999999999289, 27.00000000000000000 ) ) ;
#1191 = EDGE_LOOP ( 'NONE', ( #1204, #239, #797, #637 ) ) ;
#1192 = DIRECTION ( 'NONE',  ( -8.202002250481360014E-17, 0.000000000000000000, 1.000000000000000000 ) ) ;
#1193 = EDGE_LOOP ( 'NONE', ( #86, #1034 ) ) ;
#1194 = DIRECTION ( 'NONE',  ( -0.7071067811865486830, -0.7071067811865464625, 1.226634733346701283E-15 ) ) ;
#1195 = DIRECTION ( 'NONE',  ( -0.000000000000000000, 1.000000000000000000, 0.000000000000000000 ) ) ;
#1196 = ORIENTED_EDGE ( 'NONE', *, *, #740, .T. ) ;
#1197 = SURFACE_SIDE_STYLE ('',( #424 ) ) ;
#1198 = VERTEX_POINT ( 'NONE', #132 ) ;
#1199 = UNCERTAINTY_MEASURE_WITH_UNIT (LENGTH_MEASURE( 1.000000000000000082E-05 ), #106, 'distance_accuracy_value', 'NONE');
#1200 = LINE ( 'NONE', #309, #498 ) ;
#1201 = CARTESIAN_POINT ( 'NONE',  ( 64.80000000000001137, 0.6000000000000003109, 13.50000000000000000 ) ) ;
#1202 = ORIENTED_EDGE ( 'NONE', *, *, #1284, .T. ) ;
#1203 = CIRCLE ( 'NONE', #1035, 2.250000000000000444 ) ;
#1204 = ORIENTED_EDGE ( 'NONE', *, *, #1142, .F. ) ;
#1205 = AXIS2_PLACEMENT_3D ( 'NONE', #673, #360, #449 ) ;
#1206 = CIRCLE ( 'NONE', #537, 2.250000000000000444 ) ;
#1207 = CARTESIAN_POINT ( 'NONE',  ( 66.01390676354105835, 0.000000000000000000, 23.51443729458359400 ) ) ;
#1208 = DIRECTION ( 'NONE',  ( -0.000000000000000000, 1.000000000000000000, -0.000000000000000000 ) ) ;
#1209 = VERTEX_POINT ( 'NONE', #416 ) ;
#1210 = PLANE ( 'NONE',  #446 ) ;
#1211 = ORIENTED_EDGE ( 'NONE', *, *, #45, .T. ) ;
#1212 = CARTESIAN_POINT ( 'NONE',  ( 53.29999999999998295, 45.89999999999999858, 23.00000000000000355 ) ) ;
#1213 = EDGE_CURVE ( 'NONE', #435, #1068, #517, .T. ) ;
#1214 = ORIENTED_EDGE ( 'NONE', *, *, #790, .F. ) ;
#1215 = DIRECTION ( 'NONE',  ( -0.000000000000000000, 1.000000000000000000, -0.000000000000000000 ) ) ;
#1216 = ORIENTED_EDGE ( 'NONE', *, *, #627, .F. ) ;
#1217 = CARTESIAN_POINT ( 'NONE',  ( 64.80000000000001137, 3.600000000000000089, 13.50000000000000000 ) ) ;
#1218 = ADVANCED_FACE ( 'NONE', ( #127 ), #916, .F. ) ;
#1219 = DIRECTION ( 'NONE',  ( -0.000000000000000000, -0.000000000000000000, 1.000000000000000000 ) ) ;
#1220 = FACE_OUTER_BOUND ( 'NONE', #241, .T. ) ;
#1221 = EDGE_CURVE ( 'NONE', #60, #1198, #335, .T. ) ;
#1222 = CARTESIAN_POINT ( 'NONE',  ( 49.90000000000001279, 9.249999999999994671, 27.00000000000000000 ) ) ;
#1223 = AXIS2_PLACEMENT_3D ( 'NONE', #674, #570, #280 ) ;
#1224 = CARTESIAN_POINT ( 'NONE',  ( 7.500000000000007105, 3.600000000000000089, 15.75000000000000000 ) ) ;
#1225 = AXIS2_PLACEMENT_3D ( 'NONE', #991, #429, #1233 ) ;
#1226 = CARTESIAN_POINT ( 'NONE',  ( 51.65000000000001279, 40.24999999999999289, 27.00000000000000000 ) ) ;
#1227 = AXIS2_PLACEMENT_3D ( 'NONE', #93, #687, #706 ) ;
#1228 = CYLINDRICAL_SURFACE ( 'NONE', #1243, 1.749999999999998002 ) ;
#1229 = FACE_BOUND ( 'NONE', #326, .T. ) ;
#1230 = DIRECTION ( 'NONE',  ( 0.9284766908852594147, 0.000000000000000000, -0.3713906763541034994 ) ) ;
#1231 = EDGE_CURVE ( 'NONE', #736, #793, #297, .T. ) ;
#1232 = CARTESIAN_POINT ( 'NONE',  ( 15.00000000000001421, -38.69999999999999574, 27.00000000000000711 ) ) ;
#1233 = DIRECTION ( 'NONE',  ( 1.734723475976807094E-15, 0.000000000000000000, 1.000000000000000000 ) ) ;
#1234 = VERTEX_POINT ( 'NONE', #236 ) ;
#1235 = CARTESIAN_POINT ( 'NONE',  ( 64.80000000000001137, 3.600000000000000089, 13.50000000000000000 ) ) ;
#1236 = EDGE_CURVE ( 'NONE', #1234, #715, #1200, .T. ) ;
#1237 = ORIENTED_EDGE ( 'NONE', *, *, #716, .F. ) ;
#1238 = CARTESIAN_POINT ( 'NONE',  ( 51.65000000000001279, 40.24999999999999289, 27.00000000000000000 ) ) ;
#1239 = CARTESIAN_POINT ( 'NONE',  ( 20.65000000000001634, 9.249999999999994671, 27.00000000000000000 ) ) ;
#1240 = VERTEX_POINT ( 'NONE', #1207 ) ;
#1241 = LINE ( 'NONE', #1145, #553 ) ;
#1242 = ORIENTED_EDGE ( 'NONE', *, *, #240, .F. ) ;
#1243 = AXIS2_PLACEMENT_3D ( 'NONE', #821, #1219, #725 ) ;
#1244 = AXIS2_PLACEMENT_3D ( 'NONE', #1031, #418, #1143 ) ;
#1245 = AXIS2_PLACEMENT_3D ( 'NONE', #1072, #1092, #626 ) ;
#1246 = EDGE_CURVE ( 'NONE', #1100, #778, #318, .T. ) ;
#1247 = VECTOR ( 'NONE', #1094, 1000.000000000000000 ) ;
#1248 = DIRECTION ( 'NONE',  ( -0.000000000000000000, -1.000000000000000000, -0.000000000000000000 ) ) ;
#1249 = DIRECTION ( 'NONE',  ( -0.9284766908852593037, 0.000000000000000000, 0.3713906763541036660 ) ) ;
#1250 = CIRCLE ( 'NONE', #892, 1.749999999999998002 ) ;
#1251 = VERTEX_POINT ( 'NONE', #541 ) ;
#1252 = ORIENTED_EDGE ( 'NONE', *, *, #1275, .T. ) ;
#1253 = ADVANCED_FACE ( 'NONE', ( #661 ), #1180, .F. ) ;
#1254 = CARTESIAN_POINT ( 'NONE',  ( 22.40000000000001279, 9.249999999999994671, 27.00000000000000000 ) ) ;
#1255 = DIRECTION ( 'NONE',  ( 0.3713906763541034994, 0.000000000000000000, 0.9284766908852594147 ) ) ;
#1256 = EDGE_LOOP ( 'NONE', ( #753, #172, #1159, #1290 ) ) ;
#1257 = DIRECTION ( 'NONE',  ( -0.000000000000000000, 1.000000000000000000, -0.000000000000000000 ) ) ;
#1258 = ORIENTED_EDGE ( 'NONE', *, *, #72, .F. ) ;
#1259 = CARTESIAN_POINT ( 'NONE',  ( 15.00000000000001421, 45.89999999999999858, 27.00000000000000711 ) ) ;
#1260 = CARTESIAN_POINT ( 'NONE',  ( 1.534153390330764715E-15, 3.600000000000000089, 12.77032961426901103 ) ) ;
#1261 = ORIENTED_EDGE ( 'NONE', *, *, #633, .F. ) ;
#1262 = EDGE_CURVE ( 'NONE', #1049, #237, #139, .T. ) ;
#1263 = CARTESIAN_POINT ( 'NONE',  ( 66.01390676354104414, 0.000000000000000000, 3.485562705416417550 ) ) ;
#1264 = ORIENTED_EDGE ( 'NONE', *, *, #1213, .T. ) ;
#1265 = DIRECTION ( 'NONE',  ( -0.000000000000000000, -0.000000000000000000, 1.000000000000000000 ) ) ;
#1266 = CARTESIAN_POINT ( 'NONE',  ( 15.00000000000001066, 7.600000000000030731, 23.00000000000000000 ) ) ;
#1267 = CIRCLE ( 'NONE', #118, 1.749999999999998002 ) ;
#1268 = FACE_BOUND ( 'NONE', #43, .T. ) ;
#1269 = LINE ( 'NONE', #455, #970 ) ;
#1270 = AXIS2_PLACEMENT_3D ( 'NONE', #76, #47, #1160 ) ;
#1271 = VERTEX_POINT ( 'NONE', #1263 ) ;
#1272 = MECHANICAL_DESIGN_GEOMETRIC_PRESENTATION_REPRESENTATION (  '', ( #1081 ), #388 ) ;
#1273 =( LENGTH_UNIT ( ) NAMED_UNIT ( * ) SI_UNIT ( .MILLI., .METRE. ) );
#1274 = CIRCLE ( 'NONE', #369, 2.250000000000000444 ) ;
#1275 = EDGE_CURVE ( 'NONE', #556, #235, #102, .T. ) ;
#1276 = CARTESIAN_POINT ( 'NONE',  ( 17.00000000000024514, 47.90000000000020464, 23.00000000000000000 ) ) ;
#1277 = CIRCLE ( 'NONE', #843, 1.750000000000001554 ) ;
#1278 = DIRECTION ( 'NONE',  ( 0.000000000000000000, 1.000000000000000000, 0.000000000000000000 ) ) ;
#1279 = CYLINDRICAL_SURFACE ( 'NONE', #1245, 1.750000000000001554 ) ;
#1280 = DIRECTION ( 'NONE',  ( 0.000000000000000000, -0.000000000000000000, -1.000000000000000000 ) ) ;
#1281 = ORIENTED_EDGE ( 'NONE', *, *, #1231, .F. ) ;
#1282 = ORIENTED_EDGE ( 'NONE', *, *, #937, .F. ) ;
#1283 = DIRECTION ( 'NONE',  ( -0.000000000000000000, 1.000000000000000000, -0.000000000000000000 ) ) ;
#1284 = EDGE_CURVE ( 'NONE', #962, #813, #603, .T. ) ;
#1285 = CARTESIAN_POINT ( 'NONE',  ( 64.80000000000001137, 0.000000000000000000, 11.24999999999999822 ) ) ;
#1286 = LINE ( 'NONE', #982, #444 ) ;
#1287 = FACE_OUTER_BOUND ( 'NONE', #904, .T. ) ;
#1288 = ORIENTED_EDGE ( 'NONE', *, *, #782, .F. ) ;
#1289 = LINE ( 'NONE', #479, #1041 ) ;
#1290 = ORIENTED_EDGE ( 'NONE', *, *, #1074, .T. ) ;
#1291 = CARTESIAN_POINT ( 'NONE',  ( 20.65000000000001634, 40.24999999999999289, 23.00000000000000355 ) ) ;
#1292 = CARTESIAN_POINT ( 'NONE',  ( 7.500000000000007105, 3.600000000000000089, 11.25000000000000178 ) ) ;
#1293 = AXIS2_PLACEMENT_3D ( 'NONE', #352, #264, #748 ) ;
#1294 = VECTOR ( 'NONE', #273, 999.9999999999998863 ) ;
#1295 = ORIENTED_EDGE ( 'NONE', *, *, #75, .T. ) ;
#1296 = CARTESIAN_POINT ( 'NONE',  ( 15.00000000000001421, 7.600000000000030731, 27.00000000000000711 ) ) ;
#1297 = CARTESIAN_POINT ( 'NONE',  ( 10.00000000000000178, 0.000000000000000000, 14.22967038573099074 ) ) ;
#1298 = AXIS2_PLACEMENT_3D ( 'NONE', #534, #730, #1131 ) ;
#1299 = VERTEX_POINT ( 'NONE', #1061 ) ;
#1300 = DIRECTION ( 'NONE',  ( 1.201342045718669925E-16, 0.000000000000000000, 1.000000000000000000 ) ) ;
#1301 = LINE ( 'NONE', #883, #69 ) ;
#1302 = ADVANCED_FACE ( 'NONE', ( #284 ), #735, .F. ) ;
#1303 = VERTEX_POINT ( 'NONE', #639 ) ;
#1304 = DIRECTION ( 'NONE',  ( -0.000000000000000000, -1.000000000000000000, -0.000000000000000000 ) ) ;
#1305 = DIRECTION ( 'NONE',  ( 0.7071067811865464625, -0.7071067811865486830, 5.799691410622686242E-17 ) ) ;
#1306 = ORIENTED_EDGE ( 'NONE', *, *, #192, .T. ) ;
#1307 = ADVANCED_BREP_SHAPE_REPRESENTATION ( 'ARP-0090', ( #794, #209 ), #353 ) ;
#1308 = DIRECTION ( 'NONE',  ( 1.000000000000000000, 0.000000000000000000, 0.000000000000000000 ) ) ;
#1309 = DIRECTION ( 'NONE',  ( 0.9284766908852594147, -0.000000000000000000, -0.3713906763541034439 ) ) ;
ENDSEC;
END-ISO-10303-21;
