ISO-10303-21;
HEADER;
FILE_DESCRIPTION (( 'STEP AP214' ),
    '1' );
FILE_NAME ('ARP-0013.STEP',
    '2026-09-03T08:50:44',
    ( '' ),
    ( '' ),
    'SwSTEP 2.0',
    'SolidWorks 2024',
    '' );
FILE_SCHEMA (( 'AUTOMOTIVE_DESIGN' ));
ENDSEC;

DATA;
#1 = DIRECTION ( 'NONE',  ( -0.000000000000000000, -0.000000000000000000, -1.000000000000000000 ) ) ;
#2 = CARTESIAN_POINT ( 'NONE',  ( -22.50000000000000000, 0.000000000000000000, 39.00000000000000000 ) ) ;
#3 = AXIS2_PLACEMENT_3D ( 'NONE', #678, #198, #95 ) ;
#4 = CARTESIAN_POINT ( 'NONE',  ( 0.000000000000000000, 0.000000000000000000, 0.000000000000000000 ) ) ;
#5 = VERTEX_POINT ( 'NONE', #544 ) ;
#6 = EDGE_LOOP ( 'NONE', ( #328, #160, #587, #211 ) ) ;
#7 = DIRECTION ( 'NONE',  ( 0.06651901052377399981, -0.9977851578566090396, 0.000000000000000000 ) ) ;
#8 = ORIENTED_EDGE ( 'NONE', *, *, #181, .F. ) ;
#9 = FACE_OUTER_BOUND ( 'NONE', #218, .T. ) ;
#10 = EDGE_LOOP ( 'NONE', ( #549, #420, #44, #597 ) ) ;
#11 = CARTESIAN_POINT ( 'NONE',  ( -19.99667036216270333, 14.99999999999999822, 39.00000000000000000 ) ) ;
#12 = ORIENTED_EDGE ( 'NONE', *, *, #671, .F. ) ;
#13 = EDGE_LOOP ( 'NONE', ( #8, #115, #339, #490 ) ) ;
#14 = EDGE_CURVE ( 'NONE', #583, #332, #533, .T. ) ;
#15 = CARTESIAN_POINT ( 'NONE',  ( 22.50000000000000000, -1.497674184614240878E-15, 37.50000000000000000 ) ) ;
#16 = VECTOR ( 'NONE', #1, 1000.000000000000000 ) ;
#17 = ORIENTED_EDGE ( 'NONE', *, *, #266, .T. ) ;
#18 = VECTOR ( 'NONE', #615, 1000.000000000000000 ) ;
#19 = ADVANCED_FACE ( 'NONE', ( #601 ), #393, .F. ) ;
#20 = ORIENTED_EDGE ( 'NONE', *, *, #337, .F. ) ;
#21 = CARTESIAN_POINT ( 'NONE',  ( 21.50000000000000000, 14.99999999999999822, 1.500000000000001332 ) ) ;
#22 = EDGE_CURVE ( 'NONE', #255, #527, #82, .T. ) ;
#23 = ORIENTED_EDGE ( 'NONE', *, *, #661, .F. ) ;
#24 = EDGE_CURVE ( 'NONE', #110, #5, #121, .T. ) ;
#25 = FACE_BOUND ( 'NONE', #481, .T. ) ;
#26 = CARTESIAN_POINT ( 'NONE',  ( -22.50000000000000000, 0.000000000000000000, 37.50000000000000000 ) ) ;
#27 = ADVANCED_FACE ( 'NONE', ( #611 ), #345, .F. ) ;
#28 = CARTESIAN_POINT ( 'NONE',  ( 20.99667036216268912, 0.000000000000000000, 39.00000000000000000 ) ) ;
#29 = VECTOR ( 'NONE', #506, 1000.000000000000114 ) ;
#30 = CARTESIAN_POINT ( 'NONE',  ( -21.49999999999999645, 14.99999999999999822, 0.6213203435596438284 ) ) ;
#31 = CIRCLE ( 'NONE', #392, 8.500000000000000000 ) ;
#32 = EDGE_CURVE ( 'NONE', #433, #384, #280, .T. ) ;
#33 = DIRECTION ( 'NONE',  ( 0.9977851578566089286, -0.06651901052377398593, 0.000000000000000000 ) ) ;
#34 = LINE ( 'NONE', #567, #37 ) ;
#35 = EDGE_CURVE ( 'NONE', #335, #602, #548, .T. ) ;
#36 = DIRECTION ( 'NONE',  ( 0.000000000000000000, 0.000000000000000000, -1.000000000000000000 ) ) ;
#37 = VECTOR ( 'NONE', #312, 1000.000000000000000 ) ;
#38 = FACE_BOUND ( 'NONE', #54, .T. ) ;
#39 = DIRECTION ( 'NONE',  ( -0.000000000000000000, -1.000000000000000000, -0.000000000000000000 ) ) ;
#40 = DIRECTION ( 'NONE',  ( 1.334402673828313339E-16, -1.000000000000000000, 0.000000000000000000 ) ) ;
#41 = DIRECTION ( 'NONE',  ( -0.000000000000000000, -0.000000000000000000, -1.000000000000000000 ) ) ;
#42 = DIRECTION ( 'NONE',  ( 0.000000000000000000, 0.000000000000000000, -1.000000000000000000 ) ) ;
#43 = EDGE_CURVE ( 'NONE', #541, #636, #513, .T. ) ;
#44 = ORIENTED_EDGE ( 'NONE', *, *, #79, .F. ) ;
#45 = CARTESIAN_POINT ( 'NONE',  ( -15.50000000000000000, 0.000000000000000000, 27.00000000000000000 ) ) ;
#46 = VECTOR ( 'NONE', #434, 1000.000000000000000 ) ;
#47 = EDGE_LOOP ( 'NONE', ( #68, #471 ) ) ;
#48 = DIRECTION ( 'NONE',  ( 1.000000000000000000, 0.000000000000000000, 0.000000000000000000 ) ) ;
#49 = CARTESIAN_POINT ( 'NONE',  ( 15.50000000000000000, 14.99999999999999822, 3.000000000000009770 ) ) ;
#50 = ORIENTED_EDGE ( 'NONE', *, *, #301, .T. ) ;
#51 = DIRECTION ( 'NONE',  ( -0.000000000000000000, -0.000000000000000000, -1.000000000000000000 ) ) ;
#52 = LINE ( 'NONE', #267, #284 ) ;
#53 = PRODUCT_CONTEXT ( 'NONE', #396, 'mechanical' ) ;
#54 = EDGE_LOOP ( 'NONE', ( #656, #399 ) ) ;
#55 = ORIENTED_EDGE ( 'NONE', *, *, #364, .T. ) ;
#56 = DIRECTION ( 'NONE',  ( 0.06651901052377398593, 0.9977851578566089286, -0.000000000000000000 ) ) ;
#57 = VECTOR ( 'NONE', #56, 1000.000000000000114 ) ;
#58 = ORIENTED_EDGE ( 'NONE', *, *, #444, .F. ) ;
#59 = AXIS2_PLACEMENT_3D ( 'NONE', #195, #39, #256 ) ;
#60 = ORIENTED_EDGE ( 'NONE', *, *, #389, .T. ) ;
#61 = DIRECTION ( 'NONE',  ( 1.000000000000000000, 0.000000000000000000, 0.000000000000000000 ) ) ;
#62 = DIRECTION ( 'NONE',  ( -0.000000000000000000, -1.000000000000000000, -0.000000000000000000 ) ) ;
#63 = ORIENTED_EDGE ( 'NONE', *, *, #105, .F. ) ;
#64 = ORIENTED_EDGE ( 'NONE', *, *, #189, .F. ) ;
#65 = DIRECTION ( 'NONE',  ( 0.06651901052377398593, -0.9977851578566089286, -0.000000000000000000 ) ) ;
#66 = ORIENTED_EDGE ( 'NONE', *, *, #220, .T. ) ;
#67 = VERTEX_POINT ( 'NONE', #89 ) ;
#68 = ORIENTED_EDGE ( 'NONE', *, *, #346, .F. ) ;
#69 = VECTOR ( 'NONE', #265, 1000.000000000000000 ) ;
#70 = CARTESIAN_POINT ( 'NONE',  ( -20.87730047529036170, 14.99999999999999822, 1.139631772672268307E-15 ) ) ;
#71 = ORIENTED_EDGE ( 'NONE', *, *, #334, .F. ) ;
#72 = VERTEX_POINT ( 'NONE', #359 ) ;
#73 = DIRECTION ( 'NONE',  ( 1.000000000000000000, 0.000000000000000000, 0.000000000000000000 ) ) ;
#74 = CARTESIAN_POINT ( 'NONE',  ( -20.00332226321508600, 14.90022148421433634, 1.500000000000001332 ) ) ;
#75 = PRESENTATION_STYLE_ASSIGNMENT (( #134 ) ) ;
#76 = VECTOR ( 'NONE', #51, 1000.000000000000000 ) ;
#77 = FACE_BOUND ( 'NONE', #232, .T. ) ;
#78 = CARTESIAN_POINT ( 'NONE',  ( 15.50000000000000000, 14.99999999999999822, 7.500000000000003553 ) ) ;
#79 = EDGE_CURVE ( 'NONE', #390, #169, #194, .T. ) ;
#80 = SURFACE_STYLE_FILL_AREA ( #174 ) ;
#81 = CARTESIAN_POINT ( 'NONE',  ( -15.50000000000000000, 14.99999999999999822, 31.49999999999999289 ) ) ;
#82 = CIRCLE ( 'NONE', #494, 8.500000000000000000 ) ;
#83 = CARTESIAN_POINT ( 'NONE',  ( 21.50000000000000000, 14.99999999999999822, 37.50000000000000000 ) ) ;
#84 = CARTESIAN_POINT ( 'NONE',  ( 15.50000000000000000, -1.004210375300826519E-15, 7.500000000000003553 ) ) ;
#85 = CIRCLE ( 'NONE', #485, 4.499999999999993783 ) ;
#86 = CARTESIAN_POINT ( 'NONE',  ( 21.00332226321508600, -0.09977851578566100665, 1.500000000000001332 ) ) ;
#87 = DIRECTION ( 'NONE',  ( 1.000000000000000000, 0.000000000000000000, 0.000000000000000000 ) ) ;
#88 = AXIS2_PLACEMENT_3D ( 'NONE', #465, #302, #515 ) ;
#89 = CARTESIAN_POINT ( 'NONE',  ( 15.50000000000000000, -1.004210375300826519E-15, 3.000000000000012879 ) ) ;
#90 = PLANE ( 'NONE',  #239 ) ;
#91 = DIRECTION ( 'NONE',  ( -1.000000000000000000, 0.000000000000000000, 0.000000000000000000 ) ) ;
#92 = EDGE_LOOP ( 'NONE', ( #156, #592, #551, #647, #682, #66 ) ) ;
#93 = PRODUCT_DEFINITION_CONTEXT ( 'detailed design', #210, 'design' ) ;
#94 = CARTESIAN_POINT ( 'NONE',  ( 15.49999999999999822, 0.000000000000000000, 27.00000000000000711 ) ) ;
#95 = DIRECTION ( 'NONE',  ( 0.000000000000000000, 0.000000000000000000, -1.000000000000000000 ) ) ;
#96 = EDGE_LOOP ( 'NONE', ( #170, #17, #391, #63, #603, #327 ) ) ;
#97 = LINE ( 'NONE', #589, #69 ) ;
#98 = AXIS2_PLACEMENT_3D ( 'NONE', #621, #626, #619 ) ;
#99 = CARTESIAN_POINT ( 'NONE',  ( 15.50000000000000000, 0.000000000000000000, 3.000000000000009770 ) ) ;
#100 = AXIS2_PLACEMENT_3D ( 'NONE', #153, #478, #595 ) ;
#101 = VERTEX_POINT ( 'NONE', #145 ) ;
#102 = ADVANCED_FACE ( 'NONE', ( #251 ), #612, .T. ) ;
#103 = CARTESIAN_POINT ( 'NONE',  ( -15.50000000000000000, -1.004210375300826519E-15, 31.49999999999999289 ) ) ;
#104 = CARTESIAN_POINT ( 'NONE',  ( 19.90818951985225382, 16.32721263465682071, 0.000000000000000000 ) ) ;
#105 = EDGE_CURVE ( 'NONE', #540, #228, #31, .T. ) ;
#106 = DIRECTION ( 'NONE',  ( -0.000000000000000000, -1.000000000000000000, -0.000000000000000000 ) ) ;
#107 = ORIENTED_EDGE ( 'NONE', *, *, #679, .T. ) ;
#108 = LINE ( 'NONE', #325, #584 ) ;
#109 = EDGE_LOOP ( 'NONE', ( #367, #652 ) ) ;
#110 = VERTEX_POINT ( 'NONE', #557 ) ;
#111 = DIRECTION ( 'NONE',  ( -0.000000000000000000, -1.000000000000000000, -0.000000000000000000 ) ) ;
#112 = PRODUCT_DEFINITION_SHAPE ( 'NONE', 'NONE',  #450 ) ;
#113 = CARTESIAN_POINT ( 'NONE',  ( 20.87730047529036170, 14.99999999999999822, 1.462453441292942335E-15 ) ) ;
#114 = DIRECTION ( 'NONE',  ( 0.06651901052377398593, -0.9977851578566089286, 0.000000000000000000 ) ) ;
#115 = ORIENTED_EDGE ( 'NONE', *, *, #35, .F. ) ;
#116 = DIRECTION ( 'NONE',  ( 0.000000000000000000, 0.000000000000000000, 1.000000000000000000 ) ) ;
#117 = VECTOR ( 'NONE', #41, 1000.000000000000000 ) ;
#118 = ORIENTED_EDGE ( 'NONE', *, *, #528, .F. ) ;
#119 = CARTESIAN_POINT ( 'NONE',  ( -15.50000000000000000, -1.004210375300826519E-15, 7.500000000000000000 ) ) ;
#120 = ORIENTED_EDGE ( 'NONE', *, *, #628, .F. ) ;
#121 = CIRCLE ( 'NONE', #574, 4.499999999999990230 ) ;
#122 = CARTESIAN_POINT ( 'NONE',  ( 0.000000000000000000, 15.00000000000000355, 39.00000000000000000 ) ) ;
#123 = ADVANCED_FACE ( 'NONE', ( #77, #25, #236 ), #296, .F. ) ;
#124 = EDGE_LOOP ( 'NONE', ( #486, #269, #50, #489 ) ) ;
#125 = ORIENTED_EDGE ( 'NONE', *, *, #356, .T. ) ;
#126 = AXIS2_PLACEMENT_3D ( 'NONE', #103, #688, #368 ) ;
#127 = ORIENTED_EDGE ( 'NONE', *, *, #464, .F. ) ;
#128 = PLANE ( 'NONE',  #405 ) ;
#129 = EDGE_LOOP ( 'NONE', ( #118, #320 ) ) ;
#130 = CARTESIAN_POINT ( 'NONE',  ( 19.99667036216270688, 14.99999999999999822, 39.00000000000000000 ) ) ;
#131 = PLANE ( 'NONE',  #317 ) ;
#132 = ADVANCED_FACE ( 'NONE', ( #133 ), #664, .T. ) ;
#133 = FACE_OUTER_BOUND ( 'NONE', #92, .T. ) ;
#134 = SURFACE_STYLE_USAGE ( .BOTH. , #449 ) ;
#135 = CARTESIAN_POINT ( 'NONE',  ( 8.500000000000000000, 15.00000000000000000, 0.000000000000000000 ) ) ;
#136 = AXIS2_PLACEMENT_3D ( 'NONE', #305, #674, #36 ) ;
#137 = LINE ( 'NONE', #519, #635 ) ;
#138 = ADVANCED_FACE ( 'NONE', ( #9 ), #385, .F. ) ;
#139 = DIRECTION ( 'NONE',  ( -0.06651901052377398593, 0.9977851578566089286, 0.000000000000000000 ) ) ;
#140 = PLANE ( 'NONE',  #460 ) ;
#141 = CARTESIAN_POINT ( 'NONE',  ( 22.50000000000000000, 0.000000000000000000, 1.500000000000001332 ) ) ;
#142 = CARTESIAN_POINT ( 'NONE',  ( -19.90818951985225027, 16.32721263465682071, 0.000000000000000000 ) ) ;
#143 = FACE_OUTER_BOUND ( 'NONE', #395, .T. ) ;
#144 = AXIS2_PLACEMENT_3D ( 'NONE', #182, #294, #397 ) ;
#145 = CARTESIAN_POINT ( 'NONE',  ( 15.49999999999999822, 14.99999999999999822, 27.00000000000000711 ) ) ;
#146 = DIRECTION ( 'NONE',  ( -1.000000000000000000, -1.334402673828313339E-16, 0.000000000000000000 ) ) ;
#147 = FACE_BOUND ( 'NONE', #47, .T. ) ;
#148 = ORIENTED_EDGE ( 'NONE', *, *, #415, .T. ) ;
#149 = CYLINDRICAL_SURFACE ( 'NONE', #428, 4.499999999999992895 ) ;
#150 = ADVANCED_FACE ( 'NONE', ( #666, #461, #451 ), #131, .F. ) ;
#151 = MANIFOLD_SOLID_BREP ( 'Raccordo1', #336 ) ;
#152 = EDGE_LOOP ( 'NONE', ( #58, #545, #437, #221, #576, #224 ) ) ;
#153 = CARTESIAN_POINT ( 'NONE',  ( -15.50000000000000000, 0.000000000000000000, 31.49999999999999289 ) ) ;
#154 = EDGE_CURVE ( 'NONE', #386, #645, #329, .T. ) ;
#155 = CARTESIAN_POINT ( 'NONE',  ( 22.50000000000000000, 0.000000000000000000, 37.50000000000000000 ) ) ;
#156 = ORIENTED_EDGE ( 'NONE', *, *, #259, .T. ) ;
#157 = CARTESIAN_POINT ( 'NONE',  ( -19.99667036216270688, 14.99999999999999822, 0.000000000000000000 ) ) ;
#158 = DIRECTION ( 'NONE',  ( 1.000000000000000000, 0.000000000000000000, 0.000000000000000000 ) ) ;
#159 = VERTEX_POINT ( 'NONE', #504 ) ;
#160 = ORIENTED_EDGE ( 'NONE', *, *, #394, .F. ) ;
#161 = CARTESIAN_POINT ( 'NONE',  ( -15.50000000000000000, -1.004210375300826519E-15, 27.00000000000000355 ) ) ;
#162 =( NAMED_UNIT ( * ) PLANE_ANGLE_UNIT ( ) SI_UNIT ( $, .RADIAN. ) );
#163 = ORIENTED_EDGE ( 'NONE', *, *, #467, .F. ) ;
#164 = EDGE_CURVE ( 'NONE', #546, #101, #660, .T. ) ;
#165 = ORIENTED_EDGE ( 'NONE', *, *, #679, .F. ) ;
#166 = CARTESIAN_POINT ( 'NONE',  ( -21.50000000000000000, 14.99999999999999822, 37.50000000000000000 ) ) ;
#167 = EDGE_LOOP ( 'NONE', ( #163, #644, #125, #107, #55, #371 ) ) ;
#168 = AXIS2_PLACEMENT_3D ( 'NONE', #686, #475, #673 ) ;
#169 = VERTEX_POINT ( 'NONE', #26 ) ;
#170 = ORIENTED_EDGE ( 'NONE', *, *, #579, .F. ) ;
#171 = AXIS2_PLACEMENT_3D ( 'NONE', #508, #242, #186 ) ;
#172 = ORIENTED_EDGE ( 'NONE', *, *, #415, .F. ) ;
#173 = VERTEX_POINT ( 'NONE', #21 ) ;
#174 = FILL_AREA_STYLE ('',( #458 ) ) ;
#175 = DIRECTION ( 'NONE',  ( 0.000000000000000000, 0.000000000000000000, -1.000000000000000000 ) ) ;
#176 = COLOUR_RGB ( '',0.7921568627450980005, 0.8196078431372548767, 0.9333333333333333481 ) ;
#177 = FACE_OUTER_BOUND ( 'NONE', #291, .T. ) ;
#178 = CARTESIAN_POINT ( 'NONE',  ( 0.000000000000000000, 15.00000000000000355, 0.000000000000000000 ) ) ;
#179 = LINE ( 'NONE', #558, #529 ) ;
#180 = AXIS2_PLACEMENT_3D ( 'NONE', #498, #62, #442 ) ;
#181 = EDGE_CURVE ( 'NONE', #602, #446, #190, .T. ) ;
#182 = CARTESIAN_POINT ( 'NONE',  ( 15.49999999999999822, 14.99999999999999822, 31.50000000000000000 ) ) ;
#183 = LINE ( 'NONE', #459, #526 ) ;
#184 = VECTOR ( 'NONE', #441, 1000.000000000000000 ) ;
#185 = CIRCLE ( 'NONE', #3, 4.499999999999990230 ) ;
#186 = DIRECTION ( 'NONE',  ( 1.000000000000000000, 1.334402673828313339E-16, 0.000000000000000000 ) ) ;
#187 = DIRECTION ( 'NONE',  ( -0.000000000000000000, -0.000000000000000000, -1.000000000000000000 ) ) ;
#188 = CYLINDRICAL_SURFACE ( 'NONE', #452, 8.500000000000000000 ) ;
#189 = EDGE_CURVE ( 'NONE', #527, #228, #179, .T. ) ;
#190 =( BOUNDED_CURVE ( )  B_SPLINE_CURVE ( 3, ( #350, #610, #511, #28 ),
 .UNSPECIFIED., .F., .T. ) 
 B_SPLINE_CURVE_WITH_KNOTS ( ( 4, 4 ),
 ( 0.000000000000000000, 1.570796326794910547 ),
 .UNSPECIFIED. ) 
 CURVE ( )  GEOMETRIC_REPRESENTATION_ITEM ( )  RATIONAL_B_SPLINE_CURVE ( ( 1.000000000000000000, 0.8047378541243617178, 0.8047378541243617178, 1.000000000000000000 ) ) 
 REPRESENTATION_ITEM ( '' )  );
#191 = FACE_OUTER_BOUND ( 'NONE', #278, .T. ) ;
#192 = CYLINDRICAL_SURFACE ( 'NONE', #500, 4.499999999999993783 ) ;
#193 = CARTESIAN_POINT ( 'NONE',  ( 20.99667036216268912, 0.000000000000000000, 0.000000000000000000 ) ) ;
#194 =( BOUNDED_CURVE ( )  B_SPLINE_CURVE ( 3, ( #676, #468, #416, #622 ),
 .UNSPECIFIED., .F., .T. ) 
 B_SPLINE_CURVE_WITH_KNOTS ( ( 4, 4 ),
 ( 1.570796326794894338, 3.141592653589793116 ),
 .UNSPECIFIED. ) 
 CURVE ( )  GEOMETRIC_REPRESENTATION_ITEM ( )  RATIONAL_B_SPLINE_CURVE ( ( 1.000000000000000000, 0.8047378541243644934, 0.8047378541243644934, 1.000000000000000000 ) ) 
 REPRESENTATION_ITEM ( '' )  );
#195 = CARTESIAN_POINT ( 'NONE',  ( -15.50000000000000000, 0.000000000000000000, 7.500000000000000000 ) ) ;
#196 = CARTESIAN_POINT ( 'NONE',  ( 15.49999999999999822, 14.99999999999999822, 35.99999999999999289 ) ) ;
#197 = CARTESIAN_POINT ( 'NONE',  ( -8.500000000000000000, 15.00000000000000000, 39.00000000000000000 ) ) ;
#198 = DIRECTION ( 'NONE',  ( -0.000000000000000000, -1.000000000000000000, -0.000000000000000000 ) ) ;
#199 = AXIS2_PLACEMENT_3D ( 'NONE', #86, #247, #569 ) ;
#200 = EDGE_CURVE ( 'NONE', #216, #206, #561, .T. ) ;
#201 = ORIENTED_EDGE ( 'NONE', *, *, #689, .T. ) ;
#202 = LINE ( 'NONE', #564, #351 ) ;
#203 = FACE_OUTER_BOUND ( 'NONE', #13, .T. ) ;
#204 = EDGE_CURVE ( 'NONE', #338, #216, #293, .T. ) ;
#205 = CARTESIAN_POINT ( 'NONE',  ( -19.90818951985225027, 16.32721263465682071, 37.50000000000000000 ) ) ;
#206 = VERTEX_POINT ( 'NONE', #659 ) ;
#207 = ORIENTED_EDGE ( 'NONE', *, *, #649, .T. ) ;
#208 = LINE ( 'NONE', #322, #76 ) ;
#209 = LINE ( 'NONE', #99, #496 ) ;
#210 = APPLICATION_CONTEXT ( 'automotive_design' ) ;
#211 = ORIENTED_EDGE ( 'NONE', *, *, #528, .T. ) ;
#212 = CARTESIAN_POINT ( 'NONE',  ( 15.49999999999999822, -1.004210375300826519E-15, 31.50000000000000000 ) ) ;
#213 = DIRECTION ( 'NONE',  ( -0.000000000000000000, -1.000000000000000000, -0.000000000000000000 ) ) ;
#214 = ADVANCED_FACE ( 'NONE', ( #177 ), #128, .F. ) ;
#215 = SHAPE_DEFINITION_REPRESENTATION ( #112, #476 ) ;
#216 = VERTEX_POINT ( 'NONE', #663 ) ;
#217 = UNCERTAINTY_MEASURE_WITH_UNIT (LENGTH_MEASURE( 1.000000000000000082E-05 ), #292, 'distance_accuracy_value', 'NONE');
#218 = EDGE_LOOP ( 'NONE', ( #324, #201, #632, #12 ) ) ;
#219 = CARTESIAN_POINT ( 'NONE',  ( -15.50000000000000000, -1.004210375300826519E-15, 3.000000000000009770 ) ) ;
#220 = EDGE_CURVE ( 'NONE', #332, #390, #509, .T. ) ;
#221 = ORIENTED_EDGE ( 'NONE', *, *, #189, .T. ) ;
#222 = VERTEX_POINT ( 'NONE', #130 ) ;
#223 = VERTEX_POINT ( 'NONE', #447 ) ;
#224 = ORIENTED_EDGE ( 'NONE', *, *, #204, .T. ) ;
#225 =( GEOMETRIC_REPRESENTATION_CONTEXT ( 3 ) GLOBAL_UNCERTAINTY_ASSIGNED_CONTEXT ( ( #624 ) ) GLOBAL_UNIT_ASSIGNED_CONTEXT ( ( #319, #162, #268 ) ) REPRESENTATION_CONTEXT ( 'NONE', 'WORKASPACE' ) );
#226 = ORIENTED_EDGE ( 'NONE', *, *, #356, .F. ) ;
#227 = CARTESIAN_POINT ( 'NONE',  ( 21.49999999999999645, 14.99999999999999822, 0.6213203435596441615 ) ) ;
#228 = VERTEX_POINT ( 'NONE', #455 ) ;
#229 =( BOUNDED_CURVE ( )  B_SPLINE_CURVE ( 3, ( #412, #354, #361, #357 ),
 .UNSPECIFIED., .F., .T. ) 
 B_SPLINE_CURVE_WITH_KNOTS ( ( 4, 4 ),
 ( 4.712388980384687009, 6.283185307179586232 ),
 .UNSPECIFIED. ) 
 CURVE ( )  GEOMETRIC_REPRESENTATION_ITEM ( )  RATIONAL_B_SPLINE_CURVE ( ( 1.000000000000000000, 0.8047378541243643824, 0.8047378541243643824, 1.000000000000000000 ) ) 
 REPRESENTATION_ITEM ( '' )  );
#230 = ORIENTED_EDGE ( 'NONE', *, *, #105, .T. ) ;
#231 = ADVANCED_FACE ( 'NONE', ( #655 ), #347, .F. ) ;
#232 = EDGE_LOOP ( 'NONE', ( #264, #279 ) ) ;
#233 = ORIENTED_EDGE ( 'NONE', *, *, #575, .F. ) ;
#234 = EDGE_CURVE ( 'NONE', #445, #72, #568, .T. ) ;
#235 = CARTESIAN_POINT ( 'NONE',  ( -21.50000000000000000, 14.99999999999999822, 1.500000000000001332 ) ) ;
#236 = FACE_OUTER_BOUND ( 'NONE', #152, .T. ) ;
#237 = DIRECTION ( 'NONE',  ( 1.000000000000000000, -1.334402673828313339E-16, 0.000000000000000000 ) ) ;
#238 = CIRCLE ( 'NONE', #126, 4.499999999999990230 ) ;
#239 = AXIS2_PLACEMENT_3D ( 'NONE', #308, #418, #469 ) ;
#240 = CARTESIAN_POINT ( 'NONE',  ( -19.99667036216270688, 14.99999999999999822, 0.000000000000000000 ) ) ;
#241 = EDGE_CURVE ( 'NONE', #384, #433, #298, .T. ) ;
#242 = DIRECTION ( 'NONE',  ( 1.334402673828313339E-16, -1.000000000000000000, 0.000000000000000000 ) ) ;
#243 = AXIS2_PLACEMENT_3D ( 'NONE', #119, #285, #333 ) ;
#244 = ADVANCED_FACE ( 'NONE', ( #191 ), #683, .F. ) ;
#245 = DIRECTION ( 'NONE',  ( -1.334402673828313339E-16, -1.000000000000000000, 0.000000000000000000 ) ) ;
#246 = FACE_OUTER_BOUND ( 'NONE', #484, .T. ) ;
#247 = DIRECTION ( 'NONE',  ( -0.06651901052377399981, 0.9977851578566090396, 0.000000000000000000 ) ) ;
#248 = DIRECTION ( 'NONE',  ( 1.000000000000000000, 0.000000000000000000, 0.000000000000000000 ) ) ;
#249 = CARTESIAN_POINT ( 'NONE',  ( 8.500000000000000000, 15.00000000000000000, 39.00000000000000000 ) ) ;
#250 = CARTESIAN_POINT ( 'NONE',  ( -15.50000000000000000, 14.99999999999999822, 7.500000000000000000 ) ) ;
#251 = FACE_OUTER_BOUND ( 'NONE', #643, .T. ) ;
#252 = FACE_OUTER_BOUND ( 'NONE', #96, .T. ) ;
#253 = CARTESIAN_POINT ( 'NONE',  ( -22.50000000000000000, 0.000000000000000000, 0.6213203435596438284 ) ) ;
#254 = AXIS2_PLACEMENT_3D ( 'NONE', #273, #106, #379 ) ;
#255 = VERTEX_POINT ( 'NONE', #249 ) ;
#256 = DIRECTION ( 'NONE',  ( 0.000000000000000000, 0.000000000000000000, -1.000000000000000000 ) ) ;
#257 = DIRECTION ( 'NONE',  ( 0.000000000000000000, 0.000000000000000000, -1.000000000000000000 ) ) ;
#258 = VECTOR ( 'NONE', #311, 1000.000000000000000 ) ;
#259 = EDGE_CURVE ( 'NONE', #390, #446, #620, .T. ) ;
#260 = ORIENTED_EDGE ( 'NONE', *, *, #43, .T. ) ;
#261 = EDGE_LOOP ( 'NONE', ( #270, #577 ) ) ;
#262 = DIRECTION ( 'NONE',  ( 0.9977851578566089286, 0.06651901052377499901, 0.000000000000000000 ) ) ;
#263 = DIRECTION ( 'NONE',  ( 0.06651901052377398593, -0.9977851578566089286, -0.000000000000000000 ) ) ;
#264 = ORIENTED_EDGE ( 'NONE', *, *, #464, .T. ) ;
#265 = DIRECTION ( 'NONE',  ( -1.000000000000000000, 1.334402673828313339E-16, 0.000000000000000000 ) ) ;
#266 = EDGE_CURVE ( 'NONE', #495, #338, #365, .T. ) ;
#267 = CARTESIAN_POINT ( 'NONE',  ( -15.50000000000000000, 0.000000000000000000, 11.99999999999999289 ) ) ;
#268 =( NAMED_UNIT ( * ) SI_UNIT ( $, .STERADIAN. ) SOLID_ANGLE_UNIT ( ) );
#269 = ORIENTED_EDGE ( 'NONE', *, *, #653, .F. ) ;
#270 = ORIENTED_EDGE ( 'NONE', *, *, #394, .T. ) ;
#271 = CYLINDRICAL_SURFACE ( 'NONE', #667, 1.499999999999999334 ) ;
#272 = AXIS2_PLACEMENT_3D ( 'NONE', #212, #535, #257 ) ;
#273 = CARTESIAN_POINT ( 'NONE',  ( 15.50000000000000000, 0.000000000000000000, 7.500000000000003553 ) ) ;
#274 = ORIENTED_EDGE ( 'NONE', *, *, #532, .T. ) ;
#275 = DIRECTION ( 'NONE',  ( 1.000000000000000000, 0.000000000000000000, -0.000000000000000000 ) ) ;
#276 = ORIENTED_EDGE ( 'NONE', *, *, #539, .F. ) ;
#277 = ORIENTED_EDGE ( 'NONE', *, *, #164, .T. ) ;
#278 = EDGE_LOOP ( 'NONE', ( #363, #127, #599, #376 ) ) ;
#279 = ORIENTED_EDGE ( 'NONE', *, *, #454, .T. ) ;
#280 = CIRCLE ( 'NONE', #243, 4.499999999999990230 ) ;
#281 = DIRECTION ( 'NONE',  ( -0.000000000000000000, -1.000000000000000000, -0.000000000000000000 ) ) ;
#282 = VERTEX_POINT ( 'NONE', #518 ) ;
#283 = EDGE_CURVE ( 'NONE', #255, #540, #618, .T. ) ;
#284 = VECTOR ( 'NONE', #213, 1000.000000000000000 ) ;
#285 = DIRECTION ( 'NONE',  ( -0.000000000000000000, -1.000000000000000000, -0.000000000000000000 ) ) ;
#286 = ORIENTED_EDGE ( 'NONE', *, *, #43, .F. ) ;
#287 = EDGE_CURVE ( 'NONE', #222, #335, #229, .T. ) ;
#288 = AXIS2_PLACEMENT_3D ( 'NONE', #353, #116, #275 ) ;
#289 = CARTESIAN_POINT ( 'NONE',  ( -21.50000000000000000, 14.99999999999999822, 39.00000000000000000 ) ) ;
#290 = ORIENTED_EDGE ( 'NONE', *, *, #604, .T. ) ;
#291 = EDGE_LOOP ( 'NONE', ( #172, #315, #594, #443 ) ) ;
#292 =( LENGTH_UNIT ( ) NAMED_UNIT ( * ) SI_UNIT ( .MILLI., .METRE. ) );
#293 =( BOUNDED_CURVE ( )  B_SPLINE_CURVE ( 3, ( #240, #70, #30, #235 ),
 .UNSPECIFIED., .F., .T. ) 
 B_SPLINE_CURVE_WITH_KNOTS ( ( 4, 4 ),
 ( 4.712388980384689674, 6.283185307179586232 ),
 .UNSPECIFIED. ) 
 CURVE ( )  GEOMETRIC_REPRESENTATION_ITEM ( )  RATIONAL_B_SPLINE_CURVE ( ( 1.000000000000000000, 0.8047378541243649375, 0.8047378541243649375, 1.000000000000000000 ) ) 
 REPRESENTATION_ITEM ( '' )  );
#294 = DIRECTION ( 'NONE',  ( -1.334402673828313339E-16, -1.000000000000000000, 0.000000000000000000 ) ) ;
#295 = ADVANCED_FACE ( 'NONE', ( #566 ), #472, .T. ) ;
#296 = PLANE ( 'NONE',  #171 ) ;
#297 =( BOUNDED_CURVE ( )  B_SPLINE_CURVE ( 3, ( #580, #227, #113, #642 ),
 .UNSPECIFIED., .F., .F. ) 
 B_SPLINE_CURVE_WITH_KNOTS ( ( 4, 4 ),
 ( 3.141592653589793116, 4.712388980384689674 ),
 .UNSPECIFIED. ) 
 CURVE ( )  GEOMETRIC_REPRESENTATION_ITEM ( )  RATIONAL_B_SPLINE_CURVE ( ( 1.000000000000000000, 0.8047378541243649375, 0.8047378541243649375, 1.000000000000000000 ) ) 
 REPRESENTATION_ITEM ( '' )  );
#298 = CIRCLE ( 'NONE', #136, 4.499999999999990230 ) ;
#299 =( NAMED_UNIT ( * ) PLANE_ANGLE_UNIT ( ) SI_UNIT ( $, .RADIAN. ) );
#300 = DIRECTION ( 'NONE',  ( 1.000000000000000000, 0.000000000000000000, 0.000000000000000000 ) ) ;
#301 = EDGE_CURVE ( 'NONE', #101, #5, #625, .T. ) ;
#302 = DIRECTION ( 'NONE',  ( -0.000000000000000000, -1.000000000000000000, -0.000000000000000000 ) ) ;
#303 = DIRECTION ( 'NONE',  ( -0.000000000000000000, -1.000000000000000000, -0.000000000000000000 ) ) ;
#304 = CIRCLE ( 'NONE', #668, 4.499999999999992006 ) ;
#305 = CARTESIAN_POINT ( 'NONE',  ( -15.50000000000000000, -1.004210375300826519E-15, 7.500000000000000000 ) ) ;
#306 = FACE_BOUND ( 'NONE', #109, .T. ) ;
#307 = CARTESIAN_POINT ( 'NONE',  ( 21.87730047529035105, 0.000000000000000000, -8.898277017292258263E-15 ) ) ;
#308 = CARTESIAN_POINT ( 'NONE',  ( 0.000000000000000000, 15.00000000000000355, 0.000000000000000000 ) ) ;
#309 = LINE ( 'NONE', #525, #658 ) ;
#310 = ORIENTED_EDGE ( 'NONE', *, *, #334, .T. ) ;
#311 = DIRECTION ( 'NONE',  ( -0.000000000000000000, -1.000000000000000000, -0.000000000000000000 ) ) ;
#312 = DIRECTION ( 'NONE',  ( -1.000000000000000000, 1.334402673828313339E-16, 0.000000000000000000 ) ) ;
#313 = ADVANCED_FACE ( 'NONE', ( #252 ), #90, .F. ) ;
#314 = PRODUCT_DEFINITION_FORMATION_WITH_SPECIFIED_SOURCE ( 'TUTTO', '', #547, .NOT_KNOWN. ) ;
#315 = ORIENTED_EDGE ( 'NONE', *, *, #403, .T. ) ;
#316 = CARTESIAN_POINT ( 'NONE',  ( -15.50000000000000000, -1.004210375300826519E-15, 11.99999999999998934 ) ) ;
#317 = AXIS2_PLACEMENT_3D ( 'NONE', #616, #245, #237 ) ;
#318 = LINE ( 'NONE', #638, #340 ) ;
#319 =( LENGTH_UNIT ( ) NAMED_UNIT ( * ) SI_UNIT ( .MILLI., .METRE. ) );
#320 = ORIENTED_EDGE ( 'NONE', *, *, #588, .F. ) ;
#321 = EDGE_CURVE ( 'NONE', #527, #332, #677, .T. ) ;
#322 = CARTESIAN_POINT ( 'NONE',  ( -22.50000000000000000, 0.000000000000000000, 39.00000000000000000 ) ) ;
#323 = LINE ( 'NONE', #690, #581 ) ;
#324 = ORIENTED_EDGE ( 'NONE', *, *, #154, .F. ) ;
#325 = CARTESIAN_POINT ( 'NONE',  ( 21.50000000000000000, 14.99999999999999822, 39.00000000000000000 ) ) ;
#326 = APPLICATION_PROTOCOL_DEFINITION ( 'draft international standard', 'automotive_design', 1998, #210 ) ;
#327 = ORIENTED_EDGE ( 'NONE', *, *, #661, .T. ) ;
#328 = ORIENTED_EDGE ( 'NONE', *, *, #689, .F. ) ;
#329 = CIRCLE ( 'NONE', #440, 4.499999999999993783 ) ;
#330 = ORIENTED_EDGE ( 'NONE', *, *, #22, .F. ) ;
#331 = EDGE_LOOP ( 'NONE', ( #432, #654, #537, #493 ) ) ;
#332 = VERTEX_POINT ( 'NONE', #462 ) ;
#333 = DIRECTION ( 'NONE',  ( 0.000000000000000000, 0.000000000000000000, -1.000000000000000000 ) ) ;
#334 = EDGE_CURVE ( 'NONE', #636, #173, #202, .T. ) ;
#335 = VERTEX_POINT ( 'NONE', #83 ) ;
#336 = CLOSED_SHELL ( 'NONE', ( #138, #370, #343, #231, #457, #123, #214, #593, #27, #150, #132, #313, #19, #563, #244, #680, #407, #657, #102, #295 ) ) ;
#337 = EDGE_CURVE ( 'NONE', #503, #72, #633, .T. ) ;
#338 = VERTEX_POINT ( 'NONE', #157 ) ;
#339 = ORIENTED_EDGE ( 'NONE', *, *, #287, .F. ) ;
#340 = VECTOR ( 'NONE', #375, 1000.000000000000000 ) ;
#341 = DIRECTION ( 'NONE',  ( 1.000000000000000000, 0.000000000000000000, 0.000000000000000000 ) ) ;
#342 = ORIENTED_EDGE ( 'NONE', *, *, #510, .F. ) ;
#343 = ADVANCED_FACE ( 'NONE', ( #578 ), #538, .F. ) ;
#344 = CARTESIAN_POINT ( 'NONE',  ( -21.50000000000000000, 14.99999999999999822, 1.500000000000001332 ) ) ;
#345 = PLANE ( 'NONE',  #480 ) ;
#346 = EDGE_CURVE ( 'NONE', #5, #110, #488, .T. ) ;
#347 = CYLINDRICAL_SURFACE ( 'NONE', #374, 4.499999999999993783 ) ;
#348 = DIRECTION ( 'NONE',  ( 1.000000000000000000, 0.000000000000000000, 0.000000000000000000 ) ) ;
#349 = AXIS2_PLACEMENT_3D ( 'NONE', #4, #497, #61 ) ;
#350 = CARTESIAN_POINT ( 'NONE',  ( 22.50000000000000000, 0.000000000000000000, 37.50000000000000000 ) ) ;
#351 = VECTOR ( 'NONE', #139, 1000.000000000000114 ) ;
#352 = CARTESIAN_POINT ( 'NONE',  ( 20.99667036216268912, 0.000000000000000000, 0.000000000000000000 ) ) ;
#353 = CARTESIAN_POINT ( 'NONE',  ( 0.000000000000000000, 15.00000000000000355, 39.00000000000000000 ) ) ;
#354 = CARTESIAN_POINT ( 'NONE',  ( 20.87730047529036170, 14.99999999999999822, 39.00000000000000000 ) ) ;
#355 = CARTESIAN_POINT ( 'NONE',  ( -21.50000000000000000, 14.99999999999999822, 37.50000000000000000 ) ) ;
#356 = EDGE_CURVE ( 'NONE', #335, #173, #108, .T. ) ;
#357 = CARTESIAN_POINT ( 'NONE',  ( 21.50000000000000000, 14.99999999999999822, 37.50000000000000000 ) ) ;
#358 = DIRECTION ( 'NONE',  ( 1.334402673828313339E-16, -1.000000000000000000, 0.000000000000000000 ) ) ;
#359 = CARTESIAN_POINT ( 'NONE',  ( -15.50000000000000000, -1.004210375300826519E-15, 35.99999999999998579 ) ) ;
#360 = CIRCLE ( 'NONE', #372, 4.499999999999990230 ) ;
#361 = CARTESIAN_POINT ( 'NONE',  ( 21.50000000000000000, 14.99999999999999822, 38.37867965644036161 ) ) ;
#362 = DIRECTION ( 'NONE',  ( 0.000000000000000000, 0.000000000000000000, -1.000000000000000000 ) ) ;
#363 = ORIENTED_EDGE ( 'NONE', *, *, #649, .F. ) ;
#364 = EDGE_CURVE ( 'NONE', #282, #540, #97, .T. ) ;
#365 = LINE ( 'NONE', #142, #417 ) ;
#366 = CARTESIAN_POINT ( 'NONE',  ( -20.99667036216270688, 0.000000000000000000, 0.000000000000000000 ) ) ;
#367 = ORIENTED_EDGE ( 'NONE', *, *, #32, .F. ) ;
#368 = DIRECTION ( 'NONE',  ( 0.000000000000000000, 0.000000000000000000, -1.000000000000000000 ) ) ;
#369 = FACE_OUTER_BOUND ( 'NONE', #6, .T. ) ;
#370 = ADVANCED_FACE ( 'NONE', ( #421 ), #149, .F. ) ;
#371 = ORIENTED_EDGE ( 'NONE', *, *, #283, .F. ) ;
#372 = AXIS2_PLACEMENT_3D ( 'NONE', #84, #565, #362 ) ;
#373 = DIRECTION ( 'NONE',  ( -0.000000000000000000, -0.000000000000000000, -1.000000000000000000 ) ) ;
#374 = AXIS2_PLACEMENT_3D ( 'NONE', #555, #556, #670 ) ;
#375 = DIRECTION ( 'NONE',  ( -0.000000000000000000, -0.000000000000000000, -1.000000000000000000 ) ) ;
#376 = ORIENTED_EDGE ( 'NONE', *, *, #32, .T. ) ;
#377 = LINE ( 'NONE', #684, #57 ) ;
#378 = DIRECTION ( 'NONE',  ( -0.000000000000000000, -1.000000000000000000, -0.000000000000000000 ) ) ;
#379 = DIRECTION ( 'NONE',  ( 0.000000000000000000, 0.000000000000000000, -1.000000000000000000 ) ) ;
#380 = ORIENTED_EDGE ( 'NONE', *, *, #539, .T. ) ;
#381 = ORIENTED_EDGE ( 'NONE', *, *, #283, .T. ) ;
#382 = CARTESIAN_POINT ( 'NONE',  ( 20.99667036216268912, 0.000000000000000000, 39.00000000000000000 ) ) ;
#383 = CARTESIAN_POINT ( 'NONE',  ( 22.50000000000000000, 0.000000000000000000, 39.00000000000000000 ) ) ;
#384 = VERTEX_POINT ( 'NONE', #316 ) ;
#385 = CYLINDRICAL_SURFACE ( 'NONE', #168, 4.499999999999993783 ) ;
#386 = VERTEX_POINT ( 'NONE', #585 ) ;
#387 = ORIENTED_EDGE ( 'NONE', *, *, #234, .T. ) ;
#388 = EDGE_LOOP ( 'NONE', ( #226, #427, #290, #310 ) ) ;
#389 = EDGE_CURVE ( 'NONE', #72, #445, #238, .T. ) ;
#390 = VERTEX_POINT ( 'NONE', #530 ) ;
#391 = ORIENTED_EDGE ( 'NONE', *, *, #491, .F. ) ;
#392 = AXIS2_PLACEMENT_3D ( 'NONE', #178, #613, #348 ) ;
#393 = CYLINDRICAL_SURFACE ( 'NONE', #180, 4.499999999999993783 ) ;
#394 = EDGE_CURVE ( 'NONE', #645, #386, #85, .T. ) ;
#395 = EDGE_LOOP ( 'NONE', ( #20, #554, #477, #387 ) ) ;
#396 = APPLICATION_CONTEXT ( 'automotive_design' ) ;
#397 = DIRECTION ( 'NONE',  ( 1.000000000000000000, 0.000000000000000000, 0.000000000000000000 ) ) ;
#398 = AXIS2_PLACEMENT_3D ( 'NONE', #205, #422, #586 ) ;
#399 = ORIENTED_EDGE ( 'NONE', *, *, #389, .F. ) ;
#400 = PRESENTATION_LAYER_ASSIGNMENT (  '', '', ( #600 ) ) ;
#401 = DIRECTION ( 'NONE',  ( 0.06651901052377398593, 0.9977851578566089286, 0.000000000000000000 ) ) ;
#402 = LINE ( 'NONE', #45, #18 ) ;
#403 = EDGE_CURVE ( 'NONE', #169, #583, #377, .T. ) ;
#404 = CIRCLE ( 'NONE', #98, 4.499999999999993783 ) ;
#405 = AXIS2_PLACEMENT_3D ( 'NONE', #289, #33, #401 ) ;
#406 = DIRECTION ( 'NONE',  ( -0.06651901052377398593, -0.9977851578566089286, 0.000000000000000000 ) ) ;
#407 = ADVANCED_FACE ( 'NONE', ( #203 ), #271, .T. ) ;
#408 = DIRECTION ( 'NONE',  ( -1.000000000000000000, -1.334402673828313339E-16, 0.000000000000000000 ) ) ;
#409 = CARTESIAN_POINT ( 'NONE',  ( -22.50000000000000000, 0.000000000000000000, 39.00000000000000000 ) ) ;
#410 = FACE_OUTER_BOUND ( 'NONE', #424, .T. ) ;
#411 = CARTESIAN_POINT ( 'NONE',  ( 22.50000000000000355, 0.000000000000000000, 0.6213203435596357238 ) ) ;
#412 = CARTESIAN_POINT ( 'NONE',  ( 19.99667036216270688, 14.99999999999999822, 39.00000000000000000 ) ) ;
#413 = CARTESIAN_POINT ( 'NONE',  ( 15.49999999999999822, 0.000000000000000000, 35.99999999999999289 ) ) ;
#414 = AXIS2_PLACEMENT_3D ( 'NONE', #250, #512, #419 ) ;
#415 = EDGE_CURVE ( 'NONE', #169, #206, #208, .T. ) ;
#416 = CARTESIAN_POINT ( 'NONE',  ( -22.50000000000000355, 0.000000000000000000, 38.37867965644036161 ) ) ;
#417 = VECTOR ( 'NONE', #521, 1000.000000000000114 ) ;
#418 = DIRECTION ( 'NONE',  ( 0.000000000000000000, 0.000000000000000000, 1.000000000000000000 ) ) ;
#419 = DIRECTION ( 'NONE',  ( 1.000000000000000000, 0.000000000000000000, 0.000000000000000000 ) ) ;
#420 = ORIENTED_EDGE ( 'NONE', *, *, #403, .F. ) ;
#421 = FACE_OUTER_BOUND ( 'NONE', #640, .T. ) ;
#422 = DIRECTION ( 'NONE',  ( 0.06651901052377399981, 0.9977851578566090396, -0.000000000000000000 ) ) ;
#423 = AXIS2_PLACEMENT_3D ( 'NONE', #74, #453, #662 ) ;
#424 = EDGE_LOOP ( 'NONE', ( #534, #436, #523, #608, #148, #380, #492, #260 ) ) ;
#425 = CARTESIAN_POINT ( 'NONE',  ( -15.50000000000000000, 0.000000000000000000, 35.99999999999998579 ) ) ;
#426 = DIRECTION ( 'NONE',  ( -0.000000000000000000, -1.000000000000000000, -0.000000000000000000 ) ) ;
#427 = ORIENTED_EDGE ( 'NONE', *, *, #35, .T. ) ;
#428 = AXIS2_PLACEMENT_3D ( 'NONE', #637, #111, #473 ) ;
#429 = VECTOR ( 'NONE', #303, 1000.000000000000000 ) ;
#430 = CARTESIAN_POINT ( 'NONE',  ( 15.50000000000000000, 14.99999999999999822, 7.500000000000003553 ) ) ;
#431 = CARTESIAN_POINT ( 'NONE',  ( -15.50000000000000000, 14.99999999999999822, 3.000000000000007105 ) ) ;
#432 = ORIENTED_EDGE ( 'NONE', *, *, #164, .F. ) ;
#433 = VERTEX_POINT ( 'NONE', #219 ) ;
#434 = DIRECTION ( 'NONE',  ( -0.000000000000000000, -1.000000000000000000, -0.000000000000000000 ) ) ;
#435 = EDGE_LOOP ( 'NONE', ( #286, #23, #165, #71 ) ) ;
#436 = ORIENTED_EDGE ( 'NONE', *, *, #181, .T. ) ;
#437 = ORIENTED_EDGE ( 'NONE', *, *, #321, .F. ) ;
#438 = ORIENTED_EDGE ( 'NONE', *, *, #653, .T. ) ;
#439 = ORIENTED_EDGE ( 'NONE', *, *, #454, .F. ) ;
#440 = AXIS2_PLACEMENT_3D ( 'NONE', #78, #553, #73 ) ;
#441 = DIRECTION ( 'NONE',  ( -0.000000000000000000, -1.000000000000000000, -0.000000000000000000 ) ) ;
#442 = DIRECTION ( 'NONE',  ( 0.000000000000000000, 0.000000000000000000, -1.000000000000000000 ) ) ;
#443 = ORIENTED_EDGE ( 'NONE', *, *, #200, .T. ) ;
#444 = EDGE_CURVE ( 'NONE', #583, #216, #641, .T. ) ;
#445 = VERTEX_POINT ( 'NONE', #161 ) ;
#446 = VERTEX_POINT ( 'NONE', #382 ) ;
#447 = CARTESIAN_POINT ( 'NONE',  ( -15.50000000000000000, 14.99999999999999822, 27.00000000000000000 ) ) ;
#448 = CARTESIAN_POINT ( 'NONE',  ( -21.49999999999999645, 15.00000000000000000, 38.37867965644036161 ) ) ;
#449 = SURFACE_SIDE_STYLE ('',( #80 ) ) ;
#450 = PRODUCT_DEFINITION ( 'NON CONOSCIUTO', '', #314, #93 ) ;
#451 = FACE_OUTER_BOUND ( 'NONE', #167, .T. ) ;
#452 = AXIS2_PLACEMENT_3D ( 'NONE', #463, #617, #91 ) ;
#453 = DIRECTION ( 'NONE',  ( -0.06651901052377399981, -0.9977851578566090396, 0.000000000000000000 ) ) ;
#454 = EDGE_CURVE ( 'NONE', #651, #646, #598, .T. ) ;
#455 = CARTESIAN_POINT ( 'NONE',  ( -8.500000000000000000, 15.00000000000000000, 0.000000000000000000 ) ) ;
#456 = LINE ( 'NONE', #413, #429 ) ;
#457 = ADVANCED_FACE ( 'NONE', ( #246 ), #188, .F. ) ;
#458 = FILL_AREA_STYLE_COLOUR ( '', #176 ) ;
#459 = CARTESIAN_POINT ( 'NONE',  ( 20.00332226321508600, 14.90022148421433634, 39.00000000000000000 ) ) ;
#460 = AXIS2_PLACEMENT_3D ( 'NONE', #2, #536, #634 ) ;
#461 = FACE_BOUND ( 'NONE', #571, .T. ) ;
#462 = CARTESIAN_POINT ( 'NONE',  ( -19.99667036216270333, 14.99999999999999822, 39.00000000000000000 ) ) ;
#463 = CARTESIAN_POINT ( 'NONE',  ( 0.000000000000000000, 15.00000000000000355, 39.00000000000000000 ) ) ;
#464 = EDGE_CURVE ( 'NONE', #646, #651, #507, .T. ) ;
#465 = CARTESIAN_POINT ( 'NONE',  ( -15.50000000000000000, -1.004210375300826519E-15, 31.49999999999999289 ) ) ;
#466 = CARTESIAN_POINT ( 'NONE',  ( -15.50000000000000000, 14.99999999999999822, 7.500000000000000000 ) ) ;
#467 = EDGE_CURVE ( 'NONE', #222, #255, #34, .T. ) ;
#468 = CARTESIAN_POINT ( 'NONE',  ( -21.87730047529036170, 0.000000000000000000, 39.00000000000000000 ) ) ;
#469 = DIRECTION ( 'NONE',  ( 1.000000000000000000, 0.000000000000000000, -0.000000000000000000 ) ) ;
#470 = CARTESIAN_POINT ( 'NONE',  ( -15.50000000000000000, 14.99999999999999822, 35.99999999999998579 ) ) ;
#471 = ORIENTED_EDGE ( 'NONE', *, *, #24, .F. ) ;
#472 = CYLINDRICAL_SURFACE ( 'NONE', #199, 1.499999999999999334 ) ;
#473 = DIRECTION ( 'NONE',  ( 0.000000000000000000, 0.000000000000000000, -1.000000000000000000 ) ) ;
#474 = FACE_OUTER_BOUND ( 'NONE', #10, .T. ) ;
#475 = DIRECTION ( 'NONE',  ( -0.000000000000000000, -1.000000000000000000, -0.000000000000000000 ) ) ;
#476 = ADVANCED_BREP_SHAPE_REPRESENTATION ( 'ARP-0013', ( #151, #349 ), #225 ) ;
#477 = ORIENTED_EDGE ( 'NONE', *, *, #510, .T. ) ;
#478 = DIRECTION ( 'NONE',  ( -0.000000000000000000, -1.000000000000000000, -0.000000000000000000 ) ) ;
#479 = CARTESIAN_POINT ( 'NONE',  ( 22.50000000000000000, 0.000000000000000000, 1.500000000000001332 ) ) ;
#480 = AXIS2_PLACEMENT_3D ( 'NONE', #383, #596, #114 ) ;
#481 = EDGE_LOOP ( 'NONE', ( #274, #627 ) ) ;
#482 = CARTESIAN_POINT ( 'NONE',  ( -21.50000000000000000, 14.99999999999999822, 39.00000000000000000 ) ) ;
#483 = DIRECTION ( 'NONE',  ( -1.334402673828313339E-16, -1.000000000000000000, 0.000000000000000000 ) ) ;
#484 = EDGE_LOOP ( 'NONE', ( #230, #64, #330, #381 ) ) ;
#485 = AXIS2_PLACEMENT_3D ( 'NONE', #430, #629, #48 ) ;
#486 = ORIENTED_EDGE ( 'NONE', *, *, #514, .F. ) ;
#487 = CARTESIAN_POINT ( 'NONE',  ( 19.90818951985225382, 16.32721263465682071, 37.50000000000000000 ) ) ;
#488 = CIRCLE ( 'NONE', #272, 4.499999999999990230 ) ;
#489 = ORIENTED_EDGE ( 'NONE', *, *, #346, .T. ) ;
#490 = ORIENTED_EDGE ( 'NONE', *, *, #542, .F. ) ;
#491 = EDGE_CURVE ( 'NONE', #228, #338, #309, .T. ) ;
#492 = ORIENTED_EDGE ( 'NONE', *, *, #579, .T. ) ;
#493 = ORIENTED_EDGE ( 'NONE', *, *, #301, .F. ) ;
#494 = AXIS2_PLACEMENT_3D ( 'NONE', #122, #607, #341 ) ;
#495 = VERTEX_POINT ( 'NONE', #366 ) ;
#496 = VECTOR ( 'NONE', #426, 1000.000000000000000 ) ;
#497 = DIRECTION ( 'NONE',  ( 0.000000000000000000, 0.000000000000000000, 1.000000000000000000 ) ) ;
#498 = CARTESIAN_POINT ( 'NONE',  ( 15.49999999999999822, 0.000000000000000000, 31.50000000000000000 ) ) ;
#499 = ORIENTED_EDGE ( 'NONE', *, *, #337, .T. ) ;
#500 = AXIS2_PLACEMENT_3D ( 'NONE', #522, #669, #42 ) ;
#501 = VECTOR ( 'NONE', #406, 1000.000000000000114 ) ;
#502 = CARTESIAN_POINT ( 'NONE',  ( -20.87730047529036170, 15.00000000000000000, 39.00000000000000000 ) ) ;
#503 = VERTEX_POINT ( 'NONE', #470 ) ;
#504 = CARTESIAN_POINT ( 'NONE',  ( 15.50000000000000000, -1.004210375300826519E-15, 11.99999999999999289 ) ) ;
#505 = EDGE_LOOP ( 'NONE', ( #233, #499, #60, #342 ) ) ;
#506 = DIRECTION ( 'NONE',  ( -0.06651901052377398593, -0.9977851578566089286, 0.000000000000000000 ) ) ;
#507 = CIRCLE ( 'NONE', #559, 4.499999999999993783 ) ;
#508 = CARTESIAN_POINT ( 'NONE',  ( -8.500000000000000000, 15.00000000000000000, 39.00000000000000000 ) ) ;
#509 = LINE ( 'NONE', #614, #501 ) ;
#510 = EDGE_CURVE ( 'NONE', #223, #445, #402, .T. ) ;
#511 = CARTESIAN_POINT ( 'NONE',  ( 21.87730047529035460, 0.000000000000000000, 39.00000000000002842 ) ) ;
#512 = DIRECTION ( 'NONE',  ( 1.334402673828313339E-16, -1.000000000000000000, 0.000000000000000000 ) ) ;
#513 =( BOUNDED_CURVE ( )  B_SPLINE_CURVE ( 3, ( #193, #307, #411, #141 ),
 .UNSPECIFIED., .F., .F. ) 
 B_SPLINE_CURVE_WITH_KNOTS ( ( 4, 4 ),
 ( 1.570796326794885012, 3.141592653589793116 ),
 .UNSPECIFIED. ) 
 CURVE ( )  GEOMETRIC_REPRESENTATION_ITEM ( )  RATIONAL_B_SPLINE_CURVE ( ( 1.000000000000000000, 0.8047378541243622729, 0.8047378541243622729, 1.000000000000000000 ) ) 
 REPRESENTATION_ITEM ( '' )  );
#514 = EDGE_CURVE ( 'NONE', #546, #110, #456, .T. ) ;
#515 = DIRECTION ( 'NONE',  ( 0.000000000000000000, 0.000000000000000000, -1.000000000000000000 ) ) ;
#516 = FACE_BOUND ( 'NONE', #129, .T. ) ;
#517 = AXIS2_PLACEMENT_3D ( 'NONE', #81, #40, #300 ) ;
#518 = CARTESIAN_POINT ( 'NONE',  ( 19.99667036216270688, 14.99999999999999822, 0.000000000000000000 ) ) ;
#519 = CARTESIAN_POINT ( 'NONE',  ( -22.50000000000000000, 0.000000000000000000, 0.000000000000000000 ) ) ;
#520 = PRODUCT_RELATED_PRODUCT_CATEGORY ( 'part', '', ( #547 ) ) ;
#521 = DIRECTION ( 'NONE',  ( 0.06651901052377398593, 0.9977851578566089286, -0.000000000000000000 ) ) ;
#522 = CARTESIAN_POINT ( 'NONE',  ( -15.50000000000000000, 0.000000000000000000, 31.49999999999999289 ) ) ;
#523 = ORIENTED_EDGE ( 'NONE', *, *, #259, .F. ) ;
#524 = CARTESIAN_POINT ( 'NONE',  ( 8.500000000000000000, 15.00000000000000000, 39.00000000000000000 ) ) ;
#525 = CARTESIAN_POINT ( 'NONE',  ( -8.500000000000000000, 15.00000000000000000, 0.000000000000000000 ) ) ;
#526 = VECTOR ( 'NONE', #562, 1000.000000000000114 ) ;
#527 = VERTEX_POINT ( 'NONE', #672 ) ;
#528 = EDGE_CURVE ( 'NONE', #67, #159, #360, .T. ) ;
#529 = VECTOR ( 'NONE', #187, 1000.000000000000000 ) ;
#530 = CARTESIAN_POINT ( 'NONE',  ( -20.99667036216270333, 0.000000000000000000, 39.00000000000000000 ) ) ;
#531 = CARTESIAN_POINT ( 'NONE',  ( 15.49999999999999822, 14.99999999999999822, 31.50000000000000000 ) ) ;
#532 = EDGE_CURVE ( 'NONE', #223, #503, #404, .T. ) ;
#533 =( BOUNDED_CURVE ( )  B_SPLINE_CURVE ( 3, ( #166, #448, #502, #11 ),
 .UNSPECIFIED., .F., .F. ) 
 B_SPLINE_CURVE_WITH_KNOTS ( ( 4, 4 ),
 ( 3.141592653589793116, 4.712388980384691450 ),
 .UNSPECIFIED. ) 
 CURVE ( )  GEOMETRIC_REPRESENTATION_ITEM ( )  RATIONAL_B_SPLINE_CURVE ( ( 1.000000000000000000, 0.8047378541243646044, 0.8047378541243646044, 1.000000000000000000 ) ) 
 REPRESENTATION_ITEM ( '' )  );
#534 = ORIENTED_EDGE ( 'NONE', *, *, #604, .F. ) ;
#535 = DIRECTION ( 'NONE',  ( -0.000000000000000000, -1.000000000000000000, -0.000000000000000000 ) ) ;
#536 = DIRECTION ( 'NONE',  ( 0.000000000000000000, 1.000000000000000000, 0.000000000000000000 ) ) ;
#537 = ORIENTED_EDGE ( 'NONE', *, *, #24, .T. ) ;
#538 = CYLINDRICAL_SURFACE ( 'NONE', #100, 4.499999999999993783 ) ;
#539 = EDGE_CURVE ( 'NONE', #206, #495, #606, .T. ) ;
#540 = VERTEX_POINT ( 'NONE', #135 ) ;
#541 = VERTEX_POINT ( 'NONE', #352 ) ;
#542 = EDGE_CURVE ( 'NONE', #446, #222, #183, .T. ) ;
#543 = CARTESIAN_POINT ( 'NONE',  ( 15.50000000000000000, 0.000000000000000000, 11.99999999999999645 ) ) ;
#544 = CARTESIAN_POINT ( 'NONE',  ( 15.49999999999999822, -1.004210375300826519E-15, 27.00000000000001066 ) ) ;
#545 = ORIENTED_EDGE ( 'NONE', *, *, #14, .T. ) ;
#546 = VERTEX_POINT ( 'NONE', #196 ) ;
#547 = PRODUCT ( 'ARP-0013', 'ARP-0013', '', ( #53 ) ) ;
#548 = LINE ( 'NONE', #15, #630 ) ;
#549 = ORIENTED_EDGE ( 'NONE', *, *, #14, .F. ) ;
#550 = CARTESIAN_POINT ( 'NONE',  ( 15.49999999999999822, -1.004210375300826519E-15, 31.50000000000000000 ) ) ;
#551 = ORIENTED_EDGE ( 'NONE', *, *, #467, .T. ) ;
#552 = CIRCLE ( 'NONE', #517, 4.499999999999993783 ) ;
#553 = DIRECTION ( 'NONE',  ( -1.334402673828313339E-16, -1.000000000000000000, 0.000000000000000000 ) ) ;
#554 = ORIENTED_EDGE ( 'NONE', *, *, #532, .F. ) ;
#555 = CARTESIAN_POINT ( 'NONE',  ( 15.49999999999999822, 0.000000000000000000, 31.50000000000000000 ) ) ;
#556 = DIRECTION ( 'NONE',  ( -0.000000000000000000, -1.000000000000000000, -0.000000000000000000 ) ) ;
#557 = CARTESIAN_POINT ( 'NONE',  ( 15.49999999999999822, -1.004210375300826519E-15, 35.99999999999999289 ) ) ;
#558 = CARTESIAN_POINT ( 'NONE',  ( -8.500000000000000000, 15.00000000000000000, 39.00000000000000000 ) ) ;
#559 = AXIS2_PLACEMENT_3D ( 'NONE', #466, #358, #248 ) ;
#560 = VECTOR ( 'NONE', #572, 1000.000000000000000 ) ;
#561 = LINE ( 'NONE', #344, #29 ) ;
#562 = DIRECTION ( 'NONE',  ( -0.06651901052377398593, 0.9977851578566089286, 0.000000000000000000 ) ) ;
#563 = ADVANCED_FACE ( 'NONE', ( #143 ), #192, .F. ) ;
#564 = CARTESIAN_POINT ( 'NONE',  ( 22.50000000000000000, 0.000000000000000000, 1.500000000000001332 ) ) ;
#565 = DIRECTION ( 'NONE',  ( -0.000000000000000000, -1.000000000000000000, -0.000000000000000000 ) ) ;
#566 = FACE_OUTER_BOUND ( 'NONE', #435, .T. ) ;
#567 = CARTESIAN_POINT ( 'NONE',  ( 21.50000000000000000, 14.99999999999999822, 39.00000000000000000 ) ) ;
#568 = CIRCLE ( 'NONE', #88, 4.499999999999990230 ) ;
#569 = DIRECTION ( 'NONE',  ( -0.9977851578566089286, -0.06651901052377402757, 0.000000000000000000 ) ) ;
#570 = CARTESIAN_POINT ( 'NONE',  ( -22.50000000000000000, 0.000000000000000000, 1.500000000000001332 ) ) ;
#571 = EDGE_LOOP ( 'NONE', ( #438, #277 ) ) ;
#572 = DIRECTION ( 'NONE',  ( 1.000000000000000000, 0.000000000000000000, 0.000000000000000000 ) ) ;
#573 = CARTESIAN_POINT ( 'NONE',  ( -21.87730047529035815, 0.000000000000000000, 1.354846218419384260E-15 ) ) ;
#574 = AXIS2_PLACEMENT_3D ( 'NONE', #550, #281, #175 ) ;
#575 = EDGE_CURVE ( 'NONE', #503, #223, #552, .T. ) ;
#576 = ORIENTED_EDGE ( 'NONE', *, *, #491, .T. ) ;
#577 = ORIENTED_EDGE ( 'NONE', *, *, #154, .T. ) ;
#578 = FACE_OUTER_BOUND ( 'NONE', #505, .T. ) ;
#579 = EDGE_CURVE ( 'NONE', #495, #541, #137, .T. ) ;
#580 = CARTESIAN_POINT ( 'NONE',  ( 21.50000000000000000, 14.99999999999999822, 1.500000000000001332 ) ) ;
#581 = VECTOR ( 'NONE', #378, 1000.000000000000000 ) ;
#582 = CYLINDRICAL_SURFACE ( 'NONE', #254, 4.499999999999993783 ) ;
#583 = VERTEX_POINT ( 'NONE', #355 ) ;
#584 = VECTOR ( 'NONE', #373, 1000.000000000000000 ) ;
#585 = CARTESIAN_POINT ( 'NONE',  ( 15.50000000000000000, 14.99999999999999822, 11.99999999999999645 ) ) ;
#586 = DIRECTION ( 'NONE',  ( -0.9977851578566089286, 0.06651901052377499901, 0.000000000000000000 ) ) ;
#587 = ORIENTED_EDGE ( 'NONE', *, *, #671, .T. ) ;
#588 = EDGE_CURVE ( 'NONE', #159, #67, #185, .T. ) ;
#589 = CARTESIAN_POINT ( 'NONE',  ( 21.50000000000000000, 14.99999999999999822, 0.000000000000000000 ) ) ;
#590 = CARTESIAN_POINT ( 'NONE',  ( -15.50000000000000000, 14.99999999999999822, 11.99999999999999289 ) ) ;
#591 = LINE ( 'NONE', #543, #184 ) ;
#592 = ORIENTED_EDGE ( 'NONE', *, *, #542, .T. ) ;
#593 = ADVANCED_FACE ( 'NONE', ( #516, #306, #38, #147, #410 ), #140, .F. ) ;
#594 = ORIENTED_EDGE ( 'NONE', *, *, #444, .T. ) ;
#595 = DIRECTION ( 'NONE',  ( 0.000000000000000000, 0.000000000000000000, -1.000000000000000000 ) ) ;
#596 = DIRECTION ( 'NONE',  ( -0.9977851578566089286, -0.06651901052377398593, 0.000000000000000000 ) ) ;
#597 = ORIENTED_EDGE ( 'NONE', *, *, #220, .F. ) ;
#598 = CIRCLE ( 'NONE', #414, 4.499999999999993783 ) ;
#599 = ORIENTED_EDGE ( 'NONE', *, *, #628, .T. ) ;
#600 = STYLED_ITEM ( 'NONE', ( #75 ), #151 ) ;
#601 = FACE_OUTER_BOUND ( 'NONE', #124, .T. ) ;
#602 = VERTEX_POINT ( 'NONE', #155 ) ;
#603 = ORIENTED_EDGE ( 'NONE', *, *, #364, .F. ) ;
#604 = EDGE_CURVE ( 'NONE', #602, #636, #318, .T. ) ;
#605 = ORIENTED_EDGE ( 'NONE', *, *, #204, .F. ) ;
#606 =( BOUNDED_CURVE ( )  B_SPLINE_CURVE ( 3, ( #570, #253, #573, #675 ),
 .UNSPECIFIED., .F., .T. ) 
 B_SPLINE_CURVE_WITH_KNOTS ( ( 4, 4 ),
 ( 0.000000000000000000, 1.570796326794896558 ),
 .UNSPECIFIED. ) 
 CURVE ( )  GEOMETRIC_REPRESENTATION_ITEM ( )  RATIONAL_B_SPLINE_CURVE ( ( 1.000000000000000000, 0.8047378541243649375, 0.8047378541243649375, 1.000000000000000000 ) ) 
 REPRESENTATION_ITEM ( '' )  );
#607 = DIRECTION ( 'NONE',  ( -0.000000000000000000, -0.000000000000000000, -1.000000000000000000 ) ) ;
#608 = ORIENTED_EDGE ( 'NONE', *, *, #79, .T. ) ;
#609 = VECTOR ( 'NONE', #263, 1000.000000000000114 ) ;
#610 = CARTESIAN_POINT ( 'NONE',  ( 22.50000000000000355, 0.000000000000000000, 38.37867965644036872 ) ) ;
#611 = FACE_OUTER_BOUND ( 'NONE', #388, .T. ) ;
#612 = CYLINDRICAL_SURFACE ( 'NONE', #423, 1.499999999999999334 ) ;
#613 = DIRECTION ( 'NONE',  ( -0.000000000000000000, -0.000000000000000000, -1.000000000000000000 ) ) ;
#614 = CARTESIAN_POINT ( 'NONE',  ( -21.00332226321508244, -0.09977851578566246382, 39.00000000000000000 ) ) ;
#615 = DIRECTION ( 'NONE',  ( -0.000000000000000000, -1.000000000000000000, -0.000000000000000000 ) ) ;
#616 = CARTESIAN_POINT ( 'NONE',  ( 21.50000000000000000, 14.99999999999999822, 39.00000000000000000 ) ) ;
#617 = DIRECTION ( 'NONE',  ( -0.000000000000000000, -0.000000000000000000, -1.000000000000000000 ) ) ;
#618 = LINE ( 'NONE', #524, #117 ) ;
#619 = DIRECTION ( 'NONE',  ( 1.000000000000000000, 0.000000000000000000, 0.000000000000000000 ) ) ;
#620 = LINE ( 'NONE', #409, #560 ) ;
#621 = CARTESIAN_POINT ( 'NONE',  ( -15.50000000000000000, 14.99999999999999822, 31.49999999999999289 ) ) ;
#622 = CARTESIAN_POINT ( 'NONE',  ( -22.50000000000000000, 0.000000000000000000, 37.50000000000000000 ) ) ;
#623 = MECHANICAL_DESIGN_GEOMETRIC_PRESENTATION_REPRESENTATION (  '', ( #600 ), #681 ) ;
#624 = UNCERTAINTY_MEASURE_WITH_UNIT (LENGTH_MEASURE( 1.000000000000000082E-05 ), #319, 'distance_accuracy_value', 'NONE');
#625 = LINE ( 'NONE', #94, #258 ) ;
#626 = DIRECTION ( 'NONE',  ( 1.334402673828313339E-16, -1.000000000000000000, 0.000000000000000000 ) ) ;
#627 = ORIENTED_EDGE ( 'NONE', *, *, #575, .T. ) ;
#628 = EDGE_CURVE ( 'NONE', #646, #433, #323, .T. ) ;
#629 = DIRECTION ( 'NONE',  ( -1.334402673828313339E-16, -1.000000000000000000, 0.000000000000000000 ) ) ;
#630 = VECTOR ( 'NONE', #65, 1000.000000000000114 ) ;
#631 = LINE ( 'NONE', #104, #609 ) ;
#632 = ORIENTED_EDGE ( 'NONE', *, *, #588, .T. ) ;
#633 = LINE ( 'NONE', #425, #46 ) ;
#634 = DIRECTION ( 'NONE',  ( 0.000000000000000000, -0.000000000000000000, 1.000000000000000000 ) ) ;
#635 = VECTOR ( 'NONE', #87, 1000.000000000000000 ) ;
#636 = VERTEX_POINT ( 'NONE', #479 ) ;
#637 = CARTESIAN_POINT ( 'NONE',  ( -15.50000000000000000, 0.000000000000000000, 7.500000000000000000 ) ) ;
#638 = CARTESIAN_POINT ( 'NONE',  ( 22.50000000000000000, 0.000000000000000000, 39.00000000000000000 ) ) ;
#639 = ORIENTED_EDGE ( 'NONE', *, *, #200, .F. ) ;
#640 = EDGE_LOOP ( 'NONE', ( #439, #207, #691, #120 ) ) ;
#641 = LINE ( 'NONE', #482, #16 ) ;
#642 = CARTESIAN_POINT ( 'NONE',  ( 19.99667036216270688, 14.99999999999999822, 0.000000000000000000 ) ) ;
#643 = EDGE_LOOP ( 'NONE', ( #605, #687, #276, #639 ) ) ;
#644 = ORIENTED_EDGE ( 'NONE', *, *, #287, .T. ) ;
#645 = VERTEX_POINT ( 'NONE', #49 ) ;
#646 = VERTEX_POINT ( 'NONE', #431 ) ;
#647 = ORIENTED_EDGE ( 'NONE', *, *, #22, .T. ) ;
#648 = VECTOR ( 'NONE', #146, 1000.000000000000000 ) ;
#649 = EDGE_CURVE ( 'NONE', #651, #384, #52, .T. ) ;
#650 = APPLICATION_PROTOCOL_DEFINITION ( 'draft international standard', 'automotive_design', 1998, #396 ) ;
#651 = VERTEX_POINT ( 'NONE', #590 ) ;
#652 = ORIENTED_EDGE ( 'NONE', *, *, #241, .F. ) ;
#653 = EDGE_CURVE ( 'NONE', #101, #546, #304, .T. ) ;
#654 = ORIENTED_EDGE ( 'NONE', *, *, #514, .T. ) ;
#655 = FACE_OUTER_BOUND ( 'NONE', #331, .T. ) ;
#656 = ORIENTED_EDGE ( 'NONE', *, *, #234, .F. ) ;
#657 = ADVANCED_FACE ( 'NONE', ( #474 ), #685, .T. ) ;
#658 = VECTOR ( 'NONE', #408, 1000.000000000000000 ) ;
#659 = CARTESIAN_POINT ( 'NONE',  ( -22.50000000000000000, 0.000000000000000000, 1.500000000000001332 ) ) ;
#660 = CIRCLE ( 'NONE', #144, 4.499999999999992006 ) ;
#661 = EDGE_CURVE ( 'NONE', #282, #541, #631, .T. ) ;
#662 = DIRECTION ( 'NONE',  ( 0.9977851578566089286, -0.06651901052377384715, 0.000000000000000000 ) ) ;
#663 = CARTESIAN_POINT ( 'NONE',  ( -21.50000000000000000, 14.99999999999999822, 1.500000000000001332 ) ) ;
#664 = PLANE ( 'NONE',  #288 ) ;
#665 =( NAMED_UNIT ( * ) SI_UNIT ( $, .STERADIAN. ) SOLID_ANGLE_UNIT ( ) );
#666 = FACE_BOUND ( 'NONE', #261, .T. ) ;
#667 = AXIS2_PLACEMENT_3D ( 'NONE', #487, #7, #262 ) ;
#668 = AXIS2_PLACEMENT_3D ( 'NONE', #531, #483, #158 ) ;
#669 = DIRECTION ( 'NONE',  ( -0.000000000000000000, -1.000000000000000000, -0.000000000000000000 ) ) ;
#670 = DIRECTION ( 'NONE',  ( 0.000000000000000000, 0.000000000000000000, -1.000000000000000000 ) ) ;
#671 = EDGE_CURVE ( 'NONE', #645, #67, #209, .T. ) ;
#672 = CARTESIAN_POINT ( 'NONE',  ( -8.500000000000000000, 15.00000000000000000, 39.00000000000000000 ) ) ;
#673 = DIRECTION ( 'NONE',  ( 0.000000000000000000, 0.000000000000000000, -1.000000000000000000 ) ) ;
#674 = DIRECTION ( 'NONE',  ( -0.000000000000000000, -1.000000000000000000, -0.000000000000000000 ) ) ;
#675 = CARTESIAN_POINT ( 'NONE',  ( -20.99667036216270688, 0.000000000000000000, 0.000000000000000000 ) ) ;
#676 = CARTESIAN_POINT ( 'NONE',  ( -20.99667036216270333, 0.000000000000000000, 39.00000000000000000 ) ) ;
#677 = LINE ( 'NONE', #197, #648 ) ;
#678 = CARTESIAN_POINT ( 'NONE',  ( 15.50000000000000000, -1.004210375300826519E-15, 7.500000000000003553 ) ) ;
#679 = EDGE_CURVE ( 'NONE', #173, #282, #297, .T. ) ;
#680 = ADVANCED_FACE ( 'NONE', ( #369 ), #582, .F. ) ;
#681 =( GEOMETRIC_REPRESENTATION_CONTEXT ( 3 ) GLOBAL_UNCERTAINTY_ASSIGNED_CONTEXT ( ( #217 ) ) GLOBAL_UNIT_ASSIGNED_CONTEXT ( ( #292, #299, #665 ) ) REPRESENTATION_CONTEXT ( 'NONE', 'WORKASPACE' ) );
#682 = ORIENTED_EDGE ( 'NONE', *, *, #321, .T. ) ;
#683 = CYLINDRICAL_SURFACE ( 'NONE', #59, 4.499999999999992895 ) ;
#684 = CARTESIAN_POINT ( 'NONE',  ( -21.50000000000000000, 14.99999999999999822, 37.50000000000000000 ) ) ;
#685 = CYLINDRICAL_SURFACE ( 'NONE', #398, 1.499999999999999334 ) ;
#686 = CARTESIAN_POINT ( 'NONE',  ( 15.50000000000000000, 0.000000000000000000, 7.500000000000003553 ) ) ;
#687 = ORIENTED_EDGE ( 'NONE', *, *, #266, .F. ) ;
#688 = DIRECTION ( 'NONE',  ( -0.000000000000000000, -1.000000000000000000, -0.000000000000000000 ) ) ;
#689 = EDGE_CURVE ( 'NONE', #386, #159, #591, .T. ) ;
#690 = CARTESIAN_POINT ( 'NONE',  ( -15.50000000000000000, 0.000000000000000000, 3.000000000000007105 ) ) ;
#691 = ORIENTED_EDGE ( 'NONE', *, *, #241, .T. ) ;
ENDSEC;
END-ISO-10303-21;
